<?xml version="1.0" encoding="UTF-8" standalone="no"?>
<!DOCTYPE svg PUBLIC "-//W3C//DTD SVG 1.1//EN"
 "http://www.w3.org/Graphics/SVG/1.1/DTD/svg11.dtd">
<!-- Generated by graphviz version 2.40.1 (20161225.0304)
 -->
<!-- Title: public.t_messages Pages: 1 -->
<svg width="1423pt" height="1259pt"
 viewBox="0.00 0.00 1423.00 1259.00" xmlns="http://www.w3.org/2000/svg" xmlns:xlink="http://www.w3.org/1999/xlink">
<g id="graph0" class="graph" transform="scale(1 1) rotate(0) translate(4 1255)">
<title>public.t_messages</title>
<polygon fill="#ffffff" stroke="transparent" points="-4,4 -4,-1255 1419,-1255 1419,4 -4,4"/>
<!-- public.t_messages -->
<g id="node1" class="node">
<title>public.t_messages</title>
<polygon fill="#efefef" stroke="transparent" points="582,-892.5 582,-927.5 872,-927.5 872,-892.5 582,-892.5"/>
<polygon fill="none" stroke="#000000" points="582,-892.5 582,-927.5 872,-927.5 872,-892.5 582,-892.5"/>
<text text-anchor="start" x="588.6987" y="-905.3" font-family="Arial Bold" font-size="18.00" fill="#000000">public.t_messages</text>
<text text-anchor="start" x="737.7333" y="-905.3" font-family="Arial" font-size="14.00" fill="#000000">    </text>
<text text-anchor="start" x="771.9381" y="-905.3" font-family="Arial" font-size="14.00" fill="#666666">[BASE TABLE]</text>
<polygon fill="none" stroke="#000000" points="582,-862.5 582,-892.5 872,-892.5 872,-862.5 582,-862.5"/>
<text text-anchor="start" x="589" y="-873.9" font-family="Arial" font-size="14.00" fill="#000000">t_messages_pkey </text>
<text text-anchor="start" x="705.7026" y="-873.9" font-family="Arial" font-size="14.00" fill="#666666">[bigint]</text>
<polygon fill="none" stroke="#000000" points="582,-832.5 582,-862.5 872,-862.5 872,-832.5 582,-832.5"/>
<text text-anchor="start" x="589" y="-843.9" font-family="Arial" font-size="14.00" fill="#000000">message_id </text>
<text text-anchor="start" x="668.3534" y="-843.9" font-family="Arial" font-size="14.00" fill="#666666">[uuid]</text>
<polygon fill="none" stroke="#000000" points="582,-802.5 582,-832.5 872,-832.5 872,-802.5 582,-802.5"/>
<text text-anchor="start" x="589" y="-813.9" font-family="Arial" font-size="14.00" fill="#000000">chat_room_id </text>
<text text-anchor="start" x="677.6872" y="-813.9" font-family="Arial" font-size="14.00" fill="#666666">[uuid]</text>
<polygon fill="none" stroke="#000000" points="582,-772.5 582,-802.5 872,-802.5 872,-772.5 582,-772.5"/>
<text text-anchor="start" x="589" y="-783.9" font-family="Arial" font-size="14.00" fill="#000000">sender_id </text>
<text text-anchor="start" x="654.3534" y="-783.9" font-family="Arial" font-size="14.00" fill="#666666">[uuid]</text>
<polygon fill="none" stroke="#000000" points="582,-742.5 582,-772.5 872,-772.5 872,-742.5 582,-742.5"/>
<text text-anchor="start" x="589" y="-753.9" font-family="Arial" font-size="14.00" fill="#000000">body </text>
<text text-anchor="start" x="623.2384" y="-753.9" font-family="Arial" font-size="14.00" fill="#666666">[text]</text>
<polygon fill="none" stroke="#000000" points="582,-712.5 582,-742.5 872,-742.5 872,-712.5 582,-712.5"/>
<text text-anchor="start" x="589" y="-723.9" font-family="Arial" font-size="14.00" fill="#000000">posted_at </text>
<text text-anchor="start" x="654.3674" y="-723.9" font-family="Arial" font-size="14.00" fill="#666666">[timestamp with time zone]</text>
<polygon fill="none" stroke="#000000" points="582,-682.5 582,-712.5 872,-712.5 872,-682.5 582,-682.5"/>
<text text-anchor="start" x="589" y="-693.9" font-family="Arial" font-size="14.00" fill="#000000">last_edited_at </text>
<text text-anchor="start" x="680.0364" y="-693.9" font-family="Arial" font-size="14.00" fill="#666666">[timestamp with time zone]</text>
<polygon fill="none" stroke="#000000" stroke-width="3" points="580.5,-681.5 580.5,-929.5 873.5,-929.5 873.5,-681.5 580.5,-681.5"/>
</g>
<!-- public.m_chat_rooms -->
<g id="node4" class="node">
<title>public.m_chat_rooms</title>
<polygon fill="#efefef" stroke="transparent" points="367,-417.5 367,-452.5 679,-452.5 679,-417.5 367,-417.5"/>
<polygon fill="none" stroke="#000000" points="367,-417.5 367,-452.5 679,-452.5 679,-417.5 367,-417.5"/>
<text text-anchor="start" x="373.7034" y="-430.3" font-family="Arial Bold" font-size="18.00" fill="#000000">public.m_chat_rooms</text>
<text text-anchor="start" x="544.7286" y="-430.3" font-family="Arial" font-size="14.00" fill="#000000">    </text>
<text text-anchor="start" x="578.9334" y="-430.3" font-family="Arial" font-size="14.00" fill="#666666">[BASE TABLE]</text>
<polygon fill="none" stroke="#000000" points="367,-387.5 367,-417.5 679,-417.5 679,-387.5 367,-387.5"/>
<text text-anchor="start" x="374" y="-398.9" font-family="Arial" font-size="14.00" fill="#000000">m_chat_rooms_pkey    </text>
<text text-anchor="start" x="538.1206" y="-398.9" font-family="Arial" font-size="14.00" fill="#666666">[bigint]</text>
<polygon fill="none" stroke="#000000" points="367,-357.5 367,-387.5 679,-387.5 679,-357.5 367,-357.5"/>
<text text-anchor="start" x="374" y="-368.9" font-family="Arial" font-size="14.00" fill="#000000">chat_room_id    </text>
<text text-anchor="start" x="493.0014" y="-368.9" font-family="Arial" font-size="14.00" fill="#666666">[uuid]</text>
<polygon fill="none" stroke="#000000" points="367,-327.5 367,-357.5 679,-357.5 679,-327.5 367,-327.5"/>
<text text-anchor="start" x="374" y="-338.9" font-family="Arial" font-size="14.00" fill="#000000">name    </text>
<text text-anchor="start" x="443.2132" y="-338.9" font-family="Arial" font-size="14.00" fill="#666666">[varchar(255)]</text>
<polygon fill="none" stroke="#000000" points="367,-297.5 367,-327.5 679,-327.5 679,-297.5 367,-297.5"/>
<text text-anchor="start" x="374" y="-308.9" font-family="Arial" font-size="14.00" fill="#000000">is_private    </text>
<text text-anchor="start" x="468.0996" y="-308.9" font-family="Arial" font-size="14.00" fill="#666666">[boolean]</text>
<polygon fill="none" stroke="#000000" points="367,-267.5 367,-297.5 679,-297.5 679,-267.5 367,-267.5"/>
<text text-anchor="start" x="374" y="-278.9" font-family="Arial" font-size="14.00" fill="#000000">cover_image_id    </text>
<text text-anchor="start" x="507" y="-278.9" font-family="Arial" font-size="14.00" fill="#666666">[uuid]</text>
<polygon fill="none" stroke="#000000" points="367,-237.5 367,-267.5 679,-267.5 679,-237.5 367,-237.5"/>
<text text-anchor="start" x="374" y="-248.9" font-family="Arial" font-size="14.00" fill="#000000">owner_id    </text>
<text text-anchor="start" x="464.9916" y="-248.9" font-family="Arial" font-size="14.00" fill="#666666">[uuid]</text>
<polygon fill="none" stroke="#000000" points="367,-207.5 367,-237.5 679,-237.5 679,-207.5 367,-207.5"/>
<text text-anchor="start" x="374" y="-218.9" font-family="Arial" font-size="14.00" fill="#000000">from_organization    </text>
<text text-anchor="start" x="520.2244" y="-218.9" font-family="Arial" font-size="14.00" fill="#666666">[boolean]</text>
<polygon fill="none" stroke="#000000" points="367,-177.5 367,-207.5 679,-207.5 679,-177.5 367,-177.5"/>
<text text-anchor="start" x="374" y="-188.9" font-family="Arial" font-size="14.00" fill="#000000">created_at    </text>
<text text-anchor="start" x="474.3422" y="-188.9" font-family="Arial" font-size="14.00" fill="#666666">[timestamp with time zone]</text>
<polygon fill="none" stroke="#000000" points="367,-147.5 367,-177.5 679,-177.5 679,-147.5 367,-147.5"/>
<text text-anchor="start" x="374" y="-158.9" font-family="Arial" font-size="14.00" fill="#000000">updated_at    </text>
<text text-anchor="start" x="478.2468" y="-158.9" font-family="Arial" font-size="14.00" fill="#666666">[timestamp with time zone]</text>
</g>
<!-- public.t_messages&#45;&gt;public.m_chat_rooms -->
<g id="edge3" class="edge">
<title>public.t_messages:chat_room_id&#45;&gt;public.m_chat_rooms:chat_room_id</title>
<path fill="none" stroke="#000000" d="M571.9216,-817.2476C392.3302,-807.8929 664.8898,-541.4064 679,-496 695.2886,-443.5837 733.8889,-372.5 679,-372.5"/>
<polygon fill="#000000" stroke="#000000" points="572.0031,-817.2495 581.8873,-821.9986 577.0016,-817.3748 582,-817.5 582,-817.5 582,-817.5 577.0016,-817.3748 582.1127,-813.0014 572.0031,-817.2495 572.0031,-817.2495"/>
<text text-anchor="start" x="6.818" y="-827.5" font-family="Arial" font-size="10.00" fill="#000000">FOREIGN KEY (chat_room_id) REFERENCES m_chat_rooms(chat_room_id) ON UPDATE CASCADE ON DELETE CASCADE</text>
</g>
<!-- public.m_members -->
<g id="node5" class="node">
<title>public.m_members</title>
<polygon fill="#efefef" stroke="transparent" points="784,-522.5 784,-557.5 1077,-557.5 1077,-522.5 784,-522.5"/>
<polygon fill="none" stroke="#000000" points="784,-522.5 784,-557.5 1077,-557.5 1077,-522.5 784,-522.5"/>
<text text-anchor="start" x="790.7146" y="-535.3" font-family="Arial Bold" font-size="18.00" fill="#000000">public.m_members</text>
<text text-anchor="start" x="942.7174" y="-535.3" font-family="Arial" font-size="14.00" fill="#000000">    </text>
<text text-anchor="start" x="976.9222" y="-535.3" font-family="Arial" font-size="14.00" fill="#666666">[BASE TABLE]</text>
<polygon fill="none" stroke="#000000" points="784,-492.5 784,-522.5 1077,-522.5 1077,-492.5 784,-492.5"/>
<text text-anchor="start" x="791" y="-503.9" font-family="Arial" font-size="14.00" fill="#000000">m_members_pkey    </text>
<text text-anchor="start" x="940.3254" y="-503.9" font-family="Arial" font-size="14.00" fill="#666666">[bigint]</text>
<polygon fill="none" stroke="#000000" points="784,-462.5 784,-492.5 1077,-492.5 1077,-462.5 784,-462.5"/>
<text text-anchor="start" x="791" y="-473.9" font-family="Arial" font-size="14.00" fill="#000000">member_id    </text>
<text text-anchor="start" x="895.2062" y="-473.9" font-family="Arial" font-size="14.00" fill="#666666">[uuid]</text>
<polygon fill="none" stroke="#000000" points="784,-432.5 784,-462.5 1077,-462.5 1077,-432.5 784,-432.5"/>
<text text-anchor="start" x="791" y="-443.9" font-family="Arial" font-size="14.00" fill="#000000">login_id    </text>
<text text-anchor="start" x="873.4376" y="-443.9" font-family="Arial" font-size="14.00" fill="#666666">[varchar(255)]</text>
<polygon fill="none" stroke="#000000" points="784,-402.5 784,-432.5 1077,-432.5 1077,-402.5 784,-402.5"/>
<text text-anchor="start" x="791" y="-413.9" font-family="Arial" font-size="14.00" fill="#000000">password    </text>
<text text-anchor="start" x="885.1024" y="-413.9" font-family="Arial" font-size="14.00" fill="#666666">[varchar(255)]</text>
<polygon fill="none" stroke="#000000" points="784,-372.5 784,-402.5 1077,-402.5 1077,-372.5 784,-372.5"/>
<text text-anchor="start" x="791" y="-383.9" font-family="Arial" font-size="14.00" fill="#000000">email    </text>
<text text-anchor="start" x="858.6438" y="-383.9" font-family="Arial" font-size="14.00" fill="#666666">[varchar(255)]</text>
<polygon fill="none" stroke="#000000" points="784,-342.5 784,-372.5 1077,-372.5 1077,-342.5 784,-342.5"/>
<text text-anchor="start" x="791" y="-353.9" font-family="Arial" font-size="14.00" fill="#000000">name    </text>
<text text-anchor="start" x="860.2132" y="-353.9" font-family="Arial" font-size="14.00" fill="#666666">[varchar(255)]</text>
<polygon fill="none" stroke="#000000" points="784,-312.5 784,-342.5 1077,-342.5 1077,-312.5 784,-312.5"/>
<text text-anchor="start" x="791" y="-323.9" font-family="Arial" font-size="14.00" fill="#000000">first_name    </text>
<text text-anchor="start" x="890.5442" y="-323.9" font-family="Arial" font-size="14.00" fill="#666666">[varchar(255)]</text>
<polygon fill="none" stroke="#000000" points="784,-282.5 784,-312.5 1077,-312.5 1077,-282.5 784,-282.5"/>
<text text-anchor="start" x="791" y="-293.9" font-family="Arial" font-size="14.00" fill="#000000">last_name    </text>
<text text-anchor="start" x="889.7756" y="-293.9" font-family="Arial" font-size="14.00" fill="#666666">[varchar(255)]</text>
<polygon fill="none" stroke="#000000" points="784,-252.5 784,-282.5 1077,-282.5 1077,-252.5 784,-252.5"/>
<text text-anchor="start" x="791" y="-263.9" font-family="Arial" font-size="14.00" fill="#000000">attend_status_id    </text>
<text text-anchor="start" x="927.9172" y="-263.9" font-family="Arial" font-size="14.00" fill="#666666">[uuid]</text>
<polygon fill="none" stroke="#000000" points="784,-222.5 784,-252.5 1077,-252.5 1077,-222.5 784,-222.5"/>
<text text-anchor="start" x="791" y="-233.9" font-family="Arial" font-size="14.00" fill="#000000">profile_image_id    </text>
<text text-anchor="start" x="927.8864" y="-233.9" font-family="Arial" font-size="14.00" fill="#666666">[uuid]</text>
<polygon fill="none" stroke="#000000" points="784,-192.5 784,-222.5 1077,-222.5 1077,-192.5 784,-192.5"/>
<text text-anchor="start" x="791" y="-203.9" font-family="Arial" font-size="14.00" fill="#000000">grade_id    </text>
<text text-anchor="start" x="879.6676" y="-203.9" font-family="Arial" font-size="14.00" fill="#666666">[uuid]</text>
<polygon fill="none" stroke="#000000" points="784,-162.5 784,-192.5 1077,-192.5 1077,-162.5 784,-162.5"/>
<text text-anchor="start" x="791" y="-173.9" font-family="Arial" font-size="14.00" fill="#000000">group_id    </text>
<text text-anchor="start" x="879.6676" y="-173.9" font-family="Arial" font-size="14.00" fill="#666666">[uuid]</text>
<polygon fill="none" stroke="#000000" points="784,-132.5 784,-162.5 1077,-162.5 1077,-132.5 784,-132.5"/>
<text text-anchor="start" x="791" y="-143.9" font-family="Arial" font-size="14.00" fill="#000000">personal_organization_id    </text>
<text text-anchor="start" x="981.582" y="-143.9" font-family="Arial" font-size="14.00" fill="#666666">[uuid]</text>
<polygon fill="none" stroke="#000000" points="784,-102.5 784,-132.5 1077,-132.5 1077,-102.5 784,-102.5"/>
<text text-anchor="start" x="791" y="-113.9" font-family="Arial" font-size="14.00" fill="#000000">role_id    </text>
<text text-anchor="start" x="867.209" y="-113.9" font-family="Arial" font-size="14.00" fill="#666666">[uuid]</text>
<polygon fill="none" stroke="#000000" points="784,-72.5 784,-102.5 1077,-102.5 1077,-72.5 784,-72.5"/>
<text text-anchor="start" x="791" y="-83.9" font-family="Arial" font-size="14.00" fill="#000000">created_at    </text>
<text text-anchor="start" x="891.3422" y="-83.9" font-family="Arial" font-size="14.00" fill="#666666">[timestamp with time zone]</text>
<polygon fill="none" stroke="#000000" points="784,-42.5 784,-72.5 1077,-72.5 1077,-42.5 784,-42.5"/>
<text text-anchor="start" x="791" y="-53.9" font-family="Arial" font-size="14.00" fill="#000000">updated_at    </text>
<text text-anchor="start" x="895.2468" y="-53.9" font-family="Arial" font-size="14.00" fill="#666666">[timestamp with time zone]</text>
</g>
<!-- public.t_messages&#45;&gt;public.m_members -->
<g id="edge4" class="edge">
<title>public.t_messages:sender_id&#45;&gt;public.m_members:member_id</title>
<path fill="none" stroke="#000000" d="M882.1227,-786.6699C935.6278,-777.2311 907.2443,-689.4975 872,-637 848.4462,-601.9158 807.5538,-636.0842 784,-601 753.4055,-555.4285 729.1111,-477.5 784,-477.5"/>
<polygon fill="#000000" stroke="#000000" points="881.9665,-786.6827 871.6322,-783.0151 876.9833,-787.0913 872,-787.5 872,-787.5 872,-787.5 876.9833,-787.0913 872.3678,-791.9849 881.9665,-786.6827 881.9665,-786.6827"/>
<text text-anchor="start" x="879.2705" y="-797.5" font-family="Arial" font-size="10.00" fill="#000000">FOREIGN KEY (sender_id) REFERENCES m_members(member_id) ON UPDATE SET NULL ON DELETE SET NULL</text>
</g>
<!-- public.t_attached_messages -->
<g id="node2" class="node">
<title>public.t_attached_messages</title>
<polygon fill="#efefef" stroke="transparent" points="319,-1172.5 319,-1207.5 688,-1207.5 688,-1172.5 319,-1172.5"/>
<polygon fill="none" stroke="#000000" points="319,-1172.5 319,-1207.5 688,-1207.5 688,-1172.5 319,-1172.5"/>
<text text-anchor="start" x="325.6779" y="-1185.3" font-family="Arial Bold" font-size="18.00" fill="#000000">public.t_attached_messages</text>
<text text-anchor="start" x="553.7541" y="-1185.3" font-family="Arial" font-size="14.00" fill="#000000">    </text>
<text text-anchor="start" x="587.9589" y="-1185.3" font-family="Arial" font-size="14.00" fill="#666666">[BASE TABLE]</text>
<polygon fill="none" stroke="#000000" points="319,-1142.5 319,-1172.5 688,-1172.5 688,-1142.5 319,-1142.5"/>
<text text-anchor="start" x="326" y="-1153.9" font-family="Arial" font-size="14.00" fill="#000000">t_attached_messages_pkey    </text>
<text text-anchor="start" x="534.4936" y="-1153.9" font-family="Arial" font-size="14.00" fill="#666666">[bigint]</text>
<polygon fill="none" stroke="#000000" points="319,-1112.5 319,-1142.5 688,-1142.5 688,-1112.5 319,-1112.5"/>
<text text-anchor="start" x="326" y="-1123.9" font-family="Arial" font-size="14.00" fill="#000000">attached_message_id    </text>
<text text-anchor="start" x="497.1444" y="-1123.9" font-family="Arial" font-size="14.00" fill="#666666">[uuid]</text>
<polygon fill="none" stroke="#000000" points="319,-1082.5 319,-1112.5 688,-1112.5 688,-1082.5 319,-1082.5"/>
<text text-anchor="start" x="326" y="-1093.9" font-family="Arial" font-size="14.00" fill="#000000">message_id    </text>
<text text-anchor="start" x="435.6676" y="-1093.9" font-family="Arial" font-size="14.00" fill="#666666">[uuid]</text>
<polygon fill="none" stroke="#000000" points="319,-1052.5 319,-1082.5 688,-1082.5 688,-1052.5 319,-1052.5"/>
<text text-anchor="start" x="326" y="-1063.9" font-family="Arial" font-size="14.00" fill="#000000">attachable_item_id    </text>
<text text-anchor="start" x="477.683" y="-1063.9" font-family="Arial" font-size="14.00" fill="#666666">[uuid]</text>
</g>
<!-- public.t_attached_messages&#45;&gt;public.t_messages -->
<g id="edge1" class="edge">
<title>public.t_attached_messages:message_id&#45;&gt;public.t_messages:message_id</title>
<path fill="none" stroke="#000000" d="M698.1941,-1095.8545C723.5241,-1086.3982 708.3492,-1038.4018 688,-1010 659.0225,-969.5555 610.9775,-1014.4445 582,-974 549.2553,-928.2975 525.7778,-847.5 582,-847.5"/>
<polygon fill="#000000" stroke="#000000" points="697.8722,-1095.9064 687.2829,-1093.0575 692.9361,-1096.7032 688,-1097.5 688,-1097.5 688,-1097.5 692.9361,-1096.7032 688.7171,-1101.9425 697.8722,-1095.9064 697.8722,-1095.9064"/>
<text text-anchor="start" x="134.9345" y="-1107.5" font-family="Arial" font-size="10.00" fill="#000000">FOREIGN KEY (message_id) REFERENCES t_messages(message_id) ON UPDATE RESTRICT ON DELETE RESTRICT</text>
</g>
<!-- public.t_read_receipts -->
<g id="node3" class="node">
<title>public.t_read_receipts</title>
<polygon fill="#efefef" stroke="transparent" points="792,-1172.5 792,-1207.5 1109,-1207.5 1109,-1172.5 792,-1172.5"/>
<polygon fill="none" stroke="#000000" points="792,-1172.5 792,-1207.5 1109,-1207.5 1109,-1172.5 792,-1172.5"/>
<text text-anchor="start" x="798.6951" y="-1185.3" font-family="Arial Bold" font-size="18.00" fill="#000000">public.t_read_receipts</text>
<text text-anchor="start" x="974.7369" y="-1185.3" font-family="Arial" font-size="14.00" fill="#000000">    </text>
<text text-anchor="start" x="1008.9417" y="-1185.3" font-family="Arial" font-size="14.00" fill="#666666">[BASE TABLE]</text>
<polygon fill="none" stroke="#000000" points="792,-1142.5 792,-1172.5 1109,-1172.5 1109,-1142.5 792,-1142.5"/>
<text text-anchor="start" x="799" y="-1153.9" font-family="Arial" font-size="14.00" fill="#000000">t_read_receipts_pkey    </text>
<text text-anchor="start" x="967.0224" y="-1153.9" font-family="Arial" font-size="14.00" fill="#666666">[bigint]</text>
<polygon fill="none" stroke="#000000" points="792,-1112.5 792,-1142.5 1109,-1142.5 1109,-1112.5 792,-1112.5"/>
<text text-anchor="start" x="799" y="-1123.9" font-family="Arial" font-size="14.00" fill="#000000">member_id    </text>
<text text-anchor="start" x="903.2062" y="-1123.9" font-family="Arial" font-size="14.00" fill="#666666">[uuid]</text>
<polygon fill="none" stroke="#000000" points="792,-1082.5 792,-1112.5 1109,-1112.5 1109,-1082.5 792,-1082.5"/>
<text text-anchor="start" x="799" y="-1093.9" font-family="Arial" font-size="14.00" fill="#000000">message_id    </text>
<text text-anchor="start" x="908.6676" y="-1093.9" font-family="Arial" font-size="14.00" fill="#666666">[uuid]</text>
<polygon fill="none" stroke="#000000" points="792,-1052.5 792,-1082.5 1109,-1082.5 1109,-1052.5 792,-1052.5"/>
<text text-anchor="start" x="799" y="-1063.9" font-family="Arial" font-size="14.00" fill="#000000">read_at    </text>
<text text-anchor="start" x="880.669" y="-1063.9" font-family="Arial" font-size="14.00" fill="#666666">[timestamp with time zone]</text>
</g>
<!-- public.t_read_receipts&#45;&gt;public.t_messages -->
<g id="edge2" class="edge">
<title>public.t_read_receipts:message_id&#45;&gt;public.t_messages:message_id</title>
<path fill="none" stroke="#000000" d="M781.8486,-1095.8836C756.7558,-1086.5889 773.029,-1039.3403 792,-1010 813.1703,-977.2583 850.8297,-1006.7417 872,-974 902.527,-926.7873 928.2222,-847.5 872,-847.5"/>
<polygon fill="#000000" stroke="#000000" points="782.1244,-1095.9274 791.2923,-1101.944 787.0622,-1096.7137 792,-1097.5 792,-1097.5 792,-1097.5 787.0622,-1096.7137 792.7077,-1093.056 782.1244,-1095.9274 782.1244,-1095.9274"/>
<text text-anchor="start" x="798.5935" y="-1107.5" font-family="Arial" font-size="10.00" fill="#000000">FOREIGN KEY (message_id) REFERENCES t_messages(message_id) ON UPDATE CASCADE ON DELETE CASCADE</text>
</g>
</g>
</svg>
