<?xml version="1.0" encoding="UTF-8" standalone="no"?>
<!DOCTYPE svg PUBLIC "-//W3C//DTD SVG 1.1//EN"
 "http://www.w3.org/Graphics/SVG/1.1/DTD/svg11.dtd">
<!-- Generated by graphviz version 2.40.1 (20161225.0304)
 -->
<!-- Title: public.m_policies Pages: 1 -->
<svg width="1186pt" height="869pt"
 viewBox="0.00 0.00 1186.00 869.00" xmlns="http://www.w3.org/2000/svg" xmlns:xlink="http://www.w3.org/1999/xlink">
<g id="graph0" class="graph" transform="scale(1 1) rotate(0) translate(4 865)">
<title>public.m_policies</title>
<polygon fill="#ffffff" stroke="transparent" points="-4,4 -4,-865 1182,-865 1182,4 -4,4"/>
<!-- public.m_policies -->
<g id="node1" class="node">
<title>public.m_policies</title>
<polygon fill="#efefef" stroke="transparent" points="516,-532.5 516,-567.5 794,-567.5 794,-532.5 516,-532.5"/>
<polygon fill="none" stroke="#000000" points="516,-532.5 516,-567.5 794,-567.5 794,-532.5 516,-532.5"/>
<text text-anchor="start" x="522.7116" y="-545.3" font-family="Arial Bold" font-size="18.00" fill="#000000">public.m_policies</text>
<text text-anchor="start" x="659.7204" y="-545.3" font-family="Arial" font-size="14.00" fill="#000000">    </text>
<text text-anchor="start" x="693.9252" y="-545.3" font-family="Arial" font-size="14.00" fill="#666666">[BASE TABLE]</text>
<polygon fill="none" stroke="#000000" points="516,-502.5 516,-532.5 794,-532.5 794,-502.5 516,-502.5"/>
<text text-anchor="start" x="523" y="-513.9" font-family="Arial" font-size="14.00" fill="#000000">m_policies_pkey </text>
<text text-anchor="start" x="630.3492" y="-513.9" font-family="Arial" font-size="14.00" fill="#666666">[bigint]</text>
<polygon fill="none" stroke="#000000" points="516,-472.5 516,-502.5 794,-502.5 794,-472.5 516,-472.5"/>
<text text-anchor="start" x="523" y="-483.9" font-family="Arial" font-size="14.00" fill="#000000">policy_id </text>
<text text-anchor="start" x="581.3408" y="-483.9" font-family="Arial" font-size="14.00" fill="#666666">[uuid]</text>
<polygon fill="none" stroke="#000000" points="516,-442.5 516,-472.5 794,-472.5 794,-442.5 516,-442.5"/>
<text text-anchor="start" x="523" y="-453.9" font-family="Arial" font-size="14.00" fill="#000000">name </text>
<text text-anchor="start" x="561.899" y="-453.9" font-family="Arial" font-size="14.00" fill="#666666">[varchar(255)]</text>
<polygon fill="none" stroke="#000000" points="516,-412.5 516,-442.5 794,-442.5 794,-412.5 516,-412.5"/>
<text text-anchor="start" x="523" y="-423.9" font-family="Arial" font-size="14.00" fill="#000000">description </text>
<text text-anchor="start" x="594.568" y="-423.9" font-family="Arial" font-size="14.00" fill="#666666">[text]</text>
<polygon fill="none" stroke="#000000" points="516,-382.5 516,-412.5 794,-412.5 794,-382.5 516,-382.5"/>
<text text-anchor="start" x="523" y="-393.9" font-family="Arial" font-size="14.00" fill="#000000">key </text>
<text text-anchor="start" x="548.6732" y="-393.9" font-family="Arial" font-size="14.00" fill="#666666">[varchar(255)]</text>
<polygon fill="none" stroke="#000000" points="516,-352.5 516,-382.5 794,-382.5 794,-352.5 516,-352.5"/>
<text text-anchor="start" x="523" y="-363.9" font-family="Arial" font-size="14.00" fill="#000000">policy_category_id </text>
<text text-anchor="start" x="642.805" y="-363.9" font-family="Arial" font-size="14.00" fill="#666666">[uuid]</text>
<polygon fill="none" stroke="#000000" stroke-width="3" points="514.5,-351.5 514.5,-569.5 795.5,-569.5 795.5,-351.5 514.5,-351.5"/>
</g>
<!-- public.m_policy_categories -->
<g id="node3" class="node">
<title>public.m_policy_categories</title>
<polygon fill="#efefef" stroke="transparent" points="476,-192.5 476,-227.5 833,-227.5 833,-192.5 476,-192.5"/>
<polygon fill="none" stroke="#000000" points="476,-192.5 476,-227.5 833,-227.5 833,-192.5 476,-192.5"/>
<text text-anchor="start" x="482.6989" y="-205.3" font-family="Arial Bold" font-size="18.00" fill="#000000">public.m_policy_categories</text>
<text text-anchor="start" x="698.7331" y="-205.3" font-family="Arial" font-size="14.00" fill="#000000">    </text>
<text text-anchor="start" x="732.9379" y="-205.3" font-family="Arial" font-size="14.00" fill="#666666">[BASE TABLE]</text>
<polygon fill="none" stroke="#000000" points="476,-162.5 476,-192.5 833,-192.5 833,-162.5 476,-162.5"/>
<text text-anchor="start" x="483" y="-173.9" font-family="Arial" font-size="14.00" fill="#000000">m_policy_categories_pkey    </text>
<text text-anchor="start" x="682.1276" y="-173.9" font-family="Arial" font-size="14.00" fill="#666666">[bigint]</text>
<polygon fill="none" stroke="#000000" points="476,-132.5 476,-162.5 833,-162.5 833,-132.5 476,-132.5"/>
<text text-anchor="start" x="483" y="-143.9" font-family="Arial" font-size="14.00" fill="#000000">policy_category_id    </text>
<text text-anchor="start" x="633.1192" y="-143.9" font-family="Arial" font-size="14.00" fill="#666666">[uuid]</text>
<polygon fill="none" stroke="#000000" points="476,-102.5 476,-132.5 833,-132.5 833,-102.5 476,-102.5"/>
<text text-anchor="start" x="483" y="-113.9" font-family="Arial" font-size="14.00" fill="#000000">name    </text>
<text text-anchor="start" x="552.2132" y="-113.9" font-family="Arial" font-size="14.00" fill="#666666">[varchar(255)]</text>
<polygon fill="none" stroke="#000000" points="476,-72.5 476,-102.5 833,-102.5 833,-72.5 476,-72.5"/>
<text text-anchor="start" x="483" y="-83.9" font-family="Arial" font-size="14.00" fill="#000000">description    </text>
<text text-anchor="start" x="584.8822" y="-83.9" font-family="Arial" font-size="14.00" fill="#666666">[text]</text>
<polygon fill="none" stroke="#000000" points="476,-42.5 476,-72.5 833,-72.5 833,-42.5 476,-42.5"/>
<text text-anchor="start" x="483" y="-53.9" font-family="Arial" font-size="14.00" fill="#000000">key    </text>
<text text-anchor="start" x="538.9874" y="-53.9" font-family="Arial" font-size="14.00" fill="#666666">[varchar(255)]</text>
</g>
<!-- public.m_policies&#45;&gt;public.m_policy_categories -->
<g id="edge2" class="edge">
<title>public.m_policies:policy_category_id&#45;&gt;public.m_policy_categories:policy_category_id</title>
<path fill="none" stroke="#000000" d="M655.7085,-342.1768C666.1023,-271.9759 788.0147,-341.0737 833,-271 862.6526,-224.81 887.8889,-147.5 833,-147.5"/>
<polygon fill="#000000" stroke="#000000" points="655.6848,-342.5235 650.5106,-352.1918 655.3424,-347.5117 655,-352.5 655,-352.5 655,-352.5 655.3424,-347.5117 659.4894,-352.8082 655.6848,-342.5235 655.6848,-342.5235"/>
<text text-anchor="start" x="7.4295" y="-362.5" font-family="Arial" font-size="10.00" fill="#000000">FOREIGN KEY (policy_category_id) REFERENCES m_policy_categories(policy_category_id) ON UPDATE RESTRICT ON DELETE RESTRICT</text>
</g>
<!-- public.m_role_associations -->
<g id="node2" class="node">
<title>public.m_role_associations</title>
<polygon fill="#efefef" stroke="transparent" points="476,-782.5 476,-817.5 833,-817.5 833,-782.5 476,-782.5"/>
<polygon fill="none" stroke="#000000" points="476,-782.5 476,-817.5 833,-817.5 833,-782.5 476,-782.5"/>
<text text-anchor="start" x="482.6989" y="-795.3" font-family="Arial Bold" font-size="18.00" fill="#000000">public.m_role_associations</text>
<text text-anchor="start" x="698.7331" y="-795.3" font-family="Arial" font-size="14.00" fill="#000000">    </text>
<text text-anchor="start" x="732.9379" y="-795.3" font-family="Arial" font-size="14.00" fill="#666666">[BASE TABLE]</text>
<polygon fill="none" stroke="#000000" points="476,-752.5 476,-782.5 833,-782.5 833,-752.5 476,-752.5"/>
<text text-anchor="start" x="483" y="-763.9" font-family="Arial" font-size="14.00" fill="#000000">m_role_associations_pkey    </text>
<text text-anchor="start" x="682.1276" y="-763.9" font-family="Arial" font-size="14.00" fill="#666666">[bigint]</text>
<polygon fill="none" stroke="#000000" points="476,-722.5 476,-752.5 833,-752.5 833,-722.5 476,-722.5"/>
<text text-anchor="start" x="483" y="-733.9" font-family="Arial" font-size="14.00" fill="#000000">role_id    </text>
<text text-anchor="start" x="559.209" y="-733.9" font-family="Arial" font-size="14.00" fill="#666666">[uuid]</text>
<polygon fill="none" stroke="#000000" points="476,-692.5 476,-722.5 833,-722.5 833,-692.5 476,-692.5"/>
<text text-anchor="start" x="483" y="-703.9" font-family="Arial" font-size="14.00" fill="#000000">policy_id    </text>
<text text-anchor="start" x="571.655" y="-703.9" font-family="Arial" font-size="14.00" fill="#666666">[uuid]</text>
</g>
<!-- public.m_role_associations&#45;&gt;public.m_policies -->
<g id="edge1" class="edge">
<title>public.m_role_associations:policy_id&#45;&gt;public.m_policies:policy_id</title>
<path fill="none" stroke="#000000" d="M654.1638,-682.2806C644.2997,-626.8975 549.8798,-672.0429 516,-614 487.6579,-565.4442 459.7778,-487.5 516,-487.5"/>
<polygon fill="#000000" stroke="#000000" points="654.1844,-682.5333 650.515,-692.867 654.5922,-687.5167 655,-692.5 655,-692.5 655,-692.5 654.5922,-687.5167 659.485,-692.133 654.1844,-682.5333 654.1844,-682.5333"/>
<text text-anchor="start" x="662.284" y="-702.5" font-family="Arial" font-size="10.00" fill="#000000">FOREIGN KEY (policy_id) REFERENCES m_policies(policy_id) ON UPDATE RESTRICT ON DELETE RESTRICT</text>
</g>
</g>
</svg>
