<?xml version="1.0" encoding="UTF-8" standalone="no"?>
<!DOCTYPE svg PUBLIC "-//W3C//DTD SVG 1.1//EN"
 "http://www.w3.org/Graphics/SVG/1.1/DTD/svg11.dtd">
<!-- Generated by graphviz version 2.40.1 (20161225.0304)
 -->
<!-- Title: public.t_chat_room_actions Pages: 1 -->
<svg width="4302pt" height="1079pt"
 viewBox="0.00 0.00 4302.00 1079.00" xmlns="http://www.w3.org/2000/svg" xmlns:xlink="http://www.w3.org/1999/xlink">
<g id="graph0" class="graph" transform="scale(1 1) rotate(0) translate(4 1075)">
<title>public.t_chat_room_actions</title>
<polygon fill="#ffffff" stroke="transparent" points="-4,4 -4,-1075 4298,-1075 4298,4 -4,4"/>
<!-- public.t_chat_room_actions -->
<g id="node1" class="node">
<title>public.t_chat_room_actions</title>
<polygon fill="#efefef" stroke="transparent" points="1943,-622.5 1943,-657.5 2303,-657.5 2303,-622.5 1943,-622.5"/>
<polygon fill="none" stroke="#000000" points="1943,-622.5 1943,-657.5 2303,-657.5 2303,-622.5 1943,-622.5"/>
<text text-anchor="start" x="1949.6878" y="-635.3" font-family="Arial Bold" font-size="18.00" fill="#000000">public.t_chat_room_actions</text>
<text text-anchor="start" x="2168.7442" y="-635.3" font-family="Arial" font-size="14.00" fill="#000000">    </text>
<text text-anchor="start" x="2202.949" y="-635.3" font-family="Arial" font-size="14.00" fill="#666666">[BASE TABLE]</text>
<polygon fill="none" stroke="#000000" points="1943,-592.5 1943,-622.5 2303,-622.5 2303,-592.5 1943,-592.5"/>
<text text-anchor="start" x="1950" y="-603.9" font-family="Arial" font-size="14.00" fill="#000000">t_chat_room_actions_pkey </text>
<text text-anchor="start" x="2121.164" y="-603.9" font-family="Arial" font-size="14.00" fill="#666666">[bigint]</text>
<polygon fill="none" stroke="#000000" points="1943,-562.5 1943,-592.5 2303,-592.5 2303,-562.5 1943,-562.5"/>
<text text-anchor="start" x="1950" y="-573.9" font-family="Arial" font-size="14.00" fill="#000000">chat_room_action_id </text>
<text text-anchor="start" x="2083.8148" y="-573.9" font-family="Arial" font-size="14.00" fill="#666666">[uuid]</text>
<polygon fill="none" stroke="#000000" points="1943,-532.5 1943,-562.5 2303,-562.5 2303,-532.5 1943,-532.5"/>
<text text-anchor="start" x="1950" y="-543.9" font-family="Arial" font-size="14.00" fill="#000000">chat_room_id </text>
<text text-anchor="start" x="2038.6872" y="-543.9" font-family="Arial" font-size="14.00" fill="#666666">[uuid]</text>
<polygon fill="none" stroke="#000000" points="1943,-502.5 1943,-532.5 2303,-532.5 2303,-502.5 1943,-502.5"/>
<text text-anchor="start" x="1950" y="-513.9" font-family="Arial" font-size="14.00" fill="#000000">chat_room_action_type_id </text>
<text text-anchor="start" x="2118.0532" y="-513.9" font-family="Arial" font-size="14.00" fill="#666666">[uuid]</text>
<polygon fill="none" stroke="#000000" points="1943,-472.5 1943,-502.5 2303,-502.5 2303,-472.5 1943,-472.5"/>
<text text-anchor="start" x="1950" y="-483.9" font-family="Arial" font-size="14.00" fill="#000000">acted_at </text>
<text text-anchor="start" x="2007.5848" y="-483.9" font-family="Arial" font-size="14.00" fill="#666666">[timestamp with time zone]</text>
<polygon fill="none" stroke="#000000" stroke-width="3" points="1941.5,-471.5 1941.5,-659.5 2304.5,-659.5 2304.5,-471.5 1941.5,-471.5"/>
</g>
<!-- public.m_chat_rooms -->
<g id="node9" class="node">
<title>public.m_chat_rooms</title>
<polygon fill="#efefef" stroke="transparent" points="1734,-312.5 1734,-347.5 2046,-347.5 2046,-312.5 1734,-312.5"/>
<polygon fill="none" stroke="#000000" points="1734,-312.5 1734,-347.5 2046,-347.5 2046,-312.5 1734,-312.5"/>
<text text-anchor="start" x="1740.7034" y="-325.3" font-family="Arial Bold" font-size="18.00" fill="#000000">public.m_chat_rooms</text>
<text text-anchor="start" x="1911.7286" y="-325.3" font-family="Arial" font-size="14.00" fill="#000000">    </text>
<text text-anchor="start" x="1945.9334" y="-325.3" font-family="Arial" font-size="14.00" fill="#666666">[BASE TABLE]</text>
<polygon fill="none" stroke="#000000" points="1734,-282.5 1734,-312.5 2046,-312.5 2046,-282.5 1734,-282.5"/>
<text text-anchor="start" x="1741" y="-293.9" font-family="Arial" font-size="14.00" fill="#000000">m_chat_rooms_pkey    </text>
<text text-anchor="start" x="1905.1206" y="-293.9" font-family="Arial" font-size="14.00" fill="#666666">[bigint]</text>
<polygon fill="none" stroke="#000000" points="1734,-252.5 1734,-282.5 2046,-282.5 2046,-252.5 1734,-252.5"/>
<text text-anchor="start" x="1741" y="-263.9" font-family="Arial" font-size="14.00" fill="#000000">chat_room_id    </text>
<text text-anchor="start" x="1860.0014" y="-263.9" font-family="Arial" font-size="14.00" fill="#666666">[uuid]</text>
<polygon fill="none" stroke="#000000" points="1734,-222.5 1734,-252.5 2046,-252.5 2046,-222.5 1734,-222.5"/>
<text text-anchor="start" x="1741" y="-233.9" font-family="Arial" font-size="14.00" fill="#000000">name    </text>
<text text-anchor="start" x="1810.2132" y="-233.9" font-family="Arial" font-size="14.00" fill="#666666">[varchar(255)]</text>
<polygon fill="none" stroke="#000000" points="1734,-192.5 1734,-222.5 2046,-222.5 2046,-192.5 1734,-192.5"/>
<text text-anchor="start" x="1741" y="-203.9" font-family="Arial" font-size="14.00" fill="#000000">is_private    </text>
<text text-anchor="start" x="1835.0996" y="-203.9" font-family="Arial" font-size="14.00" fill="#666666">[boolean]</text>
<polygon fill="none" stroke="#000000" points="1734,-162.5 1734,-192.5 2046,-192.5 2046,-162.5 1734,-162.5"/>
<text text-anchor="start" x="1741" y="-173.9" font-family="Arial" font-size="14.00" fill="#000000">cover_image_id    </text>
<text text-anchor="start" x="1874" y="-173.9" font-family="Arial" font-size="14.00" fill="#666666">[uuid]</text>
<polygon fill="none" stroke="#000000" points="1734,-132.5 1734,-162.5 2046,-162.5 2046,-132.5 1734,-132.5"/>
<text text-anchor="start" x="1741" y="-143.9" font-family="Arial" font-size="14.00" fill="#000000">owner_id    </text>
<text text-anchor="start" x="1831.9916" y="-143.9" font-family="Arial" font-size="14.00" fill="#666666">[uuid]</text>
<polygon fill="none" stroke="#000000" points="1734,-102.5 1734,-132.5 2046,-132.5 2046,-102.5 1734,-102.5"/>
<text text-anchor="start" x="1741" y="-113.9" font-family="Arial" font-size="14.00" fill="#000000">from_organization    </text>
<text text-anchor="start" x="1887.2244" y="-113.9" font-family="Arial" font-size="14.00" fill="#666666">[boolean]</text>
<polygon fill="none" stroke="#000000" points="1734,-72.5 1734,-102.5 2046,-102.5 2046,-72.5 1734,-72.5"/>
<text text-anchor="start" x="1741" y="-83.9" font-family="Arial" font-size="14.00" fill="#000000">created_at    </text>
<text text-anchor="start" x="1841.3422" y="-83.9" font-family="Arial" font-size="14.00" fill="#666666">[timestamp with time zone]</text>
<polygon fill="none" stroke="#000000" points="1734,-42.5 1734,-72.5 2046,-72.5 2046,-42.5 1734,-42.5"/>
<text text-anchor="start" x="1741" y="-53.9" font-family="Arial" font-size="14.00" fill="#000000">updated_at    </text>
<text text-anchor="start" x="1845.2468" y="-53.9" font-family="Arial" font-size="14.00" fill="#666666">[timestamp with time zone]</text>
</g>
<!-- public.t_chat_room_actions&#45;&gt;public.m_chat_rooms -->
<g id="edge8" class="edge">
<title>public.t_chat_room_actions:chat_room_id&#45;&gt;public.m_chat_rooms:chat_room_id</title>
<path fill="none" stroke="#000000" d="M1932.8085,-546.3988C1892.6582,-536.86 1914.1808,-467.6016 1943,-427 1971.0688,-387.4557 2017.9312,-430.5443 2046,-391 2077.7706,-346.2404 2100.8889,-267.5 2046,-267.5"/>
<polygon fill="#000000" stroke="#000000" points="1933.0579,-546.4256 1942.5165,-551.974 1938.0289,-546.9628 1943,-547.5 1943,-547.5 1943,-547.5 1938.0289,-546.9628 1943.4835,-543.026 1933.0579,-546.4256 1933.0579,-546.4256"/>
<text text-anchor="start" x="1367.818" y="-557.5" font-family="Arial" font-size="10.00" fill="#000000">FOREIGN KEY (chat_room_id) REFERENCES m_chat_rooms(chat_room_id) ON UPDATE CASCADE ON DELETE CASCADE</text>
</g>
<!-- public.m_chat_room_action_types -->
<g id="node10" class="node">
<title>public.m_chat_room_action_types</title>
<polygon fill="#efefef" stroke="transparent" points="2150,-237.5 2150,-272.5 2564,-272.5 2564,-237.5 2150,-237.5"/>
<polygon fill="none" stroke="#000000" points="2150,-237.5 2150,-272.5 2564,-272.5 2564,-237.5 2150,-237.5"/>
<text text-anchor="start" x="2156.6824" y="-250.3" font-family="Arial Bold" font-size="18.00" fill="#000000">public.m_chat_room_action_types</text>
<text text-anchor="start" x="2429.7496" y="-250.3" font-family="Arial" font-size="14.00" fill="#000000">    </text>
<text text-anchor="start" x="2463.9544" y="-250.3" font-family="Arial" font-size="14.00" fill="#666666">[BASE TABLE]</text>
<polygon fill="none" stroke="#000000" points="2150,-207.5 2150,-237.5 2564,-237.5 2564,-207.5 2150,-207.5"/>
<text text-anchor="start" x="2157" y="-218.9" font-family="Arial" font-size="14.00" fill="#000000">m_chat_room_action_types_pkey    </text>
<text text-anchor="start" x="2400.4866" y="-218.9" font-family="Arial" font-size="14.00" fill="#666666">[bigint]</text>
<polygon fill="none" stroke="#000000" points="2150,-177.5 2150,-207.5 2564,-207.5 2564,-177.5 2150,-177.5"/>
<text text-anchor="start" x="2157" y="-188.9" font-family="Arial" font-size="14.00" fill="#000000">chat_room_action_type_id    </text>
<text text-anchor="start" x="2355.3674" y="-188.9" font-family="Arial" font-size="14.00" fill="#666666">[uuid]</text>
<polygon fill="none" stroke="#000000" points="2150,-147.5 2150,-177.5 2564,-177.5 2564,-147.5 2150,-147.5"/>
<text text-anchor="start" x="2157" y="-158.9" font-family="Arial" font-size="14.00" fill="#000000">name    </text>
<text text-anchor="start" x="2226.2132" y="-158.9" font-family="Arial" font-size="14.00" fill="#666666">[varchar(255)]</text>
<polygon fill="none" stroke="#000000" points="2150,-117.5 2150,-147.5 2564,-147.5 2564,-117.5 2150,-117.5"/>
<text text-anchor="start" x="2157" y="-128.9" font-family="Arial" font-size="14.00" fill="#000000">key    </text>
<text text-anchor="start" x="2212.9874" y="-128.9" font-family="Arial" font-size="14.00" fill="#666666">[varchar(255)]</text>
</g>
<!-- public.t_chat_room_actions&#45;&gt;public.m_chat_room_action_types -->
<g id="edge9" class="edge">
<title>public.t_chat_room_actions:chat_room_action_type_id&#45;&gt;public.m_chat_room_action_types:chat_room_action_type_id</title>
<path fill="none" stroke="#000000" d="M2313.0664,-516.0044C2338.9703,-507.0023 2319.4884,-459.3328 2303,-427 2264.8342,-352.1592 2188.1658,-390.8408 2150,-316 2125.0641,-267.1022 2095.1111,-192.5 2150,-192.5"/>
<polygon fill="#000000" stroke="#000000" points="2312.8914,-516.0303 2302.3386,-513.0489 2307.9457,-516.7652 2303,-517.5 2303,-517.5 2303,-517.5 2307.9457,-516.7652 2303.6614,-521.9511 2312.8914,-516.0303 2312.8914,-516.0303"/>
<text text-anchor="start" x="2310.124" y="-527.5" font-family="Arial" font-size="10.00" fill="#000000">FOREIGN KEY (chat_room_action_type_id) REFERENCES m_chat_room_action_types(chat_room_action_type_id) ON UPDATE RESTRICT ON DELETE RESTRICT</text>
</g>
<!-- public.t_messages -->
<g id="node2" class="node">
<title>public.t_messages</title>
<polygon fill="#efefef" stroke="transparent" points="372,-992.5 372,-1027.5 673,-1027.5 673,-992.5 372,-992.5"/>
<polygon fill="none" stroke="#000000" points="372,-992.5 372,-1027.5 673,-1027.5 673,-992.5 372,-992.5"/>
<text text-anchor="start" x="384.1987" y="-1005.3" font-family="Arial Bold" font-size="18.00" fill="#000000">public.t_messages</text>
<text text-anchor="start" x="533.2333" y="-1005.3" font-family="Arial" font-size="14.00" fill="#000000">    </text>
<text text-anchor="start" x="567.4381" y="-1005.3" font-family="Arial" font-size="14.00" fill="#666666">[BASE TABLE]</text>
<polygon fill="none" stroke="#000000" points="372,-962.5 372,-992.5 673,-992.5 673,-962.5 372,-962.5"/>
<text text-anchor="start" x="379" y="-973.9" font-family="Arial" font-size="14.00" fill="#000000">t_messages_pkey    </text>
<text text-anchor="start" x="526.0168" y="-973.9" font-family="Arial" font-size="14.00" fill="#666666">[bigint]</text>
<polygon fill="none" stroke="#000000" points="372,-932.5 372,-962.5 673,-962.5 673,-932.5 372,-932.5"/>
<text text-anchor="start" x="379" y="-943.9" font-family="Arial" font-size="14.00" fill="#000000">message_id    </text>
<text text-anchor="start" x="488.6676" y="-943.9" font-family="Arial" font-size="14.00" fill="#666666">[uuid]</text>
<polygon fill="none" stroke="#000000" points="372,-902.5 372,-932.5 673,-932.5 673,-902.5 372,-902.5"/>
<text text-anchor="start" x="379" y="-913.9" font-family="Arial" font-size="14.00" fill="#000000">sender_id    </text>
<text text-anchor="start" x="474.6676" y="-913.9" font-family="Arial" font-size="14.00" fill="#666666">[uuid]</text>
<polygon fill="none" stroke="#000000" points="372,-872.5 372,-902.5 673,-902.5 673,-872.5 372,-872.5"/>
<text text-anchor="start" x="379" y="-883.9" font-family="Arial" font-size="14.00" fill="#000000">body    </text>
<text text-anchor="start" x="443.5526" y="-883.9" font-family="Arial" font-size="14.00" fill="#666666">[text]</text>
<polygon fill="none" stroke="#000000" points="372,-842.5 372,-872.5 673,-872.5 673,-842.5 372,-842.5"/>
<text text-anchor="start" x="379" y="-853.9" font-family="Arial" font-size="14.00" fill="#000000">posted_at    </text>
<text text-anchor="start" x="474.6816" y="-853.9" font-family="Arial" font-size="14.00" fill="#666666">[timestamp with time zone]</text>
<polygon fill="none" stroke="#000000" points="372,-812.5 372,-842.5 673,-842.5 673,-812.5 372,-812.5"/>
<text text-anchor="start" x="378.9825" y="-823.9" font-family="Arial" font-size="14.00" fill="#000000">last_edited_at    </text>
<text text-anchor="start" x="500.3331" y="-823.9" font-family="Arial" font-size="14.00" fill="#666666">[timestamp with time zone]</text>
<polygon fill="none" stroke="#000000" points="372,-782.5 372,-812.5 673,-812.5 673,-782.5 372,-782.5"/>
<text text-anchor="start" x="379" y="-793.9" font-family="Arial" font-size="14.00" fill="#000000">chat_room_action_id    </text>
<text text-anchor="start" x="543.129" y="-793.9" font-family="Arial" font-size="14.00" fill="#666666">[uuid]</text>
</g>
<!-- public.t_messages&#45;&gt;public.t_chat_room_actions -->
<g id="edge1" class="edge">
<title>public.t_messages:chat_room_action_id&#45;&gt;public.t_chat_room_actions:chat_room_action_id</title>
<path fill="none" stroke="#000000" d="M683.0166,-796.001C705.0789,-788.4322 697.9581,-754.2198 725,-740 966.6871,-612.9103 1669.9351,-577.5 1943,-577.5"/>
<polygon fill="#000000" stroke="#000000" points="682.8899,-796.0199 672.3339,-793.0496 677.9449,-796.7599 673,-797.5 673,-797.5 673,-797.5 677.9449,-796.7599 673.6661,-801.9504 682.8899,-796.0199 682.8899,-796.0199"/>
<text text-anchor="start" x="7.242" y="-807.5" font-family="Arial" font-size="10.00" fill="#000000">FOREIGN KEY (chat_room_action_id) REFERENCES t_chat_room_actions(chat_room_action_id) ON UPDATE CASCADE ON DELETE CASCADE</text>
</g>
<!-- public.t_chat_room_create_actions -->
<g id="node3" class="node">
<title>public.t_chat_room_create_actions</title>
<polygon fill="#efefef" stroke="transparent" points="777,-962.5 777,-997.5 1197,-997.5 1197,-962.5 777,-962.5"/>
<polygon fill="none" stroke="#000000" points="777,-962.5 777,-997.5 1197,-997.5 1197,-962.5 777,-962.5"/>
<text text-anchor="start" x="783.6782" y="-975.3" font-family="Arial Bold" font-size="18.00" fill="#000000">public.t_chat_room_create_actions</text>
<text text-anchor="start" x="1062.7538" y="-975.3" font-family="Arial" font-size="14.00" fill="#000000">    </text>
<text text-anchor="start" x="1096.9586" y="-975.3" font-family="Arial" font-size="14.00" fill="#666666">[BASE TABLE]</text>
<polygon fill="none" stroke="#000000" points="777,-932.5 777,-962.5 1197,-962.5 1197,-932.5 777,-932.5"/>
<text text-anchor="start" x="784" y="-943.9" font-family="Arial" font-size="14.00" fill="#000000">t_chat_room_create_actions_pkey    </text>
<text text-anchor="start" x="1032.1598" y="-943.9" font-family="Arial" font-size="14.00" fill="#666666">[bigint]</text>
<polygon fill="none" stroke="#000000" points="777,-902.5 777,-932.5 1197,-932.5 1197,-902.5 777,-902.5"/>
<text text-anchor="start" x="784" y="-913.9" font-family="Arial" font-size="14.00" fill="#000000">chat_room_create_action_id    </text>
<text text-anchor="start" x="994.8106" y="-913.9" font-family="Arial" font-size="14.00" fill="#666666">[uuid]</text>
<polygon fill="none" stroke="#000000" points="777,-872.5 777,-902.5 1197,-902.5 1197,-872.5 777,-872.5"/>
<text text-anchor="start" x="784" y="-883.9" font-family="Arial" font-size="14.00" fill="#000000">chat_room_action_id    </text>
<text text-anchor="start" x="948.129" y="-883.9" font-family="Arial" font-size="14.00" fill="#666666">[uuid]</text>
<polygon fill="none" stroke="#000000" points="777,-842.5 777,-872.5 1197,-872.5 1197,-842.5 777,-842.5"/>
<text text-anchor="start" x="784" y="-853.9" font-family="Arial" font-size="14.00" fill="#000000">created_by    </text>
<text text-anchor="start" x="887.4516" y="-853.9" font-family="Arial" font-size="14.00" fill="#666666">[uuid]</text>
<polygon fill="none" stroke="#000000" points="777,-812.5 777,-842.5 1197,-842.5 1197,-812.5 777,-812.5"/>
<text text-anchor="start" x="784" y="-823.9" font-family="Arial" font-size="14.00" fill="#000000">name    </text>
<text text-anchor="start" x="853.2132" y="-823.9" font-family="Arial" font-size="14.00" fill="#666666">[varchar(255)]</text>
</g>
<!-- public.t_chat_room_create_actions&#45;&gt;public.t_chat_room_actions -->
<g id="edge2" class="edge">
<title>public.t_chat_room_create_actions:chat_room_action_id&#45;&gt;public.t_chat_room_actions:chat_room_action_id</title>
<path fill="none" stroke="#000000" d="M1207.2014,-886.6184C1259.2963,-876.606 1200.0764,-783.8648 1249,-740 1366.9323,-634.2622 1784.6065,-577.5 1943,-577.5"/>
<polygon fill="#000000" stroke="#000000" points="1206.9629,-886.6389 1196.6125,-883.0167 1201.9814,-887.0695 1197,-887.5 1197,-887.5 1197,-887.5 1201.9814,-887.0695 1197.3875,-891.9833 1206.9629,-886.6389 1206.9629,-886.6389"/>
<text text-anchor="start" x="531.242" y="-897.5" font-family="Arial" font-size="10.00" fill="#000000">FOREIGN KEY (chat_room_action_id) REFERENCES t_chat_room_actions(chat_room_action_id) ON UPDATE CASCADE ON DELETE CASCADE</text>
</g>
<!-- public.t_chat_room_update_name_actions -->
<g id="node4" class="node">
<title>public.t_chat_room_update_name_actions</title>
<polygon fill="#efefef" stroke="transparent" points="1301,-962.5 1301,-997.5 1781,-997.5 1781,-962.5 1301,-962.5"/>
<polygon fill="none" stroke="#000000" points="1301,-962.5 1301,-997.5 1781,-997.5 1781,-962.5 1301,-962.5"/>
<text text-anchor="start" x="1307.6596" y="-975.3" font-family="Arial Bold" font-size="18.00" fill="#000000">public.t_chat_room_update_name_actions</text>
<text text-anchor="start" x="1646.7724" y="-975.3" font-family="Arial" font-size="14.00" fill="#000000">    </text>
<text text-anchor="start" x="1680.9772" y="-975.3" font-family="Arial" font-size="14.00" fill="#666666">[BASE TABLE]</text>
<polygon fill="none" stroke="#000000" points="1301,-932.5 1301,-962.5 1781,-962.5 1781,-932.5 1301,-932.5"/>
<text text-anchor="start" x="1308" y="-943.9" font-family="Arial" font-size="14.00" fill="#000000">t_chat_room_update_name_actions_pkey    </text>
<text text-anchor="start" x="1602.8554" y="-943.9" font-family="Arial" font-size="14.00" fill="#666666">[bigint]</text>
<polygon fill="none" stroke="#000000" points="1301,-902.5 1301,-932.5 1781,-932.5 1781,-902.5 1301,-902.5"/>
<text text-anchor="start" x="1308" y="-913.9" font-family="Arial" font-size="14.00" fill="#000000">chat_room_update_name_action_id    </text>
<text text-anchor="start" x="1565.5062" y="-913.9" font-family="Arial" font-size="14.00" fill="#666666">[uuid]</text>
<polygon fill="none" stroke="#000000" points="1301,-872.5 1301,-902.5 1781,-902.5 1781,-872.5 1301,-872.5"/>
<text text-anchor="start" x="1308" y="-883.9" font-family="Arial" font-size="14.00" fill="#000000">chat_room_action_id    </text>
<text text-anchor="start" x="1472.129" y="-883.9" font-family="Arial" font-size="14.00" fill="#666666">[uuid]</text>
<polygon fill="none" stroke="#000000" points="1301,-842.5 1301,-872.5 1781,-872.5 1781,-842.5 1301,-842.5"/>
<text text-anchor="start" x="1308" y="-853.9" font-family="Arial" font-size="14.00" fill="#000000">updated_by    </text>
<text text-anchor="start" x="1415.3562" y="-853.9" font-family="Arial" font-size="14.00" fill="#666666">[uuid]</text>
<polygon fill="none" stroke="#000000" points="1301,-812.5 1301,-842.5 1781,-842.5 1781,-812.5 1301,-812.5"/>
<text text-anchor="start" x="1308" y="-823.9" font-family="Arial" font-size="14.00" fill="#000000">name    </text>
<text text-anchor="start" x="1377.2132" y="-823.9" font-family="Arial" font-size="14.00" fill="#666666">[varchar(255)]</text>
</g>
<!-- public.t_chat_room_update_name_actions&#45;&gt;public.t_chat_room_actions -->
<g id="edge3" class="edge">
<title>public.t_chat_room_update_name_actions:chat_room_action_id&#45;&gt;public.t_chat_room_actions:chat_room_action_id</title>
<path fill="none" stroke="#000000" d="M1791.0387,-886.8032C1845.5855,-878.5545 1803.3559,-798.794 1833,-740 1872.2646,-662.1253 1855.7866,-577.5 1943,-577.5"/>
<polygon fill="#000000" stroke="#000000" points="1790.976,-886.8075 1780.6884,-883.0108 1785.988,-887.1537 1781,-887.5 1781,-887.5 1781,-887.5 1785.988,-887.1537 1781.3116,-891.9892 1790.976,-886.8075 1790.976,-886.8075"/>
<text text-anchor="start" x="1451.742" y="-871.5" font-family="Arial" font-size="10.00" fill="#000000">FOREIGN KEY (chat_room_action_id) REFERENCES t_chat_room_actions(chat_room_action_id) ON UPDATE CASCADE ON DELETE CASCADE</text>
</g>
<!-- public.t_chat_room_add_member_actions -->
<g id="node5" class="node">
<title>public.t_chat_room_add_member_actions</title>
<polygon fill="#efefef" stroke="transparent" points="1885,-947.5 1885,-982.5 2361,-982.5 2361,-947.5 1885,-947.5"/>
<polygon fill="none" stroke="#000000" points="1885,-947.5 1885,-982.5 2361,-982.5 2361,-947.5 1885,-947.5"/>
<text text-anchor="start" x="1891.6747" y="-960.3" font-family="Arial Bold" font-size="18.00" fill="#000000">public.t_chat_room_add_member_actions</text>
<text text-anchor="start" x="2226.7573" y="-960.3" font-family="Arial" font-size="14.00" fill="#000000">    </text>
<text text-anchor="start" x="2260.9621" y="-960.3" font-family="Arial" font-size="14.00" fill="#666666">[BASE TABLE]</text>
<polygon fill="none" stroke="#000000" points="1885,-917.5 1885,-947.5 2361,-947.5 2361,-917.5 1885,-917.5"/>
<text text-anchor="start" x="1892" y="-928.9" font-family="Arial" font-size="14.00" fill="#000000">t_chat_room_add_member_actions_pkey    </text>
<text text-anchor="start" x="2183.7208" y="-928.9" font-family="Arial" font-size="14.00" fill="#666666">[bigint]</text>
<polygon fill="none" stroke="#000000" points="1885,-887.5 1885,-917.5 2361,-917.5 2361,-887.5 1885,-887.5"/>
<text text-anchor="start" x="1892" y="-898.9" font-family="Arial" font-size="14.00" fill="#000000">chat_room_add_member_action_id    </text>
<text text-anchor="start" x="2146.3716" y="-898.9" font-family="Arial" font-size="14.00" fill="#666666">[uuid]</text>
<polygon fill="none" stroke="#000000" points="1885,-857.5 1885,-887.5 2361,-887.5 2361,-857.5 1885,-857.5"/>
<text text-anchor="start" x="1892" y="-868.9" font-family="Arial" font-size="14.00" fill="#000000">chat_room_action_id    </text>
<text text-anchor="start" x="2056.129" y="-868.9" font-family="Arial" font-size="14.00" fill="#666666">[uuid]</text>
<polygon fill="none" stroke="#000000" points="1885,-827.5 1885,-857.5 2361,-857.5 2361,-827.5 1885,-827.5"/>
<text text-anchor="start" x="1892" y="-838.9" font-family="Arial" font-size="14.00" fill="#000000">added_by    </text>
<text text-anchor="start" x="1987.683" y="-838.9" font-family="Arial" font-size="14.00" fill="#666666">[uuid]</text>
</g>
<!-- public.t_chat_room_add_member_actions&#45;&gt;public.t_chat_room_actions -->
<g id="edge4" class="edge">
<title>public.t_chat_room_add_member_actions:chat_room_action_id&#45;&gt;public.t_chat_room_actions:chat_room_action_id</title>
<path fill="none" stroke="#000000" d="M2370.8603,-869.9497C2421.4405,-841.1166 2366.1569,-577.5 2303,-577.5"/>
<polygon fill="#000000" stroke="#000000" points="2370.6814,-869.9959 2359.8732,-868.1434 2365.8407,-871.2479 2361,-872.5 2361,-872.5 2361,-872.5 2365.8407,-871.2479 2362.1268,-876.8566 2370.6814,-869.9959 2370.6814,-869.9959"/>
<text text-anchor="start" x="2368.242" y="-882.5" font-family="Arial" font-size="10.00" fill="#000000">FOREIGN KEY (chat_room_action_id) REFERENCES t_chat_room_actions(chat_room_action_id) ON UPDATE CASCADE ON DELETE CASCADE</text>
</g>
<!-- public.t_chat_room_remove_member_actions -->
<g id="node6" class="node">
<title>public.t_chat_room_remove_member_actions</title>
<polygon fill="#efefef" stroke="transparent" points="2465,-947.5 2465,-982.5 2971,-982.5 2971,-947.5 2465,-947.5"/>
<polygon fill="none" stroke="#000000" points="2465,-947.5 2465,-982.5 2971,-982.5 2971,-947.5 2465,-947.5"/>
<text text-anchor="start" x="2471.6825" y="-960.3" font-family="Arial Bold" font-size="18.00" fill="#000000">public.t_chat_room_remove_member_actions</text>
<text text-anchor="start" x="2836.7495" y="-960.3" font-family="Arial" font-size="14.00" fill="#000000">    </text>
<text text-anchor="start" x="2870.9543" y="-960.3" font-family="Arial" font-size="14.00" fill="#666666">[BASE TABLE]</text>
<polygon fill="none" stroke="#000000" points="2465,-917.5 2465,-947.5 2971,-947.5 2971,-917.5 2465,-917.5"/>
<text text-anchor="start" x="2472" y="-928.9" font-family="Arial" font-size="14.00" fill="#000000">t_chat_room_remove_member_actions_pkey    </text>
<text text-anchor="start" x="2787.042" y="-928.9" font-family="Arial" font-size="14.00" fill="#666666">[bigint]</text>
<polygon fill="none" stroke="#000000" points="2465,-887.5 2465,-917.5 2971,-917.5 2971,-887.5 2465,-887.5"/>
<text text-anchor="start" x="2472" y="-898.9" font-family="Arial" font-size="14.00" fill="#000000">chat_room_remove_member_action_id    </text>
<text text-anchor="start" x="2749.6928" y="-898.9" font-family="Arial" font-size="14.00" fill="#666666">[uuid]</text>
<polygon fill="none" stroke="#000000" points="2465,-857.5 2465,-887.5 2971,-887.5 2971,-857.5 2465,-857.5"/>
<text text-anchor="start" x="2472" y="-868.9" font-family="Arial" font-size="14.00" fill="#000000">chat_room_action_id    </text>
<text text-anchor="start" x="2636.129" y="-868.9" font-family="Arial" font-size="14.00" fill="#666666">[uuid]</text>
<polygon fill="none" stroke="#000000" points="2465,-827.5 2465,-857.5 2971,-857.5 2971,-827.5 2465,-827.5"/>
<text text-anchor="start" x="2472" y="-838.9" font-family="Arial" font-size="14.00" fill="#000000">removed_by    </text>
<text text-anchor="start" x="2583.2216" y="-838.9" font-family="Arial" font-size="14.00" fill="#666666">[uuid]</text>
</g>
<!-- public.t_chat_room_remove_member_actions&#45;&gt;public.t_chat_room_actions -->
<g id="edge5" class="edge">
<title>public.t_chat_room_remove_member_actions:chat_room_action_id&#45;&gt;public.t_chat_room_actions:chat_room_action_id</title>
<path fill="none" stroke="#000000" d="M2454.9158,-871.7314C2406.2703,-863.6033 2440.74,-792.6998 2413,-740 2372.3769,-662.8253 2390.2134,-577.5 2303,-577.5"/>
<polygon fill="#000000" stroke="#000000" points="2455.0289,-871.7399 2464.658,-876.987 2460.0145,-872.12 2465,-872.5 2465,-872.5 2465,-872.5 2460.0145,-872.12 2465.342,-868.013 2455.0289,-871.7399 2455.0289,-871.7399"/>
<text text-anchor="start" x="2472.242" y="-856.5" font-family="Arial" font-size="10.00" fill="#000000">FOREIGN KEY (chat_room_action_id) REFERENCES t_chat_room_actions(chat_room_action_id) ON UPDATE CASCADE ON DELETE CASCADE</text>
</g>
<!-- public.t_chat_room_withdraw_actions -->
<g id="node7" class="node">
<title>public.t_chat_room_withdraw_actions</title>
<polygon fill="#efefef" stroke="transparent" points="3076,-947.5 3076,-982.5 3517,-982.5 3517,-947.5 3076,-947.5"/>
<polygon fill="none" stroke="#000000" points="3076,-947.5 3076,-982.5 3517,-982.5 3517,-947.5 3076,-947.5"/>
<text text-anchor="start" x="3082.6869" y="-960.3" font-family="Arial Bold" font-size="18.00" fill="#000000">public.t_chat_room_withdraw_actions</text>
<text text-anchor="start" x="3382.7451" y="-960.3" font-family="Arial" font-size="14.00" fill="#000000">    </text>
<text text-anchor="start" x="3416.9499" y="-960.3" font-family="Arial" font-size="14.00" fill="#666666">[BASE TABLE]</text>
<polygon fill="none" stroke="#000000" points="3076,-917.5 3076,-947.5 3517,-947.5 3517,-917.5 3076,-917.5"/>
<text text-anchor="start" x="3083" y="-928.9" font-family="Arial" font-size="14.00" fill="#000000">t_chat_room_withdraw_actions_pkey    </text>
<text text-anchor="start" x="3347.4796" y="-928.9" font-family="Arial" font-size="14.00" fill="#666666">[bigint]</text>
<polygon fill="none" stroke="#000000" points="3076,-887.5 3076,-917.5 3517,-917.5 3517,-887.5 3076,-887.5"/>
<text text-anchor="start" x="3083" y="-898.9" font-family="Arial" font-size="14.00" fill="#000000">chat_room_withdraw_action_id    </text>
<text text-anchor="start" x="3310.1304" y="-898.9" font-family="Arial" font-size="14.00" fill="#666666">[uuid]</text>
<polygon fill="none" stroke="#000000" points="3076,-857.5 3076,-887.5 3517,-887.5 3517,-857.5 3076,-857.5"/>
<text text-anchor="start" x="3083" y="-868.9" font-family="Arial" font-size="14.00" fill="#000000">chat_room_action_id    </text>
<text text-anchor="start" x="3247.129" y="-868.9" font-family="Arial" font-size="14.00" fill="#666666">[uuid]</text>
<polygon fill="none" stroke="#000000" points="3076,-827.5 3076,-857.5 3517,-857.5 3517,-827.5 3076,-827.5"/>
<text text-anchor="start" x="3083" y="-838.9" font-family="Arial" font-size="14.00" fill="#000000">member_id    </text>
<text text-anchor="start" x="3187.2062" y="-838.9" font-family="Arial" font-size="14.00" fill="#666666">[uuid]</text>
</g>
<!-- public.t_chat_room_withdraw_actions&#45;&gt;public.t_chat_room_actions -->
<g id="edge6" class="edge">
<title>public.t_chat_room_withdraw_actions:chat_room_action_id&#45;&gt;public.t_chat_room_actions:chat_room_action_id</title>
<path fill="none" stroke="#000000" d="M3065.7715,-871.5268C3019.289,-861.6228 3068.3369,-778.6645 3023,-740 2898.1976,-633.5652 2467.0244,-577.5 2303,-577.5"/>
<polygon fill="#000000" stroke="#000000" points="3066.045,-871.5528 3075.5737,-876.9798 3071.0225,-872.0264 3076,-872.5 3076,-872.5 3076,-872.5 3071.0225,-872.0264 3076.4263,-868.0202 3066.045,-871.5528 3066.045,-871.5528"/>
<text text-anchor="start" x="3083.242" y="-882.5" font-family="Arial" font-size="10.00" fill="#000000">FOREIGN KEY (chat_room_action_id) REFERENCES t_chat_room_actions(chat_room_action_id) ON UPDATE CASCADE ON DELETE CASCADE</text>
</g>
<!-- public.t_chat_room_delete_message_actions -->
<g id="node8" class="node">
<title>public.t_chat_room_delete_message_actions</title>
<polygon fill="#efefef" stroke="transparent" points="3621,-947.5 3621,-982.5 4123,-982.5 4123,-947.5 3621,-947.5"/>
<polygon fill="none" stroke="#000000" points="3621,-947.5 3621,-982.5 4123,-982.5 4123,-947.5 3621,-947.5"/>
<text text-anchor="start" x="3627.6625" y="-960.3" font-family="Arial Bold" font-size="18.00" fill="#000000">public.t_chat_room_delete_message_actions</text>
<text text-anchor="start" x="3988.7695" y="-960.3" font-family="Arial" font-size="14.00" fill="#000000">    </text>
<text text-anchor="start" x="4022.9743" y="-960.3" font-family="Arial" font-size="14.00" fill="#666666">[BASE TABLE]</text>
<polygon fill="none" stroke="#000000" points="3621,-917.5 3621,-947.5 4123,-947.5 4123,-917.5 3621,-917.5"/>
<text text-anchor="start" x="3628" y="-928.9" font-family="Arial" font-size="14.00" fill="#000000">t_chat_room_delete_message_actions_pkey    </text>
<text text-anchor="start" x="3939.962" y="-928.9" font-family="Arial" font-size="14.00" fill="#666666">[bigint]</text>
<polygon fill="none" stroke="#000000" points="3621,-887.5 3621,-917.5 4123,-917.5 4123,-887.5 3621,-887.5"/>
<text text-anchor="start" x="3628" y="-898.9" font-family="Arial" font-size="14.00" fill="#000000">chat_room_delete_message_action_id    </text>
<text text-anchor="start" x="3902.6128" y="-898.9" font-family="Arial" font-size="14.00" fill="#666666">[uuid]</text>
<polygon fill="none" stroke="#000000" points="3621,-857.5 3621,-887.5 4123,-887.5 4123,-857.5 3621,-857.5"/>
<text text-anchor="start" x="3628" y="-868.9" font-family="Arial" font-size="14.00" fill="#000000">chat_room_action_id    </text>
<text text-anchor="start" x="3792.129" y="-868.9" font-family="Arial" font-size="14.00" fill="#666666">[uuid]</text>
<polygon fill="none" stroke="#000000" points="3621,-827.5 3621,-857.5 4123,-857.5 4123,-827.5 3621,-827.5"/>
<text text-anchor="start" x="3628" y="-838.9" font-family="Arial" font-size="14.00" fill="#000000">deleted_by    </text>
<text text-anchor="start" x="3730.6802" y="-838.9" font-family="Arial" font-size="14.00" fill="#666666">[uuid]</text>
</g>
<!-- public.t_chat_room_delete_message_actions&#45;&gt;public.t_chat_room_actions -->
<g id="edge7" class="edge">
<title>public.t_chat_room_delete_message_actions:chat_room_action_id&#45;&gt;public.t_chat_room_actions:chat_room_action_id</title>
<path fill="none" stroke="#000000" d="M3610.8251,-871.5035C3564.7364,-861.366 3615.8686,-776.5432 3569,-740 3457.1574,-652.797 2444.8207,-577.5 2303,-577.5"/>
<polygon fill="#000000" stroke="#000000" points="3611.0476,-871.5252 3620.5613,-876.9786 3616.0238,-872.0126 3621,-872.5 3621,-872.5 3621,-872.5 3616.0238,-872.0126 3621.4387,-868.0214 3611.0476,-871.5252 3611.0476,-871.5252"/>
<text text-anchor="start" x="3628.242" y="-856.5" font-family="Arial" font-size="10.00" fill="#000000">FOREIGN KEY (chat_room_action_id) REFERENCES t_chat_room_actions(chat_room_action_id) ON UPDATE CASCADE ON DELETE CASCADE</text>
</g>
</g>
</svg>
