<?xml version="1.0" encoding="UTF-8" standalone="no"?>
<!DOCTYPE svg PUBLIC "-//W3C//DTD SVG 1.1//EN"
 "http://www.w3.org/Graphics/SVG/1.1/DTD/svg11.dtd">
<!-- Generated by graphviz version 2.40.1 (20161225.0304)
 -->
<!-- Title: public.m_attendance_types Pages: 1 -->
<svg width="1052pt" height="742pt"
 viewBox="0.00 0.00 1052.00 742.00" xmlns="http://www.w3.org/2000/svg" xmlns:xlink="http://www.w3.org/1999/xlink">
<g id="graph0" class="graph" transform="scale(1 1) rotate(0) translate(4 738)">
<title>public.m_attendance_types</title>
<polygon fill="#ffffff" stroke="transparent" points="-4,4 -4,-738 1048,-738 1048,4 -4,4"/>
<!-- public.m_attendance_types -->
<g id="node1" class="node">
<title>public.m_attendance_types</title>
<polygon fill="#efefef" stroke="transparent" points="46,-195.5 46,-230.5 406,-230.5 406,-195.5 46,-195.5"/>
<polygon fill="none" stroke="#000000" points="46,-195.5 46,-230.5 406,-230.5 406,-195.5 46,-195.5"/>
<text text-anchor="start" x="52.6779" y="-208.3" font-family="Arial Bold" font-size="18.00" fill="#000000">public.m_attendance_types</text>
<text text-anchor="start" x="271.7541" y="-208.3" font-family="Arial" font-size="14.00" fill="#000000">    </text>
<text text-anchor="start" x="305.9589" y="-208.3" font-family="Arial" font-size="14.00" fill="#666666">[BASE TABLE]</text>
<polygon fill="none" stroke="#000000" points="46,-165.5 46,-195.5 406,-195.5 406,-165.5 46,-165.5"/>
<text text-anchor="start" x="53" y="-176.9" font-family="Arial" font-size="14.00" fill="#000000">m_attendance_types_pkey </text>
<text text-anchor="start" x="224.1794" y="-176.9" font-family="Arial" font-size="14.00" fill="#666666">[bigint]</text>
<polygon fill="none" stroke="#000000" points="46,-135.5 46,-165.5 406,-165.5 406,-135.5 46,-135.5"/>
<text text-anchor="start" x="53" y="-146.9" font-family="Arial" font-size="14.00" fill="#000000">attendance_type_id </text>
<text text-anchor="start" x="179.0602" y="-146.9" font-family="Arial" font-size="14.00" fill="#666666">[uuid]</text>
<polygon fill="none" stroke="#000000" points="46,-105.5 46,-135.5 406,-135.5 406,-105.5 46,-105.5"/>
<text text-anchor="start" x="53" y="-116.9" font-family="Arial" font-size="14.00" fill="#000000">name </text>
<text text-anchor="start" x="91.899" y="-116.9" font-family="Arial" font-size="14.00" fill="#666666">[varchar(255)]</text>
<polygon fill="none" stroke="#000000" points="46,-75.5 46,-105.5 406,-105.5 406,-75.5 46,-75.5"/>
<text text-anchor="start" x="53" y="-86.9" font-family="Arial" font-size="14.00" fill="#000000">key </text>
<text text-anchor="start" x="78.6732" y="-86.9" font-family="Arial" font-size="14.00" fill="#666666">[varchar(255)]</text>
<polygon fill="none" stroke="#000000" points="46,-45.5 46,-75.5 406,-75.5 406,-45.5 46,-45.5"/>
<text text-anchor="start" x="53" y="-56.9" font-family="Arial" font-size="14.00" fill="#000000">color </text>
<text text-anchor="start" x="87.223" y="-56.9" font-family="Arial" font-size="14.00" fill="#666666">[varchar(15)]</text>
<polygon fill="none" stroke="#000000" stroke-width="3" points="44.5,-44.5 44.5,-232.5 407.5,-232.5 407.5,-44.5 44.5,-44.5"/>
</g>
<!-- public.t_attendances -->
<g id="node2" class="node">
<title>public.t_attendances</title>
<polygon fill="#efefef" stroke="transparent" points="73,-655.5 73,-690.5 379,-690.5 379,-655.5 73,-655.5"/>
<polygon fill="none" stroke="#000000" points="73,-655.5 73,-690.5 379,-690.5 379,-655.5 73,-655.5"/>
<text text-anchor="start" x="79.6833" y="-668.3" font-family="Arial Bold" font-size="18.00" fill="#000000">public.t_attendances</text>
<text text-anchor="start" x="244.7487" y="-668.3" font-family="Arial" font-size="14.00" fill="#000000">    </text>
<text text-anchor="start" x="278.9535" y="-668.3" font-family="Arial" font-size="14.00" fill="#666666">[BASE TABLE]</text>
<polygon fill="none" stroke="#000000" points="73,-625.5 73,-655.5 379,-655.5 379,-625.5 73,-625.5"/>
<text text-anchor="start" x="80" y="-636.9" font-family="Arial" font-size="14.00" fill="#000000">t_attendances_pkey    </text>
<text text-anchor="start" x="239.4852" y="-636.9" font-family="Arial" font-size="14.00" fill="#666666">[bigint]</text>
<polygon fill="none" stroke="#000000" points="73,-595.5 73,-625.5 379,-625.5 379,-595.5 73,-595.5"/>
<text text-anchor="start" x="80" y="-606.9" font-family="Arial" font-size="14.00" fill="#000000">attendance_id    </text>
<text text-anchor="start" x="202.136" y="-606.9" font-family="Arial" font-size="14.00" fill="#666666">[uuid]</text>
<polygon fill="none" stroke="#000000" points="73,-565.5 73,-595.5 379,-595.5 379,-565.5 73,-565.5"/>
<text text-anchor="start" x="80" y="-576.9" font-family="Arial" font-size="14.00" fill="#000000">attendance_type_id    </text>
<text text-anchor="start" x="236.3744" y="-576.9" font-family="Arial" font-size="14.00" fill="#666666">[uuid]</text>
<polygon fill="none" stroke="#000000" points="73,-535.5 73,-565.5 379,-565.5 379,-535.5 73,-535.5"/>
<text text-anchor="start" x="80" y="-546.9" font-family="Arial" font-size="14.00" fill="#000000">member_id    </text>
<text text-anchor="start" x="184.2062" y="-546.9" font-family="Arial" font-size="14.00" fill="#666666">[uuid]</text>
<polygon fill="none" stroke="#000000" points="73,-505.5 73,-535.5 379,-535.5 379,-505.5 73,-505.5"/>
<text text-anchor="start" x="80" y="-516.9" font-family="Arial" font-size="14.00" fill="#000000">description    </text>
<text text-anchor="start" x="181.8822" y="-516.9" font-family="Arial" font-size="14.00" fill="#666666">[text]</text>
<polygon fill="none" stroke="#000000" points="73,-475.5 73,-505.5 379,-505.5 379,-475.5 73,-475.5"/>
<text text-anchor="start" x="80" y="-486.9" font-family="Arial" font-size="14.00" fill="#000000">date    </text>
<text text-anchor="start" x="141.4432" y="-486.9" font-family="Arial" font-size="14.00" fill="#666666">[date]</text>
<polygon fill="none" stroke="#000000" points="73,-445.5 73,-475.5 379,-475.5 379,-445.5 73,-445.5"/>
<text text-anchor="start" x="80" y="-456.9" font-family="Arial" font-size="14.00" fill="#000000">mail_send_flag    </text>
<text text-anchor="start" x="208.3366" y="-456.9" font-family="Arial" font-size="14.00" fill="#666666">[boolean]</text>
<polygon fill="none" stroke="#000000" points="73,-415.5 73,-445.5 379,-445.5 379,-415.5 73,-415.5"/>
<text text-anchor="start" x="80" y="-426.9" font-family="Arial" font-size="14.00" fill="#000000">send_organization_id    </text>
<text text-anchor="start" x="247.2496" y="-426.9" font-family="Arial" font-size="14.00" fill="#666666">[uuid]</text>
<polygon fill="none" stroke="#000000" points="73,-385.5 73,-415.5 379,-415.5 379,-385.5 73,-385.5"/>
<text text-anchor="start" x="80" y="-396.9" font-family="Arial" font-size="14.00" fill="#000000">posted_at    </text>
<text text-anchor="start" x="175.6816" y="-396.9" font-family="Arial" font-size="14.00" fill="#666666">[timestamp with time zone]</text>
<polygon fill="none" stroke="#000000" points="73,-355.5 73,-385.5 379,-385.5 379,-355.5 73,-355.5"/>
<text text-anchor="start" x="80" y="-366.9" font-family="Arial" font-size="14.00" fill="#000000">last_edited_at    </text>
<text text-anchor="start" x="201.3506" y="-366.9" font-family="Arial" font-size="14.00" fill="#666666">[timestamp with time zone]</text>
</g>
<!-- public.t_attendances&#45;&gt;public.m_attendance_types -->
<g id="edge1" class="edge">
<title>public.t_attendances:attendance_type_id&#45;&gt;public.m_attendance_types:attendance_type_id</title>
<path fill="none" stroke="#000000" d="M389.1067,-578.8564C476.5347,-549.9872 498.2843,-150.5 406,-150.5"/>
<polygon fill="#000000" stroke="#000000" points="388.8703,-578.8947 378.2776,-576.0584 383.9352,-579.6974 379,-580.5 379,-580.5 379,-580.5 383.9352,-579.6974 379.7224,-584.9416 388.8703,-578.8947 388.8703,-578.8947"/>
<text text-anchor="start" x="386.1165" y="-590.5" font-family="Arial" font-size="10.00" fill="#000000">FOREIGN KEY (attendance_type_id) REFERENCES m_attendance_types(attendance_type_id) ON UPDATE RESTRICT ON DELETE RESTRICT</text>
</g>
</g>
</svg>
