<?xml version="1.0" encoding="UTF-8" standalone="no"?>
<!DOCTYPE svg PUBLIC "-//W3C//DTD SVG 1.1//EN"
 "http://www.w3.org/Graphics/SVG/1.1/DTD/svg11.dtd">
<!-- Generated by graphviz version 2.40.1 (20161225.0304)
 -->
<!-- Title: public.t_lab_io_histories Pages: 1 -->
<svg width="937pt" height="862pt"
 viewBox="0.00 0.00 936.50 862.00" xmlns="http://www.w3.org/2000/svg" xmlns:xlink="http://www.w3.org/1999/xlink">
<g id="graph0" class="graph" transform="scale(1 1) rotate(0) translate(4 858)">
<title>public.t_lab_io_histories</title>
<polygon fill="#ffffff" stroke="transparent" points="-4,4 -4,-858 932.5,-858 932.5,4 -4,4"/>
<!-- public.t_lab_io_histories -->
<g id="node1" class="node">
<title>public.t_lab_io_histories</title>
<polygon fill="#efefef" stroke="transparent" points="550,-772.5 550,-807.5 883,-807.5 883,-772.5 550,-772.5"/>
<polygon fill="none" stroke="#000000" points="550,-772.5 550,-807.5 883,-807.5 883,-772.5 550,-772.5"/>
<text text-anchor="start" x="556.6968" y="-785.3" font-family="Arial Bold" font-size="18.00" fill="#000000">public.t_lab_io_histories</text>
<text text-anchor="start" x="748.7352" y="-785.3" font-family="Arial" font-size="14.00" fill="#000000">    </text>
<text text-anchor="start" x="782.94" y="-785.3" font-family="Arial" font-size="14.00" fill="#666666">[BASE TABLE]</text>
<polygon fill="none" stroke="#000000" points="550,-742.5 550,-772.5 883,-772.5 883,-742.5 550,-742.5"/>
<text text-anchor="start" x="557" y="-753.9" font-family="Arial" font-size="14.00" fill="#000000">t_lab_io_histories_pkey </text>
<text text-anchor="start" x="707.15" y="-753.9" font-family="Arial" font-size="14.00" fill="#666666">[bigint]</text>
<polygon fill="none" stroke="#000000" points="550,-712.5 550,-742.5 883,-742.5 883,-712.5 550,-712.5"/>
<text text-anchor="start" x="557" y="-723.9" font-family="Arial" font-size="14.00" fill="#000000">lab_io_history_id </text>
<text text-anchor="start" x="665.9116" y="-723.9" font-family="Arial" font-size="14.00" fill="#666666">[uuid]</text>
<polygon fill="none" stroke="#000000" points="550,-682.5 550,-712.5 883,-712.5 883,-682.5 550,-682.5"/>
<text text-anchor="start" x="557" y="-693.9" font-family="Arial" font-size="14.00" fill="#000000">member_id </text>
<text text-anchor="start" x="630.892" y="-693.9" font-family="Arial" font-size="14.00" fill="#666666">[uuid]</text>
<polygon fill="none" stroke="#000000" points="550,-652.5 550,-682.5 883,-682.5 883,-652.5 550,-652.5"/>
<text text-anchor="start" x="557" y="-663.9" font-family="Arial" font-size="14.00" fill="#000000">entered_at </text>
<text text-anchor="start" x="627.8106" y="-663.9" font-family="Arial" font-size="14.00" fill="#666666">[timestamp with time zone]</text>
<polygon fill="none" stroke="#000000" points="550,-622.5 550,-652.5 883,-652.5 883,-622.5 550,-622.5"/>
<text text-anchor="start" x="557" y="-633.9" font-family="Arial" font-size="14.00" fill="#000000">exited_at </text>
<text text-anchor="start" x="617.6914" y="-633.9" font-family="Arial" font-size="14.00" fill="#666666">[timestamp with time zone]</text>
<polygon fill="none" stroke="#000000" stroke-width="3" points="548,-621.5 548,-809.5 884,-809.5 884,-621.5 548,-621.5"/>
</g>
<!-- public.m_members -->
<g id="node2" class="node">
<title>public.m_members</title>
<polygon fill="#efefef" stroke="transparent" points="570,-462.5 570,-497.5 863,-497.5 863,-462.5 570,-462.5"/>
<polygon fill="none" stroke="#000000" points="570,-462.5 570,-497.5 863,-497.5 863,-462.5 570,-462.5"/>
<text text-anchor="start" x="576.7146" y="-475.3" font-family="Arial Bold" font-size="18.00" fill="#000000">public.m_members</text>
<text text-anchor="start" x="728.7174" y="-475.3" font-family="Arial" font-size="14.00" fill="#000000">    </text>
<text text-anchor="start" x="762.9222" y="-475.3" font-family="Arial" font-size="14.00" fill="#666666">[BASE TABLE]</text>
<polygon fill="none" stroke="#000000" points="570,-432.5 570,-462.5 863,-462.5 863,-432.5 570,-432.5"/>
<text text-anchor="start" x="577" y="-443.9" font-family="Arial" font-size="14.00" fill="#000000">m_members_pkey    </text>
<text text-anchor="start" x="726.3254" y="-443.9" font-family="Arial" font-size="14.00" fill="#666666">[bigint]</text>
<polygon fill="none" stroke="#000000" points="570,-402.5 570,-432.5 863,-432.5 863,-402.5 570,-402.5"/>
<text text-anchor="start" x="577" y="-413.9" font-family="Arial" font-size="14.00" fill="#000000">member_id    </text>
<text text-anchor="start" x="681.2062" y="-413.9" font-family="Arial" font-size="14.00" fill="#666666">[uuid]</text>
<polygon fill="none" stroke="#000000" points="570,-372.5 570,-402.5 863,-402.5 863,-372.5 570,-372.5"/>
<text text-anchor="start" x="577" y="-383.9" font-family="Arial" font-size="14.00" fill="#000000">login_id    </text>
<text text-anchor="start" x="659.4376" y="-383.9" font-family="Arial" font-size="14.00" fill="#666666">[varchar(255)]</text>
<polygon fill="none" stroke="#000000" points="570,-342.5 570,-372.5 863,-372.5 863,-342.5 570,-342.5"/>
<text text-anchor="start" x="577" y="-353.9" font-family="Arial" font-size="14.00" fill="#000000">password    </text>
<text text-anchor="start" x="671.1024" y="-353.9" font-family="Arial" font-size="14.00" fill="#666666">[varchar(255)]</text>
<polygon fill="none" stroke="#000000" points="570,-312.5 570,-342.5 863,-342.5 863,-312.5 570,-312.5"/>
<text text-anchor="start" x="577" y="-323.9" font-family="Arial" font-size="14.00" fill="#000000">email    </text>
<text text-anchor="start" x="644.6438" y="-323.9" font-family="Arial" font-size="14.00" fill="#666666">[varchar(255)]</text>
<polygon fill="none" stroke="#000000" points="570,-282.5 570,-312.5 863,-312.5 863,-282.5 570,-282.5"/>
<text text-anchor="start" x="577" y="-293.9" font-family="Arial" font-size="14.00" fill="#000000">name    </text>
<text text-anchor="start" x="646.2132" y="-293.9" font-family="Arial" font-size="14.00" fill="#666666">[varchar(255)]</text>
<polygon fill="none" stroke="#000000" points="570,-252.5 570,-282.5 863,-282.5 863,-252.5 570,-252.5"/>
<text text-anchor="start" x="577" y="-263.9" font-family="Arial" font-size="14.00" fill="#000000">attend_status_id    </text>
<text text-anchor="start" x="713.9172" y="-263.9" font-family="Arial" font-size="14.00" fill="#666666">[uuid]</text>
<polygon fill="none" stroke="#000000" points="570,-222.5 570,-252.5 863,-252.5 863,-222.5 570,-222.5"/>
<text text-anchor="start" x="577" y="-233.9" font-family="Arial" font-size="14.00" fill="#000000">profile_image_id    </text>
<text text-anchor="start" x="713.8864" y="-233.9" font-family="Arial" font-size="14.00" fill="#666666">[uuid]</text>
<polygon fill="none" stroke="#000000" points="570,-192.5 570,-222.5 863,-222.5 863,-192.5 570,-192.5"/>
<text text-anchor="start" x="577" y="-203.9" font-family="Arial" font-size="14.00" fill="#000000">grade_id    </text>
<text text-anchor="start" x="665.6676" y="-203.9" font-family="Arial" font-size="14.00" fill="#666666">[uuid]</text>
<polygon fill="none" stroke="#000000" points="570,-162.5 570,-192.5 863,-192.5 863,-162.5 570,-162.5"/>
<text text-anchor="start" x="577" y="-173.9" font-family="Arial" font-size="14.00" fill="#000000">group_id    </text>
<text text-anchor="start" x="665.6676" y="-173.9" font-family="Arial" font-size="14.00" fill="#666666">[uuid]</text>
<polygon fill="none" stroke="#000000" points="570,-132.5 570,-162.5 863,-162.5 863,-132.5 570,-132.5"/>
<text text-anchor="start" x="577" y="-143.9" font-family="Arial" font-size="14.00" fill="#000000">personal_organization_id    </text>
<text text-anchor="start" x="767.582" y="-143.9" font-family="Arial" font-size="14.00" fill="#666666">[uuid]</text>
<polygon fill="none" stroke="#000000" points="570,-102.5 570,-132.5 863,-132.5 863,-102.5 570,-102.5"/>
<text text-anchor="start" x="577" y="-113.9" font-family="Arial" font-size="14.00" fill="#000000">role_id    </text>
<text text-anchor="start" x="653.209" y="-113.9" font-family="Arial" font-size="14.00" fill="#666666">[uuid]</text>
<polygon fill="none" stroke="#000000" points="570,-72.5 570,-102.5 863,-102.5 863,-72.5 570,-72.5"/>
<text text-anchor="start" x="577" y="-83.9" font-family="Arial" font-size="14.00" fill="#000000">created_at    </text>
<text text-anchor="start" x="677.3422" y="-83.9" font-family="Arial" font-size="14.00" fill="#666666">[timestamp with time zone]</text>
<polygon fill="none" stroke="#000000" points="570,-42.5 570,-72.5 863,-72.5 863,-42.5 570,-42.5"/>
<text text-anchor="start" x="577" y="-53.9" font-family="Arial" font-size="14.00" fill="#000000">updated_at    </text>
<text text-anchor="start" x="681.2468" y="-53.9" font-family="Arial" font-size="14.00" fill="#666666">[timestamp with time zone]</text>
</g>
<!-- public.t_lab_io_histories&#45;&gt;public.m_members -->
<g id="edge1" class="edge">
<title>public.t_lab_io_histories:member_id&#45;&gt;public.m_members:member_id</title>
<path fill="none" stroke="#000000" d="M540.1857,-694.9069C490.0208,-666.6795 511.1525,-417.5 570,-417.5"/>
<polygon fill="#000000" stroke="#000000" points="540.3318,-694.9454 548.8504,-701.8507 545.1659,-696.2227 550,-697.5 550,-697.5 550,-697.5 545.1659,-696.2227 551.1496,-693.1493 540.3318,-694.9454 540.3318,-694.9454"/>
<text text-anchor="start" x="6.67" y="-707.5" font-family="Arial" font-size="10.00" fill="#000000">FOREIGN KEY (member_id) REFERENCES m_members(member_id) ON UPDATE CASCADE ON DELETE CASCADE</text>
</g>
</g>
</svg>
