<?xml version="1.0" encoding="UTF-8" standalone="no"?>
<!DOCTYPE svg PUBLIC "-//W3C//DTD SVG 1.1//EN"
 "http://www.w3.org/Graphics/SVG/1.1/DTD/svg11.dtd">
<!-- Generated by graphviz version 2.40.1 (20161225.0304)
 -->
<!-- Title: public.m_groups Pages: 1 -->
<svg width="1282pt" height="1289pt"
 viewBox="0.00 0.00 1282.00 1289.00" xmlns="http://www.w3.org/2000/svg" xmlns:xlink="http://www.w3.org/1999/xlink">
<g id="graph0" class="graph" transform="scale(1 1) rotate(0) translate(4 1285)">
<title>public.m_groups</title>
<polygon fill="#ffffff" stroke="transparent" points="-4,4 -4,-1285 1278,-1285 1278,4 -4,4"/>
<!-- public.m_groups -->
<g id="node1" class="node">
<title>public.m_groups</title>
<polygon fill="#efefef" stroke="transparent" points="530,-622.5 530,-657.5 803,-657.5 803,-622.5 530,-622.5"/>
<polygon fill="none" stroke="#000000" points="530,-622.5 530,-657.5 803,-657.5 803,-622.5 530,-622.5"/>
<text text-anchor="start" x="536.7037" y="-635.3" font-family="Arial Bold" font-size="18.00" fill="#000000">public.m_groups</text>
<text text-anchor="start" x="668.7283" y="-635.3" font-family="Arial" font-size="14.00" fill="#000000">    </text>
<text text-anchor="start" x="702.9331" y="-635.3" font-family="Arial" font-size="14.00" fill="#666666">[BASE TABLE]</text>
<polygon fill="none" stroke="#000000" points="530,-592.5 530,-622.5 803,-622.5 803,-592.5 530,-592.5"/>
<text text-anchor="start" x="537" y="-603.9" font-family="Arial" font-size="14.00" fill="#000000">m_groups_pkey </text>
<text text-anchor="start" x="640.4726" y="-603.9" font-family="Arial" font-size="14.00" fill="#666666">[bigint]</text>
<polygon fill="none" stroke="#000000" points="530,-562.5 530,-592.5 803,-592.5 803,-562.5 530,-562.5"/>
<text text-anchor="start" x="537" y="-573.9" font-family="Arial" font-size="14.00" fill="#000000">group_id </text>
<text text-anchor="start" x="595.3534" y="-573.9" font-family="Arial" font-size="14.00" fill="#666666">[uuid]</text>
<polygon fill="none" stroke="#000000" points="530,-532.5 530,-562.5 803,-562.5 803,-532.5 530,-532.5"/>
<text text-anchor="start" x="537" y="-543.9" font-family="Arial" font-size="14.00" fill="#000000">key </text>
<text text-anchor="start" x="562.6732" y="-543.9" font-family="Arial" font-size="14.00" fill="#666666">[varchar(255)]</text>
<polygon fill="none" stroke="#000000" points="530,-502.5 530,-532.5 803,-532.5 803,-502.5 530,-502.5"/>
<text text-anchor="start" x="537" y="-513.9" font-family="Arial" font-size="14.00" fill="#000000">organization_id </text>
<text text-anchor="start" x="635.805" y="-513.9" font-family="Arial" font-size="14.00" fill="#666666">[uuid]</text>
<polygon fill="none" stroke="#000000" stroke-width="3" points="528,-501.5 528,-659.5 804,-659.5 804,-501.5 528,-501.5"/>
</g>
<!-- public.m_organizations -->
<g id="node3" class="node">
<title>public.m_organizations</title>
<polygon fill="#efefef" stroke="transparent" points="504,-342.5 504,-377.5 829,-377.5 829,-342.5 504,-342.5"/>
<polygon fill="none" stroke="#000000" points="504,-342.5 504,-377.5 829,-377.5 829,-342.5 504,-342.5"/>
<text text-anchor="start" x="510.6991" y="-355.3" font-family="Arial Bold" font-size="18.00" fill="#000000">public.m_organizations</text>
<text text-anchor="start" x="694.7329" y="-355.3" font-family="Arial" font-size="14.00" fill="#000000">    </text>
<text text-anchor="start" x="728.9377" y="-355.3" font-family="Arial" font-size="14.00" fill="#666666">[BASE TABLE]</text>
<polygon fill="none" stroke="#000000" points="504,-312.5 504,-342.5 829,-342.5 829,-312.5 504,-312.5"/>
<text text-anchor="start" x="511" y="-323.9" font-family="Arial" font-size="14.00" fill="#000000">m_organizations_pkey    </text>
<text text-anchor="start" x="685.2384" y="-323.9" font-family="Arial" font-size="14.00" fill="#666666">[bigint]</text>
<polygon fill="none" stroke="#000000" points="504,-282.5 504,-312.5 829,-312.5 829,-282.5 504,-282.5"/>
<text text-anchor="start" x="511" y="-293.9" font-family="Arial" font-size="14.00" fill="#000000">organization_id    </text>
<text text-anchor="start" x="640.1192" y="-293.9" font-family="Arial" font-size="14.00" fill="#666666">[uuid]</text>
<polygon fill="none" stroke="#000000" points="504,-252.5 504,-282.5 829,-282.5 829,-252.5 504,-252.5"/>
<text text-anchor="start" x="511" y="-263.9" font-family="Arial" font-size="14.00" fill="#000000">name    </text>
<text text-anchor="start" x="580.2132" y="-263.9" font-family="Arial" font-size="14.00" fill="#666666">[varchar(255)]</text>
<polygon fill="none" stroke="#000000" points="504,-222.5 504,-252.5 829,-252.5 829,-222.5 504,-222.5"/>
<text text-anchor="start" x="511" y="-233.9" font-family="Arial" font-size="14.00" fill="#000000">description    </text>
<text text-anchor="start" x="612.8822" y="-233.9" font-family="Arial" font-size="14.00" fill="#666666">[text]</text>
<polygon fill="none" stroke="#000000" points="504,-192.5 504,-222.5 829,-222.5 829,-192.5 504,-192.5"/>
<text text-anchor="start" x="511" y="-203.9" font-family="Arial" font-size="14.00" fill="#000000">color    </text>
<text text-anchor="start" x="575.5372" y="-203.9" font-family="Arial" font-size="14.00" fill="#666666">[varchar(7)]</text>
<polygon fill="none" stroke="#000000" points="504,-162.5 504,-192.5 829,-192.5 829,-162.5 504,-162.5"/>
<text text-anchor="start" x="511" y="-173.9" font-family="Arial" font-size="14.00" fill="#000000">is_personal    </text>
<text text-anchor="start" x="616.7742" y="-173.9" font-family="Arial" font-size="14.00" fill="#666666">[boolean]</text>
<polygon fill="none" stroke="#000000" points="504,-132.5 504,-162.5 829,-162.5 829,-132.5 504,-132.5"/>
<text text-anchor="start" x="511" y="-143.9" font-family="Arial" font-size="14.00" fill="#000000">is_whole    </text>
<text text-anchor="start" x="599.655" y="-143.9" font-family="Arial" font-size="14.00" fill="#666666">[boolean]</text>
<polygon fill="none" stroke="#000000" points="504,-102.5 504,-132.5 829,-132.5 829,-102.5 504,-102.5"/>
<text text-anchor="start" x="511" y="-113.9" font-family="Arial" font-size="14.00" fill="#000000">created_at    </text>
<text text-anchor="start" x="611.3422" y="-113.9" font-family="Arial" font-size="14.00" fill="#666666">[timestamp with time zone]</text>
<polygon fill="none" stroke="#000000" points="504,-72.5 504,-102.5 829,-102.5 829,-72.5 504,-72.5"/>
<text text-anchor="start" x="511" y="-83.9" font-family="Arial" font-size="14.00" fill="#000000">updated_at    </text>
<text text-anchor="start" x="615.2468" y="-83.9" font-family="Arial" font-size="14.00" fill="#666666">[timestamp with time zone]</text>
<polygon fill="none" stroke="#000000" points="504,-42.5 504,-72.5 829,-72.5 829,-42.5 504,-42.5"/>
<text text-anchor="start" x="511" y="-53.9" font-family="Arial" font-size="14.00" fill="#000000">chat_room_id    </text>
<text text-anchor="start" x="630.0014" y="-53.9" font-family="Arial" font-size="14.00" fill="#666666">[uuid]</text>
</g>
<!-- public.m_groups&#45;&gt;public.m_organizations -->
<g id="edge2" class="edge">
<title>public.m_groups:organization_id&#45;&gt;public.m_organizations:organization_id</title>
<path fill="none" stroke="#000000" d="M666.289,-492.463C656.3382,-427.3724 544.6689,-486.8037 504,-421 475.1432,-374.3087 449.1111,-297.5 504,-297.5"/>
<polygon fill="#000000" stroke="#000000" points="666.2933,-492.525 662.5112,-502.818 666.6466,-497.5125 667,-502.5 667,-502.5 667,-502.5 666.6466,-497.5125 671.4888,-502.182 666.2933,-492.525 666.2933,-492.525"/>
<text text-anchor="start" x="674.3185" y="-512.5" font-family="Arial" font-size="10.00" fill="#000000">FOREIGN KEY (organization_id) REFERENCES m_organizations(organization_id) ON UPDATE RESTRICT ON DELETE RESTRICT</text>
</g>
<!-- public.m_members -->
<g id="node2" class="node">
<title>public.m_members</title>
<polygon fill="#efefef" stroke="transparent" points="520,-1202.5 520,-1237.5 813,-1237.5 813,-1202.5 520,-1202.5"/>
<polygon fill="none" stroke="#000000" points="520,-1202.5 520,-1237.5 813,-1237.5 813,-1202.5 520,-1202.5"/>
<text text-anchor="start" x="526.7146" y="-1215.3" font-family="Arial Bold" font-size="18.00" fill="#000000">public.m_members</text>
<text text-anchor="start" x="678.7174" y="-1215.3" font-family="Arial" font-size="14.00" fill="#000000">    </text>
<text text-anchor="start" x="712.9222" y="-1215.3" font-family="Arial" font-size="14.00" fill="#666666">[BASE TABLE]</text>
<polygon fill="none" stroke="#000000" points="520,-1172.5 520,-1202.5 813,-1202.5 813,-1172.5 520,-1172.5"/>
<text text-anchor="start" x="527" y="-1183.9" font-family="Arial" font-size="14.00" fill="#000000">m_members_pkey    </text>
<text text-anchor="start" x="676.3254" y="-1183.9" font-family="Arial" font-size="14.00" fill="#666666">[bigint]</text>
<polygon fill="none" stroke="#000000" points="520,-1142.5 520,-1172.5 813,-1172.5 813,-1142.5 520,-1142.5"/>
<text text-anchor="start" x="527" y="-1153.9" font-family="Arial" font-size="14.00" fill="#000000">member_id    </text>
<text text-anchor="start" x="631.2062" y="-1153.9" font-family="Arial" font-size="14.00" fill="#666666">[uuid]</text>
<polygon fill="none" stroke="#000000" points="520,-1112.5 520,-1142.5 813,-1142.5 813,-1112.5 520,-1112.5"/>
<text text-anchor="start" x="527" y="-1123.9" font-family="Arial" font-size="14.00" fill="#000000">login_id    </text>
<text text-anchor="start" x="609.4376" y="-1123.9" font-family="Arial" font-size="14.00" fill="#666666">[varchar(255)]</text>
<polygon fill="none" stroke="#000000" points="520,-1082.5 520,-1112.5 813,-1112.5 813,-1082.5 520,-1082.5"/>
<text text-anchor="start" x="527" y="-1093.9" font-family="Arial" font-size="14.00" fill="#000000">password    </text>
<text text-anchor="start" x="621.1024" y="-1093.9" font-family="Arial" font-size="14.00" fill="#666666">[varchar(255)]</text>
<polygon fill="none" stroke="#000000" points="520,-1052.5 520,-1082.5 813,-1082.5 813,-1052.5 520,-1052.5"/>
<text text-anchor="start" x="527" y="-1063.9" font-family="Arial" font-size="14.00" fill="#000000">email    </text>
<text text-anchor="start" x="594.6438" y="-1063.9" font-family="Arial" font-size="14.00" fill="#666666">[varchar(255)]</text>
<polygon fill="none" stroke="#000000" points="520,-1022.5 520,-1052.5 813,-1052.5 813,-1022.5 520,-1022.5"/>
<text text-anchor="start" x="527" y="-1033.9" font-family="Arial" font-size="14.00" fill="#000000">name    </text>
<text text-anchor="start" x="596.2132" y="-1033.9" font-family="Arial" font-size="14.00" fill="#666666">[varchar(255)]</text>
<polygon fill="none" stroke="#000000" points="520,-992.5 520,-1022.5 813,-1022.5 813,-992.5 520,-992.5"/>
<text text-anchor="start" x="527" y="-1003.9" font-family="Arial" font-size="14.00" fill="#000000">attend_status_id    </text>
<text text-anchor="start" x="663.9172" y="-1003.9" font-family="Arial" font-size="14.00" fill="#666666">[uuid]</text>
<polygon fill="none" stroke="#000000" points="520,-962.5 520,-992.5 813,-992.5 813,-962.5 520,-962.5"/>
<text text-anchor="start" x="527" y="-973.9" font-family="Arial" font-size="14.00" fill="#000000">profile_image_url    </text>
<text text-anchor="start" x="668.547" y="-973.9" font-family="Arial" font-size="14.00" fill="#666666">[text]</text>
<polygon fill="none" stroke="#000000" points="520,-932.5 520,-962.5 813,-962.5 813,-932.5 520,-932.5"/>
<text text-anchor="start" x="527" y="-943.9" font-family="Arial" font-size="14.00" fill="#000000">grade_id    </text>
<text text-anchor="start" x="615.6676" y="-943.9" font-family="Arial" font-size="14.00" fill="#666666">[uuid]</text>
<polygon fill="none" stroke="#000000" points="520,-902.5 520,-932.5 813,-932.5 813,-902.5 520,-902.5"/>
<text text-anchor="start" x="527" y="-913.9" font-family="Arial" font-size="14.00" fill="#000000">group_id    </text>
<text text-anchor="start" x="615.6676" y="-913.9" font-family="Arial" font-size="14.00" fill="#666666">[uuid]</text>
<polygon fill="none" stroke="#000000" points="520,-872.5 520,-902.5 813,-902.5 813,-872.5 520,-872.5"/>
<text text-anchor="start" x="527" y="-883.9" font-family="Arial" font-size="14.00" fill="#000000">personal_organization_id    </text>
<text text-anchor="start" x="717.582" y="-883.9" font-family="Arial" font-size="14.00" fill="#666666">[uuid]</text>
<polygon fill="none" stroke="#000000" points="520,-842.5 520,-872.5 813,-872.5 813,-842.5 520,-842.5"/>
<text text-anchor="start" x="527" y="-853.9" font-family="Arial" font-size="14.00" fill="#000000">role_id    </text>
<text text-anchor="start" x="603.209" y="-853.9" font-family="Arial" font-size="14.00" fill="#666666">[uuid]</text>
<polygon fill="none" stroke="#000000" points="520,-812.5 520,-842.5 813,-842.5 813,-812.5 520,-812.5"/>
<text text-anchor="start" x="527" y="-823.9" font-family="Arial" font-size="14.00" fill="#000000">created_at    </text>
<text text-anchor="start" x="627.3422" y="-823.9" font-family="Arial" font-size="14.00" fill="#666666">[timestamp with time zone]</text>
<polygon fill="none" stroke="#000000" points="520,-782.5 520,-812.5 813,-812.5 813,-782.5 520,-782.5"/>
<text text-anchor="start" x="527" y="-793.9" font-family="Arial" font-size="14.00" fill="#000000">updated_at    </text>
<text text-anchor="start" x="631.2468" y="-793.9" font-family="Arial" font-size="14.00" fill="#666666">[timestamp with time zone]</text>
</g>
<!-- public.m_members&#45;&gt;public.m_groups -->
<g id="edge1" class="edge">
<title>public.m_members:group_id&#45;&gt;public.m_groups:group_id</title>
<path fill="none" stroke="#000000" d="M509.9325,-915.3288C445.4934,-886.3721 457.955,-577.5 530,-577.5"/>
<polygon fill="#000000" stroke="#000000" points="510.2247,-915.3918 519.0513,-921.8989 515.1124,-916.4459 520,-917.5 520,-917.5 520,-917.5 515.1124,-916.4459 520.9487,-913.1011 510.2247,-915.3918 510.2247,-915.3918"/>
<text text-anchor="start" x="6.6595" y="-927.5" font-family="Arial" font-size="10.00" fill="#000000">FOREIGN KEY (group_id) REFERENCES m_groups(group_id) ON UPDATE RESTRICT ON DELETE RESTRICT</text>
</g>
</g>
</svg>
