<?xml version="1.0" encoding="UTF-8" standalone="no"?>
<!DOCTYPE svg PUBLIC "-//W3C//DTD SVG 1.1//EN"
 "http://www.w3.org/Graphics/SVG/1.1/DTD/svg11.dtd">
<!-- Generated by graphviz version 2.40.1 (20161225.0304)
 -->
<!-- Title: public.t_attendances Pages: 1 -->
<svg width="1693pt" height="1289pt"
 viewBox="0.00 0.00 1693.00 1289.00" xmlns="http://www.w3.org/2000/svg" xmlns:xlink="http://www.w3.org/1999/xlink">
<g id="graph0" class="graph" transform="scale(1 1) rotate(0) translate(4 1285)">
<title>public.t_attendances</title>
<polygon fill="#ffffff" stroke="transparent" points="-4,4 -4,-1285 1689,-1285 1689,4 -4,4"/>
<!-- public.t_attendances -->
<g id="node1" class="node">
<title>public.t_attendances</title>
<polygon fill="#efefef" stroke="transparent" points="690,-922.5 690,-957.5 996,-957.5 996,-922.5 690,-922.5"/>
<polygon fill="none" stroke="#000000" points="690,-922.5 690,-957.5 996,-957.5 996,-922.5 690,-922.5"/>
<text text-anchor="start" x="696.6833" y="-935.3" font-family="Arial Bold" font-size="18.00" fill="#000000">public.t_attendances</text>
<text text-anchor="start" x="861.7487" y="-935.3" font-family="Arial" font-size="14.00" fill="#000000">    </text>
<text text-anchor="start" x="895.9535" y="-935.3" font-family="Arial" font-size="14.00" fill="#666666">[BASE TABLE]</text>
<polygon fill="none" stroke="#000000" points="690,-892.5 690,-922.5 996,-922.5 996,-892.5 690,-892.5"/>
<text text-anchor="start" x="697" y="-903.9" font-family="Arial" font-size="14.00" fill="#000000">t_attendances_pkey </text>
<text text-anchor="start" x="826.171" y="-903.9" font-family="Arial" font-size="14.00" fill="#666666">[bigint]</text>
<polygon fill="none" stroke="#000000" points="690,-862.5 690,-892.5 996,-892.5 996,-862.5 690,-862.5"/>
<text text-anchor="start" x="697" y="-873.9" font-family="Arial" font-size="14.00" fill="#000000">attendance_id </text>
<text text-anchor="start" x="788.8218" y="-873.9" font-family="Arial" font-size="14.00" fill="#666666">[uuid]</text>
<polygon fill="none" stroke="#000000" points="690,-832.5 690,-862.5 996,-862.5 996,-832.5 690,-832.5"/>
<text text-anchor="start" x="697" y="-843.9" font-family="Arial" font-size="14.00" fill="#000000">attendance_type_id </text>
<text text-anchor="start" x="823.0602" y="-843.9" font-family="Arial" font-size="14.00" fill="#666666">[uuid]</text>
<polygon fill="none" stroke="#000000" points="690,-802.5 690,-832.5 996,-832.5 996,-802.5 690,-802.5"/>
<text text-anchor="start" x="697" y="-813.9" font-family="Arial" font-size="14.00" fill="#000000">member_id </text>
<text text-anchor="start" x="770.892" y="-813.9" font-family="Arial" font-size="14.00" fill="#666666">[uuid]</text>
<polygon fill="none" stroke="#000000" points="690,-772.5 690,-802.5 996,-802.5 996,-772.5 690,-772.5"/>
<text text-anchor="start" x="697" y="-783.9" font-family="Arial" font-size="14.00" fill="#000000">description </text>
<text text-anchor="start" x="768.568" y="-783.9" font-family="Arial" font-size="14.00" fill="#666666">[text]</text>
<polygon fill="none" stroke="#000000" points="690,-742.5 690,-772.5 996,-772.5 996,-742.5 690,-742.5"/>
<text text-anchor="start" x="697" y="-753.9" font-family="Arial" font-size="14.00" fill="#000000">date </text>
<text text-anchor="start" x="728.129" y="-753.9" font-family="Arial" font-size="14.00" fill="#666666">[date]</text>
<polygon fill="none" stroke="#000000" points="690,-712.5 690,-742.5 996,-742.5 996,-712.5 690,-712.5"/>
<text text-anchor="start" x="697" y="-723.9" font-family="Arial" font-size="14.00" fill="#000000">mail_send_flag </text>
<text text-anchor="start" x="795.0224" y="-723.9" font-family="Arial" font-size="14.00" fill="#666666">[boolean]</text>
<polygon fill="none" stroke="#000000" points="690,-682.5 690,-712.5 996,-712.5 996,-682.5 690,-682.5"/>
<text text-anchor="start" x="697" y="-693.9" font-family="Arial" font-size="14.00" fill="#000000">send_organization_id </text>
<text text-anchor="start" x="833.9354" y="-693.9" font-family="Arial" font-size="14.00" fill="#666666">[uuid]</text>
<polygon fill="none" stroke="#000000" points="690,-652.5 690,-682.5 996,-682.5 996,-652.5 690,-652.5"/>
<text text-anchor="start" x="697" y="-663.9" font-family="Arial" font-size="14.00" fill="#000000">posted_at </text>
<text text-anchor="start" x="762.3674" y="-663.9" font-family="Arial" font-size="14.00" fill="#666666">[timestamp with time zone]</text>
<polygon fill="none" stroke="#000000" points="690,-622.5 690,-652.5 996,-652.5 996,-622.5 690,-622.5"/>
<text text-anchor="start" x="697" y="-633.9" font-family="Arial" font-size="14.00" fill="#000000">last_edited_at </text>
<text text-anchor="start" x="788.0364" y="-633.9" font-family="Arial" font-size="14.00" fill="#666666">[timestamp with time zone]</text>
<polygon fill="none" stroke="#000000" stroke-width="3" points="688.5,-621.5 688.5,-959.5 997.5,-959.5 997.5,-621.5 688.5,-621.5"/>
</g>
<!-- public.m_attendance_types -->
<g id="node5" class="node">
<title>public.m_attendance_types</title>
<polygon fill="#efefef" stroke="transparent" points="231,-327.5 231,-362.5 591,-362.5 591,-327.5 231,-327.5"/>
<polygon fill="none" stroke="#000000" points="231,-327.5 231,-362.5 591,-362.5 591,-327.5 231,-327.5"/>
<text text-anchor="start" x="237.6779" y="-340.3" font-family="Arial Bold" font-size="18.00" fill="#000000">public.m_attendance_types</text>
<text text-anchor="start" x="456.7541" y="-340.3" font-family="Arial" font-size="14.00" fill="#000000">    </text>
<text text-anchor="start" x="490.9589" y="-340.3" font-family="Arial" font-size="14.00" fill="#666666">[BASE TABLE]</text>
<polygon fill="none" stroke="#000000" points="231,-297.5 231,-327.5 591,-327.5 591,-297.5 231,-297.5"/>
<text text-anchor="start" x="238" y="-308.9" font-family="Arial" font-size="14.00" fill="#000000">m_attendance_types_pkey    </text>
<text text-anchor="start" x="439.4936" y="-308.9" font-family="Arial" font-size="14.00" fill="#666666">[bigint]</text>
<polygon fill="none" stroke="#000000" points="231,-267.5 231,-297.5 591,-297.5 591,-267.5 231,-267.5"/>
<text text-anchor="start" x="238" y="-278.9" font-family="Arial" font-size="14.00" fill="#000000">attendance_type_id    </text>
<text text-anchor="start" x="394.3744" y="-278.9" font-family="Arial" font-size="14.00" fill="#666666">[uuid]</text>
<polygon fill="none" stroke="#000000" points="231,-237.5 231,-267.5 591,-267.5 591,-237.5 231,-237.5"/>
<text text-anchor="start" x="238" y="-248.9" font-family="Arial" font-size="14.00" fill="#000000">name    </text>
<text text-anchor="start" x="307.2132" y="-248.9" font-family="Arial" font-size="14.00" fill="#666666">[varchar(255)]</text>
<polygon fill="none" stroke="#000000" points="231,-207.5 231,-237.5 591,-237.5 591,-207.5 231,-207.5"/>
<text text-anchor="start" x="238" y="-218.9" font-family="Arial" font-size="14.00" fill="#000000">key    </text>
<text text-anchor="start" x="293.9874" y="-218.9" font-family="Arial" font-size="14.00" fill="#666666">[varchar(255)]</text>
<polygon fill="none" stroke="#000000" points="231,-177.5 231,-207.5 591,-207.5 591,-177.5 231,-177.5"/>
<text text-anchor="start" x="238" y="-188.9" font-family="Arial" font-size="14.00" fill="#000000">color    </text>
<text text-anchor="start" x="302.5372" y="-188.9" font-family="Arial" font-size="14.00" fill="#666666">[varchar(15)]</text>
</g>
<!-- public.t_attendances&#45;&gt;public.m_attendance_types -->
<g id="edge4" class="edge">
<title>public.t_attendances:attendance_type_id&#45;&gt;public.m_attendance_types:attendance_type_id</title>
<path fill="none" stroke="#000000" d="M680.6592,-842.9521C629.0119,-789.4814 651.3732,-282.5 591,-282.5"/>
<polygon fill="#000000" stroke="#000000" points="681.0091,-843.1223 688.0301,-851.5459 685.5045,-845.3112 690,-847.5 690,-847.5 690,-847.5 685.5045,-845.3112 691.9699,-843.4541 681.0091,-843.1223 681.0091,-843.1223"/>
<text text-anchor="start" x="32.1165" y="-857.5" font-family="Arial" font-size="10.00" fill="#000000">FOREIGN KEY (attendance_type_id) REFERENCES m_attendance_types(attendance_type_id) ON UPDATE RESTRICT ON DELETE RESTRICT</text>
</g>
<!-- public.m_members -->
<g id="node6" class="node">
<title>public.m_members</title>
<polygon fill="#efefef" stroke="transparent" points="696,-462.5 696,-497.5 989,-497.5 989,-462.5 696,-462.5"/>
<polygon fill="none" stroke="#000000" points="696,-462.5 696,-497.5 989,-497.5 989,-462.5 696,-462.5"/>
<text text-anchor="start" x="702.7146" y="-475.3" font-family="Arial Bold" font-size="18.00" fill="#000000">public.m_members</text>
<text text-anchor="start" x="854.7174" y="-475.3" font-family="Arial" font-size="14.00" fill="#000000">    </text>
<text text-anchor="start" x="888.9222" y="-475.3" font-family="Arial" font-size="14.00" fill="#666666">[BASE TABLE]</text>
<polygon fill="none" stroke="#000000" points="696,-432.5 696,-462.5 989,-462.5 989,-432.5 696,-432.5"/>
<text text-anchor="start" x="703" y="-443.9" font-family="Arial" font-size="14.00" fill="#000000">m_members_pkey    </text>
<text text-anchor="start" x="852.3254" y="-443.9" font-family="Arial" font-size="14.00" fill="#666666">[bigint]</text>
<polygon fill="none" stroke="#000000" points="696,-402.5 696,-432.5 989,-432.5 989,-402.5 696,-402.5"/>
<text text-anchor="start" x="703" y="-413.9" font-family="Arial" font-size="14.00" fill="#000000">member_id    </text>
<text text-anchor="start" x="807.2062" y="-413.9" font-family="Arial" font-size="14.00" fill="#666666">[uuid]</text>
<polygon fill="none" stroke="#000000" points="696,-372.5 696,-402.5 989,-402.5 989,-372.5 696,-372.5"/>
<text text-anchor="start" x="703" y="-383.9" font-family="Arial" font-size="14.00" fill="#000000">login_id    </text>
<text text-anchor="start" x="785.4376" y="-383.9" font-family="Arial" font-size="14.00" fill="#666666">[varchar(255)]</text>
<polygon fill="none" stroke="#000000" points="696,-342.5 696,-372.5 989,-372.5 989,-342.5 696,-342.5"/>
<text text-anchor="start" x="703" y="-353.9" font-family="Arial" font-size="14.00" fill="#000000">password    </text>
<text text-anchor="start" x="797.1024" y="-353.9" font-family="Arial" font-size="14.00" fill="#666666">[varchar(255)]</text>
<polygon fill="none" stroke="#000000" points="696,-312.5 696,-342.5 989,-342.5 989,-312.5 696,-312.5"/>
<text text-anchor="start" x="703" y="-323.9" font-family="Arial" font-size="14.00" fill="#000000">email    </text>
<text text-anchor="start" x="770.6438" y="-323.9" font-family="Arial" font-size="14.00" fill="#666666">[varchar(255)]</text>
<polygon fill="none" stroke="#000000" points="696,-282.5 696,-312.5 989,-312.5 989,-282.5 696,-282.5"/>
<text text-anchor="start" x="703" y="-293.9" font-family="Arial" font-size="14.00" fill="#000000">name    </text>
<text text-anchor="start" x="772.2132" y="-293.9" font-family="Arial" font-size="14.00" fill="#666666">[varchar(255)]</text>
<polygon fill="none" stroke="#000000" points="696,-252.5 696,-282.5 989,-282.5 989,-252.5 696,-252.5"/>
<text text-anchor="start" x="703" y="-263.9" font-family="Arial" font-size="14.00" fill="#000000">attend_status_id    </text>
<text text-anchor="start" x="839.9172" y="-263.9" font-family="Arial" font-size="14.00" fill="#666666">[uuid]</text>
<polygon fill="none" stroke="#000000" points="696,-222.5 696,-252.5 989,-252.5 989,-222.5 696,-222.5"/>
<text text-anchor="start" x="703" y="-233.9" font-family="Arial" font-size="14.00" fill="#000000">profile_image_id    </text>
<text text-anchor="start" x="839.8864" y="-233.9" font-family="Arial" font-size="14.00" fill="#666666">[uuid]</text>
<polygon fill="none" stroke="#000000" points="696,-192.5 696,-222.5 989,-222.5 989,-192.5 696,-192.5"/>
<text text-anchor="start" x="703" y="-203.9" font-family="Arial" font-size="14.00" fill="#000000">grade_id    </text>
<text text-anchor="start" x="791.6676" y="-203.9" font-family="Arial" font-size="14.00" fill="#666666">[uuid]</text>
<polygon fill="none" stroke="#000000" points="696,-162.5 696,-192.5 989,-192.5 989,-162.5 696,-162.5"/>
<text text-anchor="start" x="703" y="-173.9" font-family="Arial" font-size="14.00" fill="#000000">group_id    </text>
<text text-anchor="start" x="791.6676" y="-173.9" font-family="Arial" font-size="14.00" fill="#666666">[uuid]</text>
<polygon fill="none" stroke="#000000" points="696,-132.5 696,-162.5 989,-162.5 989,-132.5 696,-132.5"/>
<text text-anchor="start" x="703" y="-143.9" font-family="Arial" font-size="14.00" fill="#000000">personal_organization_id    </text>
<text text-anchor="start" x="893.582" y="-143.9" font-family="Arial" font-size="14.00" fill="#666666">[uuid]</text>
<polygon fill="none" stroke="#000000" points="696,-102.5 696,-132.5 989,-132.5 989,-102.5 696,-102.5"/>
<text text-anchor="start" x="703" y="-113.9" font-family="Arial" font-size="14.00" fill="#000000">role_id    </text>
<text text-anchor="start" x="779.209" y="-113.9" font-family="Arial" font-size="14.00" fill="#666666">[uuid]</text>
<polygon fill="none" stroke="#000000" points="696,-72.5 696,-102.5 989,-102.5 989,-72.5 696,-72.5"/>
<text text-anchor="start" x="703" y="-83.9" font-family="Arial" font-size="14.00" fill="#000000">created_at    </text>
<text text-anchor="start" x="803.3422" y="-83.9" font-family="Arial" font-size="14.00" fill="#666666">[timestamp with time zone]</text>
<polygon fill="none" stroke="#000000" points="696,-42.5 696,-72.5 989,-72.5 989,-42.5 696,-42.5"/>
<text text-anchor="start" x="703" y="-53.9" font-family="Arial" font-size="14.00" fill="#000000">updated_at    </text>
<text text-anchor="start" x="807.2468" y="-53.9" font-family="Arial" font-size="14.00" fill="#666666">[timestamp with time zone]</text>
</g>
<!-- public.t_attendances&#45;&gt;public.m_members -->
<g id="edge5" class="edge">
<title>public.t_attendances:member_id&#45;&gt;public.m_members:member_id</title>
<path fill="none" stroke="#000000" d="M679.8214,-816.9779C585.5382,-806.9287 621.4341,-654.3165 690,-577 778.8084,-476.8575 900.1916,-641.1425 989,-541 1025.4187,-499.9334 1043.8889,-417.5 989,-417.5"/>
<polygon fill="#000000" stroke="#000000" points="680.0131,-816.9876 689.7694,-821.9941 685.0066,-817.2438 690,-817.5 690,-817.5 690,-817.5 685.0066,-817.2438 690.2306,-813.0059 680.0131,-816.9876 680.0131,-816.9876"/>
<text text-anchor="start" x="146.67" y="-827.5" font-family="Arial" font-size="10.00" fill="#000000">FOREIGN KEY (member_id) REFERENCES m_members(member_id) ON UPDATE CASCADE ON DELETE CASCADE</text>
</g>
<!-- public.m_organizations -->
<g id="node7" class="node">
<title>public.m_organizations</title>
<polygon fill="#efefef" stroke="transparent" points="1093,-387.5 1093,-422.5 1418,-422.5 1418,-387.5 1093,-387.5"/>
<polygon fill="none" stroke="#000000" points="1093,-387.5 1093,-422.5 1418,-422.5 1418,-387.5 1093,-387.5"/>
<text text-anchor="start" x="1099.6991" y="-400.3" font-family="Arial Bold" font-size="18.00" fill="#000000">public.m_organizations</text>
<text text-anchor="start" x="1283.7329" y="-400.3" font-family="Arial" font-size="14.00" fill="#000000">    </text>
<text text-anchor="start" x="1317.9377" y="-400.3" font-family="Arial" font-size="14.00" fill="#666666">[BASE TABLE]</text>
<polygon fill="none" stroke="#000000" points="1093,-357.5 1093,-387.5 1418,-387.5 1418,-357.5 1093,-357.5"/>
<text text-anchor="start" x="1100" y="-368.9" font-family="Arial" font-size="14.00" fill="#000000">m_organizations_pkey    </text>
<text text-anchor="start" x="1274.2384" y="-368.9" font-family="Arial" font-size="14.00" fill="#666666">[bigint]</text>
<polygon fill="none" stroke="#000000" points="1093,-327.5 1093,-357.5 1418,-357.5 1418,-327.5 1093,-327.5"/>
<text text-anchor="start" x="1100" y="-338.9" font-family="Arial" font-size="14.00" fill="#000000">organization_id    </text>
<text text-anchor="start" x="1229.1192" y="-338.9" font-family="Arial" font-size="14.00" fill="#666666">[uuid]</text>
<polygon fill="none" stroke="#000000" points="1093,-297.5 1093,-327.5 1418,-327.5 1418,-297.5 1093,-297.5"/>
<text text-anchor="start" x="1100" y="-308.9" font-family="Arial" font-size="14.00" fill="#000000">name    </text>
<text text-anchor="start" x="1169.2132" y="-308.9" font-family="Arial" font-size="14.00" fill="#666666">[varchar(255)]</text>
<polygon fill="none" stroke="#000000" points="1093,-267.5 1093,-297.5 1418,-297.5 1418,-267.5 1093,-267.5"/>
<text text-anchor="start" x="1100" y="-278.9" font-family="Arial" font-size="14.00" fill="#000000">description    </text>
<text text-anchor="start" x="1201.8822" y="-278.9" font-family="Arial" font-size="14.00" fill="#666666">[text]</text>
<polygon fill="none" stroke="#000000" points="1093,-237.5 1093,-267.5 1418,-267.5 1418,-237.5 1093,-237.5"/>
<text text-anchor="start" x="1100" y="-248.9" font-family="Arial" font-size="14.00" fill="#000000">is_personal    </text>
<text text-anchor="start" x="1205.7742" y="-248.9" font-family="Arial" font-size="14.00" fill="#666666">[boolean]</text>
<polygon fill="none" stroke="#000000" points="1093,-207.5 1093,-237.5 1418,-237.5 1418,-207.5 1093,-207.5"/>
<text text-anchor="start" x="1100" y="-218.9" font-family="Arial" font-size="14.00" fill="#000000">is_whole    </text>
<text text-anchor="start" x="1188.655" y="-218.9" font-family="Arial" font-size="14.00" fill="#666666">[boolean]</text>
<polygon fill="none" stroke="#000000" points="1093,-177.5 1093,-207.5 1418,-207.5 1418,-177.5 1093,-177.5"/>
<text text-anchor="start" x="1100" y="-188.9" font-family="Arial" font-size="14.00" fill="#000000">created_at    </text>
<text text-anchor="start" x="1200.3422" y="-188.9" font-family="Arial" font-size="14.00" fill="#666666">[timestamp with time zone]</text>
<polygon fill="none" stroke="#000000" points="1093,-147.5 1093,-177.5 1418,-177.5 1418,-147.5 1093,-147.5"/>
<text text-anchor="start" x="1100" y="-158.9" font-family="Arial" font-size="14.00" fill="#000000">updated_at    </text>
<text text-anchor="start" x="1204.2468" y="-158.9" font-family="Arial" font-size="14.00" fill="#666666">[timestamp with time zone]</text>
<polygon fill="none" stroke="#000000" points="1093,-117.5 1093,-147.5 1418,-147.5 1418,-117.5 1093,-117.5"/>
<text text-anchor="start" x="1100" y="-128.9" font-family="Arial" font-size="14.00" fill="#000000">chat_room_id    </text>
<text text-anchor="start" x="1219.0014" y="-128.9" font-family="Arial" font-size="14.00" fill="#666666">[uuid]</text>
</g>
<!-- public.t_attendances&#45;&gt;public.m_organizations -->
<g id="edge6" class="edge">
<title>public.t_attendances:send_organization_id&#45;&gt;public.m_organizations:organization_id</title>
<path fill="none" stroke="#000000" d="M1006.1501,-695.4152C1072.1,-666.3218 1014.8929,-342.5 1093,-342.5"/>
<polygon fill="#000000" stroke="#000000" points="1005.7955,-695.488 995.0946,-693.092 1000.8978,-696.494 996,-697.5 996,-697.5 996,-697.5 1000.8978,-696.494 996.9054,-701.908 1005.7955,-695.488 1005.7955,-695.488"/>
<text text-anchor="start" x="1002.9105" y="-707.5" font-family="Arial" font-size="10.00" fill="#000000">FOREIGN KEY (send_organization_id) REFERENCES m_organizations(organization_id) ON UPDATE SET NULL ON DELETE SET NULL</text>
</g>
<!-- public.t_early_leavings -->
<g id="node2" class="node">
<title>public.t_early_leavings</title>
<polygon fill="#efefef" stroke="transparent" points="263,-1202.5 263,-1237.5 586,-1237.5 586,-1202.5 263,-1202.5"/>
<polygon fill="none" stroke="#000000" points="263,-1202.5 263,-1237.5 586,-1237.5 586,-1202.5 263,-1202.5"/>
<text text-anchor="start" x="269.6981" y="-1215.3" font-family="Arial Bold" font-size="18.00" fill="#000000">public.t_early_leavings</text>
<text text-anchor="start" x="451.7339" y="-1215.3" font-family="Arial" font-size="14.00" fill="#000000">    </text>
<text text-anchor="start" x="485.9387" y="-1215.3" font-family="Arial" font-size="14.00" fill="#666666">[BASE TABLE]</text>
<polygon fill="none" stroke="#000000" points="263,-1172.5 263,-1202.5 586,-1202.5 586,-1172.5 263,-1172.5"/>
<text text-anchor="start" x="270" y="-1183.9" font-family="Arial" font-size="14.00" fill="#000000">t_early_leavings_pkey    </text>
<text text-anchor="start" x="442.6844" y="-1183.9" font-family="Arial" font-size="14.00" fill="#666666">[bigint]</text>
<polygon fill="none" stroke="#000000" points="263,-1142.5 263,-1172.5 586,-1172.5 586,-1142.5 263,-1142.5"/>
<text text-anchor="start" x="270" y="-1153.9" font-family="Arial" font-size="14.00" fill="#000000">early_leaving_id    </text>
<text text-anchor="start" x="405.3352" y="-1153.9" font-family="Arial" font-size="14.00" fill="#666666">[uuid]</text>
<polygon fill="none" stroke="#000000" points="263,-1112.5 263,-1142.5 586,-1142.5 586,-1112.5 263,-1112.5"/>
<text text-anchor="start" x="270" y="-1123.9" font-family="Arial" font-size="14.00" fill="#000000">attendance_id    </text>
<text text-anchor="start" x="392.136" y="-1123.9" font-family="Arial" font-size="14.00" fill="#666666">[uuid]</text>
<polygon fill="none" stroke="#000000" points="263,-1082.5 263,-1112.5 586,-1112.5 586,-1082.5 263,-1082.5"/>
<text text-anchor="start" x="270" y="-1093.9" font-family="Arial" font-size="14.00" fill="#000000">leave_time    </text>
<text text-anchor="start" x="371.8822" y="-1093.9" font-family="Arial" font-size="14.00" fill="#666666">[timestamp with time zone]</text>
</g>
<!-- public.t_early_leavings&#45;&gt;public.t_attendances -->
<g id="edge1" class="edge">
<title>public.t_early_leavings:attendance_id&#45;&gt;public.t_attendances:attendance_id</title>
<path fill="none" stroke="#000000" d="M595.8197,-1125.0257C644.5186,-1099.0614 633.3547,-877.5 690,-877.5"/>
<polygon fill="#000000" stroke="#000000" points="595.6969,-1125.0565 584.9004,-1123.1364 590.8484,-1126.2783 586,-1127.5 586,-1127.5 586,-1127.5 590.8484,-1126.2783 587.0996,-1131.8636 595.6969,-1125.0565 595.6969,-1125.0565"/>
<text text-anchor="start" x="6.5755" y="-1137.5" font-family="Arial" font-size="10.00" fill="#000000">FOREIGN KEY (attendance_id) REFERENCES t_attendances(attendance_id) ON UPDATE RESTRICT ON DELETE RESTRICT</text>
</g>
<!-- public.t_late_arrivals -->
<g id="node3" class="node">
<title>public.t_late_arrivals</title>
<polygon fill="#efefef" stroke="transparent" points="690,-1202.5 690,-1237.5 995,-1237.5 995,-1202.5 690,-1202.5"/>
<polygon fill="none" stroke="#000000" points="690,-1202.5 690,-1237.5 995,-1237.5 995,-1202.5 690,-1202.5"/>
<text text-anchor="start" x="696.7071" y="-1215.3" font-family="Arial Bold" font-size="18.00" fill="#000000">public.t_late_arrivals</text>
<text text-anchor="start" x="860.7249" y="-1215.3" font-family="Arial" font-size="14.00" fill="#000000">    </text>
<text text-anchor="start" x="894.9297" y="-1215.3" font-family="Arial" font-size="14.00" fill="#666666">[BASE TABLE]</text>
<polygon fill="none" stroke="#000000" points="690,-1172.5 690,-1202.5 995,-1202.5 995,-1172.5 690,-1172.5"/>
<text text-anchor="start" x="697" y="-1183.9" font-family="Arial" font-size="14.00" fill="#000000">t_late_arrivals_pkey    </text>
<text text-anchor="start" x="855.6704" y="-1183.9" font-family="Arial" font-size="14.00" fill="#666666">[bigint]</text>
<polygon fill="none" stroke="#000000" points="690,-1142.5 690,-1172.5 995,-1172.5 995,-1142.5 690,-1142.5"/>
<text text-anchor="start" x="697" y="-1153.9" font-family="Arial" font-size="14.00" fill="#000000">late_arrival_id    </text>
<text text-anchor="start" x="818.3212" y="-1153.9" font-family="Arial" font-size="14.00" fill="#666666">[uuid]</text>
<polygon fill="none" stroke="#000000" points="690,-1112.5 690,-1142.5 995,-1142.5 995,-1112.5 690,-1112.5"/>
<text text-anchor="start" x="697" y="-1123.9" font-family="Arial" font-size="14.00" fill="#000000">attendance_id    </text>
<text text-anchor="start" x="819.136" y="-1123.9" font-family="Arial" font-size="14.00" fill="#666666">[uuid]</text>
<polygon fill="none" stroke="#000000" points="690,-1082.5 690,-1112.5 995,-1112.5 995,-1082.5 690,-1082.5"/>
<text text-anchor="start" x="697" y="-1093.9" font-family="Arial" font-size="14.00" fill="#000000">arrive_time    </text>
<text text-anchor="start" x="800.4208" y="-1093.9" font-family="Arial" font-size="14.00" fill="#666666">[timestamp with time zone]</text>
</g>
<!-- public.t_late_arrivals&#45;&gt;public.t_attendances -->
<g id="edge2" class="edge">
<title>public.t_late_arrivals:attendance_id&#45;&gt;public.t_attendances:attendance_id</title>
<path fill="none" stroke="#000000" d="M1004.9437,-1125.91C1031.2177,-1116.3671 1018.3136,-1066.2272 995,-1040 904.3155,-937.9822 780.6845,-1106.0178 690,-1004 652.6475,-961.9794 633.7778,-877.5 690,-877.5"/>
<polygon fill="#000000" stroke="#000000" points="1004.8746,-1125.9209 994.2894,-1123.0565 999.9373,-1126.7105 995,-1127.5 995,-1127.5 995,-1127.5 999.9373,-1126.7105 995.7106,-1131.9435 1004.8746,-1125.9209 1004.8746,-1125.9209"/>
<text text-anchor="start" x="708.5755" y="-1111.5" font-family="Arial" font-size="10.00" fill="#000000">FOREIGN KEY (attendance_id) REFERENCES t_attendances(attendance_id) ON UPDATE RESTRICT ON DELETE RESTRICT</text>
</g>
<!-- public.t_absences -->
<g id="node4" class="node">
<title>public.t_absences</title>
<polygon fill="#efefef" stroke="transparent" points="1099,-1187.5 1099,-1222.5 1384,-1222.5 1384,-1187.5 1099,-1187.5"/>
<polygon fill="none" stroke="#000000" points="1099,-1187.5 1099,-1222.5 1384,-1222.5 1384,-1187.5 1099,-1187.5"/>
<text text-anchor="start" x="1105.6917" y="-1200.3" font-family="Arial Bold" font-size="18.00" fill="#000000">public.t_absences</text>
<text text-anchor="start" x="1249.7403" y="-1200.3" font-family="Arial" font-size="14.00" fill="#000000">    </text>
<text text-anchor="start" x="1283.9451" y="-1200.3" font-family="Arial" font-size="14.00" fill="#666666">[BASE TABLE]</text>
<polygon fill="none" stroke="#000000" points="1099,-1157.5 1099,-1187.5 1384,-1187.5 1384,-1157.5 1099,-1157.5"/>
<text text-anchor="start" x="1106" y="-1168.9" font-family="Arial" font-size="14.00" fill="#000000">t_absences_pkey    </text>
<text text-anchor="start" x="1249.1388" y="-1168.9" font-family="Arial" font-size="14.00" fill="#666666">[bigint]</text>
<polygon fill="none" stroke="#000000" points="1099,-1127.5 1099,-1157.5 1384,-1157.5 1384,-1127.5 1099,-1127.5"/>
<text text-anchor="start" x="1106" y="-1138.9" font-family="Arial" font-size="14.00" fill="#000000">absence_id    </text>
<text text-anchor="start" x="1211.7896" y="-1138.9" font-family="Arial" font-size="14.00" fill="#666666">[uuid]</text>
<polygon fill="none" stroke="#000000" points="1099,-1097.5 1099,-1127.5 1384,-1127.5 1384,-1097.5 1099,-1097.5"/>
<text text-anchor="start" x="1106" y="-1108.9" font-family="Arial" font-size="14.00" fill="#000000">attendance_id    </text>
<text text-anchor="start" x="1228.136" y="-1108.9" font-family="Arial" font-size="14.00" fill="#666666">[uuid]</text>
</g>
<!-- public.t_absences&#45;&gt;public.t_attendances -->
<g id="edge3" class="edge">
<title>public.t_absences:attendance_id&#45;&gt;public.t_attendances:attendance_id</title>
<path fill="none" stroke="#000000" d="M1089.0734,-1109.8608C1043.0956,-1084.043 1049.4545,-877.5 996,-877.5"/>
<polygon fill="#000000" stroke="#000000" points="1089.3357,-1109.9305 1097.8437,-1116.8489 1094.1679,-1111.2153 1099,-1112.5 1099,-1112.5 1099,-1112.5 1094.1679,-1111.2153 1100.1563,-1108.1511 1089.3357,-1109.9305 1089.3357,-1109.9305"/>
<text text-anchor="start" x="1105.5755" y="-1122.5" font-family="Arial" font-size="10.00" fill="#000000">FOREIGN KEY (attendance_id) REFERENCES t_attendances(attendance_id) ON UPDATE RESTRICT ON DELETE RESTRICT</text>
</g>
</g>
</svg>
