<?xml version="1.0" encoding="UTF-8" standalone="no"?>
<!DOCTYPE svg PUBLIC "-//W3C//DTD SVG 1.1//EN"
 "http://www.w3.org/Graphics/SVG/1.1/DTD/svg11.dtd">
<!-- Generated by graphviz version 2.40.1 (20161225.0304)
 -->
<!-- Title: public.m_permission_categories Pages: 1 -->
<svg width="976pt" height="622pt"
 viewBox="0.00 0.00 976.00 622.00" xmlns="http://www.w3.org/2000/svg" xmlns:xlink="http://www.w3.org/1999/xlink">
<g id="graph0" class="graph" transform="scale(1 1) rotate(0) translate(4 618)">
<title>public.m_permission_categories</title>
<polygon fill="#ffffff" stroke="transparent" points="-4,4 -4,-618 972,-618 972,4 -4,4"/>
<!-- public.m_permission_categories -->
<g id="node1" class="node">
<title>public.m_permission_categories</title>
<polygon fill="#efefef" stroke="transparent" points="524,-195.5 524,-230.5 922,-230.5 922,-195.5 524,-195.5"/>
<polygon fill="none" stroke="#000000" points="524,-195.5 524,-230.5 922,-230.5 922,-195.5 524,-195.5"/>
<text text-anchor="start" x="530.7005" y="-208.3" font-family="Arial Bold" font-size="18.00" fill="#000000">public.m_permission_categories</text>
<text text-anchor="start" x="787.7315" y="-208.3" font-family="Arial" font-size="14.00" fill="#000000">    </text>
<text text-anchor="start" x="821.9363" y="-208.3" font-family="Arial" font-size="14.00" fill="#666666">[BASE TABLE]</text>
<polygon fill="none" stroke="#000000" points="524,-165.5 524,-195.5 922,-195.5 922,-165.5 524,-165.5"/>
<text text-anchor="start" x="531" y="-176.9" font-family="Arial" font-size="14.00" fill="#000000">m_permission_categories_pkey </text>
<text text-anchor="start" x="731.6998" y="-176.9" font-family="Arial" font-size="14.00" fill="#666666">[bigint]</text>
<polygon fill="none" stroke="#000000" points="524,-135.5 524,-165.5 922,-165.5 922,-135.5 524,-135.5"/>
<text text-anchor="start" x="531" y="-146.9" font-family="Arial" font-size="14.00" fill="#000000">permission_category_id </text>
<text text-anchor="start" x="682.6914" y="-146.9" font-family="Arial" font-size="14.00" fill="#666666">[uuid]</text>
<polygon fill="none" stroke="#000000" points="524,-105.5 524,-135.5 922,-135.5 922,-105.5 524,-105.5"/>
<text text-anchor="start" x="531" y="-116.9" font-family="Arial" font-size="14.00" fill="#000000">name </text>
<text text-anchor="start" x="569.899" y="-116.9" font-family="Arial" font-size="14.00" fill="#666666">[varchar(255)]</text>
<polygon fill="none" stroke="#000000" points="524,-75.5 524,-105.5 922,-105.5 922,-75.5 524,-75.5"/>
<text text-anchor="start" x="531" y="-86.9" font-family="Arial" font-size="14.00" fill="#000000">description </text>
<text text-anchor="start" x="602.568" y="-86.9" font-family="Arial" font-size="14.00" fill="#666666">[text]</text>
<polygon fill="none" stroke="#000000" points="524,-45.5 524,-75.5 922,-75.5 922,-45.5 524,-45.5"/>
<text text-anchor="start" x="531" y="-56.9" font-family="Arial" font-size="14.00" fill="#000000">key </text>
<text text-anchor="start" x="556.6732" y="-56.9" font-family="Arial" font-size="14.00" fill="#666666">[varchar(255)]</text>
<polygon fill="none" stroke="#000000" stroke-width="3" points="522.5,-44.5 522.5,-232.5 923.5,-232.5 923.5,-44.5 522.5,-44.5"/>
</g>
<!-- public.m_permissions -->
<g id="node2" class="node">
<title>public.m_permissions</title>
<polygon fill="#efefef" stroke="transparent" points="566,-535.5 566,-570.5 880,-570.5 880,-535.5 566,-535.5"/>
<polygon fill="none" stroke="#000000" points="566,-535.5 566,-570.5 880,-570.5 880,-535.5 566,-535.5"/>
<text text-anchor="start" x="572.7134" y="-548.3" font-family="Arial Bold" font-size="18.00" fill="#000000">public.m_permissions</text>
<text text-anchor="start" x="745.7186" y="-548.3" font-family="Arial" font-size="14.00" fill="#000000">    </text>
<text text-anchor="start" x="779.9234" y="-548.3" font-family="Arial" font-size="14.00" fill="#666666">[BASE TABLE]</text>
<polygon fill="none" stroke="#000000" points="566,-505.5 566,-535.5 880,-535.5 880,-505.5 566,-505.5"/>
<text text-anchor="start" x="573" y="-516.9" font-family="Arial" font-size="14.00" fill="#000000">m_permissions_pkey    </text>
<text text-anchor="start" x="738.6606" y="-516.9" font-family="Arial" font-size="14.00" fill="#666666">[bigint]</text>
<polygon fill="none" stroke="#000000" points="566,-475.5 566,-505.5 880,-505.5 880,-475.5 566,-475.5"/>
<text text-anchor="start" x="573" y="-486.9" font-family="Arial" font-size="14.00" fill="#000000">permission_id    </text>
<text text-anchor="start" x="693.5414" y="-486.9" font-family="Arial" font-size="14.00" fill="#666666">[uuid]</text>
<polygon fill="none" stroke="#000000" points="566,-445.5 566,-475.5 880,-475.5 880,-445.5 566,-445.5"/>
<text text-anchor="start" x="573" y="-456.9" font-family="Arial" font-size="14.00" fill="#000000">name    </text>
<text text-anchor="start" x="642.2132" y="-456.9" font-family="Arial" font-size="14.00" fill="#666666">[varchar(255)]</text>
<polygon fill="none" stroke="#000000" points="566,-415.5 566,-445.5 880,-445.5 880,-415.5 566,-415.5"/>
<text text-anchor="start" x="573" y="-426.9" font-family="Arial" font-size="14.00" fill="#000000">description    </text>
<text text-anchor="start" x="674.8822" y="-426.9" font-family="Arial" font-size="14.00" fill="#666666">[text]</text>
<polygon fill="none" stroke="#000000" points="566,-385.5 566,-415.5 880,-415.5 880,-385.5 566,-385.5"/>
<text text-anchor="start" x="573" y="-396.9" font-family="Arial" font-size="14.00" fill="#000000">key    </text>
<text text-anchor="start" x="628.9874" y="-396.9" font-family="Arial" font-size="14.00" fill="#666666">[varchar(255)]</text>
<polygon fill="none" stroke="#000000" points="566,-355.5 566,-385.5 880,-385.5 880,-355.5 566,-355.5"/>
<text text-anchor="start" x="573" y="-366.9" font-family="Arial" font-size="14.00" fill="#000000">permission_category_id    </text>
<text text-anchor="start" x="755.0056" y="-366.9" font-family="Arial" font-size="14.00" fill="#666666">[uuid]</text>
</g>
<!-- public.m_permissions&#45;&gt;public.m_permission_categories -->
<g id="edge1" class="edge">
<title>public.m_permissions:permission_category_id&#45;&gt;public.m_permission_categories:permission_category_id</title>
<path fill="none" stroke="#000000" d="M723.6519,-345.2074C734.2275,-267.5937 870.5987,-352.5323 922,-277 953.6308,-230.5196 978.2222,-150.5 922,-150.5"/>
<polygon fill="#000000" stroke="#000000" points="723.6322,-345.52 718.509,-355.2155 723.3161,-350.51 723,-355.5 723,-355.5 723,-355.5 723.3161,-350.51 727.491,-355.7845 723.6322,-345.52 723.6322,-345.52"/>
<text text-anchor="start" x="7.2655" y="-365.5" font-family="Arial" font-size="10.00" fill="#000000">FOREIGN KEY (permission_category_id) REFERENCES m_permission_categories(permission_category_id) ON UPDATE RESTRICT ON DELETE RESTRICT</text>
</g>
</g>
</svg>
