<?xml version="1.0" encoding="UTF-8" standalone="no"?>
<!DOCTYPE svg PUBLIC "-//W3C//DTD SVG 1.1//EN"
 "http://www.w3.org/Graphics/SVG/1.1/DTD/svg11.dtd">
<!-- Generated by graphviz version 2.40.1 (20161225.0304)
 -->
<!-- Title: public.t_chat_room_create_actions Pages: 1 -->
<svg width="1650pt" height="922pt"
 viewBox="0.00 0.00 1650.00 922.00" xmlns="http://www.w3.org/2000/svg" xmlns:xlink="http://www.w3.org/1999/xlink">
<g id="graph0" class="graph" transform="scale(1 1) rotate(0) translate(4 918)">
<title>public.t_chat_room_create_actions</title>
<polygon fill="#ffffff" stroke="transparent" points="-4,4 -4,-918 1646,-918 1646,4 -4,4"/>
<!-- public.t_chat_room_create_actions -->
<g id="node1" class="node">
<title>public.t_chat_room_create_actions</title>
<polygon fill="#efefef" stroke="transparent" points="673,-832.5 673,-867.5 1093,-867.5 1093,-832.5 673,-832.5"/>
<polygon fill="none" stroke="#000000" points="673,-832.5 673,-867.5 1093,-867.5 1093,-832.5 673,-832.5"/>
<text text-anchor="start" x="679.6782" y="-845.3" font-family="Arial Bold" font-size="18.00" fill="#000000">public.t_chat_room_create_actions</text>
<text text-anchor="start" x="958.7538" y="-845.3" font-family="Arial" font-size="14.00" fill="#000000">    </text>
<text text-anchor="start" x="992.9586" y="-845.3" font-family="Arial" font-size="14.00" fill="#666666">[BASE TABLE]</text>
<polygon fill="none" stroke="#000000" points="673,-802.5 673,-832.5 1093,-832.5 1093,-802.5 673,-802.5"/>
<text text-anchor="start" x="680" y="-813.9" font-family="Arial" font-size="14.00" fill="#000000">t_chat_room_create_actions_pkey </text>
<text text-anchor="start" x="897.8456" y="-813.9" font-family="Arial" font-size="14.00" fill="#666666">[bigint]</text>
<polygon fill="none" stroke="#000000" points="673,-772.5 673,-802.5 1093,-802.5 1093,-772.5 673,-772.5"/>
<text text-anchor="start" x="680" y="-783.9" font-family="Arial" font-size="14.00" fill="#000000">chat_room_create_action_id </text>
<text text-anchor="start" x="860.4964" y="-783.9" font-family="Arial" font-size="14.00" fill="#666666">[uuid]</text>
<polygon fill="none" stroke="#000000" points="673,-742.5 673,-772.5 1093,-772.5 1093,-742.5 673,-742.5"/>
<text text-anchor="start" x="680" y="-753.9" font-family="Arial" font-size="14.00" fill="#000000">chat_room_action_id </text>
<text text-anchor="start" x="813.8148" y="-753.9" font-family="Arial" font-size="14.00" fill="#666666">[uuid]</text>
<polygon fill="none" stroke="#000000" points="673,-712.5 673,-742.5 1093,-742.5 1093,-712.5 673,-712.5"/>
<text text-anchor="start" x="680" y="-723.9" font-family="Arial" font-size="14.00" fill="#000000">created_by </text>
<text text-anchor="start" x="753.1374" y="-723.9" font-family="Arial" font-size="14.00" fill="#666666">[uuid]</text>
<polygon fill="none" stroke="#000000" points="673,-682.5 673,-712.5 1093,-712.5 1093,-682.5 673,-682.5"/>
<text text-anchor="start" x="680" y="-693.9" font-family="Arial" font-size="14.00" fill="#000000">name </text>
<text text-anchor="start" x="718.899" y="-693.9" font-family="Arial" font-size="14.00" fill="#666666">[varchar(255)]</text>
<polygon fill="none" stroke="#000000" stroke-width="3" points="671.5,-681.5 671.5,-869.5 1094.5,-869.5 1094.5,-681.5 671.5,-681.5"/>
</g>
<!-- public.t_chat_room_actions -->
<g id="node2" class="node">
<title>public.t_chat_room_actions</title>
<polygon fill="#efefef" stroke="transparent" points="487,-357.5 487,-392.5 847,-392.5 847,-357.5 487,-357.5"/>
<polygon fill="none" stroke="#000000" points="487,-357.5 487,-392.5 847,-392.5 847,-357.5 487,-357.5"/>
<text text-anchor="start" x="493.6878" y="-370.3" font-family="Arial Bold" font-size="18.00" fill="#000000">public.t_chat_room_actions</text>
<text text-anchor="start" x="712.7442" y="-370.3" font-family="Arial" font-size="14.00" fill="#000000">    </text>
<text text-anchor="start" x="746.949" y="-370.3" font-family="Arial" font-size="14.00" fill="#666666">[BASE TABLE]</text>
<polygon fill="none" stroke="#000000" points="487,-327.5 487,-357.5 847,-357.5 847,-327.5 487,-327.5"/>
<text text-anchor="start" x="494" y="-338.9" font-family="Arial" font-size="14.00" fill="#000000">t_chat_room_actions_pkey    </text>
<text text-anchor="start" x="695.4782" y="-338.9" font-family="Arial" font-size="14.00" fill="#666666">[bigint]</text>
<polygon fill="none" stroke="#000000" points="487,-297.5 487,-327.5 847,-327.5 847,-297.5 487,-297.5"/>
<text text-anchor="start" x="494" y="-308.9" font-family="Arial" font-size="14.00" fill="#000000">chat_room_action_id    </text>
<text text-anchor="start" x="658.129" y="-308.9" font-family="Arial" font-size="14.00" fill="#666666">[uuid]</text>
<polygon fill="none" stroke="#000000" points="487,-267.5 487,-297.5 847,-297.5 847,-267.5 487,-267.5"/>
<text text-anchor="start" x="494" y="-278.9" font-family="Arial" font-size="14.00" fill="#000000">chat_room_id    </text>
<text text-anchor="start" x="613.0014" y="-278.9" font-family="Arial" font-size="14.00" fill="#666666">[uuid]</text>
<polygon fill="none" stroke="#000000" points="487,-237.5 487,-267.5 847,-267.5 847,-237.5 487,-237.5"/>
<text text-anchor="start" x="494" y="-248.9" font-family="Arial" font-size="14.00" fill="#000000">chat_room_action_type_id    </text>
<text text-anchor="start" x="692.3674" y="-248.9" font-family="Arial" font-size="14.00" fill="#666666">[uuid]</text>
<polygon fill="none" stroke="#000000" points="487,-207.5 487,-237.5 847,-237.5 847,-207.5 487,-207.5"/>
<text text-anchor="start" x="494" y="-218.9" font-family="Arial" font-size="14.00" fill="#000000">acted_at    </text>
<text text-anchor="start" x="581.899" y="-218.9" font-family="Arial" font-size="14.00" fill="#666666">[timestamp with time zone]</text>
</g>
<!-- public.t_chat_room_create_actions&#45;&gt;public.t_chat_room_actions -->
<g id="edge1" class="edge">
<title>public.t_chat_room_create_actions:chat_room_action_id&#45;&gt;public.t_chat_room_actions:chat_room_action_id</title>
<path fill="none" stroke="#000000" d="M662.978,-756.4885C624.2656,-747.7113 655.6113,-683.6548 673,-637 714.265,-526.2837 805.735,-546.7163 847,-436 866.1695,-384.5673 901.8889,-312.5 847,-312.5"/>
<polygon fill="#000000" stroke="#000000" points="663.0505,-756.4958 672.5481,-761.9773 668.0253,-756.9979 673,-757.5 673,-757.5 673,-757.5 668.0253,-756.9979 673.4519,-753.0227 663.0505,-756.4958 663.0505,-756.4958"/>
<text text-anchor="start" x="7.242" y="-767.5" font-family="Arial" font-size="10.00" fill="#000000">FOREIGN KEY (chat_room_action_id) REFERENCES t_chat_room_actions(chat_room_action_id) ON UPDATE CASCADE ON DELETE CASCADE</text>
</g>
<!-- public.m_members -->
<g id="node3" class="node">
<title>public.m_members</title>
<polygon fill="#efefef" stroke="transparent" points="952,-522.5 952,-557.5 1245,-557.5 1245,-522.5 952,-522.5"/>
<polygon fill="none" stroke="#000000" points="952,-522.5 952,-557.5 1245,-557.5 1245,-522.5 952,-522.5"/>
<text text-anchor="start" x="958.7146" y="-535.3" font-family="Arial Bold" font-size="18.00" fill="#000000">public.m_members</text>
<text text-anchor="start" x="1110.7174" y="-535.3" font-family="Arial" font-size="14.00" fill="#000000">    </text>
<text text-anchor="start" x="1144.9222" y="-535.3" font-family="Arial" font-size="14.00" fill="#666666">[BASE TABLE]</text>
<polygon fill="none" stroke="#000000" points="952,-492.5 952,-522.5 1245,-522.5 1245,-492.5 952,-492.5"/>
<text text-anchor="start" x="959" y="-503.9" font-family="Arial" font-size="14.00" fill="#000000">m_members_pkey    </text>
<text text-anchor="start" x="1108.3254" y="-503.9" font-family="Arial" font-size="14.00" fill="#666666">[bigint]</text>
<polygon fill="none" stroke="#000000" points="952,-462.5 952,-492.5 1245,-492.5 1245,-462.5 952,-462.5"/>
<text text-anchor="start" x="959" y="-473.9" font-family="Arial" font-size="14.00" fill="#000000">member_id    </text>
<text text-anchor="start" x="1063.2062" y="-473.9" font-family="Arial" font-size="14.00" fill="#666666">[uuid]</text>
<polygon fill="none" stroke="#000000" points="952,-432.5 952,-462.5 1245,-462.5 1245,-432.5 952,-432.5"/>
<text text-anchor="start" x="959" y="-443.9" font-family="Arial" font-size="14.00" fill="#000000">login_id    </text>
<text text-anchor="start" x="1041.4376" y="-443.9" font-family="Arial" font-size="14.00" fill="#666666">[varchar(255)]</text>
<polygon fill="none" stroke="#000000" points="952,-402.5 952,-432.5 1245,-432.5 1245,-402.5 952,-402.5"/>
<text text-anchor="start" x="959" y="-413.9" font-family="Arial" font-size="14.00" fill="#000000">password    </text>
<text text-anchor="start" x="1053.1024" y="-413.9" font-family="Arial" font-size="14.00" fill="#666666">[varchar(255)]</text>
<polygon fill="none" stroke="#000000" points="952,-372.5 952,-402.5 1245,-402.5 1245,-372.5 952,-372.5"/>
<text text-anchor="start" x="959" y="-383.9" font-family="Arial" font-size="14.00" fill="#000000">email    </text>
<text text-anchor="start" x="1026.6438" y="-383.9" font-family="Arial" font-size="14.00" fill="#666666">[varchar(255)]</text>
<polygon fill="none" stroke="#000000" points="952,-342.5 952,-372.5 1245,-372.5 1245,-342.5 952,-342.5"/>
<text text-anchor="start" x="959" y="-353.9" font-family="Arial" font-size="14.00" fill="#000000">name    </text>
<text text-anchor="start" x="1028.2132" y="-353.9" font-family="Arial" font-size="14.00" fill="#666666">[varchar(255)]</text>
<polygon fill="none" stroke="#000000" points="952,-312.5 952,-342.5 1245,-342.5 1245,-312.5 952,-312.5"/>
<text text-anchor="start" x="959" y="-323.9" font-family="Arial" font-size="14.00" fill="#000000">first_name    </text>
<text text-anchor="start" x="1058.5442" y="-323.9" font-family="Arial" font-size="14.00" fill="#666666">[varchar(255)]</text>
<polygon fill="none" stroke="#000000" points="952,-282.5 952,-312.5 1245,-312.5 1245,-282.5 952,-282.5"/>
<text text-anchor="start" x="959" y="-293.9" font-family="Arial" font-size="14.00" fill="#000000">last_name    </text>
<text text-anchor="start" x="1057.7756" y="-293.9" font-family="Arial" font-size="14.00" fill="#666666">[varchar(255)]</text>
<polygon fill="none" stroke="#000000" points="952,-252.5 952,-282.5 1245,-282.5 1245,-252.5 952,-252.5"/>
<text text-anchor="start" x="959" y="-263.9" font-family="Arial" font-size="14.00" fill="#000000">attend_status_id    </text>
<text text-anchor="start" x="1095.9172" y="-263.9" font-family="Arial" font-size="14.00" fill="#666666">[uuid]</text>
<polygon fill="none" stroke="#000000" points="952,-222.5 952,-252.5 1245,-252.5 1245,-222.5 952,-222.5"/>
<text text-anchor="start" x="959" y="-233.9" font-family="Arial" font-size="14.00" fill="#000000">profile_image_id    </text>
<text text-anchor="start" x="1095.8864" y="-233.9" font-family="Arial" font-size="14.00" fill="#666666">[uuid]</text>
<polygon fill="none" stroke="#000000" points="952,-192.5 952,-222.5 1245,-222.5 1245,-192.5 952,-192.5"/>
<text text-anchor="start" x="959" y="-203.9" font-family="Arial" font-size="14.00" fill="#000000">grade_id    </text>
<text text-anchor="start" x="1047.6676" y="-203.9" font-family="Arial" font-size="14.00" fill="#666666">[uuid]</text>
<polygon fill="none" stroke="#000000" points="952,-162.5 952,-192.5 1245,-192.5 1245,-162.5 952,-162.5"/>
<text text-anchor="start" x="959" y="-173.9" font-family="Arial" font-size="14.00" fill="#000000">group_id    </text>
<text text-anchor="start" x="1047.6676" y="-173.9" font-family="Arial" font-size="14.00" fill="#666666">[uuid]</text>
<polygon fill="none" stroke="#000000" points="952,-132.5 952,-162.5 1245,-162.5 1245,-132.5 952,-132.5"/>
<text text-anchor="start" x="959" y="-143.9" font-family="Arial" font-size="14.00" fill="#000000">personal_organization_id    </text>
<text text-anchor="start" x="1149.582" y="-143.9" font-family="Arial" font-size="14.00" fill="#666666">[uuid]</text>
<polygon fill="none" stroke="#000000" points="952,-102.5 952,-132.5 1245,-132.5 1245,-102.5 952,-102.5"/>
<text text-anchor="start" x="959" y="-113.9" font-family="Arial" font-size="14.00" fill="#000000">role_id    </text>
<text text-anchor="start" x="1035.209" y="-113.9" font-family="Arial" font-size="14.00" fill="#666666">[uuid]</text>
<polygon fill="none" stroke="#000000" points="952,-72.5 952,-102.5 1245,-102.5 1245,-72.5 952,-72.5"/>
<text text-anchor="start" x="959" y="-83.9" font-family="Arial" font-size="14.00" fill="#000000">created_at    </text>
<text text-anchor="start" x="1059.3422" y="-83.9" font-family="Arial" font-size="14.00" fill="#666666">[timestamp with time zone]</text>
<polygon fill="none" stroke="#000000" points="952,-42.5 952,-72.5 1245,-72.5 1245,-42.5 952,-42.5"/>
<text text-anchor="start" x="959" y="-53.9" font-family="Arial" font-size="14.00" fill="#000000">updated_at    </text>
<text text-anchor="start" x="1063.2468" y="-53.9" font-family="Arial" font-size="14.00" fill="#666666">[timestamp with time zone]</text>
</g>
<!-- public.t_chat_room_create_actions&#45;&gt;public.m_members -->
<g id="edge2" class="edge">
<title>public.t_chat_room_create_actions:created_by&#45;&gt;public.m_members:member_id</title>
<path fill="none" stroke="#000000" d="M1103.2317,-725.8994C1130.0984,-716.2856 1115.2643,-665.6631 1093,-637 1053.3246,-585.9219 991.6754,-652.0781 952,-601 918.329,-557.652 897.1111,-477.5 952,-477.5"/>
<polygon fill="#000000" stroke="#000000" points="1102.8798,-725.9544 1092.3045,-723.0541 1097.9399,-726.7272 1093,-727.5 1093,-727.5 1093,-727.5 1097.9399,-726.7272 1093.6955,-731.9459 1102.8798,-725.9544 1102.8798,-725.9544"/>
<text text-anchor="start" x="1100.4905" y="-737.5" font-family="Arial" font-size="10.00" fill="#000000">FOREIGN KEY (created_by) REFERENCES m_members(member_id) ON UPDATE SET NULL ON DELETE SET NULL</text>
</g>
</g>
</svg>
