<?xml version="1.0" encoding="UTF-8" standalone="no"?>
<!DOCTYPE svg PUBLIC "-//W3C//DTD SVG 1.1//EN"
 "http://www.w3.org/Graphics/SVG/1.1/DTD/svg11.dtd">
<!-- Generated by graphviz version 2.40.1 (20161225.0304)
 -->
<!-- Title: public.m_record_types Pages: 1 -->
<svg width="967pt" height="712pt"
 viewBox="0.00 0.00 967.00 712.00" xmlns="http://www.w3.org/2000/svg" xmlns:xlink="http://www.w3.org/1999/xlink">
<g id="graph0" class="graph" transform="scale(1 1) rotate(0) translate(4 708)">
<title>public.m_record_types</title>
<polygon fill="#ffffff" stroke="transparent" points="-4,4 -4,-708 963,-708 963,4 -4,4"/>
<!-- public.m_record_types -->
<g id="node1" class="node">
<title>public.m_record_types</title>
<polygon fill="#efefef" stroke="transparent" points="46,-165.5 46,-200.5 368,-200.5 368,-165.5 46,-165.5"/>
<polygon fill="none" stroke="#000000" points="46,-165.5 46,-200.5 368,-200.5 368,-165.5 46,-165.5"/>
<text text-anchor="start" x="52.7003" y="-178.3" font-family="Arial Bold" font-size="18.00" fill="#000000">public.m_record_types</text>
<text text-anchor="start" x="233.7317" y="-178.3" font-family="Arial" font-size="14.00" fill="#000000">    </text>
<text text-anchor="start" x="267.9365" y="-178.3" font-family="Arial" font-size="14.00" fill="#666666">[BASE TABLE]</text>
<polygon fill="none" stroke="#000000" points="46,-135.5 46,-165.5 368,-165.5 368,-135.5 46,-135.5"/>
<text text-anchor="start" x="53" y="-146.9" font-family="Arial" font-size="14.00" fill="#000000">m_record_types_pkey </text>
<text text-anchor="start" x="194.589" y="-146.9" font-family="Arial" font-size="14.00" fill="#666666">[bigint]</text>
<polygon fill="none" stroke="#000000" points="46,-105.5 46,-135.5 368,-135.5 368,-105.5 46,-105.5"/>
<text text-anchor="start" x="53" y="-116.9" font-family="Arial" font-size="14.00" fill="#000000">record_type_id </text>
<text text-anchor="start" x="149.4698" y="-116.9" font-family="Arial" font-size="14.00" fill="#666666">[uuid]</text>
<polygon fill="none" stroke="#000000" points="46,-75.5 46,-105.5 368,-105.5 368,-75.5 46,-75.5"/>
<text text-anchor="start" x="53" y="-86.9" font-family="Arial" font-size="14.00" fill="#000000">name </text>
<text text-anchor="start" x="91.899" y="-86.9" font-family="Arial" font-size="14.00" fill="#666666">[varchar(255)]</text>
<polygon fill="none" stroke="#000000" points="46,-45.5 46,-75.5 368,-75.5 368,-45.5 46,-45.5"/>
<text text-anchor="start" x="53" y="-56.9" font-family="Arial" font-size="14.00" fill="#000000">key </text>
<text text-anchor="start" x="78.6732" y="-56.9" font-family="Arial" font-size="14.00" fill="#666666">[varchar(255)]</text>
<polygon fill="none" stroke="#000000" stroke-width="3" points="44.5,-44.5 44.5,-202.5 369.5,-202.5 369.5,-44.5 44.5,-44.5"/>
</g>
<!-- public.t_records -->
<g id="node2" class="node">
<title>public.t_records</title>
<polygon fill="#efefef" stroke="transparent" points="56,-625.5 56,-660.5 357,-660.5 357,-625.5 56,-625.5"/>
<polygon fill="none" stroke="#000000" points="56,-625.5 56,-660.5 357,-660.5 357,-625.5 56,-625.5"/>
<text text-anchor="start" x="79.2057" y="-638.3" font-family="Arial Bold" font-size="18.00" fill="#000000">public.t_records</text>
<text text-anchor="start" x="206.2263" y="-638.3" font-family="Arial" font-size="14.00" fill="#000000">    </text>
<text text-anchor="start" x="240.4311" y="-638.3" font-family="Arial" font-size="14.00" fill="#666666">[BASE TABLE]</text>
<polygon fill="none" stroke="#000000" points="56,-595.5 56,-625.5 357,-625.5 357,-595.5 56,-595.5"/>
<text text-anchor="start" x="63" y="-606.9" font-family="Arial" font-size="14.00" fill="#000000">t_records_pkey    </text>
<text text-anchor="start" x="192.8948" y="-606.9" font-family="Arial" font-size="14.00" fill="#666666">[bigint]</text>
<polygon fill="none" stroke="#000000" points="56,-565.5 56,-595.5 357,-595.5 357,-565.5 56,-565.5"/>
<text text-anchor="start" x="63" y="-576.9" font-family="Arial" font-size="14.00" fill="#000000">record_id    </text>
<text text-anchor="start" x="155.5456" y="-576.9" font-family="Arial" font-size="14.00" fill="#666666">[uuid]</text>
<polygon fill="none" stroke="#000000" points="56,-535.5 56,-565.5 357,-565.5 357,-535.5 56,-535.5"/>
<text text-anchor="start" x="63" y="-546.9" font-family="Arial" font-size="14.00" fill="#000000">record_type_id    </text>
<text text-anchor="start" x="189.784" y="-546.9" font-family="Arial" font-size="14.00" fill="#666666">[uuid]</text>
<polygon fill="none" stroke="#000000" points="56,-505.5 56,-535.5 357,-535.5 357,-505.5 56,-505.5"/>
<text text-anchor="start" x="63" y="-516.9" font-family="Arial" font-size="14.00" fill="#000000">title    </text>
<text text-anchor="start" x="118.9818" y="-516.9" font-family="Arial" font-size="14.00" fill="#666666">[varchar(255)]</text>
<polygon fill="none" stroke="#000000" points="56,-475.5 56,-505.5 357,-505.5 357,-475.5 56,-475.5"/>
<text text-anchor="start" x="63" y="-486.9" font-family="Arial" font-size="14.00" fill="#000000">body    </text>
<text text-anchor="start" x="127.5526" y="-486.9" font-family="Arial" font-size="14.00" fill="#666666">[text]</text>
<polygon fill="none" stroke="#000000" points="56,-445.5 56,-475.5 357,-475.5 357,-445.5 56,-445.5"/>
<text text-anchor="start" x="63" y="-456.9" font-family="Arial" font-size="14.00" fill="#000000">organization_id    </text>
<text text-anchor="start" x="192.1192" y="-456.9" font-family="Arial" font-size="14.00" fill="#666666">[uuid]</text>
<polygon fill="none" stroke="#000000" points="56,-415.5 56,-445.5 357,-445.5 357,-415.5 56,-415.5"/>
<text text-anchor="start" x="63" y="-426.9" font-family="Arial" font-size="14.00" fill="#000000">posted_by    </text>
<text text-anchor="start" x="161.791" y="-426.9" font-family="Arial" font-size="14.00" fill="#666666">[uuid]</text>
<polygon fill="none" stroke="#000000" points="56,-385.5 56,-415.5 357,-415.5 357,-385.5 56,-385.5"/>
<text text-anchor="start" x="63" y="-396.9" font-family="Arial" font-size="14.00" fill="#000000">last_edited_by    </text>
<text text-anchor="start" x="187.46" y="-396.9" font-family="Arial" font-size="14.00" fill="#666666">[uuid]</text>
<polygon fill="none" stroke="#000000" points="56,-355.5 56,-385.5 357,-385.5 357,-355.5 56,-355.5"/>
<text text-anchor="start" x="63" y="-366.9" font-family="Arial" font-size="14.00" fill="#000000">posted_at    </text>
<text text-anchor="start" x="158.6816" y="-366.9" font-family="Arial" font-size="14.00" fill="#666666">[timestamp with time zone]</text>
<polygon fill="none" stroke="#000000" points="56,-325.5 56,-355.5 357,-355.5 357,-325.5 56,-325.5"/>
<text text-anchor="start" x="62.9825" y="-336.9" font-family="Arial" font-size="14.00" fill="#000000">last_edited_at    </text>
<text text-anchor="start" x="184.3331" y="-336.9" font-family="Arial" font-size="14.00" fill="#666666">[timestamp with time zone]</text>
</g>
<!-- public.t_records&#45;&gt;public.m_record_types -->
<g id="edge1" class="edge">
<title>public.t_records:record_type_id&#45;&gt;public.m_record_types:record_type_id</title>
<path fill="none" stroke="#000000" d="M366.9382,-548.1354C413.9625,-524.1373 394.1489,-324.6972 357,-283 264.439,-179.1065 138.561,-350.8935 46,-247 8.6003,-205.0214 -10.2222,-120.5 46,-120.5"/>
<polygon fill="#000000" stroke="#000000" points="366.7284,-548.1852 355.9584,-546.1222 361.8642,-549.3426 357,-550.5 357,-550.5 357,-550.5 361.8642,-549.3426 358.0416,-554.8778 366.7284,-548.1852 366.7284,-548.1852"/>
<text text-anchor="start" x="363.8205" y="-560.5" font-family="Arial" font-size="10.00" fill="#000000">FOREIGN KEY (record_type_id) REFERENCES m_record_types(record_type_id) ON UPDATE RESTRICT ON DELETE RESTRICT</text>
</g>
</g>
</svg>
