<?xml version="1.0" encoding="UTF-8" standalone="no"?>
<!DOCTYPE svg PUBLIC "-//W3C//DTD SVG 1.1//EN"
 "http://www.w3.org/Graphics/SVG/1.1/DTD/svg11.dtd">
<!-- Generated by graphviz version 2.40.1 (20161225.0304)
 -->
<!-- Title: public.m_roles Pages: 1 -->
<svg width="938pt" height="952pt"
 viewBox="0.00 0.00 937.50 952.00" xmlns="http://www.w3.org/2000/svg" xmlns:xlink="http://www.w3.org/1999/xlink">
<g id="graph0" class="graph" transform="scale(1 1) rotate(0) translate(4 948)">
<title>public.m_roles</title>
<polygon fill="#ffffff" stroke="transparent" points="-4,4 -4,-948 933.5,-948 933.5,4 -4,4"/>
<!-- public.m_roles -->
<g id="node1" class="node">
<title>public.m_roles</title>
<polygon fill="#efefef" stroke="transparent" points="397,-225.5 397,-260.5 654,-260.5 654,-225.5 397,-225.5"/>
<polygon fill="none" stroke="#000000" points="397,-225.5 397,-260.5 654,-260.5 654,-225.5 397,-225.5"/>
<text text-anchor="start" x="403.7128" y="-238.3" font-family="Arial Bold" font-size="18.00" fill="#000000">public.m_roles</text>
<text text-anchor="start" x="519.7192" y="-238.3" font-family="Arial" font-size="14.00" fill="#000000">    </text>
<text text-anchor="start" x="553.924" y="-238.3" font-family="Arial" font-size="14.00" fill="#666666">[BASE TABLE]</text>
<polygon fill="none" stroke="#000000" points="397,-195.5 397,-225.5 654,-225.5 654,-195.5 397,-195.5"/>
<text text-anchor="start" x="404" y="-206.9" font-family="Arial" font-size="14.00" fill="#000000">m_roles_pkey </text>
<text text-anchor="start" x="495.014" y="-206.9" font-family="Arial" font-size="14.00" fill="#666666">[bigint]</text>
<polygon fill="none" stroke="#000000" points="397,-165.5 397,-195.5 654,-195.5 654,-165.5 397,-165.5"/>
<text text-anchor="start" x="404" y="-176.9" font-family="Arial" font-size="14.00" fill="#000000">role_id </text>
<text text-anchor="start" x="449.8948" y="-176.9" font-family="Arial" font-size="14.00" fill="#666666">[uuid]</text>
<polygon fill="none" stroke="#000000" points="397,-135.5 397,-165.5 654,-165.5 654,-135.5 397,-135.5"/>
<text text-anchor="start" x="404" y="-146.9" font-family="Arial" font-size="14.00" fill="#000000">name </text>
<text text-anchor="start" x="442.899" y="-146.9" font-family="Arial" font-size="14.00" fill="#666666">[varchar(255)]</text>
<polygon fill="none" stroke="#000000" points="397,-105.5 397,-135.5 654,-135.5 654,-105.5 397,-105.5"/>
<text text-anchor="start" x="404" y="-116.9" font-family="Arial" font-size="14.00" fill="#000000">description </text>
<text text-anchor="start" x="475.568" y="-116.9" font-family="Arial" font-size="14.00" fill="#666666">[text]</text>
<polygon fill="none" stroke="#000000" points="397,-75.5 397,-105.5 654,-105.5 654,-75.5 397,-75.5"/>
<text text-anchor="start" x="404" y="-86.9" font-family="Arial" font-size="14.00" fill="#000000">created_at </text>
<text text-anchor="start" x="474.028" y="-86.9" font-family="Arial" font-size="14.00" fill="#666666">[timestamp with time zone]</text>
<polygon fill="none" stroke="#000000" points="397,-45.5 397,-75.5 654,-75.5 654,-45.5 397,-45.5"/>
<text text-anchor="start" x="404" y="-56.9" font-family="Arial" font-size="14.00" fill="#000000">updated_at </text>
<text text-anchor="start" x="477.9326" y="-56.9" font-family="Arial" font-size="14.00" fill="#666666">[timestamp with time zone]</text>
<polygon fill="none" stroke="#000000" stroke-width="3" points="395,-44.5 395,-262.5 655,-262.5 655,-44.5 395,-44.5"/>
</g>
<!-- public.m_role_associations -->
<g id="node2" class="node">
<title>public.m_role_associations</title>
<polygon fill="#efefef" stroke="transparent" points="133,-670.5 133,-705.5 490,-705.5 490,-670.5 133,-670.5"/>
<polygon fill="none" stroke="#000000" points="133,-670.5 133,-705.5 490,-705.5 490,-670.5 133,-670.5"/>
<text text-anchor="start" x="139.6989" y="-683.3" font-family="Arial Bold" font-size="18.00" fill="#000000">public.m_role_associations</text>
<text text-anchor="start" x="355.7331" y="-683.3" font-family="Arial" font-size="14.00" fill="#000000">    </text>
<text text-anchor="start" x="389.9379" y="-683.3" font-family="Arial" font-size="14.00" fill="#666666">[BASE TABLE]</text>
<polygon fill="none" stroke="#000000" points="133,-640.5 133,-670.5 490,-670.5 490,-640.5 133,-640.5"/>
<text text-anchor="start" x="140" y="-651.9" font-family="Arial" font-size="14.00" fill="#000000">m_role_associations_pkey    </text>
<text text-anchor="start" x="339.1276" y="-651.9" font-family="Arial" font-size="14.00" fill="#666666">[bigint]</text>
<polygon fill="none" stroke="#000000" points="133,-610.5 133,-640.5 490,-640.5 490,-610.5 133,-610.5"/>
<text text-anchor="start" x="140" y="-621.9" font-family="Arial" font-size="14.00" fill="#000000">role_id    </text>
<text text-anchor="start" x="216.209" y="-621.9" font-family="Arial" font-size="14.00" fill="#666666">[uuid]</text>
<polygon fill="none" stroke="#000000" points="133,-580.5 133,-610.5 490,-610.5 490,-580.5 133,-580.5"/>
<text text-anchor="start" x="140" y="-591.9" font-family="Arial" font-size="14.00" fill="#000000">policy_id    </text>
<text text-anchor="start" x="228.655" y="-591.9" font-family="Arial" font-size="14.00" fill="#666666">[uuid]</text>
</g>
<!-- public.m_role_associations&#45;&gt;public.m_roles -->
<g id="edge1" class="edge">
<title>public.m_role_associations:role_id&#45;&gt;public.m_roles:role_id</title>
<path fill="none" stroke="#000000" d="M500.0145,-625.0923C674.7905,-609.993 198.501,-180.5 397,-180.5"/>
<polygon fill="#000000" stroke="#000000" points="499.9917,-625.0932 489.8169,-621.0037 494.9959,-625.2966 490,-625.5 490,-625.5 490,-625.5 494.9959,-625.2966 490.1831,-629.9963 499.9917,-625.0932 499.9917,-625.0932"/>
<text text-anchor="start" x="6.667" y="-635.5" font-family="Arial" font-size="10.00" fill="#000000">FOREIGN KEY (role_id) REFERENCES m_roles(role_id) ON UPDATE CASCADE ON DELETE CASCADE</text>
</g>
<!-- public.m_members -->
<g id="node3" class="node">
<title>public.m_members</title>
<polygon fill="#efefef" stroke="transparent" points="594,-865.5 594,-900.5 887,-900.5 887,-865.5 594,-865.5"/>
<polygon fill="none" stroke="#000000" points="594,-865.5 594,-900.5 887,-900.5 887,-865.5 594,-865.5"/>
<text text-anchor="start" x="600.7146" y="-878.3" font-family="Arial Bold" font-size="18.00" fill="#000000">public.m_members</text>
<text text-anchor="start" x="752.7174" y="-878.3" font-family="Arial" font-size="14.00" fill="#000000">    </text>
<text text-anchor="start" x="786.9222" y="-878.3" font-family="Arial" font-size="14.00" fill="#666666">[BASE TABLE]</text>
<polygon fill="none" stroke="#000000" points="594,-835.5 594,-865.5 887,-865.5 887,-835.5 594,-835.5"/>
<text text-anchor="start" x="601" y="-846.9" font-family="Arial" font-size="14.00" fill="#000000">m_members_pkey    </text>
<text text-anchor="start" x="750.3254" y="-846.9" font-family="Arial" font-size="14.00" fill="#666666">[bigint]</text>
<polygon fill="none" stroke="#000000" points="594,-805.5 594,-835.5 887,-835.5 887,-805.5 594,-805.5"/>
<text text-anchor="start" x="601" y="-816.9" font-family="Arial" font-size="14.00" fill="#000000">member_id    </text>
<text text-anchor="start" x="705.2062" y="-816.9" font-family="Arial" font-size="14.00" fill="#666666">[uuid]</text>
<polygon fill="none" stroke="#000000" points="594,-775.5 594,-805.5 887,-805.5 887,-775.5 594,-775.5"/>
<text text-anchor="start" x="601" y="-786.9" font-family="Arial" font-size="14.00" fill="#000000">login_id    </text>
<text text-anchor="start" x="683.4376" y="-786.9" font-family="Arial" font-size="14.00" fill="#666666">[varchar(255)]</text>
<polygon fill="none" stroke="#000000" points="594,-745.5 594,-775.5 887,-775.5 887,-745.5 594,-745.5"/>
<text text-anchor="start" x="601" y="-756.9" font-family="Arial" font-size="14.00" fill="#000000">password    </text>
<text text-anchor="start" x="695.1024" y="-756.9" font-family="Arial" font-size="14.00" fill="#666666">[varchar(255)]</text>
<polygon fill="none" stroke="#000000" points="594,-715.5 594,-745.5 887,-745.5 887,-715.5 594,-715.5"/>
<text text-anchor="start" x="601" y="-726.9" font-family="Arial" font-size="14.00" fill="#000000">email    </text>
<text text-anchor="start" x="668.6438" y="-726.9" font-family="Arial" font-size="14.00" fill="#666666">[varchar(255)]</text>
<polygon fill="none" stroke="#000000" points="594,-685.5 594,-715.5 887,-715.5 887,-685.5 594,-685.5"/>
<text text-anchor="start" x="601" y="-696.9" font-family="Arial" font-size="14.00" fill="#000000">name    </text>
<text text-anchor="start" x="670.2132" y="-696.9" font-family="Arial" font-size="14.00" fill="#666666">[varchar(255)]</text>
<polygon fill="none" stroke="#000000" points="594,-655.5 594,-685.5 887,-685.5 887,-655.5 594,-655.5"/>
<text text-anchor="start" x="601" y="-666.9" font-family="Arial" font-size="14.00" fill="#000000">first_name    </text>
<text text-anchor="start" x="700.5442" y="-666.9" font-family="Arial" font-size="14.00" fill="#666666">[varchar(255)]</text>
<polygon fill="none" stroke="#000000" points="594,-625.5 594,-655.5 887,-655.5 887,-625.5 594,-625.5"/>
<text text-anchor="start" x="601" y="-636.9" font-family="Arial" font-size="14.00" fill="#000000">last_name    </text>
<text text-anchor="start" x="699.7756" y="-636.9" font-family="Arial" font-size="14.00" fill="#666666">[varchar(255)]</text>
<polygon fill="none" stroke="#000000" points="594,-595.5 594,-625.5 887,-625.5 887,-595.5 594,-595.5"/>
<text text-anchor="start" x="601" y="-606.9" font-family="Arial" font-size="14.00" fill="#000000">attend_status_id    </text>
<text text-anchor="start" x="737.9172" y="-606.9" font-family="Arial" font-size="14.00" fill="#666666">[uuid]</text>
<polygon fill="none" stroke="#000000" points="594,-565.5 594,-595.5 887,-595.5 887,-565.5 594,-565.5"/>
<text text-anchor="start" x="601" y="-576.9" font-family="Arial" font-size="14.00" fill="#000000">profile_image_id    </text>
<text text-anchor="start" x="737.8864" y="-576.9" font-family="Arial" font-size="14.00" fill="#666666">[uuid]</text>
<polygon fill="none" stroke="#000000" points="594,-535.5 594,-565.5 887,-565.5 887,-535.5 594,-535.5"/>
<text text-anchor="start" x="601" y="-546.9" font-family="Arial" font-size="14.00" fill="#000000">grade_id    </text>
<text text-anchor="start" x="689.6676" y="-546.9" font-family="Arial" font-size="14.00" fill="#666666">[uuid]</text>
<polygon fill="none" stroke="#000000" points="594,-505.5 594,-535.5 887,-535.5 887,-505.5 594,-505.5"/>
<text text-anchor="start" x="601" y="-516.9" font-family="Arial" font-size="14.00" fill="#000000">group_id    </text>
<text text-anchor="start" x="689.6676" y="-516.9" font-family="Arial" font-size="14.00" fill="#666666">[uuid]</text>
<polygon fill="none" stroke="#000000" points="594,-475.5 594,-505.5 887,-505.5 887,-475.5 594,-475.5"/>
<text text-anchor="start" x="601" y="-486.9" font-family="Arial" font-size="14.00" fill="#000000">personal_organization_id    </text>
<text text-anchor="start" x="791.582" y="-486.9" font-family="Arial" font-size="14.00" fill="#666666">[uuid]</text>
<polygon fill="none" stroke="#000000" points="594,-445.5 594,-475.5 887,-475.5 887,-445.5 594,-445.5"/>
<text text-anchor="start" x="601" y="-456.9" font-family="Arial" font-size="14.00" fill="#000000">role_id    </text>
<text text-anchor="start" x="677.209" y="-456.9" font-family="Arial" font-size="14.00" fill="#666666">[uuid]</text>
<polygon fill="none" stroke="#000000" points="594,-415.5 594,-445.5 887,-445.5 887,-415.5 594,-415.5"/>
<text text-anchor="start" x="601" y="-426.9" font-family="Arial" font-size="14.00" fill="#000000">created_at    </text>
<text text-anchor="start" x="701.3422" y="-426.9" font-family="Arial" font-size="14.00" fill="#666666">[timestamp with time zone]</text>
<polygon fill="none" stroke="#000000" points="594,-385.5 594,-415.5 887,-415.5 887,-385.5 594,-385.5"/>
<text text-anchor="start" x="601" y="-396.9" font-family="Arial" font-size="14.00" fill="#000000">updated_at    </text>
<text text-anchor="start" x="705.2468" y="-396.9" font-family="Arial" font-size="14.00" fill="#666666">[timestamp with time zone]</text>
</g>
<!-- public.m_members&#45;&gt;public.m_roles -->
<g id="edge2" class="edge">
<title>public.m_members:role_id&#45;&gt;public.m_roles:role_id</title>
<path fill="none" stroke="#000000" d="M583.6407,-459.3496C545.706,-449.9507 570.1798,-385.071 594,-343 609.3221,-315.9382 638.6779,-334.0618 654,-307 681.7006,-258.0754 710.2222,-180.5 654,-180.5"/>
<polygon fill="#000000" stroke="#000000" points="584.0611,-459.3962 593.5033,-464.9725 589.0305,-459.9481 594,-460.5 594,-460.5 594,-460.5 589.0305,-459.9481 594.4967,-456.0275 584.0611,-459.3962 584.0611,-459.3962"/>
<text text-anchor="start" x="112.218" y="-470.5" font-family="Arial" font-size="10.00" fill="#000000">FOREIGN KEY (role_id) REFERENCES m_roles(role_id) ON UPDATE SET NULL ON DELETE SET NULL</text>
</g>
</g>
</svg>
