<?xml version="1.0" encoding="UTF-8" standalone="no"?>
<!DOCTYPE svg PUBLIC "-//W3C//DTD SVG 1.1//EN"
 "http://www.w3.org/Graphics/SVG/1.1/DTD/svg11.dtd">
<!-- Generated by graphviz version 2.40.1 (20161225.0304)
 -->
<!-- Title: public.m_chat_rooms Pages: 1 -->
<svg width="1405pt" height="1319pt"
 viewBox="0.00 0.00 1405.00 1319.00" xmlns="http://www.w3.org/2000/svg" xmlns:xlink="http://www.w3.org/1999/xlink">
<g id="graph0" class="graph" transform="scale(1 1) rotate(0) translate(4 1315)">
<title>public.m_chat_rooms</title>
<polygon fill="#ffffff" stroke="transparent" points="-4,4 -4,-1315 1401,-1315 1401,4 -4,4"/>
<!-- public.m_chat_rooms -->
<g id="node1" class="node">
<title>public.m_chat_rooms</title>
<polygon fill="#efefef" stroke="transparent" points="545,-862.5 545,-897.5 857,-897.5 857,-862.5 545,-862.5"/>
<polygon fill="none" stroke="#000000" points="545,-862.5 545,-897.5 857,-897.5 857,-862.5 545,-862.5"/>
<text text-anchor="start" x="551.7034" y="-875.3" font-family="Arial Bold" font-size="18.00" fill="#000000">public.m_chat_rooms</text>
<text text-anchor="start" x="722.7286" y="-875.3" font-family="Arial" font-size="14.00" fill="#000000">    </text>
<text text-anchor="start" x="756.9334" y="-875.3" font-family="Arial" font-size="14.00" fill="#666666">[BASE TABLE]</text>
<polygon fill="none" stroke="#000000" points="545,-832.5 545,-862.5 857,-862.5 857,-832.5 545,-832.5"/>
<text text-anchor="start" x="552" y="-843.9" font-family="Arial" font-size="14.00" fill="#000000">m_chat_rooms_pkey </text>
<text text-anchor="start" x="685.8064" y="-843.9" font-family="Arial" font-size="14.00" fill="#666666">[bigint]</text>
<polygon fill="none" stroke="#000000" points="545,-802.5 545,-832.5 857,-832.5 857,-802.5 545,-802.5"/>
<text text-anchor="start" x="552" y="-813.9" font-family="Arial" font-size="14.00" fill="#000000">chat_room_id </text>
<text text-anchor="start" x="640.6872" y="-813.9" font-family="Arial" font-size="14.00" fill="#666666">[uuid]</text>
<polygon fill="none" stroke="#000000" points="545,-772.5 545,-802.5 857,-802.5 857,-772.5 545,-772.5"/>
<text text-anchor="start" x="552" y="-783.9" font-family="Arial" font-size="14.00" fill="#000000">name </text>
<text text-anchor="start" x="590.899" y="-783.9" font-family="Arial" font-size="14.00" fill="#666666">[varchar(255)]</text>
<polygon fill="none" stroke="#000000" points="545,-742.5 545,-772.5 857,-772.5 857,-742.5 545,-742.5"/>
<text text-anchor="start" x="552" y="-753.9" font-family="Arial" font-size="14.00" fill="#000000">is_private </text>
<text text-anchor="start" x="615.7854" y="-753.9" font-family="Arial" font-size="14.00" fill="#666666">[boolean]</text>
<polygon fill="none" stroke="#000000" points="545,-712.5 545,-742.5 857,-742.5 857,-712.5 545,-712.5"/>
<text text-anchor="start" x="552" y="-723.9" font-family="Arial" font-size="14.00" fill="#000000">cover_image_id </text>
<text text-anchor="start" x="654.6858" y="-723.9" font-family="Arial" font-size="14.00" fill="#666666">[uuid]</text>
<polygon fill="none" stroke="#000000" points="545,-682.5 545,-712.5 857,-712.5 857,-682.5 545,-682.5"/>
<text text-anchor="start" x="552" y="-693.9" font-family="Arial" font-size="14.00" fill="#000000">owner_id </text>
<text text-anchor="start" x="612.6774" y="-693.9" font-family="Arial" font-size="14.00" fill="#666666">[uuid]</text>
<polygon fill="none" stroke="#000000" points="545,-652.5 545,-682.5 857,-682.5 857,-652.5 545,-652.5"/>
<text text-anchor="start" x="552" y="-663.9" font-family="Arial" font-size="14.00" fill="#000000">created_at </text>
<text text-anchor="start" x="622.028" y="-663.9" font-family="Arial" font-size="14.00" fill="#666666">[timestamp with time zone]</text>
<polygon fill="none" stroke="#000000" points="545,-622.5 545,-652.5 857,-652.5 857,-622.5 545,-622.5"/>
<text text-anchor="start" x="552" y="-633.9" font-family="Arial" font-size="14.00" fill="#000000">updated_at </text>
<text text-anchor="start" x="625.9326" y="-633.9" font-family="Arial" font-size="14.00" fill="#666666">[timestamp with time zone]</text>
<polygon fill="none" stroke="#000000" stroke-width="3" points="543.5,-621.5 543.5,-899.5 858.5,-899.5 858.5,-621.5 543.5,-621.5"/>
</g>
<!-- public.t_images -->
<g id="node4" class="node">
<title>public.t_images</title>
<polygon fill="#efefef" stroke="transparent" points="376,-327.5 376,-362.5 642,-362.5 642,-327.5 376,-327.5"/>
<polygon fill="none" stroke="#000000" points="376,-327.5 376,-362.5 642,-362.5 642,-327.5 376,-327.5"/>
<text text-anchor="start" x="382.7047" y="-340.3" font-family="Arial Bold" font-size="18.00" fill="#000000">public.t_images</text>
<text text-anchor="start" x="507.7273" y="-340.3" font-family="Arial" font-size="14.00" fill="#000000">    </text>
<text text-anchor="start" x="541.9321" y="-340.3" font-family="Arial" font-size="14.00" fill="#666666">[BASE TABLE]</text>
<polygon fill="none" stroke="#000000" points="376,-297.5 376,-327.5 642,-327.5 642,-297.5 376,-297.5"/>
<text text-anchor="start" x="383" y="-308.9" font-family="Arial" font-size="14.00" fill="#000000">t_images_pkey    </text>
<text text-anchor="start" x="511.3408" y="-308.9" font-family="Arial" font-size="14.00" fill="#666666">[bigint]</text>
<polygon fill="none" stroke="#000000" points="376,-267.5 376,-297.5 642,-297.5 642,-267.5 376,-267.5"/>
<text text-anchor="start" x="383" y="-278.9" font-family="Arial" font-size="14.00" fill="#000000">image_id    </text>
<text text-anchor="start" x="473.9916" y="-278.9" font-family="Arial" font-size="14.00" fill="#666666">[uuid]</text>
<polygon fill="none" stroke="#000000" points="376,-237.5 376,-267.5 642,-267.5 642,-237.5 376,-237.5"/>
<text text-anchor="start" x="383" y="-248.9" font-family="Arial" font-size="14.00" fill="#000000">height    </text>
<text text-anchor="start" x="455.3324" y="-248.9" font-family="Arial" font-size="14.00" fill="#666666">[double precision]</text>
<polygon fill="none" stroke="#000000" points="376,-207.5 376,-237.5 642,-237.5 642,-207.5 376,-207.5"/>
<text text-anchor="start" x="383" y="-218.9" font-family="Arial" font-size="14.00" fill="#000000">width    </text>
<text text-anchor="start" x="449.8738" y="-218.9" font-family="Arial" font-size="14.00" fill="#666666">[double precision]</text>
<polygon fill="none" stroke="#000000" points="376,-177.5 376,-207.5 642,-207.5 642,-177.5 376,-177.5"/>
<text text-anchor="start" x="383" y="-188.9" font-family="Arial" font-size="14.00" fill="#000000">attachable_item_id    </text>
<text text-anchor="start" x="534.683" y="-188.9" font-family="Arial" font-size="14.00" fill="#666666">[uuid]</text>
</g>
<!-- public.m_chat_rooms&#45;&gt;public.t_images -->
<g id="edge3" class="edge">
<title>public.m_chat_rooms:cover_image_id&#45;&gt;public.t_images:image_id</title>
<path fill="none" stroke="#000000" d="M534.8314,-727.0585C413.3589,-715.8396 618.832,-493.7985 642,-406 656.0045,-352.9278 696.8889,-282.5 642,-282.5"/>
<polygon fill="#000000" stroke="#000000" points="535.0094,-727.0662 544.8048,-731.9958 540.0047,-727.2831 545,-727.5 545,-727.5 545,-727.5 540.0047,-727.2831 545.1952,-723.0042 535.0094,-727.0662 535.0094,-727.0662"/>
<text text-anchor="start" x="7.1515" y="-737.5" font-family="Arial" font-size="10.00" fill="#000000">FOREIGN KEY (cover_image_id) REFERENCES t_images(image_id) ON UPDATE SET NULL ON DELETE SET NULL</text>
</g>
<!-- public.m_members -->
<g id="node5" class="node">
<title>public.m_members</title>
<polygon fill="#efefef" stroke="transparent" points="747,-462.5 747,-497.5 1040,-497.5 1040,-462.5 747,-462.5"/>
<polygon fill="none" stroke="#000000" points="747,-462.5 747,-497.5 1040,-497.5 1040,-462.5 747,-462.5"/>
<text text-anchor="start" x="753.7146" y="-475.3" font-family="Arial Bold" font-size="18.00" fill="#000000">public.m_members</text>
<text text-anchor="start" x="905.7174" y="-475.3" font-family="Arial" font-size="14.00" fill="#000000">    </text>
<text text-anchor="start" x="939.9222" y="-475.3" font-family="Arial" font-size="14.00" fill="#666666">[BASE TABLE]</text>
<polygon fill="none" stroke="#000000" points="747,-432.5 747,-462.5 1040,-462.5 1040,-432.5 747,-432.5"/>
<text text-anchor="start" x="754" y="-443.9" font-family="Arial" font-size="14.00" fill="#000000">m_members_pkey    </text>
<text text-anchor="start" x="903.3254" y="-443.9" font-family="Arial" font-size="14.00" fill="#666666">[bigint]</text>
<polygon fill="none" stroke="#000000" points="747,-402.5 747,-432.5 1040,-432.5 1040,-402.5 747,-402.5"/>
<text text-anchor="start" x="754" y="-413.9" font-family="Arial" font-size="14.00" fill="#000000">member_id    </text>
<text text-anchor="start" x="858.2062" y="-413.9" font-family="Arial" font-size="14.00" fill="#666666">[uuid]</text>
<polygon fill="none" stroke="#000000" points="747,-372.5 747,-402.5 1040,-402.5 1040,-372.5 747,-372.5"/>
<text text-anchor="start" x="754" y="-383.9" font-family="Arial" font-size="14.00" fill="#000000">login_id    </text>
<text text-anchor="start" x="836.4376" y="-383.9" font-family="Arial" font-size="14.00" fill="#666666">[varchar(255)]</text>
<polygon fill="none" stroke="#000000" points="747,-342.5 747,-372.5 1040,-372.5 1040,-342.5 747,-342.5"/>
<text text-anchor="start" x="754" y="-353.9" font-family="Arial" font-size="14.00" fill="#000000">password    </text>
<text text-anchor="start" x="848.1024" y="-353.9" font-family="Arial" font-size="14.00" fill="#666666">[varchar(255)]</text>
<polygon fill="none" stroke="#000000" points="747,-312.5 747,-342.5 1040,-342.5 1040,-312.5 747,-312.5"/>
<text text-anchor="start" x="754" y="-323.9" font-family="Arial" font-size="14.00" fill="#000000">email    </text>
<text text-anchor="start" x="821.6438" y="-323.9" font-family="Arial" font-size="14.00" fill="#666666">[varchar(255)]</text>
<polygon fill="none" stroke="#000000" points="747,-282.5 747,-312.5 1040,-312.5 1040,-282.5 747,-282.5"/>
<text text-anchor="start" x="754" y="-293.9" font-family="Arial" font-size="14.00" fill="#000000">name    </text>
<text text-anchor="start" x="823.2132" y="-293.9" font-family="Arial" font-size="14.00" fill="#666666">[varchar(255)]</text>
<polygon fill="none" stroke="#000000" points="747,-252.5 747,-282.5 1040,-282.5 1040,-252.5 747,-252.5"/>
<text text-anchor="start" x="754" y="-263.9" font-family="Arial" font-size="14.00" fill="#000000">attend_status_id    </text>
<text text-anchor="start" x="890.9172" y="-263.9" font-family="Arial" font-size="14.00" fill="#666666">[uuid]</text>
<polygon fill="none" stroke="#000000" points="747,-222.5 747,-252.5 1040,-252.5 1040,-222.5 747,-222.5"/>
<text text-anchor="start" x="754" y="-233.9" font-family="Arial" font-size="14.00" fill="#000000">profile_image_id    </text>
<text text-anchor="start" x="890.8864" y="-233.9" font-family="Arial" font-size="14.00" fill="#666666">[uuid]</text>
<polygon fill="none" stroke="#000000" points="747,-192.5 747,-222.5 1040,-222.5 1040,-192.5 747,-192.5"/>
<text text-anchor="start" x="754" y="-203.9" font-family="Arial" font-size="14.00" fill="#000000">grade_id    </text>
<text text-anchor="start" x="842.6676" y="-203.9" font-family="Arial" font-size="14.00" fill="#666666">[uuid]</text>
<polygon fill="none" stroke="#000000" points="747,-162.5 747,-192.5 1040,-192.5 1040,-162.5 747,-162.5"/>
<text text-anchor="start" x="754" y="-173.9" font-family="Arial" font-size="14.00" fill="#000000">group_id    </text>
<text text-anchor="start" x="842.6676" y="-173.9" font-family="Arial" font-size="14.00" fill="#666666">[uuid]</text>
<polygon fill="none" stroke="#000000" points="747,-132.5 747,-162.5 1040,-162.5 1040,-132.5 747,-132.5"/>
<text text-anchor="start" x="754" y="-143.9" font-family="Arial" font-size="14.00" fill="#000000">personal_organization_id    </text>
<text text-anchor="start" x="944.582" y="-143.9" font-family="Arial" font-size="14.00" fill="#666666">[uuid]</text>
<polygon fill="none" stroke="#000000" points="747,-102.5 747,-132.5 1040,-132.5 1040,-102.5 747,-102.5"/>
<text text-anchor="start" x="754" y="-113.9" font-family="Arial" font-size="14.00" fill="#000000">role_id    </text>
<text text-anchor="start" x="830.209" y="-113.9" font-family="Arial" font-size="14.00" fill="#666666">[uuid]</text>
<polygon fill="none" stroke="#000000" points="747,-72.5 747,-102.5 1040,-102.5 1040,-72.5 747,-72.5"/>
<text text-anchor="start" x="754" y="-83.9" font-family="Arial" font-size="14.00" fill="#000000">created_at    </text>
<text text-anchor="start" x="854.3422" y="-83.9" font-family="Arial" font-size="14.00" fill="#666666">[timestamp with time zone]</text>
<polygon fill="none" stroke="#000000" points="747,-42.5 747,-72.5 1040,-72.5 1040,-42.5 747,-42.5"/>
<text text-anchor="start" x="754" y="-53.9" font-family="Arial" font-size="14.00" fill="#000000">updated_at    </text>
<text text-anchor="start" x="858.2468" y="-53.9" font-family="Arial" font-size="14.00" fill="#666666">[timestamp with time zone]</text>
</g>
<!-- public.m_chat_rooms&#45;&gt;public.m_members -->
<g id="edge4" class="edge">
<title>public.m_chat_rooms:owner_id&#45;&gt;public.m_members:member_id</title>
<path fill="none" stroke="#000000" d="M867.1975,-696.3945C907.3986,-686.8193 886.2229,-617.312 857,-577 826.8083,-535.3516 777.1917,-582.6484 747,-541 714.7844,-496.5597 692.1111,-417.5 747,-417.5"/>
<polygon fill="#000000" stroke="#000000" points="866.9417,-696.4221 856.5149,-693.0262 861.9709,-696.9611 857,-697.5 857,-697.5 857,-697.5 861.9709,-696.9611 857.4851,-701.9738 866.9417,-696.4221 866.9417,-696.4221"/>
<text text-anchor="start" x="863.9405" y="-707.5" font-family="Arial" font-size="10.00" fill="#000000">FOREIGN KEY (owner_id) REFERENCES m_members(member_id) ON UPDATE SET NULL ON DELETE SET NULL</text>
</g>
<!-- public.t_messages -->
<g id="node2" class="node">
<title>public.t_messages</title>
<polygon fill="#efefef" stroke="transparent" points="323,-1232.5 323,-1267.5 624,-1267.5 624,-1232.5 323,-1232.5"/>
<polygon fill="none" stroke="#000000" points="323,-1232.5 323,-1267.5 624,-1267.5 624,-1232.5 323,-1232.5"/>
<text text-anchor="start" x="335.1987" y="-1245.3" font-family="Arial Bold" font-size="18.00" fill="#000000">public.t_messages</text>
<text text-anchor="start" x="484.2333" y="-1245.3" font-family="Arial" font-size="14.00" fill="#000000">    </text>
<text text-anchor="start" x="518.4381" y="-1245.3" font-family="Arial" font-size="14.00" fill="#666666">[BASE TABLE]</text>
<polygon fill="none" stroke="#000000" points="323,-1202.5 323,-1232.5 624,-1232.5 624,-1202.5 323,-1202.5"/>
<text text-anchor="start" x="330" y="-1213.9" font-family="Arial" font-size="14.00" fill="#000000">t_messages_pkey    </text>
<text text-anchor="start" x="477.0168" y="-1213.9" font-family="Arial" font-size="14.00" fill="#666666">[bigint]</text>
<polygon fill="none" stroke="#000000" points="323,-1172.5 323,-1202.5 624,-1202.5 624,-1172.5 323,-1172.5"/>
<text text-anchor="start" x="330" y="-1183.9" font-family="Arial" font-size="14.00" fill="#000000">message_id    </text>
<text text-anchor="start" x="439.6676" y="-1183.9" font-family="Arial" font-size="14.00" fill="#666666">[uuid]</text>
<polygon fill="none" stroke="#000000" points="323,-1142.5 323,-1172.5 624,-1172.5 624,-1142.5 323,-1142.5"/>
<text text-anchor="start" x="330" y="-1153.9" font-family="Arial" font-size="14.00" fill="#000000">chat_room_id    </text>
<text text-anchor="start" x="449.0014" y="-1153.9" font-family="Arial" font-size="14.00" fill="#666666">[uuid]</text>
<polygon fill="none" stroke="#000000" points="323,-1112.5 323,-1142.5 624,-1142.5 624,-1112.5 323,-1112.5"/>
<text text-anchor="start" x="330" y="-1123.9" font-family="Arial" font-size="14.00" fill="#000000">sender_id    </text>
<text text-anchor="start" x="425.6676" y="-1123.9" font-family="Arial" font-size="14.00" fill="#666666">[uuid]</text>
<polygon fill="none" stroke="#000000" points="323,-1082.5 323,-1112.5 624,-1112.5 624,-1082.5 323,-1082.5"/>
<text text-anchor="start" x="330" y="-1093.9" font-family="Arial" font-size="14.00" fill="#000000">body    </text>
<text text-anchor="start" x="394.5526" y="-1093.9" font-family="Arial" font-size="14.00" fill="#666666">[text]</text>
<polygon fill="none" stroke="#000000" points="323,-1052.5 323,-1082.5 624,-1082.5 624,-1052.5 323,-1052.5"/>
<text text-anchor="start" x="330" y="-1063.9" font-family="Arial" font-size="14.00" fill="#000000">posted_at    </text>
<text text-anchor="start" x="425.6816" y="-1063.9" font-family="Arial" font-size="14.00" fill="#666666">[timestamp with time zone]</text>
<polygon fill="none" stroke="#000000" points="323,-1022.5 323,-1052.5 624,-1052.5 624,-1022.5 323,-1022.5"/>
<text text-anchor="start" x="329.9825" y="-1033.9" font-family="Arial" font-size="14.00" fill="#000000">last_edited_at    </text>
<text text-anchor="start" x="451.3331" y="-1033.9" font-family="Arial" font-size="14.00" fill="#666666">[timestamp with time zone]</text>
</g>
<!-- public.t_messages&#45;&gt;public.m_chat_rooms -->
<g id="edge1" class="edge">
<title>public.t_messages:chat_room_id&#45;&gt;public.m_chat_rooms:chat_room_id</title>
<path fill="none" stroke="#000000" d="M634.3462,-1156.7834C699.4799,-1147.178 664.6772,-1043.238 624,-980 603.1262,-947.5489 565.8738,-976.4511 545,-944 514.5846,-896.7153 488.7778,-817.5 545,-817.5"/>
<polygon fill="#000000" stroke="#000000" points="633.9761,-1156.8089 623.689,-1153.0108 628.988,-1157.1545 624,-1157.5 624,-1157.5 624,-1157.5 628.988,-1157.1545 624.311,-1161.9892 633.9761,-1156.8089 633.9761,-1156.8089"/>
<text text-anchor="start" x="48.818" y="-1167.5" font-family="Arial" font-size="10.00" fill="#000000">FOREIGN KEY (chat_room_id) REFERENCES m_chat_rooms(chat_room_id) ON UPDATE CASCADE ON DELETE CASCADE</text>
</g>
<!-- public.m_chat_room_belongings -->
<g id="node3" class="node">
<title>public.m_chat_room_belongings</title>
<polygon fill="#efefef" stroke="transparent" points="728,-1187.5 728,-1222.5 1128,-1222.5 1128,-1187.5 728,-1187.5"/>
<polygon fill="none" stroke="#000000" points="728,-1187.5 728,-1222.5 1128,-1222.5 1128,-1187.5 728,-1187.5"/>
<text text-anchor="start" x="734.6844" y="-1200.3" font-family="Arial Bold" font-size="18.00" fill="#000000">public.m_chat_room_belongings</text>
<text text-anchor="start" x="993.7476" y="-1200.3" font-family="Arial" font-size="14.00" fill="#000000">    </text>
<text text-anchor="start" x="1027.9524" y="-1200.3" font-family="Arial" font-size="14.00" fill="#666666">[BASE TABLE]</text>
<polygon fill="none" stroke="#000000" points="728,-1157.5 728,-1187.5 1128,-1187.5 1128,-1157.5 728,-1157.5"/>
<text text-anchor="start" x="735" y="-1168.9" font-family="Arial" font-size="14.00" fill="#000000">m_chat_room_belongings_pkey    </text>
<text text-anchor="start" x="967.5946" y="-1168.9" font-family="Arial" font-size="14.00" fill="#666666">[bigint]</text>
<polygon fill="none" stroke="#000000" points="728,-1127.5 728,-1157.5 1128,-1157.5 1128,-1127.5 728,-1127.5"/>
<text text-anchor="start" x="735" y="-1138.9" font-family="Arial" font-size="14.00" fill="#000000">member_id    </text>
<text text-anchor="start" x="839.2062" y="-1138.9" font-family="Arial" font-size="14.00" fill="#666666">[uuid]</text>
<polygon fill="none" stroke="#000000" points="728,-1097.5 728,-1127.5 1128,-1127.5 1128,-1097.5 728,-1097.5"/>
<text text-anchor="start" x="735" y="-1108.9" font-family="Arial" font-size="14.00" fill="#000000">chat_room_id    </text>
<text text-anchor="start" x="854.0014" y="-1108.9" font-family="Arial" font-size="14.00" fill="#666666">[uuid]</text>
<polygon fill="none" stroke="#000000" points="728,-1067.5 728,-1097.5 1128,-1097.5 1128,-1067.5 728,-1067.5"/>
<text text-anchor="start" x="735" y="-1078.9" font-family="Arial" font-size="14.00" fill="#000000">added_at    </text>
<text text-anchor="start" x="827.5736" y="-1078.9" font-family="Arial" font-size="14.00" fill="#666666">[timestamp with time zone]</text>
</g>
<!-- public.m_chat_room_belongings&#45;&gt;public.m_chat_rooms -->
<g id="edge2" class="edge">
<title>public.m_chat_room_belongings:chat_room_id&#45;&gt;public.m_chat_rooms:chat_room_id</title>
<path fill="none" stroke="#000000" d="M717.9125,-1110.9219C693.1753,-1101.8401 711.0945,-1055.577 728,-1025 760.7564,-965.7536 824.2436,-1003.2464 857,-944 884.2034,-894.7972 913.2222,-817.5 857,-817.5"/>
<polygon fill="#000000" stroke="#000000" points="718.1202,-1110.9543 727.3044,-1116.9459 723.0601,-1111.7271 728,-1112.5 728,-1112.5 728,-1112.5 723.0601,-1111.7271 728.6956,-1108.0541 718.1202,-1110.9543 718.1202,-1110.9543"/>
<text text-anchor="start" x="734.818" y="-1122.5" font-family="Arial" font-size="10.00" fill="#000000">FOREIGN KEY (chat_room_id) REFERENCES m_chat_rooms(chat_room_id) ON UPDATE CASCADE ON DELETE CASCADE</text>
</g>
</g>
</svg>
