<?xml version="1.0" encoding="UTF-8" standalone="no"?>
<!DOCTYPE svg PUBLIC "-//W3C//DTD SVG 1.1//EN"
 "http://www.w3.org/Graphics/SVG/1.1/DTD/svg11.dtd">
<!-- Generated by graphviz version 2.40.1 (20161225.0304)
 -->
<!-- Title: public.t_absences Pages: 1 -->
<svg width="790pt" height="682pt"
 viewBox="0.00 0.00 790.00 682.00" xmlns="http://www.w3.org/2000/svg" xmlns:xlink="http://www.w3.org/1999/xlink">
<g id="graph0" class="graph" transform="scale(1 1) rotate(0) translate(4 678)">
<title>public.t_absences</title>
<polygon fill="#ffffff" stroke="transparent" points="-4,4 -4,-678 786,-678 786,4 -4,4"/>
<!-- public.t_absences -->
<g id="node1" class="node">
<title>public.t_absences</title>
<polygon fill="#efefef" stroke="transparent" points="53,-592.5 53,-627.5 338,-627.5 338,-592.5 53,-592.5"/>
<polygon fill="none" stroke="#000000" points="53,-592.5 53,-627.5 338,-627.5 338,-592.5 53,-592.5"/>
<text text-anchor="start" x="59.6917" y="-605.3" font-family="Arial Bold" font-size="18.00" fill="#000000">public.t_absences</text>
<text text-anchor="start" x="203.7403" y="-605.3" font-family="Arial" font-size="14.00" fill="#000000">    </text>
<text text-anchor="start" x="237.9451" y="-605.3" font-family="Arial" font-size="14.00" fill="#666666">[BASE TABLE]</text>
<polygon fill="none" stroke="#000000" points="53,-562.5 53,-592.5 338,-592.5 338,-562.5 53,-562.5"/>
<text text-anchor="start" x="60" y="-573.9" font-family="Arial" font-size="14.00" fill="#000000">t_absences_pkey </text>
<text text-anchor="start" x="172.8246" y="-573.9" font-family="Arial" font-size="14.00" fill="#666666">[bigint]</text>
<polygon fill="none" stroke="#000000" points="53,-532.5 53,-562.5 338,-562.5 338,-532.5 53,-532.5"/>
<text text-anchor="start" x="60" y="-543.9" font-family="Arial" font-size="14.00" fill="#000000">absence_id </text>
<text text-anchor="start" x="135.4754" y="-543.9" font-family="Arial" font-size="14.00" fill="#666666">[uuid]</text>
<polygon fill="none" stroke="#000000" points="53,-502.5 53,-532.5 338,-532.5 338,-502.5 53,-502.5"/>
<text text-anchor="start" x="60" y="-513.9" font-family="Arial" font-size="14.00" fill="#000000">attendance_id </text>
<text text-anchor="start" x="151.8218" y="-513.9" font-family="Arial" font-size="14.00" fill="#666666">[uuid]</text>
<polygon fill="none" stroke="#000000" stroke-width="3" points="51,-501.5 51,-629.5 339,-629.5 339,-501.5 51,-501.5"/>
</g>
<!-- public.t_attendances -->
<g id="node2" class="node">
<title>public.t_attendances</title>
<polygon fill="#efefef" stroke="transparent" points="43,-342.5 43,-377.5 349,-377.5 349,-342.5 43,-342.5"/>
<polygon fill="none" stroke="#000000" points="43,-342.5 43,-377.5 349,-377.5 349,-342.5 43,-342.5"/>
<text text-anchor="start" x="49.6833" y="-355.3" font-family="Arial Bold" font-size="18.00" fill="#000000">public.t_attendances</text>
<text text-anchor="start" x="214.7487" y="-355.3" font-family="Arial" font-size="14.00" fill="#000000">    </text>
<text text-anchor="start" x="248.9535" y="-355.3" font-family="Arial" font-size="14.00" fill="#666666">[BASE TABLE]</text>
<polygon fill="none" stroke="#000000" points="43,-312.5 43,-342.5 349,-342.5 349,-312.5 43,-312.5"/>
<text text-anchor="start" x="50" y="-323.9" font-family="Arial" font-size="14.00" fill="#000000">t_attendances_pkey    </text>
<text text-anchor="start" x="209.4852" y="-323.9" font-family="Arial" font-size="14.00" fill="#666666">[bigint]</text>
<polygon fill="none" stroke="#000000" points="43,-282.5 43,-312.5 349,-312.5 349,-282.5 43,-282.5"/>
<text text-anchor="start" x="50" y="-293.9" font-family="Arial" font-size="14.00" fill="#000000">attendance_id    </text>
<text text-anchor="start" x="172.136" y="-293.9" font-family="Arial" font-size="14.00" fill="#666666">[uuid]</text>
<polygon fill="none" stroke="#000000" points="43,-252.5 43,-282.5 349,-282.5 349,-252.5 43,-252.5"/>
<text text-anchor="start" x="50" y="-263.9" font-family="Arial" font-size="14.00" fill="#000000">attendance_type_id    </text>
<text text-anchor="start" x="206.3744" y="-263.9" font-family="Arial" font-size="14.00" fill="#666666">[uuid]</text>
<polygon fill="none" stroke="#000000" points="43,-222.5 43,-252.5 349,-252.5 349,-222.5 43,-222.5"/>
<text text-anchor="start" x="50" y="-233.9" font-family="Arial" font-size="14.00" fill="#000000">member_id    </text>
<text text-anchor="start" x="154.2062" y="-233.9" font-family="Arial" font-size="14.00" fill="#666666">[uuid]</text>
<polygon fill="none" stroke="#000000" points="43,-192.5 43,-222.5 349,-222.5 349,-192.5 43,-192.5"/>
<text text-anchor="start" x="50" y="-203.9" font-family="Arial" font-size="14.00" fill="#000000">description    </text>
<text text-anchor="start" x="151.8822" y="-203.9" font-family="Arial" font-size="14.00" fill="#666666">[text]</text>
<polygon fill="none" stroke="#000000" points="43,-162.5 43,-192.5 349,-192.5 349,-162.5 43,-162.5"/>
<text text-anchor="start" x="50" y="-173.9" font-family="Arial" font-size="14.00" fill="#000000">date    </text>
<text text-anchor="start" x="111.4432" y="-173.9" font-family="Arial" font-size="14.00" fill="#666666">[date]</text>
<polygon fill="none" stroke="#000000" points="43,-132.5 43,-162.5 349,-162.5 349,-132.5 43,-132.5"/>
<text text-anchor="start" x="50" y="-143.9" font-family="Arial" font-size="14.00" fill="#000000">mail_send_flag    </text>
<text text-anchor="start" x="178.3366" y="-143.9" font-family="Arial" font-size="14.00" fill="#666666">[boolean]</text>
<polygon fill="none" stroke="#000000" points="43,-102.5 43,-132.5 349,-132.5 349,-102.5 43,-102.5"/>
<text text-anchor="start" x="50" y="-113.9" font-family="Arial" font-size="14.00" fill="#000000">send_organization_id    </text>
<text text-anchor="start" x="217.2496" y="-113.9" font-family="Arial" font-size="14.00" fill="#666666">[uuid]</text>
<polygon fill="none" stroke="#000000" points="43,-72.5 43,-102.5 349,-102.5 349,-72.5 43,-72.5"/>
<text text-anchor="start" x="50" y="-83.9" font-family="Arial" font-size="14.00" fill="#000000">posted_at    </text>
<text text-anchor="start" x="145.6816" y="-83.9" font-family="Arial" font-size="14.00" fill="#666666">[timestamp with time zone]</text>
<polygon fill="none" stroke="#000000" points="43,-42.5 43,-72.5 349,-72.5 349,-42.5 43,-42.5"/>
<text text-anchor="start" x="50" y="-53.9" font-family="Arial" font-size="14.00" fill="#000000">last_edited_at    </text>
<text text-anchor="start" x="171.3506" y="-53.9" font-family="Arial" font-size="14.00" fill="#666666">[timestamp with time zone]</text>
</g>
<!-- public.t_absences&#45;&gt;public.t_attendances -->
<g id="edge1" class="edge">
<title>public.t_absences:attendance_id&#45;&gt;public.t_attendances:attendance_id</title>
<path fill="none" stroke="#000000" d="M195.2111,-492.1747C185.107,-431.1657 80.7202,-483.8307 43,-421 14.7479,-373.9404 -11.8889,-297.5 43,-297.5"/>
<polygon fill="#000000" stroke="#000000" points="195.2381,-492.5291 191.5131,-502.8429 195.619,-497.5145 196,-502.5 196,-502.5 196,-502.5 195.619,-497.5145 200.4869,-502.1571 195.2381,-492.5291 195.2381,-492.5291"/>
<text text-anchor="start" x="202.5755" y="-512.5" font-family="Arial" font-size="10.00" fill="#000000">FOREIGN KEY (attendance_id) REFERENCES t_attendances(attendance_id) ON UPDATE RESTRICT ON DELETE RESTRICT</text>
</g>
</g>
</svg>
