<?xml version="1.0" encoding="UTF-8" standalone="no"?>
<!DOCTYPE svg PUBLIC "-//W3C//DTD SVG 1.1//EN"
 "http://www.w3.org/Graphics/SVG/1.1/DTD/svg11.dtd">
<!-- Generated by graphviz version 2.40.1 (20161225.0304)
 -->
<!-- Title: public.m_permission_associations Pages: 1 -->
<svg width="1634pt" height="562pt"
 viewBox="0.00 0.00 1634.00 562.00" xmlns="http://www.w3.org/2000/svg" xmlns:xlink="http://www.w3.org/1999/xlink">
<g id="graph0" class="graph" transform="scale(1 1) rotate(0) translate(4 558)">
<title>public.m_permission_associations</title>
<polygon fill="#ffffff" stroke="transparent" points="-4,4 -4,-558 1630,-558 1630,4 -4,4"/>
<!-- public.m_permission_associations -->
<g id="node1" class="node">
<title>public.m_permission_associations</title>
<polygon fill="#efefef" stroke="transparent" points="585,-472.5 585,-507.5 999,-507.5 999,-472.5 585,-472.5"/>
<polygon fill="none" stroke="#000000" points="585,-472.5 585,-507.5 999,-507.5 999,-472.5 585,-472.5"/>
<text text-anchor="start" x="591.6995" y="-485.3" font-family="Arial Bold" font-size="18.00" fill="#000000">public.m_permission_associations</text>
<text text-anchor="start" x="864.7325" y="-485.3" font-family="Arial" font-size="14.00" fill="#000000">    </text>
<text text-anchor="start" x="898.9373" y="-485.3" font-family="Arial" font-size="14.00" fill="#666666">[BASE TABLE]</text>
<polygon fill="none" stroke="#000000" points="585,-442.5 585,-472.5 999,-472.5 999,-442.5 585,-442.5"/>
<text text-anchor="start" x="592" y="-453.9" font-family="Arial" font-size="14.00" fill="#000000">m_permission_associations_pkey </text>
<text text-anchor="start" x="805.1458" y="-453.9" font-family="Arial" font-size="14.00" fill="#666666">[bigint]</text>
<polygon fill="none" stroke="#000000" points="585,-412.5 585,-442.5 999,-442.5 999,-412.5 585,-412.5"/>
<text text-anchor="start" x="592" y="-423.9" font-family="Arial" font-size="14.00" fill="#000000">permission_id </text>
<text text-anchor="start" x="682.2272" y="-423.9" font-family="Arial" font-size="14.00" fill="#666666">[uuid]</text>
<polygon fill="none" stroke="#000000" points="585,-382.5 585,-412.5 999,-412.5 999,-382.5 585,-382.5"/>
<text text-anchor="start" x="592" y="-393.9" font-family="Arial" font-size="14.00" fill="#000000">work_position_id </text>
<text text-anchor="start" x="700.129" y="-393.9" font-family="Arial" font-size="14.00" fill="#666666">[uuid]</text>
<polygon fill="none" stroke="#000000" stroke-width="3" points="583.5,-381.5 583.5,-509.5 1000.5,-509.5 1000.5,-381.5 583.5,-381.5"/>
</g>
<!-- public.m_permissions -->
<g id="node2" class="node">
<title>public.m_permissions</title>
<polygon fill="#efefef" stroke="transparent" points="420,-222.5 420,-257.5 734,-257.5 734,-222.5 420,-222.5"/>
<polygon fill="none" stroke="#000000" points="420,-222.5 420,-257.5 734,-257.5 734,-222.5 420,-222.5"/>
<text text-anchor="start" x="426.7134" y="-235.3" font-family="Arial Bold" font-size="18.00" fill="#000000">public.m_permissions</text>
<text text-anchor="start" x="599.7186" y="-235.3" font-family="Arial" font-size="14.00" fill="#000000">    </text>
<text text-anchor="start" x="633.9234" y="-235.3" font-family="Arial" font-size="14.00" fill="#666666">[BASE TABLE]</text>
<polygon fill="none" stroke="#000000" points="420,-192.5 420,-222.5 734,-222.5 734,-192.5 420,-192.5"/>
<text text-anchor="start" x="427" y="-203.9" font-family="Arial" font-size="14.00" fill="#000000">m_permissions_pkey    </text>
<text text-anchor="start" x="592.6606" y="-203.9" font-family="Arial" font-size="14.00" fill="#666666">[bigint]</text>
<polygon fill="none" stroke="#000000" points="420,-162.5 420,-192.5 734,-192.5 734,-162.5 420,-162.5"/>
<text text-anchor="start" x="427" y="-173.9" font-family="Arial" font-size="14.00" fill="#000000">permission_id    </text>
<text text-anchor="start" x="547.5414" y="-173.9" font-family="Arial" font-size="14.00" fill="#666666">[uuid]</text>
<polygon fill="none" stroke="#000000" points="420,-132.5 420,-162.5 734,-162.5 734,-132.5 420,-132.5"/>
<text text-anchor="start" x="427" y="-143.9" font-family="Arial" font-size="14.00" fill="#000000">name    </text>
<text text-anchor="start" x="496.2132" y="-143.9" font-family="Arial" font-size="14.00" fill="#666666">[varchar(255)]</text>
<polygon fill="none" stroke="#000000" points="420,-102.5 420,-132.5 734,-132.5 734,-102.5 420,-102.5"/>
<text text-anchor="start" x="427" y="-113.9" font-family="Arial" font-size="14.00" fill="#000000">description    </text>
<text text-anchor="start" x="528.8822" y="-113.9" font-family="Arial" font-size="14.00" fill="#666666">[text]</text>
<polygon fill="none" stroke="#000000" points="420,-72.5 420,-102.5 734,-102.5 734,-72.5 420,-72.5"/>
<text text-anchor="start" x="427" y="-83.9" font-family="Arial" font-size="14.00" fill="#000000">key    </text>
<text text-anchor="start" x="482.9874" y="-83.9" font-family="Arial" font-size="14.00" fill="#666666">[varchar(255)]</text>
<polygon fill="none" stroke="#000000" points="420,-42.5 420,-72.5 734,-72.5 734,-42.5 420,-42.5"/>
<text text-anchor="start" x="427" y="-53.9" font-family="Arial" font-size="14.00" fill="#000000">permission_category_id    </text>
<text text-anchor="start" x="609.0056" y="-53.9" font-family="Arial" font-size="14.00" fill="#666666">[uuid]</text>
</g>
<!-- public.m_permission_associations&#45;&gt;public.m_permissions -->
<g id="edge1" class="edge">
<title>public.m_permission_associations:permission_id&#45;&gt;public.m_permissions:permission_id</title>
<path fill="none" stroke="#000000" d="M574.763,-425.8953C547.8655,-416.2574 562.5511,-365.5188 585,-337 627.1387,-283.4676 691.8613,-354.5324 734,-301 767.9502,-257.8702 788.8889,-177.5 734,-177.5"/>
<polygon fill="#000000" stroke="#000000" points="575.1206,-425.9512 584.3031,-431.9457 580.0603,-426.7256 585,-427.5 585,-427.5 585,-427.5 580.0603,-426.7256 585.6969,-423.0543 575.1206,-425.9512 575.1206,-425.9512"/>
<text text-anchor="start" x="7.168" y="-437.5" font-family="Arial" font-size="10.00" fill="#000000">FOREIGN KEY (permission_id) REFERENCES m_permissions(permission_id) ON UPDATE CASCADE ON DELETE CASCADE</text>
</g>
<!-- public.m_work_positions -->
<g id="node3" class="node">
<title>public.m_work_positions</title>
<polygon fill="#efefef" stroke="transparent" points="839,-222.5 839,-257.5 1176,-257.5 1176,-222.5 839,-222.5"/>
<polygon fill="none" stroke="#000000" points="839,-222.5 839,-257.5 1176,-257.5 1176,-222.5 839,-222.5"/>
<text text-anchor="start" x="845.7051" y="-235.3" font-family="Arial Bold" font-size="18.00" fill="#000000">public.m_work_positions</text>
<text text-anchor="start" x="1041.7269" y="-235.3" font-family="Arial" font-size="14.00" fill="#000000">    </text>
<text text-anchor="start" x="1075.9317" y="-235.3" font-family="Arial" font-size="14.00" fill="#666666">[BASE TABLE]</text>
<polygon fill="none" stroke="#000000" points="839,-192.5 839,-222.5 1176,-222.5 1176,-192.5 839,-192.5"/>
<text text-anchor="start" x="846" y="-203.9" font-family="Arial" font-size="14.00" fill="#000000">m_work_positions_pkey    </text>
<text text-anchor="start" x="1029.5624" y="-203.9" font-family="Arial" font-size="14.00" fill="#666666">[bigint]</text>
<polygon fill="none" stroke="#000000" points="839,-162.5 839,-192.5 1176,-192.5 1176,-162.5 839,-162.5"/>
<text text-anchor="start" x="846" y="-173.9" font-family="Arial" font-size="14.00" fill="#000000">work_position_id    </text>
<text text-anchor="start" x="984.4432" y="-173.9" font-family="Arial" font-size="14.00" fill="#666666">[uuid]</text>
<polygon fill="none" stroke="#000000" points="839,-132.5 839,-162.5 1176,-162.5 1176,-132.5 839,-132.5"/>
<text text-anchor="start" x="846" y="-143.9" font-family="Arial" font-size="14.00" fill="#000000">name    </text>
<text text-anchor="start" x="915.2132" y="-143.9" font-family="Arial" font-size="14.00" fill="#666666">[varchar(255)]</text>
<polygon fill="none" stroke="#000000" points="839,-102.5 839,-132.5 1176,-132.5 1176,-102.5 839,-102.5"/>
<text text-anchor="start" x="846" y="-113.9" font-family="Arial" font-size="14.00" fill="#000000">description    </text>
<text text-anchor="start" x="947.8822" y="-113.9" font-family="Arial" font-size="14.00" fill="#666666">[text]</text>
<polygon fill="none" stroke="#000000" points="839,-72.5 839,-102.5 1176,-102.5 1176,-72.5 839,-72.5"/>
<text text-anchor="start" x="846" y="-83.9" font-family="Arial" font-size="14.00" fill="#000000">created_at    </text>
<text text-anchor="start" x="946.3422" y="-83.9" font-family="Arial" font-size="14.00" fill="#666666">[timestamp with time zone]</text>
<polygon fill="none" stroke="#000000" points="839,-42.5 839,-72.5 1176,-72.5 1176,-42.5 839,-42.5"/>
<text text-anchor="start" x="846" y="-53.9" font-family="Arial" font-size="14.00" fill="#000000">updated_at    </text>
<text text-anchor="start" x="950.2468" y="-53.9" font-family="Arial" font-size="14.00" fill="#666666">[timestamp with time zone]</text>
</g>
<!-- public.m_permission_associations&#45;&gt;public.m_work_positions -->
<g id="edge2" class="edge">
<title>public.m_permission_associations:work_position_id&#45;&gt;public.m_work_positions:work_position_id</title>
<path fill="none" stroke="#000000" d="M1009.0111,-394.828C1022.5716,-385.607 1013.1728,-354.716 999,-337 953.4667,-280.0833 884.5333,-357.9167 839,-301 804.7112,-258.139 784.1111,-177.5 839,-177.5"/>
<polygon fill="#000000" stroke="#000000" points="1008.6618,-394.9212 997.8395,-393.1522 1003.8309,-396.2106 999,-397.5 999,-397.5 999,-397.5 1003.8309,-396.2106 1000.1605,-401.8478 1008.6618,-394.9212 1008.6618,-394.9212"/>
<text text-anchor="start" x="1006.3285" y="-407.5" font-family="Arial" font-size="10.00" fill="#000000">FOREIGN KEY (work_position_id) REFERENCES m_work_positions(work_position_id) ON UPDATE RESTRICT ON DELETE RESTRICT</text>
</g>
</g>
</svg>
