<?xml version="1.0" encoding="UTF-8" standalone="no"?>
<!DOCTYPE svg PUBLIC "-//W3C//DTD SVG 1.1//EN"
 "http://www.w3.org/Graphics/SVG/1.1/DTD/svg11.dtd">
<!-- Generated by graphviz version 2.40.1 (20161225.0304)
 -->
<!-- Title: public.t_attached_messages Pages: 1 -->
<svg width="1583pt" height="592pt"
 viewBox="0.00 0.00 1583.00 592.00" xmlns="http://www.w3.org/2000/svg" xmlns:xlink="http://www.w3.org/1999/xlink">
<g id="graph0" class="graph" transform="scale(1 1) rotate(0) translate(4 588)">
<title>public.t_attached_messages</title>
<polygon fill="#ffffff" stroke="transparent" points="-4,4 -4,-588 1579,-588 1579,4 -4,4"/>
<!-- public.t_attached_messages -->
<g id="node1" class="node">
<title>public.t_attached_messages</title>
<polygon fill="#efefef" stroke="transparent" points="556,-502.5 556,-537.5 925,-537.5 925,-502.5 556,-502.5"/>
<polygon fill="none" stroke="#000000" points="556,-502.5 556,-537.5 925,-537.5 925,-502.5 556,-502.5"/>
<text text-anchor="start" x="562.6779" y="-515.3" font-family="Arial Bold" font-size="18.00" fill="#000000">public.t_attached_messages</text>
<text text-anchor="start" x="790.7541" y="-515.3" font-family="Arial" font-size="14.00" fill="#000000">    </text>
<text text-anchor="start" x="824.9589" y="-515.3" font-family="Arial" font-size="14.00" fill="#666666">[BASE TABLE]</text>
<polygon fill="none" stroke="#000000" points="556,-472.5 556,-502.5 925,-502.5 925,-472.5 556,-472.5"/>
<text text-anchor="start" x="563" y="-483.9" font-family="Arial" font-size="14.00" fill="#000000">t_attached_messages_pkey </text>
<text text-anchor="start" x="741.1794" y="-483.9" font-family="Arial" font-size="14.00" fill="#666666">[bigint]</text>
<polygon fill="none" stroke="#000000" points="556,-442.5 556,-472.5 925,-472.5 925,-442.5 556,-442.5"/>
<text text-anchor="start" x="563" y="-453.9" font-family="Arial" font-size="14.00" fill="#000000">message_id </text>
<text text-anchor="start" x="642.3534" y="-453.9" font-family="Arial" font-size="14.00" fill="#666666">[uuid]</text>
<polygon fill="none" stroke="#000000" points="556,-412.5 556,-442.5 925,-442.5 925,-412.5 556,-412.5"/>
<text text-anchor="start" x="563" y="-423.9" font-family="Arial" font-size="14.00" fill="#000000">attachable_item_id </text>
<text text-anchor="start" x="684.3688" y="-423.9" font-family="Arial" font-size="14.00" fill="#666666">[uuid]</text>
<polygon fill="none" stroke="#000000" stroke-width="3" points="554,-411.5 554,-539.5 926,-539.5 926,-411.5 554,-411.5"/>
</g>
<!-- public.t_messages -->
<g id="node2" class="node">
<title>public.t_messages</title>
<polygon fill="#efefef" stroke="transparent" points="377,-252.5 377,-287.5 678,-287.5 678,-252.5 377,-252.5"/>
<polygon fill="none" stroke="#000000" points="377,-252.5 377,-287.5 678,-287.5 678,-252.5 377,-252.5"/>
<text text-anchor="start" x="389.1987" y="-265.3" font-family="Arial Bold" font-size="18.00" fill="#000000">public.t_messages</text>
<text text-anchor="start" x="538.2333" y="-265.3" font-family="Arial" font-size="14.00" fill="#000000">    </text>
<text text-anchor="start" x="572.4381" y="-265.3" font-family="Arial" font-size="14.00" fill="#666666">[BASE TABLE]</text>
<polygon fill="none" stroke="#000000" points="377,-222.5 377,-252.5 678,-252.5 678,-222.5 377,-222.5"/>
<text text-anchor="start" x="384" y="-233.9" font-family="Arial" font-size="14.00" fill="#000000">t_messages_pkey    </text>
<text text-anchor="start" x="531.0168" y="-233.9" font-family="Arial" font-size="14.00" fill="#666666">[bigint]</text>
<polygon fill="none" stroke="#000000" points="377,-192.5 377,-222.5 678,-222.5 678,-192.5 377,-192.5"/>
<text text-anchor="start" x="384" y="-203.9" font-family="Arial" font-size="14.00" fill="#000000">message_id    </text>
<text text-anchor="start" x="493.6676" y="-203.9" font-family="Arial" font-size="14.00" fill="#666666">[uuid]</text>
<polygon fill="none" stroke="#000000" points="377,-162.5 377,-192.5 678,-192.5 678,-162.5 377,-162.5"/>
<text text-anchor="start" x="384" y="-173.9" font-family="Arial" font-size="14.00" fill="#000000">chat_room_id    </text>
<text text-anchor="start" x="503.0014" y="-173.9" font-family="Arial" font-size="14.00" fill="#666666">[uuid]</text>
<polygon fill="none" stroke="#000000" points="377,-132.5 377,-162.5 678,-162.5 678,-132.5 377,-132.5"/>
<text text-anchor="start" x="384" y="-143.9" font-family="Arial" font-size="14.00" fill="#000000">sender_id    </text>
<text text-anchor="start" x="479.6676" y="-143.9" font-family="Arial" font-size="14.00" fill="#666666">[uuid]</text>
<polygon fill="none" stroke="#000000" points="377,-102.5 377,-132.5 678,-132.5 678,-102.5 377,-102.5"/>
<text text-anchor="start" x="384" y="-113.9" font-family="Arial" font-size="14.00" fill="#000000">body    </text>
<text text-anchor="start" x="448.5526" y="-113.9" font-family="Arial" font-size="14.00" fill="#666666">[text]</text>
<polygon fill="none" stroke="#000000" points="377,-72.5 377,-102.5 678,-102.5 678,-72.5 377,-72.5"/>
<text text-anchor="start" x="384" y="-83.9" font-family="Arial" font-size="14.00" fill="#000000">posted_at    </text>
<text text-anchor="start" x="479.6816" y="-83.9" font-family="Arial" font-size="14.00" fill="#666666">[timestamp with time zone]</text>
<polygon fill="none" stroke="#000000" points="377,-42.5 377,-72.5 678,-72.5 678,-42.5 377,-42.5"/>
<text text-anchor="start" x="383.9825" y="-53.9" font-family="Arial" font-size="14.00" fill="#000000">last_edited_at    </text>
<text text-anchor="start" x="505.3331" y="-53.9" font-family="Arial" font-size="14.00" fill="#666666">[timestamp with time zone]</text>
</g>
<!-- public.t_attached_messages&#45;&gt;public.t_messages -->
<g id="edge1" class="edge">
<title>public.t_attached_messages:message_id&#45;&gt;public.t_messages:message_id</title>
<path fill="none" stroke="#000000" d="M545.7836,-455.911C519.0058,-446.365 534.2691,-396.0696 556,-367 589.849,-321.7198 644.151,-376.2802 678,-331 710.8643,-287.0372 732.8889,-207.5 678,-207.5"/>
<polygon fill="#000000" stroke="#000000" points="546.1188,-455.9631 555.3084,-461.9465 551.0594,-456.7315 556,-457.5 556,-457.5 556,-457.5 551.0594,-456.7315 556.6916,-453.0535 546.1188,-455.9631 546.1188,-455.9631"/>
<text text-anchor="start" x="6.5935" y="-467.5" font-family="Arial" font-size="10.00" fill="#000000">FOREIGN KEY (message_id) REFERENCES t_messages(message_id) ON UPDATE CASCADE ON DELETE CASCADE</text>
</g>
<!-- public.t_attachable_items -->
<g id="node3" class="node">
<title>public.t_attachable_items</title>
<polygon fill="#efefef" stroke="transparent" points="782,-222.5 782,-257.5 1126,-257.5 1126,-222.5 782,-222.5"/>
<polygon fill="none" stroke="#000000" points="782,-222.5 782,-257.5 1126,-257.5 1126,-222.5 782,-222.5"/>
<text text-anchor="start" x="788.6888" y="-235.3" font-family="Arial Bold" font-size="18.00" fill="#000000">public.t_attachable_items</text>
<text text-anchor="start" x="991.7432" y="-235.3" font-family="Arial" font-size="14.00" fill="#000000">    </text>
<text text-anchor="start" x="1025.948" y="-235.3" font-family="Arial" font-size="14.00" fill="#666666">[BASE TABLE]</text>
<polygon fill="none" stroke="#000000" points="782,-192.5 782,-222.5 1126,-222.5 1126,-192.5 782,-192.5"/>
<text text-anchor="start" x="789" y="-203.9" font-family="Arial" font-size="14.00" fill="#000000">t_attachable_items_pkey    </text>
<text text-anchor="start" x="978.0322" y="-203.9" font-family="Arial" font-size="14.00" fill="#666666">[bigint]</text>
<polygon fill="none" stroke="#000000" points="782,-162.5 782,-192.5 1126,-192.5 1126,-162.5 782,-162.5"/>
<text text-anchor="start" x="789" y="-173.9" font-family="Arial" font-size="14.00" fill="#000000">attachable_item_id    </text>
<text text-anchor="start" x="940.683" y="-173.9" font-family="Arial" font-size="14.00" fill="#666666">[uuid]</text>
<polygon fill="none" stroke="#000000" points="782,-132.5 782,-162.5 1126,-162.5 1126,-132.5 782,-132.5"/>
<text text-anchor="start" x="789" y="-143.9" font-family="Arial" font-size="14.00" fill="#000000">url    </text>
<text text-anchor="start" x="838.7546" y="-143.9" font-family="Arial" font-size="14.00" fill="#666666">[text]</text>
<polygon fill="none" stroke="#000000" points="782,-102.5 782,-132.5 1126,-132.5 1126,-102.5 782,-102.5"/>
<text text-anchor="start" x="789" y="-113.9" font-family="Arial" font-size="14.00" fill="#000000">size    </text>
<text text-anchor="start" x="848.094" y="-113.9" font-family="Arial" font-size="14.00" fill="#666666">[double precision]</text>
<polygon fill="none" stroke="#000000" points="782,-72.5 782,-102.5 1126,-102.5 1126,-72.5 782,-72.5"/>
<text text-anchor="start" x="789" y="-83.9" font-family="Arial" font-size="14.00" fill="#000000">mime_type_id    </text>
<text text-anchor="start" x="910.3254" y="-83.9" font-family="Arial" font-size="14.00" fill="#666666">[uuid]</text>
</g>
<!-- public.t_attached_messages&#45;&gt;public.t_attachable_items -->
<g id="edge2" class="edge">
<title>public.t_attached_messages:attachable_item_id&#45;&gt;public.t_attachable_items:attachable_item_id</title>
<path fill="none" stroke="#000000" d="M934.8687,-424.9301C947.9637,-416.0428 937.2275,-386.1105 925,-367 887.2742,-308.038 819.7258,-359.962 782,-301 752.4174,-254.7651 727.1111,-177.5 782,-177.5"/>
<polygon fill="#000000" stroke="#000000" points="934.6773,-424.9799 923.8659,-423.1452 929.8386,-426.2399 925,-427.5 925,-427.5 925,-427.5 929.8386,-426.2399 926.1341,-431.8548 934.6773,-424.9799 934.6773,-424.9799"/>
<text text-anchor="start" x="931.918" y="-437.5" font-family="Arial" font-size="10.00" fill="#000000">FOREIGN KEY (attachable_item_id) REFERENCES t_attachable_items(attachable_item_id) ON UPDATE RESTRICT ON DELETE RESTRICT</text>
</g>
</g>
</svg>
