<?xml version="1.0" encoding="UTF-8" standalone="no"?>
<!DOCTYPE svg PUBLIC "-//W3C//DTD SVG 1.1//EN"
 "http://www.w3.org/Graphics/SVG/1.1/DTD/svg11.dtd">
<!-- Generated by graphviz version 2.40.1 (20161225.0304)
 -->
<!-- Title: public.t_chat_room_removed_members Pages: 1 -->
<svg width="1931pt" height="862pt"
 viewBox="0.00 0.00 1931.00 862.00" xmlns="http://www.w3.org/2000/svg" xmlns:xlink="http://www.w3.org/1999/xlink">
<g id="graph0" class="graph" transform="scale(1 1) rotate(0) translate(4 858)">
<title>public.t_chat_room_removed_members</title>
<polygon fill="#ffffff" stroke="transparent" points="-4,4 -4,-858 1927,-858 1927,4 -4,4"/>
<!-- public.t_chat_room_removed_members -->
<g id="node1" class="node">
<title>public.t_chat_room_removed_members</title>
<polygon fill="#efefef" stroke="transparent" points="916,-772.5 916,-807.5 1374,-807.5 1374,-772.5 916,-772.5"/>
<polygon fill="none" stroke="#000000" points="916,-772.5 916,-807.5 1374,-807.5 1374,-772.5 916,-772.5"/>
<text text-anchor="start" x="922.69" y="-785.3" font-family="Arial Bold" font-size="18.00" fill="#000000">public.t_chat_room_removed_members</text>
<text text-anchor="start" x="1239.742" y="-785.3" font-family="Arial" font-size="14.00" fill="#000000">    </text>
<text text-anchor="start" x="1273.9468" y="-785.3" font-family="Arial" font-size="14.00" fill="#666666">[BASE TABLE]</text>
<polygon fill="none" stroke="#000000" points="916,-742.5 916,-772.5 1374,-772.5 1374,-742.5 916,-742.5"/>
<text text-anchor="start" x="923" y="-753.9" font-family="Arial" font-size="14.00" fill="#000000">t_chat_room_removed_members_pkey </text>
<text text-anchor="start" x="1170.3828" y="-753.9" font-family="Arial" font-size="14.00" fill="#666666">[bigint]</text>
<polygon fill="none" stroke="#000000" points="916,-712.5 916,-742.5 1374,-742.5 1374,-712.5 916,-712.5"/>
<text text-anchor="start" x="923" y="-723.9" font-family="Arial" font-size="14.00" fill="#000000">chat_room_remove_member_action_id </text>
<text text-anchor="start" x="1170.3786" y="-723.9" font-family="Arial" font-size="14.00" fill="#666666">[uuid]</text>
<polygon fill="none" stroke="#000000" points="916,-682.5 916,-712.5 1374,-712.5 1374,-682.5 916,-682.5"/>
<text text-anchor="start" x="923" y="-693.9" font-family="Arial" font-size="14.00" fill="#000000">member_id </text>
<text text-anchor="start" x="996.892" y="-693.9" font-family="Arial" font-size="14.00" fill="#666666">[uuid]</text>
<polygon fill="none" stroke="#000000" stroke-width="3" points="914.5,-681.5 914.5,-809.5 1375.5,-809.5 1375.5,-681.5 914.5,-681.5"/>
</g>
<!-- public.t_chat_room_remove_member_actions -->
<g id="node2" class="node">
<title>public.t_chat_room_remove_member_actions</title>
<polygon fill="#efefef" stroke="transparent" points="640,-342.5 640,-377.5 1146,-377.5 1146,-342.5 640,-342.5"/>
<polygon fill="none" stroke="#000000" points="640,-342.5 640,-377.5 1146,-377.5 1146,-342.5 640,-342.5"/>
<text text-anchor="start" x="646.6825" y="-355.3" font-family="Arial Bold" font-size="18.00" fill="#000000">public.t_chat_room_remove_member_actions</text>
<text text-anchor="start" x="1011.7495" y="-355.3" font-family="Arial" font-size="14.00" fill="#000000">    </text>
<text text-anchor="start" x="1045.9543" y="-355.3" font-family="Arial" font-size="14.00" fill="#666666">[BASE TABLE]</text>
<polygon fill="none" stroke="#000000" points="640,-312.5 640,-342.5 1146,-342.5 1146,-312.5 640,-312.5"/>
<text text-anchor="start" x="647" y="-323.9" font-family="Arial" font-size="14.00" fill="#000000">t_chat_room_remove_member_actions_pkey    </text>
<text text-anchor="start" x="962.042" y="-323.9" font-family="Arial" font-size="14.00" fill="#666666">[bigint]</text>
<polygon fill="none" stroke="#000000" points="640,-282.5 640,-312.5 1146,-312.5 1146,-282.5 640,-282.5"/>
<text text-anchor="start" x="647" y="-293.9" font-family="Arial" font-size="14.00" fill="#000000">chat_room_remove_member_action_id    </text>
<text text-anchor="start" x="924.6928" y="-293.9" font-family="Arial" font-size="14.00" fill="#666666">[uuid]</text>
<polygon fill="none" stroke="#000000" points="640,-252.5 640,-282.5 1146,-282.5 1146,-252.5 640,-252.5"/>
<text text-anchor="start" x="647" y="-263.9" font-family="Arial" font-size="14.00" fill="#000000">chat_room_action_id    </text>
<text text-anchor="start" x="811.129" y="-263.9" font-family="Arial" font-size="14.00" fill="#666666">[uuid]</text>
<polygon fill="none" stroke="#000000" points="640,-222.5 640,-252.5 1146,-252.5 1146,-222.5 640,-222.5"/>
<text text-anchor="start" x="647" y="-233.9" font-family="Arial" font-size="14.00" fill="#000000">removed_by    </text>
<text text-anchor="start" x="758.2216" y="-233.9" font-family="Arial" font-size="14.00" fill="#666666">[uuid]</text>
</g>
<!-- public.t_chat_room_removed_members&#45;&gt;public.t_chat_room_remove_member_actions -->
<g id="edge1" class="edge">
<title>public.t_chat_room_removed_members:chat_room_remove_member_action_id&#45;&gt;public.t_chat_room_remove_member_actions:chat_room_remove_member_action_id</title>
<path fill="none" stroke="#000000" d="M905.9929,-726.0323C880.4349,-717.1931 901.5864,-670.3095 916,-637 971.691,-508.2992 1090.309,-549.7008 1146,-421 1167.7981,-370.6251 1200.8889,-297.5 1146,-297.5"/>
<polygon fill="#000000" stroke="#000000" points="906.1058,-726.0488 915.347,-731.9524 911.0529,-726.7744 916,-727.5 916,-727.5 916,-727.5 911.0529,-726.7744 916.653,-723.0476 906.1058,-726.0488 906.1058,-726.0488"/>
<text text-anchor="start" x="6.5665" y="-737.5" font-family="Arial" font-size="10.00" fill="#000000">FOREIGN KEY (chat_room_remove_member_action_id) REFERENCES t_chat_room_remove_member_actions(chat_room_remove_member_action_id) ON UPDATE CASCADE ON DELETE CASCADE</text>
</g>
<!-- public.m_members -->
<g id="node3" class="node">
<title>public.m_members</title>
<polygon fill="#efefef" stroke="transparent" points="1251,-522.5 1251,-557.5 1544,-557.5 1544,-522.5 1251,-522.5"/>
<polygon fill="none" stroke="#000000" points="1251,-522.5 1251,-557.5 1544,-557.5 1544,-522.5 1251,-522.5"/>
<text text-anchor="start" x="1257.7146" y="-535.3" font-family="Arial Bold" font-size="18.00" fill="#000000">public.m_members</text>
<text text-anchor="start" x="1409.7174" y="-535.3" font-family="Arial" font-size="14.00" fill="#000000">    </text>
<text text-anchor="start" x="1443.9222" y="-535.3" font-family="Arial" font-size="14.00" fill="#666666">[BASE TABLE]</text>
<polygon fill="none" stroke="#000000" points="1251,-492.5 1251,-522.5 1544,-522.5 1544,-492.5 1251,-492.5"/>
<text text-anchor="start" x="1258" y="-503.9" font-family="Arial" font-size="14.00" fill="#000000">m_members_pkey    </text>
<text text-anchor="start" x="1407.3254" y="-503.9" font-family="Arial" font-size="14.00" fill="#666666">[bigint]</text>
<polygon fill="none" stroke="#000000" points="1251,-462.5 1251,-492.5 1544,-492.5 1544,-462.5 1251,-462.5"/>
<text text-anchor="start" x="1258" y="-473.9" font-family="Arial" font-size="14.00" fill="#000000">member_id    </text>
<text text-anchor="start" x="1362.2062" y="-473.9" font-family="Arial" font-size="14.00" fill="#666666">[uuid]</text>
<polygon fill="none" stroke="#000000" points="1251,-432.5 1251,-462.5 1544,-462.5 1544,-432.5 1251,-432.5"/>
<text text-anchor="start" x="1258" y="-443.9" font-family="Arial" font-size="14.00" fill="#000000">login_id    </text>
<text text-anchor="start" x="1340.4376" y="-443.9" font-family="Arial" font-size="14.00" fill="#666666">[varchar(255)]</text>
<polygon fill="none" stroke="#000000" points="1251,-402.5 1251,-432.5 1544,-432.5 1544,-402.5 1251,-402.5"/>
<text text-anchor="start" x="1258" y="-413.9" font-family="Arial" font-size="14.00" fill="#000000">password    </text>
<text text-anchor="start" x="1352.1024" y="-413.9" font-family="Arial" font-size="14.00" fill="#666666">[varchar(255)]</text>
<polygon fill="none" stroke="#000000" points="1251,-372.5 1251,-402.5 1544,-402.5 1544,-372.5 1251,-372.5"/>
<text text-anchor="start" x="1258" y="-383.9" font-family="Arial" font-size="14.00" fill="#000000">email    </text>
<text text-anchor="start" x="1325.6438" y="-383.9" font-family="Arial" font-size="14.00" fill="#666666">[varchar(255)]</text>
<polygon fill="none" stroke="#000000" points="1251,-342.5 1251,-372.5 1544,-372.5 1544,-342.5 1251,-342.5"/>
<text text-anchor="start" x="1258" y="-353.9" font-family="Arial" font-size="14.00" fill="#000000">name    </text>
<text text-anchor="start" x="1327.2132" y="-353.9" font-family="Arial" font-size="14.00" fill="#666666">[varchar(255)]</text>
<polygon fill="none" stroke="#000000" points="1251,-312.5 1251,-342.5 1544,-342.5 1544,-312.5 1251,-312.5"/>
<text text-anchor="start" x="1258" y="-323.9" font-family="Arial" font-size="14.00" fill="#000000">first_name    </text>
<text text-anchor="start" x="1357.5442" y="-323.9" font-family="Arial" font-size="14.00" fill="#666666">[varchar(255)]</text>
<polygon fill="none" stroke="#000000" points="1251,-282.5 1251,-312.5 1544,-312.5 1544,-282.5 1251,-282.5"/>
<text text-anchor="start" x="1258" y="-293.9" font-family="Arial" font-size="14.00" fill="#000000">last_name    </text>
<text text-anchor="start" x="1356.7756" y="-293.9" font-family="Arial" font-size="14.00" fill="#666666">[varchar(255)]</text>
<polygon fill="none" stroke="#000000" points="1251,-252.5 1251,-282.5 1544,-282.5 1544,-252.5 1251,-252.5"/>
<text text-anchor="start" x="1258" y="-263.9" font-family="Arial" font-size="14.00" fill="#000000">attend_status_id    </text>
<text text-anchor="start" x="1394.9172" y="-263.9" font-family="Arial" font-size="14.00" fill="#666666">[uuid]</text>
<polygon fill="none" stroke="#000000" points="1251,-222.5 1251,-252.5 1544,-252.5 1544,-222.5 1251,-222.5"/>
<text text-anchor="start" x="1258" y="-233.9" font-family="Arial" font-size="14.00" fill="#000000">profile_image_id    </text>
<text text-anchor="start" x="1394.8864" y="-233.9" font-family="Arial" font-size="14.00" fill="#666666">[uuid]</text>
<polygon fill="none" stroke="#000000" points="1251,-192.5 1251,-222.5 1544,-222.5 1544,-192.5 1251,-192.5"/>
<text text-anchor="start" x="1258" y="-203.9" font-family="Arial" font-size="14.00" fill="#000000">grade_id    </text>
<text text-anchor="start" x="1346.6676" y="-203.9" font-family="Arial" font-size="14.00" fill="#666666">[uuid]</text>
<polygon fill="none" stroke="#000000" points="1251,-162.5 1251,-192.5 1544,-192.5 1544,-162.5 1251,-162.5"/>
<text text-anchor="start" x="1258" y="-173.9" font-family="Arial" font-size="14.00" fill="#000000">group_id    </text>
<text text-anchor="start" x="1346.6676" y="-173.9" font-family="Arial" font-size="14.00" fill="#666666">[uuid]</text>
<polygon fill="none" stroke="#000000" points="1251,-132.5 1251,-162.5 1544,-162.5 1544,-132.5 1251,-132.5"/>
<text text-anchor="start" x="1258" y="-143.9" font-family="Arial" font-size="14.00" fill="#000000">personal_organization_id    </text>
<text text-anchor="start" x="1448.582" y="-143.9" font-family="Arial" font-size="14.00" fill="#666666">[uuid]</text>
<polygon fill="none" stroke="#000000" points="1251,-102.5 1251,-132.5 1544,-132.5 1544,-102.5 1251,-102.5"/>
<text text-anchor="start" x="1258" y="-113.9" font-family="Arial" font-size="14.00" fill="#000000">role_id    </text>
<text text-anchor="start" x="1334.209" y="-113.9" font-family="Arial" font-size="14.00" fill="#666666">[uuid]</text>
<polygon fill="none" stroke="#000000" points="1251,-72.5 1251,-102.5 1544,-102.5 1544,-72.5 1251,-72.5"/>
<text text-anchor="start" x="1258" y="-83.9" font-family="Arial" font-size="14.00" fill="#000000">created_at    </text>
<text text-anchor="start" x="1358.3422" y="-83.9" font-family="Arial" font-size="14.00" fill="#666666">[timestamp with time zone]</text>
<polygon fill="none" stroke="#000000" points="1251,-42.5 1251,-72.5 1544,-72.5 1544,-42.5 1251,-42.5"/>
<text text-anchor="start" x="1258" y="-53.9" font-family="Arial" font-size="14.00" fill="#000000">updated_at    </text>
<text text-anchor="start" x="1362.2468" y="-53.9" font-family="Arial" font-size="14.00" fill="#666666">[timestamp with time zone]</text>
</g>
<!-- public.t_chat_room_removed_members&#45;&gt;public.m_members -->
<g id="edge2" class="edge">
<title>public.t_chat_room_removed_members:member_id&#45;&gt;public.m_members:member_id</title>
<path fill="none" stroke="#000000" d="M1383.9695,-694.8602C1397.3938,-685.7447 1387.604,-655.1564 1374,-637 1339.8453,-591.416 1285.1547,-646.584 1251,-601 1218.0872,-557.0735 1196.1111,-477.5 1251,-477.5"/>
<polygon fill="#000000" stroke="#000000" points="1383.6669,-694.9403 1372.8481,-693.1499 1378.8334,-696.2201 1374,-697.5 1374,-697.5 1374,-697.5 1378.8334,-696.2201 1375.1519,-701.8501 1383.6669,-694.9403 1383.6669,-694.9403"/>
<text text-anchor="start" x="1381.221" y="-707.5" font-family="Arial" font-size="10.00" fill="#000000">FOREIGN KEY (member_id) REFERENCES m_members(member_id) ON UPDATE SET NULL ON DELETE SET NULL</text>
</g>
</g>
</svg>
