<?xml version="1.0" encoding="UTF-8" standalone="no"?>
<!DOCTYPE svg PUBLIC "-//W3C//DTD SVG 1.1//EN"
 "http://www.w3.org/Graphics/SVG/1.1/DTD/svg11.dtd">
<!-- Generated by graphviz version 2.40.1 (20161225.0304)
 -->
<!-- Title: public.t_chat_room_add_member_actions Pages: 1 -->
<svg width="2007pt" height="1139pt"
 viewBox="0.00 0.00 2007.00 1139.00" xmlns="http://www.w3.org/2000/svg" xmlns:xlink="http://www.w3.org/1999/xlink">
<g id="graph0" class="graph" transform="scale(1 1) rotate(0) translate(4 1135)">
<title>public.t_chat_room_add_member_actions</title>
<polygon fill="#ffffff" stroke="transparent" points="-4,4 -4,-1135 2003,-1135 2003,4 -4,4"/>
<!-- public.t_chat_room_add_member_actions -->
<g id="node1" class="node">
<title>public.t_chat_room_add_member_actions</title>
<polygon fill="#efefef" stroke="transparent" points="676,-802.5 676,-837.5 1152,-837.5 1152,-802.5 676,-802.5"/>
<polygon fill="none" stroke="#000000" points="676,-802.5 676,-837.5 1152,-837.5 1152,-802.5 676,-802.5"/>
<text text-anchor="start" x="682.6747" y="-815.3" font-family="Arial Bold" font-size="18.00" fill="#000000">public.t_chat_room_add_member_actions</text>
<text text-anchor="start" x="1017.7573" y="-815.3" font-family="Arial" font-size="14.00" fill="#000000">    </text>
<text text-anchor="start" x="1051.9621" y="-815.3" font-family="Arial" font-size="14.00" fill="#666666">[BASE TABLE]</text>
<polygon fill="none" stroke="#000000" points="676,-772.5 676,-802.5 1152,-802.5 1152,-772.5 676,-772.5"/>
<text text-anchor="start" x="683" y="-783.9" font-family="Arial" font-size="14.00" fill="#000000">t_chat_room_add_member_actions_pkey </text>
<text text-anchor="start" x="944.4066" y="-783.9" font-family="Arial" font-size="14.00" fill="#666666">[bigint]</text>
<polygon fill="none" stroke="#000000" points="676,-742.5 676,-772.5 1152,-772.5 1152,-742.5 676,-742.5"/>
<text text-anchor="start" x="683" y="-753.9" font-family="Arial" font-size="14.00" fill="#000000">chat_room_add_member_action_id </text>
<text text-anchor="start" x="907.0574" y="-753.9" font-family="Arial" font-size="14.00" fill="#666666">[uuid]</text>
<polygon fill="none" stroke="#000000" points="676,-712.5 676,-742.5 1152,-742.5 1152,-712.5 676,-712.5"/>
<text text-anchor="start" x="683" y="-723.9" font-family="Arial" font-size="14.00" fill="#000000">chat_room_action_id </text>
<text text-anchor="start" x="816.8148" y="-723.9" font-family="Arial" font-size="14.00" fill="#666666">[uuid]</text>
<polygon fill="none" stroke="#000000" points="676,-682.5 676,-712.5 1152,-712.5 1152,-682.5 676,-682.5"/>
<text text-anchor="start" x="683" y="-693.9" font-family="Arial" font-size="14.00" fill="#000000">added_by </text>
<text text-anchor="start" x="748.3688" y="-693.9" font-family="Arial" font-size="14.00" fill="#666666">[uuid]</text>
<polygon fill="none" stroke="#000000" stroke-width="3" points="674.5,-681.5 674.5,-839.5 1153.5,-839.5 1153.5,-681.5 674.5,-681.5"/>
</g>
<!-- public.t_chat_room_actions -->
<g id="node3" class="node">
<title>public.t_chat_room_actions</title>
<polygon fill="#efefef" stroke="transparent" points="518,-342.5 518,-377.5 878,-377.5 878,-342.5 518,-342.5"/>
<polygon fill="none" stroke="#000000" points="518,-342.5 518,-377.5 878,-377.5 878,-342.5 518,-342.5"/>
<text text-anchor="start" x="524.6878" y="-355.3" font-family="Arial Bold" font-size="18.00" fill="#000000">public.t_chat_room_actions</text>
<text text-anchor="start" x="743.7442" y="-355.3" font-family="Arial" font-size="14.00" fill="#000000">    </text>
<text text-anchor="start" x="777.949" y="-355.3" font-family="Arial" font-size="14.00" fill="#666666">[BASE TABLE]</text>
<polygon fill="none" stroke="#000000" points="518,-312.5 518,-342.5 878,-342.5 878,-312.5 518,-312.5"/>
<text text-anchor="start" x="525" y="-323.9" font-family="Arial" font-size="14.00" fill="#000000">t_chat_room_actions_pkey    </text>
<text text-anchor="start" x="726.4782" y="-323.9" font-family="Arial" font-size="14.00" fill="#666666">[bigint]</text>
<polygon fill="none" stroke="#000000" points="518,-282.5 518,-312.5 878,-312.5 878,-282.5 518,-282.5"/>
<text text-anchor="start" x="525" y="-293.9" font-family="Arial" font-size="14.00" fill="#000000">chat_room_action_id    </text>
<text text-anchor="start" x="689.129" y="-293.9" font-family="Arial" font-size="14.00" fill="#666666">[uuid]</text>
<polygon fill="none" stroke="#000000" points="518,-252.5 518,-282.5 878,-282.5 878,-252.5 518,-252.5"/>
<text text-anchor="start" x="525" y="-263.9" font-family="Arial" font-size="14.00" fill="#000000">chat_room_action_type_id    </text>
<text text-anchor="start" x="723.3674" y="-263.9" font-family="Arial" font-size="14.00" fill="#666666">[uuid]</text>
<polygon fill="none" stroke="#000000" points="518,-222.5 518,-252.5 878,-252.5 878,-222.5 518,-222.5"/>
<text text-anchor="start" x="525" y="-233.9" font-family="Arial" font-size="14.00" fill="#000000">acted_at    </text>
<text text-anchor="start" x="612.899" y="-233.9" font-family="Arial" font-size="14.00" fill="#666666">[timestamp with time zone]</text>
</g>
<!-- public.t_chat_room_add_member_actions&#45;&gt;public.t_chat_room_actions -->
<g id="edge2" class="edge">
<title>public.t_chat_room_add_member_actions:chat_room_action_id&#45;&gt;public.t_chat_room_actions:chat_room_action_id</title>
<path fill="none" stroke="#000000" d="M666.024,-726.0452C640.6474,-717.2809 662.674,-670.7593 676,-637 724.2595,-514.7418 829.7405,-543.2582 878,-421 898.1533,-369.9448 932.8889,-297.5 878,-297.5"/>
<polygon fill="#000000" stroke="#000000" points="666.1047,-726.0569 675.3506,-731.9529 671.0523,-726.7784 676,-727.5 676,-727.5 676,-727.5 671.0523,-726.7784 676.6494,-723.0471 666.1047,-726.0569 666.1047,-726.0569"/>
<text text-anchor="start" x="6.583" y="-737.5" font-family="Arial" font-size="10.00" fill="#000000">FOREIGN KEY (chat_room_action_id) REFERENCES t_chat_room_actions(chat_room_action_id) ON UPDATE RESTRICT ON DELETE RESTRICT</text>
</g>
<!-- public.m_members -->
<g id="node4" class="node">
<title>public.m_members</title>
<polygon fill="#efefef" stroke="transparent" points="983,-522.5 983,-557.5 1276,-557.5 1276,-522.5 983,-522.5"/>
<polygon fill="none" stroke="#000000" points="983,-522.5 983,-557.5 1276,-557.5 1276,-522.5 983,-522.5"/>
<text text-anchor="start" x="989.7146" y="-535.3" font-family="Arial Bold" font-size="18.00" fill="#000000">public.m_members</text>
<text text-anchor="start" x="1141.7174" y="-535.3" font-family="Arial" font-size="14.00" fill="#000000">    </text>
<text text-anchor="start" x="1175.9222" y="-535.3" font-family="Arial" font-size="14.00" fill="#666666">[BASE TABLE]</text>
<polygon fill="none" stroke="#000000" points="983,-492.5 983,-522.5 1276,-522.5 1276,-492.5 983,-492.5"/>
<text text-anchor="start" x="990" y="-503.9" font-family="Arial" font-size="14.00" fill="#000000">m_members_pkey    </text>
<text text-anchor="start" x="1139.3254" y="-503.9" font-family="Arial" font-size="14.00" fill="#666666">[bigint]</text>
<polygon fill="none" stroke="#000000" points="983,-462.5 983,-492.5 1276,-492.5 1276,-462.5 983,-462.5"/>
<text text-anchor="start" x="990" y="-473.9" font-family="Arial" font-size="14.00" fill="#000000">member_id    </text>
<text text-anchor="start" x="1094.2062" y="-473.9" font-family="Arial" font-size="14.00" fill="#666666">[uuid]</text>
<polygon fill="none" stroke="#000000" points="983,-432.5 983,-462.5 1276,-462.5 1276,-432.5 983,-432.5"/>
<text text-anchor="start" x="990" y="-443.9" font-family="Arial" font-size="14.00" fill="#000000">login_id    </text>
<text text-anchor="start" x="1072.4376" y="-443.9" font-family="Arial" font-size="14.00" fill="#666666">[varchar(255)]</text>
<polygon fill="none" stroke="#000000" points="983,-402.5 983,-432.5 1276,-432.5 1276,-402.5 983,-402.5"/>
<text text-anchor="start" x="990" y="-413.9" font-family="Arial" font-size="14.00" fill="#000000">password    </text>
<text text-anchor="start" x="1084.1024" y="-413.9" font-family="Arial" font-size="14.00" fill="#666666">[varchar(255)]</text>
<polygon fill="none" stroke="#000000" points="983,-372.5 983,-402.5 1276,-402.5 1276,-372.5 983,-372.5"/>
<text text-anchor="start" x="990" y="-383.9" font-family="Arial" font-size="14.00" fill="#000000">email    </text>
<text text-anchor="start" x="1057.6438" y="-383.9" font-family="Arial" font-size="14.00" fill="#666666">[varchar(255)]</text>
<polygon fill="none" stroke="#000000" points="983,-342.5 983,-372.5 1276,-372.5 1276,-342.5 983,-342.5"/>
<text text-anchor="start" x="990" y="-353.9" font-family="Arial" font-size="14.00" fill="#000000">name    </text>
<text text-anchor="start" x="1059.2132" y="-353.9" font-family="Arial" font-size="14.00" fill="#666666">[varchar(255)]</text>
<polygon fill="none" stroke="#000000" points="983,-312.5 983,-342.5 1276,-342.5 1276,-312.5 983,-312.5"/>
<text text-anchor="start" x="990" y="-323.9" font-family="Arial" font-size="14.00" fill="#000000">first_name    </text>
<text text-anchor="start" x="1089.5442" y="-323.9" font-family="Arial" font-size="14.00" fill="#666666">[varchar(255)]</text>
<polygon fill="none" stroke="#000000" points="983,-282.5 983,-312.5 1276,-312.5 1276,-282.5 983,-282.5"/>
<text text-anchor="start" x="990" y="-293.9" font-family="Arial" font-size="14.00" fill="#000000">last_name    </text>
<text text-anchor="start" x="1088.7756" y="-293.9" font-family="Arial" font-size="14.00" fill="#666666">[varchar(255)]</text>
<polygon fill="none" stroke="#000000" points="983,-252.5 983,-282.5 1276,-282.5 1276,-252.5 983,-252.5"/>
<text text-anchor="start" x="990" y="-263.9" font-family="Arial" font-size="14.00" fill="#000000">attend_status_id    </text>
<text text-anchor="start" x="1126.9172" y="-263.9" font-family="Arial" font-size="14.00" fill="#666666">[uuid]</text>
<polygon fill="none" stroke="#000000" points="983,-222.5 983,-252.5 1276,-252.5 1276,-222.5 983,-222.5"/>
<text text-anchor="start" x="990" y="-233.9" font-family="Arial" font-size="14.00" fill="#000000">profile_image_id    </text>
<text text-anchor="start" x="1126.8864" y="-233.9" font-family="Arial" font-size="14.00" fill="#666666">[uuid]</text>
<polygon fill="none" stroke="#000000" points="983,-192.5 983,-222.5 1276,-222.5 1276,-192.5 983,-192.5"/>
<text text-anchor="start" x="990" y="-203.9" font-family="Arial" font-size="14.00" fill="#000000">grade_id    </text>
<text text-anchor="start" x="1078.6676" y="-203.9" font-family="Arial" font-size="14.00" fill="#666666">[uuid]</text>
<polygon fill="none" stroke="#000000" points="983,-162.5 983,-192.5 1276,-192.5 1276,-162.5 983,-162.5"/>
<text text-anchor="start" x="990" y="-173.9" font-family="Arial" font-size="14.00" fill="#000000">group_id    </text>
<text text-anchor="start" x="1078.6676" y="-173.9" font-family="Arial" font-size="14.00" fill="#666666">[uuid]</text>
<polygon fill="none" stroke="#000000" points="983,-132.5 983,-162.5 1276,-162.5 1276,-132.5 983,-132.5"/>
<text text-anchor="start" x="990" y="-143.9" font-family="Arial" font-size="14.00" fill="#000000">personal_organization_id    </text>
<text text-anchor="start" x="1180.582" y="-143.9" font-family="Arial" font-size="14.00" fill="#666666">[uuid]</text>
<polygon fill="none" stroke="#000000" points="983,-102.5 983,-132.5 1276,-132.5 1276,-102.5 983,-102.5"/>
<text text-anchor="start" x="990" y="-113.9" font-family="Arial" font-size="14.00" fill="#000000">role_id    </text>
<text text-anchor="start" x="1066.209" y="-113.9" font-family="Arial" font-size="14.00" fill="#666666">[uuid]</text>
<polygon fill="none" stroke="#000000" points="983,-72.5 983,-102.5 1276,-102.5 1276,-72.5 983,-72.5"/>
<text text-anchor="start" x="990" y="-83.9" font-family="Arial" font-size="14.00" fill="#000000">created_at    </text>
<text text-anchor="start" x="1090.3422" y="-83.9" font-family="Arial" font-size="14.00" fill="#666666">[timestamp with time zone]</text>
<polygon fill="none" stroke="#000000" points="983,-42.5 983,-72.5 1276,-72.5 1276,-42.5 983,-42.5"/>
<text text-anchor="start" x="990" y="-53.9" font-family="Arial" font-size="14.00" fill="#000000">updated_at    </text>
<text text-anchor="start" x="1094.2468" y="-53.9" font-family="Arial" font-size="14.00" fill="#666666">[timestamp with time zone]</text>
</g>
<!-- public.t_chat_room_add_member_actions&#45;&gt;public.m_members -->
<g id="edge3" class="edge">
<title>public.t_chat_room_add_member_actions:added_by&#45;&gt;public.m_members:member_id</title>
<path fill="none" stroke="#000000" d="M1162.0185,-694.822C1175.6031,-685.5816 1166.2738,-654.6346 1152,-637 1103.6837,-577.3074 1031.3163,-660.6926 983,-601 948.4667,-558.3357 928.1111,-477.5 983,-477.5"/>
<polygon fill="#000000" stroke="#000000" points="1161.6608,-694.9176 1150.8379,-693.1526 1156.8304,-696.2088 1152,-697.5 1152,-697.5 1152,-697.5 1156.8304,-696.2088 1153.1621,-701.8474 1161.6608,-694.9176 1161.6608,-694.9176"/>
<text text-anchor="start" x="1159.265" y="-707.5" font-family="Arial" font-size="10.00" fill="#000000">FOREIGN KEY (added_by) REFERENCES m_members(member_id) ON UPDATE SET NULL ON DELETE SET NULL</text>
</g>
<!-- public.t_chat_room_added_members -->
<g id="node2" class="node">
<title>public.t_chat_room_added_members</title>
<polygon fill="#efefef" stroke="transparent" points="695,-1052.5 695,-1087.5 1133,-1087.5 1133,-1052.5 695,-1052.5"/>
<polygon fill="none" stroke="#000000" points="695,-1052.5 695,-1087.5 1133,-1087.5 1133,-1052.5 695,-1052.5"/>
<text text-anchor="start" x="701.6791" y="-1065.3" font-family="Arial Bold" font-size="18.00" fill="#000000">public.t_chat_room_added_members</text>
<text text-anchor="start" x="998.7529" y="-1065.3" font-family="Arial" font-size="14.00" fill="#000000">    </text>
<text text-anchor="start" x="1032.9577" y="-1065.3" font-family="Arial" font-size="14.00" fill="#666666">[BASE TABLE]</text>
<polygon fill="none" stroke="#000000" points="695,-1022.5 695,-1052.5 1133,-1052.5 1133,-1022.5 695,-1022.5"/>
<text text-anchor="start" x="702" y="-1033.9" font-family="Arial" font-size="14.00" fill="#000000">t_chat_room_added_members_pkey    </text>
<text text-anchor="start" x="964.1584" y="-1033.9" font-family="Arial" font-size="14.00" fill="#666666">[bigint]</text>
<polygon fill="none" stroke="#000000" points="695,-992.5 695,-1022.5 1133,-1022.5 1133,-992.5 695,-992.5"/>
<text text-anchor="start" x="702" y="-1003.9" font-family="Arial" font-size="14.00" fill="#000000">chat_room_add_member_action_id    </text>
<text text-anchor="start" x="956.3716" y="-1003.9" font-family="Arial" font-size="14.00" fill="#666666">[uuid]</text>
<polygon fill="none" stroke="#000000" points="695,-962.5 695,-992.5 1133,-992.5 1133,-962.5 695,-962.5"/>
<text text-anchor="start" x="702" y="-973.9" font-family="Arial" font-size="14.00" fill="#000000">member_id    </text>
<text text-anchor="start" x="806.2062" y="-973.9" font-family="Arial" font-size="14.00" fill="#666666">[uuid]</text>
</g>
<!-- public.t_chat_room_added_members&#45;&gt;public.t_chat_room_add_member_actions -->
<g id="edge1" class="edge">
<title>public.t_chat_room_added_members:chat_room_add_member_action_id&#45;&gt;public.t_chat_room_add_member_actions:chat_room_add_member_action_id</title>
<path fill="none" stroke="#000000" d="M1143.1748,-1006.7828C1245.4917,-992.1191 1259.9493,-757.5 1152,-757.5"/>
<polygon fill="#000000" stroke="#000000" points="1142.9753,-1006.7968 1132.6836,-1003.0111 1137.9876,-1007.1484 1133,-1007.5 1133,-1007.5 1133,-1007.5 1137.9876,-1007.1484 1133.3164,-1011.9889 1142.9753,-1006.7968 1142.9753,-1006.7968"/>
<text text-anchor="start" x="1139.5535" y="-1017.5" font-family="Arial" font-size="10.00" fill="#000000">FOREIGN KEY (chat_room_add_member_action_id) REFERENCES t_chat_room_add_member_actions(chat_room_add_member_action_id) ON UPDATE CASCADE ON DELETE CASCADE</text>
</g>
</g>
</svg>
