<?xml version="1.0" encoding="UTF-8" standalone="no"?>
<!DOCTYPE svg PUBLIC "-//W3C//DTD SVG 1.1//EN"
 "http://www.w3.org/Graphics/SVG/1.1/DTD/svg11.dtd">
<!-- Generated by graphviz version 2.40.1 (20161225.0304)
 -->
<!-- Title: public.t_attachable_items Pages: 1 -->
<svg width="1752pt" height="1289pt"
 viewBox="0.00 0.00 1752.00 1289.00" xmlns="http://www.w3.org/2000/svg" xmlns:xlink="http://www.w3.org/1999/xlink">
<g id="graph0" class="graph" transform="scale(1 1) rotate(0) translate(4 1285)">
<title>public.t_attachable_items</title>
<polygon fill="#ffffff" stroke="transparent" points="-4,4 -4,-1285 1748,-1285 1748,4 -4,4"/>
<!-- public.t_attachable_items -->
<g id="node1" class="node">
<title>public.t_attachable_items</title>
<polygon fill="#efefef" stroke="transparent" points="702,-892.5 702,-927.5 1046,-927.5 1046,-892.5 702,-892.5"/>
<polygon fill="none" stroke="#000000" points="702,-892.5 702,-927.5 1046,-927.5 1046,-892.5 702,-892.5"/>
<text text-anchor="start" x="708.6888" y="-905.3" font-family="Arial Bold" font-size="18.00" fill="#000000">public.t_attachable_items</text>
<text text-anchor="start" x="911.7432" y="-905.3" font-family="Arial" font-size="14.00" fill="#000000">    </text>
<text text-anchor="start" x="945.948" y="-905.3" font-family="Arial" font-size="14.00" fill="#666666">[BASE TABLE]</text>
<polygon fill="none" stroke="#000000" points="702,-862.5 702,-892.5 1046,-892.5 1046,-862.5 702,-862.5"/>
<text text-anchor="start" x="709" y="-873.9" font-family="Arial" font-size="14.00" fill="#000000">t_attachable_items_pkey </text>
<text text-anchor="start" x="867.718" y="-873.9" font-family="Arial" font-size="14.00" fill="#666666">[bigint]</text>
<polygon fill="none" stroke="#000000" points="702,-832.5 702,-862.5 1046,-862.5 1046,-832.5 702,-832.5"/>
<text text-anchor="start" x="709" y="-843.9" font-family="Arial" font-size="14.00" fill="#000000">attachable_item_id </text>
<text text-anchor="start" x="830.3688" y="-843.9" font-family="Arial" font-size="14.00" fill="#666666">[uuid]</text>
<polygon fill="none" stroke="#000000" points="702,-802.5 702,-832.5 1046,-832.5 1046,-802.5 702,-802.5"/>
<text text-anchor="start" x="709" y="-813.9" font-family="Arial" font-size="14.00" fill="#000000">url </text>
<text text-anchor="start" x="728.4404" y="-813.9" font-family="Arial" font-size="14.00" fill="#666666">[text]</text>
<polygon fill="none" stroke="#000000" points="702,-772.5 702,-802.5 1046,-802.5 1046,-772.5 702,-772.5"/>
<text text-anchor="start" x="709" y="-783.9" font-family="Arial" font-size="14.00" fill="#000000">size </text>
<text text-anchor="start" x="737.7798" y="-783.9" font-family="Arial" font-size="14.00" fill="#666666">[double precision]</text>
<polygon fill="none" stroke="#000000" points="702,-742.5 702,-772.5 1046,-772.5 1046,-742.5 702,-742.5"/>
<text text-anchor="start" x="709" y="-753.9" font-family="Arial" font-size="14.00" fill="#000000">mime_type_id </text>
<text text-anchor="start" x="800.0112" y="-753.9" font-family="Arial" font-size="14.00" fill="#666666">[uuid]</text>
<polygon fill="none" stroke="#000000" points="702,-712.5 702,-742.5 1046,-742.5 1046,-712.5 702,-712.5"/>
<text text-anchor="start" x="709" y="-723.9" font-family="Arial" font-size="14.00" fill="#000000">owner_id </text>
<text text-anchor="start" x="769.6774" y="-723.9" font-family="Arial" font-size="14.00" fill="#666666">[uuid]</text>
<polygon fill="none" stroke="#000000" points="702,-682.5 702,-712.5 1046,-712.5 1046,-682.5 702,-682.5"/>
<text text-anchor="start" x="709" y="-693.9" font-family="Arial" font-size="14.00" fill="#000000">from_outer </text>
<text text-anchor="start" x="780.5666" y="-693.9" font-family="Arial" font-size="14.00" fill="#666666">[boolean]</text>
<polygon fill="none" stroke="#000000" stroke-width="3" points="700.5,-681.5 700.5,-929.5 1047.5,-929.5 1047.5,-681.5 700.5,-681.5"/>
</g>
<!-- public.m_mime_types -->
<g id="node5" class="node">
<title>public.m_mime_types</title>
<polygon fill="#efefef" stroke="transparent" points="512,-357.5 512,-392.5 827,-392.5 827,-357.5 512,-357.5"/>
<polygon fill="none" stroke="#000000" points="512,-357.5 512,-392.5 827,-392.5 827,-357.5 512,-357.5"/>
<text text-anchor="start" x="518.7094" y="-370.3" font-family="Arial Bold" font-size="18.00" fill="#000000">public.m_mime_types</text>
<text text-anchor="start" x="692.7226" y="-370.3" font-family="Arial" font-size="14.00" fill="#000000">    </text>
<text text-anchor="start" x="726.9274" y="-370.3" font-family="Arial" font-size="14.00" fill="#666666">[BASE TABLE]</text>
<polygon fill="none" stroke="#000000" points="512,-327.5 512,-357.5 827,-357.5 827,-327.5 512,-327.5"/>
<text text-anchor="start" x="519" y="-338.9" font-family="Arial" font-size="14.00" fill="#000000">m_mime_types_pkey    </text>
<text text-anchor="start" x="685.4446" y="-338.9" font-family="Arial" font-size="14.00" fill="#666666">[bigint]</text>
<polygon fill="none" stroke="#000000" points="512,-297.5 512,-327.5 827,-327.5 827,-297.5 512,-297.5"/>
<text text-anchor="start" x="519" y="-308.9" font-family="Arial" font-size="14.00" fill="#000000">mime_type_id    </text>
<text text-anchor="start" x="640.3254" y="-308.9" font-family="Arial" font-size="14.00" fill="#666666">[uuid]</text>
<polygon fill="none" stroke="#000000" points="512,-267.5 512,-297.5 827,-297.5 827,-267.5 512,-267.5"/>
<text text-anchor="start" x="519" y="-278.9" font-family="Arial" font-size="14.00" fill="#000000">name    </text>
<text text-anchor="start" x="588.2132" y="-278.9" font-family="Arial" font-size="14.00" fill="#666666">[varchar(255)]</text>
<polygon fill="none" stroke="#000000" points="512,-237.5 512,-267.5 827,-267.5 827,-237.5 512,-237.5"/>
<text text-anchor="start" x="519" y="-248.9" font-family="Arial" font-size="14.00" fill="#000000">kind    </text>
<text text-anchor="start" x="578.8766" y="-248.9" font-family="Arial" font-size="14.00" fill="#666666">[varchar(255)]</text>
<polygon fill="none" stroke="#000000" points="512,-207.5 512,-237.5 827,-237.5 827,-207.5 512,-207.5"/>
<text text-anchor="start" x="519" y="-218.9" font-family="Arial" font-size="14.00" fill="#000000">key    </text>
<text text-anchor="start" x="574.9874" y="-218.9" font-family="Arial" font-size="14.00" fill="#666666">[varchar(255)]</text>
</g>
<!-- public.t_attachable_items&#45;&gt;public.m_mime_types -->
<g id="edge4" class="edge">
<title>public.t_attachable_items:mime_type_id&#45;&gt;public.m_mime_types:mime_type_id</title>
<path fill="none" stroke="#000000" d="M691.8458,-757.0923C515.1775,-741.993 1028.8213,-312.5 827,-312.5"/>
<polygon fill="#000000" stroke="#000000" points="692.008,-757.0988 701.8194,-761.9964 697.004,-757.2994 702,-757.5 702,-757.5 702,-757.5 697.004,-757.2994 702.1806,-753.0036 692.008,-757.0988 692.008,-757.0988"/>
<text text-anchor="start" x="118.669" y="-767.5" font-family="Arial" font-size="10.00" fill="#000000">FOREIGN KEY (mime_type_id) REFERENCES m_mime_types(mime_type_id) ON UPDATE RESTRICT ON DELETE RESTRICT</text>
</g>
<!-- public.m_members -->
<g id="node6" class="node">
<title>public.m_members</title>
<polygon fill="#efefef" stroke="transparent" points="931,-522.5 931,-557.5 1224,-557.5 1224,-522.5 931,-522.5"/>
<polygon fill="none" stroke="#000000" points="931,-522.5 931,-557.5 1224,-557.5 1224,-522.5 931,-522.5"/>
<text text-anchor="start" x="937.7146" y="-535.3" font-family="Arial Bold" font-size="18.00" fill="#000000">public.m_members</text>
<text text-anchor="start" x="1089.7174" y="-535.3" font-family="Arial" font-size="14.00" fill="#000000">    </text>
<text text-anchor="start" x="1123.9222" y="-535.3" font-family="Arial" font-size="14.00" fill="#666666">[BASE TABLE]</text>
<polygon fill="none" stroke="#000000" points="931,-492.5 931,-522.5 1224,-522.5 1224,-492.5 931,-492.5"/>
<text text-anchor="start" x="938" y="-503.9" font-family="Arial" font-size="14.00" fill="#000000">m_members_pkey    </text>
<text text-anchor="start" x="1087.3254" y="-503.9" font-family="Arial" font-size="14.00" fill="#666666">[bigint]</text>
<polygon fill="none" stroke="#000000" points="931,-462.5 931,-492.5 1224,-492.5 1224,-462.5 931,-462.5"/>
<text text-anchor="start" x="938" y="-473.9" font-family="Arial" font-size="14.00" fill="#000000">member_id    </text>
<text text-anchor="start" x="1042.2062" y="-473.9" font-family="Arial" font-size="14.00" fill="#666666">[uuid]</text>
<polygon fill="none" stroke="#000000" points="931,-432.5 931,-462.5 1224,-462.5 1224,-432.5 931,-432.5"/>
<text text-anchor="start" x="938" y="-443.9" font-family="Arial" font-size="14.00" fill="#000000">login_id    </text>
<text text-anchor="start" x="1020.4376" y="-443.9" font-family="Arial" font-size="14.00" fill="#666666">[varchar(255)]</text>
<polygon fill="none" stroke="#000000" points="931,-402.5 931,-432.5 1224,-432.5 1224,-402.5 931,-402.5"/>
<text text-anchor="start" x="938" y="-413.9" font-family="Arial" font-size="14.00" fill="#000000">password    </text>
<text text-anchor="start" x="1032.1024" y="-413.9" font-family="Arial" font-size="14.00" fill="#666666">[varchar(255)]</text>
<polygon fill="none" stroke="#000000" points="931,-372.5 931,-402.5 1224,-402.5 1224,-372.5 931,-372.5"/>
<text text-anchor="start" x="938" y="-383.9" font-family="Arial" font-size="14.00" fill="#000000">email    </text>
<text text-anchor="start" x="1005.6438" y="-383.9" font-family="Arial" font-size="14.00" fill="#666666">[varchar(255)]</text>
<polygon fill="none" stroke="#000000" points="931,-342.5 931,-372.5 1224,-372.5 1224,-342.5 931,-342.5"/>
<text text-anchor="start" x="938" y="-353.9" font-family="Arial" font-size="14.00" fill="#000000">name    </text>
<text text-anchor="start" x="1007.2132" y="-353.9" font-family="Arial" font-size="14.00" fill="#666666">[varchar(255)]</text>
<polygon fill="none" stroke="#000000" points="931,-312.5 931,-342.5 1224,-342.5 1224,-312.5 931,-312.5"/>
<text text-anchor="start" x="938" y="-323.9" font-family="Arial" font-size="14.00" fill="#000000">first_name    </text>
<text text-anchor="start" x="1037.5442" y="-323.9" font-family="Arial" font-size="14.00" fill="#666666">[varchar(255)]</text>
<polygon fill="none" stroke="#000000" points="931,-282.5 931,-312.5 1224,-312.5 1224,-282.5 931,-282.5"/>
<text text-anchor="start" x="938" y="-293.9" font-family="Arial" font-size="14.00" fill="#000000">last_name    </text>
<text text-anchor="start" x="1036.7756" y="-293.9" font-family="Arial" font-size="14.00" fill="#666666">[varchar(255)]</text>
<polygon fill="none" stroke="#000000" points="931,-252.5 931,-282.5 1224,-282.5 1224,-252.5 931,-252.5"/>
<text text-anchor="start" x="938" y="-263.9" font-family="Arial" font-size="14.00" fill="#000000">attend_status_id    </text>
<text text-anchor="start" x="1074.9172" y="-263.9" font-family="Arial" font-size="14.00" fill="#666666">[uuid]</text>
<polygon fill="none" stroke="#000000" points="931,-222.5 931,-252.5 1224,-252.5 1224,-222.5 931,-222.5"/>
<text text-anchor="start" x="938" y="-233.9" font-family="Arial" font-size="14.00" fill="#000000">profile_image_id    </text>
<text text-anchor="start" x="1074.8864" y="-233.9" font-family="Arial" font-size="14.00" fill="#666666">[uuid]</text>
<polygon fill="none" stroke="#000000" points="931,-192.5 931,-222.5 1224,-222.5 1224,-192.5 931,-192.5"/>
<text text-anchor="start" x="938" y="-203.9" font-family="Arial" font-size="14.00" fill="#000000">grade_id    </text>
<text text-anchor="start" x="1026.6676" y="-203.9" font-family="Arial" font-size="14.00" fill="#666666">[uuid]</text>
<polygon fill="none" stroke="#000000" points="931,-162.5 931,-192.5 1224,-192.5 1224,-162.5 931,-162.5"/>
<text text-anchor="start" x="938" y="-173.9" font-family="Arial" font-size="14.00" fill="#000000">group_id    </text>
<text text-anchor="start" x="1026.6676" y="-173.9" font-family="Arial" font-size="14.00" fill="#666666">[uuid]</text>
<polygon fill="none" stroke="#000000" points="931,-132.5 931,-162.5 1224,-162.5 1224,-132.5 931,-132.5"/>
<text text-anchor="start" x="938" y="-143.9" font-family="Arial" font-size="14.00" fill="#000000">personal_organization_id    </text>
<text text-anchor="start" x="1128.582" y="-143.9" font-family="Arial" font-size="14.00" fill="#666666">[uuid]</text>
<polygon fill="none" stroke="#000000" points="931,-102.5 931,-132.5 1224,-132.5 1224,-102.5 931,-102.5"/>
<text text-anchor="start" x="938" y="-113.9" font-family="Arial" font-size="14.00" fill="#000000">role_id    </text>
<text text-anchor="start" x="1014.209" y="-113.9" font-family="Arial" font-size="14.00" fill="#666666">[uuid]</text>
<polygon fill="none" stroke="#000000" points="931,-72.5 931,-102.5 1224,-102.5 1224,-72.5 931,-72.5"/>
<text text-anchor="start" x="938" y="-83.9" font-family="Arial" font-size="14.00" fill="#000000">created_at    </text>
<text text-anchor="start" x="1038.3422" y="-83.9" font-family="Arial" font-size="14.00" fill="#666666">[timestamp with time zone]</text>
<polygon fill="none" stroke="#000000" points="931,-42.5 931,-72.5 1224,-72.5 1224,-42.5 931,-42.5"/>
<text text-anchor="start" x="938" y="-53.9" font-family="Arial" font-size="14.00" fill="#000000">updated_at    </text>
<text text-anchor="start" x="1042.2468" y="-53.9" font-family="Arial" font-size="14.00" fill="#666666">[timestamp with time zone]</text>
</g>
<!-- public.t_attachable_items&#45;&gt;public.m_members -->
<g id="edge5" class="edge">
<title>public.t_attachable_items:owner_id&#45;&gt;public.m_members:member_id</title>
<path fill="none" stroke="#000000" d="M1056.2096,-725.9161C1082.9474,-716.3997 1067.4912,-666.2473 1046,-637 1014.287,-593.8418 962.713,-644.1582 931,-601 898.4983,-556.7685 876.1111,-477.5 931,-477.5"/>
<polygon fill="#000000" stroke="#000000" points="1055.8818,-725.9669 1045.3101,-723.0532 1050.9409,-726.7334 1046,-727.5 1046,-727.5 1046,-727.5 1050.9409,-726.7334 1046.6899,-731.9468 1055.8818,-725.9669 1055.8818,-725.9669"/>
<text text-anchor="start" x="1052.9405" y="-737.5" font-family="Arial" font-size="10.00" fill="#000000">FOREIGN KEY (owner_id) REFERENCES m_members(member_id) ON UPDATE SET NULL ON DELETE SET NULL</text>
</g>
<!-- public.t_images -->
<g id="node2" class="node">
<title>public.t_images</title>
<polygon fill="#efefef" stroke="transparent" points="384,-1202.5 384,-1237.5 650,-1237.5 650,-1202.5 384,-1202.5"/>
<polygon fill="none" stroke="#000000" points="384,-1202.5 384,-1237.5 650,-1237.5 650,-1202.5 384,-1202.5"/>
<text text-anchor="start" x="390.7047" y="-1215.3" font-family="Arial Bold" font-size="18.00" fill="#000000">public.t_images</text>
<text text-anchor="start" x="515.7273" y="-1215.3" font-family="Arial" font-size="14.00" fill="#000000">    </text>
<text text-anchor="start" x="549.9321" y="-1215.3" font-family="Arial" font-size="14.00" fill="#666666">[BASE TABLE]</text>
<polygon fill="none" stroke="#000000" points="384,-1172.5 384,-1202.5 650,-1202.5 650,-1172.5 384,-1172.5"/>
<text text-anchor="start" x="391" y="-1183.9" font-family="Arial" font-size="14.00" fill="#000000">t_images_pkey    </text>
<text text-anchor="start" x="519.3408" y="-1183.9" font-family="Arial" font-size="14.00" fill="#666666">[bigint]</text>
<polygon fill="none" stroke="#000000" points="384,-1142.5 384,-1172.5 650,-1172.5 650,-1142.5 384,-1142.5"/>
<text text-anchor="start" x="391" y="-1153.9" font-family="Arial" font-size="14.00" fill="#000000">image_id    </text>
<text text-anchor="start" x="481.9916" y="-1153.9" font-family="Arial" font-size="14.00" fill="#666666">[uuid]</text>
<polygon fill="none" stroke="#000000" points="384,-1112.5 384,-1142.5 650,-1142.5 650,-1112.5 384,-1112.5"/>
<text text-anchor="start" x="391" y="-1123.9" font-family="Arial" font-size="14.00" fill="#000000">height    </text>
<text text-anchor="start" x="463.3324" y="-1123.9" font-family="Arial" font-size="14.00" fill="#666666">[double precision]</text>
<polygon fill="none" stroke="#000000" points="384,-1082.5 384,-1112.5 650,-1112.5 650,-1082.5 384,-1082.5"/>
<text text-anchor="start" x="391" y="-1093.9" font-family="Arial" font-size="14.00" fill="#000000">width    </text>
<text text-anchor="start" x="457.8738" y="-1093.9" font-family="Arial" font-size="14.00" fill="#666666">[double precision]</text>
<polygon fill="none" stroke="#000000" points="384,-1052.5 384,-1082.5 650,-1082.5 650,-1052.5 384,-1052.5"/>
<text text-anchor="start" x="391" y="-1063.9" font-family="Arial" font-size="14.00" fill="#000000">attachable_item_id    </text>
<text text-anchor="start" x="542.683" y="-1063.9" font-family="Arial" font-size="14.00" fill="#666666">[uuid]</text>
</g>
<!-- public.t_images&#45;&gt;public.t_attachable_items -->
<g id="edge1" class="edge">
<title>public.t_images:attachable_item_id&#45;&gt;public.t_attachable_items:attachable_item_id</title>
<path fill="none" stroke="#000000" d="M660.1804,-1066.6136C739.761,-1051.4748 605.2565,-847.5 702,-847.5"/>
<polygon fill="#000000" stroke="#000000" points="659.9623,-1066.6325 649.6096,-1063.017 654.9812,-1067.0662 650,-1067.5 650,-1067.5 650,-1067.5 654.9812,-1067.0662 650.3904,-1071.983 659.9623,-1066.6325 659.9623,-1066.6325"/>
<text text-anchor="start" x="6.918" y="-1077.5" font-family="Arial" font-size="10.00" fill="#000000">FOREIGN KEY (attachable_item_id) REFERENCES t_attachable_items(attachable_item_id) ON UPDATE RESTRICT ON DELETE RESTRICT</text>
</g>
<!-- public.t_files -->
<g id="node3" class="node">
<title>public.t_files</title>
<polygon fill="#efefef" stroke="transparent" points="754,-1172.5 754,-1207.5 994,-1207.5 994,-1172.5 754,-1172.5"/>
<polygon fill="none" stroke="#000000" points="754,-1172.5 754,-1207.5 994,-1207.5 994,-1172.5 754,-1172.5"/>
<text text-anchor="start" x="760.7088" y="-1185.3" font-family="Arial Bold" font-size="18.00" fill="#000000">public.t_files</text>
<text text-anchor="start" x="859.7232" y="-1185.3" font-family="Arial" font-size="14.00" fill="#000000">    </text>
<text text-anchor="start" x="893.928" y="-1185.3" font-family="Arial" font-size="14.00" fill="#666666">[BASE TABLE]</text>
<polygon fill="none" stroke="#000000" points="754,-1142.5 754,-1172.5 994,-1172.5 994,-1142.5 754,-1142.5"/>
<text text-anchor="start" x="761" y="-1153.9" font-family="Arial" font-size="14.00" fill="#000000">t_files_pkey    </text>
<text text-anchor="start" x="869.1122" y="-1153.9" font-family="Arial" font-size="14.00" fill="#666666">[bigint]</text>
<polygon fill="none" stroke="#000000" points="754,-1112.5 754,-1142.5 994,-1142.5 994,-1112.5 754,-1112.5"/>
<text text-anchor="start" x="761" y="-1123.9" font-family="Arial" font-size="14.00" fill="#000000">file_id    </text>
<text text-anchor="start" x="831.763" y="-1123.9" font-family="Arial" font-size="14.00" fill="#666666">[uuid]</text>
<polygon fill="none" stroke="#000000" points="754,-1082.5 754,-1112.5 994,-1112.5 994,-1082.5 754,-1082.5"/>
<text text-anchor="start" x="761" y="-1093.9" font-family="Arial" font-size="14.00" fill="#000000">attachable_item_id    </text>
<text text-anchor="start" x="912.683" y="-1093.9" font-family="Arial" font-size="14.00" fill="#666666">[uuid]</text>
</g>
<!-- public.t_files&#45;&gt;public.t_attachable_items -->
<g id="edge2" class="edge">
<title>public.t_files:attachable_item_id&#45;&gt;public.t_attachable_items:attachable_item_id</title>
<path fill="none" stroke="#000000" d="M874.6331,-1072.1226C884.3862,-996.8871 1004.1403,-1049.8981 1046,-974 1073.1522,-924.7689 1102.2222,-847.5 1046,-847.5"/>
<polygon fill="#000000" stroke="#000000" points="874.609,-1072.5186 869.5084,-1082.2259 874.3045,-1077.5093 874,-1082.5 874,-1082.5 874,-1082.5 874.3045,-1077.5093 878.4916,-1082.7741 874.609,-1072.5186 874.609,-1072.5186"/>
<text text-anchor="start" x="718.418" y="-1066.5" font-family="Arial" font-size="10.00" fill="#000000">FOREIGN KEY (attachable_item_id) REFERENCES t_attachable_items(attachable_item_id) ON UPDATE RESTRICT ON DELETE RESTRICT</text>
</g>
<!-- public.t_attached_messages -->
<g id="node4" class="node">
<title>public.t_attached_messages</title>
<polygon fill="#efefef" stroke="transparent" points="1099,-1187.5 1099,-1222.5 1468,-1222.5 1468,-1187.5 1099,-1187.5"/>
<polygon fill="none" stroke="#000000" points="1099,-1187.5 1099,-1222.5 1468,-1222.5 1468,-1187.5 1099,-1187.5"/>
<text text-anchor="start" x="1105.6779" y="-1200.3" font-family="Arial Bold" font-size="18.00" fill="#000000">public.t_attached_messages</text>
<text text-anchor="start" x="1333.7541" y="-1200.3" font-family="Arial" font-size="14.00" fill="#000000">    </text>
<text text-anchor="start" x="1367.9589" y="-1200.3" font-family="Arial" font-size="14.00" fill="#666666">[BASE TABLE]</text>
<polygon fill="none" stroke="#000000" points="1099,-1157.5 1099,-1187.5 1468,-1187.5 1468,-1157.5 1099,-1157.5"/>
<text text-anchor="start" x="1106" y="-1168.9" font-family="Arial" font-size="14.00" fill="#000000">t_attached_messages_pkey    </text>
<text text-anchor="start" x="1314.4936" y="-1168.9" font-family="Arial" font-size="14.00" fill="#666666">[bigint]</text>
<polygon fill="none" stroke="#000000" points="1099,-1127.5 1099,-1157.5 1468,-1157.5 1468,-1127.5 1099,-1127.5"/>
<text text-anchor="start" x="1106" y="-1138.9" font-family="Arial" font-size="14.00" fill="#000000">attached_message_id    </text>
<text text-anchor="start" x="1277.1444" y="-1138.9" font-family="Arial" font-size="14.00" fill="#666666">[uuid]</text>
<polygon fill="none" stroke="#000000" points="1099,-1097.5 1099,-1127.5 1468,-1127.5 1468,-1097.5 1099,-1097.5"/>
<text text-anchor="start" x="1106" y="-1108.9" font-family="Arial" font-size="14.00" fill="#000000">message_id    </text>
<text text-anchor="start" x="1215.6676" y="-1108.9" font-family="Arial" font-size="14.00" fill="#666666">[uuid]</text>
<polygon fill="none" stroke="#000000" points="1099,-1067.5 1099,-1097.5 1468,-1097.5 1468,-1067.5 1099,-1067.5"/>
<text text-anchor="start" x="1106" y="-1078.9" font-family="Arial" font-size="14.00" fill="#000000">attachable_item_id    </text>
<text text-anchor="start" x="1257.683" y="-1078.9" font-family="Arial" font-size="14.00" fill="#666666">[uuid]</text>
</g>
<!-- public.t_attached_messages&#45;&gt;public.t_attachable_items -->
<g id="edge3" class="edge">
<title>public.t_attached_messages:attachable_item_id&#45;&gt;public.t_attachable_items:attachable_item_id</title>
<path fill="none" stroke="#000000" d="M1088.9399,-1081.6952C1002.634,-1066.7101 1149.4082,-847.5 1046,-847.5"/>
<polygon fill="#000000" stroke="#000000" points="1089.0319,-1081.7024 1098.6411,-1086.9857 1094.0159,-1082.1012 1099,-1082.5 1099,-1082.5 1099,-1082.5 1094.0159,-1082.1012 1099.3589,-1078.0143 1089.0319,-1081.7024 1089.0319,-1081.7024"/>
<text text-anchor="start" x="1106.128" y="-1092.5" font-family="Arial" font-size="10.00" fill="#000000">FOREIGN KEY (attachable_item_id) REFERENCES t_attachable_items(attachable_item_id) ON UPDATE SET NULL ON DELETE SET NULL</text>
</g>
</g>
</svg>
