<?xml version="1.0" encoding="UTF-8" standalone="no"?>
<!DOCTYPE svg PUBLIC "-//W3C//DTD SVG 1.1//EN"
 "http://www.w3.org/Graphics/SVG/1.1/DTD/svg11.dtd">
<!-- Generated by graphviz version 2.40.1 (20161225.0304)
 -->
<!-- Title: public.t_attached_messages Pages: 1 -->
<svg width="978pt" height="622pt"
 viewBox="0.00 0.00 977.50 622.00" xmlns="http://www.w3.org/2000/svg" xmlns:xlink="http://www.w3.org/1999/xlink">
<g id="graph0" class="graph" transform="scale(1 1) rotate(0) translate(4 618)">
<title>public.t_attached_messages</title>
<polygon fill="#ffffff" stroke="transparent" points="-4,4 -4,-618 973.5,-618 973.5,4 -4,4"/>
<!-- public.t_attached_messages -->
<g id="node1" class="node">
<title>public.t_attached_messages</title>
<polygon fill="#efefef" stroke="transparent" points="555,-532.5 555,-567.5 924,-567.5 924,-532.5 555,-532.5"/>
<polygon fill="none" stroke="#000000" points="555,-532.5 555,-567.5 924,-567.5 924,-532.5 555,-532.5"/>
<text text-anchor="start" x="561.6779" y="-545.3" font-family="Arial Bold" font-size="18.00" fill="#000000">public.t_attached_messages</text>
<text text-anchor="start" x="789.7541" y="-545.3" font-family="Arial" font-size="14.00" fill="#000000">    </text>
<text text-anchor="start" x="823.9589" y="-545.3" font-family="Arial" font-size="14.00" fill="#666666">[BASE TABLE]</text>
<polygon fill="none" stroke="#000000" points="555,-502.5 555,-532.5 924,-532.5 924,-502.5 555,-502.5"/>
<text text-anchor="start" x="562" y="-513.9" font-family="Arial" font-size="14.00" fill="#000000">t_attached_messages_pkey </text>
<text text-anchor="start" x="740.1794" y="-513.9" font-family="Arial" font-size="14.00" fill="#666666">[bigint]</text>
<polygon fill="none" stroke="#000000" points="555,-472.5 555,-502.5 924,-502.5 924,-472.5 555,-472.5"/>
<text text-anchor="start" x="562" y="-483.9" font-family="Arial" font-size="14.00" fill="#000000">attached_message_id </text>
<text text-anchor="start" x="702.8302" y="-483.9" font-family="Arial" font-size="14.00" fill="#666666">[uuid]</text>
<polygon fill="none" stroke="#000000" points="555,-442.5 555,-472.5 924,-472.5 924,-442.5 555,-442.5"/>
<text text-anchor="start" x="562" y="-453.9" font-family="Arial" font-size="14.00" fill="#000000">message_id </text>
<text text-anchor="start" x="641.3534" y="-453.9" font-family="Arial" font-size="14.00" fill="#666666">[uuid]</text>
<polygon fill="none" stroke="#000000" points="555,-412.5 555,-442.5 924,-442.5 924,-412.5 555,-412.5"/>
<text text-anchor="start" x="562" y="-423.9" font-family="Arial" font-size="14.00" fill="#000000">file_url </text>
<text text-anchor="start" x="607.1094" y="-423.9" font-family="Arial" font-size="14.00" fill="#666666">[text]</text>
<polygon fill="none" stroke="#000000" stroke-width="3" points="553,-411.5 553,-569.5 925,-569.5 925,-411.5 553,-411.5"/>
</g>
<!-- public.t_messages -->
<g id="node2" class="node">
<title>public.t_messages</title>
<polygon fill="#efefef" stroke="transparent" points="589,-252.5 589,-287.5 890,-287.5 890,-252.5 589,-252.5"/>
<polygon fill="none" stroke="#000000" points="589,-252.5 589,-287.5 890,-287.5 890,-252.5 589,-252.5"/>
<text text-anchor="start" x="601.1987" y="-265.3" font-family="Arial Bold" font-size="18.00" fill="#000000">public.t_messages</text>
<text text-anchor="start" x="750.2333" y="-265.3" font-family="Arial" font-size="14.00" fill="#000000">    </text>
<text text-anchor="start" x="784.4381" y="-265.3" font-family="Arial" font-size="14.00" fill="#666666">[BASE TABLE]</text>
<polygon fill="none" stroke="#000000" points="589,-222.5 589,-252.5 890,-252.5 890,-222.5 589,-222.5"/>
<text text-anchor="start" x="596" y="-233.9" font-family="Arial" font-size="14.00" fill="#000000">t_messages_pkey    </text>
<text text-anchor="start" x="743.0168" y="-233.9" font-family="Arial" font-size="14.00" fill="#666666">[bigint]</text>
<polygon fill="none" stroke="#000000" points="589,-192.5 589,-222.5 890,-222.5 890,-192.5 589,-192.5"/>
<text text-anchor="start" x="596" y="-203.9" font-family="Arial" font-size="14.00" fill="#000000">message_id    </text>
<text text-anchor="start" x="705.6676" y="-203.9" font-family="Arial" font-size="14.00" fill="#666666">[uuid]</text>
<polygon fill="none" stroke="#000000" points="589,-162.5 589,-192.5 890,-192.5 890,-162.5 589,-162.5"/>
<text text-anchor="start" x="596" y="-173.9" font-family="Arial" font-size="14.00" fill="#000000">chat_room_id    </text>
<text text-anchor="start" x="715.0014" y="-173.9" font-family="Arial" font-size="14.00" fill="#666666">[uuid]</text>
<polygon fill="none" stroke="#000000" points="589,-132.5 589,-162.5 890,-162.5 890,-132.5 589,-132.5"/>
<text text-anchor="start" x="596" y="-143.9" font-family="Arial" font-size="14.00" fill="#000000">sender_id    </text>
<text text-anchor="start" x="691.6676" y="-143.9" font-family="Arial" font-size="14.00" fill="#666666">[uuid]</text>
<polygon fill="none" stroke="#000000" points="589,-102.5 589,-132.5 890,-132.5 890,-102.5 589,-102.5"/>
<text text-anchor="start" x="596" y="-113.9" font-family="Arial" font-size="14.00" fill="#000000">body    </text>
<text text-anchor="start" x="660.5526" y="-113.9" font-family="Arial" font-size="14.00" fill="#666666">[text]</text>
<polygon fill="none" stroke="#000000" points="589,-72.5 589,-102.5 890,-102.5 890,-72.5 589,-72.5"/>
<text text-anchor="start" x="596" y="-83.9" font-family="Arial" font-size="14.00" fill="#000000">posted_at    </text>
<text text-anchor="start" x="691.6816" y="-83.9" font-family="Arial" font-size="14.00" fill="#666666">[timestamp with time zone]</text>
<polygon fill="none" stroke="#000000" points="589,-42.5 589,-72.5 890,-72.5 890,-42.5 589,-42.5"/>
<text text-anchor="start" x="595.9825" y="-53.9" font-family="Arial" font-size="14.00" fill="#000000">last_edited_at    </text>
<text text-anchor="start" x="717.3331" y="-53.9" font-family="Arial" font-size="14.00" fill="#666666">[timestamp with time zone]</text>
</g>
<!-- public.t_attached_messages&#45;&gt;public.t_messages -->
<g id="edge1" class="edge">
<title>public.t_attached_messages:message_id&#45;&gt;public.t_messages:message_id</title>
<path fill="none" stroke="#000000" d="M544.9135,-456.7828C445.0673,-442.1191 480.3702,-207.5 589,-207.5"/>
<polygon fill="#000000" stroke="#000000" points="545.0252,-456.7907 554.6808,-461.9887 550.0126,-457.1453 555,-457.5 555,-457.5 555,-457.5 550.0126,-457.1453 555.3192,-453.0113 545.0252,-456.7907 545.0252,-456.7907"/>
<text text-anchor="start" x="7.1445" y="-467.5" font-family="Arial" font-size="10.00" fill="#000000">FOREIGN KEY (message_id) REFERENCES t_messages(message_id) ON UPDATE SET NULL ON DELETE SET NULL</text>
</g>
</g>
</svg>
