<?xml version="1.0" encoding="UTF-8" standalone="no"?>
<!DOCTYPE svg PUBLIC "-//W3C//DTD SVG 1.1//EN"
 "http://www.w3.org/Graphics/SVG/1.1/DTD/svg11.dtd">
<!-- Generated by graphviz version 2.40.1 (20161225.0304)
 -->
<!-- Title: public.t_chat_room_create_actions Pages: 1 -->
<svg width="1653pt" height="922pt"
 viewBox="0.00 0.00 1653.00 922.00" xmlns="http://www.w3.org/2000/svg" xmlns:xlink="http://www.w3.org/1999/xlink">
<g id="graph0" class="graph" transform="scale(1 1) rotate(0) translate(4 918)">
<title>public.t_chat_room_create_actions</title>
<polygon fill="#ffffff" stroke="transparent" points="-4,4 -4,-918 1649,-918 1649,4 -4,4"/>
<!-- public.t_chat_room_create_actions -->
<g id="node1" class="node">
<title>public.t_chat_room_create_actions</title>
<polygon fill="#efefef" stroke="transparent" points="676,-832.5 676,-867.5 1096,-867.5 1096,-832.5 676,-832.5"/>
<polygon fill="none" stroke="#000000" points="676,-832.5 676,-867.5 1096,-867.5 1096,-832.5 676,-832.5"/>
<text text-anchor="start" x="682.6782" y="-845.3" font-family="Arial Bold" font-size="18.00" fill="#000000">public.t_chat_room_create_actions</text>
<text text-anchor="start" x="961.7538" y="-845.3" font-family="Arial" font-size="14.00" fill="#000000">    </text>
<text text-anchor="start" x="995.9586" y="-845.3" font-family="Arial" font-size="14.00" fill="#666666">[BASE TABLE]</text>
<polygon fill="none" stroke="#000000" points="676,-802.5 676,-832.5 1096,-832.5 1096,-802.5 676,-802.5"/>
<text text-anchor="start" x="683" y="-813.9" font-family="Arial" font-size="14.00" fill="#000000">t_chat_room_create_actions_pkey </text>
<text text-anchor="start" x="900.8456" y="-813.9" font-family="Arial" font-size="14.00" fill="#666666">[bigint]</text>
<polygon fill="none" stroke="#000000" points="676,-772.5 676,-802.5 1096,-802.5 1096,-772.5 676,-772.5"/>
<text text-anchor="start" x="683" y="-783.9" font-family="Arial" font-size="14.00" fill="#000000">chat_room_create_action_id </text>
<text text-anchor="start" x="863.4964" y="-783.9" font-family="Arial" font-size="14.00" fill="#666666">[uuid]</text>
<polygon fill="none" stroke="#000000" points="676,-742.5 676,-772.5 1096,-772.5 1096,-742.5 676,-742.5"/>
<text text-anchor="start" x="683" y="-753.9" font-family="Arial" font-size="14.00" fill="#000000">chat_room_action_id </text>
<text text-anchor="start" x="816.8148" y="-753.9" font-family="Arial" font-size="14.00" fill="#666666">[uuid]</text>
<polygon fill="none" stroke="#000000" points="676,-712.5 676,-742.5 1096,-742.5 1096,-712.5 676,-712.5"/>
<text text-anchor="start" x="683" y="-723.9" font-family="Arial" font-size="14.00" fill="#000000">created_by </text>
<text text-anchor="start" x="756.1374" y="-723.9" font-family="Arial" font-size="14.00" fill="#666666">[uuid]</text>
<polygon fill="none" stroke="#000000" points="676,-682.5 676,-712.5 1096,-712.5 1096,-682.5 676,-682.5"/>
<text text-anchor="start" x="683" y="-693.9" font-family="Arial" font-size="14.00" fill="#000000">name </text>
<text text-anchor="start" x="721.899" y="-693.9" font-family="Arial" font-size="14.00" fill="#666666">[varchar(255)]</text>
<polygon fill="none" stroke="#000000" stroke-width="3" points="674.5,-681.5 674.5,-869.5 1097.5,-869.5 1097.5,-681.5 674.5,-681.5"/>
</g>
<!-- public.t_chat_room_actions -->
<g id="node2" class="node">
<title>public.t_chat_room_actions</title>
<polygon fill="#efefef" stroke="transparent" points="490,-342.5 490,-377.5 850,-377.5 850,-342.5 490,-342.5"/>
<polygon fill="none" stroke="#000000" points="490,-342.5 490,-377.5 850,-377.5 850,-342.5 490,-342.5"/>
<text text-anchor="start" x="496.6878" y="-355.3" font-family="Arial Bold" font-size="18.00" fill="#000000">public.t_chat_room_actions</text>
<text text-anchor="start" x="715.7442" y="-355.3" font-family="Arial" font-size="14.00" fill="#000000">    </text>
<text text-anchor="start" x="749.949" y="-355.3" font-family="Arial" font-size="14.00" fill="#666666">[BASE TABLE]</text>
<polygon fill="none" stroke="#000000" points="490,-312.5 490,-342.5 850,-342.5 850,-312.5 490,-312.5"/>
<text text-anchor="start" x="497" y="-323.9" font-family="Arial" font-size="14.00" fill="#000000">t_chat_room_actions_pkey    </text>
<text text-anchor="start" x="698.4782" y="-323.9" font-family="Arial" font-size="14.00" fill="#666666">[bigint]</text>
<polygon fill="none" stroke="#000000" points="490,-282.5 490,-312.5 850,-312.5 850,-282.5 490,-282.5"/>
<text text-anchor="start" x="497" y="-293.9" font-family="Arial" font-size="14.00" fill="#000000">chat_room_action_id    </text>
<text text-anchor="start" x="661.129" y="-293.9" font-family="Arial" font-size="14.00" fill="#666666">[uuid]</text>
<polygon fill="none" stroke="#000000" points="490,-252.5 490,-282.5 850,-282.5 850,-252.5 490,-252.5"/>
<text text-anchor="start" x="497" y="-263.9" font-family="Arial" font-size="14.00" fill="#000000">chat_room_action_type_id    </text>
<text text-anchor="start" x="695.3674" y="-263.9" font-family="Arial" font-size="14.00" fill="#666666">[uuid]</text>
<polygon fill="none" stroke="#000000" points="490,-222.5 490,-252.5 850,-252.5 850,-222.5 490,-222.5"/>
<text text-anchor="start" x="497" y="-233.9" font-family="Arial" font-size="14.00" fill="#000000">acted_at    </text>
<text text-anchor="start" x="584.899" y="-233.9" font-family="Arial" font-size="14.00" fill="#666666">[timestamp with time zone]</text>
</g>
<!-- public.t_chat_room_create_actions&#45;&gt;public.t_chat_room_actions -->
<g id="edge1" class="edge">
<title>public.t_chat_room_create_actions:chat_room_action_id&#45;&gt;public.t_chat_room_actions:chat_room_action_id</title>
<path fill="none" stroke="#000000" d="M665.7921,-757.1239C477.4821,-742.3533 1064.9529,-297.5 850,-297.5"/>
<polygon fill="#000000" stroke="#000000" points="666.0068,-757.1317 675.8343,-761.9969 671.0034,-757.3158 676,-757.5 676,-757.5 676,-757.5 671.0034,-757.3158 676.1657,-753.0031 666.0068,-757.1317 666.0068,-757.1317"/>
<text text-anchor="start" x="6.583" y="-767.5" font-family="Arial" font-size="10.00" fill="#000000">FOREIGN KEY (chat_room_action_id) REFERENCES t_chat_room_actions(chat_room_action_id) ON UPDATE RESTRICT ON DELETE RESTRICT</text>
</g>
<!-- public.m_members -->
<g id="node3" class="node">
<title>public.m_members</title>
<polygon fill="#efefef" stroke="transparent" points="955,-522.5 955,-557.5 1248,-557.5 1248,-522.5 955,-522.5"/>
<polygon fill="none" stroke="#000000" points="955,-522.5 955,-557.5 1248,-557.5 1248,-522.5 955,-522.5"/>
<text text-anchor="start" x="961.7146" y="-535.3" font-family="Arial Bold" font-size="18.00" fill="#000000">public.m_members</text>
<text text-anchor="start" x="1113.7174" y="-535.3" font-family="Arial" font-size="14.00" fill="#000000">    </text>
<text text-anchor="start" x="1147.9222" y="-535.3" font-family="Arial" font-size="14.00" fill="#666666">[BASE TABLE]</text>
<polygon fill="none" stroke="#000000" points="955,-492.5 955,-522.5 1248,-522.5 1248,-492.5 955,-492.5"/>
<text text-anchor="start" x="962" y="-503.9" font-family="Arial" font-size="14.00" fill="#000000">m_members_pkey    </text>
<text text-anchor="start" x="1111.3254" y="-503.9" font-family="Arial" font-size="14.00" fill="#666666">[bigint]</text>
<polygon fill="none" stroke="#000000" points="955,-462.5 955,-492.5 1248,-492.5 1248,-462.5 955,-462.5"/>
<text text-anchor="start" x="962" y="-473.9" font-family="Arial" font-size="14.00" fill="#000000">member_id    </text>
<text text-anchor="start" x="1066.2062" y="-473.9" font-family="Arial" font-size="14.00" fill="#666666">[uuid]</text>
<polygon fill="none" stroke="#000000" points="955,-432.5 955,-462.5 1248,-462.5 1248,-432.5 955,-432.5"/>
<text text-anchor="start" x="962" y="-443.9" font-family="Arial" font-size="14.00" fill="#000000">login_id    </text>
<text text-anchor="start" x="1044.4376" y="-443.9" font-family="Arial" font-size="14.00" fill="#666666">[varchar(255)]</text>
<polygon fill="none" stroke="#000000" points="955,-402.5 955,-432.5 1248,-432.5 1248,-402.5 955,-402.5"/>
<text text-anchor="start" x="962" y="-413.9" font-family="Arial" font-size="14.00" fill="#000000">password    </text>
<text text-anchor="start" x="1056.1024" y="-413.9" font-family="Arial" font-size="14.00" fill="#666666">[varchar(255)]</text>
<polygon fill="none" stroke="#000000" points="955,-372.5 955,-402.5 1248,-402.5 1248,-372.5 955,-372.5"/>
<text text-anchor="start" x="962" y="-383.9" font-family="Arial" font-size="14.00" fill="#000000">email    </text>
<text text-anchor="start" x="1029.6438" y="-383.9" font-family="Arial" font-size="14.00" fill="#666666">[varchar(255)]</text>
<polygon fill="none" stroke="#000000" points="955,-342.5 955,-372.5 1248,-372.5 1248,-342.5 955,-342.5"/>
<text text-anchor="start" x="962" y="-353.9" font-family="Arial" font-size="14.00" fill="#000000">name    </text>
<text text-anchor="start" x="1031.2132" y="-353.9" font-family="Arial" font-size="14.00" fill="#666666">[varchar(255)]</text>
<polygon fill="none" stroke="#000000" points="955,-312.5 955,-342.5 1248,-342.5 1248,-312.5 955,-312.5"/>
<text text-anchor="start" x="962" y="-323.9" font-family="Arial" font-size="14.00" fill="#000000">first_name    </text>
<text text-anchor="start" x="1061.5442" y="-323.9" font-family="Arial" font-size="14.00" fill="#666666">[varchar(255)]</text>
<polygon fill="none" stroke="#000000" points="955,-282.5 955,-312.5 1248,-312.5 1248,-282.5 955,-282.5"/>
<text text-anchor="start" x="962" y="-293.9" font-family="Arial" font-size="14.00" fill="#000000">last_name    </text>
<text text-anchor="start" x="1060.7756" y="-293.9" font-family="Arial" font-size="14.00" fill="#666666">[varchar(255)]</text>
<polygon fill="none" stroke="#000000" points="955,-252.5 955,-282.5 1248,-282.5 1248,-252.5 955,-252.5"/>
<text text-anchor="start" x="962" y="-263.9" font-family="Arial" font-size="14.00" fill="#000000">attend_status_id    </text>
<text text-anchor="start" x="1098.9172" y="-263.9" font-family="Arial" font-size="14.00" fill="#666666">[uuid]</text>
<polygon fill="none" stroke="#000000" points="955,-222.5 955,-252.5 1248,-252.5 1248,-222.5 955,-222.5"/>
<text text-anchor="start" x="962" y="-233.9" font-family="Arial" font-size="14.00" fill="#000000">profile_image_id    </text>
<text text-anchor="start" x="1098.8864" y="-233.9" font-family="Arial" font-size="14.00" fill="#666666">[uuid]</text>
<polygon fill="none" stroke="#000000" points="955,-192.5 955,-222.5 1248,-222.5 1248,-192.5 955,-192.5"/>
<text text-anchor="start" x="962" y="-203.9" font-family="Arial" font-size="14.00" fill="#000000">grade_id    </text>
<text text-anchor="start" x="1050.6676" y="-203.9" font-family="Arial" font-size="14.00" fill="#666666">[uuid]</text>
<polygon fill="none" stroke="#000000" points="955,-162.5 955,-192.5 1248,-192.5 1248,-162.5 955,-162.5"/>
<text text-anchor="start" x="962" y="-173.9" font-family="Arial" font-size="14.00" fill="#000000">group_id    </text>
<text text-anchor="start" x="1050.6676" y="-173.9" font-family="Arial" font-size="14.00" fill="#666666">[uuid]</text>
<polygon fill="none" stroke="#000000" points="955,-132.5 955,-162.5 1248,-162.5 1248,-132.5 955,-132.5"/>
<text text-anchor="start" x="962" y="-143.9" font-family="Arial" font-size="14.00" fill="#000000">personal_organization_id    </text>
<text text-anchor="start" x="1152.582" y="-143.9" font-family="Arial" font-size="14.00" fill="#666666">[uuid]</text>
<polygon fill="none" stroke="#000000" points="955,-102.5 955,-132.5 1248,-132.5 1248,-102.5 955,-102.5"/>
<text text-anchor="start" x="962" y="-113.9" font-family="Arial" font-size="14.00" fill="#000000">role_id    </text>
<text text-anchor="start" x="1038.209" y="-113.9" font-family="Arial" font-size="14.00" fill="#666666">[uuid]</text>
<polygon fill="none" stroke="#000000" points="955,-72.5 955,-102.5 1248,-102.5 1248,-72.5 955,-72.5"/>
<text text-anchor="start" x="962" y="-83.9" font-family="Arial" font-size="14.00" fill="#000000">created_at    </text>
<text text-anchor="start" x="1062.3422" y="-83.9" font-family="Arial" font-size="14.00" fill="#666666">[timestamp with time zone]</text>
<polygon fill="none" stroke="#000000" points="955,-42.5 955,-72.5 1248,-72.5 1248,-42.5 955,-42.5"/>
<text text-anchor="start" x="962" y="-53.9" font-family="Arial" font-size="14.00" fill="#000000">updated_at    </text>
<text text-anchor="start" x="1066.2468" y="-53.9" font-family="Arial" font-size="14.00" fill="#666666">[timestamp with time zone]</text>
</g>
<!-- public.t_chat_room_create_actions&#45;&gt;public.m_members -->
<g id="edge2" class="edge">
<title>public.t_chat_room_create_actions:created_by&#45;&gt;public.m_members:member_id</title>
<path fill="none" stroke="#000000" d="M1106.2317,-725.8994C1133.0984,-716.2856 1118.2643,-665.6631 1096,-637 1056.3246,-585.9219 994.6754,-652.0781 955,-601 921.329,-557.652 900.1111,-477.5 955,-477.5"/>
<polygon fill="#000000" stroke="#000000" points="1105.8798,-725.9544 1095.3045,-723.0541 1100.9399,-726.7272 1096,-727.5 1096,-727.5 1096,-727.5 1100.9399,-726.7272 1096.6955,-731.9459 1105.8798,-725.9544 1105.8798,-725.9544"/>
<text text-anchor="start" x="1103.4905" y="-737.5" font-family="Arial" font-size="10.00" fill="#000000">FOREIGN KEY (created_by) REFERENCES m_members(member_id) ON UPDATE SET NULL ON DELETE SET NULL</text>
</g>
</g>
</svg>
