<?xml version="1.0" encoding="UTF-8" standalone="no"?>
<!DOCTYPE svg PUBLIC "-//W3C//DTD SVG 1.1//EN"
 "http://www.w3.org/Graphics/SVG/1.1/DTD/svg11.dtd">
<!-- Generated by graphviz version 2.40.1 (20161225.0304)
 -->
<!-- Title: public.m_role_associations Pages: 1 -->
<svg width="1378pt" height="562pt"
 viewBox="0.00 0.00 1378.00 562.00" xmlns="http://www.w3.org/2000/svg" xmlns:xlink="http://www.w3.org/1999/xlink">
<g id="graph0" class="graph" transform="scale(1 1) rotate(0) translate(4 558)">
<title>public.m_role_associations</title>
<polygon fill="#ffffff" stroke="transparent" points="-4,4 -4,-558 1374,-558 1374,4 -4,4"/>
<!-- public.m_role_associations -->
<g id="node1" class="node">
<title>public.m_role_associations</title>
<polygon fill="#efefef" stroke="transparent" points="490,-472.5 490,-507.5 847,-507.5 847,-472.5 490,-472.5"/>
<polygon fill="none" stroke="#000000" points="490,-472.5 490,-507.5 847,-507.5 847,-472.5 490,-472.5"/>
<text text-anchor="start" x="496.6989" y="-485.3" font-family="Arial Bold" font-size="18.00" fill="#000000">public.m_role_associations</text>
<text text-anchor="start" x="712.7331" y="-485.3" font-family="Arial" font-size="14.00" fill="#000000">    </text>
<text text-anchor="start" x="746.9379" y="-485.3" font-family="Arial" font-size="14.00" fill="#666666">[BASE TABLE]</text>
<polygon fill="none" stroke="#000000" points="490,-442.5 490,-472.5 847,-472.5 847,-442.5 490,-442.5"/>
<text text-anchor="start" x="497" y="-453.9" font-family="Arial" font-size="14.00" fill="#000000">m_role_associations_pkey </text>
<text text-anchor="start" x="665.8134" y="-453.9" font-family="Arial" font-size="14.00" fill="#666666">[bigint]</text>
<polygon fill="none" stroke="#000000" points="490,-412.5 490,-442.5 847,-442.5 847,-412.5 490,-412.5"/>
<text text-anchor="start" x="497" y="-423.9" font-family="Arial" font-size="14.00" fill="#000000">role_id </text>
<text text-anchor="start" x="542.8948" y="-423.9" font-family="Arial" font-size="14.00" fill="#666666">[uuid]</text>
<polygon fill="none" stroke="#000000" points="490,-382.5 490,-412.5 847,-412.5 847,-382.5 490,-382.5"/>
<text text-anchor="start" x="497" y="-393.9" font-family="Arial" font-size="14.00" fill="#000000">policy_id </text>
<text text-anchor="start" x="555.3408" y="-393.9" font-family="Arial" font-size="14.00" fill="#666666">[uuid]</text>
<polygon fill="none" stroke="#000000" stroke-width="3" points="488,-381.5 488,-509.5 848,-509.5 848,-381.5 488,-381.5"/>
</g>
<!-- public.m_roles -->
<g id="node2" class="node">
<title>public.m_roles</title>
<polygon fill="#efefef" stroke="transparent" points="335,-222.5 335,-257.5 618,-257.5 618,-222.5 335,-222.5"/>
<polygon fill="none" stroke="#000000" points="335,-222.5 335,-257.5 618,-257.5 618,-222.5 335,-222.5"/>
<text text-anchor="start" x="354.7128" y="-235.3" font-family="Arial Bold" font-size="18.00" fill="#000000">public.m_roles</text>
<text text-anchor="start" x="470.7192" y="-235.3" font-family="Arial" font-size="14.00" fill="#000000">    </text>
<text text-anchor="start" x="504.924" y="-235.3" font-family="Arial" font-size="14.00" fill="#666666">[BASE TABLE]</text>
<polygon fill="none" stroke="#000000" points="335,-192.5 335,-222.5 618,-222.5 618,-192.5 335,-192.5"/>
<text text-anchor="start" x="342" y="-203.9" font-family="Arial" font-size="14.00" fill="#000000">m_roles_pkey    </text>
<text text-anchor="start" x="463.3282" y="-203.9" font-family="Arial" font-size="14.00" fill="#666666">[bigint]</text>
<polygon fill="none" stroke="#000000" points="335,-162.5 335,-192.5 618,-192.5 618,-162.5 335,-162.5"/>
<text text-anchor="start" x="342" y="-173.9" font-family="Arial" font-size="14.00" fill="#000000">role_id    </text>
<text text-anchor="start" x="418.209" y="-173.9" font-family="Arial" font-size="14.00" fill="#666666">[uuid]</text>
<polygon fill="none" stroke="#000000" points="335,-132.5 335,-162.5 618,-162.5 618,-132.5 335,-132.5"/>
<text text-anchor="start" x="342" y="-143.9" font-family="Arial" font-size="14.00" fill="#000000">name    </text>
<text text-anchor="start" x="411.2132" y="-143.9" font-family="Arial" font-size="14.00" fill="#666666">[varchar(255)]</text>
<polygon fill="none" stroke="#000000" points="335,-102.5 335,-132.5 618,-132.5 618,-102.5 335,-102.5"/>
<text text-anchor="start" x="342" y="-113.9" font-family="Arial" font-size="14.00" fill="#000000">description    </text>
<text text-anchor="start" x="443.8822" y="-113.9" font-family="Arial" font-size="14.00" fill="#666666">[text]</text>
<polygon fill="none" stroke="#000000" points="335,-72.5 335,-102.5 618,-102.5 618,-72.5 335,-72.5"/>
<text text-anchor="start" x="342" y="-83.9" font-family="Arial" font-size="14.00" fill="#000000">created_at    </text>
<text text-anchor="start" x="442.3422" y="-83.9" font-family="Arial" font-size="14.00" fill="#666666">[timestamp with time zone]</text>
<polygon fill="none" stroke="#000000" points="335,-42.5 335,-72.5 618,-72.5 618,-42.5 335,-42.5"/>
<text text-anchor="start" x="341.5344" y="-53.9" font-family="Arial" font-size="14.00" fill="#000000">updated_at    </text>
<text text-anchor="start" x="445.7812" y="-53.9" font-family="Arial" font-size="14.00" fill="#666666">[timestamp with time zone]</text>
</g>
<!-- public.m_role_associations&#45;&gt;public.m_roles -->
<g id="edge1" class="edge">
<title>public.m_role_associations:role_id&#45;&gt;public.m_roles:role_id</title>
<path fill="none" stroke="#000000" d="M479.7783,-425.907C452.9696,-416.3377 468.0839,-365.9303 490,-337 525.6848,-289.8944 582.3152,-348.1056 618,-301 651.1443,-257.2479 672.8889,-177.5 618,-177.5"/>
<polygon fill="#000000" stroke="#000000" points="480.1193,-425.9601 489.307,-431.9463 485.0596,-426.7301 490,-427.5 490,-427.5 490,-427.5 485.0596,-426.7301 490.693,-423.0537 480.1193,-425.9601 480.1193,-425.9601"/>
<text text-anchor="start" x="6.667" y="-437.5" font-family="Arial" font-size="10.00" fill="#000000">FOREIGN KEY (role_id) REFERENCES m_roles(role_id) ON UPDATE CASCADE ON DELETE CASCADE</text>
</g>
<!-- public.m_policies -->
<g id="node3" class="node">
<title>public.m_policies</title>
<polygon fill="#efefef" stroke="transparent" points="722,-222.5 722,-257.5 1000,-257.5 1000,-222.5 722,-222.5"/>
<polygon fill="none" stroke="#000000" points="722,-222.5 722,-257.5 1000,-257.5 1000,-222.5 722,-222.5"/>
<text text-anchor="start" x="728.7116" y="-235.3" font-family="Arial Bold" font-size="18.00" fill="#000000">public.m_policies</text>
<text text-anchor="start" x="865.7204" y="-235.3" font-family="Arial" font-size="14.00" fill="#000000">    </text>
<text text-anchor="start" x="899.9252" y="-235.3" font-family="Arial" font-size="14.00" fill="#666666">[BASE TABLE]</text>
<polygon fill="none" stroke="#000000" points="722,-192.5 722,-222.5 1000,-222.5 1000,-192.5 722,-192.5"/>
<text text-anchor="start" x="729" y="-203.9" font-family="Arial" font-size="14.00" fill="#000000">m_policies_pkey    </text>
<text text-anchor="start" x="866.6634" y="-203.9" font-family="Arial" font-size="14.00" fill="#666666">[bigint]</text>
<polygon fill="none" stroke="#000000" points="722,-162.5 722,-192.5 1000,-192.5 1000,-162.5 722,-162.5"/>
<text text-anchor="start" x="729" y="-173.9" font-family="Arial" font-size="14.00" fill="#000000">policy_id    </text>
<text text-anchor="start" x="817.655" y="-173.9" font-family="Arial" font-size="14.00" fill="#666666">[uuid]</text>
<polygon fill="none" stroke="#000000" points="722,-132.5 722,-162.5 1000,-162.5 1000,-132.5 722,-132.5"/>
<text text-anchor="start" x="729" y="-143.9" font-family="Arial" font-size="14.00" fill="#000000">name    </text>
<text text-anchor="start" x="798.2132" y="-143.9" font-family="Arial" font-size="14.00" fill="#666666">[varchar(255)]</text>
<polygon fill="none" stroke="#000000" points="722,-102.5 722,-132.5 1000,-132.5 1000,-102.5 722,-102.5"/>
<text text-anchor="start" x="729" y="-113.9" font-family="Arial" font-size="14.00" fill="#000000">description    </text>
<text text-anchor="start" x="830.8822" y="-113.9" font-family="Arial" font-size="14.00" fill="#666666">[text]</text>
<polygon fill="none" stroke="#000000" points="722,-72.5 722,-102.5 1000,-102.5 1000,-72.5 722,-72.5"/>
<text text-anchor="start" x="729" y="-83.9" font-family="Arial" font-size="14.00" fill="#000000">key    </text>
<text text-anchor="start" x="784.9874" y="-83.9" font-family="Arial" font-size="14.00" fill="#666666">[varchar(255)]</text>
<polygon fill="none" stroke="#000000" points="722,-42.5 722,-72.5 1000,-72.5 1000,-42.5 722,-42.5"/>
<text text-anchor="start" x="729" y="-53.9" font-family="Arial" font-size="14.00" fill="#000000">policy_category_id    </text>
<text text-anchor="start" x="879.1192" y="-53.9" font-family="Arial" font-size="14.00" fill="#666666">[uuid]</text>
</g>
<!-- public.m_role_associations&#45;&gt;public.m_policies -->
<g id="edge2" class="edge">
<title>public.m_role_associations:policy_id&#45;&gt;public.m_policies:policy_id</title>
<path fill="none" stroke="#000000" d="M856.9723,-394.8581C870.4061,-385.7355 860.6432,-355.127 847,-337 812.2336,-290.8078 756.7664,-347.1922 722,-301 688.9924,-257.1447 667.1111,-177.5 722,-177.5"/>
<polygon fill="#000000" stroke="#000000" points="856.6665,-394.939 845.8476,-393.1501 851.8333,-396.2195 847,-397.5 847,-397.5 847,-397.5 851.8333,-396.2195 848.1524,-401.8499 856.6665,-394.939 856.6665,-394.939"/>
<text text-anchor="start" x="854.284" y="-407.5" font-family="Arial" font-size="10.00" fill="#000000">FOREIGN KEY (policy_id) REFERENCES m_policies(policy_id) ON UPDATE RESTRICT ON DELETE RESTRICT</text>
</g>
</g>
</svg>
