<?xml version="1.0" encoding="UTF-8" standalone="no"?>
<!DOCTYPE svg PUBLIC "-//W3C//DTD SVG 1.1//EN"
 "http://www.w3.org/Graphics/SVG/1.1/DTD/svg11.dtd">
<!-- Generated by graphviz version 2.40.1 (20161225.0304)
 -->
<!-- Title: public.t_position_histories Pages: 1 -->
<svg width="951pt" height="952pt"
 viewBox="0.00 0.00 950.50 952.00" xmlns="http://www.w3.org/2000/svg" xmlns:xlink="http://www.w3.org/1999/xlink">
<g id="graph0" class="graph" transform="scale(1 1) rotate(0) translate(4 948)">
<title>public.t_position_histories</title>
<polygon fill="#ffffff" stroke="transparent" points="-4,4 -4,-948 946.5,-948 946.5,4 -4,4"/>
<!-- public.t_position_histories -->
<g id="node1" class="node">
<title>public.t_position_histories</title>
<polygon fill="#efefef" stroke="transparent" points="550,-862.5 550,-897.5 897,-897.5 897,-862.5 550,-862.5"/>
<polygon fill="none" stroke="#000000" points="550,-862.5 550,-897.5 897,-897.5 897,-862.5 550,-862.5"/>
<text text-anchor="start" x="556.6957" y="-875.3" font-family="Arial Bold" font-size="18.00" fill="#000000">public.t_position_histories</text>
<text text-anchor="start" x="762.7363" y="-875.3" font-family="Arial" font-size="14.00" fill="#000000">    </text>
<text text-anchor="start" x="796.9411" y="-875.3" font-family="Arial" font-size="14.00" fill="#666666">[BASE TABLE]</text>
<polygon fill="none" stroke="#000000" points="550,-832.5 550,-862.5 897,-862.5 897,-832.5 550,-832.5"/>
<text text-anchor="start" x="557" y="-843.9" font-family="Arial" font-size="14.00" fill="#000000">t_position_histories_pkey </text>
<text text-anchor="start" x="718.0406" y="-843.9" font-family="Arial" font-size="14.00" fill="#666666">[bigint]</text>
<polygon fill="none" stroke="#000000" points="550,-802.5 550,-832.5 897,-832.5 897,-802.5 550,-802.5"/>
<text text-anchor="start" x="557" y="-813.9" font-family="Arial" font-size="14.00" fill="#000000">position_history_id </text>
<text text-anchor="start" x="676.8022" y="-813.9" font-family="Arial" font-size="14.00" fill="#666666">[uuid]</text>
<polygon fill="none" stroke="#000000" points="550,-772.5 550,-802.5 897,-802.5 897,-772.5 550,-772.5"/>
<text text-anchor="start" x="557" y="-783.9" font-family="Arial" font-size="14.00" fill="#000000">member_id </text>
<text text-anchor="start" x="630.892" y="-783.9" font-family="Arial" font-size="14.00" fill="#666666">[uuid]</text>
<polygon fill="none" stroke="#000000" points="550,-742.5 550,-772.5 897,-772.5 897,-742.5 550,-742.5"/>
<text text-anchor="start" x="557" y="-753.9" font-family="Arial" font-size="14.00" fill="#000000">x_pos </text>
<text text-anchor="start" x="598.2384" y="-753.9" font-family="Arial" font-size="14.00" fill="#666666">[double precision]</text>
<polygon fill="none" stroke="#000000" points="550,-712.5 550,-742.5 897,-742.5 897,-712.5 550,-712.5"/>
<text text-anchor="start" x="557" y="-723.9" font-family="Arial" font-size="14.00" fill="#000000">y_pos </text>
<text text-anchor="start" x="598.2384" y="-723.9" font-family="Arial" font-size="14.00" fill="#666666">[double precision]</text>
<polygon fill="none" stroke="#000000" points="550,-682.5 550,-712.5 897,-712.5 897,-682.5 550,-682.5"/>
<text text-anchor="start" x="557" y="-693.9" font-family="Arial" font-size="14.00" fill="#000000">sent_at </text>
<text text-anchor="start" x="606.8022" y="-693.9" font-family="Arial" font-size="14.00" fill="#666666">[timestamp with time zone]</text>
<polygon fill="none" stroke="#000000" stroke-width="3" points="548,-681.5 548,-899.5 898,-899.5 898,-681.5 548,-681.5"/>
</g>
<!-- public.m_members -->
<g id="node2" class="node">
<title>public.m_members</title>
<polygon fill="#efefef" stroke="transparent" points="577,-522.5 577,-557.5 870,-557.5 870,-522.5 577,-522.5"/>
<polygon fill="none" stroke="#000000" points="577,-522.5 577,-557.5 870,-557.5 870,-522.5 577,-522.5"/>
<text text-anchor="start" x="583.7146" y="-535.3" font-family="Arial Bold" font-size="18.00" fill="#000000">public.m_members</text>
<text text-anchor="start" x="735.7174" y="-535.3" font-family="Arial" font-size="14.00" fill="#000000">    </text>
<text text-anchor="start" x="769.9222" y="-535.3" font-family="Arial" font-size="14.00" fill="#666666">[BASE TABLE]</text>
<polygon fill="none" stroke="#000000" points="577,-492.5 577,-522.5 870,-522.5 870,-492.5 577,-492.5"/>
<text text-anchor="start" x="584" y="-503.9" font-family="Arial" font-size="14.00" fill="#000000">m_members_pkey    </text>
<text text-anchor="start" x="733.3254" y="-503.9" font-family="Arial" font-size="14.00" fill="#666666">[bigint]</text>
<polygon fill="none" stroke="#000000" points="577,-462.5 577,-492.5 870,-492.5 870,-462.5 577,-462.5"/>
<text text-anchor="start" x="584" y="-473.9" font-family="Arial" font-size="14.00" fill="#000000">member_id    </text>
<text text-anchor="start" x="688.2062" y="-473.9" font-family="Arial" font-size="14.00" fill="#666666">[uuid]</text>
<polygon fill="none" stroke="#000000" points="577,-432.5 577,-462.5 870,-462.5 870,-432.5 577,-432.5"/>
<text text-anchor="start" x="584" y="-443.9" font-family="Arial" font-size="14.00" fill="#000000">login_id    </text>
<text text-anchor="start" x="666.4376" y="-443.9" font-family="Arial" font-size="14.00" fill="#666666">[varchar(255)]</text>
<polygon fill="none" stroke="#000000" points="577,-402.5 577,-432.5 870,-432.5 870,-402.5 577,-402.5"/>
<text text-anchor="start" x="584" y="-413.9" font-family="Arial" font-size="14.00" fill="#000000">password    </text>
<text text-anchor="start" x="678.1024" y="-413.9" font-family="Arial" font-size="14.00" fill="#666666">[varchar(255)]</text>
<polygon fill="none" stroke="#000000" points="577,-372.5 577,-402.5 870,-402.5 870,-372.5 577,-372.5"/>
<text text-anchor="start" x="584" y="-383.9" font-family="Arial" font-size="14.00" fill="#000000">email    </text>
<text text-anchor="start" x="651.6438" y="-383.9" font-family="Arial" font-size="14.00" fill="#666666">[varchar(255)]</text>
<polygon fill="none" stroke="#000000" points="577,-342.5 577,-372.5 870,-372.5 870,-342.5 577,-342.5"/>
<text text-anchor="start" x="584" y="-353.9" font-family="Arial" font-size="14.00" fill="#000000">name    </text>
<text text-anchor="start" x="653.2132" y="-353.9" font-family="Arial" font-size="14.00" fill="#666666">[varchar(255)]</text>
<polygon fill="none" stroke="#000000" points="577,-312.5 577,-342.5 870,-342.5 870,-312.5 577,-312.5"/>
<text text-anchor="start" x="584" y="-323.9" font-family="Arial" font-size="14.00" fill="#000000">first_name    </text>
<text text-anchor="start" x="683.5442" y="-323.9" font-family="Arial" font-size="14.00" fill="#666666">[varchar(255)]</text>
<polygon fill="none" stroke="#000000" points="577,-282.5 577,-312.5 870,-312.5 870,-282.5 577,-282.5"/>
<text text-anchor="start" x="584" y="-293.9" font-family="Arial" font-size="14.00" fill="#000000">last_name    </text>
<text text-anchor="start" x="682.7756" y="-293.9" font-family="Arial" font-size="14.00" fill="#666666">[varchar(255)]</text>
<polygon fill="none" stroke="#000000" points="577,-252.5 577,-282.5 870,-282.5 870,-252.5 577,-252.5"/>
<text text-anchor="start" x="584" y="-263.9" font-family="Arial" font-size="14.00" fill="#000000">attend_status_id    </text>
<text text-anchor="start" x="720.9172" y="-263.9" font-family="Arial" font-size="14.00" fill="#666666">[uuid]</text>
<polygon fill="none" stroke="#000000" points="577,-222.5 577,-252.5 870,-252.5 870,-222.5 577,-222.5"/>
<text text-anchor="start" x="584" y="-233.9" font-family="Arial" font-size="14.00" fill="#000000">profile_image_id    </text>
<text text-anchor="start" x="720.8864" y="-233.9" font-family="Arial" font-size="14.00" fill="#666666">[uuid]</text>
<polygon fill="none" stroke="#000000" points="577,-192.5 577,-222.5 870,-222.5 870,-192.5 577,-192.5"/>
<text text-anchor="start" x="584" y="-203.9" font-family="Arial" font-size="14.00" fill="#000000">grade_id    </text>
<text text-anchor="start" x="672.6676" y="-203.9" font-family="Arial" font-size="14.00" fill="#666666">[uuid]</text>
<polygon fill="none" stroke="#000000" points="577,-162.5 577,-192.5 870,-192.5 870,-162.5 577,-162.5"/>
<text text-anchor="start" x="584" y="-173.9" font-family="Arial" font-size="14.00" fill="#000000">group_id    </text>
<text text-anchor="start" x="672.6676" y="-173.9" font-family="Arial" font-size="14.00" fill="#666666">[uuid]</text>
<polygon fill="none" stroke="#000000" points="577,-132.5 577,-162.5 870,-162.5 870,-132.5 577,-132.5"/>
<text text-anchor="start" x="584" y="-143.9" font-family="Arial" font-size="14.00" fill="#000000">personal_organization_id    </text>
<text text-anchor="start" x="774.582" y="-143.9" font-family="Arial" font-size="14.00" fill="#666666">[uuid]</text>
<polygon fill="none" stroke="#000000" points="577,-102.5 577,-132.5 870,-132.5 870,-102.5 577,-102.5"/>
<text text-anchor="start" x="584" y="-113.9" font-family="Arial" font-size="14.00" fill="#000000">role_id    </text>
<text text-anchor="start" x="660.209" y="-113.9" font-family="Arial" font-size="14.00" fill="#666666">[uuid]</text>
<polygon fill="none" stroke="#000000" points="577,-72.5 577,-102.5 870,-102.5 870,-72.5 577,-72.5"/>
<text text-anchor="start" x="584" y="-83.9" font-family="Arial" font-size="14.00" fill="#000000">created_at    </text>
<text text-anchor="start" x="684.3422" y="-83.9" font-family="Arial" font-size="14.00" fill="#666666">[timestamp with time zone]</text>
<polygon fill="none" stroke="#000000" points="577,-42.5 577,-72.5 870,-72.5 870,-42.5 577,-42.5"/>
<text text-anchor="start" x="584" y="-53.9" font-family="Arial" font-size="14.00" fill="#000000">updated_at    </text>
<text text-anchor="start" x="688.2468" y="-53.9" font-family="Arial" font-size="14.00" fill="#666666">[timestamp with time zone]</text>
</g>
<!-- public.t_position_histories&#45;&gt;public.m_members -->
<g id="edge1" class="edge">
<title>public.t_position_histories:member_id&#45;&gt;public.m_members:member_id</title>
<path fill="none" stroke="#000000" d="M540.2022,-785.183C483.7012,-756.815 511.3618,-477.5 577,-477.5"/>
<polygon fill="#000000" stroke="#000000" points="540.2684,-785.1985 548.9643,-791.8792 545.1342,-786.3493 550,-787.5 550,-787.5 550,-787.5 545.1342,-786.3493 551.0357,-783.1208 540.2684,-785.1985 540.2684,-785.1985"/>
<text text-anchor="start" x="6.67" y="-797.5" font-family="Arial" font-size="10.00" fill="#000000">FOREIGN KEY (member_id) REFERENCES m_members(member_id) ON UPDATE CASCADE ON DELETE CASCADE</text>
</g>
</g>
</svg>
