<?xml version="1.0" encoding="UTF-8" standalone="no"?>
<!DOCTYPE svg PUBLIC "-//W3C//DTD SVG 1.1//EN"
 "http://www.w3.org/Graphics/SVG/1.1/DTD/svg11.dtd">
<!-- Generated by graphviz version 2.40.1 (20161225.0304)
 -->
<!-- Title: public.m_work_positions Pages: 1 -->
<svg width="1031pt" height="1049pt"
 viewBox="0.00 0.00 1031.00 1049.00" xmlns="http://www.w3.org/2000/svg" xmlns:xlink="http://www.w3.org/1999/xlink">
<g id="graph0" class="graph" transform="scale(1 1) rotate(0) translate(4 1045)">
<title>public.m_work_positions</title>
<polygon fill="#ffffff" stroke="transparent" points="-4,4 -4,-1045 1027,-1045 1027,4 -4,4"/>
<!-- public.m_work_positions -->
<g id="node1" class="node">
<title>public.m_work_positions</title>
<polygon fill="#efefef" stroke="transparent" points="604,-712.5 604,-747.5 941,-747.5 941,-712.5 604,-712.5"/>
<polygon fill="none" stroke="#000000" points="604,-712.5 604,-747.5 941,-747.5 941,-712.5 604,-712.5"/>
<text text-anchor="start" x="610.7051" y="-725.3" font-family="Arial Bold" font-size="18.00" fill="#000000">public.m_work_positions</text>
<text text-anchor="start" x="806.7269" y="-725.3" font-family="Arial" font-size="14.00" fill="#000000">    </text>
<text text-anchor="start" x="840.9317" y="-725.3" font-family="Arial" font-size="14.00" fill="#666666">[BASE TABLE]</text>
<polygon fill="none" stroke="#000000" points="604,-682.5 604,-712.5 941,-712.5 941,-682.5 604,-682.5"/>
<text text-anchor="start" x="611" y="-693.9" font-family="Arial" font-size="14.00" fill="#000000">m_work_positions_pkey </text>
<text text-anchor="start" x="764.2482" y="-693.9" font-family="Arial" font-size="14.00" fill="#666666">[bigint]</text>
<polygon fill="none" stroke="#000000" points="604,-652.5 604,-682.5 941,-682.5 941,-652.5 604,-652.5"/>
<text text-anchor="start" x="611" y="-663.9" font-family="Arial" font-size="14.00" fill="#000000">work_position_id </text>
<text text-anchor="start" x="719.129" y="-663.9" font-family="Arial" font-size="14.00" fill="#666666">[uuid]</text>
<polygon fill="none" stroke="#000000" points="604,-622.5 604,-652.5 941,-652.5 941,-622.5 604,-622.5"/>
<text text-anchor="start" x="611" y="-633.9" font-family="Arial" font-size="14.00" fill="#000000">organization_id </text>
<text text-anchor="start" x="709.805" y="-633.9" font-family="Arial" font-size="14.00" fill="#666666">[uuid]</text>
<polygon fill="none" stroke="#000000" points="604,-592.5 604,-622.5 941,-622.5 941,-592.5 604,-592.5"/>
<text text-anchor="start" x="611" y="-603.9" font-family="Arial" font-size="14.00" fill="#000000">name </text>
<text text-anchor="start" x="649.899" y="-603.9" font-family="Arial" font-size="14.00" fill="#666666">[varchar(255)]</text>
<polygon fill="none" stroke="#000000" points="604,-562.5 604,-592.5 941,-592.5 941,-562.5 604,-562.5"/>
<text text-anchor="start" x="611" y="-573.9" font-family="Arial" font-size="14.00" fill="#000000">description </text>
<text text-anchor="start" x="682.568" y="-573.9" font-family="Arial" font-size="14.00" fill="#666666">[text]</text>
<polygon fill="none" stroke="#000000" points="604,-532.5 604,-562.5 941,-562.5 941,-532.5 604,-532.5"/>
<text text-anchor="start" x="611" y="-543.9" font-family="Arial" font-size="14.00" fill="#000000">created_at </text>
<text text-anchor="start" x="681.028" y="-543.9" font-family="Arial" font-size="14.00" fill="#666666">[timestamp with time zone]</text>
<polygon fill="none" stroke="#000000" points="604,-502.5 604,-532.5 941,-532.5 941,-502.5 604,-502.5"/>
<text text-anchor="start" x="611" y="-513.9" font-family="Arial" font-size="14.00" fill="#000000">updated_at </text>
<text text-anchor="start" x="684.9326" y="-513.9" font-family="Arial" font-size="14.00" fill="#666666">[timestamp with time zone]</text>
<polygon fill="none" stroke="#000000" stroke-width="3" points="602,-501.5 602,-749.5 942,-749.5 942,-501.5 602,-501.5"/>
</g>
<!-- public.m_organizations -->
<g id="node3" class="node">
<title>public.m_organizations</title>
<polygon fill="#efefef" stroke="transparent" points="610,-342.5 610,-377.5 935,-377.5 935,-342.5 610,-342.5"/>
<polygon fill="none" stroke="#000000" points="610,-342.5 610,-377.5 935,-377.5 935,-342.5 610,-342.5"/>
<text text-anchor="start" x="616.6991" y="-355.3" font-family="Arial Bold" font-size="18.00" fill="#000000">public.m_organizations</text>
<text text-anchor="start" x="800.7329" y="-355.3" font-family="Arial" font-size="14.00" fill="#000000">    </text>
<text text-anchor="start" x="834.9377" y="-355.3" font-family="Arial" font-size="14.00" fill="#666666">[BASE TABLE]</text>
<polygon fill="none" stroke="#000000" points="610,-312.5 610,-342.5 935,-342.5 935,-312.5 610,-312.5"/>
<text text-anchor="start" x="617" y="-323.9" font-family="Arial" font-size="14.00" fill="#000000">m_organizations_pkey    </text>
<text text-anchor="start" x="791.2384" y="-323.9" font-family="Arial" font-size="14.00" fill="#666666">[bigint]</text>
<polygon fill="none" stroke="#000000" points="610,-282.5 610,-312.5 935,-312.5 935,-282.5 610,-282.5"/>
<text text-anchor="start" x="617" y="-293.9" font-family="Arial" font-size="14.00" fill="#000000">organization_id    </text>
<text text-anchor="start" x="746.1192" y="-293.9" font-family="Arial" font-size="14.00" fill="#666666">[uuid]</text>
<polygon fill="none" stroke="#000000" points="610,-252.5 610,-282.5 935,-282.5 935,-252.5 610,-252.5"/>
<text text-anchor="start" x="617" y="-263.9" font-family="Arial" font-size="14.00" fill="#000000">name    </text>
<text text-anchor="start" x="686.2132" y="-263.9" font-family="Arial" font-size="14.00" fill="#666666">[varchar(255)]</text>
<polygon fill="none" stroke="#000000" points="610,-222.5 610,-252.5 935,-252.5 935,-222.5 610,-222.5"/>
<text text-anchor="start" x="617" y="-233.9" font-family="Arial" font-size="14.00" fill="#000000">description    </text>
<text text-anchor="start" x="718.8822" y="-233.9" font-family="Arial" font-size="14.00" fill="#666666">[text]</text>
<polygon fill="none" stroke="#000000" points="610,-192.5 610,-222.5 935,-222.5 935,-192.5 610,-192.5"/>
<text text-anchor="start" x="617" y="-203.9" font-family="Arial" font-size="14.00" fill="#000000">color    </text>
<text text-anchor="start" x="681.5372" y="-203.9" font-family="Arial" font-size="14.00" fill="#666666">[varchar(7)]</text>
<polygon fill="none" stroke="#000000" points="610,-162.5 610,-192.5 935,-192.5 935,-162.5 610,-162.5"/>
<text text-anchor="start" x="617" y="-173.9" font-family="Arial" font-size="14.00" fill="#000000">is_personal    </text>
<text text-anchor="start" x="722.7742" y="-173.9" font-family="Arial" font-size="14.00" fill="#666666">[boolean]</text>
<polygon fill="none" stroke="#000000" points="610,-132.5 610,-162.5 935,-162.5 935,-132.5 610,-132.5"/>
<text text-anchor="start" x="617" y="-143.9" font-family="Arial" font-size="14.00" fill="#000000">is_whole    </text>
<text text-anchor="start" x="705.655" y="-143.9" font-family="Arial" font-size="14.00" fill="#666666">[boolean]</text>
<polygon fill="none" stroke="#000000" points="610,-102.5 610,-132.5 935,-132.5 935,-102.5 610,-102.5"/>
<text text-anchor="start" x="617" y="-113.9" font-family="Arial" font-size="14.00" fill="#000000">created_at    </text>
<text text-anchor="start" x="717.3422" y="-113.9" font-family="Arial" font-size="14.00" fill="#666666">[timestamp with time zone]</text>
<polygon fill="none" stroke="#000000" points="610,-72.5 610,-102.5 935,-102.5 935,-72.5 610,-72.5"/>
<text text-anchor="start" x="617" y="-83.9" font-family="Arial" font-size="14.00" fill="#000000">updated_at    </text>
<text text-anchor="start" x="721.2468" y="-83.9" font-family="Arial" font-size="14.00" fill="#666666">[timestamp with time zone]</text>
<polygon fill="none" stroke="#000000" points="610,-42.5 610,-72.5 935,-72.5 935,-42.5 610,-42.5"/>
<text text-anchor="start" x="617" y="-53.9" font-family="Arial" font-size="14.00" fill="#000000">chat_room_id    </text>
<text text-anchor="start" x="736.0014" y="-53.9" font-family="Arial" font-size="14.00" fill="#666666">[uuid]</text>
</g>
<!-- public.m_work_positions&#45;&gt;public.m_organizations -->
<g id="edge2" class="edge">
<title>public.m_work_positions:organization_id&#45;&gt;public.m_organizations:organization_id</title>
<path fill="none" stroke="#000000" d="M593.6321,-636.9485C453.2263,-621.7493 462.4076,-297.5 610,-297.5"/>
<polygon fill="#000000" stroke="#000000" points="594.0141,-636.9687 603.7609,-641.9936 599.0071,-637.2343 604,-637.5 604,-637.5 604,-637.5 599.0071,-637.2343 604.2391,-633.0064 594.0141,-636.9687 594.0141,-636.9687"/>
<text text-anchor="start" x="6.9775" y="-647.5" font-family="Arial" font-size="10.00" fill="#000000">FOREIGN KEY (organization_id) REFERENCES m_organizations(organization_id) ON UPDATE CASCADE ON DELETE CASCADE</text>
</g>
<!-- public.m_permission_associations -->
<g id="node2" class="node">
<title>public.m_permission_associations</title>
<polygon fill="#efefef" stroke="transparent" points="566,-962.5 566,-997.5 980,-997.5 980,-962.5 566,-962.5"/>
<polygon fill="none" stroke="#000000" points="566,-962.5 566,-997.5 980,-997.5 980,-962.5 566,-962.5"/>
<text text-anchor="start" x="572.6995" y="-975.3" font-family="Arial Bold" font-size="18.00" fill="#000000">public.m_permission_associations</text>
<text text-anchor="start" x="845.7325" y="-975.3" font-family="Arial" font-size="14.00" fill="#000000">    </text>
<text text-anchor="start" x="879.9373" y="-975.3" font-family="Arial" font-size="14.00" fill="#666666">[BASE TABLE]</text>
<polygon fill="none" stroke="#000000" points="566,-932.5 566,-962.5 980,-962.5 980,-932.5 566,-932.5"/>
<text text-anchor="start" x="573" y="-943.9" font-family="Arial" font-size="14.00" fill="#000000">m_permission_associations_pkey    </text>
<text text-anchor="start" x="816.46" y="-943.9" font-family="Arial" font-size="14.00" fill="#666666">[bigint]</text>
<polygon fill="none" stroke="#000000" points="566,-902.5 566,-932.5 980,-932.5 980,-902.5 566,-902.5"/>
<text text-anchor="start" x="573" y="-913.9" font-family="Arial" font-size="14.00" fill="#000000">permission_id    </text>
<text text-anchor="start" x="693.5414" y="-913.9" font-family="Arial" font-size="14.00" fill="#666666">[uuid]</text>
<polygon fill="none" stroke="#000000" points="566,-872.5 566,-902.5 980,-902.5 980,-872.5 566,-872.5"/>
<text text-anchor="start" x="573" y="-883.9" font-family="Arial" font-size="14.00" fill="#000000">work_position_id    </text>
<text text-anchor="start" x="711.4432" y="-883.9" font-family="Arial" font-size="14.00" fill="#666666">[uuid]</text>
</g>
<!-- public.m_permission_associations&#45;&gt;public.m_work_positions -->
<g id="edge1" class="edge">
<title>public.m_permission_associations:work_position_id&#45;&gt;public.m_work_positions:work_position_id</title>
<path fill="none" stroke="#000000" d="M773.7307,-862.3097C783.9573,-796.3941 898.7333,-860.4028 941,-794 971.1896,-746.5708 997.2222,-667.5 941,-667.5"/>
<polygon fill="#000000" stroke="#000000" points="773.7153,-862.5256 768.5115,-872.1781 773.3577,-867.5128 773,-872.5 773,-872.5 773,-872.5 773.3577,-867.5128 777.4885,-872.8219 773.7153,-862.5256 773.7153,-862.5256"/>
<text text-anchor="start" x="153.3285" y="-882.5" font-family="Arial" font-size="10.00" fill="#000000">FOREIGN KEY (work_position_id) REFERENCES m_work_positions(work_position_id) ON UPDATE RESTRICT ON DELETE RESTRICT</text>
</g>
</g>
</svg>
