<?xml version="1.0" encoding="UTF-8" standalone="no"?>
<!DOCTYPE svg PUBLIC "-//W3C//DTD SVG 1.1//EN"
 "http://www.w3.org/Graphics/SVG/1.1/DTD/svg11.dtd">
<!-- Generated by graphviz version 2.40.1 (20161225.0304)
 -->
<!-- Title: public.m_mime_types Pages: 1 -->
<svg width="985pt" height="592pt"
 viewBox="0.00 0.00 985.00 592.00" xmlns="http://www.w3.org/2000/svg" xmlns:xlink="http://www.w3.org/1999/xlink">
<g id="graph0" class="graph" transform="scale(1 1) rotate(0) translate(4 588)">
<title>public.m_mime_types</title>
<polygon fill="#ffffff" stroke="transparent" points="-4,4 -4,-588 981,-588 981,4 -4,4"/>
<!-- public.m_mime_types -->
<g id="node1" class="node">
<title>public.m_mime_types</title>
<polygon fill="#efefef" stroke="transparent" points="604,-165.5 604,-200.5 919,-200.5 919,-165.5 604,-165.5"/>
<polygon fill="none" stroke="#000000" points="604,-165.5 604,-200.5 919,-200.5 919,-165.5 604,-165.5"/>
<text text-anchor="start" x="610.7094" y="-178.3" font-family="Arial Bold" font-size="18.00" fill="#000000">public.m_mime_types</text>
<text text-anchor="start" x="784.7226" y="-178.3" font-family="Arial" font-size="14.00" fill="#000000">    </text>
<text text-anchor="start" x="818.9274" y="-178.3" font-family="Arial" font-size="14.00" fill="#666666">[BASE TABLE]</text>
<polygon fill="none" stroke="#000000" points="604,-135.5 604,-165.5 919,-165.5 919,-135.5 604,-135.5"/>
<text text-anchor="start" x="611" y="-146.9" font-family="Arial" font-size="14.00" fill="#000000">m_mime_types_pkey </text>
<text text-anchor="start" x="747.1304" y="-146.9" font-family="Arial" font-size="14.00" fill="#666666">[bigint]</text>
<polygon fill="none" stroke="#000000" points="604,-105.5 604,-135.5 919,-135.5 919,-105.5 604,-105.5"/>
<text text-anchor="start" x="611" y="-116.9" font-family="Arial" font-size="14.00" fill="#000000">mime_type_id </text>
<text text-anchor="start" x="702.0112" y="-116.9" font-family="Arial" font-size="14.00" fill="#666666">[uuid]</text>
<polygon fill="none" stroke="#000000" points="604,-75.5 604,-105.5 919,-105.5 919,-75.5 604,-75.5"/>
<text text-anchor="start" x="611" y="-86.9" font-family="Arial" font-size="14.00" fill="#000000">name </text>
<text text-anchor="start" x="649.899" y="-86.9" font-family="Arial" font-size="14.00" fill="#666666">[varchar(255)]</text>
<polygon fill="none" stroke="#000000" points="604,-45.5 604,-75.5 919,-75.5 919,-45.5 604,-45.5"/>
<text text-anchor="start" x="611" y="-56.9" font-family="Arial" font-size="14.00" fill="#000000">key </text>
<text text-anchor="start" x="636.6732" y="-56.9" font-family="Arial" font-size="14.00" fill="#666666">[varchar(255)]</text>
<polygon fill="none" stroke="#000000" stroke-width="3" points="602,-44.5 602,-202.5 920,-202.5 920,-44.5 602,-44.5"/>
</g>
<!-- public.t_attachable_items -->
<g id="node2" class="node">
<title>public.t_attachable_items</title>
<polygon fill="#efefef" stroke="transparent" points="590,-505.5 590,-540.5 934,-540.5 934,-505.5 590,-505.5"/>
<polygon fill="none" stroke="#000000" points="590,-505.5 590,-540.5 934,-540.5 934,-505.5 590,-505.5"/>
<text text-anchor="start" x="596.6888" y="-518.3" font-family="Arial Bold" font-size="18.00" fill="#000000">public.t_attachable_items</text>
<text text-anchor="start" x="799.7432" y="-518.3" font-family="Arial" font-size="14.00" fill="#000000">    </text>
<text text-anchor="start" x="833.948" y="-518.3" font-family="Arial" font-size="14.00" fill="#666666">[BASE TABLE]</text>
<polygon fill="none" stroke="#000000" points="590,-475.5 590,-505.5 934,-505.5 934,-475.5 590,-475.5"/>
<text text-anchor="start" x="597" y="-486.9" font-family="Arial" font-size="14.00" fill="#000000">t_attachable_items_pkey    </text>
<text text-anchor="start" x="786.0322" y="-486.9" font-family="Arial" font-size="14.00" fill="#666666">[bigint]</text>
<polygon fill="none" stroke="#000000" points="590,-445.5 590,-475.5 934,-475.5 934,-445.5 590,-445.5"/>
<text text-anchor="start" x="597" y="-456.9" font-family="Arial" font-size="14.00" fill="#000000">attachable_item_id    </text>
<text text-anchor="start" x="748.683" y="-456.9" font-family="Arial" font-size="14.00" fill="#666666">[uuid]</text>
<polygon fill="none" stroke="#000000" points="590,-415.5 590,-445.5 934,-445.5 934,-415.5 590,-415.5"/>
<text text-anchor="start" x="597" y="-426.9" font-family="Arial" font-size="14.00" fill="#000000">url    </text>
<text text-anchor="start" x="646.7546" y="-426.9" font-family="Arial" font-size="14.00" fill="#666666">[text]</text>
<polygon fill="none" stroke="#000000" points="590,-385.5 590,-415.5 934,-415.5 934,-385.5 590,-385.5"/>
<text text-anchor="start" x="597" y="-396.9" font-family="Arial" font-size="14.00" fill="#000000">size    </text>
<text text-anchor="start" x="656.094" y="-396.9" font-family="Arial" font-size="14.00" fill="#666666">[double precision]</text>
<polygon fill="none" stroke="#000000" points="590,-355.5 590,-385.5 934,-385.5 934,-355.5 590,-355.5"/>
<text text-anchor="start" x="597" y="-366.9" font-family="Arial" font-size="14.00" fill="#000000">mime_type_id    </text>
<text text-anchor="start" x="718.3254" y="-366.9" font-family="Arial" font-size="14.00" fill="#666666">[uuid]</text>
<polygon fill="none" stroke="#000000" points="590,-325.5 590,-355.5 934,-355.5 934,-325.5 590,-325.5"/>
<text text-anchor="start" x="597" y="-336.9" font-family="Arial" font-size="14.00" fill="#000000">owner_id    </text>
<text text-anchor="start" x="687.9916" y="-336.9" font-family="Arial" font-size="14.00" fill="#666666">[uuid]</text>
</g>
<!-- public.t_attachable_items&#45;&gt;public.m_mime_types -->
<g id="edge1" class="edge">
<title>public.t_attachable_items:mime_type_id&#45;&gt;public.m_mime_types:mime_type_id</title>
<path fill="none" stroke="#000000" d="M580.0532,-368.9071C553.7606,-359.3477 566.5752,-309.1279 590,-283 639.0961,-228.2386 869.9039,-301.7614 919,-247 956.5307,-205.1385 975.2222,-120.5 919,-120.5"/>
<polygon fill="#000000" stroke="#000000" points="580.1258,-368.9187 589.2884,-374.9434 585.0629,-369.7093 590,-370.5 590,-370.5 590,-370.5 585.0629,-369.7093 590.7116,-366.0566 580.1258,-368.9187 580.1258,-368.9187"/>
<text text-anchor="start" x="6.669" y="-380.5" font-family="Arial" font-size="10.00" fill="#000000">FOREIGN KEY (mime_type_id) REFERENCES m_mime_types(mime_type_id) ON UPDATE RESTRICT ON DELETE RESTRICT</text>
</g>
</g>
</svg>
