<?xml version="1.0" encoding="UTF-8" standalone="no"?>
<!DOCTYPE svg PUBLIC "-//W3C//DTD SVG 1.1//EN"
 "http://www.w3.org/Graphics/SVG/1.1/DTD/svg11.dtd">
<!-- Generated by graphviz version 2.40.1 (20161225.0304)
 -->
<!-- Title: public.t_chat_room_added_members Pages: 1 -->
<svg width="1861pt" height="862pt"
 viewBox="0.00 0.00 1861.00 862.00" xmlns="http://www.w3.org/2000/svg" xmlns:xlink="http://www.w3.org/1999/xlink">
<g id="graph0" class="graph" transform="scale(1 1) rotate(0) translate(4 858)">
<title>public.t_chat_room_added_members</title>
<polygon fill="#ffffff" stroke="transparent" points="-4,4 -4,-858 1857,-858 1857,4 -4,4"/>
<!-- public.t_chat_room_added_members -->
<g id="node1" class="node">
<title>public.t_chat_room_added_members</title>
<polygon fill="#efefef" stroke="transparent" points="866,-772.5 866,-807.5 1304,-807.5 1304,-772.5 866,-772.5"/>
<polygon fill="none" stroke="#000000" points="866,-772.5 866,-807.5 1304,-807.5 1304,-772.5 866,-772.5"/>
<text text-anchor="start" x="872.6791" y="-785.3" font-family="Arial Bold" font-size="18.00" fill="#000000">public.t_chat_room_added_members</text>
<text text-anchor="start" x="1169.7529" y="-785.3" font-family="Arial" font-size="14.00" fill="#000000">    </text>
<text text-anchor="start" x="1203.9577" y="-785.3" font-family="Arial" font-size="14.00" fill="#666666">[BASE TABLE]</text>
<polygon fill="none" stroke="#000000" points="866,-742.5 866,-772.5 1304,-772.5 1304,-742.5 866,-742.5"/>
<text text-anchor="start" x="873" y="-753.9" font-family="Arial" font-size="14.00" fill="#000000">t_chat_room_added_members_pkey </text>
<text text-anchor="start" x="1104.8442" y="-753.9" font-family="Arial" font-size="14.00" fill="#666666">[bigint]</text>
<polygon fill="none" stroke="#000000" points="866,-712.5 866,-742.5 1304,-742.5 1304,-712.5 866,-712.5"/>
<text text-anchor="start" x="873" y="-723.9" font-family="Arial" font-size="14.00" fill="#000000">chat_room_add_member_action_id </text>
<text text-anchor="start" x="1097.0574" y="-723.9" font-family="Arial" font-size="14.00" fill="#666666">[uuid]</text>
<polygon fill="none" stroke="#000000" points="866,-682.5 866,-712.5 1304,-712.5 1304,-682.5 866,-682.5"/>
<text text-anchor="start" x="873" y="-693.9" font-family="Arial" font-size="14.00" fill="#000000">member_id </text>
<text text-anchor="start" x="946.892" y="-693.9" font-family="Arial" font-size="14.00" fill="#666666">[uuid]</text>
<polygon fill="none" stroke="#000000" stroke-width="3" points="864.5,-681.5 864.5,-809.5 1305.5,-809.5 1305.5,-681.5 864.5,-681.5"/>
</g>
<!-- public.t_chat_room_add_member_actions -->
<g id="node2" class="node">
<title>public.t_chat_room_add_member_actions</title>
<polygon fill="#efefef" stroke="transparent" points="602,-342.5 602,-377.5 1078,-377.5 1078,-342.5 602,-342.5"/>
<polygon fill="none" stroke="#000000" points="602,-342.5 602,-377.5 1078,-377.5 1078,-342.5 602,-342.5"/>
<text text-anchor="start" x="608.6747" y="-355.3" font-family="Arial Bold" font-size="18.00" fill="#000000">public.t_chat_room_add_member_actions</text>
<text text-anchor="start" x="943.7573" y="-355.3" font-family="Arial" font-size="14.00" fill="#000000">    </text>
<text text-anchor="start" x="977.9621" y="-355.3" font-family="Arial" font-size="14.00" fill="#666666">[BASE TABLE]</text>
<polygon fill="none" stroke="#000000" points="602,-312.5 602,-342.5 1078,-342.5 1078,-312.5 602,-312.5"/>
<text text-anchor="start" x="609" y="-323.9" font-family="Arial" font-size="14.00" fill="#000000">t_chat_room_add_member_actions_pkey    </text>
<text text-anchor="start" x="900.7208" y="-323.9" font-family="Arial" font-size="14.00" fill="#666666">[bigint]</text>
<polygon fill="none" stroke="#000000" points="602,-282.5 602,-312.5 1078,-312.5 1078,-282.5 602,-282.5"/>
<text text-anchor="start" x="609" y="-293.9" font-family="Arial" font-size="14.00" fill="#000000">chat_room_add_member_action_id    </text>
<text text-anchor="start" x="863.3716" y="-293.9" font-family="Arial" font-size="14.00" fill="#666666">[uuid]</text>
<polygon fill="none" stroke="#000000" points="602,-252.5 602,-282.5 1078,-282.5 1078,-252.5 602,-252.5"/>
<text text-anchor="start" x="609" y="-263.9" font-family="Arial" font-size="14.00" fill="#000000">chat_room_action_id    </text>
<text text-anchor="start" x="773.129" y="-263.9" font-family="Arial" font-size="14.00" fill="#666666">[uuid]</text>
<polygon fill="none" stroke="#000000" points="602,-222.5 602,-252.5 1078,-252.5 1078,-222.5 602,-222.5"/>
<text text-anchor="start" x="609" y="-233.9" font-family="Arial" font-size="14.00" fill="#000000">added_by    </text>
<text text-anchor="start" x="704.683" y="-233.9" font-family="Arial" font-size="14.00" fill="#666666">[uuid]</text>
</g>
<!-- public.t_chat_room_added_members&#45;&gt;public.t_chat_room_add_member_actions -->
<g id="edge1" class="edge">
<title>public.t_chat_room_added_members:chat_room_add_member_action_id&#45;&gt;public.t_chat_room_add_member_actions:chat_room_add_member_action_id</title>
<path fill="none" stroke="#000000" d="M856.0124,-726.0405C830.568,-717.249 852.2676,-670.5961 866,-637 916.8947,-512.4867 1027.1053,-545.5133 1078,-421 1098.7679,-370.1917 1132.8889,-297.5 1078,-297.5"/>
<polygon fill="#000000" stroke="#000000" points="856.1051,-726.054 865.3493,-731.9527 861.0525,-726.777 866,-727.5 866,-727.5 866,-727.5 861.0525,-726.777 866.6507,-723.0473 856.1051,-726.054 856.1051,-726.054"/>
<text text-anchor="start" x="6.5535" y="-737.5" font-family="Arial" font-size="10.00" fill="#000000">FOREIGN KEY (chat_room_add_member_action_id) REFERENCES t_chat_room_add_member_actions(chat_room_add_member_action_id) ON UPDATE CASCADE ON DELETE CASCADE</text>
</g>
<!-- public.m_members -->
<g id="node3" class="node">
<title>public.m_members</title>
<polygon fill="#efefef" stroke="transparent" points="1183,-522.5 1183,-557.5 1476,-557.5 1476,-522.5 1183,-522.5"/>
<polygon fill="none" stroke="#000000" points="1183,-522.5 1183,-557.5 1476,-557.5 1476,-522.5 1183,-522.5"/>
<text text-anchor="start" x="1189.7146" y="-535.3" font-family="Arial Bold" font-size="18.00" fill="#000000">public.m_members</text>
<text text-anchor="start" x="1341.7174" y="-535.3" font-family="Arial" font-size="14.00" fill="#000000">    </text>
<text text-anchor="start" x="1375.9222" y="-535.3" font-family="Arial" font-size="14.00" fill="#666666">[BASE TABLE]</text>
<polygon fill="none" stroke="#000000" points="1183,-492.5 1183,-522.5 1476,-522.5 1476,-492.5 1183,-492.5"/>
<text text-anchor="start" x="1190" y="-503.9" font-family="Arial" font-size="14.00" fill="#000000">m_members_pkey    </text>
<text text-anchor="start" x="1339.3254" y="-503.9" font-family="Arial" font-size="14.00" fill="#666666">[bigint]</text>
<polygon fill="none" stroke="#000000" points="1183,-462.5 1183,-492.5 1476,-492.5 1476,-462.5 1183,-462.5"/>
<text text-anchor="start" x="1190" y="-473.9" font-family="Arial" font-size="14.00" fill="#000000">member_id    </text>
<text text-anchor="start" x="1294.2062" y="-473.9" font-family="Arial" font-size="14.00" fill="#666666">[uuid]</text>
<polygon fill="none" stroke="#000000" points="1183,-432.5 1183,-462.5 1476,-462.5 1476,-432.5 1183,-432.5"/>
<text text-anchor="start" x="1190" y="-443.9" font-family="Arial" font-size="14.00" fill="#000000">login_id    </text>
<text text-anchor="start" x="1272.4376" y="-443.9" font-family="Arial" font-size="14.00" fill="#666666">[varchar(255)]</text>
<polygon fill="none" stroke="#000000" points="1183,-402.5 1183,-432.5 1476,-432.5 1476,-402.5 1183,-402.5"/>
<text text-anchor="start" x="1190" y="-413.9" font-family="Arial" font-size="14.00" fill="#000000">password    </text>
<text text-anchor="start" x="1284.1024" y="-413.9" font-family="Arial" font-size="14.00" fill="#666666">[varchar(255)]</text>
<polygon fill="none" stroke="#000000" points="1183,-372.5 1183,-402.5 1476,-402.5 1476,-372.5 1183,-372.5"/>
<text text-anchor="start" x="1190" y="-383.9" font-family="Arial" font-size="14.00" fill="#000000">email    </text>
<text text-anchor="start" x="1257.6438" y="-383.9" font-family="Arial" font-size="14.00" fill="#666666">[varchar(255)]</text>
<polygon fill="none" stroke="#000000" points="1183,-342.5 1183,-372.5 1476,-372.5 1476,-342.5 1183,-342.5"/>
<text text-anchor="start" x="1190" y="-353.9" font-family="Arial" font-size="14.00" fill="#000000">name    </text>
<text text-anchor="start" x="1259.2132" y="-353.9" font-family="Arial" font-size="14.00" fill="#666666">[varchar(255)]</text>
<polygon fill="none" stroke="#000000" points="1183,-312.5 1183,-342.5 1476,-342.5 1476,-312.5 1183,-312.5"/>
<text text-anchor="start" x="1190" y="-323.9" font-family="Arial" font-size="14.00" fill="#000000">first_name    </text>
<text text-anchor="start" x="1289.5442" y="-323.9" font-family="Arial" font-size="14.00" fill="#666666">[varchar(255)]</text>
<polygon fill="none" stroke="#000000" points="1183,-282.5 1183,-312.5 1476,-312.5 1476,-282.5 1183,-282.5"/>
<text text-anchor="start" x="1190" y="-293.9" font-family="Arial" font-size="14.00" fill="#000000">last_name    </text>
<text text-anchor="start" x="1288.7756" y="-293.9" font-family="Arial" font-size="14.00" fill="#666666">[varchar(255)]</text>
<polygon fill="none" stroke="#000000" points="1183,-252.5 1183,-282.5 1476,-282.5 1476,-252.5 1183,-252.5"/>
<text text-anchor="start" x="1190" y="-263.9" font-family="Arial" font-size="14.00" fill="#000000">attend_status_id    </text>
<text text-anchor="start" x="1326.9172" y="-263.9" font-family="Arial" font-size="14.00" fill="#666666">[uuid]</text>
<polygon fill="none" stroke="#000000" points="1183,-222.5 1183,-252.5 1476,-252.5 1476,-222.5 1183,-222.5"/>
<text text-anchor="start" x="1190" y="-233.9" font-family="Arial" font-size="14.00" fill="#000000">profile_image_id    </text>
<text text-anchor="start" x="1326.8864" y="-233.9" font-family="Arial" font-size="14.00" fill="#666666">[uuid]</text>
<polygon fill="none" stroke="#000000" points="1183,-192.5 1183,-222.5 1476,-222.5 1476,-192.5 1183,-192.5"/>
<text text-anchor="start" x="1190" y="-203.9" font-family="Arial" font-size="14.00" fill="#000000">grade_id    </text>
<text text-anchor="start" x="1278.6676" y="-203.9" font-family="Arial" font-size="14.00" fill="#666666">[uuid]</text>
<polygon fill="none" stroke="#000000" points="1183,-162.5 1183,-192.5 1476,-192.5 1476,-162.5 1183,-162.5"/>
<text text-anchor="start" x="1190" y="-173.9" font-family="Arial" font-size="14.00" fill="#000000">group_id    </text>
<text text-anchor="start" x="1278.6676" y="-173.9" font-family="Arial" font-size="14.00" fill="#666666">[uuid]</text>
<polygon fill="none" stroke="#000000" points="1183,-132.5 1183,-162.5 1476,-162.5 1476,-132.5 1183,-132.5"/>
<text text-anchor="start" x="1190" y="-143.9" font-family="Arial" font-size="14.00" fill="#000000">personal_organization_id    </text>
<text text-anchor="start" x="1380.582" y="-143.9" font-family="Arial" font-size="14.00" fill="#666666">[uuid]</text>
<polygon fill="none" stroke="#000000" points="1183,-102.5 1183,-132.5 1476,-132.5 1476,-102.5 1183,-102.5"/>
<text text-anchor="start" x="1190" y="-113.9" font-family="Arial" font-size="14.00" fill="#000000">role_id    </text>
<text text-anchor="start" x="1266.209" y="-113.9" font-family="Arial" font-size="14.00" fill="#666666">[uuid]</text>
<polygon fill="none" stroke="#000000" points="1183,-72.5 1183,-102.5 1476,-102.5 1476,-72.5 1183,-72.5"/>
<text text-anchor="start" x="1190" y="-83.9" font-family="Arial" font-size="14.00" fill="#000000">created_at    </text>
<text text-anchor="start" x="1290.3422" y="-83.9" font-family="Arial" font-size="14.00" fill="#666666">[timestamp with time zone]</text>
<polygon fill="none" stroke="#000000" points="1183,-42.5 1183,-72.5 1476,-72.5 1476,-42.5 1183,-42.5"/>
<text text-anchor="start" x="1190" y="-53.9" font-family="Arial" font-size="14.00" fill="#000000">updated_at    </text>
<text text-anchor="start" x="1294.2468" y="-53.9" font-family="Arial" font-size="14.00" fill="#666666">[timestamp with time zone]</text>
</g>
<!-- public.t_chat_room_added_members&#45;&gt;public.m_members -->
<g id="edge2" class="edge">
<title>public.t_chat_room_added_members:member_id&#45;&gt;public.m_members:member_id</title>
<path fill="none" stroke="#000000" d="M1313.9665,-694.8625C1327.3812,-685.7541 1317.5636,-655.1866 1304,-637 1270.4565,-592.0235 1216.5435,-645.9765 1183,-601 1150.185,-557.0004 1128.1111,-477.5 1183,-477.5"/>
<polygon fill="#000000" stroke="#000000" points="1313.6672,-694.9416 1302.8487,-693.1498 1308.8336,-696.2208 1304,-697.5 1304,-697.5 1304,-697.5 1308.8336,-696.2208 1305.1513,-701.8502 1313.6672,-694.9416 1313.6672,-694.9416"/>
<text text-anchor="start" x="1311.221" y="-707.5" font-family="Arial" font-size="10.00" fill="#000000">FOREIGN KEY (member_id) REFERENCES m_members(member_id) ON UPDATE SET NULL ON DELETE SET NULL</text>
</g>
</g>
</svg>
