<?xml version="1.0" encoding="UTF-8" standalone="no"?>
<!DOCTYPE svg PUBLIC "-//W3C//DTD SVG 1.1//EN"
 "http://www.w3.org/Graphics/SVG/1.1/DTD/svg11.dtd">
<!-- Generated by graphviz version 2.40.1 (20161225.0304)
 -->
<!-- Title: public.t_messages Pages: 1 -->
<svg width="1474pt" height="1199pt"
 viewBox="0.00 0.00 1474.00 1199.00" xmlns="http://www.w3.org/2000/svg" xmlns:xlink="http://www.w3.org/1999/xlink">
<g id="graph0" class="graph" transform="scale(1 1) rotate(0) translate(4 1195)">
<title>public.t_messages</title>
<polygon fill="#ffffff" stroke="transparent" points="-4,4 -4,-1195 1470,-1195 1470,4 -4,4"/>
<!-- public.t_messages -->
<g id="node1" class="node">
<title>public.t_messages</title>
<polygon fill="#efefef" stroke="transparent" points="582,-832.5 582,-867.5 872,-867.5 872,-832.5 582,-832.5"/>
<polygon fill="none" stroke="#000000" points="582,-832.5 582,-867.5 872,-867.5 872,-832.5 582,-832.5"/>
<text text-anchor="start" x="588.6987" y="-845.3" font-family="Arial Bold" font-size="18.00" fill="#000000">public.t_messages</text>
<text text-anchor="start" x="737.7333" y="-845.3" font-family="Arial" font-size="14.00" fill="#000000">    </text>
<text text-anchor="start" x="771.9381" y="-845.3" font-family="Arial" font-size="14.00" fill="#666666">[BASE TABLE]</text>
<polygon fill="none" stroke="#000000" points="582,-802.5 582,-832.5 872,-832.5 872,-802.5 582,-802.5"/>
<text text-anchor="start" x="589" y="-813.9" font-family="Arial" font-size="14.00" fill="#000000">t_messages_pkey </text>
<text text-anchor="start" x="705.7026" y="-813.9" font-family="Arial" font-size="14.00" fill="#666666">[bigint]</text>
<polygon fill="none" stroke="#000000" points="582,-772.5 582,-802.5 872,-802.5 872,-772.5 582,-772.5"/>
<text text-anchor="start" x="589" y="-783.9" font-family="Arial" font-size="14.00" fill="#000000">message_id </text>
<text text-anchor="start" x="668.3534" y="-783.9" font-family="Arial" font-size="14.00" fill="#666666">[uuid]</text>
<polygon fill="none" stroke="#000000" points="582,-742.5 582,-772.5 872,-772.5 872,-742.5 582,-742.5"/>
<text text-anchor="start" x="589" y="-753.9" font-family="Arial" font-size="14.00" fill="#000000">chat_room_id </text>
<text text-anchor="start" x="677.6872" y="-753.9" font-family="Arial" font-size="14.00" fill="#666666">[uuid]</text>
<polygon fill="none" stroke="#000000" points="582,-712.5 582,-742.5 872,-742.5 872,-712.5 582,-712.5"/>
<text text-anchor="start" x="589" y="-723.9" font-family="Arial" font-size="14.00" fill="#000000">sender_id </text>
<text text-anchor="start" x="654.3534" y="-723.9" font-family="Arial" font-size="14.00" fill="#666666">[uuid]</text>
<polygon fill="none" stroke="#000000" points="582,-682.5 582,-712.5 872,-712.5 872,-682.5 582,-682.5"/>
<text text-anchor="start" x="589" y="-693.9" font-family="Arial" font-size="14.00" fill="#000000">body </text>
<text text-anchor="start" x="623.2384" y="-693.9" font-family="Arial" font-size="14.00" fill="#666666">[text]</text>
<polygon fill="none" stroke="#000000" points="582,-652.5 582,-682.5 872,-682.5 872,-652.5 582,-652.5"/>
<text text-anchor="start" x="589" y="-663.9" font-family="Arial" font-size="14.00" fill="#000000">posted_at </text>
<text text-anchor="start" x="654.3674" y="-663.9" font-family="Arial" font-size="14.00" fill="#666666">[timestamp with time zone]</text>
<polygon fill="none" stroke="#000000" points="582,-622.5 582,-652.5 872,-652.5 872,-622.5 582,-622.5"/>
<text text-anchor="start" x="589" y="-633.9" font-family="Arial" font-size="14.00" fill="#000000">last_edited_at </text>
<text text-anchor="start" x="680.0364" y="-633.9" font-family="Arial" font-size="14.00" fill="#666666">[timestamp with time zone]</text>
<polygon fill="none" stroke="#000000" stroke-width="3" points="580.5,-621.5 580.5,-869.5 873.5,-869.5 873.5,-621.5 580.5,-621.5"/>
</g>
<!-- public.m_chat_rooms -->
<g id="node3" class="node">
<title>public.m_chat_rooms</title>
<polygon fill="#efefef" stroke="transparent" points="367,-387.5 367,-422.5 679,-422.5 679,-387.5 367,-387.5"/>
<polygon fill="none" stroke="#000000" points="367,-387.5 367,-422.5 679,-422.5 679,-387.5 367,-387.5"/>
<text text-anchor="start" x="373.7034" y="-400.3" font-family="Arial Bold" font-size="18.00" fill="#000000">public.m_chat_rooms</text>
<text text-anchor="start" x="544.7286" y="-400.3" font-family="Arial" font-size="14.00" fill="#000000">    </text>
<text text-anchor="start" x="578.9334" y="-400.3" font-family="Arial" font-size="14.00" fill="#666666">[BASE TABLE]</text>
<polygon fill="none" stroke="#000000" points="367,-357.5 367,-387.5 679,-387.5 679,-357.5 367,-357.5"/>
<text text-anchor="start" x="374" y="-368.9" font-family="Arial" font-size="14.00" fill="#000000">m_chat_rooms_pkey    </text>
<text text-anchor="start" x="538.1206" y="-368.9" font-family="Arial" font-size="14.00" fill="#666666">[bigint]</text>
<polygon fill="none" stroke="#000000" points="367,-327.5 367,-357.5 679,-357.5 679,-327.5 367,-327.5"/>
<text text-anchor="start" x="374" y="-338.9" font-family="Arial" font-size="14.00" fill="#000000">chat_room_id    </text>
<text text-anchor="start" x="493.0014" y="-338.9" font-family="Arial" font-size="14.00" fill="#666666">[uuid]</text>
<polygon fill="none" stroke="#000000" points="367,-297.5 367,-327.5 679,-327.5 679,-297.5 367,-297.5"/>
<text text-anchor="start" x="374" y="-308.9" font-family="Arial" font-size="14.00" fill="#000000">name    </text>
<text text-anchor="start" x="443.2132" y="-308.9" font-family="Arial" font-size="14.00" fill="#666666">[varchar(255)]</text>
<polygon fill="none" stroke="#000000" points="367,-267.5 367,-297.5 679,-297.5 679,-267.5 367,-267.5"/>
<text text-anchor="start" x="374" y="-278.9" font-family="Arial" font-size="14.00" fill="#000000">is_private    </text>
<text text-anchor="start" x="468.0996" y="-278.9" font-family="Arial" font-size="14.00" fill="#666666">[boolean]</text>
<polygon fill="none" stroke="#000000" points="367,-237.5 367,-267.5 679,-267.5 679,-237.5 367,-237.5"/>
<text text-anchor="start" x="374" y="-248.9" font-family="Arial" font-size="14.00" fill="#000000">cover_image_url    </text>
<text text-anchor="start" x="511.6606" y="-248.9" font-family="Arial" font-size="14.00" fill="#666666">[text]</text>
<polygon fill="none" stroke="#000000" points="367,-207.5 367,-237.5 679,-237.5 679,-207.5 367,-207.5"/>
<text text-anchor="start" x="374" y="-218.9" font-family="Arial" font-size="14.00" fill="#000000">owner_id    </text>
<text text-anchor="start" x="464.9916" y="-218.9" font-family="Arial" font-size="14.00" fill="#666666">[uuid]</text>
<polygon fill="none" stroke="#000000" points="367,-177.5 367,-207.5 679,-207.5 679,-177.5 367,-177.5"/>
<text text-anchor="start" x="374" y="-188.9" font-family="Arial" font-size="14.00" fill="#000000">from_organization    </text>
<text text-anchor="start" x="520.2244" y="-188.9" font-family="Arial" font-size="14.00" fill="#666666">[boolean]</text>
<polygon fill="none" stroke="#000000" points="367,-147.5 367,-177.5 679,-177.5 679,-147.5 367,-147.5"/>
<text text-anchor="start" x="374" y="-158.9" font-family="Arial" font-size="14.00" fill="#000000">created_at    </text>
<text text-anchor="start" x="474.3422" y="-158.9" font-family="Arial" font-size="14.00" fill="#666666">[timestamp with time zone]</text>
<polygon fill="none" stroke="#000000" points="367,-117.5 367,-147.5 679,-147.5 679,-117.5 367,-117.5"/>
<text text-anchor="start" x="374" y="-128.9" font-family="Arial" font-size="14.00" fill="#000000">updated_at    </text>
<text text-anchor="start" x="478.2468" y="-128.9" font-family="Arial" font-size="14.00" fill="#666666">[timestamp with time zone]</text>
</g>
<!-- public.t_messages&#45;&gt;public.m_chat_rooms -->
<g id="edge2" class="edge">
<title>public.t_messages:chat_room_id&#45;&gt;public.m_chat_rooms:chat_room_id</title>
<path fill="none" stroke="#000000" d="M571.7203,-757.3406C349.2679,-750.2248 663.5961,-507.0365 679,-466 698.2895,-414.6122 733.8889,-342.5 679,-342.5"/>
<polygon fill="#000000" stroke="#000000" points="572.0012,-757.3449 581.9302,-761.9995 577.0006,-757.4224 582,-757.5 582,-757.5 582,-757.5 577.0006,-757.4224 582.0698,-753.0005 572.0012,-757.3449 572.0012,-757.3449"/>
<text text-anchor="start" x="6.818" y="-767.5" font-family="Arial" font-size="10.00" fill="#000000">FOREIGN KEY (chat_room_id) REFERENCES m_chat_rooms(chat_room_id) ON UPDATE CASCADE ON DELETE CASCADE</text>
</g>
<!-- public.m_members -->
<g id="node4" class="node">
<title>public.m_members</title>
<polygon fill="#efefef" stroke="transparent" points="784,-462.5 784,-497.5 1077,-497.5 1077,-462.5 784,-462.5"/>
<polygon fill="none" stroke="#000000" points="784,-462.5 784,-497.5 1077,-497.5 1077,-462.5 784,-462.5"/>
<text text-anchor="start" x="790.7146" y="-475.3" font-family="Arial Bold" font-size="18.00" fill="#000000">public.m_members</text>
<text text-anchor="start" x="942.7174" y="-475.3" font-family="Arial" font-size="14.00" fill="#000000">    </text>
<text text-anchor="start" x="976.9222" y="-475.3" font-family="Arial" font-size="14.00" fill="#666666">[BASE TABLE]</text>
<polygon fill="none" stroke="#000000" points="784,-432.5 784,-462.5 1077,-462.5 1077,-432.5 784,-432.5"/>
<text text-anchor="start" x="791" y="-443.9" font-family="Arial" font-size="14.00" fill="#000000">m_members_pkey    </text>
<text text-anchor="start" x="940.3254" y="-443.9" font-family="Arial" font-size="14.00" fill="#666666">[bigint]</text>
<polygon fill="none" stroke="#000000" points="784,-402.5 784,-432.5 1077,-432.5 1077,-402.5 784,-402.5"/>
<text text-anchor="start" x="791" y="-413.9" font-family="Arial" font-size="14.00" fill="#000000">member_id    </text>
<text text-anchor="start" x="895.2062" y="-413.9" font-family="Arial" font-size="14.00" fill="#666666">[uuid]</text>
<polygon fill="none" stroke="#000000" points="784,-372.5 784,-402.5 1077,-402.5 1077,-372.5 784,-372.5"/>
<text text-anchor="start" x="791" y="-383.9" font-family="Arial" font-size="14.00" fill="#000000">login_id    </text>
<text text-anchor="start" x="873.4376" y="-383.9" font-family="Arial" font-size="14.00" fill="#666666">[varchar(255)]</text>
<polygon fill="none" stroke="#000000" points="784,-342.5 784,-372.5 1077,-372.5 1077,-342.5 784,-342.5"/>
<text text-anchor="start" x="791" y="-353.9" font-family="Arial" font-size="14.00" fill="#000000">password    </text>
<text text-anchor="start" x="885.1024" y="-353.9" font-family="Arial" font-size="14.00" fill="#666666">[varchar(255)]</text>
<polygon fill="none" stroke="#000000" points="784,-312.5 784,-342.5 1077,-342.5 1077,-312.5 784,-312.5"/>
<text text-anchor="start" x="791" y="-323.9" font-family="Arial" font-size="14.00" fill="#000000">email    </text>
<text text-anchor="start" x="858.6438" y="-323.9" font-family="Arial" font-size="14.00" fill="#666666">[varchar(255)]</text>
<polygon fill="none" stroke="#000000" points="784,-282.5 784,-312.5 1077,-312.5 1077,-282.5 784,-282.5"/>
<text text-anchor="start" x="791" y="-293.9" font-family="Arial" font-size="14.00" fill="#000000">name    </text>
<text text-anchor="start" x="860.2132" y="-293.9" font-family="Arial" font-size="14.00" fill="#666666">[varchar(255)]</text>
<polygon fill="none" stroke="#000000" points="784,-252.5 784,-282.5 1077,-282.5 1077,-252.5 784,-252.5"/>
<text text-anchor="start" x="791" y="-263.9" font-family="Arial" font-size="14.00" fill="#000000">attend_status_id    </text>
<text text-anchor="start" x="927.9172" y="-263.9" font-family="Arial" font-size="14.00" fill="#666666">[uuid]</text>
<polygon fill="none" stroke="#000000" points="784,-222.5 784,-252.5 1077,-252.5 1077,-222.5 784,-222.5"/>
<text text-anchor="start" x="791" y="-233.9" font-family="Arial" font-size="14.00" fill="#000000">profile_image_url    </text>
<text text-anchor="start" x="932.547" y="-233.9" font-family="Arial" font-size="14.00" fill="#666666">[text]</text>
<polygon fill="none" stroke="#000000" points="784,-192.5 784,-222.5 1077,-222.5 1077,-192.5 784,-192.5"/>
<text text-anchor="start" x="791" y="-203.9" font-family="Arial" font-size="14.00" fill="#000000">grade_id    </text>
<text text-anchor="start" x="879.6676" y="-203.9" font-family="Arial" font-size="14.00" fill="#666666">[uuid]</text>
<polygon fill="none" stroke="#000000" points="784,-162.5 784,-192.5 1077,-192.5 1077,-162.5 784,-162.5"/>
<text text-anchor="start" x="791" y="-173.9" font-family="Arial" font-size="14.00" fill="#000000">group_id    </text>
<text text-anchor="start" x="879.6676" y="-173.9" font-family="Arial" font-size="14.00" fill="#666666">[uuid]</text>
<polygon fill="none" stroke="#000000" points="784,-132.5 784,-162.5 1077,-162.5 1077,-132.5 784,-132.5"/>
<text text-anchor="start" x="791" y="-143.9" font-family="Arial" font-size="14.00" fill="#000000">personal_organization_id    </text>
<text text-anchor="start" x="981.582" y="-143.9" font-family="Arial" font-size="14.00" fill="#666666">[uuid]</text>
<polygon fill="none" stroke="#000000" points="784,-102.5 784,-132.5 1077,-132.5 1077,-102.5 784,-102.5"/>
<text text-anchor="start" x="791" y="-113.9" font-family="Arial" font-size="14.00" fill="#000000">role_id    </text>
<text text-anchor="start" x="867.209" y="-113.9" font-family="Arial" font-size="14.00" fill="#666666">[uuid]</text>
<polygon fill="none" stroke="#000000" points="784,-72.5 784,-102.5 1077,-102.5 1077,-72.5 784,-72.5"/>
<text text-anchor="start" x="791" y="-83.9" font-family="Arial" font-size="14.00" fill="#000000">created_at    </text>
<text text-anchor="start" x="891.3422" y="-83.9" font-family="Arial" font-size="14.00" fill="#666666">[timestamp with time zone]</text>
<polygon fill="none" stroke="#000000" points="784,-42.5 784,-72.5 1077,-72.5 1077,-42.5 784,-42.5"/>
<text text-anchor="start" x="791" y="-53.9" font-family="Arial" font-size="14.00" fill="#000000">updated_at    </text>
<text text-anchor="start" x="895.2468" y="-53.9" font-family="Arial" font-size="14.00" fill="#666666">[timestamp with time zone]</text>
</g>
<!-- public.t_messages&#45;&gt;public.m_members -->
<g id="edge3" class="edge">
<title>public.t_messages:sender_id&#45;&gt;public.m_members:member_id</title>
<path fill="none" stroke="#000000" d="M882.1227,-726.6699C935.6278,-717.2311 907.2443,-629.4975 872,-577 848.4462,-541.9158 807.5538,-576.0842 784,-541 753.4055,-495.4285 729.1111,-417.5 784,-417.5"/>
<polygon fill="#000000" stroke="#000000" points="881.9665,-726.6827 871.6322,-723.0151 876.9833,-727.0913 872,-727.5 872,-727.5 872,-727.5 876.9833,-727.0913 872.3678,-731.9849 881.9665,-726.6827 881.9665,-726.6827"/>
<text text-anchor="start" x="879.2705" y="-737.5" font-family="Arial" font-size="10.00" fill="#000000">FOREIGN KEY (sender_id) REFERENCES m_members(member_id) ON UPDATE SET NULL ON DELETE SET NULL</text>
</g>
<!-- public.t_attached_messages -->
<g id="node2" class="node">
<title>public.t_attached_messages</title>
<polygon fill="#efefef" stroke="transparent" points="542,-1112.5 542,-1147.5 911,-1147.5 911,-1112.5 542,-1112.5"/>
<polygon fill="none" stroke="#000000" points="542,-1112.5 542,-1147.5 911,-1147.5 911,-1112.5 542,-1112.5"/>
<text text-anchor="start" x="548.6779" y="-1125.3" font-family="Arial Bold" font-size="18.00" fill="#000000">public.t_attached_messages</text>
<text text-anchor="start" x="776.7541" y="-1125.3" font-family="Arial" font-size="14.00" fill="#000000">    </text>
<text text-anchor="start" x="810.9589" y="-1125.3" font-family="Arial" font-size="14.00" fill="#666666">[BASE TABLE]</text>
<polygon fill="none" stroke="#000000" points="542,-1082.5 542,-1112.5 911,-1112.5 911,-1082.5 542,-1082.5"/>
<text text-anchor="start" x="549" y="-1093.9" font-family="Arial" font-size="14.00" fill="#000000">t_attached_messages_pkey    </text>
<text text-anchor="start" x="757.4936" y="-1093.9" font-family="Arial" font-size="14.00" fill="#666666">[bigint]</text>
<polygon fill="none" stroke="#000000" points="542,-1052.5 542,-1082.5 911,-1082.5 911,-1052.5 542,-1052.5"/>
<text text-anchor="start" x="549" y="-1063.9" font-family="Arial" font-size="14.00" fill="#000000">attached_message_id    </text>
<text text-anchor="start" x="720.1444" y="-1063.9" font-family="Arial" font-size="14.00" fill="#666666">[uuid]</text>
<polygon fill="none" stroke="#000000" points="542,-1022.5 542,-1052.5 911,-1052.5 911,-1022.5 542,-1022.5"/>
<text text-anchor="start" x="549" y="-1033.9" font-family="Arial" font-size="14.00" fill="#000000">message_id    </text>
<text text-anchor="start" x="658.6676" y="-1033.9" font-family="Arial" font-size="14.00" fill="#666666">[uuid]</text>
<polygon fill="none" stroke="#000000" points="542,-992.5 542,-1022.5 911,-1022.5 911,-992.5 542,-992.5"/>
<text text-anchor="start" x="549" y="-1003.9" font-family="Arial" font-size="14.00" fill="#000000">file_url    </text>
<text text-anchor="start" x="624.4236" y="-1003.9" font-family="Arial" font-size="14.00" fill="#666666">[text]</text>
</g>
<!-- public.t_attached_messages&#45;&gt;public.t_messages -->
<g id="edge1" class="edge">
<title>public.t_attached_messages:message_id&#45;&gt;public.t_messages:message_id</title>
<path fill="none" stroke="#000000" d="M920.9468,-1035.9071C947.2394,-1026.3477 934.4248,-976.1279 911,-950 861.9039,-895.2386 631.0961,-968.7614 582,-914 544.4693,-872.1385 525.7778,-787.5 582,-787.5"/>
<polygon fill="#000000" stroke="#000000" points="920.8742,-1035.9187 910.2884,-1033.0566 915.9371,-1036.7093 911,-1037.5 911,-1037.5 911,-1037.5 915.9371,-1036.7093 911.7116,-1041.9434 920.8742,-1035.9187 920.8742,-1035.9187"/>
<text text-anchor="start" x="918.1445" y="-1047.5" font-family="Arial" font-size="10.00" fill="#000000">FOREIGN KEY (message_id) REFERENCES t_messages(message_id) ON UPDATE SET NULL ON DELETE SET NULL</text>
</g>
</g>
</svg>
