<?xml version="1.0" encoding="UTF-8" standalone="no"?>
<!DOCTYPE svg PUBLIC "-//W3C//DTD SVG 1.1//EN"
 "http://www.w3.org/Graphics/SVG/1.1/DTD/svg11.dtd">
<!-- Generated by graphviz version 2.40.1 (20161225.0304)
 -->
<!-- Title: public.t_chat_room_add_member_actions Pages: 1 -->
<svg width="2004pt" height="1139pt"
 viewBox="0.00 0.00 2004.00 1139.00" xmlns="http://www.w3.org/2000/svg" xmlns:xlink="http://www.w3.org/1999/xlink">
<g id="graph0" class="graph" transform="scale(1 1) rotate(0) translate(4 1135)">
<title>public.t_chat_room_add_member_actions</title>
<polygon fill="#ffffff" stroke="transparent" points="-4,4 -4,-1135 2000,-1135 2000,4 -4,4"/>
<!-- public.t_chat_room_add_member_actions -->
<g id="node1" class="node">
<title>public.t_chat_room_add_member_actions</title>
<polygon fill="#efefef" stroke="transparent" points="673,-802.5 673,-837.5 1149,-837.5 1149,-802.5 673,-802.5"/>
<polygon fill="none" stroke="#000000" points="673,-802.5 673,-837.5 1149,-837.5 1149,-802.5 673,-802.5"/>
<text text-anchor="start" x="679.6747" y="-815.3" font-family="Arial Bold" font-size="18.00" fill="#000000">public.t_chat_room_add_member_actions</text>
<text text-anchor="start" x="1014.7573" y="-815.3" font-family="Arial" font-size="14.00" fill="#000000">    </text>
<text text-anchor="start" x="1048.9621" y="-815.3" font-family="Arial" font-size="14.00" fill="#666666">[BASE TABLE]</text>
<polygon fill="none" stroke="#000000" points="673,-772.5 673,-802.5 1149,-802.5 1149,-772.5 673,-772.5"/>
<text text-anchor="start" x="680" y="-783.9" font-family="Arial" font-size="14.00" fill="#000000">t_chat_room_add_member_actions_pkey </text>
<text text-anchor="start" x="941.4066" y="-783.9" font-family="Arial" font-size="14.00" fill="#666666">[bigint]</text>
<polygon fill="none" stroke="#000000" points="673,-742.5 673,-772.5 1149,-772.5 1149,-742.5 673,-742.5"/>
<text text-anchor="start" x="680" y="-753.9" font-family="Arial" font-size="14.00" fill="#000000">chat_room_add_member_action_id </text>
<text text-anchor="start" x="904.0574" y="-753.9" font-family="Arial" font-size="14.00" fill="#666666">[uuid]</text>
<polygon fill="none" stroke="#000000" points="673,-712.5 673,-742.5 1149,-742.5 1149,-712.5 673,-712.5"/>
<text text-anchor="start" x="680" y="-723.9" font-family="Arial" font-size="14.00" fill="#000000">chat_room_action_id </text>
<text text-anchor="start" x="813.8148" y="-723.9" font-family="Arial" font-size="14.00" fill="#666666">[uuid]</text>
<polygon fill="none" stroke="#000000" points="673,-682.5 673,-712.5 1149,-712.5 1149,-682.5 673,-682.5"/>
<text text-anchor="start" x="680" y="-693.9" font-family="Arial" font-size="14.00" fill="#000000">added_by </text>
<text text-anchor="start" x="745.3688" y="-693.9" font-family="Arial" font-size="14.00" fill="#666666">[uuid]</text>
<polygon fill="none" stroke="#000000" stroke-width="3" points="671.5,-681.5 671.5,-839.5 1150.5,-839.5 1150.5,-681.5 671.5,-681.5"/>
</g>
<!-- public.t_chat_room_actions -->
<g id="node3" class="node">
<title>public.t_chat_room_actions</title>
<polygon fill="#efefef" stroke="transparent" points="515,-357.5 515,-392.5 875,-392.5 875,-357.5 515,-357.5"/>
<polygon fill="none" stroke="#000000" points="515,-357.5 515,-392.5 875,-392.5 875,-357.5 515,-357.5"/>
<text text-anchor="start" x="521.6878" y="-370.3" font-family="Arial Bold" font-size="18.00" fill="#000000">public.t_chat_room_actions</text>
<text text-anchor="start" x="740.7442" y="-370.3" font-family="Arial" font-size="14.00" fill="#000000">    </text>
<text text-anchor="start" x="774.949" y="-370.3" font-family="Arial" font-size="14.00" fill="#666666">[BASE TABLE]</text>
<polygon fill="none" stroke="#000000" points="515,-327.5 515,-357.5 875,-357.5 875,-327.5 515,-327.5"/>
<text text-anchor="start" x="522" y="-338.9" font-family="Arial" font-size="14.00" fill="#000000">t_chat_room_actions_pkey    </text>
<text text-anchor="start" x="723.4782" y="-338.9" font-family="Arial" font-size="14.00" fill="#666666">[bigint]</text>
<polygon fill="none" stroke="#000000" points="515,-297.5 515,-327.5 875,-327.5 875,-297.5 515,-297.5"/>
<text text-anchor="start" x="522" y="-308.9" font-family="Arial" font-size="14.00" fill="#000000">chat_room_action_id    </text>
<text text-anchor="start" x="686.129" y="-308.9" font-family="Arial" font-size="14.00" fill="#666666">[uuid]</text>
<polygon fill="none" stroke="#000000" points="515,-267.5 515,-297.5 875,-297.5 875,-267.5 515,-267.5"/>
<text text-anchor="start" x="522" y="-278.9" font-family="Arial" font-size="14.00" fill="#000000">chat_room_id    </text>
<text text-anchor="start" x="641.0014" y="-278.9" font-family="Arial" font-size="14.00" fill="#666666">[uuid]</text>
<polygon fill="none" stroke="#000000" points="515,-237.5 515,-267.5 875,-267.5 875,-237.5 515,-237.5"/>
<text text-anchor="start" x="522" y="-248.9" font-family="Arial" font-size="14.00" fill="#000000">chat_room_action_type_id    </text>
<text text-anchor="start" x="720.3674" y="-248.9" font-family="Arial" font-size="14.00" fill="#666666">[uuid]</text>
<polygon fill="none" stroke="#000000" points="515,-207.5 515,-237.5 875,-237.5 875,-207.5 515,-207.5"/>
<text text-anchor="start" x="522" y="-218.9" font-family="Arial" font-size="14.00" fill="#000000">acted_at    </text>
<text text-anchor="start" x="609.899" y="-218.9" font-family="Arial" font-size="14.00" fill="#666666">[timestamp with time zone]</text>
</g>
<!-- public.t_chat_room_add_member_actions&#45;&gt;public.t_chat_room_actions -->
<g id="edge2" class="edge">
<title>public.t_chat_room_add_member_actions:chat_room_action_id&#45;&gt;public.t_chat_room_actions:chat_room_action_id</title>
<path fill="none" stroke="#000000" d="M663.0067,-726.0382C637.5292,-717.2331 659.0692,-670.5143 673,-637 721.6124,-520.0499 826.3876,-552.9501 875,-436 896.068,-385.3154 929.8889,-312.5 875,-312.5"/>
<polygon fill="#000000" stroke="#000000" points="663.1053,-726.0525 672.3486,-731.9526 668.0526,-726.7763 673,-727.5 673,-727.5 673,-727.5 668.0526,-726.7763 673.6514,-723.0474 663.1053,-726.0525 663.1053,-726.0525"/>
<text text-anchor="start" x="7.242" y="-737.5" font-family="Arial" font-size="10.00" fill="#000000">FOREIGN KEY (chat_room_action_id) REFERENCES t_chat_room_actions(chat_room_action_id) ON UPDATE CASCADE ON DELETE CASCADE</text>
</g>
<!-- public.m_members -->
<g id="node4" class="node">
<title>public.m_members</title>
<polygon fill="#efefef" stroke="transparent" points="980,-522.5 980,-557.5 1273,-557.5 1273,-522.5 980,-522.5"/>
<polygon fill="none" stroke="#000000" points="980,-522.5 980,-557.5 1273,-557.5 1273,-522.5 980,-522.5"/>
<text text-anchor="start" x="986.7146" y="-535.3" font-family="Arial Bold" font-size="18.00" fill="#000000">public.m_members</text>
<text text-anchor="start" x="1138.7174" y="-535.3" font-family="Arial" font-size="14.00" fill="#000000">    </text>
<text text-anchor="start" x="1172.9222" y="-535.3" font-family="Arial" font-size="14.00" fill="#666666">[BASE TABLE]</text>
<polygon fill="none" stroke="#000000" points="980,-492.5 980,-522.5 1273,-522.5 1273,-492.5 980,-492.5"/>
<text text-anchor="start" x="987" y="-503.9" font-family="Arial" font-size="14.00" fill="#000000">m_members_pkey    </text>
<text text-anchor="start" x="1136.3254" y="-503.9" font-family="Arial" font-size="14.00" fill="#666666">[bigint]</text>
<polygon fill="none" stroke="#000000" points="980,-462.5 980,-492.5 1273,-492.5 1273,-462.5 980,-462.5"/>
<text text-anchor="start" x="987" y="-473.9" font-family="Arial" font-size="14.00" fill="#000000">member_id    </text>
<text text-anchor="start" x="1091.2062" y="-473.9" font-family="Arial" font-size="14.00" fill="#666666">[uuid]</text>
<polygon fill="none" stroke="#000000" points="980,-432.5 980,-462.5 1273,-462.5 1273,-432.5 980,-432.5"/>
<text text-anchor="start" x="987" y="-443.9" font-family="Arial" font-size="14.00" fill="#000000">login_id    </text>
<text text-anchor="start" x="1069.4376" y="-443.9" font-family="Arial" font-size="14.00" fill="#666666">[varchar(255)]</text>
<polygon fill="none" stroke="#000000" points="980,-402.5 980,-432.5 1273,-432.5 1273,-402.5 980,-402.5"/>
<text text-anchor="start" x="987" y="-413.9" font-family="Arial" font-size="14.00" fill="#000000">password    </text>
<text text-anchor="start" x="1081.1024" y="-413.9" font-family="Arial" font-size="14.00" fill="#666666">[varchar(255)]</text>
<polygon fill="none" stroke="#000000" points="980,-372.5 980,-402.5 1273,-402.5 1273,-372.5 980,-372.5"/>
<text text-anchor="start" x="987" y="-383.9" font-family="Arial" font-size="14.00" fill="#000000">email    </text>
<text text-anchor="start" x="1054.6438" y="-383.9" font-family="Arial" font-size="14.00" fill="#666666">[varchar(255)]</text>
<polygon fill="none" stroke="#000000" points="980,-342.5 980,-372.5 1273,-372.5 1273,-342.5 980,-342.5"/>
<text text-anchor="start" x="987" y="-353.9" font-family="Arial" font-size="14.00" fill="#000000">name    </text>
<text text-anchor="start" x="1056.2132" y="-353.9" font-family="Arial" font-size="14.00" fill="#666666">[varchar(255)]</text>
<polygon fill="none" stroke="#000000" points="980,-312.5 980,-342.5 1273,-342.5 1273,-312.5 980,-312.5"/>
<text text-anchor="start" x="987" y="-323.9" font-family="Arial" font-size="14.00" fill="#000000">first_name    </text>
<text text-anchor="start" x="1086.5442" y="-323.9" font-family="Arial" font-size="14.00" fill="#666666">[varchar(255)]</text>
<polygon fill="none" stroke="#000000" points="980,-282.5 980,-312.5 1273,-312.5 1273,-282.5 980,-282.5"/>
<text text-anchor="start" x="987" y="-293.9" font-family="Arial" font-size="14.00" fill="#000000">last_name    </text>
<text text-anchor="start" x="1085.7756" y="-293.9" font-family="Arial" font-size="14.00" fill="#666666">[varchar(255)]</text>
<polygon fill="none" stroke="#000000" points="980,-252.5 980,-282.5 1273,-282.5 1273,-252.5 980,-252.5"/>
<text text-anchor="start" x="987" y="-263.9" font-family="Arial" font-size="14.00" fill="#000000">attend_status_id    </text>
<text text-anchor="start" x="1123.9172" y="-263.9" font-family="Arial" font-size="14.00" fill="#666666">[uuid]</text>
<polygon fill="none" stroke="#000000" points="980,-222.5 980,-252.5 1273,-252.5 1273,-222.5 980,-222.5"/>
<text text-anchor="start" x="987" y="-233.9" font-family="Arial" font-size="14.00" fill="#000000">profile_image_id    </text>
<text text-anchor="start" x="1123.8864" y="-233.9" font-family="Arial" font-size="14.00" fill="#666666">[uuid]</text>
<polygon fill="none" stroke="#000000" points="980,-192.5 980,-222.5 1273,-222.5 1273,-192.5 980,-192.5"/>
<text text-anchor="start" x="987" y="-203.9" font-family="Arial" font-size="14.00" fill="#000000">grade_id    </text>
<text text-anchor="start" x="1075.6676" y="-203.9" font-family="Arial" font-size="14.00" fill="#666666">[uuid]</text>
<polygon fill="none" stroke="#000000" points="980,-162.5 980,-192.5 1273,-192.5 1273,-162.5 980,-162.5"/>
<text text-anchor="start" x="987" y="-173.9" font-family="Arial" font-size="14.00" fill="#000000">group_id    </text>
<text text-anchor="start" x="1075.6676" y="-173.9" font-family="Arial" font-size="14.00" fill="#666666">[uuid]</text>
<polygon fill="none" stroke="#000000" points="980,-132.5 980,-162.5 1273,-162.5 1273,-132.5 980,-132.5"/>
<text text-anchor="start" x="987" y="-143.9" font-family="Arial" font-size="14.00" fill="#000000">personal_organization_id    </text>
<text text-anchor="start" x="1177.582" y="-143.9" font-family="Arial" font-size="14.00" fill="#666666">[uuid]</text>
<polygon fill="none" stroke="#000000" points="980,-102.5 980,-132.5 1273,-132.5 1273,-102.5 980,-102.5"/>
<text text-anchor="start" x="987" y="-113.9" font-family="Arial" font-size="14.00" fill="#000000">role_id    </text>
<text text-anchor="start" x="1063.209" y="-113.9" font-family="Arial" font-size="14.00" fill="#666666">[uuid]</text>
<polygon fill="none" stroke="#000000" points="980,-72.5 980,-102.5 1273,-102.5 1273,-72.5 980,-72.5"/>
<text text-anchor="start" x="987" y="-83.9" font-family="Arial" font-size="14.00" fill="#000000">created_at    </text>
<text text-anchor="start" x="1087.3422" y="-83.9" font-family="Arial" font-size="14.00" fill="#666666">[timestamp with time zone]</text>
<polygon fill="none" stroke="#000000" points="980,-42.5 980,-72.5 1273,-72.5 1273,-42.5 980,-42.5"/>
<text text-anchor="start" x="987" y="-53.9" font-family="Arial" font-size="14.00" fill="#000000">updated_at    </text>
<text text-anchor="start" x="1091.2468" y="-53.9" font-family="Arial" font-size="14.00" fill="#666666">[timestamp with time zone]</text>
</g>
<!-- public.t_chat_room_add_member_actions&#45;&gt;public.m_members -->
<g id="edge3" class="edge">
<title>public.t_chat_room_add_member_actions:added_by&#45;&gt;public.m_members:member_id</title>
<path fill="none" stroke="#000000" d="M1159.0185,-694.822C1172.6031,-685.5816 1163.2738,-654.6346 1149,-637 1100.6837,-577.3074 1028.3163,-660.6926 980,-601 945.4667,-558.3357 925.1111,-477.5 980,-477.5"/>
<polygon fill="#000000" stroke="#000000" points="1158.6608,-694.9176 1147.8379,-693.1526 1153.8304,-696.2088 1149,-697.5 1149,-697.5 1149,-697.5 1153.8304,-696.2088 1150.1621,-701.8474 1158.6608,-694.9176 1158.6608,-694.9176"/>
<text text-anchor="start" x="1156.265" y="-707.5" font-family="Arial" font-size="10.00" fill="#000000">FOREIGN KEY (added_by) REFERENCES m_members(member_id) ON UPDATE SET NULL ON DELETE SET NULL</text>
</g>
<!-- public.t_chat_room_added_members -->
<g id="node2" class="node">
<title>public.t_chat_room_added_members</title>
<polygon fill="#efefef" stroke="transparent" points="692,-1052.5 692,-1087.5 1130,-1087.5 1130,-1052.5 692,-1052.5"/>
<polygon fill="none" stroke="#000000" points="692,-1052.5 692,-1087.5 1130,-1087.5 1130,-1052.5 692,-1052.5"/>
<text text-anchor="start" x="698.6791" y="-1065.3" font-family="Arial Bold" font-size="18.00" fill="#000000">public.t_chat_room_added_members</text>
<text text-anchor="start" x="995.7529" y="-1065.3" font-family="Arial" font-size="14.00" fill="#000000">    </text>
<text text-anchor="start" x="1029.9577" y="-1065.3" font-family="Arial" font-size="14.00" fill="#666666">[BASE TABLE]</text>
<polygon fill="none" stroke="#000000" points="692,-1022.5 692,-1052.5 1130,-1052.5 1130,-1022.5 692,-1022.5"/>
<text text-anchor="start" x="699" y="-1033.9" font-family="Arial" font-size="14.00" fill="#000000">t_chat_room_added_members_pkey    </text>
<text text-anchor="start" x="961.1584" y="-1033.9" font-family="Arial" font-size="14.00" fill="#666666">[bigint]</text>
<polygon fill="none" stroke="#000000" points="692,-992.5 692,-1022.5 1130,-1022.5 1130,-992.5 692,-992.5"/>
<text text-anchor="start" x="699" y="-1003.9" font-family="Arial" font-size="14.00" fill="#000000">chat_room_add_member_action_id    </text>
<text text-anchor="start" x="953.3716" y="-1003.9" font-family="Arial" font-size="14.00" fill="#666666">[uuid]</text>
<polygon fill="none" stroke="#000000" points="692,-962.5 692,-992.5 1130,-992.5 1130,-962.5 692,-962.5"/>
<text text-anchor="start" x="699" y="-973.9" font-family="Arial" font-size="14.00" fill="#000000">member_id    </text>
<text text-anchor="start" x="803.2062" y="-973.9" font-family="Arial" font-size="14.00" fill="#666666">[uuid]</text>
</g>
<!-- public.t_chat_room_added_members&#45;&gt;public.t_chat_room_add_member_actions -->
<g id="edge1" class="edge">
<title>public.t_chat_room_added_members:chat_room_add_member_action_id&#45;&gt;public.t_chat_room_add_member_actions:chat_room_add_member_action_id</title>
<path fill="none" stroke="#000000" d="M1140.1748,-1006.7828C1242.4917,-992.1191 1256.9493,-757.5 1149,-757.5"/>
<polygon fill="#000000" stroke="#000000" points="1139.9753,-1006.7968 1129.6836,-1003.0111 1134.9876,-1007.1484 1130,-1007.5 1130,-1007.5 1130,-1007.5 1134.9876,-1007.1484 1130.3164,-1011.9889 1139.9753,-1006.7968 1139.9753,-1006.7968"/>
<text text-anchor="start" x="1136.5535" y="-1017.5" font-family="Arial" font-size="10.00" fill="#000000">FOREIGN KEY (chat_room_add_member_action_id) REFERENCES t_chat_room_add_member_actions(chat_room_add_member_action_id) ON UPDATE CASCADE ON DELETE CASCADE</text>
</g>
</g>
</svg>
