<?xml version="1.0" encoding="UTF-8" standalone="no"?>
<!DOCTYPE svg PUBLIC "-//W3C//DTD SVG 1.1//EN"
 "http://www.w3.org/Graphics/SVG/1.1/DTD/svg11.dtd">
<!-- Generated by graphviz version 2.40.1 (20161225.0304)
 -->
<!-- Title: public.m_policy_categories Pages: 1 -->
<svg width="887pt" height="622pt"
 viewBox="0.00 0.00 886.50 622.00" xmlns="http://www.w3.org/2000/svg" xmlns:xlink="http://www.w3.org/1999/xlink">
<g id="graph0" class="graph" transform="scale(1 1) rotate(0) translate(4 618)">
<title>public.m_policy_categories</title>
<polygon fill="#ffffff" stroke="transparent" points="-4,4 -4,-618 882.5,-618 882.5,4 -4,4"/>
<!-- public.m_policy_categories -->
<g id="node1" class="node">
<title>public.m_policy_categories</title>
<polygon fill="#efefef" stroke="transparent" points="476,-195.5 476,-230.5 833,-230.5 833,-195.5 476,-195.5"/>
<polygon fill="none" stroke="#000000" points="476,-195.5 476,-230.5 833,-230.5 833,-195.5 476,-195.5"/>
<text text-anchor="start" x="482.6989" y="-208.3" font-family="Arial Bold" font-size="18.00" fill="#000000">public.m_policy_categories</text>
<text text-anchor="start" x="698.7331" y="-208.3" font-family="Arial" font-size="14.00" fill="#000000">    </text>
<text text-anchor="start" x="732.9379" y="-208.3" font-family="Arial" font-size="14.00" fill="#666666">[BASE TABLE]</text>
<polygon fill="none" stroke="#000000" points="476,-165.5 476,-195.5 833,-195.5 833,-165.5 476,-165.5"/>
<text text-anchor="start" x="483" y="-176.9" font-family="Arial" font-size="14.00" fill="#000000">m_policy_categories_pkey </text>
<text text-anchor="start" x="651.8134" y="-176.9" font-family="Arial" font-size="14.00" fill="#666666">[bigint]</text>
<polygon fill="none" stroke="#000000" points="476,-135.5 476,-165.5 833,-165.5 833,-135.5 476,-135.5"/>
<text text-anchor="start" x="483" y="-146.9" font-family="Arial" font-size="14.00" fill="#000000">policy_category_id </text>
<text text-anchor="start" x="602.805" y="-146.9" font-family="Arial" font-size="14.00" fill="#666666">[uuid]</text>
<polygon fill="none" stroke="#000000" points="476,-105.5 476,-135.5 833,-135.5 833,-105.5 476,-105.5"/>
<text text-anchor="start" x="483" y="-116.9" font-family="Arial" font-size="14.00" fill="#000000">name </text>
<text text-anchor="start" x="521.899" y="-116.9" font-family="Arial" font-size="14.00" fill="#666666">[varchar(255)]</text>
<polygon fill="none" stroke="#000000" points="476,-75.5 476,-105.5 833,-105.5 833,-75.5 476,-75.5"/>
<text text-anchor="start" x="483" y="-86.9" font-family="Arial" font-size="14.00" fill="#000000">description </text>
<text text-anchor="start" x="554.568" y="-86.9" font-family="Arial" font-size="14.00" fill="#666666">[text]</text>
<polygon fill="none" stroke="#000000" points="476,-45.5 476,-75.5 833,-75.5 833,-45.5 476,-45.5"/>
<text text-anchor="start" x="483" y="-56.9" font-family="Arial" font-size="14.00" fill="#000000">key </text>
<text text-anchor="start" x="508.6732" y="-56.9" font-family="Arial" font-size="14.00" fill="#666666">[varchar(255)]</text>
<polygon fill="none" stroke="#000000" stroke-width="3" points="474,-44.5 474,-232.5 834,-232.5 834,-44.5 474,-44.5"/>
</g>
<!-- public.m_policies -->
<g id="node2" class="node">
<title>public.m_policies</title>
<polygon fill="#efefef" stroke="transparent" points="516,-535.5 516,-570.5 794,-570.5 794,-535.5 516,-535.5"/>
<polygon fill="none" stroke="#000000" points="516,-535.5 516,-570.5 794,-570.5 794,-535.5 516,-535.5"/>
<text text-anchor="start" x="522.7116" y="-548.3" font-family="Arial Bold" font-size="18.00" fill="#000000">public.m_policies</text>
<text text-anchor="start" x="659.7204" y="-548.3" font-family="Arial" font-size="14.00" fill="#000000">    </text>
<text text-anchor="start" x="693.9252" y="-548.3" font-family="Arial" font-size="14.00" fill="#666666">[BASE TABLE]</text>
<polygon fill="none" stroke="#000000" points="516,-505.5 516,-535.5 794,-535.5 794,-505.5 516,-505.5"/>
<text text-anchor="start" x="523" y="-516.9" font-family="Arial" font-size="14.00" fill="#000000">m_policies_pkey    </text>
<text text-anchor="start" x="660.6634" y="-516.9" font-family="Arial" font-size="14.00" fill="#666666">[bigint]</text>
<polygon fill="none" stroke="#000000" points="516,-475.5 516,-505.5 794,-505.5 794,-475.5 516,-475.5"/>
<text text-anchor="start" x="523" y="-486.9" font-family="Arial" font-size="14.00" fill="#000000">policy_id    </text>
<text text-anchor="start" x="611.655" y="-486.9" font-family="Arial" font-size="14.00" fill="#666666">[uuid]</text>
<polygon fill="none" stroke="#000000" points="516,-445.5 516,-475.5 794,-475.5 794,-445.5 516,-445.5"/>
<text text-anchor="start" x="523" y="-456.9" font-family="Arial" font-size="14.00" fill="#000000">name    </text>
<text text-anchor="start" x="592.2132" y="-456.9" font-family="Arial" font-size="14.00" fill="#666666">[varchar(255)]</text>
<polygon fill="none" stroke="#000000" points="516,-415.5 516,-445.5 794,-445.5 794,-415.5 516,-415.5"/>
<text text-anchor="start" x="523" y="-426.9" font-family="Arial" font-size="14.00" fill="#000000">description    </text>
<text text-anchor="start" x="624.8822" y="-426.9" font-family="Arial" font-size="14.00" fill="#666666">[text]</text>
<polygon fill="none" stroke="#000000" points="516,-385.5 516,-415.5 794,-415.5 794,-385.5 516,-385.5"/>
<text text-anchor="start" x="523" y="-396.9" font-family="Arial" font-size="14.00" fill="#000000">key    </text>
<text text-anchor="start" x="578.9874" y="-396.9" font-family="Arial" font-size="14.00" fill="#666666">[varchar(255)]</text>
<polygon fill="none" stroke="#000000" points="516,-355.5 516,-385.5 794,-385.5 794,-355.5 516,-355.5"/>
<text text-anchor="start" x="523" y="-366.9" font-family="Arial" font-size="14.00" fill="#000000">policy_category_id    </text>
<text text-anchor="start" x="673.1192" y="-366.9" font-family="Arial" font-size="14.00" fill="#666666">[uuid]</text>
</g>
<!-- public.m_policies&#45;&gt;public.m_policy_categories -->
<g id="edge1" class="edge">
<title>public.m_policies:policy_category_id&#45;&gt;public.m_policy_categories:policy_category_id</title>
<path fill="none" stroke="#000000" d="M655.7074,-345.2533C666.0847,-275.6639 787.8102,-346.3184 833,-277 863.7039,-229.9021 889.2222,-150.5 833,-150.5"/>
<polygon fill="#000000" stroke="#000000" points="655.6888,-345.5237 650.5107,-355.19 655.3444,-350.5119 655,-355.5 655,-355.5 655,-355.5 655.3444,-350.5119 659.4893,-355.81 655.6888,-345.5237 655.6888,-345.5237"/>
<text text-anchor="start" x="7.4295" y="-365.5" font-family="Arial" font-size="10.00" fill="#000000">FOREIGN KEY (policy_category_id) REFERENCES m_policy_categories(policy_category_id) ON UPDATE RESTRICT ON DELETE RESTRICT</text>
</g>
</g>
</svg>
