<?xml version="1.0" encoding="UTF-8" standalone="no"?>
<!DOCTYPE svg PUBLIC "-//W3C//DTD SVG 1.1//EN"
 "http://www.w3.org/Graphics/SVG/1.1/DTD/svg11.dtd">
<!-- Generated by graphviz version 2.40.1 (20161225.0304)
 -->
<!-- Title: public.m_chat_room_action_types Pages: 1 -->
<svg width="1196pt" height="562pt"
 viewBox="0.00 0.00 1196.00 562.00" xmlns="http://www.w3.org/2000/svg" xmlns:xlink="http://www.w3.org/1999/xlink">
<g id="graph0" class="graph" transform="scale(1 1) rotate(0) translate(4 558)">
<title>public.m_chat_room_action_types</title>
<polygon fill="#ffffff" stroke="transparent" points="-4,4 -4,-558 1192,-558 1192,4 -4,4"/>
<!-- public.m_chat_room_action_types -->
<g id="node1" class="node">
<title>public.m_chat_room_action_types</title>
<polygon fill="#efefef" stroke="transparent" points="46,-165.5 46,-200.5 460,-200.5 460,-165.5 46,-165.5"/>
<polygon fill="none" stroke="#000000" points="46,-165.5 46,-200.5 460,-200.5 460,-165.5 46,-165.5"/>
<text text-anchor="start" x="52.6824" y="-178.3" font-family="Arial Bold" font-size="18.00" fill="#000000">public.m_chat_room_action_types</text>
<text text-anchor="start" x="325.7496" y="-178.3" font-family="Arial" font-size="14.00" fill="#000000">    </text>
<text text-anchor="start" x="359.9544" y="-178.3" font-family="Arial" font-size="14.00" fill="#666666">[BASE TABLE]</text>
<polygon fill="none" stroke="#000000" points="46,-135.5 46,-165.5 460,-165.5 460,-135.5 46,-135.5"/>
<text text-anchor="start" x="53" y="-146.9" font-family="Arial" font-size="14.00" fill="#000000">m_chat_room_action_types_pkey </text>
<text text-anchor="start" x="266.1724" y="-146.9" font-family="Arial" font-size="14.00" fill="#666666">[bigint]</text>
<polygon fill="none" stroke="#000000" points="46,-105.5 46,-135.5 460,-135.5 460,-105.5 46,-105.5"/>
<text text-anchor="start" x="53" y="-116.9" font-family="Arial" font-size="14.00" fill="#000000">chat_room_action_type_id </text>
<text text-anchor="start" x="221.0532" y="-116.9" font-family="Arial" font-size="14.00" fill="#666666">[uuid]</text>
<polygon fill="none" stroke="#000000" points="46,-75.5 46,-105.5 460,-105.5 460,-75.5 46,-75.5"/>
<text text-anchor="start" x="53" y="-86.9" font-family="Arial" font-size="14.00" fill="#000000">name </text>
<text text-anchor="start" x="91.899" y="-86.9" font-family="Arial" font-size="14.00" fill="#666666">[varchar(255)]</text>
<polygon fill="none" stroke="#000000" points="46,-45.5 46,-75.5 460,-75.5 460,-45.5 46,-45.5"/>
<text text-anchor="start" x="53" y="-56.9" font-family="Arial" font-size="14.00" fill="#000000">key </text>
<text text-anchor="start" x="78.6732" y="-56.9" font-family="Arial" font-size="14.00" fill="#666666">[varchar(255)]</text>
<polygon fill="none" stroke="#000000" stroke-width="3" points="44.5,-44.5 44.5,-202.5 461.5,-202.5 461.5,-44.5 44.5,-44.5"/>
</g>
<!-- public.t_chat_room_actions -->
<g id="node2" class="node">
<title>public.t_chat_room_actions</title>
<polygon fill="#efefef" stroke="transparent" points="73,-475.5 73,-510.5 433,-510.5 433,-475.5 73,-475.5"/>
<polygon fill="none" stroke="#000000" points="73,-475.5 73,-510.5 433,-510.5 433,-475.5 73,-475.5"/>
<text text-anchor="start" x="79.6878" y="-488.3" font-family="Arial Bold" font-size="18.00" fill="#000000">public.t_chat_room_actions</text>
<text text-anchor="start" x="298.7442" y="-488.3" font-family="Arial" font-size="14.00" fill="#000000">    </text>
<text text-anchor="start" x="332.949" y="-488.3" font-family="Arial" font-size="14.00" fill="#666666">[BASE TABLE]</text>
<polygon fill="none" stroke="#000000" points="73,-445.5 73,-475.5 433,-475.5 433,-445.5 73,-445.5"/>
<text text-anchor="start" x="80" y="-456.9" font-family="Arial" font-size="14.00" fill="#000000">t_chat_room_actions_pkey    </text>
<text text-anchor="start" x="281.4782" y="-456.9" font-family="Arial" font-size="14.00" fill="#666666">[bigint]</text>
<polygon fill="none" stroke="#000000" points="73,-415.5 73,-445.5 433,-445.5 433,-415.5 73,-415.5"/>
<text text-anchor="start" x="80" y="-426.9" font-family="Arial" font-size="14.00" fill="#000000">chat_room_action_id    </text>
<text text-anchor="start" x="244.129" y="-426.9" font-family="Arial" font-size="14.00" fill="#666666">[uuid]</text>
<polygon fill="none" stroke="#000000" points="73,-385.5 73,-415.5 433,-415.5 433,-385.5 73,-385.5"/>
<text text-anchor="start" x="80" y="-396.9" font-family="Arial" font-size="14.00" fill="#000000">chat_room_id    </text>
<text text-anchor="start" x="199.0014" y="-396.9" font-family="Arial" font-size="14.00" fill="#666666">[uuid]</text>
<polygon fill="none" stroke="#000000" points="73,-355.5 73,-385.5 433,-385.5 433,-355.5 73,-355.5"/>
<text text-anchor="start" x="80" y="-366.9" font-family="Arial" font-size="14.00" fill="#000000">chat_room_action_type_id    </text>
<text text-anchor="start" x="278.3674" y="-366.9" font-family="Arial" font-size="14.00" fill="#666666">[uuid]</text>
<polygon fill="none" stroke="#000000" points="73,-325.5 73,-355.5 433,-355.5 433,-325.5 73,-325.5"/>
<text text-anchor="start" x="80" y="-336.9" font-family="Arial" font-size="14.00" fill="#000000">acted_at    </text>
<text text-anchor="start" x="167.899" y="-336.9" font-family="Arial" font-size="14.00" fill="#666666">[timestamp with time zone]</text>
</g>
<!-- public.t_chat_room_actions&#45;&gt;public.m_chat_room_action_types -->
<g id="edge1" class="edge">
<title>public.t_chat_room_actions:chat_room_action_type_id&#45;&gt;public.m_chat_room_action_types:chat_room_action_type_id</title>
<path fill="none" stroke="#000000" d="M442.8202,-367.8615C491.8443,-341.143 512.4953,-120.5 460,-120.5"/>
<polygon fill="#000000" stroke="#000000" points="442.6575,-367.9052 431.8323,-366.1541 437.8288,-369.2026 433,-370.5 433,-370.5 433,-370.5 437.8288,-369.2026 434.1677,-374.8459 442.6575,-367.9052 442.6575,-367.9052"/>
<text text-anchor="start" x="440.124" y="-380.5" font-family="Arial" font-size="10.00" fill="#000000">FOREIGN KEY (chat_room_action_type_id) REFERENCES m_chat_room_action_types(chat_room_action_type_id) ON UPDATE RESTRICT ON DELETE RESTRICT</text>
</g>
</g>
</svg>
