<?xml version="1.0" encoding="UTF-8" standalone="no"?>
<!DOCTYPE svg PUBLIC "-//W3C//DTD SVG 1.1//EN"
 "http://www.w3.org/Graphics/SVG/1.1/DTD/svg11.dtd">
<!-- Generated by graphviz version 2.40.1 (20161225.0304)
 -->
<!-- Title: public.t_chat_room_withdraw_actions Pages: 1 -->
<svg width="1674pt" height="892pt"
 viewBox="0.00 0.00 1674.00 892.00" xmlns="http://www.w3.org/2000/svg" xmlns:xlink="http://www.w3.org/1999/xlink">
<g id="graph0" class="graph" transform="scale(1 1) rotate(0) translate(4 888)">
<title>public.t_chat_room_withdraw_actions</title>
<polygon fill="#ffffff" stroke="transparent" points="-4,4 -4,-888 1670,-888 1670,4 -4,4"/>
<!-- public.t_chat_room_withdraw_actions -->
<g id="node1" class="node">
<title>public.t_chat_room_withdraw_actions</title>
<polygon fill="#efefef" stroke="transparent" points="676,-802.5 676,-837.5 1117,-837.5 1117,-802.5 676,-802.5"/>
<polygon fill="none" stroke="#000000" points="676,-802.5 676,-837.5 1117,-837.5 1117,-802.5 676,-802.5"/>
<text text-anchor="start" x="682.6869" y="-815.3" font-family="Arial Bold" font-size="18.00" fill="#000000">public.t_chat_room_withdraw_actions</text>
<text text-anchor="start" x="982.7451" y="-815.3" font-family="Arial" font-size="14.00" fill="#000000">    </text>
<text text-anchor="start" x="1016.9499" y="-815.3" font-family="Arial" font-size="14.00" fill="#666666">[BASE TABLE]</text>
<polygon fill="none" stroke="#000000" points="676,-772.5 676,-802.5 1117,-802.5 1117,-772.5 676,-772.5"/>
<text text-anchor="start" x="683" y="-783.9" font-family="Arial" font-size="14.00" fill="#000000">t_chat_room_withdraw_actions_pkey </text>
<text text-anchor="start" x="917.1654" y="-783.9" font-family="Arial" font-size="14.00" fill="#666666">[bigint]</text>
<polygon fill="none" stroke="#000000" points="676,-742.5 676,-772.5 1117,-772.5 1117,-742.5 676,-742.5"/>
<text text-anchor="start" x="683" y="-753.9" font-family="Arial" font-size="14.00" fill="#000000">chat_room_withdraw_action_id </text>
<text text-anchor="start" x="879.8162" y="-753.9" font-family="Arial" font-size="14.00" fill="#666666">[uuid]</text>
<polygon fill="none" stroke="#000000" points="676,-712.5 676,-742.5 1117,-742.5 1117,-712.5 676,-712.5"/>
<text text-anchor="start" x="683" y="-723.9" font-family="Arial" font-size="14.00" fill="#000000">chat_room_action_id </text>
<text text-anchor="start" x="816.8148" y="-723.9" font-family="Arial" font-size="14.00" fill="#666666">[uuid]</text>
<polygon fill="none" stroke="#000000" points="676,-682.5 676,-712.5 1117,-712.5 1117,-682.5 676,-682.5"/>
<text text-anchor="start" x="683" y="-693.9" font-family="Arial" font-size="14.00" fill="#000000">member_id </text>
<text text-anchor="start" x="756.892" y="-693.9" font-family="Arial" font-size="14.00" fill="#666666">[uuid]</text>
<polygon fill="none" stroke="#000000" stroke-width="3" points="674,-681.5 674,-839.5 1118,-839.5 1118,-681.5 674,-681.5"/>
</g>
<!-- public.t_chat_room_actions -->
<g id="node2" class="node">
<title>public.t_chat_room_actions</title>
<polygon fill="#efefef" stroke="transparent" points="501,-342.5 501,-377.5 861,-377.5 861,-342.5 501,-342.5"/>
<polygon fill="none" stroke="#000000" points="501,-342.5 501,-377.5 861,-377.5 861,-342.5 501,-342.5"/>
<text text-anchor="start" x="507.6878" y="-355.3" font-family="Arial Bold" font-size="18.00" fill="#000000">public.t_chat_room_actions</text>
<text text-anchor="start" x="726.7442" y="-355.3" font-family="Arial" font-size="14.00" fill="#000000">    </text>
<text text-anchor="start" x="760.949" y="-355.3" font-family="Arial" font-size="14.00" fill="#666666">[BASE TABLE]</text>
<polygon fill="none" stroke="#000000" points="501,-312.5 501,-342.5 861,-342.5 861,-312.5 501,-312.5"/>
<text text-anchor="start" x="508" y="-323.9" font-family="Arial" font-size="14.00" fill="#000000">t_chat_room_actions_pkey    </text>
<text text-anchor="start" x="709.4782" y="-323.9" font-family="Arial" font-size="14.00" fill="#666666">[bigint]</text>
<polygon fill="none" stroke="#000000" points="501,-282.5 501,-312.5 861,-312.5 861,-282.5 501,-282.5"/>
<text text-anchor="start" x="508" y="-293.9" font-family="Arial" font-size="14.00" fill="#000000">chat_room_action_id    </text>
<text text-anchor="start" x="672.129" y="-293.9" font-family="Arial" font-size="14.00" fill="#666666">[uuid]</text>
<polygon fill="none" stroke="#000000" points="501,-252.5 501,-282.5 861,-282.5 861,-252.5 501,-252.5"/>
<text text-anchor="start" x="508" y="-263.9" font-family="Arial" font-size="14.00" fill="#000000">chat_room_action_type_id    </text>
<text text-anchor="start" x="706.3674" y="-263.9" font-family="Arial" font-size="14.00" fill="#666666">[uuid]</text>
<polygon fill="none" stroke="#000000" points="501,-222.5 501,-252.5 861,-252.5 861,-222.5 501,-222.5"/>
<text text-anchor="start" x="508" y="-233.9" font-family="Arial" font-size="14.00" fill="#000000">acted_at    </text>
<text text-anchor="start" x="595.899" y="-233.9" font-family="Arial" font-size="14.00" fill="#666666">[timestamp with time zone]</text>
</g>
<!-- public.t_chat_room_withdraw_actions&#45;&gt;public.t_chat_room_actions -->
<g id="edge1" class="edge">
<title>public.t_chat_room_withdraw_actions:chat_room_action_id&#45;&gt;public.t_chat_room_actions:chat_room_action_id</title>
<path fill="none" stroke="#000000" d="M666.0452,-726.0533C640.792,-717.3362 663.4143,-671.0423 676,-637 719.8308,-518.4447 817.1692,-539.5553 861,-421 880.0337,-369.5169 915.8889,-297.5 861,-297.5"/>
<polygon fill="#000000" stroke="#000000" points="666.104,-726.0618 675.3528,-731.9532 671.052,-726.7809 676,-727.5 676,-727.5 676,-727.5 671.052,-726.7809 676.6472,-723.0468 666.104,-726.0618 666.104,-726.0618"/>
<text text-anchor="start" x="6.583" y="-737.5" font-family="Arial" font-size="10.00" fill="#000000">FOREIGN KEY (chat_room_action_id) REFERENCES t_chat_room_actions(chat_room_action_id) ON UPDATE RESTRICT ON DELETE RESTRICT</text>
</g>
<!-- public.m_members -->
<g id="node3" class="node">
<title>public.m_members</title>
<polygon fill="#efefef" stroke="transparent" points="966,-522.5 966,-557.5 1259,-557.5 1259,-522.5 966,-522.5"/>
<polygon fill="none" stroke="#000000" points="966,-522.5 966,-557.5 1259,-557.5 1259,-522.5 966,-522.5"/>
<text text-anchor="start" x="972.7146" y="-535.3" font-family="Arial Bold" font-size="18.00" fill="#000000">public.m_members</text>
<text text-anchor="start" x="1124.7174" y="-535.3" font-family="Arial" font-size="14.00" fill="#000000">    </text>
<text text-anchor="start" x="1158.9222" y="-535.3" font-family="Arial" font-size="14.00" fill="#666666">[BASE TABLE]</text>
<polygon fill="none" stroke="#000000" points="966,-492.5 966,-522.5 1259,-522.5 1259,-492.5 966,-492.5"/>
<text text-anchor="start" x="973" y="-503.9" font-family="Arial" font-size="14.00" fill="#000000">m_members_pkey    </text>
<text text-anchor="start" x="1122.3254" y="-503.9" font-family="Arial" font-size="14.00" fill="#666666">[bigint]</text>
<polygon fill="none" stroke="#000000" points="966,-462.5 966,-492.5 1259,-492.5 1259,-462.5 966,-462.5"/>
<text text-anchor="start" x="973" y="-473.9" font-family="Arial" font-size="14.00" fill="#000000">member_id    </text>
<text text-anchor="start" x="1077.2062" y="-473.9" font-family="Arial" font-size="14.00" fill="#666666">[uuid]</text>
<polygon fill="none" stroke="#000000" points="966,-432.5 966,-462.5 1259,-462.5 1259,-432.5 966,-432.5"/>
<text text-anchor="start" x="973" y="-443.9" font-family="Arial" font-size="14.00" fill="#000000">login_id    </text>
<text text-anchor="start" x="1055.4376" y="-443.9" font-family="Arial" font-size="14.00" fill="#666666">[varchar(255)]</text>
<polygon fill="none" stroke="#000000" points="966,-402.5 966,-432.5 1259,-432.5 1259,-402.5 966,-402.5"/>
<text text-anchor="start" x="973" y="-413.9" font-family="Arial" font-size="14.00" fill="#000000">password    </text>
<text text-anchor="start" x="1067.1024" y="-413.9" font-family="Arial" font-size="14.00" fill="#666666">[varchar(255)]</text>
<polygon fill="none" stroke="#000000" points="966,-372.5 966,-402.5 1259,-402.5 1259,-372.5 966,-372.5"/>
<text text-anchor="start" x="973" y="-383.9" font-family="Arial" font-size="14.00" fill="#000000">email    </text>
<text text-anchor="start" x="1040.6438" y="-383.9" font-family="Arial" font-size="14.00" fill="#666666">[varchar(255)]</text>
<polygon fill="none" stroke="#000000" points="966,-342.5 966,-372.5 1259,-372.5 1259,-342.5 966,-342.5"/>
<text text-anchor="start" x="973" y="-353.9" font-family="Arial" font-size="14.00" fill="#000000">name    </text>
<text text-anchor="start" x="1042.2132" y="-353.9" font-family="Arial" font-size="14.00" fill="#666666">[varchar(255)]</text>
<polygon fill="none" stroke="#000000" points="966,-312.5 966,-342.5 1259,-342.5 1259,-312.5 966,-312.5"/>
<text text-anchor="start" x="973" y="-323.9" font-family="Arial" font-size="14.00" fill="#000000">first_name    </text>
<text text-anchor="start" x="1072.5442" y="-323.9" font-family="Arial" font-size="14.00" fill="#666666">[varchar(255)]</text>
<polygon fill="none" stroke="#000000" points="966,-282.5 966,-312.5 1259,-312.5 1259,-282.5 966,-282.5"/>
<text text-anchor="start" x="973" y="-293.9" font-family="Arial" font-size="14.00" fill="#000000">last_name    </text>
<text text-anchor="start" x="1071.7756" y="-293.9" font-family="Arial" font-size="14.00" fill="#666666">[varchar(255)]</text>
<polygon fill="none" stroke="#000000" points="966,-252.5 966,-282.5 1259,-282.5 1259,-252.5 966,-252.5"/>
<text text-anchor="start" x="973" y="-263.9" font-family="Arial" font-size="14.00" fill="#000000">attend_status_id    </text>
<text text-anchor="start" x="1109.9172" y="-263.9" font-family="Arial" font-size="14.00" fill="#666666">[uuid]</text>
<polygon fill="none" stroke="#000000" points="966,-222.5 966,-252.5 1259,-252.5 1259,-222.5 966,-222.5"/>
<text text-anchor="start" x="973" y="-233.9" font-family="Arial" font-size="14.00" fill="#000000">profile_image_id    </text>
<text text-anchor="start" x="1109.8864" y="-233.9" font-family="Arial" font-size="14.00" fill="#666666">[uuid]</text>
<polygon fill="none" stroke="#000000" points="966,-192.5 966,-222.5 1259,-222.5 1259,-192.5 966,-192.5"/>
<text text-anchor="start" x="973" y="-203.9" font-family="Arial" font-size="14.00" fill="#000000">grade_id    </text>
<text text-anchor="start" x="1061.6676" y="-203.9" font-family="Arial" font-size="14.00" fill="#666666">[uuid]</text>
<polygon fill="none" stroke="#000000" points="966,-162.5 966,-192.5 1259,-192.5 1259,-162.5 966,-162.5"/>
<text text-anchor="start" x="973" y="-173.9" font-family="Arial" font-size="14.00" fill="#000000">group_id    </text>
<text text-anchor="start" x="1061.6676" y="-173.9" font-family="Arial" font-size="14.00" fill="#666666">[uuid]</text>
<polygon fill="none" stroke="#000000" points="966,-132.5 966,-162.5 1259,-162.5 1259,-132.5 966,-132.5"/>
<text text-anchor="start" x="973" y="-143.9" font-family="Arial" font-size="14.00" fill="#000000">personal_organization_id    </text>
<text text-anchor="start" x="1163.582" y="-143.9" font-family="Arial" font-size="14.00" fill="#666666">[uuid]</text>
<polygon fill="none" stroke="#000000" points="966,-102.5 966,-132.5 1259,-132.5 1259,-102.5 966,-102.5"/>
<text text-anchor="start" x="973" y="-113.9" font-family="Arial" font-size="14.00" fill="#000000">role_id    </text>
<text text-anchor="start" x="1049.209" y="-113.9" font-family="Arial" font-size="14.00" fill="#666666">[uuid]</text>
<polygon fill="none" stroke="#000000" points="966,-72.5 966,-102.5 1259,-102.5 1259,-72.5 966,-72.5"/>
<text text-anchor="start" x="973" y="-83.9" font-family="Arial" font-size="14.00" fill="#000000">created_at    </text>
<text text-anchor="start" x="1073.3422" y="-83.9" font-family="Arial" font-size="14.00" fill="#666666">[timestamp with time zone]</text>
<polygon fill="none" stroke="#000000" points="966,-42.5 966,-72.5 1259,-72.5 1259,-42.5 966,-42.5"/>
<text text-anchor="start" x="973" y="-53.9" font-family="Arial" font-size="14.00" fill="#000000">updated_at    </text>
<text text-anchor="start" x="1077.2468" y="-53.9" font-family="Arial" font-size="14.00" fill="#666666">[timestamp with time zone]</text>
</g>
<!-- public.t_chat_room_withdraw_actions&#45;&gt;public.m_members -->
<g id="edge2" class="edge">
<title>public.t_chat_room_withdraw_actions:member_id&#45;&gt;public.m_members:member_id</title>
<path fill="none" stroke="#000000" d="M1127.0029,-694.8346C1140.5362,-685.6351 1131.0597,-654.8058 1117,-637 1074.2447,-582.8531 1008.7553,-655.1469 966,-601 931.9846,-557.9216 911.1111,-477.5 966,-477.5"/>
<polygon fill="#000000" stroke="#000000" points="1126.6628,-694.9251 1115.8413,-693.1517 1121.8314,-696.2125 1117,-697.5 1117,-697.5 1117,-697.5 1121.8314,-696.2125 1118.1587,-701.8483 1126.6628,-694.9251 1126.6628,-694.9251"/>
<text text-anchor="start" x="1124.221" y="-707.5" font-family="Arial" font-size="10.00" fill="#000000">FOREIGN KEY (member_id) REFERENCES m_members(member_id) ON UPDATE SET NULL ON DELETE SET NULL</text>
</g>
</g>
</svg>
