<?xml version="1.0" encoding="UTF-8" standalone="no"?>
<!DOCTYPE svg PUBLIC "-//W3C//DTD SVG 1.1//EN"
 "http://www.w3.org/Graphics/SVG/1.1/DTD/svg11.dtd">
<!-- Generated by graphviz version 2.40.1 (20161225.0304)
 -->
<!-- Title: public.t_attachable_items Pages: 1 -->
<svg width="1757pt" height="869pt"
 viewBox="0.00 0.00 1757.00 869.00" xmlns="http://www.w3.org/2000/svg" xmlns:xlink="http://www.w3.org/1999/xlink">
<g id="graph0" class="graph" transform="scale(1 1) rotate(0) translate(4 865)">
<title>public.t_attachable_items</title>
<polygon fill="#ffffff" stroke="transparent" points="-4,4 -4,-865 1753,-865 1753,4 -4,4"/>
<!-- public.t_attachable_items -->
<g id="node1" class="node">
<title>public.t_attachable_items</title>
<polygon fill="#efefef" stroke="transparent" points="702,-472.5 702,-507.5 1046,-507.5 1046,-472.5 702,-472.5"/>
<polygon fill="none" stroke="#000000" points="702,-472.5 702,-507.5 1046,-507.5 1046,-472.5 702,-472.5"/>
<text text-anchor="start" x="708.6888" y="-485.3" font-family="Arial Bold" font-size="18.00" fill="#000000">public.t_attachable_items</text>
<text text-anchor="start" x="911.7432" y="-485.3" font-family="Arial" font-size="14.00" fill="#000000">    </text>
<text text-anchor="start" x="945.948" y="-485.3" font-family="Arial" font-size="14.00" fill="#666666">[BASE TABLE]</text>
<polygon fill="none" stroke="#000000" points="702,-442.5 702,-472.5 1046,-472.5 1046,-442.5 702,-442.5"/>
<text text-anchor="start" x="709" y="-453.9" font-family="Arial" font-size="14.00" fill="#000000">t_attachable_items_pkey </text>
<text text-anchor="start" x="867.718" y="-453.9" font-family="Arial" font-size="14.00" fill="#666666">[bigint]</text>
<polygon fill="none" stroke="#000000" points="702,-412.5 702,-442.5 1046,-442.5 1046,-412.5 702,-412.5"/>
<text text-anchor="start" x="709" y="-423.9" font-family="Arial" font-size="14.00" fill="#000000">attachable_item_id </text>
<text text-anchor="start" x="830.3688" y="-423.9" font-family="Arial" font-size="14.00" fill="#666666">[uuid]</text>
<polygon fill="none" stroke="#000000" points="702,-382.5 702,-412.5 1046,-412.5 1046,-382.5 702,-382.5"/>
<text text-anchor="start" x="709" y="-393.9" font-family="Arial" font-size="14.00" fill="#000000">url </text>
<text text-anchor="start" x="728.4404" y="-393.9" font-family="Arial" font-size="14.00" fill="#666666">[text]</text>
<polygon fill="none" stroke="#000000" points="702,-352.5 702,-382.5 1046,-382.5 1046,-352.5 702,-352.5"/>
<text text-anchor="start" x="709" y="-363.9" font-family="Arial" font-size="14.00" fill="#000000">size </text>
<text text-anchor="start" x="737.7798" y="-363.9" font-family="Arial" font-size="14.00" fill="#666666">[double precision]</text>
<polygon fill="none" stroke="#000000" points="702,-322.5 702,-352.5 1046,-352.5 1046,-322.5 702,-322.5"/>
<text text-anchor="start" x="709" y="-333.9" font-family="Arial" font-size="14.00" fill="#000000">mime_type_id </text>
<text text-anchor="start" x="800.0112" y="-333.9" font-family="Arial" font-size="14.00" fill="#666666">[uuid]</text>
<polygon fill="none" stroke="#000000" stroke-width="3" points="700.5,-321.5 700.5,-509.5 1047.5,-509.5 1047.5,-321.5 700.5,-321.5"/>
</g>
<!-- public.m_mime_types -->
<g id="node5" class="node">
<title>public.m_mime_types</title>
<polygon fill="#efefef" stroke="transparent" points="716,-162.5 716,-197.5 1031,-197.5 1031,-162.5 716,-162.5"/>
<polygon fill="none" stroke="#000000" points="716,-162.5 716,-197.5 1031,-197.5 1031,-162.5 716,-162.5"/>
<text text-anchor="start" x="722.7094" y="-175.3" font-family="Arial Bold" font-size="18.00" fill="#000000">public.m_mime_types</text>
<text text-anchor="start" x="896.7226" y="-175.3" font-family="Arial" font-size="14.00" fill="#000000">    </text>
<text text-anchor="start" x="930.9274" y="-175.3" font-family="Arial" font-size="14.00" fill="#666666">[BASE TABLE]</text>
<polygon fill="none" stroke="#000000" points="716,-132.5 716,-162.5 1031,-162.5 1031,-132.5 716,-132.5"/>
<text text-anchor="start" x="723" y="-143.9" font-family="Arial" font-size="14.00" fill="#000000">m_mime_types_pkey    </text>
<text text-anchor="start" x="889.4446" y="-143.9" font-family="Arial" font-size="14.00" fill="#666666">[bigint]</text>
<polygon fill="none" stroke="#000000" points="716,-102.5 716,-132.5 1031,-132.5 1031,-102.5 716,-102.5"/>
<text text-anchor="start" x="723" y="-113.9" font-family="Arial" font-size="14.00" fill="#000000">mime_type_id    </text>
<text text-anchor="start" x="844.3254" y="-113.9" font-family="Arial" font-size="14.00" fill="#666666">[uuid]</text>
<polygon fill="none" stroke="#000000" points="716,-72.5 716,-102.5 1031,-102.5 1031,-72.5 716,-72.5"/>
<text text-anchor="start" x="723" y="-83.9" font-family="Arial" font-size="14.00" fill="#000000">name    </text>
<text text-anchor="start" x="792.2132" y="-83.9" font-family="Arial" font-size="14.00" fill="#666666">[varchar(255)]</text>
<polygon fill="none" stroke="#000000" points="716,-42.5 716,-72.5 1031,-72.5 1031,-42.5 716,-42.5"/>
<text text-anchor="start" x="723" y="-53.9" font-family="Arial" font-size="14.00" fill="#000000">key    </text>
<text text-anchor="start" x="778.9874" y="-53.9" font-family="Arial" font-size="14.00" fill="#666666">[varchar(255)]</text>
</g>
<!-- public.t_attachable_items&#45;&gt;public.m_mime_types -->
<g id="edge4" class="edge">
<title>public.t_attachable_items:mime_type_id&#45;&gt;public.m_mime_types:mime_type_id</title>
<path fill="none" stroke="#000000" d="M874.7461,-312.3581C884.7259,-249.6207 992.0895,-305.0396 1031,-241 1059.5018,-194.0912 1085.8889,-117.5 1031,-117.5"/>
<polygon fill="#000000" stroke="#000000" points="874.7337,-312.5269 869.5121,-322.1698 874.3669,-317.5135 874,-322.5 874,-322.5 874,-322.5 874.3669,-317.5135 878.4879,-322.8302 874.7337,-312.5269 874.7337,-312.5269"/>
<text text-anchor="start" x="290.669" y="-332.5" font-family="Arial" font-size="10.00" fill="#000000">FOREIGN KEY (mime_type_id) REFERENCES m_mime_types(mime_type_id) ON UPDATE RESTRICT ON DELETE RESTRICT</text>
</g>
<!-- public.t_images -->
<g id="node2" class="node">
<title>public.t_images</title>
<polygon fill="#efefef" stroke="transparent" points="384,-782.5 384,-817.5 650,-817.5 650,-782.5 384,-782.5"/>
<polygon fill="none" stroke="#000000" points="384,-782.5 384,-817.5 650,-817.5 650,-782.5 384,-782.5"/>
<text text-anchor="start" x="390.7047" y="-795.3" font-family="Arial Bold" font-size="18.00" fill="#000000">public.t_images</text>
<text text-anchor="start" x="515.7273" y="-795.3" font-family="Arial" font-size="14.00" fill="#000000">    </text>
<text text-anchor="start" x="549.9321" y="-795.3" font-family="Arial" font-size="14.00" fill="#666666">[BASE TABLE]</text>
<polygon fill="none" stroke="#000000" points="384,-752.5 384,-782.5 650,-782.5 650,-752.5 384,-752.5"/>
<text text-anchor="start" x="391" y="-763.9" font-family="Arial" font-size="14.00" fill="#000000">t_images_pkey    </text>
<text text-anchor="start" x="519.3408" y="-763.9" font-family="Arial" font-size="14.00" fill="#666666">[bigint]</text>
<polygon fill="none" stroke="#000000" points="384,-722.5 384,-752.5 650,-752.5 650,-722.5 384,-722.5"/>
<text text-anchor="start" x="391" y="-733.9" font-family="Arial" font-size="14.00" fill="#000000">image_id    </text>
<text text-anchor="start" x="481.9916" y="-733.9" font-family="Arial" font-size="14.00" fill="#666666">[uuid]</text>
<polygon fill="none" stroke="#000000" points="384,-692.5 384,-722.5 650,-722.5 650,-692.5 384,-692.5"/>
<text text-anchor="start" x="391" y="-703.9" font-family="Arial" font-size="14.00" fill="#000000">height    </text>
<text text-anchor="start" x="463.3324" y="-703.9" font-family="Arial" font-size="14.00" fill="#666666">[double precision]</text>
<polygon fill="none" stroke="#000000" points="384,-662.5 384,-692.5 650,-692.5 650,-662.5 384,-662.5"/>
<text text-anchor="start" x="391" y="-673.9" font-family="Arial" font-size="14.00" fill="#000000">width    </text>
<text text-anchor="start" x="457.8738" y="-673.9" font-family="Arial" font-size="14.00" fill="#666666">[double precision]</text>
<polygon fill="none" stroke="#000000" points="384,-632.5 384,-662.5 650,-662.5 650,-632.5 384,-632.5"/>
<text text-anchor="start" x="391" y="-643.9" font-family="Arial" font-size="14.00" fill="#000000">attachable_item_id    </text>
<text text-anchor="start" x="542.683" y="-643.9" font-family="Arial" font-size="14.00" fill="#666666">[uuid]</text>
</g>
<!-- public.t_images&#45;&gt;public.t_attachable_items -->
<g id="edge1" class="edge">
<title>public.t_images:attachable_item_id&#45;&gt;public.t_attachable_items:attachable_item_id</title>
<path fill="none" stroke="#000000" d="M660.1804,-646.6136C739.761,-631.4748 605.2565,-427.5 702,-427.5"/>
<polygon fill="#000000" stroke="#000000" points="659.9623,-646.6325 649.6096,-643.017 654.9812,-647.0662 650,-647.5 650,-647.5 650,-647.5 654.9812,-647.0662 650.3904,-651.983 659.9623,-646.6325 659.9623,-646.6325"/>
<text text-anchor="start" x="6.918" y="-657.5" font-family="Arial" font-size="10.00" fill="#000000">FOREIGN KEY (attachable_item_id) REFERENCES t_attachable_items(attachable_item_id) ON UPDATE RESTRICT ON DELETE RESTRICT</text>
</g>
<!-- public.t_files -->
<g id="node3" class="node">
<title>public.t_files</title>
<polygon fill="#efefef" stroke="transparent" points="754,-752.5 754,-787.5 994,-787.5 994,-752.5 754,-752.5"/>
<polygon fill="none" stroke="#000000" points="754,-752.5 754,-787.5 994,-787.5 994,-752.5 754,-752.5"/>
<text text-anchor="start" x="760.7088" y="-765.3" font-family="Arial Bold" font-size="18.00" fill="#000000">public.t_files</text>
<text text-anchor="start" x="859.7232" y="-765.3" font-family="Arial" font-size="14.00" fill="#000000">    </text>
<text text-anchor="start" x="893.928" y="-765.3" font-family="Arial" font-size="14.00" fill="#666666">[BASE TABLE]</text>
<polygon fill="none" stroke="#000000" points="754,-722.5 754,-752.5 994,-752.5 994,-722.5 754,-722.5"/>
<text text-anchor="start" x="761" y="-733.9" font-family="Arial" font-size="14.00" fill="#000000">t_files_pkey    </text>
<text text-anchor="start" x="869.1122" y="-733.9" font-family="Arial" font-size="14.00" fill="#666666">[bigint]</text>
<polygon fill="none" stroke="#000000" points="754,-692.5 754,-722.5 994,-722.5 994,-692.5 754,-692.5"/>
<text text-anchor="start" x="761" y="-703.9" font-family="Arial" font-size="14.00" fill="#000000">file_id    </text>
<text text-anchor="start" x="831.763" y="-703.9" font-family="Arial" font-size="14.00" fill="#666666">[uuid]</text>
<polygon fill="none" stroke="#000000" points="754,-662.5 754,-692.5 994,-692.5 994,-662.5 754,-662.5"/>
<text text-anchor="start" x="761" y="-673.9" font-family="Arial" font-size="14.00" fill="#000000">attachable_item_id    </text>
<text text-anchor="start" x="912.683" y="-673.9" font-family="Arial" font-size="14.00" fill="#666666">[uuid]</text>
</g>
<!-- public.t_files&#45;&gt;public.t_attachable_items -->
<g id="edge2" class="edge">
<title>public.t_files:attachable_item_id&#45;&gt;public.t_attachable_items:attachable_item_id</title>
<path fill="none" stroke="#000000" d="M874.6331,-652.1226C884.3862,-576.8871 1004.1403,-629.8981 1046,-554 1073.1522,-504.7689 1102.2222,-427.5 1046,-427.5"/>
<polygon fill="#000000" stroke="#000000" points="874.609,-652.5186 869.5084,-662.2259 874.3045,-657.5093 874,-662.5 874,-662.5 874,-662.5 874.3045,-657.5093 878.4916,-662.7741 874.609,-652.5186 874.609,-652.5186"/>
<text text-anchor="start" x="718.418" y="-646.5" font-family="Arial" font-size="10.00" fill="#000000">FOREIGN KEY (attachable_item_id) REFERENCES t_attachable_items(attachable_item_id) ON UPDATE RESTRICT ON DELETE RESTRICT</text>
</g>
<!-- public.t_attached_messages -->
<g id="node4" class="node">
<title>public.t_attached_messages</title>
<polygon fill="#efefef" stroke="transparent" points="1099,-752.5 1099,-787.5 1468,-787.5 1468,-752.5 1099,-752.5"/>
<polygon fill="none" stroke="#000000" points="1099,-752.5 1099,-787.5 1468,-787.5 1468,-752.5 1099,-752.5"/>
<text text-anchor="start" x="1105.6779" y="-765.3" font-family="Arial Bold" font-size="18.00" fill="#000000">public.t_attached_messages</text>
<text text-anchor="start" x="1333.7541" y="-765.3" font-family="Arial" font-size="14.00" fill="#000000">    </text>
<text text-anchor="start" x="1367.9589" y="-765.3" font-family="Arial" font-size="14.00" fill="#666666">[BASE TABLE]</text>
<polygon fill="none" stroke="#000000" points="1099,-722.5 1099,-752.5 1468,-752.5 1468,-722.5 1099,-722.5"/>
<text text-anchor="start" x="1106" y="-733.9" font-family="Arial" font-size="14.00" fill="#000000">t_attached_messages_pkey    </text>
<text text-anchor="start" x="1314.4936" y="-733.9" font-family="Arial" font-size="14.00" fill="#666666">[bigint]</text>
<polygon fill="none" stroke="#000000" points="1099,-692.5 1099,-722.5 1468,-722.5 1468,-692.5 1099,-692.5"/>
<text text-anchor="start" x="1106" y="-703.9" font-family="Arial" font-size="14.00" fill="#000000">message_id    </text>
<text text-anchor="start" x="1215.6676" y="-703.9" font-family="Arial" font-size="14.00" fill="#666666">[uuid]</text>
<polygon fill="none" stroke="#000000" points="1099,-662.5 1099,-692.5 1468,-692.5 1468,-662.5 1099,-662.5"/>
<text text-anchor="start" x="1106" y="-673.9" font-family="Arial" font-size="14.00" fill="#000000">attachable_item_id    </text>
<text text-anchor="start" x="1257.683" y="-673.9" font-family="Arial" font-size="14.00" fill="#666666">[uuid]</text>
</g>
<!-- public.t_attached_messages&#45;&gt;public.t_attachable_items -->
<g id="edge3" class="edge">
<title>public.t_attached_messages:attachable_item_id&#45;&gt;public.t_attachable_items:attachable_item_id</title>
<path fill="none" stroke="#000000" d="M1088.8963,-676.7378C996.3458,-661.6464 1155.9202,-427.5 1046,-427.5"/>
<polygon fill="#000000" stroke="#000000" points="1089.0283,-676.7477 1098.6615,-681.9873 1094.0142,-677.1238 1099,-677.5 1099,-677.5 1099,-677.5 1094.0142,-677.1238 1099.3385,-673.0127 1089.0283,-676.7477 1089.0283,-676.7477"/>
<text text-anchor="start" x="1105.918" y="-687.5" font-family="Arial" font-size="10.00" fill="#000000">FOREIGN KEY (attachable_item_id) REFERENCES t_attachable_items(attachable_item_id) ON UPDATE RESTRICT ON DELETE RESTRICT</text>
</g>
</g>
</svg>
