<?xml version="1.0" encoding="UTF-8" standalone="no"?>
<!DOCTYPE svg PUBLIC "-//W3C//DTD SVG 1.1//EN"
 "http://www.w3.org/Graphics/SVG/1.1/DTD/svg11.dtd">
<!-- Generated by graphviz version 2.40.1 (20161225.0304)
 -->
<!-- Title: public.m_organizations Pages: 1 -->
<svg width="3285pt" height="1499pt"
 viewBox="0.00 0.00 3285.00 1499.00" xmlns="http://www.w3.org/2000/svg" xmlns:xlink="http://www.w3.org/1999/xlink">
<g id="graph0" class="graph" transform="scale(1 1) rotate(0) translate(4 1495)">
<title>public.m_organizations</title>
<polygon fill="#ffffff" stroke="transparent" points="-4,4 -4,-1495 3281,-1495 3281,4 -4,4"/>
<!-- public.m_organizations -->
<g id="node1" class="node">
<title>public.m_organizations</title>
<polygon fill="#efefef" stroke="transparent" points="1646,-772.5 1646,-807.5 1971,-807.5 1971,-772.5 1646,-772.5"/>
<polygon fill="none" stroke="#000000" points="1646,-772.5 1646,-807.5 1971,-807.5 1971,-772.5 1646,-772.5"/>
<text text-anchor="start" x="1652.6991" y="-785.3" font-family="Arial Bold" font-size="18.00" fill="#000000">public.m_organizations</text>
<text text-anchor="start" x="1836.7329" y="-785.3" font-family="Arial" font-size="14.00" fill="#000000">    </text>
<text text-anchor="start" x="1870.9377" y="-785.3" font-family="Arial" font-size="14.00" fill="#666666">[BASE TABLE]</text>
<polygon fill="none" stroke="#000000" points="1646,-742.5 1646,-772.5 1971,-772.5 1971,-742.5 1646,-742.5"/>
<text text-anchor="start" x="1653" y="-753.9" font-family="Arial" font-size="14.00" fill="#000000">m_organizations_pkey </text>
<text text-anchor="start" x="1796.9242" y="-753.9" font-family="Arial" font-size="14.00" fill="#666666">[bigint]</text>
<polygon fill="none" stroke="#000000" points="1646,-712.5 1646,-742.5 1971,-742.5 1971,-712.5 1646,-712.5"/>
<text text-anchor="start" x="1653" y="-723.9" font-family="Arial" font-size="14.00" fill="#000000">organization_id </text>
<text text-anchor="start" x="1751.805" y="-723.9" font-family="Arial" font-size="14.00" fill="#666666">[uuid]</text>
<polygon fill="none" stroke="#000000" points="1646,-682.5 1646,-712.5 1971,-712.5 1971,-682.5 1646,-682.5"/>
<text text-anchor="start" x="1653" y="-693.9" font-family="Arial" font-size="14.00" fill="#000000">name </text>
<text text-anchor="start" x="1691.899" y="-693.9" font-family="Arial" font-size="14.00" fill="#666666">[varchar(255)]</text>
<polygon fill="none" stroke="#000000" points="1646,-652.5 1646,-682.5 1971,-682.5 1971,-652.5 1646,-652.5"/>
<text text-anchor="start" x="1653" y="-663.9" font-family="Arial" font-size="14.00" fill="#000000">description </text>
<text text-anchor="start" x="1724.568" y="-663.9" font-family="Arial" font-size="14.00" fill="#666666">[text]</text>
<polygon fill="none" stroke="#000000" points="1646,-622.5 1646,-652.5 1971,-652.5 1971,-622.5 1646,-622.5"/>
<text text-anchor="start" x="1653" y="-633.9" font-family="Arial" font-size="14.00" fill="#000000">color </text>
<text text-anchor="start" x="1687.223" y="-633.9" font-family="Arial" font-size="14.00" fill="#666666">[varchar(7)]</text>
<polygon fill="none" stroke="#000000" points="1646,-592.5 1646,-622.5 1971,-622.5 1971,-592.5 1646,-592.5"/>
<text text-anchor="start" x="1653" y="-603.9" font-family="Arial" font-size="14.00" fill="#000000">is_personal </text>
<text text-anchor="start" x="1728.46" y="-603.9" font-family="Arial" font-size="14.00" fill="#666666">[boolean]</text>
<polygon fill="none" stroke="#000000" points="1646,-562.5 1646,-592.5 1971,-592.5 1971,-562.5 1646,-562.5"/>
<text text-anchor="start" x="1653" y="-573.9" font-family="Arial" font-size="14.00" fill="#000000">is_whole </text>
<text text-anchor="start" x="1711.3408" y="-573.9" font-family="Arial" font-size="14.00" fill="#666666">[boolean]</text>
<polygon fill="none" stroke="#000000" points="1646,-532.5 1646,-562.5 1971,-562.5 1971,-532.5 1646,-532.5"/>
<text text-anchor="start" x="1653" y="-543.9" font-family="Arial" font-size="14.00" fill="#000000">created_at </text>
<text text-anchor="start" x="1723.028" y="-543.9" font-family="Arial" font-size="14.00" fill="#666666">[timestamp with time zone]</text>
<polygon fill="none" stroke="#000000" points="1646,-502.5 1646,-532.5 1971,-532.5 1971,-502.5 1646,-502.5"/>
<text text-anchor="start" x="1653" y="-513.9" font-family="Arial" font-size="14.00" fill="#000000">updated_at </text>
<text text-anchor="start" x="1726.9326" y="-513.9" font-family="Arial" font-size="14.00" fill="#666666">[timestamp with time zone]</text>
<polygon fill="none" stroke="#000000" points="1646,-472.5 1646,-502.5 1971,-502.5 1971,-472.5 1646,-472.5"/>
<text text-anchor="start" x="1653" y="-483.9" font-family="Arial" font-size="14.00" fill="#000000">chat_room_id </text>
<text text-anchor="start" x="1741.6872" y="-483.9" font-family="Arial" font-size="14.00" fill="#666666">[uuid]</text>
<polygon fill="none" stroke="#000000" stroke-width="3" points="1644,-471.5 1644,-809.5 1972,-809.5 1972,-471.5 1644,-471.5"/>
</g>
<!-- public.m_chat_rooms -->
<g id="node9" class="node">
<title>public.m_chat_rooms</title>
<polygon fill="#efefef" stroke="transparent" points="1653,-312.5 1653,-347.5 1965,-347.5 1965,-312.5 1653,-312.5"/>
<polygon fill="none" stroke="#000000" points="1653,-312.5 1653,-347.5 1965,-347.5 1965,-312.5 1653,-312.5"/>
<text text-anchor="start" x="1659.7034" y="-325.3" font-family="Arial Bold" font-size="18.00" fill="#000000">public.m_chat_rooms</text>
<text text-anchor="start" x="1830.7286" y="-325.3" font-family="Arial" font-size="14.00" fill="#000000">    </text>
<text text-anchor="start" x="1864.9334" y="-325.3" font-family="Arial" font-size="14.00" fill="#666666">[BASE TABLE]</text>
<polygon fill="none" stroke="#000000" points="1653,-282.5 1653,-312.5 1965,-312.5 1965,-282.5 1653,-282.5"/>
<text text-anchor="start" x="1660" y="-293.9" font-family="Arial" font-size="14.00" fill="#000000">m_chat_rooms_pkey    </text>
<text text-anchor="start" x="1824.1206" y="-293.9" font-family="Arial" font-size="14.00" fill="#666666">[bigint]</text>
<polygon fill="none" stroke="#000000" points="1653,-252.5 1653,-282.5 1965,-282.5 1965,-252.5 1653,-252.5"/>
<text text-anchor="start" x="1660" y="-263.9" font-family="Arial" font-size="14.00" fill="#000000">chat_room_id    </text>
<text text-anchor="start" x="1779.0014" y="-263.9" font-family="Arial" font-size="14.00" fill="#666666">[uuid]</text>
<polygon fill="none" stroke="#000000" points="1653,-222.5 1653,-252.5 1965,-252.5 1965,-222.5 1653,-222.5"/>
<text text-anchor="start" x="1660" y="-233.9" font-family="Arial" font-size="14.00" fill="#000000">name    </text>
<text text-anchor="start" x="1729.2132" y="-233.9" font-family="Arial" font-size="14.00" fill="#666666">[varchar(255)]</text>
<polygon fill="none" stroke="#000000" points="1653,-192.5 1653,-222.5 1965,-222.5 1965,-192.5 1653,-192.5"/>
<text text-anchor="start" x="1660" y="-203.9" font-family="Arial" font-size="14.00" fill="#000000">is_private    </text>
<text text-anchor="start" x="1754.0996" y="-203.9" font-family="Arial" font-size="14.00" fill="#666666">[boolean]</text>
<polygon fill="none" stroke="#000000" points="1653,-162.5 1653,-192.5 1965,-192.5 1965,-162.5 1653,-162.5"/>
<text text-anchor="start" x="1660" y="-173.9" font-family="Arial" font-size="14.00" fill="#000000">cover_image_id    </text>
<text text-anchor="start" x="1793" y="-173.9" font-family="Arial" font-size="14.00" fill="#666666">[uuid]</text>
<polygon fill="none" stroke="#000000" points="1653,-132.5 1653,-162.5 1965,-162.5 1965,-132.5 1653,-132.5"/>
<text text-anchor="start" x="1660" y="-143.9" font-family="Arial" font-size="14.00" fill="#000000">owner_id    </text>
<text text-anchor="start" x="1750.9916" y="-143.9" font-family="Arial" font-size="14.00" fill="#666666">[uuid]</text>
<polygon fill="none" stroke="#000000" points="1653,-102.5 1653,-132.5 1965,-132.5 1965,-102.5 1653,-102.5"/>
<text text-anchor="start" x="1660" y="-113.9" font-family="Arial" font-size="14.00" fill="#000000">from_organization    </text>
<text text-anchor="start" x="1806.2244" y="-113.9" font-family="Arial" font-size="14.00" fill="#666666">[boolean]</text>
<polygon fill="none" stroke="#000000" points="1653,-72.5 1653,-102.5 1965,-102.5 1965,-72.5 1653,-72.5"/>
<text text-anchor="start" x="1660" y="-83.9" font-family="Arial" font-size="14.00" fill="#000000">created_at    </text>
<text text-anchor="start" x="1760.3422" y="-83.9" font-family="Arial" font-size="14.00" fill="#666666">[timestamp with time zone]</text>
<polygon fill="none" stroke="#000000" points="1653,-42.5 1653,-72.5 1965,-72.5 1965,-42.5 1653,-42.5"/>
<text text-anchor="start" x="1660" y="-53.9" font-family="Arial" font-size="14.00" fill="#000000">updated_at    </text>
<text text-anchor="start" x="1764.2468" y="-53.9" font-family="Arial" font-size="14.00" fill="#666666">[timestamp with time zone]</text>
</g>
<!-- public.m_organizations&#45;&gt;public.m_chat_rooms -->
<g id="edge9" class="edge">
<title>public.m_organizations:chat_room_id&#45;&gt;public.m_chat_rooms:chat_room_id</title>
<path fill="none" stroke="#000000" d="M1808.2585,-462.4066C1798.3395,-399.9535 1691.632,-454.7691 1653,-391 1624.5596,-344.0539 1598.1111,-267.5 1653,-267.5"/>
<polygon fill="#000000" stroke="#000000" points="1808.2672,-462.5269 1804.5121,-472.8298 1808.6336,-467.5134 1809,-472.5 1809,-472.5 1809,-472.5 1808.6336,-467.5134 1813.4879,-472.1702 1808.2672,-462.5269 1808.2672,-462.5269"/>
<text text-anchor="start" x="1816.159" y="-482.5" font-family="Arial" font-size="10.00" fill="#000000">FOREIGN KEY (chat_room_id) REFERENCES m_chat_rooms(chat_room_id) ON UPDATE RESTRICT ON DELETE RESTRICT</text>
</g>
<!-- public.m_work_positions -->
<g id="node2" class="node">
<title>public.m_work_positions</title>
<polygon fill="#efefef" stroke="transparent" points="267,-1277.5 267,-1312.5 604,-1312.5 604,-1277.5 267,-1277.5"/>
<polygon fill="none" stroke="#000000" points="267,-1277.5 267,-1312.5 604,-1312.5 604,-1277.5 267,-1277.5"/>
<text text-anchor="start" x="273.7051" y="-1290.3" font-family="Arial Bold" font-size="18.00" fill="#000000">public.m_work_positions</text>
<text text-anchor="start" x="469.7269" y="-1290.3" font-family="Arial" font-size="14.00" fill="#000000">    </text>
<text text-anchor="start" x="503.9317" y="-1290.3" font-family="Arial" font-size="14.00" fill="#666666">[BASE TABLE]</text>
<polygon fill="none" stroke="#000000" points="267,-1247.5 267,-1277.5 604,-1277.5 604,-1247.5 267,-1247.5"/>
<text text-anchor="start" x="274" y="-1258.9" font-family="Arial" font-size="14.00" fill="#000000">m_work_positions_pkey    </text>
<text text-anchor="start" x="457.5624" y="-1258.9" font-family="Arial" font-size="14.00" fill="#666666">[bigint]</text>
<polygon fill="none" stroke="#000000" points="267,-1217.5 267,-1247.5 604,-1247.5 604,-1217.5 267,-1217.5"/>
<text text-anchor="start" x="274" y="-1228.9" font-family="Arial" font-size="14.00" fill="#000000">work_position_id    </text>
<text text-anchor="start" x="412.4432" y="-1228.9" font-family="Arial" font-size="14.00" fill="#666666">[uuid]</text>
<polygon fill="none" stroke="#000000" points="267,-1187.5 267,-1217.5 604,-1217.5 604,-1187.5 267,-1187.5"/>
<text text-anchor="start" x="274" y="-1198.9" font-family="Arial" font-size="14.00" fill="#000000">organization_id    </text>
<text text-anchor="start" x="403.1192" y="-1198.9" font-family="Arial" font-size="14.00" fill="#666666">[uuid]</text>
<polygon fill="none" stroke="#000000" points="267,-1157.5 267,-1187.5 604,-1187.5 604,-1157.5 267,-1157.5"/>
<text text-anchor="start" x="274" y="-1168.9" font-family="Arial" font-size="14.00" fill="#000000">name    </text>
<text text-anchor="start" x="343.2132" y="-1168.9" font-family="Arial" font-size="14.00" fill="#666666">[varchar(255)]</text>
<polygon fill="none" stroke="#000000" points="267,-1127.5 267,-1157.5 604,-1157.5 604,-1127.5 267,-1127.5"/>
<text text-anchor="start" x="274" y="-1138.9" font-family="Arial" font-size="14.00" fill="#000000">description    </text>
<text text-anchor="start" x="375.8822" y="-1138.9" font-family="Arial" font-size="14.00" fill="#666666">[text]</text>
<polygon fill="none" stroke="#000000" points="267,-1097.5 267,-1127.5 604,-1127.5 604,-1097.5 267,-1097.5"/>
<text text-anchor="start" x="274" y="-1108.9" font-family="Arial" font-size="14.00" fill="#000000">created_at    </text>
<text text-anchor="start" x="374.3422" y="-1108.9" font-family="Arial" font-size="14.00" fill="#666666">[timestamp with time zone]</text>
<polygon fill="none" stroke="#000000" points="267,-1067.5 267,-1097.5 604,-1097.5 604,-1067.5 267,-1067.5"/>
<text text-anchor="start" x="274" y="-1078.9" font-family="Arial" font-size="14.00" fill="#000000">updated_at    </text>
<text text-anchor="start" x="378.2468" y="-1078.9" font-family="Arial" font-size="14.00" fill="#666666">[timestamp with time zone]</text>
</g>
<!-- public.m_work_positions&#45;&gt;public.m_organizations -->
<g id="edge1" class="edge">
<title>public.m_work_positions:organization_id&#45;&gt;public.m_organizations:organization_id</title>
<path fill="none" stroke="#000000" d="M614.0061,-1200.3779C667.4059,-1175.3827 607.8873,-937.1483 655,-890 812.7406,-732.1401 1422.8367,-727.5 1646,-727.5"/>
<polygon fill="#000000" stroke="#000000" points="613.7824,-1200.4252 603.0664,-1198.0979 608.8912,-1201.4626 604,-1202.5 604,-1202.5 604,-1202.5 608.8912,-1201.4626 604.9336,-1206.9021 613.7824,-1200.4252 613.7824,-1200.4252"/>
<text text-anchor="start" x="6.9775" y="-1212.5" font-family="Arial" font-size="10.00" fill="#000000">FOREIGN KEY (organization_id) REFERENCES m_organizations(organization_id) ON UPDATE CASCADE ON DELETE CASCADE</text>
</g>
<!-- public.m_groups -->
<g id="node3" class="node">
<title>public.m_groups</title>
<polygon fill="#efefef" stroke="transparent" points="708,-1232.5 708,-1267.5 981,-1267.5 981,-1232.5 708,-1232.5"/>
<polygon fill="none" stroke="#000000" points="708,-1232.5 708,-1267.5 981,-1267.5 981,-1232.5 708,-1232.5"/>
<text text-anchor="start" x="714.7037" y="-1245.3" font-family="Arial Bold" font-size="18.00" fill="#000000">public.m_groups</text>
<text text-anchor="start" x="846.7283" y="-1245.3" font-family="Arial" font-size="14.00" fill="#000000">    </text>
<text text-anchor="start" x="880.9331" y="-1245.3" font-family="Arial" font-size="14.00" fill="#666666">[BASE TABLE]</text>
<polygon fill="none" stroke="#000000" points="708,-1202.5 708,-1232.5 981,-1232.5 981,-1202.5 708,-1202.5"/>
<text text-anchor="start" x="715" y="-1213.9" font-family="Arial" font-size="14.00" fill="#000000">m_groups_pkey    </text>
<text text-anchor="start" x="848.7868" y="-1213.9" font-family="Arial" font-size="14.00" fill="#666666">[bigint]</text>
<polygon fill="none" stroke="#000000" points="708,-1172.5 708,-1202.5 981,-1202.5 981,-1172.5 708,-1172.5"/>
<text text-anchor="start" x="715" y="-1183.9" font-family="Arial" font-size="14.00" fill="#000000">group_id    </text>
<text text-anchor="start" x="803.6676" y="-1183.9" font-family="Arial" font-size="14.00" fill="#666666">[uuid]</text>
<polygon fill="none" stroke="#000000" points="708,-1142.5 708,-1172.5 981,-1172.5 981,-1142.5 708,-1142.5"/>
<text text-anchor="start" x="715" y="-1153.9" font-family="Arial" font-size="14.00" fill="#000000">key    </text>
<text text-anchor="start" x="770.9874" y="-1153.9" font-family="Arial" font-size="14.00" fill="#666666">[varchar(255)]</text>
<polygon fill="none" stroke="#000000" points="708,-1112.5 708,-1142.5 981,-1142.5 981,-1112.5 708,-1112.5"/>
<text text-anchor="start" x="715" y="-1123.9" font-family="Arial" font-size="14.00" fill="#000000">organization_id    </text>
<text text-anchor="start" x="844.1192" y="-1123.9" font-family="Arial" font-size="14.00" fill="#666666">[uuid]</text>
</g>
<!-- public.m_groups&#45;&gt;public.m_organizations -->
<g id="edge2" class="edge">
<title>public.m_groups:organization_id&#45;&gt;public.m_organizations:organization_id</title>
<path fill="none" stroke="#000000" d="M991.2489,-1126.951C1080.2146,-1116.6999 960.0292,-965.4507 1032,-890 1129.4196,-787.87 1504.8579,-727.5 1646,-727.5"/>
<polygon fill="#000000" stroke="#000000" points="990.9857,-1126.965 980.7593,-1123.0064 985.9928,-1127.2325 981,-1127.5 981,-1127.5 981,-1127.5 985.9928,-1127.2325 981.2407,-1131.9936 990.9857,-1126.965 990.9857,-1126.965"/>
<text text-anchor="start" x="684.8185" y="-1111.5" font-family="Arial" font-size="10.00" fill="#000000">FOREIGN KEY (organization_id) REFERENCES m_organizations(organization_id) ON UPDATE RESTRICT ON DELETE RESTRICT</text>
</g>
<!-- public.m_grades -->
<g id="node4" class="node">
<title>public.m_grades</title>
<polygon fill="#efefef" stroke="transparent" points="1085,-1232.5 1085,-1267.5 1358,-1267.5 1358,-1232.5 1085,-1232.5"/>
<polygon fill="none" stroke="#000000" points="1085,-1232.5 1085,-1267.5 1358,-1267.5 1358,-1232.5 1085,-1232.5"/>
<text text-anchor="start" x="1091.7037" y="-1245.3" font-family="Arial Bold" font-size="18.00" fill="#000000">public.m_grades</text>
<text text-anchor="start" x="1223.7283" y="-1245.3" font-family="Arial" font-size="14.00" fill="#000000">    </text>
<text text-anchor="start" x="1257.9331" y="-1245.3" font-family="Arial" font-size="14.00" fill="#666666">[BASE TABLE]</text>
<polygon fill="none" stroke="#000000" points="1085,-1202.5 1085,-1232.5 1358,-1232.5 1358,-1202.5 1085,-1202.5"/>
<text text-anchor="start" x="1092" y="-1213.9" font-family="Arial" font-size="14.00" fill="#000000">m_grades_pkey    </text>
<text text-anchor="start" x="1225.7868" y="-1213.9" font-family="Arial" font-size="14.00" fill="#666666">[bigint]</text>
<polygon fill="none" stroke="#000000" points="1085,-1172.5 1085,-1202.5 1358,-1202.5 1358,-1172.5 1085,-1172.5"/>
<text text-anchor="start" x="1092" y="-1183.9" font-family="Arial" font-size="14.00" fill="#000000">grade_id    </text>
<text text-anchor="start" x="1180.6676" y="-1183.9" font-family="Arial" font-size="14.00" fill="#666666">[uuid]</text>
<polygon fill="none" stroke="#000000" points="1085,-1142.5 1085,-1172.5 1358,-1172.5 1358,-1142.5 1085,-1142.5"/>
<text text-anchor="start" x="1092" y="-1153.9" font-family="Arial" font-size="14.00" fill="#000000">key    </text>
<text text-anchor="start" x="1147.9874" y="-1153.9" font-family="Arial" font-size="14.00" fill="#666666">[varchar(255)]</text>
<polygon fill="none" stroke="#000000" points="1085,-1112.5 1085,-1142.5 1358,-1142.5 1358,-1112.5 1085,-1112.5"/>
<text text-anchor="start" x="1092" y="-1123.9" font-family="Arial" font-size="14.00" fill="#000000">organization_id    </text>
<text text-anchor="start" x="1221.1192" y="-1123.9" font-family="Arial" font-size="14.00" fill="#666666">[uuid]</text>
</g>
<!-- public.m_grades&#45;&gt;public.m_organizations -->
<g id="edge3" class="edge">
<title>public.m_grades:organization_id&#45;&gt;public.m_organizations:organization_id</title>
<path fill="none" stroke="#000000" d="M1368.0244,-1127.0186C1458.382,-1117.7474 1350.8728,-976.6938 1409,-890 1480.1241,-783.9221 1518.2848,-727.5 1646,-727.5"/>
<polygon fill="#000000" stroke="#000000" points="1367.9885,-1127.0203 1357.7841,-1123.0052 1362.9942,-1127.2601 1358,-1127.5 1358,-1127.5 1358,-1127.5 1362.9942,-1127.2601 1358.2159,-1131.9948 1367.9885,-1127.0203 1367.9885,-1127.0203"/>
<text text-anchor="start" x="758.3185" y="-1137.5" font-family="Arial" font-size="10.00" fill="#000000">FOREIGN KEY (organization_id) REFERENCES m_organizations(organization_id) ON UPDATE RESTRICT ON DELETE RESTRICT</text>
</g>
<!-- public.m_members -->
<g id="node5" class="node">
<title>public.m_members</title>
<polygon fill="#efefef" stroke="transparent" points="1462,-1412.5 1462,-1447.5 1755,-1447.5 1755,-1412.5 1462,-1412.5"/>
<polygon fill="none" stroke="#000000" points="1462,-1412.5 1462,-1447.5 1755,-1447.5 1755,-1412.5 1462,-1412.5"/>
<text text-anchor="start" x="1468.7146" y="-1425.3" font-family="Arial Bold" font-size="18.00" fill="#000000">public.m_members</text>
<text text-anchor="start" x="1620.7174" y="-1425.3" font-family="Arial" font-size="14.00" fill="#000000">    </text>
<text text-anchor="start" x="1654.9222" y="-1425.3" font-family="Arial" font-size="14.00" fill="#666666">[BASE TABLE]</text>
<polygon fill="none" stroke="#000000" points="1462,-1382.5 1462,-1412.5 1755,-1412.5 1755,-1382.5 1462,-1382.5"/>
<text text-anchor="start" x="1469" y="-1393.9" font-family="Arial" font-size="14.00" fill="#000000">m_members_pkey    </text>
<text text-anchor="start" x="1618.3254" y="-1393.9" font-family="Arial" font-size="14.00" fill="#666666">[bigint]</text>
<polygon fill="none" stroke="#000000" points="1462,-1352.5 1462,-1382.5 1755,-1382.5 1755,-1352.5 1462,-1352.5"/>
<text text-anchor="start" x="1469" y="-1363.9" font-family="Arial" font-size="14.00" fill="#000000">member_id    </text>
<text text-anchor="start" x="1573.2062" y="-1363.9" font-family="Arial" font-size="14.00" fill="#666666">[uuid]</text>
<polygon fill="none" stroke="#000000" points="1462,-1322.5 1462,-1352.5 1755,-1352.5 1755,-1322.5 1462,-1322.5"/>
<text text-anchor="start" x="1469" y="-1333.9" font-family="Arial" font-size="14.00" fill="#000000">login_id    </text>
<text text-anchor="start" x="1551.4376" y="-1333.9" font-family="Arial" font-size="14.00" fill="#666666">[varchar(255)]</text>
<polygon fill="none" stroke="#000000" points="1462,-1292.5 1462,-1322.5 1755,-1322.5 1755,-1292.5 1462,-1292.5"/>
<text text-anchor="start" x="1469" y="-1303.9" font-family="Arial" font-size="14.00" fill="#000000">password    </text>
<text text-anchor="start" x="1563.1024" y="-1303.9" font-family="Arial" font-size="14.00" fill="#666666">[varchar(255)]</text>
<polygon fill="none" stroke="#000000" points="1462,-1262.5 1462,-1292.5 1755,-1292.5 1755,-1262.5 1462,-1262.5"/>
<text text-anchor="start" x="1469" y="-1273.9" font-family="Arial" font-size="14.00" fill="#000000">email    </text>
<text text-anchor="start" x="1536.6438" y="-1273.9" font-family="Arial" font-size="14.00" fill="#666666">[varchar(255)]</text>
<polygon fill="none" stroke="#000000" points="1462,-1232.5 1462,-1262.5 1755,-1262.5 1755,-1232.5 1462,-1232.5"/>
<text text-anchor="start" x="1469" y="-1243.9" font-family="Arial" font-size="14.00" fill="#000000">name    </text>
<text text-anchor="start" x="1538.2132" y="-1243.9" font-family="Arial" font-size="14.00" fill="#666666">[varchar(255)]</text>
<polygon fill="none" stroke="#000000" points="1462,-1202.5 1462,-1232.5 1755,-1232.5 1755,-1202.5 1462,-1202.5"/>
<text text-anchor="start" x="1469" y="-1213.9" font-family="Arial" font-size="14.00" fill="#000000">first_name    </text>
<text text-anchor="start" x="1568.5442" y="-1213.9" font-family="Arial" font-size="14.00" fill="#666666">[varchar(255)]</text>
<polygon fill="none" stroke="#000000" points="1462,-1172.5 1462,-1202.5 1755,-1202.5 1755,-1172.5 1462,-1172.5"/>
<text text-anchor="start" x="1469" y="-1183.9" font-family="Arial" font-size="14.00" fill="#000000">last_name    </text>
<text text-anchor="start" x="1567.7756" y="-1183.9" font-family="Arial" font-size="14.00" fill="#666666">[varchar(255)]</text>
<polygon fill="none" stroke="#000000" points="1462,-1142.5 1462,-1172.5 1755,-1172.5 1755,-1142.5 1462,-1142.5"/>
<text text-anchor="start" x="1469" y="-1153.9" font-family="Arial" font-size="14.00" fill="#000000">attend_status_id    </text>
<text text-anchor="start" x="1605.9172" y="-1153.9" font-family="Arial" font-size="14.00" fill="#666666">[uuid]</text>
<polygon fill="none" stroke="#000000" points="1462,-1112.5 1462,-1142.5 1755,-1142.5 1755,-1112.5 1462,-1112.5"/>
<text text-anchor="start" x="1469" y="-1123.9" font-family="Arial" font-size="14.00" fill="#000000">profile_image_id    </text>
<text text-anchor="start" x="1605.8864" y="-1123.9" font-family="Arial" font-size="14.00" fill="#666666">[uuid]</text>
<polygon fill="none" stroke="#000000" points="1462,-1082.5 1462,-1112.5 1755,-1112.5 1755,-1082.5 1462,-1082.5"/>
<text text-anchor="start" x="1469" y="-1093.9" font-family="Arial" font-size="14.00" fill="#000000">grade_id    </text>
<text text-anchor="start" x="1557.6676" y="-1093.9" font-family="Arial" font-size="14.00" fill="#666666">[uuid]</text>
<polygon fill="none" stroke="#000000" points="1462,-1052.5 1462,-1082.5 1755,-1082.5 1755,-1052.5 1462,-1052.5"/>
<text text-anchor="start" x="1469" y="-1063.9" font-family="Arial" font-size="14.00" fill="#000000">group_id    </text>
<text text-anchor="start" x="1557.6676" y="-1063.9" font-family="Arial" font-size="14.00" fill="#666666">[uuid]</text>
<polygon fill="none" stroke="#000000" points="1462,-1022.5 1462,-1052.5 1755,-1052.5 1755,-1022.5 1462,-1022.5"/>
<text text-anchor="start" x="1469" y="-1033.9" font-family="Arial" font-size="14.00" fill="#000000">personal_organization_id    </text>
<text text-anchor="start" x="1659.582" y="-1033.9" font-family="Arial" font-size="14.00" fill="#666666">[uuid]</text>
<polygon fill="none" stroke="#000000" points="1462,-992.5 1462,-1022.5 1755,-1022.5 1755,-992.5 1462,-992.5"/>
<text text-anchor="start" x="1469" y="-1003.9" font-family="Arial" font-size="14.00" fill="#000000">role_id    </text>
<text text-anchor="start" x="1545.209" y="-1003.9" font-family="Arial" font-size="14.00" fill="#666666">[uuid]</text>
<polygon fill="none" stroke="#000000" points="1462,-962.5 1462,-992.5 1755,-992.5 1755,-962.5 1462,-962.5"/>
<text text-anchor="start" x="1469" y="-973.9" font-family="Arial" font-size="14.00" fill="#000000">created_at    </text>
<text text-anchor="start" x="1569.3422" y="-973.9" font-family="Arial" font-size="14.00" fill="#666666">[timestamp with time zone]</text>
<polygon fill="none" stroke="#000000" points="1462,-932.5 1462,-962.5 1755,-962.5 1755,-932.5 1462,-932.5"/>
<text text-anchor="start" x="1469" y="-943.9" font-family="Arial" font-size="14.00" fill="#000000">updated_at    </text>
<text text-anchor="start" x="1573.2468" y="-943.9" font-family="Arial" font-size="14.00" fill="#666666">[timestamp with time zone]</text>
</g>
<!-- public.m_members&#45;&gt;public.m_organizations -->
<g id="edge4" class="edge">
<title>public.m_members:personal_organization_id&#45;&gt;public.m_organizations:organization_id</title>
<path fill="none" stroke="#000000" d="M1765.2619,-1036.6164C1817.4437,-1026.9418 1791.229,-940.1193 1755,-890 1725.1121,-848.653 1675.8879,-895.347 1646,-854 1613.0635,-808.4355 1589.7778,-727.5 1646,-727.5"/>
<polygon fill="#000000" stroke="#000000" points="1764.9631,-1036.642 1754.6139,-1033.0166 1759.9816,-1037.071 1755,-1037.5 1755,-1037.5 1755,-1037.5 1759.9816,-1037.071 1755.3861,-1041.9834 1764.9631,-1036.642 1764.9631,-1036.642"/>
<text text-anchor="start" x="1111.3675" y="-1047.5" font-family="Arial" font-size="10.00" fill="#000000">FOREIGN KEY (personal_organization_id) REFERENCES m_organizations(organization_id) ON UPDATE RESTRICT ON DELETE RESTRICT</text>
</g>
<!-- public.t_events -->
<g id="node6" class="node">
<title>public.t_events</title>
<polygon fill="#efefef" stroke="transparent" points="1859,-1382.5 1859,-1417.5 2160,-1417.5 2160,-1382.5 1859,-1382.5"/>
<polygon fill="none" stroke="#000000" points="1859,-1382.5 1859,-1417.5 2160,-1417.5 2160,-1382.5 1859,-1382.5"/>
<text text-anchor="start" x="1885.6968" y="-1395.3" font-family="Arial Bold" font-size="18.00" fill="#000000">public.t_events</text>
<text text-anchor="start" x="2005.7352" y="-1395.3" font-family="Arial" font-size="14.00" fill="#000000">    </text>
<text text-anchor="start" x="2039.94" y="-1395.3" font-family="Arial" font-size="14.00" fill="#666666">[BASE TABLE]</text>
<polygon fill="none" stroke="#000000" points="1859,-1352.5 1859,-1382.5 2160,-1382.5 2160,-1352.5 1859,-1352.5"/>
<text text-anchor="start" x="1866" y="-1363.9" font-family="Arial" font-size="14.00" fill="#000000">t_events_pkey    </text>
<text text-anchor="start" x="1990.4642" y="-1363.9" font-family="Arial" font-size="14.00" fill="#666666">[bigint]</text>
<polygon fill="none" stroke="#000000" points="1859,-1322.5 1859,-1352.5 2160,-1352.5 2160,-1322.5 1859,-1322.5"/>
<text text-anchor="start" x="1866" y="-1333.9" font-family="Arial" font-size="14.00" fill="#000000">event_id    </text>
<text text-anchor="start" x="1953.115" y="-1333.9" font-family="Arial" font-size="14.00" fill="#666666">[uuid]</text>
<polygon fill="none" stroke="#000000" points="1859,-1292.5 1859,-1322.5 2160,-1322.5 2160,-1292.5 1859,-1292.5"/>
<text text-anchor="start" x="1866" y="-1303.9" font-family="Arial" font-size="14.00" fill="#000000">event_type_id    </text>
<text text-anchor="start" x="1987.3534" y="-1303.9" font-family="Arial" font-size="14.00" fill="#666666">[uuid]</text>
<polygon fill="none" stroke="#000000" points="1859,-1262.5 1859,-1292.5 2160,-1292.5 2160,-1262.5 1859,-1262.5"/>
<text text-anchor="start" x="1866" y="-1273.9" font-family="Arial" font-size="14.00" fill="#000000">title    </text>
<text text-anchor="start" x="1921.9818" y="-1273.9" font-family="Arial" font-size="14.00" fill="#666666">[varchar(255)]</text>
<polygon fill="none" stroke="#000000" points="1859,-1232.5 1859,-1262.5 2160,-1262.5 2160,-1232.5 1859,-1232.5"/>
<text text-anchor="start" x="1866" y="-1243.9" font-family="Arial" font-size="14.00" fill="#000000">description    </text>
<text text-anchor="start" x="1967.8822" y="-1243.9" font-family="Arial" font-size="14.00" fill="#666666">[text]</text>
<polygon fill="none" stroke="#000000" points="1859,-1202.5 1859,-1232.5 2160,-1232.5 2160,-1202.5 1859,-1202.5"/>
<text text-anchor="start" x="1866" y="-1213.9" font-family="Arial" font-size="14.00" fill="#000000">organization_id    </text>
<text text-anchor="start" x="1995.1192" y="-1213.9" font-family="Arial" font-size="14.00" fill="#666666">[uuid]</text>
<polygon fill="none" stroke="#000000" points="1859,-1172.5 1859,-1202.5 2160,-1202.5 2160,-1172.5 1859,-1172.5"/>
<text text-anchor="start" x="1866" y="-1183.9" font-family="Arial" font-size="14.00" fill="#000000">start_time    </text>
<text text-anchor="start" x="1961.6522" y="-1183.9" font-family="Arial" font-size="14.00" fill="#666666">[timestamp with time zone]</text>
<polygon fill="none" stroke="#000000" points="1859,-1142.5 1859,-1172.5 2160,-1172.5 2160,-1142.5 1859,-1142.5"/>
<text text-anchor="start" x="1866" y="-1153.9" font-family="Arial" font-size="14.00" fill="#000000">end_time    </text>
<text text-anchor="start" x="1957.7756" y="-1153.9" font-family="Arial" font-size="14.00" fill="#666666">[timestamp with time zone]</text>
<polygon fill="none" stroke="#000000" points="1859,-1112.5 1859,-1142.5 2160,-1142.5 2160,-1112.5 1859,-1112.5"/>
<text text-anchor="start" x="1866" y="-1123.9" font-family="Arial" font-size="14.00" fill="#000000">mail_send_flag    </text>
<text text-anchor="start" x="1994.3366" y="-1123.9" font-family="Arial" font-size="14.00" fill="#666666">[boolean]</text>
<polygon fill="none" stroke="#000000" points="1859,-1082.5 1859,-1112.5 2160,-1112.5 2160,-1082.5 1859,-1082.5"/>
<text text-anchor="start" x="1866" y="-1093.9" font-family="Arial" font-size="14.00" fill="#000000">send_organization_id    </text>
<text text-anchor="start" x="2033.2496" y="-1093.9" font-family="Arial" font-size="14.00" fill="#666666">[uuid]</text>
<polygon fill="none" stroke="#000000" points="1859,-1052.5 1859,-1082.5 2160,-1082.5 2160,-1052.5 1859,-1052.5"/>
<text text-anchor="start" x="1866" y="-1063.9" font-family="Arial" font-size="14.00" fill="#000000">posted_by    </text>
<text text-anchor="start" x="1964.791" y="-1063.9" font-family="Arial" font-size="14.00" fill="#666666">[uuid]</text>
<polygon fill="none" stroke="#000000" points="1859,-1022.5 1859,-1052.5 2160,-1052.5 2160,-1022.5 1859,-1022.5"/>
<text text-anchor="start" x="1866" y="-1033.9" font-family="Arial" font-size="14.00" fill="#000000">last_edited_by    </text>
<text text-anchor="start" x="1990.46" y="-1033.9" font-family="Arial" font-size="14.00" fill="#666666">[uuid]</text>
<polygon fill="none" stroke="#000000" points="1859,-992.5 1859,-1022.5 2160,-1022.5 2160,-992.5 1859,-992.5"/>
<text text-anchor="start" x="1866" y="-1003.9" font-family="Arial" font-size="14.00" fill="#000000">posted_at    </text>
<text text-anchor="start" x="1961.6816" y="-1003.9" font-family="Arial" font-size="14.00" fill="#666666">[timestamp with time zone]</text>
<polygon fill="none" stroke="#000000" points="1859,-962.5 1859,-992.5 2160,-992.5 2160,-962.5 1859,-962.5"/>
<text text-anchor="start" x="1865.9825" y="-973.9" font-family="Arial" font-size="14.00" fill="#000000">last_edited_at    </text>
<text text-anchor="start" x="1987.3331" y="-973.9" font-family="Arial" font-size="14.00" fill="#666666">[timestamp with time zone]</text>
</g>
<!-- public.t_events&#45;&gt;public.m_organizations -->
<g id="edge5" class="edge">
<title>public.t_events:organization_id&#45;&gt;public.m_organizations:organization_id</title>
<path fill="none" stroke="#000000" d="M1849.0293,-1215.4149C1796.5307,-1191.7855 1827.9935,-974.2614 1859,-920 1887.6658,-869.8348 1942.3342,-904.1652 1971,-854 1998.894,-805.1854 2027.2222,-727.5 1971,-727.5"/>
<polygon fill="#000000" stroke="#000000" points="1849.2117,-1215.453 1858.0789,-1221.9047 1854.1059,-1216.4765 1859,-1217.5 1859,-1217.5 1859,-1217.5 1854.1059,-1216.4765 1859.9211,-1213.0953 1849.2117,-1215.453 1849.2117,-1215.453"/>
<text text-anchor="start" x="1865.5285" y="-1227.5" font-family="Arial" font-size="10.00" fill="#000000">FOREIGN KEY (organization_id) REFERENCES m_organizations(organization_id) ON UPDATE SET NULL ON DELETE SET NULL</text>
</g>
<!-- public.t_events&#45;&gt;public.m_organizations -->
<g id="edge6" class="edge">
<title>public.t_events:send_organization_id&#45;&gt;public.m_organizations:organization_id</title>
<path fill="none" stroke="#000000" d="M1848.676,-1096.7969C1783.8362,-1087.3698 1821.6948,-985.284 1859,-920 1887.6658,-869.8348 1942.3342,-904.1652 1971,-854 1998.894,-805.1854 2027.2222,-727.5 1971,-727.5"/>
<polygon fill="#000000" stroke="#000000" points="1849.0231,-1096.8204 1858.6942,-1101.9896 1854.0116,-1097.1602 1859,-1097.5 1859,-1097.5 1859,-1097.5 1854.0116,-1097.1602 1859.3058,-1093.0104 1849.0231,-1096.8204 1849.0231,-1096.8204"/>
<text text-anchor="start" x="1865.9105" y="-1107.5" font-family="Arial" font-size="10.00" fill="#000000">FOREIGN KEY (send_organization_id) REFERENCES m_organizations(organization_id) ON UPDATE SET NULL ON DELETE SET NULL</text>
</g>
<!-- public.t_attendances -->
<g id="node7" class="node">
<title>public.t_attendances</title>
<polygon fill="#efefef" stroke="transparent" points="2264,-1322.5 2264,-1357.5 2570,-1357.5 2570,-1322.5 2264,-1322.5"/>
<polygon fill="none" stroke="#000000" points="2264,-1322.5 2264,-1357.5 2570,-1357.5 2570,-1322.5 2264,-1322.5"/>
<text text-anchor="start" x="2270.6833" y="-1335.3" font-family="Arial Bold" font-size="18.00" fill="#000000">public.t_attendances</text>
<text text-anchor="start" x="2435.7487" y="-1335.3" font-family="Arial" font-size="14.00" fill="#000000">    </text>
<text text-anchor="start" x="2469.9535" y="-1335.3" font-family="Arial" font-size="14.00" fill="#666666">[BASE TABLE]</text>
<polygon fill="none" stroke="#000000" points="2264,-1292.5 2264,-1322.5 2570,-1322.5 2570,-1292.5 2264,-1292.5"/>
<text text-anchor="start" x="2271" y="-1303.9" font-family="Arial" font-size="14.00" fill="#000000">t_attendances_pkey    </text>
<text text-anchor="start" x="2430.4852" y="-1303.9" font-family="Arial" font-size="14.00" fill="#666666">[bigint]</text>
<polygon fill="none" stroke="#000000" points="2264,-1262.5 2264,-1292.5 2570,-1292.5 2570,-1262.5 2264,-1262.5"/>
<text text-anchor="start" x="2271" y="-1273.9" font-family="Arial" font-size="14.00" fill="#000000">attendance_id    </text>
<text text-anchor="start" x="2393.136" y="-1273.9" font-family="Arial" font-size="14.00" fill="#666666">[uuid]</text>
<polygon fill="none" stroke="#000000" points="2264,-1232.5 2264,-1262.5 2570,-1262.5 2570,-1232.5 2264,-1232.5"/>
<text text-anchor="start" x="2271" y="-1243.9" font-family="Arial" font-size="14.00" fill="#000000">attendance_type_id    </text>
<text text-anchor="start" x="2427.3744" y="-1243.9" font-family="Arial" font-size="14.00" fill="#666666">[uuid]</text>
<polygon fill="none" stroke="#000000" points="2264,-1202.5 2264,-1232.5 2570,-1232.5 2570,-1202.5 2264,-1202.5"/>
<text text-anchor="start" x="2271" y="-1213.9" font-family="Arial" font-size="14.00" fill="#000000">member_id    </text>
<text text-anchor="start" x="2375.2062" y="-1213.9" font-family="Arial" font-size="14.00" fill="#666666">[uuid]</text>
<polygon fill="none" stroke="#000000" points="2264,-1172.5 2264,-1202.5 2570,-1202.5 2570,-1172.5 2264,-1172.5"/>
<text text-anchor="start" x="2271" y="-1183.9" font-family="Arial" font-size="14.00" fill="#000000">description    </text>
<text text-anchor="start" x="2372.8822" y="-1183.9" font-family="Arial" font-size="14.00" fill="#666666">[text]</text>
<polygon fill="none" stroke="#000000" points="2264,-1142.5 2264,-1172.5 2570,-1172.5 2570,-1142.5 2264,-1142.5"/>
<text text-anchor="start" x="2271" y="-1153.9" font-family="Arial" font-size="14.00" fill="#000000">date    </text>
<text text-anchor="start" x="2332.4432" y="-1153.9" font-family="Arial" font-size="14.00" fill="#666666">[date]</text>
<polygon fill="none" stroke="#000000" points="2264,-1112.5 2264,-1142.5 2570,-1142.5 2570,-1112.5 2264,-1112.5"/>
<text text-anchor="start" x="2271" y="-1123.9" font-family="Arial" font-size="14.00" fill="#000000">mail_send_flag    </text>
<text text-anchor="start" x="2399.3366" y="-1123.9" font-family="Arial" font-size="14.00" fill="#666666">[boolean]</text>
<polygon fill="none" stroke="#000000" points="2264,-1082.5 2264,-1112.5 2570,-1112.5 2570,-1082.5 2264,-1082.5"/>
<text text-anchor="start" x="2271" y="-1093.9" font-family="Arial" font-size="14.00" fill="#000000">send_organization_id    </text>
<text text-anchor="start" x="2438.2496" y="-1093.9" font-family="Arial" font-size="14.00" fill="#666666">[uuid]</text>
<polygon fill="none" stroke="#000000" points="2264,-1052.5 2264,-1082.5 2570,-1082.5 2570,-1052.5 2264,-1052.5"/>
<text text-anchor="start" x="2271" y="-1063.9" font-family="Arial" font-size="14.00" fill="#000000">posted_at    </text>
<text text-anchor="start" x="2366.6816" y="-1063.9" font-family="Arial" font-size="14.00" fill="#666666">[timestamp with time zone]</text>
<polygon fill="none" stroke="#000000" points="2264,-1022.5 2264,-1052.5 2570,-1052.5 2570,-1022.5 2264,-1022.5"/>
<text text-anchor="start" x="2271" y="-1033.9" font-family="Arial" font-size="14.00" fill="#000000">last_edited_at    </text>
<text text-anchor="start" x="2392.3506" y="-1033.9" font-family="Arial" font-size="14.00" fill="#666666">[timestamp with time zone]</text>
</g>
<!-- public.t_attendances&#45;&gt;public.m_organizations -->
<g id="edge7" class="edge">
<title>public.t_attendances:send_organization_id&#45;&gt;public.m_organizations:organization_id</title>
<path fill="none" stroke="#000000" d="M2253.7202,-1096.9173C2176.3233,-1087.4496 2264.4529,-964.8022 2212,-890 2137.8304,-784.228 2100.1853,-727.5 1971,-727.5"/>
<polygon fill="#000000" stroke="#000000" points="2254.016,-1096.934 2263.7453,-1101.9928 2259.008,-1097.217 2264,-1097.5 2264,-1097.5 2264,-1097.5 2259.008,-1097.217 2264.2547,-1093.0072 2254.016,-1096.934 2254.016,-1096.934"/>
<text text-anchor="start" x="2270.9105" y="-1081.5" font-family="Arial" font-size="10.00" fill="#000000">FOREIGN KEY (send_organization_id) REFERENCES m_organizations(organization_id) ON UPDATE SET NULL ON DELETE SET NULL</text>
</g>
<!-- public.t_records -->
<g id="node8" class="node">
<title>public.t_records</title>
<polygon fill="#efefef" stroke="transparent" points="2675,-1322.5 2675,-1357.5 2976,-1357.5 2976,-1322.5 2675,-1322.5"/>
<polygon fill="none" stroke="#000000" points="2675,-1322.5 2675,-1357.5 2976,-1357.5 2976,-1322.5 2675,-1322.5"/>
<text text-anchor="start" x="2698.2057" y="-1335.3" font-family="Arial Bold" font-size="18.00" fill="#000000">public.t_records</text>
<text text-anchor="start" x="2825.2263" y="-1335.3" font-family="Arial" font-size="14.00" fill="#000000">    </text>
<text text-anchor="start" x="2859.4311" y="-1335.3" font-family="Arial" font-size="14.00" fill="#666666">[BASE TABLE]</text>
<polygon fill="none" stroke="#000000" points="2675,-1292.5 2675,-1322.5 2976,-1322.5 2976,-1292.5 2675,-1292.5"/>
<text text-anchor="start" x="2682" y="-1303.9" font-family="Arial" font-size="14.00" fill="#000000">t_records_pkey    </text>
<text text-anchor="start" x="2811.8948" y="-1303.9" font-family="Arial" font-size="14.00" fill="#666666">[bigint]</text>
<polygon fill="none" stroke="#000000" points="2675,-1262.5 2675,-1292.5 2976,-1292.5 2976,-1262.5 2675,-1262.5"/>
<text text-anchor="start" x="2682" y="-1273.9" font-family="Arial" font-size="14.00" fill="#000000">record_id    </text>
<text text-anchor="start" x="2774.5456" y="-1273.9" font-family="Arial" font-size="14.00" fill="#666666">[uuid]</text>
<polygon fill="none" stroke="#000000" points="2675,-1232.5 2675,-1262.5 2976,-1262.5 2976,-1232.5 2675,-1232.5"/>
<text text-anchor="start" x="2682" y="-1243.9" font-family="Arial" font-size="14.00" fill="#000000">record_type_id    </text>
<text text-anchor="start" x="2808.784" y="-1243.9" font-family="Arial" font-size="14.00" fill="#666666">[uuid]</text>
<polygon fill="none" stroke="#000000" points="2675,-1202.5 2675,-1232.5 2976,-1232.5 2976,-1202.5 2675,-1202.5"/>
<text text-anchor="start" x="2682" y="-1213.9" font-family="Arial" font-size="14.00" fill="#000000">title    </text>
<text text-anchor="start" x="2737.9818" y="-1213.9" font-family="Arial" font-size="14.00" fill="#666666">[varchar(255)]</text>
<polygon fill="none" stroke="#000000" points="2675,-1172.5 2675,-1202.5 2976,-1202.5 2976,-1172.5 2675,-1172.5"/>
<text text-anchor="start" x="2682" y="-1183.9" font-family="Arial" font-size="14.00" fill="#000000">body    </text>
<text text-anchor="start" x="2746.5526" y="-1183.9" font-family="Arial" font-size="14.00" fill="#666666">[text]</text>
<polygon fill="none" stroke="#000000" points="2675,-1142.5 2675,-1172.5 2976,-1172.5 2976,-1142.5 2675,-1142.5"/>
<text text-anchor="start" x="2682" y="-1153.9" font-family="Arial" font-size="14.00" fill="#000000">organization_id    </text>
<text text-anchor="start" x="2811.1192" y="-1153.9" font-family="Arial" font-size="14.00" fill="#666666">[uuid]</text>
<polygon fill="none" stroke="#000000" points="2675,-1112.5 2675,-1142.5 2976,-1142.5 2976,-1112.5 2675,-1112.5"/>
<text text-anchor="start" x="2682" y="-1123.9" font-family="Arial" font-size="14.00" fill="#000000">posted_by    </text>
<text text-anchor="start" x="2780.791" y="-1123.9" font-family="Arial" font-size="14.00" fill="#666666">[uuid]</text>
<polygon fill="none" stroke="#000000" points="2675,-1082.5 2675,-1112.5 2976,-1112.5 2976,-1082.5 2675,-1082.5"/>
<text text-anchor="start" x="2682" y="-1093.9" font-family="Arial" font-size="14.00" fill="#000000">last_edited_by    </text>
<text text-anchor="start" x="2806.46" y="-1093.9" font-family="Arial" font-size="14.00" fill="#666666">[uuid]</text>
<polygon fill="none" stroke="#000000" points="2675,-1052.5 2675,-1082.5 2976,-1082.5 2976,-1052.5 2675,-1052.5"/>
<text text-anchor="start" x="2682" y="-1063.9" font-family="Arial" font-size="14.00" fill="#000000">posted_at    </text>
<text text-anchor="start" x="2777.6816" y="-1063.9" font-family="Arial" font-size="14.00" fill="#666666">[timestamp with time zone]</text>
<polygon fill="none" stroke="#000000" points="2675,-1022.5 2675,-1052.5 2976,-1052.5 2976,-1022.5 2675,-1022.5"/>
<text text-anchor="start" x="2681.9825" y="-1033.9" font-family="Arial" font-size="14.00" fill="#000000">last_edited_at    </text>
<text text-anchor="start" x="2803.3331" y="-1033.9" font-family="Arial" font-size="14.00" fill="#666666">[timestamp with time zone]</text>
</g>
<!-- public.t_records&#45;&gt;public.m_organizations -->
<g id="edge8" class="edge">
<title>public.t_records:organization_id&#45;&gt;public.m_organizations:organization_id</title>
<path fill="none" stroke="#000000" d="M2664.729,-1157.0134C2562.7739,-1146.7025 2703.0452,-975.1186 2622,-890 2519.182,-782.0142 2120.1055,-727.5 1971,-727.5"/>
<polygon fill="#000000" stroke="#000000" points="2665.0112,-1157.0267 2674.787,-1161.995 2670.0056,-1157.2633 2675,-1157.5 2675,-1157.5 2675,-1157.5 2670.0056,-1157.2633 2675.213,-1153.005 2665.0112,-1157.0267 2665.0112,-1157.0267"/>
<text text-anchor="start" x="2681.5285" y="-1167.5" font-family="Arial" font-size="10.00" fill="#000000">FOREIGN KEY (organization_id) REFERENCES m_organizations(organization_id) ON UPDATE SET NULL ON DELETE SET NULL</text>
</g>
</g>
</svg>
