<?xml version="1.0" encoding="UTF-8" standalone="no"?>
<!DOCTYPE svg PUBLIC "-//W3C//DTD SVG 1.1//EN"
 "http://www.w3.org/Graphics/SVG/1.1/DTD/svg11.dtd">
<!-- Generated by graphviz version 2.40.1 (20161225.0304)
 -->
<!-- Title: public.t_messages Pages: 1 -->
<svg width="1556pt" height="1289pt"
 viewBox="0.00 0.00 1556.00 1289.00" xmlns="http://www.w3.org/2000/svg" xmlns:xlink="http://www.w3.org/1999/xlink">
<g id="graph0" class="graph" transform="scale(1 1) rotate(0) translate(4 1285)">
<title>public.t_messages</title>
<polygon fill="#ffffff" stroke="transparent" points="-4,4 -4,-1285 1552,-1285 1552,4 -4,4"/>
<!-- public.t_messages -->
<g id="node1" class="node">
<title>public.t_messages</title>
<polygon fill="#efefef" stroke="transparent" points="582,-922.5 582,-957.5 872,-957.5 872,-922.5 582,-922.5"/>
<polygon fill="none" stroke="#000000" points="582,-922.5 582,-957.5 872,-957.5 872,-922.5 582,-922.5"/>
<text text-anchor="start" x="588.6987" y="-935.3" font-family="Arial Bold" font-size="18.00" fill="#000000">public.t_messages</text>
<text text-anchor="start" x="737.7333" y="-935.3" font-family="Arial" font-size="14.00" fill="#000000">    </text>
<text text-anchor="start" x="771.9381" y="-935.3" font-family="Arial" font-size="14.00" fill="#666666">[BASE TABLE]</text>
<polygon fill="none" stroke="#000000" points="582,-892.5 582,-922.5 872,-922.5 872,-892.5 582,-892.5"/>
<text text-anchor="start" x="589" y="-903.9" font-family="Arial" font-size="14.00" fill="#000000">t_messages_pkey </text>
<text text-anchor="start" x="705.7026" y="-903.9" font-family="Arial" font-size="14.00" fill="#666666">[bigint]</text>
<polygon fill="none" stroke="#000000" points="582,-862.5 582,-892.5 872,-892.5 872,-862.5 582,-862.5"/>
<text text-anchor="start" x="589" y="-873.9" font-family="Arial" font-size="14.00" fill="#000000">message_id </text>
<text text-anchor="start" x="668.3534" y="-873.9" font-family="Arial" font-size="14.00" fill="#666666">[uuid]</text>
<polygon fill="none" stroke="#000000" points="582,-832.5 582,-862.5 872,-862.5 872,-832.5 582,-832.5"/>
<text text-anchor="start" x="589" y="-843.9" font-family="Arial" font-size="14.00" fill="#000000">chat_room_id </text>
<text text-anchor="start" x="677.6872" y="-843.9" font-family="Arial" font-size="14.00" fill="#666666">[uuid]</text>
<polygon fill="none" stroke="#000000" points="582,-802.5 582,-832.5 872,-832.5 872,-802.5 582,-802.5"/>
<text text-anchor="start" x="589" y="-813.9" font-family="Arial" font-size="14.00" fill="#000000">sender_id </text>
<text text-anchor="start" x="654.3534" y="-813.9" font-family="Arial" font-size="14.00" fill="#666666">[uuid]</text>
<polygon fill="none" stroke="#000000" points="582,-772.5 582,-802.5 872,-802.5 872,-772.5 582,-772.5"/>
<text text-anchor="start" x="589" y="-783.9" font-family="Arial" font-size="14.00" fill="#000000">body </text>
<text text-anchor="start" x="623.2384" y="-783.9" font-family="Arial" font-size="14.00" fill="#666666">[text]</text>
<polygon fill="none" stroke="#000000" points="582,-742.5 582,-772.5 872,-772.5 872,-742.5 582,-742.5"/>
<text text-anchor="start" x="589" y="-753.9" font-family="Arial" font-size="14.00" fill="#000000">posted_at </text>
<text text-anchor="start" x="654.3674" y="-753.9" font-family="Arial" font-size="14.00" fill="#666666">[timestamp with time zone]</text>
<polygon fill="none" stroke="#000000" points="582,-712.5 582,-742.5 872,-742.5 872,-712.5 582,-712.5"/>
<text text-anchor="start" x="589" y="-723.9" font-family="Arial" font-size="14.00" fill="#000000">last_edited_at </text>
<text text-anchor="start" x="680.0364" y="-723.9" font-family="Arial" font-size="14.00" fill="#666666">[timestamp with time zone]</text>
<polygon fill="none" stroke="#000000" points="582,-682.5 582,-712.5 872,-712.5 872,-682.5 582,-682.5"/>
<text text-anchor="start" x="589" y="-693.9" font-family="Arial" font-size="14.00" fill="#000000">chat_room_action_id </text>
<text text-anchor="start" x="722.8148" y="-693.9" font-family="Arial" font-size="14.00" fill="#666666">[uuid]</text>
<polygon fill="none" stroke="#000000" stroke-width="3" points="580.5,-681.5 580.5,-959.5 873.5,-959.5 873.5,-681.5 580.5,-681.5"/>
</g>
<!-- public.m_chat_rooms -->
<g id="node4" class="node">
<title>public.m_chat_rooms</title>
<polygon fill="#efefef" stroke="transparent" points="163,-417.5 163,-452.5 475,-452.5 475,-417.5 163,-417.5"/>
<polygon fill="none" stroke="#000000" points="163,-417.5 163,-452.5 475,-452.5 475,-417.5 163,-417.5"/>
<text text-anchor="start" x="169.7034" y="-430.3" font-family="Arial Bold" font-size="18.00" fill="#000000">public.m_chat_rooms</text>
<text text-anchor="start" x="340.7286" y="-430.3" font-family="Arial" font-size="14.00" fill="#000000">    </text>
<text text-anchor="start" x="374.9334" y="-430.3" font-family="Arial" font-size="14.00" fill="#666666">[BASE TABLE]</text>
<polygon fill="none" stroke="#000000" points="163,-387.5 163,-417.5 475,-417.5 475,-387.5 163,-387.5"/>
<text text-anchor="start" x="170" y="-398.9" font-family="Arial" font-size="14.00" fill="#000000">m_chat_rooms_pkey    </text>
<text text-anchor="start" x="334.1206" y="-398.9" font-family="Arial" font-size="14.00" fill="#666666">[bigint]</text>
<polygon fill="none" stroke="#000000" points="163,-357.5 163,-387.5 475,-387.5 475,-357.5 163,-357.5"/>
<text text-anchor="start" x="170" y="-368.9" font-family="Arial" font-size="14.00" fill="#000000">chat_room_id    </text>
<text text-anchor="start" x="289.0014" y="-368.9" font-family="Arial" font-size="14.00" fill="#666666">[uuid]</text>
<polygon fill="none" stroke="#000000" points="163,-327.5 163,-357.5 475,-357.5 475,-327.5 163,-327.5"/>
<text text-anchor="start" x="170" y="-338.9" font-family="Arial" font-size="14.00" fill="#000000">name    </text>
<text text-anchor="start" x="239.2132" y="-338.9" font-family="Arial" font-size="14.00" fill="#666666">[varchar(255)]</text>
<polygon fill="none" stroke="#000000" points="163,-297.5 163,-327.5 475,-327.5 475,-297.5 163,-297.5"/>
<text text-anchor="start" x="170" y="-308.9" font-family="Arial" font-size="14.00" fill="#000000">is_private    </text>
<text text-anchor="start" x="264.0996" y="-308.9" font-family="Arial" font-size="14.00" fill="#666666">[boolean]</text>
<polygon fill="none" stroke="#000000" points="163,-267.5 163,-297.5 475,-297.5 475,-267.5 163,-267.5"/>
<text text-anchor="start" x="170" y="-278.9" font-family="Arial" font-size="14.00" fill="#000000">cover_image_id    </text>
<text text-anchor="start" x="303" y="-278.9" font-family="Arial" font-size="14.00" fill="#666666">[uuid]</text>
<polygon fill="none" stroke="#000000" points="163,-237.5 163,-267.5 475,-267.5 475,-237.5 163,-237.5"/>
<text text-anchor="start" x="170" y="-248.9" font-family="Arial" font-size="14.00" fill="#000000">owner_id    </text>
<text text-anchor="start" x="260.9916" y="-248.9" font-family="Arial" font-size="14.00" fill="#666666">[uuid]</text>
<polygon fill="none" stroke="#000000" points="163,-207.5 163,-237.5 475,-237.5 475,-207.5 163,-207.5"/>
<text text-anchor="start" x="170" y="-218.9" font-family="Arial" font-size="14.00" fill="#000000">from_organization    </text>
<text text-anchor="start" x="316.2244" y="-218.9" font-family="Arial" font-size="14.00" fill="#666666">[boolean]</text>
<polygon fill="none" stroke="#000000" points="163,-177.5 163,-207.5 475,-207.5 475,-177.5 163,-177.5"/>
<text text-anchor="start" x="170" y="-188.9" font-family="Arial" font-size="14.00" fill="#000000">created_at    </text>
<text text-anchor="start" x="270.3422" y="-188.9" font-family="Arial" font-size="14.00" fill="#666666">[timestamp with time zone]</text>
<polygon fill="none" stroke="#000000" points="163,-147.5 163,-177.5 475,-177.5 475,-147.5 163,-147.5"/>
<text text-anchor="start" x="170" y="-158.9" font-family="Arial" font-size="14.00" fill="#000000">updated_at    </text>
<text text-anchor="start" x="274.2468" y="-158.9" font-family="Arial" font-size="14.00" fill="#666666">[timestamp with time zone]</text>
</g>
<!-- public.t_messages&#45;&gt;public.m_chat_rooms -->
<g id="edge3" class="edge">
<title>public.t_messages:chat_room_id&#45;&gt;public.m_chat_rooms:chat_room_id</title>
<path fill="none" stroke="#000000" d="M575.3915,-839.6518C547.0409,-777.8927 499.9897,-372.5 475,-372.5"/>
<polygon fill="#000000" stroke="#000000" points="575.5589,-839.8506 578.5578,-850.3985 578.7795,-843.6753 582,-847.5 582,-847.5 582,-847.5 578.7795,-843.6753 585.4422,-844.6015 575.5589,-839.8506 575.5589,-839.8506"/>
<text text-anchor="start" x="6.818" y="-857.5" font-family="Arial" font-size="10.00" fill="#000000">FOREIGN KEY (chat_room_id) REFERENCES m_chat_rooms(chat_room_id) ON UPDATE CASCADE ON DELETE CASCADE</text>
</g>
<!-- public.m_members -->
<g id="node5" class="node">
<title>public.m_members</title>
<polygon fill="#efefef" stroke="transparent" points="580,-522.5 580,-557.5 873,-557.5 873,-522.5 580,-522.5"/>
<polygon fill="none" stroke="#000000" points="580,-522.5 580,-557.5 873,-557.5 873,-522.5 580,-522.5"/>
<text text-anchor="start" x="586.7146" y="-535.3" font-family="Arial Bold" font-size="18.00" fill="#000000">public.m_members</text>
<text text-anchor="start" x="738.7174" y="-535.3" font-family="Arial" font-size="14.00" fill="#000000">    </text>
<text text-anchor="start" x="772.9222" y="-535.3" font-family="Arial" font-size="14.00" fill="#666666">[BASE TABLE]</text>
<polygon fill="none" stroke="#000000" points="580,-492.5 580,-522.5 873,-522.5 873,-492.5 580,-492.5"/>
<text text-anchor="start" x="587" y="-503.9" font-family="Arial" font-size="14.00" fill="#000000">m_members_pkey    </text>
<text text-anchor="start" x="736.3254" y="-503.9" font-family="Arial" font-size="14.00" fill="#666666">[bigint]</text>
<polygon fill="none" stroke="#000000" points="580,-462.5 580,-492.5 873,-492.5 873,-462.5 580,-462.5"/>
<text text-anchor="start" x="587" y="-473.9" font-family="Arial" font-size="14.00" fill="#000000">member_id    </text>
<text text-anchor="start" x="691.2062" y="-473.9" font-family="Arial" font-size="14.00" fill="#666666">[uuid]</text>
<polygon fill="none" stroke="#000000" points="580,-432.5 580,-462.5 873,-462.5 873,-432.5 580,-432.5"/>
<text text-anchor="start" x="587" y="-443.9" font-family="Arial" font-size="14.00" fill="#000000">login_id    </text>
<text text-anchor="start" x="669.4376" y="-443.9" font-family="Arial" font-size="14.00" fill="#666666">[varchar(255)]</text>
<polygon fill="none" stroke="#000000" points="580,-402.5 580,-432.5 873,-432.5 873,-402.5 580,-402.5"/>
<text text-anchor="start" x="587" y="-413.9" font-family="Arial" font-size="14.00" fill="#000000">password    </text>
<text text-anchor="start" x="681.1024" y="-413.9" font-family="Arial" font-size="14.00" fill="#666666">[varchar(255)]</text>
<polygon fill="none" stroke="#000000" points="580,-372.5 580,-402.5 873,-402.5 873,-372.5 580,-372.5"/>
<text text-anchor="start" x="587" y="-383.9" font-family="Arial" font-size="14.00" fill="#000000">email    </text>
<text text-anchor="start" x="654.6438" y="-383.9" font-family="Arial" font-size="14.00" fill="#666666">[varchar(255)]</text>
<polygon fill="none" stroke="#000000" points="580,-342.5 580,-372.5 873,-372.5 873,-342.5 580,-342.5"/>
<text text-anchor="start" x="587" y="-353.9" font-family="Arial" font-size="14.00" fill="#000000">name    </text>
<text text-anchor="start" x="656.2132" y="-353.9" font-family="Arial" font-size="14.00" fill="#666666">[varchar(255)]</text>
<polygon fill="none" stroke="#000000" points="580,-312.5 580,-342.5 873,-342.5 873,-312.5 580,-312.5"/>
<text text-anchor="start" x="587" y="-323.9" font-family="Arial" font-size="14.00" fill="#000000">first_name    </text>
<text text-anchor="start" x="686.5442" y="-323.9" font-family="Arial" font-size="14.00" fill="#666666">[varchar(255)]</text>
<polygon fill="none" stroke="#000000" points="580,-282.5 580,-312.5 873,-312.5 873,-282.5 580,-282.5"/>
<text text-anchor="start" x="587" y="-293.9" font-family="Arial" font-size="14.00" fill="#000000">last_name    </text>
<text text-anchor="start" x="685.7756" y="-293.9" font-family="Arial" font-size="14.00" fill="#666666">[varchar(255)]</text>
<polygon fill="none" stroke="#000000" points="580,-252.5 580,-282.5 873,-282.5 873,-252.5 580,-252.5"/>
<text text-anchor="start" x="587" y="-263.9" font-family="Arial" font-size="14.00" fill="#000000">attend_status_id    </text>
<text text-anchor="start" x="723.9172" y="-263.9" font-family="Arial" font-size="14.00" fill="#666666">[uuid]</text>
<polygon fill="none" stroke="#000000" points="580,-222.5 580,-252.5 873,-252.5 873,-222.5 580,-222.5"/>
<text text-anchor="start" x="587" y="-233.9" font-family="Arial" font-size="14.00" fill="#000000">profile_image_id    </text>
<text text-anchor="start" x="723.8864" y="-233.9" font-family="Arial" font-size="14.00" fill="#666666">[uuid]</text>
<polygon fill="none" stroke="#000000" points="580,-192.5 580,-222.5 873,-222.5 873,-192.5 580,-192.5"/>
<text text-anchor="start" x="587" y="-203.9" font-family="Arial" font-size="14.00" fill="#000000">grade_id    </text>
<text text-anchor="start" x="675.6676" y="-203.9" font-family="Arial" font-size="14.00" fill="#666666">[uuid]</text>
<polygon fill="none" stroke="#000000" points="580,-162.5 580,-192.5 873,-192.5 873,-162.5 580,-162.5"/>
<text text-anchor="start" x="587" y="-173.9" font-family="Arial" font-size="14.00" fill="#000000">group_id    </text>
<text text-anchor="start" x="675.6676" y="-173.9" font-family="Arial" font-size="14.00" fill="#666666">[uuid]</text>
<polygon fill="none" stroke="#000000" points="580,-132.5 580,-162.5 873,-162.5 873,-132.5 580,-132.5"/>
<text text-anchor="start" x="587" y="-143.9" font-family="Arial" font-size="14.00" fill="#000000">personal_organization_id    </text>
<text text-anchor="start" x="777.582" y="-143.9" font-family="Arial" font-size="14.00" fill="#666666">[uuid]</text>
<polygon fill="none" stroke="#000000" points="580,-102.5 580,-132.5 873,-132.5 873,-102.5 580,-102.5"/>
<text text-anchor="start" x="587" y="-113.9" font-family="Arial" font-size="14.00" fill="#000000">role_id    </text>
<text text-anchor="start" x="663.209" y="-113.9" font-family="Arial" font-size="14.00" fill="#666666">[uuid]</text>
<polygon fill="none" stroke="#000000" points="580,-72.5 580,-102.5 873,-102.5 873,-72.5 580,-72.5"/>
<text text-anchor="start" x="587" y="-83.9" font-family="Arial" font-size="14.00" fill="#000000">created_at    </text>
<text text-anchor="start" x="687.3422" y="-83.9" font-family="Arial" font-size="14.00" fill="#666666">[timestamp with time zone]</text>
<polygon fill="none" stroke="#000000" points="580,-42.5 580,-72.5 873,-72.5 873,-42.5 580,-42.5"/>
<text text-anchor="start" x="587" y="-53.9" font-family="Arial" font-size="14.00" fill="#000000">updated_at    </text>
<text text-anchor="start" x="691.2468" y="-53.9" font-family="Arial" font-size="14.00" fill="#666666">[timestamp with time zone]</text>
</g>
<!-- public.t_messages&#45;&gt;public.m_members -->
<g id="edge4" class="edge">
<title>public.t_messages:sender_id&#45;&gt;public.m_members:member_id</title>
<path fill="none" stroke="#000000" d="M571.8311,-816.7875C504.2644,-806.8051 531.2573,-694.407 582,-637 668.3076,-539.3572 786.6924,-698.6428 873,-601 909.3517,-559.8741 927.8889,-477.5 873,-477.5"/>
<polygon fill="#000000" stroke="#000000" points="572.0245,-816.801 581.6854,-821.989 577.0122,-817.1505 582,-817.5 582,-817.5 582,-817.5 577.0122,-817.1505 582.3146,-813.011 572.0245,-816.801 572.0245,-816.801"/>
<text text-anchor="start" x="46.2705" y="-827.5" font-family="Arial" font-size="10.00" fill="#000000">FOREIGN KEY (sender_id) REFERENCES m_members(member_id) ON UPDATE SET NULL ON DELETE SET NULL</text>
</g>
<!-- public.t_chat_room_actions -->
<g id="node6" class="node">
<title>public.t_chat_room_actions</title>
<polygon fill="#efefef" stroke="transparent" points="977,-342.5 977,-377.5 1337,-377.5 1337,-342.5 977,-342.5"/>
<polygon fill="none" stroke="#000000" points="977,-342.5 977,-377.5 1337,-377.5 1337,-342.5 977,-342.5"/>
<text text-anchor="start" x="983.6878" y="-355.3" font-family="Arial Bold" font-size="18.00" fill="#000000">public.t_chat_room_actions</text>
<text text-anchor="start" x="1202.7442" y="-355.3" font-family="Arial" font-size="14.00" fill="#000000">    </text>
<text text-anchor="start" x="1236.949" y="-355.3" font-family="Arial" font-size="14.00" fill="#666666">[BASE TABLE]</text>
<polygon fill="none" stroke="#000000" points="977,-312.5 977,-342.5 1337,-342.5 1337,-312.5 977,-312.5"/>
<text text-anchor="start" x="984" y="-323.9" font-family="Arial" font-size="14.00" fill="#000000">t_chat_room_actions_pkey    </text>
<text text-anchor="start" x="1185.4782" y="-323.9" font-family="Arial" font-size="14.00" fill="#666666">[bigint]</text>
<polygon fill="none" stroke="#000000" points="977,-282.5 977,-312.5 1337,-312.5 1337,-282.5 977,-282.5"/>
<text text-anchor="start" x="984" y="-293.9" font-family="Arial" font-size="14.00" fill="#000000">chat_room_action_id    </text>
<text text-anchor="start" x="1148.129" y="-293.9" font-family="Arial" font-size="14.00" fill="#666666">[uuid]</text>
<polygon fill="none" stroke="#000000" points="977,-252.5 977,-282.5 1337,-282.5 1337,-252.5 977,-252.5"/>
<text text-anchor="start" x="984" y="-263.9" font-family="Arial" font-size="14.00" fill="#000000">chat_room_action_type_id    </text>
<text text-anchor="start" x="1182.3674" y="-263.9" font-family="Arial" font-size="14.00" fill="#666666">[uuid]</text>
<polygon fill="none" stroke="#000000" points="977,-222.5 977,-252.5 1337,-252.5 1337,-222.5 977,-222.5"/>
<text text-anchor="start" x="984" y="-233.9" font-family="Arial" font-size="14.00" fill="#000000">acted_at    </text>
<text text-anchor="start" x="1071.899" y="-233.9" font-family="Arial" font-size="14.00" fill="#666666">[timestamp with time zone]</text>
</g>
<!-- public.t_messages&#45;&gt;public.t_chat_room_actions -->
<g id="edge5" class="edge">
<title>public.t_messages:chat_room_action_id&#45;&gt;public.t_chat_room_actions:chat_room_action_id</title>
<path fill="none" stroke="#000000" d="M882.3941,-696.6049C919.2189,-689.6651 910.1284,-643.5871 925,-601 947.5592,-536.3984 908.5728,-297.5 977,-297.5"/>
<polygon fill="#000000" stroke="#000000" points="881.9631,-696.6419 871.6138,-693.0166 876.9816,-697.0709 872,-697.5 872,-697.5 872,-697.5 876.9816,-697.0709 872.3862,-701.9834 881.9631,-696.6419 881.9631,-696.6419"/>
<text text-anchor="start" x="878.583" y="-707.5" font-family="Arial" font-size="10.00" fill="#000000">FOREIGN KEY (chat_room_action_id) REFERENCES t_chat_room_actions(chat_room_action_id) ON UPDATE RESTRICT ON DELETE RESTRICT</text>
</g>
<!-- public.t_attached_messages -->
<g id="node2" class="node">
<title>public.t_attached_messages</title>
<polygon fill="#efefef" stroke="transparent" points="319,-1202.5 319,-1237.5 688,-1237.5 688,-1202.5 319,-1202.5"/>
<polygon fill="none" stroke="#000000" points="319,-1202.5 319,-1237.5 688,-1237.5 688,-1202.5 319,-1202.5"/>
<text text-anchor="start" x="325.6779" y="-1215.3" font-family="Arial Bold" font-size="18.00" fill="#000000">public.t_attached_messages</text>
<text text-anchor="start" x="553.7541" y="-1215.3" font-family="Arial" font-size="14.00" fill="#000000">    </text>
<text text-anchor="start" x="587.9589" y="-1215.3" font-family="Arial" font-size="14.00" fill="#666666">[BASE TABLE]</text>
<polygon fill="none" stroke="#000000" points="319,-1172.5 319,-1202.5 688,-1202.5 688,-1172.5 319,-1172.5"/>
<text text-anchor="start" x="326" y="-1183.9" font-family="Arial" font-size="14.00" fill="#000000">t_attached_messages_pkey    </text>
<text text-anchor="start" x="534.4936" y="-1183.9" font-family="Arial" font-size="14.00" fill="#666666">[bigint]</text>
<polygon fill="none" stroke="#000000" points="319,-1142.5 319,-1172.5 688,-1172.5 688,-1142.5 319,-1142.5"/>
<text text-anchor="start" x="326" y="-1153.9" font-family="Arial" font-size="14.00" fill="#000000">attached_message_id    </text>
<text text-anchor="start" x="497.1444" y="-1153.9" font-family="Arial" font-size="14.00" fill="#666666">[uuid]</text>
<polygon fill="none" stroke="#000000" points="319,-1112.5 319,-1142.5 688,-1142.5 688,-1112.5 319,-1112.5"/>
<text text-anchor="start" x="326" y="-1123.9" font-family="Arial" font-size="14.00" fill="#000000">message_id    </text>
<text text-anchor="start" x="435.6676" y="-1123.9" font-family="Arial" font-size="14.00" fill="#666666">[uuid]</text>
<polygon fill="none" stroke="#000000" points="319,-1082.5 319,-1112.5 688,-1112.5 688,-1082.5 319,-1082.5"/>
<text text-anchor="start" x="326" y="-1093.9" font-family="Arial" font-size="14.00" fill="#000000">attachable_item_id    </text>
<text text-anchor="start" x="477.683" y="-1093.9" font-family="Arial" font-size="14.00" fill="#666666">[uuid]</text>
</g>
<!-- public.t_attached_messages&#45;&gt;public.t_messages -->
<g id="edge1" class="edge">
<title>public.t_attached_messages:message_id&#45;&gt;public.t_messages:message_id</title>
<path fill="none" stroke="#000000" d="M698.1941,-1125.8545C723.5241,-1116.3982 708.3492,-1068.4018 688,-1040 659.0225,-999.5555 610.9775,-1044.4445 582,-1004 549.2553,-958.2975 525.7778,-877.5 582,-877.5"/>
<polygon fill="#000000" stroke="#000000" points="697.8722,-1125.9064 687.2829,-1123.0575 692.9361,-1126.7032 688,-1127.5 688,-1127.5 688,-1127.5 692.9361,-1126.7032 688.7171,-1131.9425 697.8722,-1125.9064 697.8722,-1125.9064"/>
<text text-anchor="start" x="134.9345" y="-1137.5" font-family="Arial" font-size="10.00" fill="#000000">FOREIGN KEY (message_id) REFERENCES t_messages(message_id) ON UPDATE RESTRICT ON DELETE RESTRICT</text>
</g>
<!-- public.t_read_receipts -->
<g id="node3" class="node">
<title>public.t_read_receipts</title>
<polygon fill="#efefef" stroke="transparent" points="792,-1202.5 792,-1237.5 1109,-1237.5 1109,-1202.5 792,-1202.5"/>
<polygon fill="none" stroke="#000000" points="792,-1202.5 792,-1237.5 1109,-1237.5 1109,-1202.5 792,-1202.5"/>
<text text-anchor="start" x="798.6951" y="-1215.3" font-family="Arial Bold" font-size="18.00" fill="#000000">public.t_read_receipts</text>
<text text-anchor="start" x="974.7369" y="-1215.3" font-family="Arial" font-size="14.00" fill="#000000">    </text>
<text text-anchor="start" x="1008.9417" y="-1215.3" font-family="Arial" font-size="14.00" fill="#666666">[BASE TABLE]</text>
<polygon fill="none" stroke="#000000" points="792,-1172.5 792,-1202.5 1109,-1202.5 1109,-1172.5 792,-1172.5"/>
<text text-anchor="start" x="799" y="-1183.9" font-family="Arial" font-size="14.00" fill="#000000">t_read_receipts_pkey    </text>
<text text-anchor="start" x="967.0224" y="-1183.9" font-family="Arial" font-size="14.00" fill="#666666">[bigint]</text>
<polygon fill="none" stroke="#000000" points="792,-1142.5 792,-1172.5 1109,-1172.5 1109,-1142.5 792,-1142.5"/>
<text text-anchor="start" x="799" y="-1153.9" font-family="Arial" font-size="14.00" fill="#000000">member_id    </text>
<text text-anchor="start" x="903.2062" y="-1153.9" font-family="Arial" font-size="14.00" fill="#666666">[uuid]</text>
<polygon fill="none" stroke="#000000" points="792,-1112.5 792,-1142.5 1109,-1142.5 1109,-1112.5 792,-1112.5"/>
<text text-anchor="start" x="799" y="-1123.9" font-family="Arial" font-size="14.00" fill="#000000">message_id    </text>
<text text-anchor="start" x="908.6676" y="-1123.9" font-family="Arial" font-size="14.00" fill="#666666">[uuid]</text>
<polygon fill="none" stroke="#000000" points="792,-1082.5 792,-1112.5 1109,-1112.5 1109,-1082.5 792,-1082.5"/>
<text text-anchor="start" x="799" y="-1093.9" font-family="Arial" font-size="14.00" fill="#000000">read_at    </text>
<text text-anchor="start" x="880.669" y="-1093.9" font-family="Arial" font-size="14.00" fill="#666666">[timestamp with time zone]</text>
</g>
<!-- public.t_read_receipts&#45;&gt;public.t_messages -->
<g id="edge2" class="edge">
<title>public.t_read_receipts:message_id&#45;&gt;public.t_messages:message_id</title>
<path fill="none" stroke="#000000" d="M781.8486,-1125.8836C756.7558,-1116.5889 773.029,-1069.3403 792,-1040 813.1703,-1007.2583 850.8297,-1036.7417 872,-1004 902.527,-956.7873 928.2222,-877.5 872,-877.5"/>
<polygon fill="#000000" stroke="#000000" points="782.1244,-1125.9274 791.2923,-1131.944 787.0622,-1126.7137 792,-1127.5 792,-1127.5 792,-1127.5 787.0622,-1126.7137 792.7077,-1123.056 782.1244,-1125.9274 782.1244,-1125.9274"/>
<text text-anchor="start" x="798.5935" y="-1137.5" font-family="Arial" font-size="10.00" fill="#000000">FOREIGN KEY (message_id) REFERENCES t_messages(message_id) ON UPDATE CASCADE ON DELETE CASCADE</text>
</g>
</g>
</svg>
