<?xml version="1.0" encoding="UTF-8" standalone="no"?>
<!DOCTYPE svg PUBLIC "-//W3C//DTD SVG 1.1//EN"
 "http://www.w3.org/Graphics/SVG/1.1/DTD/svg11.dtd">
<!-- Generated by graphviz version 2.40.1 (20161225.0304)
 -->
<!-- Title: public.m_professors Pages: 1 -->
<svg width="758pt" height="802pt"
 viewBox="0.00 0.00 758.00 802.00" xmlns="http://www.w3.org/2000/svg" xmlns:xlink="http://www.w3.org/1999/xlink">
<g id="graph0" class="graph" transform="scale(1 1) rotate(0) translate(4 798)">
<title>public.m_professors</title>
<polygon fill="#ffffff" stroke="transparent" points="-4,4 -4,-798 754,-798 754,4 -4,4"/>
<!-- public.m_professors -->
<g id="node1" class="node">
<title>public.m_professors</title>
<polygon fill="#efefef" stroke="transparent" points="402,-712.5 402,-747.5 704,-747.5 704,-712.5 402,-712.5"/>
<polygon fill="none" stroke="#000000" points="402,-712.5 402,-747.5 704,-747.5 704,-712.5 402,-712.5"/>
<text text-anchor="start" x="408.7065" y="-725.3" font-family="Arial Bold" font-size="18.00" fill="#000000">public.m_professors</text>
<text text-anchor="start" x="569.7255" y="-725.3" font-family="Arial" font-size="14.00" fill="#000000">    </text>
<text text-anchor="start" x="603.9303" y="-725.3" font-family="Arial" font-size="14.00" fill="#666666">[BASE TABLE]</text>
<polygon fill="none" stroke="#000000" points="402,-682.5 402,-712.5 704,-712.5 704,-682.5 402,-682.5"/>
<text text-anchor="start" x="409" y="-693.9" font-family="Arial" font-size="14.00" fill="#000000">m_professors_pkey </text>
<text text-anchor="start" x="535.0238" y="-693.9" font-family="Arial" font-size="14.00" fill="#666666">[bigint]</text>
<polygon fill="none" stroke="#000000" points="402,-652.5 402,-682.5 704,-682.5 704,-652.5 402,-652.5"/>
<text text-anchor="start" x="409" y="-663.9" font-family="Arial" font-size="14.00" fill="#000000">professor_id </text>
<text text-anchor="start" x="489.9046" y="-663.9" font-family="Arial" font-size="14.00" fill="#666666">[uuid]</text>
<polygon fill="none" stroke="#000000" points="402,-622.5 402,-652.5 704,-652.5 704,-622.5 402,-622.5"/>
<text text-anchor="start" x="409" y="-633.9" font-family="Arial" font-size="14.00" fill="#000000">member_id </text>
<text text-anchor="start" x="482.892" y="-633.9" font-family="Arial" font-size="14.00" fill="#666666">[uuid]</text>
<polygon fill="none" stroke="#000000" stroke-width="3" points="400.5,-621.5 400.5,-749.5 705.5,-749.5 705.5,-621.5 400.5,-621.5"/>
</g>
<!-- public.m_members -->
<g id="node2" class="node">
<title>public.m_members</title>
<polygon fill="#efefef" stroke="transparent" points="406,-462.5 406,-497.5 699,-497.5 699,-462.5 406,-462.5"/>
<polygon fill="none" stroke="#000000" points="406,-462.5 406,-497.5 699,-497.5 699,-462.5 406,-462.5"/>
<text text-anchor="start" x="412.7146" y="-475.3" font-family="Arial Bold" font-size="18.00" fill="#000000">public.m_members</text>
<text text-anchor="start" x="564.7174" y="-475.3" font-family="Arial" font-size="14.00" fill="#000000">    </text>
<text text-anchor="start" x="598.9222" y="-475.3" font-family="Arial" font-size="14.00" fill="#666666">[BASE TABLE]</text>
<polygon fill="none" stroke="#000000" points="406,-432.5 406,-462.5 699,-462.5 699,-432.5 406,-432.5"/>
<text text-anchor="start" x="413" y="-443.9" font-family="Arial" font-size="14.00" fill="#000000">m_members_pkey    </text>
<text text-anchor="start" x="562.3254" y="-443.9" font-family="Arial" font-size="14.00" fill="#666666">[bigint]</text>
<polygon fill="none" stroke="#000000" points="406,-402.5 406,-432.5 699,-432.5 699,-402.5 406,-402.5"/>
<text text-anchor="start" x="413" y="-413.9" font-family="Arial" font-size="14.00" fill="#000000">member_id    </text>
<text text-anchor="start" x="517.2062" y="-413.9" font-family="Arial" font-size="14.00" fill="#666666">[uuid]</text>
<polygon fill="none" stroke="#000000" points="406,-372.5 406,-402.5 699,-402.5 699,-372.5 406,-372.5"/>
<text text-anchor="start" x="413" y="-383.9" font-family="Arial" font-size="14.00" fill="#000000">login_id    </text>
<text text-anchor="start" x="495.4376" y="-383.9" font-family="Arial" font-size="14.00" fill="#666666">[varchar(255)]</text>
<polygon fill="none" stroke="#000000" points="406,-342.5 406,-372.5 699,-372.5 699,-342.5 406,-342.5"/>
<text text-anchor="start" x="413" y="-353.9" font-family="Arial" font-size="14.00" fill="#000000">password    </text>
<text text-anchor="start" x="507.1024" y="-353.9" font-family="Arial" font-size="14.00" fill="#666666">[varchar(255)]</text>
<polygon fill="none" stroke="#000000" points="406,-312.5 406,-342.5 699,-342.5 699,-312.5 406,-312.5"/>
<text text-anchor="start" x="413" y="-323.9" font-family="Arial" font-size="14.00" fill="#000000">email    </text>
<text text-anchor="start" x="480.6438" y="-323.9" font-family="Arial" font-size="14.00" fill="#666666">[varchar(255)]</text>
<polygon fill="none" stroke="#000000" points="406,-282.5 406,-312.5 699,-312.5 699,-282.5 406,-282.5"/>
<text text-anchor="start" x="413" y="-293.9" font-family="Arial" font-size="14.00" fill="#000000">name    </text>
<text text-anchor="start" x="482.2132" y="-293.9" font-family="Arial" font-size="14.00" fill="#666666">[varchar(255)]</text>
<polygon fill="none" stroke="#000000" points="406,-252.5 406,-282.5 699,-282.5 699,-252.5 406,-252.5"/>
<text text-anchor="start" x="413" y="-263.9" font-family="Arial" font-size="14.00" fill="#000000">attend_status_id    </text>
<text text-anchor="start" x="549.9172" y="-263.9" font-family="Arial" font-size="14.00" fill="#666666">[uuid]</text>
<polygon fill="none" stroke="#000000" points="406,-222.5 406,-252.5 699,-252.5 699,-222.5 406,-222.5"/>
<text text-anchor="start" x="413" y="-233.9" font-family="Arial" font-size="14.00" fill="#000000">profile_image_id    </text>
<text text-anchor="start" x="549.8864" y="-233.9" font-family="Arial" font-size="14.00" fill="#666666">[uuid]</text>
<polygon fill="none" stroke="#000000" points="406,-192.5 406,-222.5 699,-222.5 699,-192.5 406,-192.5"/>
<text text-anchor="start" x="413" y="-203.9" font-family="Arial" font-size="14.00" fill="#000000">grade_id    </text>
<text text-anchor="start" x="501.6676" y="-203.9" font-family="Arial" font-size="14.00" fill="#666666">[uuid]</text>
<polygon fill="none" stroke="#000000" points="406,-162.5 406,-192.5 699,-192.5 699,-162.5 406,-162.5"/>
<text text-anchor="start" x="413" y="-173.9" font-family="Arial" font-size="14.00" fill="#000000">group_id    </text>
<text text-anchor="start" x="501.6676" y="-173.9" font-family="Arial" font-size="14.00" fill="#666666">[uuid]</text>
<polygon fill="none" stroke="#000000" points="406,-132.5 406,-162.5 699,-162.5 699,-132.5 406,-132.5"/>
<text text-anchor="start" x="413" y="-143.9" font-family="Arial" font-size="14.00" fill="#000000">personal_organization_id    </text>
<text text-anchor="start" x="603.582" y="-143.9" font-family="Arial" font-size="14.00" fill="#666666">[uuid]</text>
<polygon fill="none" stroke="#000000" points="406,-102.5 406,-132.5 699,-132.5 699,-102.5 406,-102.5"/>
<text text-anchor="start" x="413" y="-113.9" font-family="Arial" font-size="14.00" fill="#000000">role_id    </text>
<text text-anchor="start" x="489.209" y="-113.9" font-family="Arial" font-size="14.00" fill="#666666">[uuid]</text>
<polygon fill="none" stroke="#000000" points="406,-72.5 406,-102.5 699,-102.5 699,-72.5 406,-72.5"/>
<text text-anchor="start" x="413" y="-83.9" font-family="Arial" font-size="14.00" fill="#000000">created_at    </text>
<text text-anchor="start" x="513.3422" y="-83.9" font-family="Arial" font-size="14.00" fill="#666666">[timestamp with time zone]</text>
<polygon fill="none" stroke="#000000" points="406,-42.5 406,-72.5 699,-72.5 699,-42.5 406,-42.5"/>
<text text-anchor="start" x="413" y="-53.9" font-family="Arial" font-size="14.00" fill="#000000">updated_at    </text>
<text text-anchor="start" x="517.2468" y="-53.9" font-family="Arial" font-size="14.00" fill="#666666">[timestamp with time zone]</text>
</g>
<!-- public.m_professors&#45;&gt;public.m_members -->
<g id="edge1" class="edge">
<title>public.m_professors:member_id&#45;&gt;public.m_members:member_id</title>
<path fill="none" stroke="#000000" d="M553.7543,-612.5233C563.4151,-553.4541 663.2153,-601.9583 699,-541 726.7876,-493.6646 753.8889,-417.5 699,-417.5"/>
<polygon fill="#000000" stroke="#000000" points="553.754,-612.5285 548.5128,-622.1607 553.377,-617.5142 553,-622.5 553,-622.5 553,-622.5 553.377,-617.5142 557.4872,-622.8393 553.754,-612.5285 553.754,-612.5285"/>
<text text-anchor="start" x="7.011" y="-632.5" font-family="Arial" font-size="10.00" fill="#000000">FOREIGN KEY (member_id) REFERENCES m_members(member_id) ON UPDATE RESTRICT ON DELETE RESTRICT</text>
</g>
</g>
</svg>
