<?xml version="1.0" encoding="UTF-8" standalone="no"?>
<!DOCTYPE svg PUBLIC "-//W3C//DTD SVG 1.1//EN"
 "http://www.w3.org/Graphics/SVG/1.1/DTD/svg11.dtd">
<!-- Generated by graphviz version 2.40.1 (20161225.0304)
 -->
<!-- Title: public.t_records Pages: 1 -->
<svg width="1546pt" height="1012pt"
 viewBox="0.00 0.00 1546.00 1012.00" xmlns="http://www.w3.org/2000/svg" xmlns:xlink="http://www.w3.org/1999/xlink">
<g id="graph0" class="graph" transform="scale(1 1) rotate(0) translate(4 1008)">
<title>public.t_records</title>
<polygon fill="#ffffff" stroke="transparent" points="-4,4 -4,-1008 1542,-1008 1542,4 -4,4"/>
<!-- public.t_records -->
<g id="node1" class="node">
<title>public.t_records</title>
<polygon fill="#efefef" stroke="transparent" points="704,-922.5 704,-957.5 974,-957.5 974,-922.5 704,-922.5"/>
<polygon fill="none" stroke="#000000" points="704,-922.5 704,-957.5 974,-957.5 974,-922.5 704,-922.5"/>
<text text-anchor="start" x="711.7057" y="-935.3" font-family="Arial Bold" font-size="18.00" fill="#000000">public.t_records</text>
<text text-anchor="start" x="838.7263" y="-935.3" font-family="Arial" font-size="14.00" fill="#000000">    </text>
<text text-anchor="start" x="872.9311" y="-935.3" font-family="Arial" font-size="14.00" fill="#666666">[BASE TABLE]</text>
<polygon fill="none" stroke="#000000" points="704,-892.5 704,-922.5 974,-922.5 974,-892.5 704,-892.5"/>
<text text-anchor="start" x="711" y="-903.9" font-family="Arial" font-size="14.00" fill="#000000">t_records_pkey </text>
<text text-anchor="start" x="810.5806" y="-903.9" font-family="Arial" font-size="14.00" fill="#666666">[bigint]</text>
<polygon fill="none" stroke="#000000" points="704,-862.5 704,-892.5 974,-892.5 974,-862.5 704,-862.5"/>
<text text-anchor="start" x="711" y="-873.9" font-family="Arial" font-size="14.00" fill="#000000">record_id </text>
<text text-anchor="start" x="773.2314" y="-873.9" font-family="Arial" font-size="14.00" fill="#666666">[uuid]</text>
<polygon fill="none" stroke="#000000" points="704,-832.5 704,-862.5 974,-862.5 974,-832.5 704,-832.5"/>
<text text-anchor="start" x="711" y="-843.9" font-family="Arial" font-size="14.00" fill="#000000">record_type_id </text>
<text text-anchor="start" x="807.4698" y="-843.9" font-family="Arial" font-size="14.00" fill="#666666">[uuid]</text>
<polygon fill="none" stroke="#000000" points="704,-802.5 704,-832.5 974,-832.5 974,-802.5 704,-802.5"/>
<text text-anchor="start" x="711" y="-813.9" font-family="Arial" font-size="14.00" fill="#000000">title </text>
<text text-anchor="start" x="736.6676" y="-813.9" font-family="Arial" font-size="14.00" fill="#666666">[varchar(255)]</text>
<polygon fill="none" stroke="#000000" points="704,-772.5 704,-802.5 974,-802.5 974,-772.5 704,-772.5"/>
<text text-anchor="start" x="711" y="-783.9" font-family="Arial" font-size="14.00" fill="#000000">body </text>
<text text-anchor="start" x="745.2384" y="-783.9" font-family="Arial" font-size="14.00" fill="#666666">[text]</text>
<polygon fill="none" stroke="#000000" points="704,-742.5 704,-772.5 974,-772.5 974,-742.5 704,-742.5"/>
<text text-anchor="start" x="711" y="-753.9" font-family="Arial" font-size="14.00" fill="#000000">organization_id </text>
<text text-anchor="start" x="809.805" y="-753.9" font-family="Arial" font-size="14.00" fill="#666666">[uuid]</text>
<polygon fill="none" stroke="#000000" points="704,-712.5 704,-742.5 974,-742.5 974,-712.5 704,-712.5"/>
<text text-anchor="start" x="711" y="-723.9" font-family="Arial" font-size="14.00" fill="#000000">posted_by </text>
<text text-anchor="start" x="779.4768" y="-723.9" font-family="Arial" font-size="14.00" fill="#666666">[uuid]</text>
<polygon fill="none" stroke="#000000" points="704,-682.5 704,-712.5 974,-712.5 974,-682.5 704,-682.5"/>
<text text-anchor="start" x="711" y="-693.9" font-family="Arial" font-size="14.00" fill="#000000">last_edited_by </text>
<text text-anchor="start" x="805.1458" y="-693.9" font-family="Arial" font-size="14.00" fill="#666666">[uuid]</text>
<polygon fill="none" stroke="#000000" points="704,-652.5 704,-682.5 974,-682.5 974,-652.5 704,-652.5"/>
<text text-anchor="start" x="711" y="-663.9" font-family="Arial" font-size="14.00" fill="#000000">posted_at </text>
<text text-anchor="start" x="776.3674" y="-663.9" font-family="Arial" font-size="14.00" fill="#666666">[timestamp with time zone]</text>
<polygon fill="none" stroke="#000000" points="704,-622.5 704,-652.5 974,-652.5 974,-622.5 704,-622.5"/>
<text text-anchor="start" x="710.6396" y="-633.9" font-family="Arial" font-size="14.00" fill="#000000">last_edited_at </text>
<text text-anchor="start" x="801.676" y="-633.9" font-family="Arial" font-size="14.00" fill="#666666">[timestamp with time zone]</text>
<polygon fill="none" stroke="#000000" stroke-width="3" points="702.5,-621.5 702.5,-959.5 975.5,-959.5 975.5,-621.5 702.5,-621.5"/>
</g>
<!-- public.m_record_types -->
<g id="node2" class="node">
<title>public.m_record_types</title>
<polygon fill="#efefef" stroke="transparent" points="43,-312.5 43,-347.5 365,-347.5 365,-312.5 43,-312.5"/>
<polygon fill="none" stroke="#000000" points="43,-312.5 43,-347.5 365,-347.5 365,-312.5 43,-312.5"/>
<text text-anchor="start" x="49.7003" y="-325.3" font-family="Arial Bold" font-size="18.00" fill="#000000">public.m_record_types</text>
<text text-anchor="start" x="230.7317" y="-325.3" font-family="Arial" font-size="14.00" fill="#000000">    </text>
<text text-anchor="start" x="264.9365" y="-325.3" font-family="Arial" font-size="14.00" fill="#666666">[BASE TABLE]</text>
<polygon fill="none" stroke="#000000" points="43,-282.5 43,-312.5 365,-312.5 365,-282.5 43,-282.5"/>
<text text-anchor="start" x="50" y="-293.9" font-family="Arial" font-size="14.00" fill="#000000">m_record_types_pkey    </text>
<text text-anchor="start" x="221.9032" y="-293.9" font-family="Arial" font-size="14.00" fill="#666666">[bigint]</text>
<polygon fill="none" stroke="#000000" points="43,-252.5 43,-282.5 365,-282.5 365,-252.5 43,-252.5"/>
<text text-anchor="start" x="50" y="-263.9" font-family="Arial" font-size="14.00" fill="#000000">record_type_id    </text>
<text text-anchor="start" x="176.784" y="-263.9" font-family="Arial" font-size="14.00" fill="#666666">[uuid]</text>
<polygon fill="none" stroke="#000000" points="43,-222.5 43,-252.5 365,-252.5 365,-222.5 43,-222.5"/>
<text text-anchor="start" x="50" y="-233.9" font-family="Arial" font-size="14.00" fill="#000000">name    </text>
<text text-anchor="start" x="119.2132" y="-233.9" font-family="Arial" font-size="14.00" fill="#666666">[varchar(255)]</text>
<polygon fill="none" stroke="#000000" points="43,-192.5 43,-222.5 365,-222.5 365,-192.5 43,-192.5"/>
<text text-anchor="start" x="50" y="-203.9" font-family="Arial" font-size="14.00" fill="#000000">key    </text>
<text text-anchor="start" x="105.9874" y="-203.9" font-family="Arial" font-size="14.00" fill="#666666">[varchar(255)]</text>
</g>
<!-- public.t_records&#45;&gt;public.m_record_types -->
<g id="edge1" class="edge">
<title>public.t_records:record_type_id&#45;&gt;public.m_record_types:record_type_id</title>
<path fill="none" stroke="#000000" d="M693.7869,-847.356C516.7693,-842.2907 499.9852,-704.2788 417,-541 388.9694,-485.8479 426.8665,-267.5 365,-267.5"/>
<polygon fill="#000000" stroke="#000000" points="694.001,-847.3589 703.9365,-851.9996 699.0005,-847.4295 704,-847.5 704,-847.5 704,-847.5 699.0005,-847.4295 704.0635,-843.0004 694.001,-847.3589 694.001,-847.3589"/>
<text text-anchor="start" x="108.8205" y="-857.5" font-family="Arial" font-size="10.00" fill="#000000">FOREIGN KEY (record_type_id) REFERENCES m_record_types(record_type_id) ON UPDATE RESTRICT ON DELETE RESTRICT</text>
</g>
<!-- public.m_organizations -->
<g id="node3" class="node">
<title>public.m_organizations</title>
<polygon fill="#efefef" stroke="transparent" points="470,-402.5 470,-437.5 795,-437.5 795,-402.5 470,-402.5"/>
<polygon fill="none" stroke="#000000" points="470,-402.5 470,-437.5 795,-437.5 795,-402.5 470,-402.5"/>
<text text-anchor="start" x="476.6991" y="-415.3" font-family="Arial Bold" font-size="18.00" fill="#000000">public.m_organizations</text>
<text text-anchor="start" x="660.7329" y="-415.3" font-family="Arial" font-size="14.00" fill="#000000">    </text>
<text text-anchor="start" x="694.9377" y="-415.3" font-family="Arial" font-size="14.00" fill="#666666">[BASE TABLE]</text>
<polygon fill="none" stroke="#000000" points="470,-372.5 470,-402.5 795,-402.5 795,-372.5 470,-372.5"/>
<text text-anchor="start" x="477" y="-383.9" font-family="Arial" font-size="14.00" fill="#000000">m_organizations_pkey    </text>
<text text-anchor="start" x="651.2384" y="-383.9" font-family="Arial" font-size="14.00" fill="#666666">[bigint]</text>
<polygon fill="none" stroke="#000000" points="470,-342.5 470,-372.5 795,-372.5 795,-342.5 470,-342.5"/>
<text text-anchor="start" x="477" y="-353.9" font-family="Arial" font-size="14.00" fill="#000000">organization_id    </text>
<text text-anchor="start" x="606.1192" y="-353.9" font-family="Arial" font-size="14.00" fill="#666666">[uuid]</text>
<polygon fill="none" stroke="#000000" points="470,-312.5 470,-342.5 795,-342.5 795,-312.5 470,-312.5"/>
<text text-anchor="start" x="477" y="-323.9" font-family="Arial" font-size="14.00" fill="#000000">name    </text>
<text text-anchor="start" x="546.2132" y="-323.9" font-family="Arial" font-size="14.00" fill="#666666">[varchar(255)]</text>
<polygon fill="none" stroke="#000000" points="470,-282.5 470,-312.5 795,-312.5 795,-282.5 470,-282.5"/>
<text text-anchor="start" x="477" y="-293.9" font-family="Arial" font-size="14.00" fill="#000000">description    </text>
<text text-anchor="start" x="578.8822" y="-293.9" font-family="Arial" font-size="14.00" fill="#666666">[text]</text>
<polygon fill="none" stroke="#000000" points="470,-252.5 470,-282.5 795,-282.5 795,-252.5 470,-252.5"/>
<text text-anchor="start" x="477" y="-263.9" font-family="Arial" font-size="14.00" fill="#000000">color    </text>
<text text-anchor="start" x="541.5372" y="-263.9" font-family="Arial" font-size="14.00" fill="#666666">[varchar(7)]</text>
<polygon fill="none" stroke="#000000" points="470,-222.5 470,-252.5 795,-252.5 795,-222.5 470,-222.5"/>
<text text-anchor="start" x="477" y="-233.9" font-family="Arial" font-size="14.00" fill="#000000">is_personal    </text>
<text text-anchor="start" x="582.7742" y="-233.9" font-family="Arial" font-size="14.00" fill="#666666">[boolean]</text>
<polygon fill="none" stroke="#000000" points="470,-192.5 470,-222.5 795,-222.5 795,-192.5 470,-192.5"/>
<text text-anchor="start" x="477" y="-203.9" font-family="Arial" font-size="14.00" fill="#000000">is_whole    </text>
<text text-anchor="start" x="565.655" y="-203.9" font-family="Arial" font-size="14.00" fill="#666666">[boolean]</text>
<polygon fill="none" stroke="#000000" points="470,-162.5 470,-192.5 795,-192.5 795,-162.5 470,-162.5"/>
<text text-anchor="start" x="477" y="-173.9" font-family="Arial" font-size="14.00" fill="#000000">created_at    </text>
<text text-anchor="start" x="577.3422" y="-173.9" font-family="Arial" font-size="14.00" fill="#666666">[timestamp with time zone]</text>
<polygon fill="none" stroke="#000000" points="470,-132.5 470,-162.5 795,-162.5 795,-132.5 470,-132.5"/>
<text text-anchor="start" x="477" y="-143.9" font-family="Arial" font-size="14.00" fill="#000000">updated_at    </text>
<text text-anchor="start" x="581.2468" y="-143.9" font-family="Arial" font-size="14.00" fill="#666666">[timestamp with time zone]</text>
<polygon fill="none" stroke="#000000" points="470,-102.5 470,-132.5 795,-132.5 795,-102.5 470,-102.5"/>
<text text-anchor="start" x="477" y="-113.9" font-family="Arial" font-size="14.00" fill="#000000">chat_room_id    </text>
<text text-anchor="start" x="596.0014" y="-113.9" font-family="Arial" font-size="14.00" fill="#666666">[uuid]</text>
</g>
<!-- public.t_records&#45;&gt;public.m_organizations -->
<g id="edge2" class="edge">
<title>public.t_records:organization_id&#45;&gt;public.m_organizations:organization_id</title>
<path fill="none" stroke="#000000" d="M693.7106,-757.3647C454.1933,-750.8873 781.9345,-513.7752 795,-481 815.3254,-430.0131 849.8889,-357.5 795,-357.5"/>
<polygon fill="#000000" stroke="#000000" points="694.0009,-757.3685 703.9408,-761.9996 699.0004,-757.4342 704,-757.5 704,-757.5 704,-757.5 699.0004,-757.4342 704.0592,-753.0004 694.0009,-757.3685 694.0009,-757.3685"/>
<text text-anchor="start" x="108.5285" y="-767.5" font-family="Arial" font-size="10.00" fill="#000000">FOREIGN KEY (organization_id) REFERENCES m_organizations(organization_id) ON UPDATE SET NULL ON DELETE SET NULL</text>
</g>
<!-- public.m_members -->
<g id="node4" class="node">
<title>public.m_members</title>
<polygon fill="#efefef" stroke="transparent" points="899,-462.5 899,-497.5 1192,-497.5 1192,-462.5 899,-462.5"/>
<polygon fill="none" stroke="#000000" points="899,-462.5 899,-497.5 1192,-497.5 1192,-462.5 899,-462.5"/>
<text text-anchor="start" x="905.7146" y="-475.3" font-family="Arial Bold" font-size="18.00" fill="#000000">public.m_members</text>
<text text-anchor="start" x="1057.7174" y="-475.3" font-family="Arial" font-size="14.00" fill="#000000">    </text>
<text text-anchor="start" x="1091.9222" y="-475.3" font-family="Arial" font-size="14.00" fill="#666666">[BASE TABLE]</text>
<polygon fill="none" stroke="#000000" points="899,-432.5 899,-462.5 1192,-462.5 1192,-432.5 899,-432.5"/>
<text text-anchor="start" x="906" y="-443.9" font-family="Arial" font-size="14.00" fill="#000000">m_members_pkey    </text>
<text text-anchor="start" x="1055.3254" y="-443.9" font-family="Arial" font-size="14.00" fill="#666666">[bigint]</text>
<polygon fill="none" stroke="#000000" points="899,-402.5 899,-432.5 1192,-432.5 1192,-402.5 899,-402.5"/>
<text text-anchor="start" x="906" y="-413.9" font-family="Arial" font-size="14.00" fill="#000000">member_id    </text>
<text text-anchor="start" x="1010.2062" y="-413.9" font-family="Arial" font-size="14.00" fill="#666666">[uuid]</text>
<polygon fill="none" stroke="#000000" points="899,-372.5 899,-402.5 1192,-402.5 1192,-372.5 899,-372.5"/>
<text text-anchor="start" x="906" y="-383.9" font-family="Arial" font-size="14.00" fill="#000000">login_id    </text>
<text text-anchor="start" x="988.4376" y="-383.9" font-family="Arial" font-size="14.00" fill="#666666">[varchar(255)]</text>
<polygon fill="none" stroke="#000000" points="899,-342.5 899,-372.5 1192,-372.5 1192,-342.5 899,-342.5"/>
<text text-anchor="start" x="906" y="-353.9" font-family="Arial" font-size="14.00" fill="#000000">password    </text>
<text text-anchor="start" x="1000.1024" y="-353.9" font-family="Arial" font-size="14.00" fill="#666666">[varchar(255)]</text>
<polygon fill="none" stroke="#000000" points="899,-312.5 899,-342.5 1192,-342.5 1192,-312.5 899,-312.5"/>
<text text-anchor="start" x="906" y="-323.9" font-family="Arial" font-size="14.00" fill="#000000">email    </text>
<text text-anchor="start" x="973.6438" y="-323.9" font-family="Arial" font-size="14.00" fill="#666666">[varchar(255)]</text>
<polygon fill="none" stroke="#000000" points="899,-282.5 899,-312.5 1192,-312.5 1192,-282.5 899,-282.5"/>
<text text-anchor="start" x="906" y="-293.9" font-family="Arial" font-size="14.00" fill="#000000">name    </text>
<text text-anchor="start" x="975.2132" y="-293.9" font-family="Arial" font-size="14.00" fill="#666666">[varchar(255)]</text>
<polygon fill="none" stroke="#000000" points="899,-252.5 899,-282.5 1192,-282.5 1192,-252.5 899,-252.5"/>
<text text-anchor="start" x="906" y="-263.9" font-family="Arial" font-size="14.00" fill="#000000">attend_status_id    </text>
<text text-anchor="start" x="1042.9172" y="-263.9" font-family="Arial" font-size="14.00" fill="#666666">[uuid]</text>
<polygon fill="none" stroke="#000000" points="899,-222.5 899,-252.5 1192,-252.5 1192,-222.5 899,-222.5"/>
<text text-anchor="start" x="906" y="-233.9" font-family="Arial" font-size="14.00" fill="#000000">profile_image_url    </text>
<text text-anchor="start" x="1047.547" y="-233.9" font-family="Arial" font-size="14.00" fill="#666666">[text]</text>
<polygon fill="none" stroke="#000000" points="899,-192.5 899,-222.5 1192,-222.5 1192,-192.5 899,-192.5"/>
<text text-anchor="start" x="906" y="-203.9" font-family="Arial" font-size="14.00" fill="#000000">grade_id    </text>
<text text-anchor="start" x="994.6676" y="-203.9" font-family="Arial" font-size="14.00" fill="#666666">[uuid]</text>
<polygon fill="none" stroke="#000000" points="899,-162.5 899,-192.5 1192,-192.5 1192,-162.5 899,-162.5"/>
<text text-anchor="start" x="906" y="-173.9" font-family="Arial" font-size="14.00" fill="#000000">group_id    </text>
<text text-anchor="start" x="994.6676" y="-173.9" font-family="Arial" font-size="14.00" fill="#666666">[uuid]</text>
<polygon fill="none" stroke="#000000" points="899,-132.5 899,-162.5 1192,-162.5 1192,-132.5 899,-132.5"/>
<text text-anchor="start" x="906" y="-143.9" font-family="Arial" font-size="14.00" fill="#000000">personal_organization_id    </text>
<text text-anchor="start" x="1096.582" y="-143.9" font-family="Arial" font-size="14.00" fill="#666666">[uuid]</text>
<polygon fill="none" stroke="#000000" points="899,-102.5 899,-132.5 1192,-132.5 1192,-102.5 899,-102.5"/>
<text text-anchor="start" x="906" y="-113.9" font-family="Arial" font-size="14.00" fill="#000000">role_id    </text>
<text text-anchor="start" x="982.209" y="-113.9" font-family="Arial" font-size="14.00" fill="#666666">[uuid]</text>
<polygon fill="none" stroke="#000000" points="899,-72.5 899,-102.5 1192,-102.5 1192,-72.5 899,-72.5"/>
<text text-anchor="start" x="906" y="-83.9" font-family="Arial" font-size="14.00" fill="#000000">created_at    </text>
<text text-anchor="start" x="1006.3422" y="-83.9" font-family="Arial" font-size="14.00" fill="#666666">[timestamp with time zone]</text>
<polygon fill="none" stroke="#000000" points="899,-42.5 899,-72.5 1192,-72.5 1192,-42.5 899,-42.5"/>
<text text-anchor="start" x="906" y="-53.9" font-family="Arial" font-size="14.00" fill="#000000">updated_at    </text>
<text text-anchor="start" x="1010.2468" y="-53.9" font-family="Arial" font-size="14.00" fill="#666666">[timestamp with time zone]</text>
</g>
<!-- public.t_records&#45;&gt;public.m_members -->
<g id="edge3" class="edge">
<title>public.t_records:posted_by&#45;&gt;public.m_members:member_id</title>
<path fill="none" stroke="#000000" d="M984.1086,-726.6791C1037.4562,-717.3427 1007.6751,-630.5176 974,-577 954.3084,-545.7054 918.6916,-572.2946 899,-541 869.7676,-494.5429 844.1111,-417.5 899,-417.5"/>
<polygon fill="#000000" stroke="#000000" points="983.9672,-726.6905 973.6357,-723.0148 978.9836,-727.0952 974,-727.5 974,-727.5 974,-727.5 978.9836,-727.0952 974.3643,-731.9852 983.9672,-726.6905 983.9672,-726.6905"/>
<text text-anchor="start" x="981.155" y="-737.5" font-family="Arial" font-size="10.00" fill="#000000">FOREIGN KEY (posted_by) REFERENCES m_members(member_id) ON UPDATE SET NULL ON DELETE SET NULL</text>
</g>
<!-- public.t_records&#45;&gt;public.m_members -->
<g id="edge4" class="edge">
<title>public.t_records:last_edited_by&#45;&gt;public.m_members:member_id</title>
<path fill="none" stroke="#000000" d="M984.1574,-696.4216C1024.018,-687.0766 1000.5168,-619.1414 974,-577 954.3084,-545.7054 918.6916,-572.2946 899,-541 869.7676,-494.5429 844.1111,-417.5 899,-417.5"/>
<polygon fill="#000000" stroke="#000000" points="983.9441,-696.4442 973.5249,-693.0251 978.9721,-696.9721 974,-697.5 974,-697.5 974,-697.5 978.9721,-696.9721 974.4751,-701.9749 983.9441,-696.4442 983.9441,-696.4442"/>
<text text-anchor="start" x="980.9875" y="-707.5" font-family="Arial" font-size="10.00" fill="#000000">FOREIGN KEY (last_edited_by) REFERENCES m_members(member_id) ON UPDATE SET NULL ON DELETE SET NULL</text>
</g>
</g>
</svg>
