<?xml version="1.0" encoding="UTF-8" standalone="no"?>
<!DOCTYPE svg PUBLIC "-//W3C//DTD SVG 1.1//EN"
 "http://www.w3.org/Graphics/SVG/1.1/DTD/svg11.dtd">
<!-- Generated by graphviz version 2.40.1 (20161225.0304)
 -->
<!-- Title: public.m_chat_rooms Pages: 1 -->
<svg width="1595pt" height="1499pt"
 viewBox="0.00 0.00 1595.00 1499.00" xmlns="http://www.w3.org/2000/svg" xmlns:xlink="http://www.w3.org/1999/xlink">
<g id="graph0" class="graph" transform="scale(1 1) rotate(0) translate(4 1495)">
<title>public.m_chat_rooms</title>
<polygon fill="#ffffff" stroke="transparent" points="-4,4 -4,-1495 1591,-1495 1591,4 -4,4"/>
<!-- public.m_chat_rooms -->
<g id="node1" class="node">
<title>public.m_chat_rooms</title>
<polygon fill="#efefef" stroke="transparent" points="545,-952.5 545,-987.5 857,-987.5 857,-952.5 545,-952.5"/>
<polygon fill="none" stroke="#000000" points="545,-952.5 545,-987.5 857,-987.5 857,-952.5 545,-952.5"/>
<text text-anchor="start" x="551.7034" y="-965.3" font-family="Arial Bold" font-size="18.00" fill="#000000">public.m_chat_rooms</text>
<text text-anchor="start" x="722.7286" y="-965.3" font-family="Arial" font-size="14.00" fill="#000000">    </text>
<text text-anchor="start" x="756.9334" y="-965.3" font-family="Arial" font-size="14.00" fill="#666666">[BASE TABLE]</text>
<polygon fill="none" stroke="#000000" points="545,-922.5 545,-952.5 857,-952.5 857,-922.5 545,-922.5"/>
<text text-anchor="start" x="552" y="-933.9" font-family="Arial" font-size="14.00" fill="#000000">m_chat_rooms_pkey </text>
<text text-anchor="start" x="685.8064" y="-933.9" font-family="Arial" font-size="14.00" fill="#666666">[bigint]</text>
<polygon fill="none" stroke="#000000" points="545,-892.5 545,-922.5 857,-922.5 857,-892.5 545,-892.5"/>
<text text-anchor="start" x="552" y="-903.9" font-family="Arial" font-size="14.00" fill="#000000">chat_room_id </text>
<text text-anchor="start" x="640.6872" y="-903.9" font-family="Arial" font-size="14.00" fill="#666666">[uuid]</text>
<polygon fill="none" stroke="#000000" points="545,-862.5 545,-892.5 857,-892.5 857,-862.5 545,-862.5"/>
<text text-anchor="start" x="552" y="-873.9" font-family="Arial" font-size="14.00" fill="#000000">name </text>
<text text-anchor="start" x="590.899" y="-873.9" font-family="Arial" font-size="14.00" fill="#666666">[varchar(255)]</text>
<polygon fill="none" stroke="#000000" points="545,-832.5 545,-862.5 857,-862.5 857,-832.5 545,-832.5"/>
<text text-anchor="start" x="552" y="-843.9" font-family="Arial" font-size="14.00" fill="#000000">is_private </text>
<text text-anchor="start" x="615.7854" y="-843.9" font-family="Arial" font-size="14.00" fill="#666666">[boolean]</text>
<polygon fill="none" stroke="#000000" points="545,-802.5 545,-832.5 857,-832.5 857,-802.5 545,-802.5"/>
<text text-anchor="start" x="552" y="-813.9" font-family="Arial" font-size="14.00" fill="#000000">cover_image_id </text>
<text text-anchor="start" x="654.6858" y="-813.9" font-family="Arial" font-size="14.00" fill="#666666">[uuid]</text>
<polygon fill="none" stroke="#000000" points="545,-772.5 545,-802.5 857,-802.5 857,-772.5 545,-772.5"/>
<text text-anchor="start" x="552" y="-783.9" font-family="Arial" font-size="14.00" fill="#000000">owner_id </text>
<text text-anchor="start" x="612.6774" y="-783.9" font-family="Arial" font-size="14.00" fill="#666666">[uuid]</text>
<polygon fill="none" stroke="#000000" points="545,-742.5 545,-772.5 857,-772.5 857,-742.5 545,-742.5"/>
<text text-anchor="start" x="552" y="-753.9" font-family="Arial" font-size="14.00" fill="#000000">from_organization </text>
<text text-anchor="start" x="667.9102" y="-753.9" font-family="Arial" font-size="14.00" fill="#666666">[boolean]</text>
<polygon fill="none" stroke="#000000" points="545,-712.5 545,-742.5 857,-742.5 857,-712.5 545,-712.5"/>
<text text-anchor="start" x="552" y="-723.9" font-family="Arial" font-size="14.00" fill="#000000">created_at </text>
<text text-anchor="start" x="622.028" y="-723.9" font-family="Arial" font-size="14.00" fill="#666666">[timestamp with time zone]</text>
<polygon fill="none" stroke="#000000" points="545,-682.5 545,-712.5 857,-712.5 857,-682.5 545,-682.5"/>
<text text-anchor="start" x="552" y="-693.9" font-family="Arial" font-size="14.00" fill="#000000">updated_at </text>
<text text-anchor="start" x="625.9326" y="-693.9" font-family="Arial" font-size="14.00" fill="#666666">[timestamp with time zone]</text>
<polygon fill="none" stroke="#000000" stroke-width="3" points="543.5,-681.5 543.5,-989.5 858.5,-989.5 858.5,-681.5 543.5,-681.5"/>
</g>
<!-- public.t_images -->
<g id="node5" class="node">
<title>public.t_images</title>
<polygon fill="#efefef" stroke="transparent" points="376,-357.5 376,-392.5 642,-392.5 642,-357.5 376,-357.5"/>
<polygon fill="none" stroke="#000000" points="376,-357.5 376,-392.5 642,-392.5 642,-357.5 376,-357.5"/>
<text text-anchor="start" x="382.7047" y="-370.3" font-family="Arial Bold" font-size="18.00" fill="#000000">public.t_images</text>
<text text-anchor="start" x="507.7273" y="-370.3" font-family="Arial" font-size="14.00" fill="#000000">    </text>
<text text-anchor="start" x="541.9321" y="-370.3" font-family="Arial" font-size="14.00" fill="#666666">[BASE TABLE]</text>
<polygon fill="none" stroke="#000000" points="376,-327.5 376,-357.5 642,-357.5 642,-327.5 376,-327.5"/>
<text text-anchor="start" x="383" y="-338.9" font-family="Arial" font-size="14.00" fill="#000000">t_images_pkey    </text>
<text text-anchor="start" x="511.3408" y="-338.9" font-family="Arial" font-size="14.00" fill="#666666">[bigint]</text>
<polygon fill="none" stroke="#000000" points="376,-297.5 376,-327.5 642,-327.5 642,-297.5 376,-297.5"/>
<text text-anchor="start" x="383" y="-308.9" font-family="Arial" font-size="14.00" fill="#000000">image_id    </text>
<text text-anchor="start" x="473.9916" y="-308.9" font-family="Arial" font-size="14.00" fill="#666666">[uuid]</text>
<polygon fill="none" stroke="#000000" points="376,-267.5 376,-297.5 642,-297.5 642,-267.5 376,-267.5"/>
<text text-anchor="start" x="383" y="-278.9" font-family="Arial" font-size="14.00" fill="#000000">height    </text>
<text text-anchor="start" x="455.3324" y="-278.9" font-family="Arial" font-size="14.00" fill="#666666">[double precision]</text>
<polygon fill="none" stroke="#000000" points="376,-237.5 376,-267.5 642,-267.5 642,-237.5 376,-237.5"/>
<text text-anchor="start" x="383" y="-248.9" font-family="Arial" font-size="14.00" fill="#000000">width    </text>
<text text-anchor="start" x="449.8738" y="-248.9" font-family="Arial" font-size="14.00" fill="#666666">[double precision]</text>
<polygon fill="none" stroke="#000000" points="376,-207.5 376,-237.5 642,-237.5 642,-207.5 376,-207.5"/>
<text text-anchor="start" x="383" y="-218.9" font-family="Arial" font-size="14.00" fill="#000000">attachable_item_id    </text>
<text text-anchor="start" x="534.683" y="-218.9" font-family="Arial" font-size="14.00" fill="#666666">[uuid]</text>
</g>
<!-- public.m_chat_rooms&#45;&gt;public.t_images -->
<g id="edge4" class="edge">
<title>public.m_chat_rooms:cover_image_id&#45;&gt;public.t_images:image_id</title>
<path fill="none" stroke="#000000" d="M534.8504,-816.9684C408.3373,-802.9091 624.1585,-514.0208 642,-436 654.2359,-382.4923 696.8889,-312.5 642,-312.5"/>
<polygon fill="#000000" stroke="#000000" points="535.0137,-816.9769 544.7646,-821.9938 540.0068,-817.2384 545,-817.5 545,-817.5 545,-817.5 540.0068,-817.2384 545.2354,-813.0062 535.0137,-816.9769 535.0137,-816.9769"/>
<text text-anchor="start" x="7.1515" y="-827.5" font-family="Arial" font-size="10.00" fill="#000000">FOREIGN KEY (cover_image_id) REFERENCES t_images(image_id) ON UPDATE SET NULL ON DELETE SET NULL</text>
</g>
<!-- public.m_members -->
<g id="node6" class="node">
<title>public.m_members</title>
<polygon fill="#efefef" stroke="transparent" points="747,-522.5 747,-557.5 1040,-557.5 1040,-522.5 747,-522.5"/>
<polygon fill="none" stroke="#000000" points="747,-522.5 747,-557.5 1040,-557.5 1040,-522.5 747,-522.5"/>
<text text-anchor="start" x="753.7146" y="-535.3" font-family="Arial Bold" font-size="18.00" fill="#000000">public.m_members</text>
<text text-anchor="start" x="905.7174" y="-535.3" font-family="Arial" font-size="14.00" fill="#000000">    </text>
<text text-anchor="start" x="939.9222" y="-535.3" font-family="Arial" font-size="14.00" fill="#666666">[BASE TABLE]</text>
<polygon fill="none" stroke="#000000" points="747,-492.5 747,-522.5 1040,-522.5 1040,-492.5 747,-492.5"/>
<text text-anchor="start" x="754" y="-503.9" font-family="Arial" font-size="14.00" fill="#000000">m_members_pkey    </text>
<text text-anchor="start" x="903.3254" y="-503.9" font-family="Arial" font-size="14.00" fill="#666666">[bigint]</text>
<polygon fill="none" stroke="#000000" points="747,-462.5 747,-492.5 1040,-492.5 1040,-462.5 747,-462.5"/>
<text text-anchor="start" x="754" y="-473.9" font-family="Arial" font-size="14.00" fill="#000000">member_id    </text>
<text text-anchor="start" x="858.2062" y="-473.9" font-family="Arial" font-size="14.00" fill="#666666">[uuid]</text>
<polygon fill="none" stroke="#000000" points="747,-432.5 747,-462.5 1040,-462.5 1040,-432.5 747,-432.5"/>
<text text-anchor="start" x="754" y="-443.9" font-family="Arial" font-size="14.00" fill="#000000">login_id    </text>
<text text-anchor="start" x="836.4376" y="-443.9" font-family="Arial" font-size="14.00" fill="#666666">[varchar(255)]</text>
<polygon fill="none" stroke="#000000" points="747,-402.5 747,-432.5 1040,-432.5 1040,-402.5 747,-402.5"/>
<text text-anchor="start" x="754" y="-413.9" font-family="Arial" font-size="14.00" fill="#000000">password    </text>
<text text-anchor="start" x="848.1024" y="-413.9" font-family="Arial" font-size="14.00" fill="#666666">[varchar(255)]</text>
<polygon fill="none" stroke="#000000" points="747,-372.5 747,-402.5 1040,-402.5 1040,-372.5 747,-372.5"/>
<text text-anchor="start" x="754" y="-383.9" font-family="Arial" font-size="14.00" fill="#000000">email    </text>
<text text-anchor="start" x="821.6438" y="-383.9" font-family="Arial" font-size="14.00" fill="#666666">[varchar(255)]</text>
<polygon fill="none" stroke="#000000" points="747,-342.5 747,-372.5 1040,-372.5 1040,-342.5 747,-342.5"/>
<text text-anchor="start" x="754" y="-353.9" font-family="Arial" font-size="14.00" fill="#000000">name    </text>
<text text-anchor="start" x="823.2132" y="-353.9" font-family="Arial" font-size="14.00" fill="#666666">[varchar(255)]</text>
<polygon fill="none" stroke="#000000" points="747,-312.5 747,-342.5 1040,-342.5 1040,-312.5 747,-312.5"/>
<text text-anchor="start" x="754" y="-323.9" font-family="Arial" font-size="14.00" fill="#000000">first_name    </text>
<text text-anchor="start" x="853.5442" y="-323.9" font-family="Arial" font-size="14.00" fill="#666666">[varchar(255)]</text>
<polygon fill="none" stroke="#000000" points="747,-282.5 747,-312.5 1040,-312.5 1040,-282.5 747,-282.5"/>
<text text-anchor="start" x="754" y="-293.9" font-family="Arial" font-size="14.00" fill="#000000">last_name    </text>
<text text-anchor="start" x="852.7756" y="-293.9" font-family="Arial" font-size="14.00" fill="#666666">[varchar(255)]</text>
<polygon fill="none" stroke="#000000" points="747,-252.5 747,-282.5 1040,-282.5 1040,-252.5 747,-252.5"/>
<text text-anchor="start" x="754" y="-263.9" font-family="Arial" font-size="14.00" fill="#000000">attend_status_id    </text>
<text text-anchor="start" x="890.9172" y="-263.9" font-family="Arial" font-size="14.00" fill="#666666">[uuid]</text>
<polygon fill="none" stroke="#000000" points="747,-222.5 747,-252.5 1040,-252.5 1040,-222.5 747,-222.5"/>
<text text-anchor="start" x="754" y="-233.9" font-family="Arial" font-size="14.00" fill="#000000">profile_image_id    </text>
<text text-anchor="start" x="890.8864" y="-233.9" font-family="Arial" font-size="14.00" fill="#666666">[uuid]</text>
<polygon fill="none" stroke="#000000" points="747,-192.5 747,-222.5 1040,-222.5 1040,-192.5 747,-192.5"/>
<text text-anchor="start" x="754" y="-203.9" font-family="Arial" font-size="14.00" fill="#000000">grade_id    </text>
<text text-anchor="start" x="842.6676" y="-203.9" font-family="Arial" font-size="14.00" fill="#666666">[uuid]</text>
<polygon fill="none" stroke="#000000" points="747,-162.5 747,-192.5 1040,-192.5 1040,-162.5 747,-162.5"/>
<text text-anchor="start" x="754" y="-173.9" font-family="Arial" font-size="14.00" fill="#000000">group_id    </text>
<text text-anchor="start" x="842.6676" y="-173.9" font-family="Arial" font-size="14.00" fill="#666666">[uuid]</text>
<polygon fill="none" stroke="#000000" points="747,-132.5 747,-162.5 1040,-162.5 1040,-132.5 747,-132.5"/>
<text text-anchor="start" x="754" y="-143.9" font-family="Arial" font-size="14.00" fill="#000000">personal_organization_id    </text>
<text text-anchor="start" x="944.582" y="-143.9" font-family="Arial" font-size="14.00" fill="#666666">[uuid]</text>
<polygon fill="none" stroke="#000000" points="747,-102.5 747,-132.5 1040,-132.5 1040,-102.5 747,-102.5"/>
<text text-anchor="start" x="754" y="-113.9" font-family="Arial" font-size="14.00" fill="#000000">role_id    </text>
<text text-anchor="start" x="830.209" y="-113.9" font-family="Arial" font-size="14.00" fill="#666666">[uuid]</text>
<polygon fill="none" stroke="#000000" points="747,-72.5 747,-102.5 1040,-102.5 1040,-72.5 747,-72.5"/>
<text text-anchor="start" x="754" y="-83.9" font-family="Arial" font-size="14.00" fill="#000000">created_at    </text>
<text text-anchor="start" x="854.3422" y="-83.9" font-family="Arial" font-size="14.00" fill="#666666">[timestamp with time zone]</text>
<polygon fill="none" stroke="#000000" points="747,-42.5 747,-72.5 1040,-72.5 1040,-42.5 747,-42.5"/>
<text text-anchor="start" x="754" y="-53.9" font-family="Arial" font-size="14.00" fill="#000000">updated_at    </text>
<text text-anchor="start" x="858.2468" y="-53.9" font-family="Arial" font-size="14.00" fill="#666666">[timestamp with time zone]</text>
</g>
<!-- public.m_chat_rooms&#45;&gt;public.m_members -->
<g id="edge5" class="edge">
<title>public.m_chat_rooms:owner_id&#45;&gt;public.m_members:member_id</title>
<path fill="none" stroke="#000000" d="M867.1395,-786.6582C920.8321,-777.0886 894.1118,-688.1944 857,-637 826.8083,-595.3516 777.1917,-642.6484 747,-601 714.7844,-556.5597 692.1111,-477.5 747,-477.5"/>
<polygon fill="#000000" stroke="#000000" points="866.9657,-786.6726 856.6277,-783.0154 861.9829,-787.0863 857,-787.5 857,-787.5 857,-787.5 861.9829,-787.0863 857.3723,-791.9846 866.9657,-786.6726 866.9657,-786.6726"/>
<text text-anchor="start" x="863.9405" y="-797.5" font-family="Arial" font-size="10.00" fill="#000000">FOREIGN KEY (owner_id) REFERENCES m_members(member_id) ON UPDATE SET NULL ON DELETE SET NULL</text>
</g>
<!-- public.m_organizations -->
<g id="node2" class="node">
<title>public.m_organizations</title>
<polygon fill="#efefef" stroke="transparent" points="72,-1412.5 72,-1447.5 397,-1447.5 397,-1412.5 72,-1412.5"/>
<polygon fill="none" stroke="#000000" points="72,-1412.5 72,-1447.5 397,-1447.5 397,-1412.5 72,-1412.5"/>
<text text-anchor="start" x="78.6991" y="-1425.3" font-family="Arial Bold" font-size="18.00" fill="#000000">public.m_organizations</text>
<text text-anchor="start" x="262.7329" y="-1425.3" font-family="Arial" font-size="14.00" fill="#000000">    </text>
<text text-anchor="start" x="296.9377" y="-1425.3" font-family="Arial" font-size="14.00" fill="#666666">[BASE TABLE]</text>
<polygon fill="none" stroke="#000000" points="72,-1382.5 72,-1412.5 397,-1412.5 397,-1382.5 72,-1382.5"/>
<text text-anchor="start" x="79" y="-1393.9" font-family="Arial" font-size="14.00" fill="#000000">m_organizations_pkey    </text>
<text text-anchor="start" x="253.2384" y="-1393.9" font-family="Arial" font-size="14.00" fill="#666666">[bigint]</text>
<polygon fill="none" stroke="#000000" points="72,-1352.5 72,-1382.5 397,-1382.5 397,-1352.5 72,-1352.5"/>
<text text-anchor="start" x="79" y="-1363.9" font-family="Arial" font-size="14.00" fill="#000000">organization_id    </text>
<text text-anchor="start" x="208.1192" y="-1363.9" font-family="Arial" font-size="14.00" fill="#666666">[uuid]</text>
<polygon fill="none" stroke="#000000" points="72,-1322.5 72,-1352.5 397,-1352.5 397,-1322.5 72,-1322.5"/>
<text text-anchor="start" x="79" y="-1333.9" font-family="Arial" font-size="14.00" fill="#000000">name    </text>
<text text-anchor="start" x="148.2132" y="-1333.9" font-family="Arial" font-size="14.00" fill="#666666">[varchar(255)]</text>
<polygon fill="none" stroke="#000000" points="72,-1292.5 72,-1322.5 397,-1322.5 397,-1292.5 72,-1292.5"/>
<text text-anchor="start" x="79" y="-1303.9" font-family="Arial" font-size="14.00" fill="#000000">description    </text>
<text text-anchor="start" x="180.8822" y="-1303.9" font-family="Arial" font-size="14.00" fill="#666666">[text]</text>
<polygon fill="none" stroke="#000000" points="72,-1262.5 72,-1292.5 397,-1292.5 397,-1262.5 72,-1262.5"/>
<text text-anchor="start" x="79" y="-1273.9" font-family="Arial" font-size="14.00" fill="#000000">color    </text>
<text text-anchor="start" x="143.5372" y="-1273.9" font-family="Arial" font-size="14.00" fill="#666666">[varchar(7)]</text>
<polygon fill="none" stroke="#000000" points="72,-1232.5 72,-1262.5 397,-1262.5 397,-1232.5 72,-1232.5"/>
<text text-anchor="start" x="79" y="-1243.9" font-family="Arial" font-size="14.00" fill="#000000">is_personal    </text>
<text text-anchor="start" x="184.7742" y="-1243.9" font-family="Arial" font-size="14.00" fill="#666666">[boolean]</text>
<polygon fill="none" stroke="#000000" points="72,-1202.5 72,-1232.5 397,-1232.5 397,-1202.5 72,-1202.5"/>
<text text-anchor="start" x="79" y="-1213.9" font-family="Arial" font-size="14.00" fill="#000000">is_whole    </text>
<text text-anchor="start" x="167.655" y="-1213.9" font-family="Arial" font-size="14.00" fill="#666666">[boolean]</text>
<polygon fill="none" stroke="#000000" points="72,-1172.5 72,-1202.5 397,-1202.5 397,-1172.5 72,-1172.5"/>
<text text-anchor="start" x="79" y="-1183.9" font-family="Arial" font-size="14.00" fill="#000000">created_at    </text>
<text text-anchor="start" x="179.3422" y="-1183.9" font-family="Arial" font-size="14.00" fill="#666666">[timestamp with time zone]</text>
<polygon fill="none" stroke="#000000" points="72,-1142.5 72,-1172.5 397,-1172.5 397,-1142.5 72,-1142.5"/>
<text text-anchor="start" x="79" y="-1153.9" font-family="Arial" font-size="14.00" fill="#000000">updated_at    </text>
<text text-anchor="start" x="183.2468" y="-1153.9" font-family="Arial" font-size="14.00" fill="#666666">[timestamp with time zone]</text>
<polygon fill="none" stroke="#000000" points="72,-1112.5 72,-1142.5 397,-1142.5 397,-1112.5 72,-1112.5"/>
<text text-anchor="start" x="79" y="-1123.9" font-family="Arial" font-size="14.00" fill="#000000">chat_room_id    </text>
<text text-anchor="start" x="198.0014" y="-1123.9" font-family="Arial" font-size="14.00" fill="#666666">[uuid]</text>
</g>
<!-- public.m_organizations&#45;&gt;public.m_chat_rooms -->
<g id="edge1" class="edge">
<title>public.m_organizations:chat_room_id&#45;&gt;public.m_chat_rooms:chat_room_id</title>
<path fill="none" stroke="#000000" d="M407.0727,-1125.3226C459.5547,-1102.4741 489.5305,-907.5 545,-907.5"/>
<polygon fill="#000000" stroke="#000000" points="406.7742,-1125.387 396.0492,-1123.1016 401.8871,-1126.4435 397,-1127.5 397,-1127.5 397,-1127.5 401.8871,-1126.4435 397.9508,-1131.8984 406.7742,-1125.387 406.7742,-1125.387"/>
<text text-anchor="start" x="404.159" y="-1111.5" font-family="Arial" font-size="10.00" fill="#000000">FOREIGN KEY (chat_room_id) REFERENCES m_chat_rooms(chat_room_id) ON UPDATE RESTRICT ON DELETE RESTRICT</text>
</g>
<!-- public.m_chat_room_belongings -->
<g id="node3" class="node">
<title>public.m_chat_room_belongings</title>
<polygon fill="#efefef" stroke="transparent" points="501,-1322.5 501,-1357.5 901,-1357.5 901,-1322.5 501,-1322.5"/>
<polygon fill="none" stroke="#000000" points="501,-1322.5 501,-1357.5 901,-1357.5 901,-1322.5 501,-1322.5"/>
<text text-anchor="start" x="507.6844" y="-1335.3" font-family="Arial Bold" font-size="18.00" fill="#000000">public.m_chat_room_belongings</text>
<text text-anchor="start" x="766.7476" y="-1335.3" font-family="Arial" font-size="14.00" fill="#000000">    </text>
<text text-anchor="start" x="800.9524" y="-1335.3" font-family="Arial" font-size="14.00" fill="#666666">[BASE TABLE]</text>
<polygon fill="none" stroke="#000000" points="501,-1292.5 501,-1322.5 901,-1322.5 901,-1292.5 501,-1292.5"/>
<text text-anchor="start" x="508" y="-1303.9" font-family="Arial" font-size="14.00" fill="#000000">m_chat_room_belongings_pkey    </text>
<text text-anchor="start" x="740.5946" y="-1303.9" font-family="Arial" font-size="14.00" fill="#666666">[bigint]</text>
<polygon fill="none" stroke="#000000" points="501,-1262.5 501,-1292.5 901,-1292.5 901,-1262.5 501,-1262.5"/>
<text text-anchor="start" x="508" y="-1273.9" font-family="Arial" font-size="14.00" fill="#000000">member_id    </text>
<text text-anchor="start" x="612.2062" y="-1273.9" font-family="Arial" font-size="14.00" fill="#666666">[uuid]</text>
<polygon fill="none" stroke="#000000" points="501,-1232.5 501,-1262.5 901,-1262.5 901,-1232.5 501,-1232.5"/>
<text text-anchor="start" x="508" y="-1243.9" font-family="Arial" font-size="14.00" fill="#000000">chat_room_id    </text>
<text text-anchor="start" x="627.0014" y="-1243.9" font-family="Arial" font-size="14.00" fill="#666666">[uuid]</text>
<polygon fill="none" stroke="#000000" points="501,-1202.5 501,-1232.5 901,-1232.5 901,-1202.5 501,-1202.5"/>
<text text-anchor="start" x="508" y="-1213.9" font-family="Arial" font-size="14.00" fill="#000000">added_at    </text>
<text text-anchor="start" x="600.5736" y="-1213.9" font-family="Arial" font-size="14.00" fill="#666666">[timestamp with time zone]</text>
</g>
<!-- public.m_chat_room_belongings&#45;&gt;public.m_chat_rooms -->
<g id="edge2" class="edge">
<title>public.m_chat_room_belongings:chat_room_id&#45;&gt;public.m_chat_rooms:chat_room_id</title>
<path fill="none" stroke="#000000" d="M910.9304,-1245.3288C972.9899,-1216.3721 929.6144,-907.5 857,-907.5"/>
<polygon fill="#000000" stroke="#000000" points="910.7692,-1245.364 900.0388,-1243.1038 905.8846,-1246.432 901,-1247.5 901,-1247.5 901,-1247.5 905.8846,-1246.432 901.9612,-1251.8962 910.7692,-1245.364 910.7692,-1245.364"/>
<text text-anchor="start" x="907.818" y="-1257.5" font-family="Arial" font-size="10.00" fill="#000000">FOREIGN KEY (chat_room_id) REFERENCES m_chat_rooms(chat_room_id) ON UPDATE CASCADE ON DELETE CASCADE</text>
</g>
<!-- public.t_chat_room_actions -->
<g id="node4" class="node">
<title>public.t_chat_room_actions</title>
<polygon fill="#efefef" stroke="transparent" points="1005,-1337.5 1005,-1372.5 1365,-1372.5 1365,-1337.5 1005,-1337.5"/>
<polygon fill="none" stroke="#000000" points="1005,-1337.5 1005,-1372.5 1365,-1372.5 1365,-1337.5 1005,-1337.5"/>
<text text-anchor="start" x="1011.6878" y="-1350.3" font-family="Arial Bold" font-size="18.00" fill="#000000">public.t_chat_room_actions</text>
<text text-anchor="start" x="1230.7442" y="-1350.3" font-family="Arial" font-size="14.00" fill="#000000">    </text>
<text text-anchor="start" x="1264.949" y="-1350.3" font-family="Arial" font-size="14.00" fill="#666666">[BASE TABLE]</text>
<polygon fill="none" stroke="#000000" points="1005,-1307.5 1005,-1337.5 1365,-1337.5 1365,-1307.5 1005,-1307.5"/>
<text text-anchor="start" x="1012" y="-1318.9" font-family="Arial" font-size="14.00" fill="#000000">t_chat_room_actions_pkey    </text>
<text text-anchor="start" x="1213.4782" y="-1318.9" font-family="Arial" font-size="14.00" fill="#666666">[bigint]</text>
<polygon fill="none" stroke="#000000" points="1005,-1277.5 1005,-1307.5 1365,-1307.5 1365,-1277.5 1005,-1277.5"/>
<text text-anchor="start" x="1012" y="-1288.9" font-family="Arial" font-size="14.00" fill="#000000">chat_room_action_id    </text>
<text text-anchor="start" x="1176.129" y="-1288.9" font-family="Arial" font-size="14.00" fill="#666666">[uuid]</text>
<polygon fill="none" stroke="#000000" points="1005,-1247.5 1005,-1277.5 1365,-1277.5 1365,-1247.5 1005,-1247.5"/>
<text text-anchor="start" x="1012" y="-1258.9" font-family="Arial" font-size="14.00" fill="#000000">chat_room_id    </text>
<text text-anchor="start" x="1131.0014" y="-1258.9" font-family="Arial" font-size="14.00" fill="#666666">[uuid]</text>
<polygon fill="none" stroke="#000000" points="1005,-1217.5 1005,-1247.5 1365,-1247.5 1365,-1217.5 1005,-1217.5"/>
<text text-anchor="start" x="1012" y="-1228.9" font-family="Arial" font-size="14.00" fill="#000000">chat_room_action_type_id    </text>
<text text-anchor="start" x="1210.3674" y="-1228.9" font-family="Arial" font-size="14.00" fill="#666666">[uuid]</text>
<polygon fill="none" stroke="#000000" points="1005,-1187.5 1005,-1217.5 1365,-1217.5 1365,-1187.5 1005,-1187.5"/>
<text text-anchor="start" x="1012" y="-1198.9" font-family="Arial" font-size="14.00" fill="#000000">acted_at    </text>
<text text-anchor="start" x="1099.899" y="-1198.9" font-family="Arial" font-size="14.00" fill="#666666">[timestamp with time zone]</text>
</g>
<!-- public.t_chat_room_actions&#45;&gt;public.m_chat_rooms -->
<g id="edge3" class="edge">
<title>public.t_chat_room_actions:chat_room_id&#45;&gt;public.m_chat_rooms:chat_room_id</title>
<path fill="none" stroke="#000000" d="M994.8828,-1261.9503C922.0271,-1253.4576 985.9953,-1148.3207 953,-1070 920.4331,-992.6961 940.8838,-907.5 857,-907.5"/>
<polygon fill="#000000" stroke="#000000" points="995.0147,-1261.9574 1004.7558,-1266.9934 1000.0074,-1262.2287 1005,-1262.5 1005,-1262.5 1005,-1262.5 1000.0074,-1262.2287 1005.2442,-1258.0066 995.0147,-1261.9574 995.0147,-1261.9574"/>
<text text-anchor="start" x="1011.818" y="-1272.5" font-family="Arial" font-size="10.00" fill="#000000">FOREIGN KEY (chat_room_id) REFERENCES m_chat_rooms(chat_room_id) ON UPDATE CASCADE ON DELETE CASCADE</text>
</g>
</g>
</svg>
