<?xml version="1.0" encoding="UTF-8" standalone="no"?>
<!DOCTYPE svg PUBLIC "-//W3C//DTD SVG 1.1//EN"
 "http://www.w3.org/Graphics/SVG/1.1/DTD/svg11.dtd">
<!-- Generated by graphviz version 2.40.1 (20161225.0304)
 -->
<!-- Title: public.t_attachable_items Pages: 1 -->
<svg width="1412pt" height="839pt"
 viewBox="0.00 0.00 1412.00 839.00" xmlns="http://www.w3.org/2000/svg" xmlns:xlink="http://www.w3.org/1999/xlink">
<g id="graph0" class="graph" transform="scale(1 1) rotate(0) translate(4 835)">
<title>public.t_attachable_items</title>
<polygon fill="#ffffff" stroke="transparent" points="-4,4 -4,-835 1408,-835 1408,4 -4,4"/>
<!-- public.t_attachable_items -->
<g id="node1" class="node">
<title>public.t_attachable_items</title>
<polygon fill="#efefef" stroke="transparent" points="523,-442.5 523,-477.5 867,-477.5 867,-442.5 523,-442.5"/>
<polygon fill="none" stroke="#000000" points="523,-442.5 523,-477.5 867,-477.5 867,-442.5 523,-442.5"/>
<text text-anchor="start" x="529.6888" y="-455.3" font-family="Arial Bold" font-size="18.00" fill="#000000">public.t_attachable_items</text>
<text text-anchor="start" x="732.7432" y="-455.3" font-family="Arial" font-size="14.00" fill="#000000">    </text>
<text text-anchor="start" x="766.948" y="-455.3" font-family="Arial" font-size="14.00" fill="#666666">[BASE TABLE]</text>
<polygon fill="none" stroke="#000000" points="523,-412.5 523,-442.5 867,-442.5 867,-412.5 523,-412.5"/>
<text text-anchor="start" x="530" y="-423.9" font-family="Arial" font-size="14.00" fill="#000000">t_attachable_items_pkey </text>
<text text-anchor="start" x="688.718" y="-423.9" font-family="Arial" font-size="14.00" fill="#666666">[bigint]</text>
<polygon fill="none" stroke="#000000" points="523,-382.5 523,-412.5 867,-412.5 867,-382.5 523,-382.5"/>
<text text-anchor="start" x="530" y="-393.9" font-family="Arial" font-size="14.00" fill="#000000">attachable_item_id </text>
<text text-anchor="start" x="651.3688" y="-393.9" font-family="Arial" font-size="14.00" fill="#666666">[uuid]</text>
<polygon fill="none" stroke="#000000" points="523,-352.5 523,-382.5 867,-382.5 867,-352.5 523,-352.5"/>
<text text-anchor="start" x="530" y="-363.9" font-family="Arial" font-size="14.00" fill="#000000">size </text>
<text text-anchor="start" x="558.7798" y="-363.9" font-family="Arial" font-size="14.00" fill="#666666">[double precision]</text>
<polygon fill="none" stroke="#000000" points="523,-322.5 523,-352.5 867,-352.5 867,-322.5 523,-322.5"/>
<text text-anchor="start" x="530" y="-333.9" font-family="Arial" font-size="14.00" fill="#000000">mime_type_id </text>
<text text-anchor="start" x="621.0112" y="-333.9" font-family="Arial" font-size="14.00" fill="#666666">[uuid]</text>
<polygon fill="none" stroke="#000000" stroke-width="3" points="521.5,-321.5 521.5,-479.5 868.5,-479.5 868.5,-321.5 521.5,-321.5"/>
</g>
<!-- public.m_mime_types -->
<g id="node4" class="node">
<title>public.m_mime_types</title>
<polygon fill="#efefef" stroke="transparent" points="537,-162.5 537,-197.5 852,-197.5 852,-162.5 537,-162.5"/>
<polygon fill="none" stroke="#000000" points="537,-162.5 537,-197.5 852,-197.5 852,-162.5 537,-162.5"/>
<text text-anchor="start" x="543.7094" y="-175.3" font-family="Arial Bold" font-size="18.00" fill="#000000">public.m_mime_types</text>
<text text-anchor="start" x="717.7226" y="-175.3" font-family="Arial" font-size="14.00" fill="#000000">    </text>
<text text-anchor="start" x="751.9274" y="-175.3" font-family="Arial" font-size="14.00" fill="#666666">[BASE TABLE]</text>
<polygon fill="none" stroke="#000000" points="537,-132.5 537,-162.5 852,-162.5 852,-132.5 537,-132.5"/>
<text text-anchor="start" x="544" y="-143.9" font-family="Arial" font-size="14.00" fill="#000000">m_mime_types_pkey    </text>
<text text-anchor="start" x="710.4446" y="-143.9" font-family="Arial" font-size="14.00" fill="#666666">[bigint]</text>
<polygon fill="none" stroke="#000000" points="537,-102.5 537,-132.5 852,-132.5 852,-102.5 537,-102.5"/>
<text text-anchor="start" x="544" y="-113.9" font-family="Arial" font-size="14.00" fill="#000000">mime_type_id    </text>
<text text-anchor="start" x="665.3254" y="-113.9" font-family="Arial" font-size="14.00" fill="#666666">[uuid]</text>
<polygon fill="none" stroke="#000000" points="537,-72.5 537,-102.5 852,-102.5 852,-72.5 537,-72.5"/>
<text text-anchor="start" x="544" y="-83.9" font-family="Arial" font-size="14.00" fill="#000000">name    </text>
<text text-anchor="start" x="613.2132" y="-83.9" font-family="Arial" font-size="14.00" fill="#666666">[varchar(255)]</text>
<polygon fill="none" stroke="#000000" points="537,-42.5 537,-72.5 852,-72.5 852,-42.5 537,-42.5"/>
<text text-anchor="start" x="544" y="-53.9" font-family="Arial" font-size="14.00" fill="#000000">key    </text>
<text text-anchor="start" x="599.9874" y="-53.9" font-family="Arial" font-size="14.00" fill="#666666">[varchar(255)]</text>
</g>
<!-- public.t_attachable_items&#45;&gt;public.m_mime_types -->
<g id="edge3" class="edge">
<title>public.t_attachable_items:mime_type_id&#45;&gt;public.m_mime_types:mime_type_id</title>
<path fill="none" stroke="#000000" d="M695.7461,-312.3581C705.7259,-249.6207 813.0895,-305.0396 852,-241 880.5018,-194.0912 906.8889,-117.5 852,-117.5"/>
<polygon fill="#000000" stroke="#000000" points="695.7337,-312.5269 690.5121,-322.1698 695.3669,-317.5135 695,-322.5 695,-322.5 695,-322.5 695.3669,-317.5135 699.4879,-322.8302 695.7337,-312.5269 695.7337,-312.5269"/>
<text text-anchor="start" x="111.669" y="-332.5" font-family="Arial" font-size="10.00" fill="#000000">FOREIGN KEY (mime_type_id) REFERENCES m_mime_types(mime_type_id) ON UPDATE RESTRICT ON DELETE RESTRICT</text>
</g>
<!-- public.t_images -->
<g id="node2" class="node">
<title>public.t_images</title>
<polygon fill="#efefef" stroke="transparent" points="384,-752.5 384,-787.5 650,-787.5 650,-752.5 384,-752.5"/>
<polygon fill="none" stroke="#000000" points="384,-752.5 384,-787.5 650,-787.5 650,-752.5 384,-752.5"/>
<text text-anchor="start" x="390.7047" y="-765.3" font-family="Arial Bold" font-size="18.00" fill="#000000">public.t_images</text>
<text text-anchor="start" x="515.7273" y="-765.3" font-family="Arial" font-size="14.00" fill="#000000">    </text>
<text text-anchor="start" x="549.9321" y="-765.3" font-family="Arial" font-size="14.00" fill="#666666">[BASE TABLE]</text>
<polygon fill="none" stroke="#000000" points="384,-722.5 384,-752.5 650,-752.5 650,-722.5 384,-722.5"/>
<text text-anchor="start" x="391" y="-733.9" font-family="Arial" font-size="14.00" fill="#000000">t_images_pkey    </text>
<text text-anchor="start" x="519.3408" y="-733.9" font-family="Arial" font-size="14.00" fill="#666666">[bigint]</text>
<polygon fill="none" stroke="#000000" points="384,-692.5 384,-722.5 650,-722.5 650,-692.5 384,-692.5"/>
<text text-anchor="start" x="391" y="-703.9" font-family="Arial" font-size="14.00" fill="#000000">image_id    </text>
<text text-anchor="start" x="481.9916" y="-703.9" font-family="Arial" font-size="14.00" fill="#666666">[uuid]</text>
<polygon fill="none" stroke="#000000" points="384,-662.5 384,-692.5 650,-692.5 650,-662.5 384,-662.5"/>
<text text-anchor="start" x="391" y="-673.9" font-family="Arial" font-size="14.00" fill="#000000">height    </text>
<text text-anchor="start" x="463.3324" y="-673.9" font-family="Arial" font-size="14.00" fill="#666666">[double precision]</text>
<polygon fill="none" stroke="#000000" points="384,-632.5 384,-662.5 650,-662.5 650,-632.5 384,-632.5"/>
<text text-anchor="start" x="391" y="-643.9" font-family="Arial" font-size="14.00" fill="#000000">width    </text>
<text text-anchor="start" x="457.8738" y="-643.9" font-family="Arial" font-size="14.00" fill="#666666">[double precision]</text>
<polygon fill="none" stroke="#000000" points="384,-602.5 384,-632.5 650,-632.5 650,-602.5 384,-602.5"/>
<text text-anchor="start" x="391" y="-613.9" font-family="Arial" font-size="14.00" fill="#000000">attachable_item_id    </text>
<text text-anchor="start" x="542.683" y="-613.9" font-family="Arial" font-size="14.00" fill="#666666">[uuid]</text>
</g>
<!-- public.t_images&#45;&gt;public.t_attachable_items -->
<g id="edge1" class="edge">
<title>public.t_images:attachable_item_id&#45;&gt;public.t_attachable_items:attachable_item_id</title>
<path fill="none" stroke="#000000" d="M659.8297,-614.7408C672.085,-605.7723 662.8824,-577.0416 650,-560 614.6215,-513.199 558.3785,-570.801 523,-524 489.0965,-479.1503 466.7778,-397.5 523,-397.5"/>
<polygon fill="#000000" stroke="#000000" points="659.6279,-614.7974 648.7838,-613.1674 654.814,-616.1487 650,-617.5 650,-617.5 650,-617.5 654.814,-616.1487 651.2162,-621.8326 659.6279,-614.7974 659.6279,-614.7974"/>
<text text-anchor="start" x="6.918" y="-627.5" font-family="Arial" font-size="10.00" fill="#000000">FOREIGN KEY (attachable_item_id) REFERENCES t_attachable_items(attachable_item_id) ON UPDATE RESTRICT ON DELETE RESTRICT</text>
</g>
<!-- public.t_files -->
<g id="node3" class="node">
<title>public.t_files</title>
<polygon fill="#efefef" stroke="transparent" points="754,-722.5 754,-757.5 994,-757.5 994,-722.5 754,-722.5"/>
<polygon fill="none" stroke="#000000" points="754,-722.5 754,-757.5 994,-757.5 994,-722.5 754,-722.5"/>
<text text-anchor="start" x="760.7088" y="-735.3" font-family="Arial Bold" font-size="18.00" fill="#000000">public.t_files</text>
<text text-anchor="start" x="859.7232" y="-735.3" font-family="Arial" font-size="14.00" fill="#000000">    </text>
<text text-anchor="start" x="893.928" y="-735.3" font-family="Arial" font-size="14.00" fill="#666666">[BASE TABLE]</text>
<polygon fill="none" stroke="#000000" points="754,-692.5 754,-722.5 994,-722.5 994,-692.5 754,-692.5"/>
<text text-anchor="start" x="761" y="-703.9" font-family="Arial" font-size="14.00" fill="#000000">t_files_pkey    </text>
<text text-anchor="start" x="869.1122" y="-703.9" font-family="Arial" font-size="14.00" fill="#666666">[bigint]</text>
<polygon fill="none" stroke="#000000" points="754,-662.5 754,-692.5 994,-692.5 994,-662.5 754,-662.5"/>
<text text-anchor="start" x="761" y="-673.9" font-family="Arial" font-size="14.00" fill="#000000">file_id    </text>
<text text-anchor="start" x="831.763" y="-673.9" font-family="Arial" font-size="14.00" fill="#666666">[uuid]</text>
<polygon fill="none" stroke="#000000" points="754,-632.5 754,-662.5 994,-662.5 994,-632.5 754,-632.5"/>
<text text-anchor="start" x="761" y="-643.9" font-family="Arial" font-size="14.00" fill="#000000">attachable_item_id    </text>
<text text-anchor="start" x="912.683" y="-643.9" font-family="Arial" font-size="14.00" fill="#666666">[uuid]</text>
</g>
<!-- public.t_files&#45;&gt;public.t_attachable_items -->
<g id="edge2" class="edge">
<title>public.t_files:attachable_item_id&#45;&gt;public.t_attachable_items:attachable_item_id</title>
<path fill="none" stroke="#000000" d="M744.3518,-644.8608C732.6524,-636.2599 743.3651,-608.5276 754,-590 782.9539,-539.5581 838.0461,-574.4419 867,-524 894.9887,-475.2396 923.2222,-397.5 867,-397.5"/>
<polygon fill="#000000" stroke="#000000" points="744.3543,-644.8615 752.8127,-651.8405 749.1772,-646.1807 754,-647.5 754,-647.5 754,-647.5 749.1772,-646.1807 755.1873,-643.1595 744.3543,-644.8615 744.3543,-644.8615"/>
<text text-anchor="start" x="760.918" y="-657.5" font-family="Arial" font-size="10.00" fill="#000000">FOREIGN KEY (attachable_item_id) REFERENCES t_attachable_items(attachable_item_id) ON UPDATE RESTRICT ON DELETE RESTRICT</text>
</g>
</g>
</svg>
