<?xml version="1.0" encoding="UTF-8" standalone="no"?>
<!DOCTYPE svg PUBLIC "-//W3C//DTD SVG 1.1//EN"
 "http://www.w3.org/Graphics/SVG/1.1/DTD/svg11.dtd">
<!-- Generated by graphviz version 2.40.1 (20161225.0304)
 -->
<!-- Title: public.t_chat_room_delete_message_actions Pages: 1 -->
<svg width="1731pt" height="892pt"
 viewBox="0.00 0.00 1731.00 892.00" xmlns="http://www.w3.org/2000/svg" xmlns:xlink="http://www.w3.org/1999/xlink">
<g id="graph0" class="graph" transform="scale(1 1) rotate(0) translate(4 888)">
<title>public.t_chat_room_delete_message_actions</title>
<polygon fill="#ffffff" stroke="transparent" points="-4,4 -4,-888 1727,-888 1727,4 -4,4"/>
<!-- public.t_chat_room_delete_message_actions -->
<g id="node1" class="node">
<title>public.t_chat_room_delete_message_actions</title>
<polygon fill="#efefef" stroke="transparent" points="673,-802.5 673,-837.5 1175,-837.5 1175,-802.5 673,-802.5"/>
<polygon fill="none" stroke="#000000" points="673,-802.5 673,-837.5 1175,-837.5 1175,-802.5 673,-802.5"/>
<text text-anchor="start" x="679.6625" y="-815.3" font-family="Arial Bold" font-size="18.00" fill="#000000">public.t_chat_room_delete_message_actions</text>
<text text-anchor="start" x="1040.7695" y="-815.3" font-family="Arial" font-size="14.00" fill="#000000">    </text>
<text text-anchor="start" x="1074.9743" y="-815.3" font-family="Arial" font-size="14.00" fill="#666666">[BASE TABLE]</text>
<polygon fill="none" stroke="#000000" points="673,-772.5 673,-802.5 1175,-802.5 1175,-772.5 673,-772.5"/>
<text text-anchor="start" x="680" y="-783.9" font-family="Arial" font-size="14.00" fill="#000000">t_chat_room_delete_message_actions_pkey </text>
<text text-anchor="start" x="961.6478" y="-783.9" font-family="Arial" font-size="14.00" fill="#666666">[bigint]</text>
<polygon fill="none" stroke="#000000" points="673,-742.5 673,-772.5 1175,-772.5 1175,-742.5 673,-742.5"/>
<text text-anchor="start" x="680" y="-753.9" font-family="Arial" font-size="14.00" fill="#000000">chat_room_delete_message_action_id </text>
<text text-anchor="start" x="924.2986" y="-753.9" font-family="Arial" font-size="14.00" fill="#666666">[uuid]</text>
<polygon fill="none" stroke="#000000" points="673,-712.5 673,-742.5 1175,-742.5 1175,-712.5 673,-712.5"/>
<text text-anchor="start" x="680" y="-723.9" font-family="Arial" font-size="14.00" fill="#000000">chat_room_action_id </text>
<text text-anchor="start" x="813.8148" y="-723.9" font-family="Arial" font-size="14.00" fill="#666666">[uuid]</text>
<polygon fill="none" stroke="#000000" points="673,-682.5 673,-712.5 1175,-712.5 1175,-682.5 673,-682.5"/>
<text text-anchor="start" x="680" y="-693.9" font-family="Arial" font-size="14.00" fill="#000000">deleted_by </text>
<text text-anchor="start" x="752.366" y="-693.9" font-family="Arial" font-size="14.00" fill="#666666">[uuid]</text>
<polygon fill="none" stroke="#000000" stroke-width="3" points="671.5,-681.5 671.5,-839.5 1176.5,-839.5 1176.5,-681.5 671.5,-681.5"/>
</g>
<!-- public.t_chat_room_actions -->
<g id="node2" class="node">
<title>public.t_chat_room_actions</title>
<polygon fill="#efefef" stroke="transparent" points="528,-357.5 528,-392.5 888,-392.5 888,-357.5 528,-357.5"/>
<polygon fill="none" stroke="#000000" points="528,-357.5 528,-392.5 888,-392.5 888,-357.5 528,-357.5"/>
<text text-anchor="start" x="534.6878" y="-370.3" font-family="Arial Bold" font-size="18.00" fill="#000000">public.t_chat_room_actions</text>
<text text-anchor="start" x="753.7442" y="-370.3" font-family="Arial" font-size="14.00" fill="#000000">    </text>
<text text-anchor="start" x="787.949" y="-370.3" font-family="Arial" font-size="14.00" fill="#666666">[BASE TABLE]</text>
<polygon fill="none" stroke="#000000" points="528,-327.5 528,-357.5 888,-357.5 888,-327.5 528,-327.5"/>
<text text-anchor="start" x="535" y="-338.9" font-family="Arial" font-size="14.00" fill="#000000">t_chat_room_actions_pkey    </text>
<text text-anchor="start" x="736.4782" y="-338.9" font-family="Arial" font-size="14.00" fill="#666666">[bigint]</text>
<polygon fill="none" stroke="#000000" points="528,-297.5 528,-327.5 888,-327.5 888,-297.5 528,-297.5"/>
<text text-anchor="start" x="535" y="-308.9" font-family="Arial" font-size="14.00" fill="#000000">chat_room_action_id    </text>
<text text-anchor="start" x="699.129" y="-308.9" font-family="Arial" font-size="14.00" fill="#666666">[uuid]</text>
<polygon fill="none" stroke="#000000" points="528,-267.5 528,-297.5 888,-297.5 888,-267.5 528,-267.5"/>
<text text-anchor="start" x="535" y="-278.9" font-family="Arial" font-size="14.00" fill="#000000">chat_room_id    </text>
<text text-anchor="start" x="654.0014" y="-278.9" font-family="Arial" font-size="14.00" fill="#666666">[uuid]</text>
<polygon fill="none" stroke="#000000" points="528,-237.5 528,-267.5 888,-267.5 888,-237.5 528,-237.5"/>
<text text-anchor="start" x="535" y="-248.9" font-family="Arial" font-size="14.00" fill="#000000">chat_room_action_type_id    </text>
<text text-anchor="start" x="733.3674" y="-248.9" font-family="Arial" font-size="14.00" fill="#666666">[uuid]</text>
<polygon fill="none" stroke="#000000" points="528,-207.5 528,-237.5 888,-237.5 888,-207.5 528,-207.5"/>
<text text-anchor="start" x="535" y="-218.9" font-family="Arial" font-size="14.00" fill="#000000">acted_at    </text>
<text text-anchor="start" x="622.899" y="-218.9" font-family="Arial" font-size="14.00" fill="#666666">[timestamp with time zone]</text>
</g>
<!-- public.t_chat_room_delete_message_actions&#45;&gt;public.t_chat_room_actions -->
<g id="edge1" class="edge">
<title>public.t_chat_room_delete_message_actions:chat_room_action_id&#45;&gt;public.t_chat_room_actions:chat_room_action_id</title>
<path fill="none" stroke="#000000" d="M662.9918,-726.0319C637.4276,-717.1899 658.5488,-670.2932 673,-637 725.0845,-517.0062 835.9155,-555.9938 888,-436 909.855,-385.6498 942.8889,-312.5 888,-312.5"/>
<polygon fill="#000000" stroke="#000000" points="663.1059,-726.0485 672.3468,-731.9524 668.0529,-726.7743 673,-727.5 673,-727.5 673,-727.5 668.0529,-726.7743 673.6532,-723.0476 663.1059,-726.0485 663.1059,-726.0485"/>
<text text-anchor="start" x="7.242" y="-737.5" font-family="Arial" font-size="10.00" fill="#000000">FOREIGN KEY (chat_room_action_id) REFERENCES t_chat_room_actions(chat_room_action_id) ON UPDATE CASCADE ON DELETE CASCADE</text>
</g>
<!-- public.m_members -->
<g id="node3" class="node">
<title>public.m_members</title>
<polygon fill="#efefef" stroke="transparent" points="993,-522.5 993,-557.5 1286,-557.5 1286,-522.5 993,-522.5"/>
<polygon fill="none" stroke="#000000" points="993,-522.5 993,-557.5 1286,-557.5 1286,-522.5 993,-522.5"/>
<text text-anchor="start" x="999.7146" y="-535.3" font-family="Arial Bold" font-size="18.00" fill="#000000">public.m_members</text>
<text text-anchor="start" x="1151.7174" y="-535.3" font-family="Arial" font-size="14.00" fill="#000000">    </text>
<text text-anchor="start" x="1185.9222" y="-535.3" font-family="Arial" font-size="14.00" fill="#666666">[BASE TABLE]</text>
<polygon fill="none" stroke="#000000" points="993,-492.5 993,-522.5 1286,-522.5 1286,-492.5 993,-492.5"/>
<text text-anchor="start" x="1000" y="-503.9" font-family="Arial" font-size="14.00" fill="#000000">m_members_pkey    </text>
<text text-anchor="start" x="1149.3254" y="-503.9" font-family="Arial" font-size="14.00" fill="#666666">[bigint]</text>
<polygon fill="none" stroke="#000000" points="993,-462.5 993,-492.5 1286,-492.5 1286,-462.5 993,-462.5"/>
<text text-anchor="start" x="1000" y="-473.9" font-family="Arial" font-size="14.00" fill="#000000">member_id    </text>
<text text-anchor="start" x="1104.2062" y="-473.9" font-family="Arial" font-size="14.00" fill="#666666">[uuid]</text>
<polygon fill="none" stroke="#000000" points="993,-432.5 993,-462.5 1286,-462.5 1286,-432.5 993,-432.5"/>
<text text-anchor="start" x="1000" y="-443.9" font-family="Arial" font-size="14.00" fill="#000000">login_id    </text>
<text text-anchor="start" x="1082.4376" y="-443.9" font-family="Arial" font-size="14.00" fill="#666666">[varchar(255)]</text>
<polygon fill="none" stroke="#000000" points="993,-402.5 993,-432.5 1286,-432.5 1286,-402.5 993,-402.5"/>
<text text-anchor="start" x="1000" y="-413.9" font-family="Arial" font-size="14.00" fill="#000000">password    </text>
<text text-anchor="start" x="1094.1024" y="-413.9" font-family="Arial" font-size="14.00" fill="#666666">[varchar(255)]</text>
<polygon fill="none" stroke="#000000" points="993,-372.5 993,-402.5 1286,-402.5 1286,-372.5 993,-372.5"/>
<text text-anchor="start" x="1000" y="-383.9" font-family="Arial" font-size="14.00" fill="#000000">email    </text>
<text text-anchor="start" x="1067.6438" y="-383.9" font-family="Arial" font-size="14.00" fill="#666666">[varchar(255)]</text>
<polygon fill="none" stroke="#000000" points="993,-342.5 993,-372.5 1286,-372.5 1286,-342.5 993,-342.5"/>
<text text-anchor="start" x="1000" y="-353.9" font-family="Arial" font-size="14.00" fill="#000000">name    </text>
<text text-anchor="start" x="1069.2132" y="-353.9" font-family="Arial" font-size="14.00" fill="#666666">[varchar(255)]</text>
<polygon fill="none" stroke="#000000" points="993,-312.5 993,-342.5 1286,-342.5 1286,-312.5 993,-312.5"/>
<text text-anchor="start" x="1000" y="-323.9" font-family="Arial" font-size="14.00" fill="#000000">first_name    </text>
<text text-anchor="start" x="1099.5442" y="-323.9" font-family="Arial" font-size="14.00" fill="#666666">[varchar(255)]</text>
<polygon fill="none" stroke="#000000" points="993,-282.5 993,-312.5 1286,-312.5 1286,-282.5 993,-282.5"/>
<text text-anchor="start" x="1000" y="-293.9" font-family="Arial" font-size="14.00" fill="#000000">last_name    </text>
<text text-anchor="start" x="1098.7756" y="-293.9" font-family="Arial" font-size="14.00" fill="#666666">[varchar(255)]</text>
<polygon fill="none" stroke="#000000" points="993,-252.5 993,-282.5 1286,-282.5 1286,-252.5 993,-252.5"/>
<text text-anchor="start" x="1000" y="-263.9" font-family="Arial" font-size="14.00" fill="#000000">attend_status_id    </text>
<text text-anchor="start" x="1136.9172" y="-263.9" font-family="Arial" font-size="14.00" fill="#666666">[uuid]</text>
<polygon fill="none" stroke="#000000" points="993,-222.5 993,-252.5 1286,-252.5 1286,-222.5 993,-222.5"/>
<text text-anchor="start" x="1000" y="-233.9" font-family="Arial" font-size="14.00" fill="#000000">profile_image_id    </text>
<text text-anchor="start" x="1136.8864" y="-233.9" font-family="Arial" font-size="14.00" fill="#666666">[uuid]</text>
<polygon fill="none" stroke="#000000" points="993,-192.5 993,-222.5 1286,-222.5 1286,-192.5 993,-192.5"/>
<text text-anchor="start" x="1000" y="-203.9" font-family="Arial" font-size="14.00" fill="#000000">grade_id    </text>
<text text-anchor="start" x="1088.6676" y="-203.9" font-family="Arial" font-size="14.00" fill="#666666">[uuid]</text>
<polygon fill="none" stroke="#000000" points="993,-162.5 993,-192.5 1286,-192.5 1286,-162.5 993,-162.5"/>
<text text-anchor="start" x="1000" y="-173.9" font-family="Arial" font-size="14.00" fill="#000000">group_id    </text>
<text text-anchor="start" x="1088.6676" y="-173.9" font-family="Arial" font-size="14.00" fill="#666666">[uuid]</text>
<polygon fill="none" stroke="#000000" points="993,-132.5 993,-162.5 1286,-162.5 1286,-132.5 993,-132.5"/>
<text text-anchor="start" x="1000" y="-143.9" font-family="Arial" font-size="14.00" fill="#000000">personal_organization_id    </text>
<text text-anchor="start" x="1190.582" y="-143.9" font-family="Arial" font-size="14.00" fill="#666666">[uuid]</text>
<polygon fill="none" stroke="#000000" points="993,-102.5 993,-132.5 1286,-132.5 1286,-102.5 993,-102.5"/>
<text text-anchor="start" x="1000" y="-113.9" font-family="Arial" font-size="14.00" fill="#000000">role_id    </text>
<text text-anchor="start" x="1076.209" y="-113.9" font-family="Arial" font-size="14.00" fill="#666666">[uuid]</text>
<polygon fill="none" stroke="#000000" points="993,-72.5 993,-102.5 1286,-102.5 1286,-72.5 993,-72.5"/>
<text text-anchor="start" x="1000" y="-83.9" font-family="Arial" font-size="14.00" fill="#000000">created_at    </text>
<text text-anchor="start" x="1100.3422" y="-83.9" font-family="Arial" font-size="14.00" fill="#666666">[timestamp with time zone]</text>
<polygon fill="none" stroke="#000000" points="993,-42.5 993,-72.5 1286,-72.5 1286,-42.5 993,-42.5"/>
<text text-anchor="start" x="1000" y="-53.9" font-family="Arial" font-size="14.00" fill="#000000">updated_at    </text>
<text text-anchor="start" x="1104.2468" y="-53.9" font-family="Arial" font-size="14.00" fill="#666666">[timestamp with time zone]</text>
</g>
<!-- public.t_chat_room_delete_message_actions&#45;&gt;public.m_members -->
<g id="edge2" class="edge">
<title>public.t_chat_room_delete_message_actions:deleted_by&#45;&gt;public.m_members:member_id</title>
<path fill="none" stroke="#000000" d="M1185.0279,-694.8144C1198.6433,-685.5489 1189.4022,-654.53 1175,-637 1122.6564,-573.2885 1045.3436,-664.7115 993,-601 958.1562,-558.5889 938.1111,-477.5 993,-477.5"/>
<polygon fill="#000000" stroke="#000000" points="1184.6596,-694.9129 1173.8358,-693.1532 1179.8298,-696.2065 1175,-697.5 1175,-697.5 1175,-697.5 1179.8298,-696.2065 1176.1642,-701.8468 1184.6596,-694.9129 1184.6596,-694.9129"/>
<text text-anchor="start" x="1181.766" y="-707.5" font-family="Arial" font-size="10.00" fill="#000000">FOREIGN KEY (deleted_by) REFERENCES m_members(member_id) ON UPDATE SET NULL ON DELETE SET NULL</text>
</g>
</g>
</svg>
