<?xml version="1.0" encoding="UTF-8" standalone="no"?>
<!DOCTYPE svg PUBLIC "-//W3C//DTD SVG 1.1//EN"
 "http://www.w3.org/Graphics/SVG/1.1/DTD/svg11.dtd">
<!-- Generated by graphviz version 2.40.1 (20161225.0304)
 -->
<!-- Title: public.t_early_leavings Pages: 1 -->
<svg width="964pt" height="712pt"
 viewBox="0.00 0.00 963.50 712.00" xmlns="http://www.w3.org/2000/svg" xmlns:xlink="http://www.w3.org/1999/xlink">
<g id="graph0" class="graph" transform="scale(1 1) rotate(0) translate(4 708)">
<title>public.t_early_leavings</title>
<polygon fill="#ffffff" stroke="transparent" points="-4,4 -4,-708 959.5,-708 959.5,4 -4,4"/>
<!-- public.t_early_leavings -->
<g id="node1" class="node">
<title>public.t_early_leavings</title>
<polygon fill="#efefef" stroke="transparent" points="46.5,-622.5 46.5,-657.5 369.5,-657.5 369.5,-622.5 46.5,-622.5"/>
<polygon fill="none" stroke="#000000" points="46.5,-622.5 46.5,-657.5 369.5,-657.5 369.5,-622.5 46.5,-622.5"/>
<text text-anchor="start" x="53.1981" y="-635.3" font-family="Arial Bold" font-size="18.00" fill="#000000">public.t_early_leavings</text>
<text text-anchor="start" x="235.2339" y="-635.3" font-family="Arial" font-size="14.00" fill="#000000">    </text>
<text text-anchor="start" x="269.4387" y="-635.3" font-family="Arial" font-size="14.00" fill="#666666">[BASE TABLE]</text>
<polygon fill="none" stroke="#000000" points="46.5,-592.5 46.5,-622.5 369.5,-622.5 369.5,-592.5 46.5,-592.5"/>
<text text-anchor="start" x="53.5" y="-603.9" font-family="Arial" font-size="14.00" fill="#000000">t_early_leavings_pkey </text>
<text text-anchor="start" x="195.8702" y="-603.9" font-family="Arial" font-size="14.00" fill="#666666">[bigint]</text>
<polygon fill="none" stroke="#000000" points="46.5,-562.5 46.5,-592.5 369.5,-592.5 369.5,-562.5 46.5,-562.5"/>
<text text-anchor="start" x="53.5" y="-573.9" font-family="Arial" font-size="14.00" fill="#000000">early_leaving_id </text>
<text text-anchor="start" x="158.521" y="-573.9" font-family="Arial" font-size="14.00" fill="#666666">[uuid]</text>
<polygon fill="none" stroke="#000000" points="46.5,-532.5 46.5,-562.5 369.5,-562.5 369.5,-532.5 46.5,-532.5"/>
<text text-anchor="start" x="53.5" y="-543.9" font-family="Arial" font-size="14.00" fill="#000000">attendance_id </text>
<text text-anchor="start" x="145.3218" y="-543.9" font-family="Arial" font-size="14.00" fill="#666666">[uuid]</text>
<polygon fill="none" stroke="#000000" points="46.5,-502.5 46.5,-532.5 369.5,-532.5 369.5,-502.5 46.5,-502.5"/>
<text text-anchor="start" x="53.5" y="-513.9" font-family="Arial" font-size="14.00" fill="#000000">leave_time </text>
<text text-anchor="start" x="125.068" y="-513.9" font-family="Arial" font-size="14.00" fill="#666666">[timestamp with time zone]</text>
<polygon fill="none" stroke="#000000" stroke-width="3" points="44.5,-501.5 44.5,-659.5 370.5,-659.5 370.5,-501.5 44.5,-501.5"/>
</g>
<!-- public.t_attendances -->
<g id="node2" class="node">
<title>public.t_attendances</title>
<polygon fill="#efefef" stroke="transparent" points="55.5,-342.5 55.5,-377.5 361.5,-377.5 361.5,-342.5 55.5,-342.5"/>
<polygon fill="none" stroke="#000000" points="55.5,-342.5 55.5,-377.5 361.5,-377.5 361.5,-342.5 55.5,-342.5"/>
<text text-anchor="start" x="62.1833" y="-355.3" font-family="Arial Bold" font-size="18.00" fill="#000000">public.t_attendances</text>
<text text-anchor="start" x="227.2487" y="-355.3" font-family="Arial" font-size="14.00" fill="#000000">    </text>
<text text-anchor="start" x="261.4535" y="-355.3" font-family="Arial" font-size="14.00" fill="#666666">[BASE TABLE]</text>
<polygon fill="none" stroke="#000000" points="55.5,-312.5 55.5,-342.5 361.5,-342.5 361.5,-312.5 55.5,-312.5"/>
<text text-anchor="start" x="62.5" y="-323.9" font-family="Arial" font-size="14.00" fill="#000000">t_attendances_pkey    </text>
<text text-anchor="start" x="221.9852" y="-323.9" font-family="Arial" font-size="14.00" fill="#666666">[bigint]</text>
<polygon fill="none" stroke="#000000" points="55.5,-282.5 55.5,-312.5 361.5,-312.5 361.5,-282.5 55.5,-282.5"/>
<text text-anchor="start" x="62.5" y="-293.9" font-family="Arial" font-size="14.00" fill="#000000">attendance_id    </text>
<text text-anchor="start" x="184.636" y="-293.9" font-family="Arial" font-size="14.00" fill="#666666">[uuid]</text>
<polygon fill="none" stroke="#000000" points="55.5,-252.5 55.5,-282.5 361.5,-282.5 361.5,-252.5 55.5,-252.5"/>
<text text-anchor="start" x="62.5" y="-263.9" font-family="Arial" font-size="14.00" fill="#000000">attendance_type_id    </text>
<text text-anchor="start" x="218.8744" y="-263.9" font-family="Arial" font-size="14.00" fill="#666666">[uuid]</text>
<polygon fill="none" stroke="#000000" points="55.5,-222.5 55.5,-252.5 361.5,-252.5 361.5,-222.5 55.5,-222.5"/>
<text text-anchor="start" x="62.5" y="-233.9" font-family="Arial" font-size="14.00" fill="#000000">member_id    </text>
<text text-anchor="start" x="166.7062" y="-233.9" font-family="Arial" font-size="14.00" fill="#666666">[uuid]</text>
<polygon fill="none" stroke="#000000" points="55.5,-192.5 55.5,-222.5 361.5,-222.5 361.5,-192.5 55.5,-192.5"/>
<text text-anchor="start" x="62.5" y="-203.9" font-family="Arial" font-size="14.00" fill="#000000">description    </text>
<text text-anchor="start" x="164.3822" y="-203.9" font-family="Arial" font-size="14.00" fill="#666666">[text]</text>
<polygon fill="none" stroke="#000000" points="55.5,-162.5 55.5,-192.5 361.5,-192.5 361.5,-162.5 55.5,-162.5"/>
<text text-anchor="start" x="62.5" y="-173.9" font-family="Arial" font-size="14.00" fill="#000000">date    </text>
<text text-anchor="start" x="123.9432" y="-173.9" font-family="Arial" font-size="14.00" fill="#666666">[date]</text>
<polygon fill="none" stroke="#000000" points="55.5,-132.5 55.5,-162.5 361.5,-162.5 361.5,-132.5 55.5,-132.5"/>
<text text-anchor="start" x="62.5" y="-143.9" font-family="Arial" font-size="14.00" fill="#000000">mail_send_flag    </text>
<text text-anchor="start" x="190.8366" y="-143.9" font-family="Arial" font-size="14.00" fill="#666666">[boolean]</text>
<polygon fill="none" stroke="#000000" points="55.5,-102.5 55.5,-132.5 361.5,-132.5 361.5,-102.5 55.5,-102.5"/>
<text text-anchor="start" x="62.5" y="-113.9" font-family="Arial" font-size="14.00" fill="#000000">send_organization_id    </text>
<text text-anchor="start" x="229.7496" y="-113.9" font-family="Arial" font-size="14.00" fill="#666666">[uuid]</text>
<polygon fill="none" stroke="#000000" points="55.5,-72.5 55.5,-102.5 361.5,-102.5 361.5,-72.5 55.5,-72.5"/>
<text text-anchor="start" x="62.5" y="-83.9" font-family="Arial" font-size="14.00" fill="#000000">posted_at    </text>
<text text-anchor="start" x="158.1816" y="-83.9" font-family="Arial" font-size="14.00" fill="#666666">[timestamp with time zone]</text>
<polygon fill="none" stroke="#000000" points="55.5,-42.5 55.5,-72.5 361.5,-72.5 361.5,-42.5 55.5,-42.5"/>
<text text-anchor="start" x="62.5" y="-53.9" font-family="Arial" font-size="14.00" fill="#000000">last_edited_at    </text>
<text text-anchor="start" x="183.8506" y="-53.9" font-family="Arial" font-size="14.00" fill="#666666">[timestamp with time zone]</text>
</g>
<!-- public.t_early_leavings&#45;&gt;public.t_attendances -->
<g id="edge1" class="edge">
<title>public.t_early_leavings:attendance_id&#45;&gt;public.t_attendances:attendance_id</title>
<path fill="none" stroke="#000000" d="M379.4306,-545.9802C407.0833,-536.4273 393.7627,-484.2034 369.5,-457 276.0007,-352.1685 148.9993,-525.8315 55.5,-421 18.9649,-380.0369 .6111,-297.5 55.5,-297.5"/>
<polygon fill="#000000" stroke="#000000" points="379.3849,-545.9871 368.8192,-543.0518 374.4425,-546.7435 369.5,-547.5 369.5,-547.5 369.5,-547.5 374.4425,-546.7435 370.1808,-551.9482 379.3849,-545.9871 379.3849,-545.9871"/>
<text text-anchor="start" x="376.0755" y="-557.5" font-family="Arial" font-size="10.00" fill="#000000">FOREIGN KEY (attendance_id) REFERENCES t_attendances(attendance_id) ON UPDATE RESTRICT ON DELETE RESTRICT</text>
</g>
</g>
</svg>
