<?xml version="1.0" encoding="UTF-8" standalone="no"?>
<!DOCTYPE svg PUBLIC "-//W3C//DTD SVG 1.1//EN"
 "http://www.w3.org/Graphics/SVG/1.1/DTD/svg11.dtd">
<!-- Generated by graphviz version 2.40.1 (20161225.0304)
 -->
<!-- Title: public.t_chat_room_actions Pages: 1 -->
<svg width="3757pt" height="1079pt"
 viewBox="0.00 0.00 3757.00 1079.00" xmlns="http://www.w3.org/2000/svg" xmlns:xlink="http://www.w3.org/1999/xlink">
<g id="graph0" class="graph" transform="scale(1 1) rotate(0) translate(4 1075)">
<title>public.t_chat_room_actions</title>
<polygon fill="#ffffff" stroke="transparent" points="-4,4 -4,-1075 3753,-1075 3753,4 -4,4"/>
<!-- public.t_chat_room_actions -->
<g id="node1" class="node">
<title>public.t_chat_room_actions</title>
<polygon fill="#efefef" stroke="transparent" points="1652,-622.5 1652,-657.5 2012,-657.5 2012,-622.5 1652,-622.5"/>
<polygon fill="none" stroke="#000000" points="1652,-622.5 1652,-657.5 2012,-657.5 2012,-622.5 1652,-622.5"/>
<text text-anchor="start" x="1658.6878" y="-635.3" font-family="Arial Bold" font-size="18.00" fill="#000000">public.t_chat_room_actions</text>
<text text-anchor="start" x="1877.7442" y="-635.3" font-family="Arial" font-size="14.00" fill="#000000">    </text>
<text text-anchor="start" x="1911.949" y="-635.3" font-family="Arial" font-size="14.00" fill="#666666">[BASE TABLE]</text>
<polygon fill="none" stroke="#000000" points="1652,-592.5 1652,-622.5 2012,-622.5 2012,-592.5 1652,-592.5"/>
<text text-anchor="start" x="1659" y="-603.9" font-family="Arial" font-size="14.00" fill="#000000">t_chat_room_actions_pkey </text>
<text text-anchor="start" x="1830.164" y="-603.9" font-family="Arial" font-size="14.00" fill="#666666">[bigint]</text>
<polygon fill="none" stroke="#000000" points="1652,-562.5 1652,-592.5 2012,-592.5 2012,-562.5 1652,-562.5"/>
<text text-anchor="start" x="1659" y="-573.9" font-family="Arial" font-size="14.00" fill="#000000">chat_room_action_id </text>
<text text-anchor="start" x="1792.8148" y="-573.9" font-family="Arial" font-size="14.00" fill="#666666">[uuid]</text>
<polygon fill="none" stroke="#000000" points="1652,-532.5 1652,-562.5 2012,-562.5 2012,-532.5 1652,-532.5"/>
<text text-anchor="start" x="1659" y="-543.9" font-family="Arial" font-size="14.00" fill="#000000">chat_room_id </text>
<text text-anchor="start" x="1747.6872" y="-543.9" font-family="Arial" font-size="14.00" fill="#666666">[uuid]</text>
<polygon fill="none" stroke="#000000" points="1652,-502.5 1652,-532.5 2012,-532.5 2012,-502.5 1652,-502.5"/>
<text text-anchor="start" x="1659" y="-513.9" font-family="Arial" font-size="14.00" fill="#000000">chat_room_action_type_id </text>
<text text-anchor="start" x="1827.0532" y="-513.9" font-family="Arial" font-size="14.00" fill="#666666">[uuid]</text>
<polygon fill="none" stroke="#000000" points="1652,-472.5 1652,-502.5 2012,-502.5 2012,-472.5 1652,-472.5"/>
<text text-anchor="start" x="1659" y="-483.9" font-family="Arial" font-size="14.00" fill="#000000">acted_at </text>
<text text-anchor="start" x="1716.5848" y="-483.9" font-family="Arial" font-size="14.00" fill="#666666">[timestamp with time zone]</text>
<polygon fill="none" stroke="#000000" stroke-width="3" points="1650.5,-471.5 1650.5,-659.5 2013.5,-659.5 2013.5,-471.5 1650.5,-471.5"/>
</g>
<!-- public.m_chat_rooms -->
<g id="node8" class="node">
<title>public.m_chat_rooms</title>
<polygon fill="#efefef" stroke="transparent" points="1443,-312.5 1443,-347.5 1755,-347.5 1755,-312.5 1443,-312.5"/>
<polygon fill="none" stroke="#000000" points="1443,-312.5 1443,-347.5 1755,-347.5 1755,-312.5 1443,-312.5"/>
<text text-anchor="start" x="1449.7034" y="-325.3" font-family="Arial Bold" font-size="18.00" fill="#000000">public.m_chat_rooms</text>
<text text-anchor="start" x="1620.7286" y="-325.3" font-family="Arial" font-size="14.00" fill="#000000">    </text>
<text text-anchor="start" x="1654.9334" y="-325.3" font-family="Arial" font-size="14.00" fill="#666666">[BASE TABLE]</text>
<polygon fill="none" stroke="#000000" points="1443,-282.5 1443,-312.5 1755,-312.5 1755,-282.5 1443,-282.5"/>
<text text-anchor="start" x="1450" y="-293.9" font-family="Arial" font-size="14.00" fill="#000000">m_chat_rooms_pkey    </text>
<text text-anchor="start" x="1614.1206" y="-293.9" font-family="Arial" font-size="14.00" fill="#666666">[bigint]</text>
<polygon fill="none" stroke="#000000" points="1443,-252.5 1443,-282.5 1755,-282.5 1755,-252.5 1443,-252.5"/>
<text text-anchor="start" x="1450" y="-263.9" font-family="Arial" font-size="14.00" fill="#000000">chat_room_id    </text>
<text text-anchor="start" x="1569.0014" y="-263.9" font-family="Arial" font-size="14.00" fill="#666666">[uuid]</text>
<polygon fill="none" stroke="#000000" points="1443,-222.5 1443,-252.5 1755,-252.5 1755,-222.5 1443,-222.5"/>
<text text-anchor="start" x="1450" y="-233.9" font-family="Arial" font-size="14.00" fill="#000000">name    </text>
<text text-anchor="start" x="1519.2132" y="-233.9" font-family="Arial" font-size="14.00" fill="#666666">[varchar(255)]</text>
<polygon fill="none" stroke="#000000" points="1443,-192.5 1443,-222.5 1755,-222.5 1755,-192.5 1443,-192.5"/>
<text text-anchor="start" x="1450" y="-203.9" font-family="Arial" font-size="14.00" fill="#000000">is_private    </text>
<text text-anchor="start" x="1544.0996" y="-203.9" font-family="Arial" font-size="14.00" fill="#666666">[boolean]</text>
<polygon fill="none" stroke="#000000" points="1443,-162.5 1443,-192.5 1755,-192.5 1755,-162.5 1443,-162.5"/>
<text text-anchor="start" x="1450" y="-173.9" font-family="Arial" font-size="14.00" fill="#000000">cover_image_id    </text>
<text text-anchor="start" x="1583" y="-173.9" font-family="Arial" font-size="14.00" fill="#666666">[uuid]</text>
<polygon fill="none" stroke="#000000" points="1443,-132.5 1443,-162.5 1755,-162.5 1755,-132.5 1443,-132.5"/>
<text text-anchor="start" x="1450" y="-143.9" font-family="Arial" font-size="14.00" fill="#000000">owner_id    </text>
<text text-anchor="start" x="1540.9916" y="-143.9" font-family="Arial" font-size="14.00" fill="#666666">[uuid]</text>
<polygon fill="none" stroke="#000000" points="1443,-102.5 1443,-132.5 1755,-132.5 1755,-102.5 1443,-102.5"/>
<text text-anchor="start" x="1450" y="-113.9" font-family="Arial" font-size="14.00" fill="#000000">from_organization    </text>
<text text-anchor="start" x="1596.2244" y="-113.9" font-family="Arial" font-size="14.00" fill="#666666">[boolean]</text>
<polygon fill="none" stroke="#000000" points="1443,-72.5 1443,-102.5 1755,-102.5 1755,-72.5 1443,-72.5"/>
<text text-anchor="start" x="1450" y="-83.9" font-family="Arial" font-size="14.00" fill="#000000">created_at    </text>
<text text-anchor="start" x="1550.3422" y="-83.9" font-family="Arial" font-size="14.00" fill="#666666">[timestamp with time zone]</text>
<polygon fill="none" stroke="#000000" points="1443,-42.5 1443,-72.5 1755,-72.5 1755,-42.5 1443,-42.5"/>
<text text-anchor="start" x="1450" y="-53.9" font-family="Arial" font-size="14.00" fill="#000000">updated_at    </text>
<text text-anchor="start" x="1554.2468" y="-53.9" font-family="Arial" font-size="14.00" fill="#666666">[timestamp with time zone]</text>
</g>
<!-- public.t_chat_room_actions&#45;&gt;public.m_chat_rooms -->
<g id="edge7" class="edge">
<title>public.t_chat_room_actions:chat_room_id&#45;&gt;public.m_chat_rooms:chat_room_id</title>
<path fill="none" stroke="#000000" d="M1641.8085,-546.3988C1601.6582,-536.86 1623.1808,-467.6016 1652,-427 1680.0688,-387.4557 1726.9312,-430.5443 1755,-391 1786.7706,-346.2404 1809.8889,-267.5 1755,-267.5"/>
<polygon fill="#000000" stroke="#000000" points="1642.0579,-546.4256 1651.5165,-551.974 1647.0289,-546.9628 1652,-547.5 1652,-547.5 1652,-547.5 1647.0289,-546.9628 1652.4835,-543.026 1642.0579,-546.4256 1642.0579,-546.4256"/>
<text text-anchor="start" x="1076.818" y="-557.5" font-family="Arial" font-size="10.00" fill="#000000">FOREIGN KEY (chat_room_id) REFERENCES m_chat_rooms(chat_room_id) ON UPDATE CASCADE ON DELETE CASCADE</text>
</g>
<!-- public.m_chat_room_action_types -->
<g id="node9" class="node">
<title>public.m_chat_room_action_types</title>
<polygon fill="#efefef" stroke="transparent" points="1859,-237.5 1859,-272.5 2273,-272.5 2273,-237.5 1859,-237.5"/>
<polygon fill="none" stroke="#000000" points="1859,-237.5 1859,-272.5 2273,-272.5 2273,-237.5 1859,-237.5"/>
<text text-anchor="start" x="1865.6824" y="-250.3" font-family="Arial Bold" font-size="18.00" fill="#000000">public.m_chat_room_action_types</text>
<text text-anchor="start" x="2138.7496" y="-250.3" font-family="Arial" font-size="14.00" fill="#000000">    </text>
<text text-anchor="start" x="2172.9544" y="-250.3" font-family="Arial" font-size="14.00" fill="#666666">[BASE TABLE]</text>
<polygon fill="none" stroke="#000000" points="1859,-207.5 1859,-237.5 2273,-237.5 2273,-207.5 1859,-207.5"/>
<text text-anchor="start" x="1866" y="-218.9" font-family="Arial" font-size="14.00" fill="#000000">m_chat_room_action_types_pkey    </text>
<text text-anchor="start" x="2109.4866" y="-218.9" font-family="Arial" font-size="14.00" fill="#666666">[bigint]</text>
<polygon fill="none" stroke="#000000" points="1859,-177.5 1859,-207.5 2273,-207.5 2273,-177.5 1859,-177.5"/>
<text text-anchor="start" x="1866" y="-188.9" font-family="Arial" font-size="14.00" fill="#000000">chat_room_action_type_id    </text>
<text text-anchor="start" x="2064.3674" y="-188.9" font-family="Arial" font-size="14.00" fill="#666666">[uuid]</text>
<polygon fill="none" stroke="#000000" points="1859,-147.5 1859,-177.5 2273,-177.5 2273,-147.5 1859,-147.5"/>
<text text-anchor="start" x="1866" y="-158.9" font-family="Arial" font-size="14.00" fill="#000000">name    </text>
<text text-anchor="start" x="1935.2132" y="-158.9" font-family="Arial" font-size="14.00" fill="#666666">[varchar(255)]</text>
<polygon fill="none" stroke="#000000" points="1859,-117.5 1859,-147.5 2273,-147.5 2273,-117.5 1859,-117.5"/>
<text text-anchor="start" x="1866" y="-128.9" font-family="Arial" font-size="14.00" fill="#000000">key    </text>
<text text-anchor="start" x="1921.9874" y="-128.9" font-family="Arial" font-size="14.00" fill="#666666">[varchar(255)]</text>
</g>
<!-- public.t_chat_room_actions&#45;&gt;public.m_chat_room_action_types -->
<g id="edge8" class="edge">
<title>public.t_chat_room_actions:chat_room_action_type_id&#45;&gt;public.m_chat_room_action_types:chat_room_action_type_id</title>
<path fill="none" stroke="#000000" d="M2022.0664,-516.0044C2047.9703,-507.0023 2028.4884,-459.3328 2012,-427 1973.8342,-352.1592 1897.1658,-390.8408 1859,-316 1834.0641,-267.1022 1804.1111,-192.5 1859,-192.5"/>
<polygon fill="#000000" stroke="#000000" points="2021.8914,-516.0303 2011.3386,-513.0489 2016.9457,-516.7652 2012,-517.5 2012,-517.5 2012,-517.5 2016.9457,-516.7652 2012.6614,-521.9511 2021.8914,-516.0303 2021.8914,-516.0303"/>
<text text-anchor="start" x="2019.124" y="-527.5" font-family="Arial" font-size="10.00" fill="#000000">FOREIGN KEY (chat_room_action_type_id) REFERENCES m_chat_room_action_types(chat_room_action_type_id) ON UPDATE RESTRICT ON DELETE RESTRICT</text>
</g>
<!-- public.t_messages -->
<g id="node2" class="node">
<title>public.t_messages</title>
<polygon fill="#efefef" stroke="transparent" points="372,-992.5 372,-1027.5 673,-1027.5 673,-992.5 372,-992.5"/>
<polygon fill="none" stroke="#000000" points="372,-992.5 372,-1027.5 673,-1027.5 673,-992.5 372,-992.5"/>
<text text-anchor="start" x="384.1987" y="-1005.3" font-family="Arial Bold" font-size="18.00" fill="#000000">public.t_messages</text>
<text text-anchor="start" x="533.2333" y="-1005.3" font-family="Arial" font-size="14.00" fill="#000000">    </text>
<text text-anchor="start" x="567.4381" y="-1005.3" font-family="Arial" font-size="14.00" fill="#666666">[BASE TABLE]</text>
<polygon fill="none" stroke="#000000" points="372,-962.5 372,-992.5 673,-992.5 673,-962.5 372,-962.5"/>
<text text-anchor="start" x="379" y="-973.9" font-family="Arial" font-size="14.00" fill="#000000">t_messages_pkey    </text>
<text text-anchor="start" x="526.0168" y="-973.9" font-family="Arial" font-size="14.00" fill="#666666">[bigint]</text>
<polygon fill="none" stroke="#000000" points="372,-932.5 372,-962.5 673,-962.5 673,-932.5 372,-932.5"/>
<text text-anchor="start" x="379" y="-943.9" font-family="Arial" font-size="14.00" fill="#000000">message_id    </text>
<text text-anchor="start" x="488.6676" y="-943.9" font-family="Arial" font-size="14.00" fill="#666666">[uuid]</text>
<polygon fill="none" stroke="#000000" points="372,-902.5 372,-932.5 673,-932.5 673,-902.5 372,-902.5"/>
<text text-anchor="start" x="379" y="-913.9" font-family="Arial" font-size="14.00" fill="#000000">sender_id    </text>
<text text-anchor="start" x="474.6676" y="-913.9" font-family="Arial" font-size="14.00" fill="#666666">[uuid]</text>
<polygon fill="none" stroke="#000000" points="372,-872.5 372,-902.5 673,-902.5 673,-872.5 372,-872.5"/>
<text text-anchor="start" x="379" y="-883.9" font-family="Arial" font-size="14.00" fill="#000000">body    </text>
<text text-anchor="start" x="443.5526" y="-883.9" font-family="Arial" font-size="14.00" fill="#666666">[text]</text>
<polygon fill="none" stroke="#000000" points="372,-842.5 372,-872.5 673,-872.5 673,-842.5 372,-842.5"/>
<text text-anchor="start" x="379" y="-853.9" font-family="Arial" font-size="14.00" fill="#000000">posted_at    </text>
<text text-anchor="start" x="474.6816" y="-853.9" font-family="Arial" font-size="14.00" fill="#666666">[timestamp with time zone]</text>
<polygon fill="none" stroke="#000000" points="372,-812.5 372,-842.5 673,-842.5 673,-812.5 372,-812.5"/>
<text text-anchor="start" x="378.9825" y="-823.9" font-family="Arial" font-size="14.00" fill="#000000">last_edited_at    </text>
<text text-anchor="start" x="500.3331" y="-823.9" font-family="Arial" font-size="14.00" fill="#666666">[timestamp with time zone]</text>
<polygon fill="none" stroke="#000000" points="372,-782.5 372,-812.5 673,-812.5 673,-782.5 372,-782.5"/>
<text text-anchor="start" x="379" y="-793.9" font-family="Arial" font-size="14.00" fill="#000000">chat_room_action_id    </text>
<text text-anchor="start" x="543.129" y="-793.9" font-family="Arial" font-size="14.00" fill="#666666">[uuid]</text>
</g>
<!-- public.t_messages&#45;&gt;public.t_chat_room_actions -->
<g id="edge1" class="edge">
<title>public.t_messages:chat_room_action_id&#45;&gt;public.t_chat_room_actions:chat_room_action_id</title>
<path fill="none" stroke="#000000" d="M683.028,-796.0222C705.1461,-788.5568 698.2545,-754.7698 725,-740 908.0796,-638.8967 1442.8589,-577.5 1652,-577.5"/>
<polygon fill="#000000" stroke="#000000" points="682.8931,-796.0419 672.3439,-793.0481 677.9466,-796.771 673,-797.5 673,-797.5 673,-797.5 677.9466,-796.771 673.6561,-801.9519 682.8931,-796.0419 682.8931,-796.0419"/>
<text text-anchor="start" x="7.242" y="-807.5" font-family="Arial" font-size="10.00" fill="#000000">FOREIGN KEY (chat_room_action_id) REFERENCES t_chat_room_actions(chat_room_action_id) ON UPDATE CASCADE ON DELETE CASCADE</text>
</g>
<!-- public.t_chat_room_create_actions -->
<g id="node3" class="node">
<title>public.t_chat_room_create_actions</title>
<polygon fill="#efefef" stroke="transparent" points="777,-962.5 777,-997.5 1197,-997.5 1197,-962.5 777,-962.5"/>
<polygon fill="none" stroke="#000000" points="777,-962.5 777,-997.5 1197,-997.5 1197,-962.5 777,-962.5"/>
<text text-anchor="start" x="783.6782" y="-975.3" font-family="Arial Bold" font-size="18.00" fill="#000000">public.t_chat_room_create_actions</text>
<text text-anchor="start" x="1062.7538" y="-975.3" font-family="Arial" font-size="14.00" fill="#000000">    </text>
<text text-anchor="start" x="1096.9586" y="-975.3" font-family="Arial" font-size="14.00" fill="#666666">[BASE TABLE]</text>
<polygon fill="none" stroke="#000000" points="777,-932.5 777,-962.5 1197,-962.5 1197,-932.5 777,-932.5"/>
<text text-anchor="start" x="784" y="-943.9" font-family="Arial" font-size="14.00" fill="#000000">t_chat_room_create_actions_pkey    </text>
<text text-anchor="start" x="1032.1598" y="-943.9" font-family="Arial" font-size="14.00" fill="#666666">[bigint]</text>
<polygon fill="none" stroke="#000000" points="777,-902.5 777,-932.5 1197,-932.5 1197,-902.5 777,-902.5"/>
<text text-anchor="start" x="784" y="-913.9" font-family="Arial" font-size="14.00" fill="#000000">chat_room_create_action_id    </text>
<text text-anchor="start" x="994.8106" y="-913.9" font-family="Arial" font-size="14.00" fill="#666666">[uuid]</text>
<polygon fill="none" stroke="#000000" points="777,-872.5 777,-902.5 1197,-902.5 1197,-872.5 777,-872.5"/>
<text text-anchor="start" x="784" y="-883.9" font-family="Arial" font-size="14.00" fill="#000000">chat_room_action_id    </text>
<text text-anchor="start" x="948.129" y="-883.9" font-family="Arial" font-size="14.00" fill="#666666">[uuid]</text>
<polygon fill="none" stroke="#000000" points="777,-842.5 777,-872.5 1197,-872.5 1197,-842.5 777,-842.5"/>
<text text-anchor="start" x="784" y="-853.9" font-family="Arial" font-size="14.00" fill="#000000">created_by    </text>
<text text-anchor="start" x="887.4516" y="-853.9" font-family="Arial" font-size="14.00" fill="#666666">[uuid]</text>
<polygon fill="none" stroke="#000000" points="777,-812.5 777,-842.5 1197,-842.5 1197,-812.5 777,-812.5"/>
<text text-anchor="start" x="784" y="-823.9" font-family="Arial" font-size="14.00" fill="#000000">name    </text>
<text text-anchor="start" x="853.2132" y="-823.9" font-family="Arial" font-size="14.00" fill="#666666">[varchar(255)]</text>
</g>
<!-- public.t_chat_room_create_actions&#45;&gt;public.t_chat_room_actions -->
<g id="edge2" class="edge">
<title>public.t_chat_room_create_actions:chat_room_action_id&#45;&gt;public.t_chat_room_actions:chat_room_action_id</title>
<path fill="none" stroke="#000000" d="M1207.2328,-886.6509C1259.6793,-877.0016 1203.5785,-787.4818 1249,-740 1382.498,-600.4467 1458.8761,-577.5 1652,-577.5"/>
<polygon fill="#000000" stroke="#000000" points="1206.9657,-886.6729 1196.6278,-883.0154 1201.9829,-887.0865 1197,-887.5 1197,-887.5 1197,-887.5 1201.9829,-887.0865 1197.3722,-891.9846 1206.9657,-886.6729 1206.9657,-886.6729"/>
<text text-anchor="start" x="867.742" y="-871.5" font-family="Arial" font-size="10.00" fill="#000000">FOREIGN KEY (chat_room_action_id) REFERENCES t_chat_room_actions(chat_room_action_id) ON UPDATE CASCADE ON DELETE CASCADE</text>
</g>
<!-- public.t_chat_room_update_name_actions -->
<g id="node4" class="node">
<title>public.t_chat_room_update_name_actions</title>
<polygon fill="#efefef" stroke="transparent" points="1301,-962.5 1301,-997.5 1781,-997.5 1781,-962.5 1301,-962.5"/>
<polygon fill="none" stroke="#000000" points="1301,-962.5 1301,-997.5 1781,-997.5 1781,-962.5 1301,-962.5"/>
<text text-anchor="start" x="1307.6596" y="-975.3" font-family="Arial Bold" font-size="18.00" fill="#000000">public.t_chat_room_update_name_actions</text>
<text text-anchor="start" x="1646.7724" y="-975.3" font-family="Arial" font-size="14.00" fill="#000000">    </text>
<text text-anchor="start" x="1680.9772" y="-975.3" font-family="Arial" font-size="14.00" fill="#666666">[BASE TABLE]</text>
<polygon fill="none" stroke="#000000" points="1301,-932.5 1301,-962.5 1781,-962.5 1781,-932.5 1301,-932.5"/>
<text text-anchor="start" x="1308" y="-943.9" font-family="Arial" font-size="14.00" fill="#000000">t_chat_room_update_name_actions_pkey    </text>
<text text-anchor="start" x="1602.8554" y="-943.9" font-family="Arial" font-size="14.00" fill="#666666">[bigint]</text>
<polygon fill="none" stroke="#000000" points="1301,-902.5 1301,-932.5 1781,-932.5 1781,-902.5 1301,-902.5"/>
<text text-anchor="start" x="1308" y="-913.9" font-family="Arial" font-size="14.00" fill="#000000">chat_room_update_name_action_id    </text>
<text text-anchor="start" x="1565.5062" y="-913.9" font-family="Arial" font-size="14.00" fill="#666666">[uuid]</text>
<polygon fill="none" stroke="#000000" points="1301,-872.5 1301,-902.5 1781,-902.5 1781,-872.5 1301,-872.5"/>
<text text-anchor="start" x="1308" y="-883.9" font-family="Arial" font-size="14.00" fill="#000000">chat_room_action_id    </text>
<text text-anchor="start" x="1472.129" y="-883.9" font-family="Arial" font-size="14.00" fill="#666666">[uuid]</text>
<polygon fill="none" stroke="#000000" points="1301,-842.5 1301,-872.5 1781,-872.5 1781,-842.5 1301,-842.5"/>
<text text-anchor="start" x="1308" y="-853.9" font-family="Arial" font-size="14.00" fill="#000000">updated_by    </text>
<text text-anchor="start" x="1415.3562" y="-853.9" font-family="Arial" font-size="14.00" fill="#666666">[uuid]</text>
<polygon fill="none" stroke="#000000" points="1301,-812.5 1301,-842.5 1781,-842.5 1781,-812.5 1301,-812.5"/>
<text text-anchor="start" x="1308" y="-823.9" font-family="Arial" font-size="14.00" fill="#000000">name    </text>
<text text-anchor="start" x="1377.2132" y="-823.9" font-family="Arial" font-size="14.00" fill="#666666">[varchar(255)]</text>
</g>
<!-- public.t_chat_room_update_name_actions&#45;&gt;public.t_chat_room_actions -->
<g id="edge3" class="edge">
<title>public.t_chat_room_update_name_actions:chat_room_action_id&#45;&gt;public.t_chat_room_actions:chat_room_action_id</title>
<path fill="none" stroke="#000000" d="M1791.3826,-886.3359C1829.5027,-876.8279 1806.2265,-811.2431 1781,-770 1747.3961,-715.0606 1685.6039,-758.9394 1652,-704 1622.664,-656.0382 1595.7778,-577.5 1652,-577.5"/>
<polygon fill="#000000" stroke="#000000" points="1790.9377,-886.3857 1780.4986,-883.028 1785.9689,-886.9428 1781,-887.5 1781,-887.5 1781,-887.5 1785.9689,-886.9428 1781.5014,-891.972 1790.9377,-886.3857 1790.9377,-886.3857"/>
<text text-anchor="start" x="1115.242" y="-897.5" font-family="Arial" font-size="10.00" fill="#000000">FOREIGN KEY (chat_room_action_id) REFERENCES t_chat_room_actions(chat_room_action_id) ON UPDATE CASCADE ON DELETE CASCADE</text>
</g>
<!-- public.t_chat_room_add_member_actions -->
<g id="node5" class="node">
<title>public.t_chat_room_add_member_actions</title>
<polygon fill="#efefef" stroke="transparent" points="1885,-947.5 1885,-982.5 2361,-982.5 2361,-947.5 1885,-947.5"/>
<polygon fill="none" stroke="#000000" points="1885,-947.5 1885,-982.5 2361,-982.5 2361,-947.5 1885,-947.5"/>
<text text-anchor="start" x="1891.6747" y="-960.3" font-family="Arial Bold" font-size="18.00" fill="#000000">public.t_chat_room_add_member_actions</text>
<text text-anchor="start" x="2226.7573" y="-960.3" font-family="Arial" font-size="14.00" fill="#000000">    </text>
<text text-anchor="start" x="2260.9621" y="-960.3" font-family="Arial" font-size="14.00" fill="#666666">[BASE TABLE]</text>
<polygon fill="none" stroke="#000000" points="1885,-917.5 1885,-947.5 2361,-947.5 2361,-917.5 1885,-917.5"/>
<text text-anchor="start" x="1892" y="-928.9" font-family="Arial" font-size="14.00" fill="#000000">t_chat_room_add_member_actions_pkey    </text>
<text text-anchor="start" x="2183.7208" y="-928.9" font-family="Arial" font-size="14.00" fill="#666666">[bigint]</text>
<polygon fill="none" stroke="#000000" points="1885,-887.5 1885,-917.5 2361,-917.5 2361,-887.5 1885,-887.5"/>
<text text-anchor="start" x="1892" y="-898.9" font-family="Arial" font-size="14.00" fill="#000000">chat_room_add_member_action_id    </text>
<text text-anchor="start" x="2146.3716" y="-898.9" font-family="Arial" font-size="14.00" fill="#666666">[uuid]</text>
<polygon fill="none" stroke="#000000" points="1885,-857.5 1885,-887.5 2361,-887.5 2361,-857.5 1885,-857.5"/>
<text text-anchor="start" x="1892" y="-868.9" font-family="Arial" font-size="14.00" fill="#000000">chat_room_action_id    </text>
<text text-anchor="start" x="2056.129" y="-868.9" font-family="Arial" font-size="14.00" fill="#666666">[uuid]</text>
<polygon fill="none" stroke="#000000" points="1885,-827.5 1885,-857.5 2361,-857.5 2361,-827.5 1885,-827.5"/>
<text text-anchor="start" x="1892" y="-838.9" font-family="Arial" font-size="14.00" fill="#000000">added_by    </text>
<text text-anchor="start" x="1987.683" y="-838.9" font-family="Arial" font-size="14.00" fill="#666666">[uuid]</text>
</g>
<!-- public.t_chat_room_add_member_actions&#45;&gt;public.t_chat_room_actions -->
<g id="edge4" class="edge">
<title>public.t_chat_room_add_member_actions:chat_room_action_id&#45;&gt;public.t_chat_room_actions:chat_room_action_id</title>
<path fill="none" stroke="#000000" d="M1874.9158,-870.9237C1850.1973,-861.8522 1868.2025,-815.6365 1885,-785 1917.1859,-726.297 1979.8141,-762.703 2012,-704 2039.0296,-654.7015 2068.2222,-577.5 2012,-577.5"/>
<polygon fill="#000000" stroke="#000000" points="1875.12,-870.9555 1884.305,-876.946 1880.06,-871.7278 1885,-872.5 1885,-872.5 1885,-872.5 1880.06,-871.7278 1885.695,-868.054 1875.12,-870.9555 1875.12,-870.9555"/>
<text text-anchor="start" x="1555.742" y="-856.5" font-family="Arial" font-size="10.00" fill="#000000">FOREIGN KEY (chat_room_action_id) REFERENCES t_chat_room_actions(chat_room_action_id) ON UPDATE CASCADE ON DELETE CASCADE</text>
</g>
<!-- public.t_chat_room_remove_member_actions -->
<g id="node6" class="node">
<title>public.t_chat_room_remove_member_actions</title>
<polygon fill="#efefef" stroke="transparent" points="2465,-947.5 2465,-982.5 2971,-982.5 2971,-947.5 2465,-947.5"/>
<polygon fill="none" stroke="#000000" points="2465,-947.5 2465,-982.5 2971,-982.5 2971,-947.5 2465,-947.5"/>
<text text-anchor="start" x="2471.6825" y="-960.3" font-family="Arial Bold" font-size="18.00" fill="#000000">public.t_chat_room_remove_member_actions</text>
<text text-anchor="start" x="2836.7495" y="-960.3" font-family="Arial" font-size="14.00" fill="#000000">    </text>
<text text-anchor="start" x="2870.9543" y="-960.3" font-family="Arial" font-size="14.00" fill="#666666">[BASE TABLE]</text>
<polygon fill="none" stroke="#000000" points="2465,-917.5 2465,-947.5 2971,-947.5 2971,-917.5 2465,-917.5"/>
<text text-anchor="start" x="2472" y="-928.9" font-family="Arial" font-size="14.00" fill="#000000">t_chat_room_remove_member_actions_pkey    </text>
<text text-anchor="start" x="2787.042" y="-928.9" font-family="Arial" font-size="14.00" fill="#666666">[bigint]</text>
<polygon fill="none" stroke="#000000" points="2465,-887.5 2465,-917.5 2971,-917.5 2971,-887.5 2465,-887.5"/>
<text text-anchor="start" x="2472" y="-898.9" font-family="Arial" font-size="14.00" fill="#000000">chat_room_remove_member_action_id    </text>
<text text-anchor="start" x="2749.6928" y="-898.9" font-family="Arial" font-size="14.00" fill="#666666">[uuid]</text>
<polygon fill="none" stroke="#000000" points="2465,-857.5 2465,-887.5 2971,-887.5 2971,-857.5 2465,-857.5"/>
<text text-anchor="start" x="2472" y="-868.9" font-family="Arial" font-size="14.00" fill="#000000">chat_room_action_id    </text>
<text text-anchor="start" x="2636.129" y="-868.9" font-family="Arial" font-size="14.00" fill="#666666">[uuid]</text>
<polygon fill="none" stroke="#000000" points="2465,-827.5 2465,-857.5 2971,-857.5 2971,-827.5 2465,-827.5"/>
<text text-anchor="start" x="2472" y="-838.9" font-family="Arial" font-size="14.00" fill="#000000">removed_by    </text>
<text text-anchor="start" x="2583.2216" y="-838.9" font-family="Arial" font-size="14.00" fill="#666666">[uuid]</text>
</g>
<!-- public.t_chat_room_remove_member_actions&#45;&gt;public.t_chat_room_actions -->
<g id="edge5" class="edge">
<title>public.t_chat_room_remove_member_actions:chat_room_action_id&#45;&gt;public.t_chat_room_actions:chat_room_action_id</title>
<path fill="none" stroke="#000000" d="M2454.7693,-871.5663C2408.1216,-862.0577 2454.7919,-782.2554 2413,-740 2277.7755,-603.2757 2204.2998,-577.5 2012,-577.5"/>
<polygon fill="#000000" stroke="#000000" points="2455.0414,-871.5911 2464.591,-876.9814 2460.0207,-872.0455 2465,-872.5 2465,-872.5 2465,-872.5 2460.0207,-872.0455 2465.409,-868.0186 2455.0414,-871.5911 2455.0414,-871.5911"/>
<text text-anchor="start" x="2472.242" y="-882.5" font-family="Arial" font-size="10.00" fill="#000000">FOREIGN KEY (chat_room_action_id) REFERENCES t_chat_room_actions(chat_room_action_id) ON UPDATE CASCADE ON DELETE CASCADE</text>
</g>
<!-- public.t_chat_room_withdraw_actions -->
<g id="node7" class="node">
<title>public.t_chat_room_withdraw_actions</title>
<polygon fill="#efefef" stroke="transparent" points="3076,-947.5 3076,-982.5 3517,-982.5 3517,-947.5 3076,-947.5"/>
<polygon fill="none" stroke="#000000" points="3076,-947.5 3076,-982.5 3517,-982.5 3517,-947.5 3076,-947.5"/>
<text text-anchor="start" x="3082.6869" y="-960.3" font-family="Arial Bold" font-size="18.00" fill="#000000">public.t_chat_room_withdraw_actions</text>
<text text-anchor="start" x="3382.7451" y="-960.3" font-family="Arial" font-size="14.00" fill="#000000">    </text>
<text text-anchor="start" x="3416.9499" y="-960.3" font-family="Arial" font-size="14.00" fill="#666666">[BASE TABLE]</text>
<polygon fill="none" stroke="#000000" points="3076,-917.5 3076,-947.5 3517,-947.5 3517,-917.5 3076,-917.5"/>
<text text-anchor="start" x="3083" y="-928.9" font-family="Arial" font-size="14.00" fill="#000000">t_chat_room_withdraw_actions_pkey    </text>
<text text-anchor="start" x="3347.4796" y="-928.9" font-family="Arial" font-size="14.00" fill="#666666">[bigint]</text>
<polygon fill="none" stroke="#000000" points="3076,-887.5 3076,-917.5 3517,-917.5 3517,-887.5 3076,-887.5"/>
<text text-anchor="start" x="3083" y="-898.9" font-family="Arial" font-size="14.00" fill="#000000">chat_room_withdraw_action_id    </text>
<text text-anchor="start" x="3310.1304" y="-898.9" font-family="Arial" font-size="14.00" fill="#666666">[uuid]</text>
<polygon fill="none" stroke="#000000" points="3076,-857.5 3076,-887.5 3517,-887.5 3517,-857.5 3076,-857.5"/>
<text text-anchor="start" x="3083" y="-868.9" font-family="Arial" font-size="14.00" fill="#000000">chat_room_action_id    </text>
<text text-anchor="start" x="3247.129" y="-868.9" font-family="Arial" font-size="14.00" fill="#666666">[uuid]</text>
<polygon fill="none" stroke="#000000" points="3076,-827.5 3076,-857.5 3517,-857.5 3517,-827.5 3076,-827.5"/>
<text text-anchor="start" x="3083" y="-838.9" font-family="Arial" font-size="14.00" fill="#000000">member_id    </text>
<text text-anchor="start" x="3187.2062" y="-838.9" font-family="Arial" font-size="14.00" fill="#666666">[uuid]</text>
</g>
<!-- public.t_chat_room_withdraw_actions&#45;&gt;public.t_chat_room_actions -->
<g id="edge6" class="edge">
<title>public.t_chat_room_withdraw_actions:chat_room_action_id&#45;&gt;public.t_chat_room_actions:chat_room_action_id</title>
<path fill="none" stroke="#000000" d="M3065.7845,-871.511C3019.4328,-861.4487 3069.5248,-777.2266 3023,-740 2845.3257,-597.8348 2239.5503,-577.5 2012,-577.5"/>
<polygon fill="#000000" stroke="#000000" points="3066.0465,-871.5363 3075.5663,-876.9791 3071.0233,-872.0181 3076,-872.5 3076,-872.5 3076,-872.5 3071.0233,-872.0181 3076.4337,-868.0209 3066.0465,-871.5363 3066.0465,-871.5363"/>
<text text-anchor="start" x="3083.242" y="-856.5" font-family="Arial" font-size="10.00" fill="#000000">FOREIGN KEY (chat_room_action_id) REFERENCES t_chat_room_actions(chat_room_action_id) ON UPDATE CASCADE ON DELETE CASCADE</text>
</g>
</g>
</svg>
