<?xml version="1.0" encoding="UTF-8" standalone="no"?>
<!DOCTYPE svg PUBLIC "-//W3C//DTD SVG 1.1//EN"
 "http://www.w3.org/Graphics/SVG/1.1/DTD/svg11.dtd">
<!-- Generated by graphviz version 2.40.1 (20161225.0304)
 -->
<!-- Title: public.m_organizations Pages: 1 -->
<svg width="2911pt" height="1439pt"
 viewBox="0.00 0.00 2911.00 1439.00" xmlns="http://www.w3.org/2000/svg" xmlns:xlink="http://www.w3.org/1999/xlink">
<g id="graph0" class="graph" transform="scale(1 1) rotate(0) translate(4 1435)">
<title>public.m_organizations</title>
<polygon fill="#ffffff" stroke="transparent" points="-4,4 -4,-1435 2907,-1435 2907,4 -4,4"/>
<!-- public.m_organizations -->
<g id="node1" class="node">
<title>public.m_organizations</title>
<polygon fill="#efefef" stroke="transparent" points="1473,-772.5 1473,-807.5 1798,-807.5 1798,-772.5 1473,-772.5"/>
<polygon fill="none" stroke="#000000" points="1473,-772.5 1473,-807.5 1798,-807.5 1798,-772.5 1473,-772.5"/>
<text text-anchor="start" x="1479.6991" y="-785.3" font-family="Arial Bold" font-size="18.00" fill="#000000">public.m_organizations</text>
<text text-anchor="start" x="1663.7329" y="-785.3" font-family="Arial" font-size="14.00" fill="#000000">    </text>
<text text-anchor="start" x="1697.9377" y="-785.3" font-family="Arial" font-size="14.00" fill="#666666">[BASE TABLE]</text>
<polygon fill="none" stroke="#000000" points="1473,-742.5 1473,-772.5 1798,-772.5 1798,-742.5 1473,-742.5"/>
<text text-anchor="start" x="1480" y="-753.9" font-family="Arial" font-size="14.00" fill="#000000">m_organizations_pkey </text>
<text text-anchor="start" x="1623.9242" y="-753.9" font-family="Arial" font-size="14.00" fill="#666666">[bigint]</text>
<polygon fill="none" stroke="#000000" points="1473,-712.5 1473,-742.5 1798,-742.5 1798,-712.5 1473,-712.5"/>
<text text-anchor="start" x="1480" y="-723.9" font-family="Arial" font-size="14.00" fill="#000000">organization_id </text>
<text text-anchor="start" x="1578.805" y="-723.9" font-family="Arial" font-size="14.00" fill="#666666">[uuid]</text>
<polygon fill="none" stroke="#000000" points="1473,-682.5 1473,-712.5 1798,-712.5 1798,-682.5 1473,-682.5"/>
<text text-anchor="start" x="1480" y="-693.9" font-family="Arial" font-size="14.00" fill="#000000">name </text>
<text text-anchor="start" x="1518.899" y="-693.9" font-family="Arial" font-size="14.00" fill="#666666">[varchar(255)]</text>
<polygon fill="none" stroke="#000000" points="1473,-652.5 1473,-682.5 1798,-682.5 1798,-652.5 1473,-652.5"/>
<text text-anchor="start" x="1480" y="-663.9" font-family="Arial" font-size="14.00" fill="#000000">description </text>
<text text-anchor="start" x="1551.568" y="-663.9" font-family="Arial" font-size="14.00" fill="#666666">[text]</text>
<polygon fill="none" stroke="#000000" points="1473,-622.5 1473,-652.5 1798,-652.5 1798,-622.5 1473,-622.5"/>
<text text-anchor="start" x="1480" y="-633.9" font-family="Arial" font-size="14.00" fill="#000000">color </text>
<text text-anchor="start" x="1514.223" y="-633.9" font-family="Arial" font-size="14.00" fill="#666666">[varchar(7)]</text>
<polygon fill="none" stroke="#000000" points="1473,-592.5 1473,-622.5 1798,-622.5 1798,-592.5 1473,-592.5"/>
<text text-anchor="start" x="1480" y="-603.9" font-family="Arial" font-size="14.00" fill="#000000">is_personal </text>
<text text-anchor="start" x="1555.46" y="-603.9" font-family="Arial" font-size="14.00" fill="#666666">[boolean]</text>
<polygon fill="none" stroke="#000000" points="1473,-562.5 1473,-592.5 1798,-592.5 1798,-562.5 1473,-562.5"/>
<text text-anchor="start" x="1480" y="-573.9" font-family="Arial" font-size="14.00" fill="#000000">is_whole </text>
<text text-anchor="start" x="1538.3408" y="-573.9" font-family="Arial" font-size="14.00" fill="#666666">[boolean]</text>
<polygon fill="none" stroke="#000000" points="1473,-532.5 1473,-562.5 1798,-562.5 1798,-532.5 1473,-532.5"/>
<text text-anchor="start" x="1480" y="-543.9" font-family="Arial" font-size="14.00" fill="#000000">created_at </text>
<text text-anchor="start" x="1550.028" y="-543.9" font-family="Arial" font-size="14.00" fill="#666666">[timestamp with time zone]</text>
<polygon fill="none" stroke="#000000" points="1473,-502.5 1473,-532.5 1798,-532.5 1798,-502.5 1473,-502.5"/>
<text text-anchor="start" x="1480" y="-513.9" font-family="Arial" font-size="14.00" fill="#000000">updated_at </text>
<text text-anchor="start" x="1553.9326" y="-513.9" font-family="Arial" font-size="14.00" fill="#666666">[timestamp with time zone]</text>
<polygon fill="none" stroke="#000000" points="1473,-472.5 1473,-502.5 1798,-502.5 1798,-472.5 1473,-472.5"/>
<text text-anchor="start" x="1480" y="-483.9" font-family="Arial" font-size="14.00" fill="#000000">chat_room_id </text>
<text text-anchor="start" x="1568.6872" y="-483.9" font-family="Arial" font-size="14.00" fill="#666666">[uuid]</text>
<polygon fill="none" stroke="#000000" stroke-width="3" points="1471,-471.5 1471,-809.5 1799,-809.5 1799,-471.5 1471,-471.5"/>
</g>
<!-- public.m_chat_rooms -->
<g id="node8" class="node">
<title>public.m_chat_rooms</title>
<polygon fill="#efefef" stroke="transparent" points="1480,-312.5 1480,-347.5 1792,-347.5 1792,-312.5 1480,-312.5"/>
<polygon fill="none" stroke="#000000" points="1480,-312.5 1480,-347.5 1792,-347.5 1792,-312.5 1480,-312.5"/>
<text text-anchor="start" x="1486.7034" y="-325.3" font-family="Arial Bold" font-size="18.00" fill="#000000">public.m_chat_rooms</text>
<text text-anchor="start" x="1657.7286" y="-325.3" font-family="Arial" font-size="14.00" fill="#000000">    </text>
<text text-anchor="start" x="1691.9334" y="-325.3" font-family="Arial" font-size="14.00" fill="#666666">[BASE TABLE]</text>
<polygon fill="none" stroke="#000000" points="1480,-282.5 1480,-312.5 1792,-312.5 1792,-282.5 1480,-282.5"/>
<text text-anchor="start" x="1487" y="-293.9" font-family="Arial" font-size="14.00" fill="#000000">m_chat_rooms_pkey    </text>
<text text-anchor="start" x="1651.1206" y="-293.9" font-family="Arial" font-size="14.00" fill="#666666">[bigint]</text>
<polygon fill="none" stroke="#000000" points="1480,-252.5 1480,-282.5 1792,-282.5 1792,-252.5 1480,-252.5"/>
<text text-anchor="start" x="1487" y="-263.9" font-family="Arial" font-size="14.00" fill="#000000">chat_room_id    </text>
<text text-anchor="start" x="1606.0014" y="-263.9" font-family="Arial" font-size="14.00" fill="#666666">[uuid]</text>
<polygon fill="none" stroke="#000000" points="1480,-222.5 1480,-252.5 1792,-252.5 1792,-222.5 1480,-222.5"/>
<text text-anchor="start" x="1487" y="-233.9" font-family="Arial" font-size="14.00" fill="#000000">name    </text>
<text text-anchor="start" x="1556.2132" y="-233.9" font-family="Arial" font-size="14.00" fill="#666666">[varchar(255)]</text>
<polygon fill="none" stroke="#000000" points="1480,-192.5 1480,-222.5 1792,-222.5 1792,-192.5 1480,-192.5"/>
<text text-anchor="start" x="1487" y="-203.9" font-family="Arial" font-size="14.00" fill="#000000">is_private    </text>
<text text-anchor="start" x="1581.0996" y="-203.9" font-family="Arial" font-size="14.00" fill="#666666">[boolean]</text>
<polygon fill="none" stroke="#000000" points="1480,-162.5 1480,-192.5 1792,-192.5 1792,-162.5 1480,-162.5"/>
<text text-anchor="start" x="1487" y="-173.9" font-family="Arial" font-size="14.00" fill="#000000">cover_image_url    </text>
<text text-anchor="start" x="1624.6606" y="-173.9" font-family="Arial" font-size="14.00" fill="#666666">[text]</text>
<polygon fill="none" stroke="#000000" points="1480,-132.5 1480,-162.5 1792,-162.5 1792,-132.5 1480,-132.5"/>
<text text-anchor="start" x="1487" y="-143.9" font-family="Arial" font-size="14.00" fill="#000000">owner_id    </text>
<text text-anchor="start" x="1577.9916" y="-143.9" font-family="Arial" font-size="14.00" fill="#666666">[uuid]</text>
<polygon fill="none" stroke="#000000" points="1480,-102.5 1480,-132.5 1792,-132.5 1792,-102.5 1480,-102.5"/>
<text text-anchor="start" x="1487" y="-113.9" font-family="Arial" font-size="14.00" fill="#000000">from_organization    </text>
<text text-anchor="start" x="1633.2244" y="-113.9" font-family="Arial" font-size="14.00" fill="#666666">[boolean]</text>
<polygon fill="none" stroke="#000000" points="1480,-72.5 1480,-102.5 1792,-102.5 1792,-72.5 1480,-72.5"/>
<text text-anchor="start" x="1487" y="-83.9" font-family="Arial" font-size="14.00" fill="#000000">created_at    </text>
<text text-anchor="start" x="1587.3422" y="-83.9" font-family="Arial" font-size="14.00" fill="#666666">[timestamp with time zone]</text>
<polygon fill="none" stroke="#000000" points="1480,-42.5 1480,-72.5 1792,-72.5 1792,-42.5 1480,-42.5"/>
<text text-anchor="start" x="1487" y="-53.9" font-family="Arial" font-size="14.00" fill="#000000">updated_at    </text>
<text text-anchor="start" x="1591.2468" y="-53.9" font-family="Arial" font-size="14.00" fill="#666666">[timestamp with time zone]</text>
</g>
<!-- public.m_organizations&#45;&gt;public.m_chat_rooms -->
<g id="edge8" class="edge">
<title>public.m_organizations:chat_room_id&#45;&gt;public.m_chat_rooms:chat_room_id</title>
<path fill="none" stroke="#000000" d="M1635.2585,-462.4066C1625.3395,-399.9535 1518.632,-454.7691 1480,-391 1451.5596,-344.0539 1425.1111,-267.5 1480,-267.5"/>
<polygon fill="#000000" stroke="#000000" points="1635.2672,-462.5269 1631.5121,-472.8298 1635.6336,-467.5134 1636,-472.5 1636,-472.5 1636,-472.5 1635.6336,-467.5134 1640.4879,-472.1702 1635.2672,-462.5269 1635.2672,-462.5269"/>
<text text-anchor="start" x="1643.159" y="-482.5" font-family="Arial" font-size="10.00" fill="#000000">FOREIGN KEY (chat_room_id) REFERENCES m_chat_rooms(chat_room_id) ON UPDATE RESTRICT ON DELETE RESTRICT</text>
</g>
<!-- public.m_groups -->
<g id="node2" class="node">
<title>public.m_groups</title>
<polygon fill="#efefef" stroke="transparent" points="334,-1202.5 334,-1237.5 607,-1237.5 607,-1202.5 334,-1202.5"/>
<polygon fill="none" stroke="#000000" points="334,-1202.5 334,-1237.5 607,-1237.5 607,-1202.5 334,-1202.5"/>
<text text-anchor="start" x="340.7037" y="-1215.3" font-family="Arial Bold" font-size="18.00" fill="#000000">public.m_groups</text>
<text text-anchor="start" x="472.7283" y="-1215.3" font-family="Arial" font-size="14.00" fill="#000000">    </text>
<text text-anchor="start" x="506.9331" y="-1215.3" font-family="Arial" font-size="14.00" fill="#666666">[BASE TABLE]</text>
<polygon fill="none" stroke="#000000" points="334,-1172.5 334,-1202.5 607,-1202.5 607,-1172.5 334,-1172.5"/>
<text text-anchor="start" x="341" y="-1183.9" font-family="Arial" font-size="14.00" fill="#000000">m_groups_pkey    </text>
<text text-anchor="start" x="474.7868" y="-1183.9" font-family="Arial" font-size="14.00" fill="#666666">[bigint]</text>
<polygon fill="none" stroke="#000000" points="334,-1142.5 334,-1172.5 607,-1172.5 607,-1142.5 334,-1142.5"/>
<text text-anchor="start" x="341" y="-1153.9" font-family="Arial" font-size="14.00" fill="#000000">group_id    </text>
<text text-anchor="start" x="429.6676" y="-1153.9" font-family="Arial" font-size="14.00" fill="#666666">[uuid]</text>
<polygon fill="none" stroke="#000000" points="334,-1112.5 334,-1142.5 607,-1142.5 607,-1112.5 334,-1112.5"/>
<text text-anchor="start" x="341" y="-1123.9" font-family="Arial" font-size="14.00" fill="#000000">key    </text>
<text text-anchor="start" x="396.9874" y="-1123.9" font-family="Arial" font-size="14.00" fill="#666666">[varchar(255)]</text>
<polygon fill="none" stroke="#000000" points="334,-1082.5 334,-1112.5 607,-1112.5 607,-1082.5 334,-1082.5"/>
<text text-anchor="start" x="341" y="-1093.9" font-family="Arial" font-size="14.00" fill="#000000">organization_id    </text>
<text text-anchor="start" x="470.1192" y="-1093.9" font-family="Arial" font-size="14.00" fill="#666666">[uuid]</text>
</g>
<!-- public.m_groups&#45;&gt;public.m_organizations -->
<g id="edge1" class="edge">
<title>public.m_groups:organization_id&#45;&gt;public.m_organizations:organization_id</title>
<path fill="none" stroke="#000000" d="M617.202,-1096.8637C693.4476,-1086.5343 592.0611,-953.0869 658,-890 791.4395,-762.3319 1288.3239,-727.5 1473,-727.5"/>
<polygon fill="#000000" stroke="#000000" points="616.9806,-1096.8774 606.7198,-1093.0087 611.9903,-1097.1887 607,-1097.5 607,-1097.5 607,-1097.5 611.9903,-1097.1887 607.2802,-1101.9913 616.9806,-1096.8774 616.9806,-1096.8774"/>
<text text-anchor="start" x="7.3185" y="-1107.5" font-family="Arial" font-size="10.00" fill="#000000">FOREIGN KEY (organization_id) REFERENCES m_organizations(organization_id) ON UPDATE RESTRICT ON DELETE RESTRICT</text>
</g>
<!-- public.m_grades -->
<g id="node3" class="node">
<title>public.m_grades</title>
<polygon fill="#efefef" stroke="transparent" points="711,-1202.5 711,-1237.5 984,-1237.5 984,-1202.5 711,-1202.5"/>
<polygon fill="none" stroke="#000000" points="711,-1202.5 711,-1237.5 984,-1237.5 984,-1202.5 711,-1202.5"/>
<text text-anchor="start" x="717.7037" y="-1215.3" font-family="Arial Bold" font-size="18.00" fill="#000000">public.m_grades</text>
<text text-anchor="start" x="849.7283" y="-1215.3" font-family="Arial" font-size="14.00" fill="#000000">    </text>
<text text-anchor="start" x="883.9331" y="-1215.3" font-family="Arial" font-size="14.00" fill="#666666">[BASE TABLE]</text>
<polygon fill="none" stroke="#000000" points="711,-1172.5 711,-1202.5 984,-1202.5 984,-1172.5 711,-1172.5"/>
<text text-anchor="start" x="718" y="-1183.9" font-family="Arial" font-size="14.00" fill="#000000">m_grades_pkey    </text>
<text text-anchor="start" x="851.7868" y="-1183.9" font-family="Arial" font-size="14.00" fill="#666666">[bigint]</text>
<polygon fill="none" stroke="#000000" points="711,-1142.5 711,-1172.5 984,-1172.5 984,-1142.5 711,-1142.5"/>
<text text-anchor="start" x="718" y="-1153.9" font-family="Arial" font-size="14.00" fill="#000000">grade_id    </text>
<text text-anchor="start" x="806.6676" y="-1153.9" font-family="Arial" font-size="14.00" fill="#666666">[uuid]</text>
<polygon fill="none" stroke="#000000" points="711,-1112.5 711,-1142.5 984,-1142.5 984,-1112.5 711,-1112.5"/>
<text text-anchor="start" x="718" y="-1123.9" font-family="Arial" font-size="14.00" fill="#000000">key    </text>
<text text-anchor="start" x="773.9874" y="-1123.9" font-family="Arial" font-size="14.00" fill="#666666">[varchar(255)]</text>
<polygon fill="none" stroke="#000000" points="711,-1082.5 711,-1112.5 984,-1112.5 984,-1082.5 711,-1082.5"/>
<text text-anchor="start" x="718" y="-1093.9" font-family="Arial" font-size="14.00" fill="#000000">organization_id    </text>
<text text-anchor="start" x="847.1192" y="-1093.9" font-family="Arial" font-size="14.00" fill="#666666">[uuid]</text>
</g>
<!-- public.m_grades&#45;&gt;public.m_organizations -->
<g id="edge2" class="edge">
<title>public.m_grades:organization_id&#45;&gt;public.m_organizations:organization_id</title>
<path fill="none" stroke="#000000" d="M994.2258,-1096.8866C1070.8539,-1086.9266 974.2611,-958.1078 1035,-890 1173.1957,-735.0384 1265.3677,-727.5 1473,-727.5"/>
<polygon fill="#000000" stroke="#000000" points="993.9821,-1096.9012 983.7305,-1093.0081 988.991,-1097.2006 984,-1097.5 984,-1097.5 984,-1097.5 988.991,-1097.2006 984.2695,-1101.9919 993.9821,-1096.9012 993.9821,-1096.9012"/>
<text text-anchor="start" x="687.8185" y="-1081.5" font-family="Arial" font-size="10.00" fill="#000000">FOREIGN KEY (organization_id) REFERENCES m_organizations(organization_id) ON UPDATE RESTRICT ON DELETE RESTRICT</text>
</g>
<!-- public.m_members -->
<g id="node4" class="node">
<title>public.m_members</title>
<polygon fill="#efefef" stroke="transparent" points="1088,-1352.5 1088,-1387.5 1381,-1387.5 1381,-1352.5 1088,-1352.5"/>
<polygon fill="none" stroke="#000000" points="1088,-1352.5 1088,-1387.5 1381,-1387.5 1381,-1352.5 1088,-1352.5"/>
<text text-anchor="start" x="1094.7146" y="-1365.3" font-family="Arial Bold" font-size="18.00" fill="#000000">public.m_members</text>
<text text-anchor="start" x="1246.7174" y="-1365.3" font-family="Arial" font-size="14.00" fill="#000000">    </text>
<text text-anchor="start" x="1280.9222" y="-1365.3" font-family="Arial" font-size="14.00" fill="#666666">[BASE TABLE]</text>
<polygon fill="none" stroke="#000000" points="1088,-1322.5 1088,-1352.5 1381,-1352.5 1381,-1322.5 1088,-1322.5"/>
<text text-anchor="start" x="1095" y="-1333.9" font-family="Arial" font-size="14.00" fill="#000000">m_members_pkey    </text>
<text text-anchor="start" x="1244.3254" y="-1333.9" font-family="Arial" font-size="14.00" fill="#666666">[bigint]</text>
<polygon fill="none" stroke="#000000" points="1088,-1292.5 1088,-1322.5 1381,-1322.5 1381,-1292.5 1088,-1292.5"/>
<text text-anchor="start" x="1095" y="-1303.9" font-family="Arial" font-size="14.00" fill="#000000">member_id    </text>
<text text-anchor="start" x="1199.2062" y="-1303.9" font-family="Arial" font-size="14.00" fill="#666666">[uuid]</text>
<polygon fill="none" stroke="#000000" points="1088,-1262.5 1088,-1292.5 1381,-1292.5 1381,-1262.5 1088,-1262.5"/>
<text text-anchor="start" x="1095" y="-1273.9" font-family="Arial" font-size="14.00" fill="#000000">login_id    </text>
<text text-anchor="start" x="1177.4376" y="-1273.9" font-family="Arial" font-size="14.00" fill="#666666">[varchar(255)]</text>
<polygon fill="none" stroke="#000000" points="1088,-1232.5 1088,-1262.5 1381,-1262.5 1381,-1232.5 1088,-1232.5"/>
<text text-anchor="start" x="1095" y="-1243.9" font-family="Arial" font-size="14.00" fill="#000000">password    </text>
<text text-anchor="start" x="1189.1024" y="-1243.9" font-family="Arial" font-size="14.00" fill="#666666">[varchar(255)]</text>
<polygon fill="none" stroke="#000000" points="1088,-1202.5 1088,-1232.5 1381,-1232.5 1381,-1202.5 1088,-1202.5"/>
<text text-anchor="start" x="1095" y="-1213.9" font-family="Arial" font-size="14.00" fill="#000000">email    </text>
<text text-anchor="start" x="1162.6438" y="-1213.9" font-family="Arial" font-size="14.00" fill="#666666">[varchar(255)]</text>
<polygon fill="none" stroke="#000000" points="1088,-1172.5 1088,-1202.5 1381,-1202.5 1381,-1172.5 1088,-1172.5"/>
<text text-anchor="start" x="1095" y="-1183.9" font-family="Arial" font-size="14.00" fill="#000000">name    </text>
<text text-anchor="start" x="1164.2132" y="-1183.9" font-family="Arial" font-size="14.00" fill="#666666">[varchar(255)]</text>
<polygon fill="none" stroke="#000000" points="1088,-1142.5 1088,-1172.5 1381,-1172.5 1381,-1142.5 1088,-1142.5"/>
<text text-anchor="start" x="1095" y="-1153.9" font-family="Arial" font-size="14.00" fill="#000000">attend_status_id    </text>
<text text-anchor="start" x="1231.9172" y="-1153.9" font-family="Arial" font-size="14.00" fill="#666666">[uuid]</text>
<polygon fill="none" stroke="#000000" points="1088,-1112.5 1088,-1142.5 1381,-1142.5 1381,-1112.5 1088,-1112.5"/>
<text text-anchor="start" x="1095" y="-1123.9" font-family="Arial" font-size="14.00" fill="#000000">profile_image_url    </text>
<text text-anchor="start" x="1236.547" y="-1123.9" font-family="Arial" font-size="14.00" fill="#666666">[text]</text>
<polygon fill="none" stroke="#000000" points="1088,-1082.5 1088,-1112.5 1381,-1112.5 1381,-1082.5 1088,-1082.5"/>
<text text-anchor="start" x="1095" y="-1093.9" font-family="Arial" font-size="14.00" fill="#000000">grade_id    </text>
<text text-anchor="start" x="1183.6676" y="-1093.9" font-family="Arial" font-size="14.00" fill="#666666">[uuid]</text>
<polygon fill="none" stroke="#000000" points="1088,-1052.5 1088,-1082.5 1381,-1082.5 1381,-1052.5 1088,-1052.5"/>
<text text-anchor="start" x="1095" y="-1063.9" font-family="Arial" font-size="14.00" fill="#000000">group_id    </text>
<text text-anchor="start" x="1183.6676" y="-1063.9" font-family="Arial" font-size="14.00" fill="#666666">[uuid]</text>
<polygon fill="none" stroke="#000000" points="1088,-1022.5 1088,-1052.5 1381,-1052.5 1381,-1022.5 1088,-1022.5"/>
<text text-anchor="start" x="1095" y="-1033.9" font-family="Arial" font-size="14.00" fill="#000000">personal_organization_id    </text>
<text text-anchor="start" x="1285.582" y="-1033.9" font-family="Arial" font-size="14.00" fill="#666666">[uuid]</text>
<polygon fill="none" stroke="#000000" points="1088,-992.5 1088,-1022.5 1381,-1022.5 1381,-992.5 1088,-992.5"/>
<text text-anchor="start" x="1095" y="-1003.9" font-family="Arial" font-size="14.00" fill="#000000">role_id    </text>
<text text-anchor="start" x="1171.209" y="-1003.9" font-family="Arial" font-size="14.00" fill="#666666">[uuid]</text>
<polygon fill="none" stroke="#000000" points="1088,-962.5 1088,-992.5 1381,-992.5 1381,-962.5 1088,-962.5"/>
<text text-anchor="start" x="1095" y="-973.9" font-family="Arial" font-size="14.00" fill="#000000">created_at    </text>
<text text-anchor="start" x="1195.3422" y="-973.9" font-family="Arial" font-size="14.00" fill="#666666">[timestamp with time zone]</text>
<polygon fill="none" stroke="#000000" points="1088,-932.5 1088,-962.5 1381,-962.5 1381,-932.5 1088,-932.5"/>
<text text-anchor="start" x="1095" y="-943.9" font-family="Arial" font-size="14.00" fill="#000000">updated_at    </text>
<text text-anchor="start" x="1199.2468" y="-943.9" font-family="Arial" font-size="14.00" fill="#666666">[timestamp with time zone]</text>
</g>
<!-- public.m_members&#45;&gt;public.m_organizations -->
<g id="edge3" class="edge">
<title>public.m_members:personal_organization_id&#45;&gt;public.m_organizations:organization_id</title>
<path fill="none" stroke="#000000" d="M1391.0236,-1035.183C1447.9247,-1006.815 1404.7905,-727.5 1473,-727.5"/>
<polygon fill="#000000" stroke="#000000" points="1390.7431,-1035.2477 1379.9865,-1033.1156 1385.8715,-1036.3739 1381,-1037.5 1381,-1037.5 1381,-1037.5 1385.8715,-1036.3739 1382.0135,-1041.8844 1390.7431,-1035.2477 1390.7431,-1035.2477"/>
<text text-anchor="start" x="737.3675" y="-1021.5" font-family="Arial" font-size="10.00" fill="#000000">FOREIGN KEY (personal_organization_id) REFERENCES m_organizations(organization_id) ON UPDATE RESTRICT ON DELETE RESTRICT</text>
</g>
<!-- public.t_events -->
<g id="node5" class="node">
<title>public.t_events</title>
<polygon fill="#efefef" stroke="transparent" points="1485,-1352.5 1485,-1387.5 1786,-1387.5 1786,-1352.5 1485,-1352.5"/>
<polygon fill="none" stroke="#000000" points="1485,-1352.5 1485,-1387.5 1786,-1387.5 1786,-1352.5 1485,-1352.5"/>
<text text-anchor="start" x="1511.6968" y="-1365.3" font-family="Arial Bold" font-size="18.00" fill="#000000">public.t_events</text>
<text text-anchor="start" x="1631.7352" y="-1365.3" font-family="Arial" font-size="14.00" fill="#000000">    </text>
<text text-anchor="start" x="1665.94" y="-1365.3" font-family="Arial" font-size="14.00" fill="#666666">[BASE TABLE]</text>
<polygon fill="none" stroke="#000000" points="1485,-1322.5 1485,-1352.5 1786,-1352.5 1786,-1322.5 1485,-1322.5"/>
<text text-anchor="start" x="1492" y="-1333.9" font-family="Arial" font-size="14.00" fill="#000000">t_events_pkey    </text>
<text text-anchor="start" x="1616.4642" y="-1333.9" font-family="Arial" font-size="14.00" fill="#666666">[bigint]</text>
<polygon fill="none" stroke="#000000" points="1485,-1292.5 1485,-1322.5 1786,-1322.5 1786,-1292.5 1485,-1292.5"/>
<text text-anchor="start" x="1492" y="-1303.9" font-family="Arial" font-size="14.00" fill="#000000">event_id    </text>
<text text-anchor="start" x="1579.115" y="-1303.9" font-family="Arial" font-size="14.00" fill="#666666">[uuid]</text>
<polygon fill="none" stroke="#000000" points="1485,-1262.5 1485,-1292.5 1786,-1292.5 1786,-1262.5 1485,-1262.5"/>
<text text-anchor="start" x="1492" y="-1273.9" font-family="Arial" font-size="14.00" fill="#000000">event_type_id    </text>
<text text-anchor="start" x="1613.3534" y="-1273.9" font-family="Arial" font-size="14.00" fill="#666666">[uuid]</text>
<polygon fill="none" stroke="#000000" points="1485,-1232.5 1485,-1262.5 1786,-1262.5 1786,-1232.5 1485,-1232.5"/>
<text text-anchor="start" x="1492" y="-1243.9" font-family="Arial" font-size="14.00" fill="#000000">title    </text>
<text text-anchor="start" x="1547.9818" y="-1243.9" font-family="Arial" font-size="14.00" fill="#666666">[varchar(255)]</text>
<polygon fill="none" stroke="#000000" points="1485,-1202.5 1485,-1232.5 1786,-1232.5 1786,-1202.5 1485,-1202.5"/>
<text text-anchor="start" x="1492" y="-1213.9" font-family="Arial" font-size="14.00" fill="#000000">description    </text>
<text text-anchor="start" x="1593.8822" y="-1213.9" font-family="Arial" font-size="14.00" fill="#666666">[text]</text>
<polygon fill="none" stroke="#000000" points="1485,-1172.5 1485,-1202.5 1786,-1202.5 1786,-1172.5 1485,-1172.5"/>
<text text-anchor="start" x="1492" y="-1183.9" font-family="Arial" font-size="14.00" fill="#000000">organization_id    </text>
<text text-anchor="start" x="1621.1192" y="-1183.9" font-family="Arial" font-size="14.00" fill="#666666">[uuid]</text>
<polygon fill="none" stroke="#000000" points="1485,-1142.5 1485,-1172.5 1786,-1172.5 1786,-1142.5 1485,-1142.5"/>
<text text-anchor="start" x="1492" y="-1153.9" font-family="Arial" font-size="14.00" fill="#000000">start_time    </text>
<text text-anchor="start" x="1587.6522" y="-1153.9" font-family="Arial" font-size="14.00" fill="#666666">[timestamp with time zone]</text>
<polygon fill="none" stroke="#000000" points="1485,-1112.5 1485,-1142.5 1786,-1142.5 1786,-1112.5 1485,-1112.5"/>
<text text-anchor="start" x="1492" y="-1123.9" font-family="Arial" font-size="14.00" fill="#000000">end_time    </text>
<text text-anchor="start" x="1583.7756" y="-1123.9" font-family="Arial" font-size="14.00" fill="#666666">[timestamp with time zone]</text>
<polygon fill="none" stroke="#000000" points="1485,-1082.5 1485,-1112.5 1786,-1112.5 1786,-1082.5 1485,-1082.5"/>
<text text-anchor="start" x="1492" y="-1093.9" font-family="Arial" font-size="14.00" fill="#000000">mail_send_flag    </text>
<text text-anchor="start" x="1620.3366" y="-1093.9" font-family="Arial" font-size="14.00" fill="#666666">[boolean]</text>
<polygon fill="none" stroke="#000000" points="1485,-1052.5 1485,-1082.5 1786,-1082.5 1786,-1052.5 1485,-1052.5"/>
<text text-anchor="start" x="1492" y="-1063.9" font-family="Arial" font-size="14.00" fill="#000000">send_organization_id    </text>
<text text-anchor="start" x="1659.2496" y="-1063.9" font-family="Arial" font-size="14.00" fill="#666666">[uuid]</text>
<polygon fill="none" stroke="#000000" points="1485,-1022.5 1485,-1052.5 1786,-1052.5 1786,-1022.5 1485,-1022.5"/>
<text text-anchor="start" x="1492" y="-1033.9" font-family="Arial" font-size="14.00" fill="#000000">posted_by    </text>
<text text-anchor="start" x="1590.791" y="-1033.9" font-family="Arial" font-size="14.00" fill="#666666">[uuid]</text>
<polygon fill="none" stroke="#000000" points="1485,-992.5 1485,-1022.5 1786,-1022.5 1786,-992.5 1485,-992.5"/>
<text text-anchor="start" x="1492" y="-1003.9" font-family="Arial" font-size="14.00" fill="#000000">last_edited_by    </text>
<text text-anchor="start" x="1616.46" y="-1003.9" font-family="Arial" font-size="14.00" fill="#666666">[uuid]</text>
<polygon fill="none" stroke="#000000" points="1485,-962.5 1485,-992.5 1786,-992.5 1786,-962.5 1485,-962.5"/>
<text text-anchor="start" x="1492" y="-973.9" font-family="Arial" font-size="14.00" fill="#000000">posted_at    </text>
<text text-anchor="start" x="1587.6816" y="-973.9" font-family="Arial" font-size="14.00" fill="#666666">[timestamp with time zone]</text>
<polygon fill="none" stroke="#000000" points="1485,-932.5 1485,-962.5 1786,-962.5 1786,-932.5 1485,-932.5"/>
<text text-anchor="start" x="1491.9825" y="-943.9" font-family="Arial" font-size="14.00" fill="#000000">last_edited_at    </text>
<text text-anchor="start" x="1613.3331" y="-943.9" font-family="Arial" font-size="14.00" fill="#666666">[timestamp with time zone]</text>
</g>
<!-- public.t_events&#45;&gt;public.m_organizations -->
<g id="edge4" class="edge">
<title>public.t_events:organization_id&#45;&gt;public.m_organizations:organization_id</title>
<path fill="none" stroke="#000000" d="M1476.1486,-1182.6452C1432.6498,-1133.4832 1424.9672,-727.5 1473,-727.5"/>
<polygon fill="#000000" stroke="#000000" points="1476.2322,-1182.691 1482.836,-1191.4455 1480.6161,-1185.0955 1485,-1187.5 1485,-1187.5 1485,-1187.5 1480.6161,-1185.0955 1487.164,-1183.5545 1476.2322,-1182.691 1476.2322,-1182.691"/>
<text text-anchor="start" x="1491.5285" y="-1197.5" font-family="Arial" font-size="10.00" fill="#000000">FOREIGN KEY (organization_id) REFERENCES m_organizations(organization_id) ON UPDATE SET NULL ON DELETE SET NULL</text>
</g>
<!-- public.t_events&#45;&gt;public.m_organizations -->
<g id="edge5" class="edge">
<title>public.t_events:send_organization_id&#45;&gt;public.m_organizations:organization_id</title>
<path fill="none" stroke="#000000" d="M1476.6242,-1061.5987C1445.6277,-1016.4502 1438.1519,-727.5 1473,-727.5"/>
<polygon fill="#000000" stroke="#000000" points="1476.8253,-1061.7403 1482.4081,-1071.1786 1480.9126,-1064.6201 1485,-1067.5 1485,-1067.5 1485,-1067.5 1480.9126,-1064.6201 1487.5919,-1063.8214 1476.8253,-1061.7403 1476.8253,-1061.7403"/>
<text text-anchor="start" x="1491.9105" y="-1077.5" font-family="Arial" font-size="10.00" fill="#000000">FOREIGN KEY (send_organization_id) REFERENCES m_organizations(organization_id) ON UPDATE SET NULL ON DELETE SET NULL</text>
</g>
<!-- public.t_attendances -->
<g id="node6" class="node">
<title>public.t_attendances</title>
<polygon fill="#efefef" stroke="transparent" points="1890,-1292.5 1890,-1327.5 2196,-1327.5 2196,-1292.5 1890,-1292.5"/>
<polygon fill="none" stroke="#000000" points="1890,-1292.5 1890,-1327.5 2196,-1327.5 2196,-1292.5 1890,-1292.5"/>
<text text-anchor="start" x="1896.6833" y="-1305.3" font-family="Arial Bold" font-size="18.00" fill="#000000">public.t_attendances</text>
<text text-anchor="start" x="2061.7487" y="-1305.3" font-family="Arial" font-size="14.00" fill="#000000">    </text>
<text text-anchor="start" x="2095.9535" y="-1305.3" font-family="Arial" font-size="14.00" fill="#666666">[BASE TABLE]</text>
<polygon fill="none" stroke="#000000" points="1890,-1262.5 1890,-1292.5 2196,-1292.5 2196,-1262.5 1890,-1262.5"/>
<text text-anchor="start" x="1897" y="-1273.9" font-family="Arial" font-size="14.00" fill="#000000">t_attendances_pkey    </text>
<text text-anchor="start" x="2056.4852" y="-1273.9" font-family="Arial" font-size="14.00" fill="#666666">[bigint]</text>
<polygon fill="none" stroke="#000000" points="1890,-1232.5 1890,-1262.5 2196,-1262.5 2196,-1232.5 1890,-1232.5"/>
<text text-anchor="start" x="1897" y="-1243.9" font-family="Arial" font-size="14.00" fill="#000000">attendance_id    </text>
<text text-anchor="start" x="2019.136" y="-1243.9" font-family="Arial" font-size="14.00" fill="#666666">[uuid]</text>
<polygon fill="none" stroke="#000000" points="1890,-1202.5 1890,-1232.5 2196,-1232.5 2196,-1202.5 1890,-1202.5"/>
<text text-anchor="start" x="1897" y="-1213.9" font-family="Arial" font-size="14.00" fill="#000000">attendance_type_id    </text>
<text text-anchor="start" x="2053.3744" y="-1213.9" font-family="Arial" font-size="14.00" fill="#666666">[uuid]</text>
<polygon fill="none" stroke="#000000" points="1890,-1172.5 1890,-1202.5 2196,-1202.5 2196,-1172.5 1890,-1172.5"/>
<text text-anchor="start" x="1897" y="-1183.9" font-family="Arial" font-size="14.00" fill="#000000">member_id    </text>
<text text-anchor="start" x="2001.2062" y="-1183.9" font-family="Arial" font-size="14.00" fill="#666666">[uuid]</text>
<polygon fill="none" stroke="#000000" points="1890,-1142.5 1890,-1172.5 2196,-1172.5 2196,-1142.5 1890,-1142.5"/>
<text text-anchor="start" x="1897" y="-1153.9" font-family="Arial" font-size="14.00" fill="#000000">description    </text>
<text text-anchor="start" x="1998.8822" y="-1153.9" font-family="Arial" font-size="14.00" fill="#666666">[text]</text>
<polygon fill="none" stroke="#000000" points="1890,-1112.5 1890,-1142.5 2196,-1142.5 2196,-1112.5 1890,-1112.5"/>
<text text-anchor="start" x="1897" y="-1123.9" font-family="Arial" font-size="14.00" fill="#000000">date    </text>
<text text-anchor="start" x="1958.4432" y="-1123.9" font-family="Arial" font-size="14.00" fill="#666666">[date]</text>
<polygon fill="none" stroke="#000000" points="1890,-1082.5 1890,-1112.5 2196,-1112.5 2196,-1082.5 1890,-1082.5"/>
<text text-anchor="start" x="1897" y="-1093.9" font-family="Arial" font-size="14.00" fill="#000000">mail_send_flag    </text>
<text text-anchor="start" x="2025.3366" y="-1093.9" font-family="Arial" font-size="14.00" fill="#666666">[boolean]</text>
<polygon fill="none" stroke="#000000" points="1890,-1052.5 1890,-1082.5 2196,-1082.5 2196,-1052.5 1890,-1052.5"/>
<text text-anchor="start" x="1897" y="-1063.9" font-family="Arial" font-size="14.00" fill="#000000">send_organization_id    </text>
<text text-anchor="start" x="2064.2496" y="-1063.9" font-family="Arial" font-size="14.00" fill="#666666">[uuid]</text>
<polygon fill="none" stroke="#000000" points="1890,-1022.5 1890,-1052.5 2196,-1052.5 2196,-1022.5 1890,-1022.5"/>
<text text-anchor="start" x="1897" y="-1033.9" font-family="Arial" font-size="14.00" fill="#000000">posted_at    </text>
<text text-anchor="start" x="1992.6816" y="-1033.9" font-family="Arial" font-size="14.00" fill="#666666">[timestamp with time zone]</text>
<polygon fill="none" stroke="#000000" points="1890,-992.5 1890,-1022.5 2196,-1022.5 2196,-992.5 1890,-992.5"/>
<text text-anchor="start" x="1897" y="-1003.9" font-family="Arial" font-size="14.00" fill="#000000">last_edited_at    </text>
<text text-anchor="start" x="2018.3506" y="-1003.9" font-family="Arial" font-size="14.00" fill="#666666">[timestamp with time zone]</text>
</g>
<!-- public.t_attendances&#45;&gt;public.m_organizations -->
<g id="edge6" class="edge">
<title>public.t_attendances:send_organization_id&#45;&gt;public.m_organizations:organization_id</title>
<path fill="none" stroke="#000000" d="M1879.9049,-1065.3288C1817.4646,-1036.3721 1872.6037,-727.5 1798,-727.5"/>
<polygon fill="#000000" stroke="#000000" points="1880.2236,-1065.3973 1889.0538,-1071.8994 1885.1118,-1066.4486 1890,-1067.5 1890,-1067.5 1890,-1067.5 1885.1118,-1066.4486 1890.9462,-1063.1006 1880.2236,-1065.3973 1880.2236,-1065.3973"/>
<text text-anchor="start" x="1896.9105" y="-1051.5" font-family="Arial" font-size="10.00" fill="#000000">FOREIGN KEY (send_organization_id) REFERENCES m_organizations(organization_id) ON UPDATE SET NULL ON DELETE SET NULL</text>
</g>
<!-- public.t_records -->
<g id="node7" class="node">
<title>public.t_records</title>
<polygon fill="#efefef" stroke="transparent" points="2301,-1292.5 2301,-1327.5 2602,-1327.5 2602,-1292.5 2301,-1292.5"/>
<polygon fill="none" stroke="#000000" points="2301,-1292.5 2301,-1327.5 2602,-1327.5 2602,-1292.5 2301,-1292.5"/>
<text text-anchor="start" x="2324.2057" y="-1305.3" font-family="Arial Bold" font-size="18.00" fill="#000000">public.t_records</text>
<text text-anchor="start" x="2451.2263" y="-1305.3" font-family="Arial" font-size="14.00" fill="#000000">    </text>
<text text-anchor="start" x="2485.4311" y="-1305.3" font-family="Arial" font-size="14.00" fill="#666666">[BASE TABLE]</text>
<polygon fill="none" stroke="#000000" points="2301,-1262.5 2301,-1292.5 2602,-1292.5 2602,-1262.5 2301,-1262.5"/>
<text text-anchor="start" x="2308" y="-1273.9" font-family="Arial" font-size="14.00" fill="#000000">t_records_pkey    </text>
<text text-anchor="start" x="2437.8948" y="-1273.9" font-family="Arial" font-size="14.00" fill="#666666">[bigint]</text>
<polygon fill="none" stroke="#000000" points="2301,-1232.5 2301,-1262.5 2602,-1262.5 2602,-1232.5 2301,-1232.5"/>
<text text-anchor="start" x="2308" y="-1243.9" font-family="Arial" font-size="14.00" fill="#000000">record_id    </text>
<text text-anchor="start" x="2400.5456" y="-1243.9" font-family="Arial" font-size="14.00" fill="#666666">[uuid]</text>
<polygon fill="none" stroke="#000000" points="2301,-1202.5 2301,-1232.5 2602,-1232.5 2602,-1202.5 2301,-1202.5"/>
<text text-anchor="start" x="2308" y="-1213.9" font-family="Arial" font-size="14.00" fill="#000000">record_type_id    </text>
<text text-anchor="start" x="2434.784" y="-1213.9" font-family="Arial" font-size="14.00" fill="#666666">[uuid]</text>
<polygon fill="none" stroke="#000000" points="2301,-1172.5 2301,-1202.5 2602,-1202.5 2602,-1172.5 2301,-1172.5"/>
<text text-anchor="start" x="2308" y="-1183.9" font-family="Arial" font-size="14.00" fill="#000000">title    </text>
<text text-anchor="start" x="2363.9818" y="-1183.9" font-family="Arial" font-size="14.00" fill="#666666">[varchar(255)]</text>
<polygon fill="none" stroke="#000000" points="2301,-1142.5 2301,-1172.5 2602,-1172.5 2602,-1142.5 2301,-1142.5"/>
<text text-anchor="start" x="2308" y="-1153.9" font-family="Arial" font-size="14.00" fill="#000000">body    </text>
<text text-anchor="start" x="2372.5526" y="-1153.9" font-family="Arial" font-size="14.00" fill="#666666">[text]</text>
<polygon fill="none" stroke="#000000" points="2301,-1112.5 2301,-1142.5 2602,-1142.5 2602,-1112.5 2301,-1112.5"/>
<text text-anchor="start" x="2308" y="-1123.9" font-family="Arial" font-size="14.00" fill="#000000">organization_id    </text>
<text text-anchor="start" x="2437.1192" y="-1123.9" font-family="Arial" font-size="14.00" fill="#666666">[uuid]</text>
<polygon fill="none" stroke="#000000" points="2301,-1082.5 2301,-1112.5 2602,-1112.5 2602,-1082.5 2301,-1082.5"/>
<text text-anchor="start" x="2308" y="-1093.9" font-family="Arial" font-size="14.00" fill="#000000">posted_by    </text>
<text text-anchor="start" x="2406.791" y="-1093.9" font-family="Arial" font-size="14.00" fill="#666666">[uuid]</text>
<polygon fill="none" stroke="#000000" points="2301,-1052.5 2301,-1082.5 2602,-1082.5 2602,-1052.5 2301,-1052.5"/>
<text text-anchor="start" x="2308" y="-1063.9" font-family="Arial" font-size="14.00" fill="#000000">last_edited_by    </text>
<text text-anchor="start" x="2432.46" y="-1063.9" font-family="Arial" font-size="14.00" fill="#666666">[uuid]</text>
<polygon fill="none" stroke="#000000" points="2301,-1022.5 2301,-1052.5 2602,-1052.5 2602,-1022.5 2301,-1022.5"/>
<text text-anchor="start" x="2308" y="-1033.9" font-family="Arial" font-size="14.00" fill="#000000">posted_at    </text>
<text text-anchor="start" x="2403.6816" y="-1033.9" font-family="Arial" font-size="14.00" fill="#666666">[timestamp with time zone]</text>
<polygon fill="none" stroke="#000000" points="2301,-992.5 2301,-1022.5 2602,-1022.5 2602,-992.5 2301,-992.5"/>
<text text-anchor="start" x="2307.9825" y="-1003.9" font-family="Arial" font-size="14.00" fill="#000000">last_edited_at    </text>
<text text-anchor="start" x="2429.3331" y="-1003.9" font-family="Arial" font-size="14.00" fill="#666666">[timestamp with time zone]</text>
</g>
<!-- public.t_records&#45;&gt;public.m_organizations -->
<g id="edge7" class="edge">
<title>public.t_records:organization_id&#45;&gt;public.m_organizations:organization_id</title>
<path fill="none" stroke="#000000" d="M2290.9877,-1126.9914C2201.0381,-1117.2018 2317.0958,-968.4778 2248,-890 2107.4831,-730.4035 2010.6407,-727.5 1798,-727.5"/>
<polygon fill="#000000" stroke="#000000" points="2291.0129,-1126.9926 2300.7717,-1131.9942 2296.0064,-1127.2463 2301,-1127.5 2301,-1127.5 2301,-1127.5 2296.0064,-1127.2463 2301.2283,-1123.0058 2291.0129,-1126.9926 2291.0129,-1126.9926"/>
<text text-anchor="start" x="2307.5285" y="-1137.5" font-family="Arial" font-size="10.00" fill="#000000">FOREIGN KEY (organization_id) REFERENCES m_organizations(organization_id) ON UPDATE SET NULL ON DELETE SET NULL</text>
</g>
</g>
</svg>
