<?xml version="1.0" encoding="UTF-8" standalone="no"?>
<!DOCTYPE svg PUBLIC "-//W3C//DTD SVG 1.1//EN"
 "http://www.w3.org/Graphics/SVG/1.1/DTD/svg11.dtd">
<!-- Generated by graphviz version 2.40.1 (20161225.0304)
 -->
<!-- Title: public.t_chat_room_actions Pages: 1 -->
<svg width="3763pt" height="929pt"
 viewBox="0.00 0.00 3763.00 929.00" xmlns="http://www.w3.org/2000/svg" xmlns:xlink="http://www.w3.org/1999/xlink">
<g id="graph0" class="graph" transform="scale(1 1) rotate(0) translate(4 925)">
<title>public.t_chat_room_actions</title>
<polygon fill="#ffffff" stroke="transparent" points="-4,4 -4,-925 3759,-925 3759,4 -4,4"/>
<!-- public.t_chat_room_actions -->
<g id="node1" class="node">
<title>public.t_chat_room_actions</title>
<polygon fill="#efefef" stroke="transparent" points="1655,-442.5 1655,-477.5 2015,-477.5 2015,-442.5 1655,-442.5"/>
<polygon fill="none" stroke="#000000" points="1655,-442.5 1655,-477.5 2015,-477.5 2015,-442.5 1655,-442.5"/>
<text text-anchor="start" x="1661.6878" y="-455.3" font-family="Arial Bold" font-size="18.00" fill="#000000">public.t_chat_room_actions</text>
<text text-anchor="start" x="1880.7442" y="-455.3" font-family="Arial" font-size="14.00" fill="#000000">    </text>
<text text-anchor="start" x="1914.949" y="-455.3" font-family="Arial" font-size="14.00" fill="#666666">[BASE TABLE]</text>
<polygon fill="none" stroke="#000000" points="1655,-412.5 1655,-442.5 2015,-442.5 2015,-412.5 1655,-412.5"/>
<text text-anchor="start" x="1662" y="-423.9" font-family="Arial" font-size="14.00" fill="#000000">t_chat_room_actions_pkey </text>
<text text-anchor="start" x="1833.164" y="-423.9" font-family="Arial" font-size="14.00" fill="#666666">[bigint]</text>
<polygon fill="none" stroke="#000000" points="1655,-382.5 1655,-412.5 2015,-412.5 2015,-382.5 1655,-382.5"/>
<text text-anchor="start" x="1662" y="-393.9" font-family="Arial" font-size="14.00" fill="#000000">chat_room_action_id </text>
<text text-anchor="start" x="1795.8148" y="-393.9" font-family="Arial" font-size="14.00" fill="#666666">[uuid]</text>
<polygon fill="none" stroke="#000000" points="1655,-352.5 1655,-382.5 2015,-382.5 2015,-352.5 1655,-352.5"/>
<text text-anchor="start" x="1662" y="-363.9" font-family="Arial" font-size="14.00" fill="#000000">chat_room_action_type_id </text>
<text text-anchor="start" x="1830.0532" y="-363.9" font-family="Arial" font-size="14.00" fill="#666666">[uuid]</text>
<polygon fill="none" stroke="#000000" points="1655,-322.5 1655,-352.5 2015,-352.5 2015,-322.5 1655,-322.5"/>
<text text-anchor="start" x="1662" y="-333.9" font-family="Arial" font-size="14.00" fill="#000000">acted_at </text>
<text text-anchor="start" x="1719.5848" y="-333.9" font-family="Arial" font-size="14.00" fill="#666666">[timestamp with time zone]</text>
<polygon fill="none" stroke="#000000" stroke-width="3" points="1653.5,-321.5 1653.5,-479.5 2016.5,-479.5 2016.5,-321.5 1653.5,-321.5"/>
</g>
<!-- public.m_chat_room_action_types -->
<g id="node8" class="node">
<title>public.m_chat_room_action_types</title>
<polygon fill="#efefef" stroke="transparent" points="1628,-162.5 1628,-197.5 2042,-197.5 2042,-162.5 1628,-162.5"/>
<polygon fill="none" stroke="#000000" points="1628,-162.5 1628,-197.5 2042,-197.5 2042,-162.5 1628,-162.5"/>
<text text-anchor="start" x="1634.6824" y="-175.3" font-family="Arial Bold" font-size="18.00" fill="#000000">public.m_chat_room_action_types</text>
<text text-anchor="start" x="1907.7496" y="-175.3" font-family="Arial" font-size="14.00" fill="#000000">    </text>
<text text-anchor="start" x="1941.9544" y="-175.3" font-family="Arial" font-size="14.00" fill="#666666">[BASE TABLE]</text>
<polygon fill="none" stroke="#000000" points="1628,-132.5 1628,-162.5 2042,-162.5 2042,-132.5 1628,-132.5"/>
<text text-anchor="start" x="1635" y="-143.9" font-family="Arial" font-size="14.00" fill="#000000">m_chat_room_action_types_pkey    </text>
<text text-anchor="start" x="1878.4866" y="-143.9" font-family="Arial" font-size="14.00" fill="#666666">[bigint]</text>
<polygon fill="none" stroke="#000000" points="1628,-102.5 1628,-132.5 2042,-132.5 2042,-102.5 1628,-102.5"/>
<text text-anchor="start" x="1635" y="-113.9" font-family="Arial" font-size="14.00" fill="#000000">chat_room_action_type_id    </text>
<text text-anchor="start" x="1833.3674" y="-113.9" font-family="Arial" font-size="14.00" fill="#666666">[uuid]</text>
<polygon fill="none" stroke="#000000" points="1628,-72.5 1628,-102.5 2042,-102.5 2042,-72.5 1628,-72.5"/>
<text text-anchor="start" x="1635" y="-83.9" font-family="Arial" font-size="14.00" fill="#000000">name    </text>
<text text-anchor="start" x="1704.2132" y="-83.9" font-family="Arial" font-size="14.00" fill="#666666">[varchar(255)]</text>
<polygon fill="none" stroke="#000000" points="1628,-42.5 1628,-72.5 2042,-72.5 2042,-42.5 1628,-42.5"/>
<text text-anchor="start" x="1635" y="-53.9" font-family="Arial" font-size="14.00" fill="#000000">key    </text>
<text text-anchor="start" x="1690.9874" y="-53.9" font-family="Arial" font-size="14.00" fill="#666666">[varchar(255)]</text>
</g>
<!-- public.t_chat_room_actions&#45;&gt;public.m_chat_room_action_types -->
<g id="edge7" class="edge">
<title>public.t_chat_room_actions:chat_room_action_type_id&#45;&gt;public.m_chat_room_action_types:chat_room_action_type_id</title>
<path fill="none" stroke="#000000" d="M2025.2273,-366.7828C2128.3092,-352.1191 2150.2648,-117.5 2042,-117.5"/>
<polygon fill="#000000" stroke="#000000" points="2024.9755,-366.8004 2014.6852,-363.011 2019.9878,-367.1502 2015,-367.5 2015,-367.5 2015,-367.5 2019.9878,-367.1502 2015.3148,-371.989 2024.9755,-366.8004 2024.9755,-366.8004"/>
<text text-anchor="start" x="2022.124" y="-377.5" font-family="Arial" font-size="10.00" fill="#000000">FOREIGN KEY (chat_room_action_type_id) REFERENCES m_chat_room_action_types(chat_room_action_type_id) ON UPDATE RESTRICT ON DELETE RESTRICT</text>
</g>
<!-- public.t_messages -->
<g id="node2" class="node">
<title>public.t_messages</title>
<polygon fill="#efefef" stroke="transparent" points="375,-842.5 375,-877.5 676,-877.5 676,-842.5 375,-842.5"/>
<polygon fill="none" stroke="#000000" points="375,-842.5 375,-877.5 676,-877.5 676,-842.5 375,-842.5"/>
<text text-anchor="start" x="387.1987" y="-855.3" font-family="Arial Bold" font-size="18.00" fill="#000000">public.t_messages</text>
<text text-anchor="start" x="536.2333" y="-855.3" font-family="Arial" font-size="14.00" fill="#000000">    </text>
<text text-anchor="start" x="570.4381" y="-855.3" font-family="Arial" font-size="14.00" fill="#666666">[BASE TABLE]</text>
<polygon fill="none" stroke="#000000" points="375,-812.5 375,-842.5 676,-842.5 676,-812.5 375,-812.5"/>
<text text-anchor="start" x="382" y="-823.9" font-family="Arial" font-size="14.00" fill="#000000">t_messages_pkey    </text>
<text text-anchor="start" x="529.0168" y="-823.9" font-family="Arial" font-size="14.00" fill="#666666">[bigint]</text>
<polygon fill="none" stroke="#000000" points="375,-782.5 375,-812.5 676,-812.5 676,-782.5 375,-782.5"/>
<text text-anchor="start" x="382" y="-793.9" font-family="Arial" font-size="14.00" fill="#000000">message_id    </text>
<text text-anchor="start" x="491.6676" y="-793.9" font-family="Arial" font-size="14.00" fill="#666666">[uuid]</text>
<polygon fill="none" stroke="#000000" points="375,-752.5 375,-782.5 676,-782.5 676,-752.5 375,-752.5"/>
<text text-anchor="start" x="382" y="-763.9" font-family="Arial" font-size="14.00" fill="#000000">chat_room_id    </text>
<text text-anchor="start" x="501.0014" y="-763.9" font-family="Arial" font-size="14.00" fill="#666666">[uuid]</text>
<polygon fill="none" stroke="#000000" points="375,-722.5 375,-752.5 676,-752.5 676,-722.5 375,-722.5"/>
<text text-anchor="start" x="382" y="-733.9" font-family="Arial" font-size="14.00" fill="#000000">sender_id    </text>
<text text-anchor="start" x="477.6676" y="-733.9" font-family="Arial" font-size="14.00" fill="#666666">[uuid]</text>
<polygon fill="none" stroke="#000000" points="375,-692.5 375,-722.5 676,-722.5 676,-692.5 375,-692.5"/>
<text text-anchor="start" x="382" y="-703.9" font-family="Arial" font-size="14.00" fill="#000000">body    </text>
<text text-anchor="start" x="446.5526" y="-703.9" font-family="Arial" font-size="14.00" fill="#666666">[text]</text>
<polygon fill="none" stroke="#000000" points="375,-662.5 375,-692.5 676,-692.5 676,-662.5 375,-662.5"/>
<text text-anchor="start" x="382" y="-673.9" font-family="Arial" font-size="14.00" fill="#000000">posted_at    </text>
<text text-anchor="start" x="477.6816" y="-673.9" font-family="Arial" font-size="14.00" fill="#666666">[timestamp with time zone]</text>
<polygon fill="none" stroke="#000000" points="375,-632.5 375,-662.5 676,-662.5 676,-632.5 375,-632.5"/>
<text text-anchor="start" x="381.9825" y="-643.9" font-family="Arial" font-size="14.00" fill="#000000">last_edited_at    </text>
<text text-anchor="start" x="503.3331" y="-643.9" font-family="Arial" font-size="14.00" fill="#666666">[timestamp with time zone]</text>
<polygon fill="none" stroke="#000000" points="375,-602.5 375,-632.5 676,-632.5 676,-602.5 375,-602.5"/>
<text text-anchor="start" x="382" y="-613.9" font-family="Arial" font-size="14.00" fill="#000000">chat_room_action_id    </text>
<text text-anchor="start" x="546.129" y="-613.9" font-family="Arial" font-size="14.00" fill="#666666">[uuid]</text>
</g>
<!-- public.t_messages&#45;&gt;public.t_chat_room_actions -->
<g id="edge1" class="edge">
<title>public.t_messages:chat_room_action_id&#45;&gt;public.t_chat_room_actions:chat_room_action_id</title>
<path fill="none" stroke="#000000" d="M686.028,-616.0222C708.1461,-608.5568 701.2545,-574.7698 728,-560 911.0796,-458.8967 1445.8589,-397.5 1655,-397.5"/>
<polygon fill="#000000" stroke="#000000" points="685.8931,-616.0419 675.3439,-613.0481 680.9466,-616.771 676,-617.5 676,-617.5 676,-617.5 680.9466,-616.771 676.6561,-621.9519 685.8931,-616.0419 685.8931,-616.0419"/>
<text text-anchor="start" x="6.583" y="-627.5" font-family="Arial" font-size="10.00" fill="#000000">FOREIGN KEY (chat_room_action_id) REFERENCES t_chat_room_actions(chat_room_action_id) ON UPDATE RESTRICT ON DELETE RESTRICT</text>
</g>
<!-- public.t_chat_room_create_actions -->
<g id="node3" class="node">
<title>public.t_chat_room_create_actions</title>
<polygon fill="#efefef" stroke="transparent" points="780,-797.5 780,-832.5 1200,-832.5 1200,-797.5 780,-797.5"/>
<polygon fill="none" stroke="#000000" points="780,-797.5 780,-832.5 1200,-832.5 1200,-797.5 780,-797.5"/>
<text text-anchor="start" x="786.6782" y="-810.3" font-family="Arial Bold" font-size="18.00" fill="#000000">public.t_chat_room_create_actions</text>
<text text-anchor="start" x="1065.7538" y="-810.3" font-family="Arial" font-size="14.00" fill="#000000">    </text>
<text text-anchor="start" x="1099.9586" y="-810.3" font-family="Arial" font-size="14.00" fill="#666666">[BASE TABLE]</text>
<polygon fill="none" stroke="#000000" points="780,-767.5 780,-797.5 1200,-797.5 1200,-767.5 780,-767.5"/>
<text text-anchor="start" x="787" y="-778.9" font-family="Arial" font-size="14.00" fill="#000000">t_chat_room_create_actions_pkey    </text>
<text text-anchor="start" x="1035.1598" y="-778.9" font-family="Arial" font-size="14.00" fill="#666666">[bigint]</text>
<polygon fill="none" stroke="#000000" points="780,-737.5 780,-767.5 1200,-767.5 1200,-737.5 780,-737.5"/>
<text text-anchor="start" x="787" y="-748.9" font-family="Arial" font-size="14.00" fill="#000000">chat_room_create_action_id    </text>
<text text-anchor="start" x="997.8106" y="-748.9" font-family="Arial" font-size="14.00" fill="#666666">[uuid]</text>
<polygon fill="none" stroke="#000000" points="780,-707.5 780,-737.5 1200,-737.5 1200,-707.5 780,-707.5"/>
<text text-anchor="start" x="787" y="-718.9" font-family="Arial" font-size="14.00" fill="#000000">chat_room_action_id    </text>
<text text-anchor="start" x="951.129" y="-718.9" font-family="Arial" font-size="14.00" fill="#666666">[uuid]</text>
<polygon fill="none" stroke="#000000" points="780,-677.5 780,-707.5 1200,-707.5 1200,-677.5 780,-677.5"/>
<text text-anchor="start" x="787" y="-688.9" font-family="Arial" font-size="14.00" fill="#000000">created_by    </text>
<text text-anchor="start" x="890.4516" y="-688.9" font-family="Arial" font-size="14.00" fill="#666666">[uuid]</text>
<polygon fill="none" stroke="#000000" points="780,-647.5 780,-677.5 1200,-677.5 1200,-647.5 780,-647.5"/>
<text text-anchor="start" x="787" y="-658.9" font-family="Arial" font-size="14.00" fill="#000000">name    </text>
<text text-anchor="start" x="856.2132" y="-658.9" font-family="Arial" font-size="14.00" fill="#666666">[varchar(255)]</text>
</g>
<!-- public.t_chat_room_create_actions&#45;&gt;public.t_chat_room_actions -->
<g id="edge2" class="edge">
<title>public.t_chat_room_create_actions:chat_room_action_id&#45;&gt;public.t_chat_room_actions:chat_room_action_id</title>
<path fill="none" stroke="#000000" d="M1210.0583,-721.7535C1268.7655,-712.1788 1202.9088,-612.8431 1252,-560 1383.4438,-418.5102 1461.8761,-397.5 1655,-397.5"/>
<polygon fill="#000000" stroke="#000000" points="1209.9726,-721.7598 1199.6669,-718.0123 1204.9863,-722.1299 1200,-722.5 1200,-722.5 1200,-722.5 1204.9863,-722.1299 1200.3331,-726.9877 1209.9726,-721.7598 1209.9726,-721.7598"/>
<text text-anchor="start" x="868.583" y="-706.5" font-family="Arial" font-size="10.00" fill="#000000">FOREIGN KEY (chat_room_action_id) REFERENCES t_chat_room_actions(chat_room_action_id) ON UPDATE RESTRICT ON DELETE RESTRICT</text>
</g>
<!-- public.t_chat_room_update_name_actions -->
<g id="node4" class="node">
<title>public.t_chat_room_update_name_actions</title>
<polygon fill="#efefef" stroke="transparent" points="1304,-797.5 1304,-832.5 1784,-832.5 1784,-797.5 1304,-797.5"/>
<polygon fill="none" stroke="#000000" points="1304,-797.5 1304,-832.5 1784,-832.5 1784,-797.5 1304,-797.5"/>
<text text-anchor="start" x="1310.6596" y="-810.3" font-family="Arial Bold" font-size="18.00" fill="#000000">public.t_chat_room_update_name_actions</text>
<text text-anchor="start" x="1649.7724" y="-810.3" font-family="Arial" font-size="14.00" fill="#000000">    </text>
<text text-anchor="start" x="1683.9772" y="-810.3" font-family="Arial" font-size="14.00" fill="#666666">[BASE TABLE]</text>
<polygon fill="none" stroke="#000000" points="1304,-767.5 1304,-797.5 1784,-797.5 1784,-767.5 1304,-767.5"/>
<text text-anchor="start" x="1311" y="-778.9" font-family="Arial" font-size="14.00" fill="#000000">t_chat_room_update_name_actions_pkey    </text>
<text text-anchor="start" x="1605.8554" y="-778.9" font-family="Arial" font-size="14.00" fill="#666666">[bigint]</text>
<polygon fill="none" stroke="#000000" points="1304,-737.5 1304,-767.5 1784,-767.5 1784,-737.5 1304,-737.5"/>
<text text-anchor="start" x="1311" y="-748.9" font-family="Arial" font-size="14.00" fill="#000000">chat_room_update_name_action_id    </text>
<text text-anchor="start" x="1568.5062" y="-748.9" font-family="Arial" font-size="14.00" fill="#666666">[uuid]</text>
<polygon fill="none" stroke="#000000" points="1304,-707.5 1304,-737.5 1784,-737.5 1784,-707.5 1304,-707.5"/>
<text text-anchor="start" x="1311" y="-718.9" font-family="Arial" font-size="14.00" fill="#000000">chat_room_action_id    </text>
<text text-anchor="start" x="1475.129" y="-718.9" font-family="Arial" font-size="14.00" fill="#666666">[uuid]</text>
<polygon fill="none" stroke="#000000" points="1304,-677.5 1304,-707.5 1784,-707.5 1784,-677.5 1304,-677.5"/>
<text text-anchor="start" x="1311" y="-688.9" font-family="Arial" font-size="14.00" fill="#000000">updated_by    </text>
<text text-anchor="start" x="1418.3562" y="-688.9" font-family="Arial" font-size="14.00" fill="#666666">[uuid]</text>
<polygon fill="none" stroke="#000000" points="1304,-647.5 1304,-677.5 1784,-677.5 1784,-647.5 1304,-647.5"/>
<text text-anchor="start" x="1311" y="-658.9" font-family="Arial" font-size="14.00" fill="#000000">name    </text>
<text text-anchor="start" x="1380.2132" y="-658.9" font-family="Arial" font-size="14.00" fill="#666666">[varchar(255)]</text>
</g>
<!-- public.t_chat_room_update_name_actions&#45;&gt;public.t_chat_room_actions -->
<g id="edge3" class="edge">
<title>public.t_chat_room_update_name_actions:chat_room_action_id&#45;&gt;public.t_chat_room_actions:chat_room_action_id</title>
<path fill="none" stroke="#000000" d="M1794.3523,-721.3535C1832.2305,-711.9863 1807.3926,-647.3102 1784,-605 1751.2436,-545.7536 1687.7564,-583.2464 1655,-524 1627.7966,-474.7972 1598.7778,-397.5 1655,-397.5"/>
<polygon fill="#000000" stroke="#000000" points="1793.9392,-721.3992 1783.5046,-718.0273 1788.9696,-721.9496 1784,-722.5 1784,-722.5 1784,-722.5 1788.9696,-721.9496 1784.4954,-726.9727 1793.9392,-721.3992 1793.9392,-721.3992"/>
<text text-anchor="start" x="1114.583" y="-732.5" font-family="Arial" font-size="10.00" fill="#000000">FOREIGN KEY (chat_room_action_id) REFERENCES t_chat_room_actions(chat_room_action_id) ON UPDATE RESTRICT ON DELETE RESTRICT</text>
</g>
<!-- public.t_chat_room_add_member_actions -->
<g id="node5" class="node">
<title>public.t_chat_room_add_member_actions</title>
<polygon fill="#efefef" stroke="transparent" points="1888,-782.5 1888,-817.5 2364,-817.5 2364,-782.5 1888,-782.5"/>
<polygon fill="none" stroke="#000000" points="1888,-782.5 1888,-817.5 2364,-817.5 2364,-782.5 1888,-782.5"/>
<text text-anchor="start" x="1894.6747" y="-795.3" font-family="Arial Bold" font-size="18.00" fill="#000000">public.t_chat_room_add_member_actions</text>
<text text-anchor="start" x="2229.7573" y="-795.3" font-family="Arial" font-size="14.00" fill="#000000">    </text>
<text text-anchor="start" x="2263.9621" y="-795.3" font-family="Arial" font-size="14.00" fill="#666666">[BASE TABLE]</text>
<polygon fill="none" stroke="#000000" points="1888,-752.5 1888,-782.5 2364,-782.5 2364,-752.5 1888,-752.5"/>
<text text-anchor="start" x="1895" y="-763.9" font-family="Arial" font-size="14.00" fill="#000000">t_chat_room_add_member_actions_pkey    </text>
<text text-anchor="start" x="2186.7208" y="-763.9" font-family="Arial" font-size="14.00" fill="#666666">[bigint]</text>
<polygon fill="none" stroke="#000000" points="1888,-722.5 1888,-752.5 2364,-752.5 2364,-722.5 1888,-722.5"/>
<text text-anchor="start" x="1895" y="-733.9" font-family="Arial" font-size="14.00" fill="#000000">chat_room_add_member_action_id    </text>
<text text-anchor="start" x="2149.3716" y="-733.9" font-family="Arial" font-size="14.00" fill="#666666">[uuid]</text>
<polygon fill="none" stroke="#000000" points="1888,-692.5 1888,-722.5 2364,-722.5 2364,-692.5 1888,-692.5"/>
<text text-anchor="start" x="1895" y="-703.9" font-family="Arial" font-size="14.00" fill="#000000">chat_room_action_id    </text>
<text text-anchor="start" x="2059.129" y="-703.9" font-family="Arial" font-size="14.00" fill="#666666">[uuid]</text>
<polygon fill="none" stroke="#000000" points="1888,-662.5 1888,-692.5 2364,-692.5 2364,-662.5 1888,-662.5"/>
<text text-anchor="start" x="1895" y="-673.9" font-family="Arial" font-size="14.00" fill="#000000">added_by    </text>
<text text-anchor="start" x="1990.683" y="-673.9" font-family="Arial" font-size="14.00" fill="#666666">[uuid]</text>
</g>
<!-- public.t_chat_room_add_member_actions&#45;&gt;public.t_chat_room_actions -->
<g id="edge4" class="edge">
<title>public.t_chat_room_add_member_actions:chat_room_action_id&#45;&gt;public.t_chat_room_actions:chat_room_action_id</title>
<path fill="none" stroke="#000000" d="M1877.9539,-705.9436C1853.4474,-696.9829 1872.4336,-651.28 1888,-620 1919.5238,-556.6543 1983.4762,-587.3457 2015,-524 2040.0485,-473.666 2071.2222,-397.5 2015,-397.5"/>
<polygon fill="#000000" stroke="#000000" points="1878.1179,-705.9689 1887.311,-711.9469 1883.0589,-706.7345 1888,-707.5 1888,-707.5 1888,-707.5 1883.0589,-706.7345 1888.689,-703.0531 1878.1179,-705.9689 1878.1179,-705.9689"/>
<text text-anchor="start" x="1556.583" y="-691.5" font-family="Arial" font-size="10.00" fill="#000000">FOREIGN KEY (chat_room_action_id) REFERENCES t_chat_room_actions(chat_room_action_id) ON UPDATE RESTRICT ON DELETE RESTRICT</text>
</g>
<!-- public.t_chat_room_remove_member_actions -->
<g id="node6" class="node">
<title>public.t_chat_room_remove_member_actions</title>
<polygon fill="#efefef" stroke="transparent" points="2468,-782.5 2468,-817.5 2974,-817.5 2974,-782.5 2468,-782.5"/>
<polygon fill="none" stroke="#000000" points="2468,-782.5 2468,-817.5 2974,-817.5 2974,-782.5 2468,-782.5"/>
<text text-anchor="start" x="2474.6825" y="-795.3" font-family="Arial Bold" font-size="18.00" fill="#000000">public.t_chat_room_remove_member_actions</text>
<text text-anchor="start" x="2839.7495" y="-795.3" font-family="Arial" font-size="14.00" fill="#000000">    </text>
<text text-anchor="start" x="2873.9543" y="-795.3" font-family="Arial" font-size="14.00" fill="#666666">[BASE TABLE]</text>
<polygon fill="none" stroke="#000000" points="2468,-752.5 2468,-782.5 2974,-782.5 2974,-752.5 2468,-752.5"/>
<text text-anchor="start" x="2475" y="-763.9" font-family="Arial" font-size="14.00" fill="#000000">t_chat_room_remove_member_actions_pkey    </text>
<text text-anchor="start" x="2790.042" y="-763.9" font-family="Arial" font-size="14.00" fill="#666666">[bigint]</text>
<polygon fill="none" stroke="#000000" points="2468,-722.5 2468,-752.5 2974,-752.5 2974,-722.5 2468,-722.5"/>
<text text-anchor="start" x="2475" y="-733.9" font-family="Arial" font-size="14.00" fill="#000000">chat_room_remove_member_action_id    </text>
<text text-anchor="start" x="2752.6928" y="-733.9" font-family="Arial" font-size="14.00" fill="#666666">[uuid]</text>
<polygon fill="none" stroke="#000000" points="2468,-692.5 2468,-722.5 2974,-722.5 2974,-692.5 2468,-692.5"/>
<text text-anchor="start" x="2475" y="-703.9" font-family="Arial" font-size="14.00" fill="#000000">chat_room_action_id    </text>
<text text-anchor="start" x="2639.129" y="-703.9" font-family="Arial" font-size="14.00" fill="#666666">[uuid]</text>
<polygon fill="none" stroke="#000000" points="2468,-662.5 2468,-692.5 2974,-692.5 2974,-662.5 2468,-662.5"/>
<text text-anchor="start" x="2475" y="-673.9" font-family="Arial" font-size="14.00" fill="#000000">removed_by    </text>
<text text-anchor="start" x="2586.2216" y="-673.9" font-family="Arial" font-size="14.00" fill="#666666">[uuid]</text>
</g>
<!-- public.t_chat_room_remove_member_actions&#45;&gt;public.t_chat_room_actions -->
<g id="edge5" class="edge">
<title>public.t_chat_room_remove_member_actions:chat_room_action_id&#45;&gt;public.t_chat_room_actions:chat_room_action_id</title>
<path fill="none" stroke="#000000" d="M2457.7668,-706.6512C2405.3162,-697.0059 2461.3805,-607.5211 2416,-560 2283.1919,-420.9273 2207.2998,-397.5 2015,-397.5"/>
<polygon fill="#000000" stroke="#000000" points="2458.0342,-706.6733 2467.628,-711.9846 2463.0171,-707.0867 2468,-707.5 2468,-707.5 2468,-707.5 2463.0171,-707.0867 2468.372,-703.0154 2458.0342,-706.6733 2458.0342,-706.6733"/>
<text text-anchor="start" x="2474.583" y="-717.5" font-family="Arial" font-size="10.00" fill="#000000">FOREIGN KEY (chat_room_action_id) REFERENCES t_chat_room_actions(chat_room_action_id) ON UPDATE RESTRICT ON DELETE RESTRICT</text>
</g>
<!-- public.t_chat_room_withdraw_actions -->
<g id="node7" class="node">
<title>public.t_chat_room_withdraw_actions</title>
<polygon fill="#efefef" stroke="transparent" points="3079,-782.5 3079,-817.5 3520,-817.5 3520,-782.5 3079,-782.5"/>
<polygon fill="none" stroke="#000000" points="3079,-782.5 3079,-817.5 3520,-817.5 3520,-782.5 3079,-782.5"/>
<text text-anchor="start" x="3085.6869" y="-795.3" font-family="Arial Bold" font-size="18.00" fill="#000000">public.t_chat_room_withdraw_actions</text>
<text text-anchor="start" x="3385.7451" y="-795.3" font-family="Arial" font-size="14.00" fill="#000000">    </text>
<text text-anchor="start" x="3419.9499" y="-795.3" font-family="Arial" font-size="14.00" fill="#666666">[BASE TABLE]</text>
<polygon fill="none" stroke="#000000" points="3079,-752.5 3079,-782.5 3520,-782.5 3520,-752.5 3079,-752.5"/>
<text text-anchor="start" x="3086" y="-763.9" font-family="Arial" font-size="14.00" fill="#000000">t_chat_room_withdraw_actions_pkey    </text>
<text text-anchor="start" x="3350.4796" y="-763.9" font-family="Arial" font-size="14.00" fill="#666666">[bigint]</text>
<polygon fill="none" stroke="#000000" points="3079,-722.5 3079,-752.5 3520,-752.5 3520,-722.5 3079,-722.5"/>
<text text-anchor="start" x="3086" y="-733.9" font-family="Arial" font-size="14.00" fill="#000000">chat_room_withdraw_action_id    </text>
<text text-anchor="start" x="3313.1304" y="-733.9" font-family="Arial" font-size="14.00" fill="#666666">[uuid]</text>
<polygon fill="none" stroke="#000000" points="3079,-692.5 3079,-722.5 3520,-722.5 3520,-692.5 3079,-692.5"/>
<text text-anchor="start" x="3086" y="-703.9" font-family="Arial" font-size="14.00" fill="#000000">chat_room_action_id    </text>
<text text-anchor="start" x="3250.129" y="-703.9" font-family="Arial" font-size="14.00" fill="#666666">[uuid]</text>
<polygon fill="none" stroke="#000000" points="3079,-662.5 3079,-692.5 3520,-692.5 3520,-662.5 3079,-662.5"/>
<text text-anchor="start" x="3086" y="-673.9" font-family="Arial" font-size="14.00" fill="#000000">member_id    </text>
<text text-anchor="start" x="3190.2062" y="-673.9" font-family="Arial" font-size="14.00" fill="#666666">[uuid]</text>
</g>
<!-- public.t_chat_room_withdraw_actions&#45;&gt;public.t_chat_room_actions -->
<g id="edge6" class="edge">
<title>public.t_chat_room_withdraw_actions:chat_room_action_id&#45;&gt;public.t_chat_room_actions:chat_room_action_id</title>
<path fill="none" stroke="#000000" d="M3068.7838,-706.6021C3016.6559,-696.4073 3076.6769,-602.0479 3026,-560 2850.8807,-414.6991 2242.5503,-397.5 2015,-397.5"/>
<polygon fill="#000000" stroke="#000000" points="3069.0384,-706.6244 3078.606,-711.9827 3074.0192,-707.0622 3079,-707.5 3079,-707.5 3079,-707.5 3074.0192,-707.0622 3079.394,-703.0173 3069.0384,-706.6244 3069.0384,-706.6244"/>
<text text-anchor="start" x="3085.583" y="-691.5" font-family="Arial" font-size="10.00" fill="#000000">FOREIGN KEY (chat_room_action_id) REFERENCES t_chat_room_actions(chat_room_action_id) ON UPDATE RESTRICT ON DELETE RESTRICT</text>
</g>
</g>
</svg>
