<?xml version="1.0" encoding="UTF-8" standalone="no"?>
<!DOCTYPE svg PUBLIC "-//W3C//DTD SVG 1.1//EN"
 "http://www.w3.org/Graphics/SVG/1.1/DTD/svg11.dtd">
<!-- Generated by graphviz version 2.40.1 (20161225.0304)
 -->
<!-- Title: public.m_organizations Pages: 1 -->
<svg width="3692pt" height="1499pt"
 viewBox="0.00 0.00 3692.00 1499.00" xmlns="http://www.w3.org/2000/svg" xmlns:xlink="http://www.w3.org/1999/xlink">
<g id="graph0" class="graph" transform="scale(1 1) rotate(0) translate(4 1495)">
<title>public.m_organizations</title>
<polygon fill="#ffffff" stroke="transparent" points="-4,4 -4,-1495 3688,-1495 3688,4 -4,4"/>
<!-- public.m_organizations -->
<g id="node1" class="node">
<title>public.m_organizations</title>
<polygon fill="#efefef" stroke="transparent" points="1847,-772.5 1847,-807.5 2172,-807.5 2172,-772.5 1847,-772.5"/>
<polygon fill="none" stroke="#000000" points="1847,-772.5 1847,-807.5 2172,-807.5 2172,-772.5 1847,-772.5"/>
<text text-anchor="start" x="1853.6991" y="-785.3" font-family="Arial Bold" font-size="18.00" fill="#000000">public.m_organizations</text>
<text text-anchor="start" x="2037.7329" y="-785.3" font-family="Arial" font-size="14.00" fill="#000000">    </text>
<text text-anchor="start" x="2071.9377" y="-785.3" font-family="Arial" font-size="14.00" fill="#666666">[BASE TABLE]</text>
<polygon fill="none" stroke="#000000" points="1847,-742.5 1847,-772.5 2172,-772.5 2172,-742.5 1847,-742.5"/>
<text text-anchor="start" x="1854" y="-753.9" font-family="Arial" font-size="14.00" fill="#000000">m_organizations_pkey </text>
<text text-anchor="start" x="1997.9242" y="-753.9" font-family="Arial" font-size="14.00" fill="#666666">[bigint]</text>
<polygon fill="none" stroke="#000000" points="1847,-712.5 1847,-742.5 2172,-742.5 2172,-712.5 1847,-712.5"/>
<text text-anchor="start" x="1854" y="-723.9" font-family="Arial" font-size="14.00" fill="#000000">organization_id </text>
<text text-anchor="start" x="1952.805" y="-723.9" font-family="Arial" font-size="14.00" fill="#666666">[uuid]</text>
<polygon fill="none" stroke="#000000" points="1847,-682.5 1847,-712.5 2172,-712.5 2172,-682.5 1847,-682.5"/>
<text text-anchor="start" x="1854" y="-693.9" font-family="Arial" font-size="14.00" fill="#000000">name </text>
<text text-anchor="start" x="1892.899" y="-693.9" font-family="Arial" font-size="14.00" fill="#666666">[varchar(255)]</text>
<polygon fill="none" stroke="#000000" points="1847,-652.5 1847,-682.5 2172,-682.5 2172,-652.5 1847,-652.5"/>
<text text-anchor="start" x="1854" y="-663.9" font-family="Arial" font-size="14.00" fill="#000000">description </text>
<text text-anchor="start" x="1925.568" y="-663.9" font-family="Arial" font-size="14.00" fill="#666666">[text]</text>
<polygon fill="none" stroke="#000000" points="1847,-622.5 1847,-652.5 2172,-652.5 2172,-622.5 1847,-622.5"/>
<text text-anchor="start" x="1854" y="-633.9" font-family="Arial" font-size="14.00" fill="#000000">color </text>
<text text-anchor="start" x="1888.223" y="-633.9" font-family="Arial" font-size="14.00" fill="#666666">[varchar(7)]</text>
<polygon fill="none" stroke="#000000" points="1847,-592.5 1847,-622.5 2172,-622.5 2172,-592.5 1847,-592.5"/>
<text text-anchor="start" x="1854" y="-603.9" font-family="Arial" font-size="14.00" fill="#000000">is_personal </text>
<text text-anchor="start" x="1929.46" y="-603.9" font-family="Arial" font-size="14.00" fill="#666666">[boolean]</text>
<polygon fill="none" stroke="#000000" points="1847,-562.5 1847,-592.5 2172,-592.5 2172,-562.5 1847,-562.5"/>
<text text-anchor="start" x="1854" y="-573.9" font-family="Arial" font-size="14.00" fill="#000000">is_whole </text>
<text text-anchor="start" x="1912.3408" y="-573.9" font-family="Arial" font-size="14.00" fill="#666666">[boolean]</text>
<polygon fill="none" stroke="#000000" points="1847,-532.5 1847,-562.5 2172,-562.5 2172,-532.5 1847,-532.5"/>
<text text-anchor="start" x="1854" y="-543.9" font-family="Arial" font-size="14.00" fill="#000000">created_at </text>
<text text-anchor="start" x="1924.028" y="-543.9" font-family="Arial" font-size="14.00" fill="#666666">[timestamp with time zone]</text>
<polygon fill="none" stroke="#000000" points="1847,-502.5 1847,-532.5 2172,-532.5 2172,-502.5 1847,-502.5"/>
<text text-anchor="start" x="1854" y="-513.9" font-family="Arial" font-size="14.00" fill="#000000">updated_at </text>
<text text-anchor="start" x="1927.9326" y="-513.9" font-family="Arial" font-size="14.00" fill="#666666">[timestamp with time zone]</text>
<polygon fill="none" stroke="#000000" points="1847,-472.5 1847,-502.5 2172,-502.5 2172,-472.5 1847,-472.5"/>
<text text-anchor="start" x="1854" y="-483.9" font-family="Arial" font-size="14.00" fill="#000000">chat_room_id </text>
<text text-anchor="start" x="1942.6872" y="-483.9" font-family="Arial" font-size="14.00" fill="#666666">[uuid]</text>
<polygon fill="none" stroke="#000000" stroke-width="3" points="1845,-471.5 1845,-809.5 2173,-809.5 2173,-471.5 1845,-471.5"/>
</g>
<!-- public.m_chat_rooms -->
<g id="node10" class="node">
<title>public.m_chat_rooms</title>
<polygon fill="#efefef" stroke="transparent" points="1854,-312.5 1854,-347.5 2166,-347.5 2166,-312.5 1854,-312.5"/>
<polygon fill="none" stroke="#000000" points="1854,-312.5 1854,-347.5 2166,-347.5 2166,-312.5 1854,-312.5"/>
<text text-anchor="start" x="1860.7034" y="-325.3" font-family="Arial Bold" font-size="18.00" fill="#000000">public.m_chat_rooms</text>
<text text-anchor="start" x="2031.7286" y="-325.3" font-family="Arial" font-size="14.00" fill="#000000">    </text>
<text text-anchor="start" x="2065.9334" y="-325.3" font-family="Arial" font-size="14.00" fill="#666666">[BASE TABLE]</text>
<polygon fill="none" stroke="#000000" points="1854,-282.5 1854,-312.5 2166,-312.5 2166,-282.5 1854,-282.5"/>
<text text-anchor="start" x="1861" y="-293.9" font-family="Arial" font-size="14.00" fill="#000000">m_chat_rooms_pkey    </text>
<text text-anchor="start" x="2025.1206" y="-293.9" font-family="Arial" font-size="14.00" fill="#666666">[bigint]</text>
<polygon fill="none" stroke="#000000" points="1854,-252.5 1854,-282.5 2166,-282.5 2166,-252.5 1854,-252.5"/>
<text text-anchor="start" x="1861" y="-263.9" font-family="Arial" font-size="14.00" fill="#000000">chat_room_id    </text>
<text text-anchor="start" x="1980.0014" y="-263.9" font-family="Arial" font-size="14.00" fill="#666666">[uuid]</text>
<polygon fill="none" stroke="#000000" points="1854,-222.5 1854,-252.5 2166,-252.5 2166,-222.5 1854,-222.5"/>
<text text-anchor="start" x="1861" y="-233.9" font-family="Arial" font-size="14.00" fill="#000000">name    </text>
<text text-anchor="start" x="1930.2132" y="-233.9" font-family="Arial" font-size="14.00" fill="#666666">[varchar(255)]</text>
<polygon fill="none" stroke="#000000" points="1854,-192.5 1854,-222.5 2166,-222.5 2166,-192.5 1854,-192.5"/>
<text text-anchor="start" x="1861" y="-203.9" font-family="Arial" font-size="14.00" fill="#000000">is_private    </text>
<text text-anchor="start" x="1955.0996" y="-203.9" font-family="Arial" font-size="14.00" fill="#666666">[boolean]</text>
<polygon fill="none" stroke="#000000" points="1854,-162.5 1854,-192.5 2166,-192.5 2166,-162.5 1854,-162.5"/>
<text text-anchor="start" x="1861" y="-173.9" font-family="Arial" font-size="14.00" fill="#000000">cover_image_id    </text>
<text text-anchor="start" x="1994" y="-173.9" font-family="Arial" font-size="14.00" fill="#666666">[uuid]</text>
<polygon fill="none" stroke="#000000" points="1854,-132.5 1854,-162.5 2166,-162.5 2166,-132.5 1854,-132.5"/>
<text text-anchor="start" x="1861" y="-143.9" font-family="Arial" font-size="14.00" fill="#000000">owner_id    </text>
<text text-anchor="start" x="1951.9916" y="-143.9" font-family="Arial" font-size="14.00" fill="#666666">[uuid]</text>
<polygon fill="none" stroke="#000000" points="1854,-102.5 1854,-132.5 2166,-132.5 2166,-102.5 1854,-102.5"/>
<text text-anchor="start" x="1861" y="-113.9" font-family="Arial" font-size="14.00" fill="#000000">from_organization    </text>
<text text-anchor="start" x="2007.2244" y="-113.9" font-family="Arial" font-size="14.00" fill="#666666">[boolean]</text>
<polygon fill="none" stroke="#000000" points="1854,-72.5 1854,-102.5 2166,-102.5 2166,-72.5 1854,-72.5"/>
<text text-anchor="start" x="1861" y="-83.9" font-family="Arial" font-size="14.00" fill="#000000">created_at    </text>
<text text-anchor="start" x="1961.3422" y="-83.9" font-family="Arial" font-size="14.00" fill="#666666">[timestamp with time zone]</text>
<polygon fill="none" stroke="#000000" points="1854,-42.5 1854,-72.5 2166,-72.5 2166,-42.5 1854,-42.5"/>
<text text-anchor="start" x="1861" y="-53.9" font-family="Arial" font-size="14.00" fill="#000000">updated_at    </text>
<text text-anchor="start" x="1965.2468" y="-53.9" font-family="Arial" font-size="14.00" fill="#666666">[timestamp with time zone]</text>
</g>
<!-- public.m_organizations&#45;&gt;public.m_chat_rooms -->
<g id="edge10" class="edge">
<title>public.m_organizations:chat_room_id&#45;&gt;public.m_chat_rooms:chat_room_id</title>
<path fill="none" stroke="#000000" d="M2009.2585,-462.4066C1999.3395,-399.9535 1892.632,-454.7691 1854,-391 1825.5596,-344.0539 1799.1111,-267.5 1854,-267.5"/>
<polygon fill="#000000" stroke="#000000" points="2009.2672,-462.5269 2005.5121,-472.8298 2009.6336,-467.5134 2010,-472.5 2010,-472.5 2010,-472.5 2009.6336,-467.5134 2014.4879,-472.1702 2009.2672,-462.5269 2009.2672,-462.5269"/>
<text text-anchor="start" x="2017.159" y="-482.5" font-family="Arial" font-size="10.00" fill="#000000">FOREIGN KEY (chat_room_id) REFERENCES m_chat_rooms(chat_room_id) ON UPDATE RESTRICT ON DELETE RESTRICT</text>
</g>
<!-- public.m_work_positions -->
<g id="node2" class="node">
<title>public.m_work_positions</title>
<polygon fill="#efefef" stroke="transparent" points="267,-1277.5 267,-1312.5 604,-1312.5 604,-1277.5 267,-1277.5"/>
<polygon fill="none" stroke="#000000" points="267,-1277.5 267,-1312.5 604,-1312.5 604,-1277.5 267,-1277.5"/>
<text text-anchor="start" x="273.7051" y="-1290.3" font-family="Arial Bold" font-size="18.00" fill="#000000">public.m_work_positions</text>
<text text-anchor="start" x="469.7269" y="-1290.3" font-family="Arial" font-size="14.00" fill="#000000">    </text>
<text text-anchor="start" x="503.9317" y="-1290.3" font-family="Arial" font-size="14.00" fill="#666666">[BASE TABLE]</text>
<polygon fill="none" stroke="#000000" points="267,-1247.5 267,-1277.5 604,-1277.5 604,-1247.5 267,-1247.5"/>
<text text-anchor="start" x="274" y="-1258.9" font-family="Arial" font-size="14.00" fill="#000000">m_work_positions_pkey    </text>
<text text-anchor="start" x="457.5624" y="-1258.9" font-family="Arial" font-size="14.00" fill="#666666">[bigint]</text>
<polygon fill="none" stroke="#000000" points="267,-1217.5 267,-1247.5 604,-1247.5 604,-1217.5 267,-1217.5"/>
<text text-anchor="start" x="274" y="-1228.9" font-family="Arial" font-size="14.00" fill="#000000">work_position_id    </text>
<text text-anchor="start" x="412.4432" y="-1228.9" font-family="Arial" font-size="14.00" fill="#666666">[uuid]</text>
<polygon fill="none" stroke="#000000" points="267,-1187.5 267,-1217.5 604,-1217.5 604,-1187.5 267,-1187.5"/>
<text text-anchor="start" x="274" y="-1198.9" font-family="Arial" font-size="14.00" fill="#000000">organization_id    </text>
<text text-anchor="start" x="403.1192" y="-1198.9" font-family="Arial" font-size="14.00" fill="#666666">[uuid]</text>
<polygon fill="none" stroke="#000000" points="267,-1157.5 267,-1187.5 604,-1187.5 604,-1157.5 267,-1157.5"/>
<text text-anchor="start" x="274" y="-1168.9" font-family="Arial" font-size="14.00" fill="#000000">name    </text>
<text text-anchor="start" x="343.2132" y="-1168.9" font-family="Arial" font-size="14.00" fill="#666666">[varchar(255)]</text>
<polygon fill="none" stroke="#000000" points="267,-1127.5 267,-1157.5 604,-1157.5 604,-1127.5 267,-1127.5"/>
<text text-anchor="start" x="274" y="-1138.9" font-family="Arial" font-size="14.00" fill="#000000">description    </text>
<text text-anchor="start" x="375.8822" y="-1138.9" font-family="Arial" font-size="14.00" fill="#666666">[text]</text>
<polygon fill="none" stroke="#000000" points="267,-1097.5 267,-1127.5 604,-1127.5 604,-1097.5 267,-1097.5"/>
<text text-anchor="start" x="274" y="-1108.9" font-family="Arial" font-size="14.00" fill="#000000">created_at    </text>
<text text-anchor="start" x="374.3422" y="-1108.9" font-family="Arial" font-size="14.00" fill="#666666">[timestamp with time zone]</text>
<polygon fill="none" stroke="#000000" points="267,-1067.5 267,-1097.5 604,-1097.5 604,-1067.5 267,-1067.5"/>
<text text-anchor="start" x="274" y="-1078.9" font-family="Arial" font-size="14.00" fill="#000000">updated_at    </text>
<text text-anchor="start" x="378.2468" y="-1078.9" font-family="Arial" font-size="14.00" fill="#666666">[timestamp with time zone]</text>
</g>
<!-- public.m_work_positions&#45;&gt;public.m_organizations -->
<g id="edge1" class="edge">
<title>public.m_work_positions:organization_id&#45;&gt;public.m_organizations:organization_id</title>
<path fill="none" stroke="#000000" d="M614.0008,-1200.3725C667.3391,-1175.3151 607.2542,-936.5071 655,-890 750.7526,-796.7317 1713.3305,-727.5 1847,-727.5"/>
<polygon fill="#000000" stroke="#000000" points="613.7811,-1200.4192 603.0636,-1198.0985 608.8906,-1201.4596 604,-1202.5 604,-1202.5 604,-1202.5 608.8906,-1201.4596 604.9364,-1206.9015 613.7811,-1200.4192 613.7811,-1200.4192"/>
<text text-anchor="start" x="6.9775" y="-1212.5" font-family="Arial" font-size="10.00" fill="#000000">FOREIGN KEY (organization_id) REFERENCES m_organizations(organization_id) ON UPDATE CASCADE ON DELETE CASCADE</text>
</g>
<!-- public.m_groups -->
<g id="node3" class="node">
<title>public.m_groups</title>
<polygon fill="#efefef" stroke="transparent" points="708,-1232.5 708,-1267.5 981,-1267.5 981,-1232.5 708,-1232.5"/>
<polygon fill="none" stroke="#000000" points="708,-1232.5 708,-1267.5 981,-1267.5 981,-1232.5 708,-1232.5"/>
<text text-anchor="start" x="714.7037" y="-1245.3" font-family="Arial Bold" font-size="18.00" fill="#000000">public.m_groups</text>
<text text-anchor="start" x="846.7283" y="-1245.3" font-family="Arial" font-size="14.00" fill="#000000">    </text>
<text text-anchor="start" x="880.9331" y="-1245.3" font-family="Arial" font-size="14.00" fill="#666666">[BASE TABLE]</text>
<polygon fill="none" stroke="#000000" points="708,-1202.5 708,-1232.5 981,-1232.5 981,-1202.5 708,-1202.5"/>
<text text-anchor="start" x="715" y="-1213.9" font-family="Arial" font-size="14.00" fill="#000000">m_groups_pkey    </text>
<text text-anchor="start" x="848.7868" y="-1213.9" font-family="Arial" font-size="14.00" fill="#666666">[bigint]</text>
<polygon fill="none" stroke="#000000" points="708,-1172.5 708,-1202.5 981,-1202.5 981,-1172.5 708,-1172.5"/>
<text text-anchor="start" x="715" y="-1183.9" font-family="Arial" font-size="14.00" fill="#000000">group_id    </text>
<text text-anchor="start" x="803.6676" y="-1183.9" font-family="Arial" font-size="14.00" fill="#666666">[uuid]</text>
<polygon fill="none" stroke="#000000" points="708,-1142.5 708,-1172.5 981,-1172.5 981,-1142.5 708,-1142.5"/>
<text text-anchor="start" x="715" y="-1153.9" font-family="Arial" font-size="14.00" fill="#000000">key    </text>
<text text-anchor="start" x="770.9874" y="-1153.9" font-family="Arial" font-size="14.00" fill="#666666">[varchar(255)]</text>
<polygon fill="none" stroke="#000000" points="708,-1112.5 708,-1142.5 981,-1142.5 981,-1112.5 708,-1112.5"/>
<text text-anchor="start" x="715" y="-1123.9" font-family="Arial" font-size="14.00" fill="#000000">organization_id    </text>
<text text-anchor="start" x="844.1192" y="-1123.9" font-family="Arial" font-size="14.00" fill="#666666">[uuid]</text>
</g>
<!-- public.m_groups&#45;&gt;public.m_organizations -->
<g id="edge2" class="edge">
<title>public.m_groups:organization_id&#45;&gt;public.m_organizations:organization_id</title>
<path fill="none" stroke="#000000" d="M991.2408,-1126.9431C1080.0573,-1116.5451 957.7281,-963.1866 1032,-890 1163.5432,-760.3789 1662.3239,-727.5 1847,-727.5"/>
<polygon fill="#000000" stroke="#000000" points="990.9852,-1126.9569 980.7556,-1123.0066 985.9926,-1127.2284 981,-1127.5 981,-1127.5 981,-1127.5 985.9926,-1127.2284 981.2444,-1131.9934 990.9852,-1126.9569 990.9852,-1126.9569"/>
<text text-anchor="start" x="684.8185" y="-1111.5" font-family="Arial" font-size="10.00" fill="#000000">FOREIGN KEY (organization_id) REFERENCES m_organizations(organization_id) ON UPDATE RESTRICT ON DELETE RESTRICT</text>
</g>
<!-- public.m_grades -->
<g id="node4" class="node">
<title>public.m_grades</title>
<polygon fill="#efefef" stroke="transparent" points="1085,-1232.5 1085,-1267.5 1358,-1267.5 1358,-1232.5 1085,-1232.5"/>
<polygon fill="none" stroke="#000000" points="1085,-1232.5 1085,-1267.5 1358,-1267.5 1358,-1232.5 1085,-1232.5"/>
<text text-anchor="start" x="1091.7037" y="-1245.3" font-family="Arial Bold" font-size="18.00" fill="#000000">public.m_grades</text>
<text text-anchor="start" x="1223.7283" y="-1245.3" font-family="Arial" font-size="14.00" fill="#000000">    </text>
<text text-anchor="start" x="1257.9331" y="-1245.3" font-family="Arial" font-size="14.00" fill="#666666">[BASE TABLE]</text>
<polygon fill="none" stroke="#000000" points="1085,-1202.5 1085,-1232.5 1358,-1232.5 1358,-1202.5 1085,-1202.5"/>
<text text-anchor="start" x="1092" y="-1213.9" font-family="Arial" font-size="14.00" fill="#000000">m_grades_pkey    </text>
<text text-anchor="start" x="1225.7868" y="-1213.9" font-family="Arial" font-size="14.00" fill="#666666">[bigint]</text>
<polygon fill="none" stroke="#000000" points="1085,-1172.5 1085,-1202.5 1358,-1202.5 1358,-1172.5 1085,-1172.5"/>
<text text-anchor="start" x="1092" y="-1183.9" font-family="Arial" font-size="14.00" fill="#000000">grade_id    </text>
<text text-anchor="start" x="1180.6676" y="-1183.9" font-family="Arial" font-size="14.00" fill="#666666">[uuid]</text>
<polygon fill="none" stroke="#000000" points="1085,-1142.5 1085,-1172.5 1358,-1172.5 1358,-1142.5 1085,-1142.5"/>
<text text-anchor="start" x="1092" y="-1153.9" font-family="Arial" font-size="14.00" fill="#000000">key    </text>
<text text-anchor="start" x="1147.9874" y="-1153.9" font-family="Arial" font-size="14.00" fill="#666666">[varchar(255)]</text>
<polygon fill="none" stroke="#000000" points="1085,-1112.5 1085,-1142.5 1358,-1142.5 1358,-1112.5 1085,-1112.5"/>
<text text-anchor="start" x="1092" y="-1123.9" font-family="Arial" font-size="14.00" fill="#000000">organization_id    </text>
<text text-anchor="start" x="1221.1192" y="-1123.9" font-family="Arial" font-size="14.00" fill="#666666">[uuid]</text>
</g>
<!-- public.m_grades&#45;&gt;public.m_organizations -->
<g id="edge3" class="edge">
<title>public.m_grades:organization_id&#45;&gt;public.m_organizations:organization_id</title>
<path fill="none" stroke="#000000" d="M1367.9907,-1126.9929C1457.7054,-1117.2308 1340.6845,-968.9151 1409,-890 1544.8965,-733.0182 1639.3677,-727.5 1847,-727.5"/>
<polygon fill="#000000" stroke="#000000" points="1367.9871,-1126.993 1357.7718,-1123.0058 1362.9936,-1127.2465 1358,-1127.5 1358,-1127.5 1358,-1127.5 1362.9936,-1127.2465 1358.2282,-1131.9942 1367.9871,-1126.993 1367.9871,-1126.993"/>
<text text-anchor="start" x="758.3185" y="-1137.5" font-family="Arial" font-size="10.00" fill="#000000">FOREIGN KEY (organization_id) REFERENCES m_organizations(organization_id) ON UPDATE RESTRICT ON DELETE RESTRICT</text>
</g>
<!-- public.m_members -->
<g id="node5" class="node">
<title>public.m_members</title>
<polygon fill="#efefef" stroke="transparent" points="1462,-1412.5 1462,-1447.5 1755,-1447.5 1755,-1412.5 1462,-1412.5"/>
<polygon fill="none" stroke="#000000" points="1462,-1412.5 1462,-1447.5 1755,-1447.5 1755,-1412.5 1462,-1412.5"/>
<text text-anchor="start" x="1468.7146" y="-1425.3" font-family="Arial Bold" font-size="18.00" fill="#000000">public.m_members</text>
<text text-anchor="start" x="1620.7174" y="-1425.3" font-family="Arial" font-size="14.00" fill="#000000">    </text>
<text text-anchor="start" x="1654.9222" y="-1425.3" font-family="Arial" font-size="14.00" fill="#666666">[BASE TABLE]</text>
<polygon fill="none" stroke="#000000" points="1462,-1382.5 1462,-1412.5 1755,-1412.5 1755,-1382.5 1462,-1382.5"/>
<text text-anchor="start" x="1469" y="-1393.9" font-family="Arial" font-size="14.00" fill="#000000">m_members_pkey    </text>
<text text-anchor="start" x="1618.3254" y="-1393.9" font-family="Arial" font-size="14.00" fill="#666666">[bigint]</text>
<polygon fill="none" stroke="#000000" points="1462,-1352.5 1462,-1382.5 1755,-1382.5 1755,-1352.5 1462,-1352.5"/>
<text text-anchor="start" x="1469" y="-1363.9" font-family="Arial" font-size="14.00" fill="#000000">member_id    </text>
<text text-anchor="start" x="1573.2062" y="-1363.9" font-family="Arial" font-size="14.00" fill="#666666">[uuid]</text>
<polygon fill="none" stroke="#000000" points="1462,-1322.5 1462,-1352.5 1755,-1352.5 1755,-1322.5 1462,-1322.5"/>
<text text-anchor="start" x="1469" y="-1333.9" font-family="Arial" font-size="14.00" fill="#000000">login_id    </text>
<text text-anchor="start" x="1551.4376" y="-1333.9" font-family="Arial" font-size="14.00" fill="#666666">[varchar(255)]</text>
<polygon fill="none" stroke="#000000" points="1462,-1292.5 1462,-1322.5 1755,-1322.5 1755,-1292.5 1462,-1292.5"/>
<text text-anchor="start" x="1469" y="-1303.9" font-family="Arial" font-size="14.00" fill="#000000">password    </text>
<text text-anchor="start" x="1563.1024" y="-1303.9" font-family="Arial" font-size="14.00" fill="#666666">[varchar(255)]</text>
<polygon fill="none" stroke="#000000" points="1462,-1262.5 1462,-1292.5 1755,-1292.5 1755,-1262.5 1462,-1262.5"/>
<text text-anchor="start" x="1469" y="-1273.9" font-family="Arial" font-size="14.00" fill="#000000">email    </text>
<text text-anchor="start" x="1536.6438" y="-1273.9" font-family="Arial" font-size="14.00" fill="#666666">[varchar(255)]</text>
<polygon fill="none" stroke="#000000" points="1462,-1232.5 1462,-1262.5 1755,-1262.5 1755,-1232.5 1462,-1232.5"/>
<text text-anchor="start" x="1469" y="-1243.9" font-family="Arial" font-size="14.00" fill="#000000">name    </text>
<text text-anchor="start" x="1538.2132" y="-1243.9" font-family="Arial" font-size="14.00" fill="#666666">[varchar(255)]</text>
<polygon fill="none" stroke="#000000" points="1462,-1202.5 1462,-1232.5 1755,-1232.5 1755,-1202.5 1462,-1202.5"/>
<text text-anchor="start" x="1469" y="-1213.9" font-family="Arial" font-size="14.00" fill="#000000">first_name    </text>
<text text-anchor="start" x="1568.5442" y="-1213.9" font-family="Arial" font-size="14.00" fill="#666666">[varchar(255)]</text>
<polygon fill="none" stroke="#000000" points="1462,-1172.5 1462,-1202.5 1755,-1202.5 1755,-1172.5 1462,-1172.5"/>
<text text-anchor="start" x="1469" y="-1183.9" font-family="Arial" font-size="14.00" fill="#000000">last_name    </text>
<text text-anchor="start" x="1567.7756" y="-1183.9" font-family="Arial" font-size="14.00" fill="#666666">[varchar(255)]</text>
<polygon fill="none" stroke="#000000" points="1462,-1142.5 1462,-1172.5 1755,-1172.5 1755,-1142.5 1462,-1142.5"/>
<text text-anchor="start" x="1469" y="-1153.9" font-family="Arial" font-size="14.00" fill="#000000">attend_status_id    </text>
<text text-anchor="start" x="1605.9172" y="-1153.9" font-family="Arial" font-size="14.00" fill="#666666">[uuid]</text>
<polygon fill="none" stroke="#000000" points="1462,-1112.5 1462,-1142.5 1755,-1142.5 1755,-1112.5 1462,-1112.5"/>
<text text-anchor="start" x="1469" y="-1123.9" font-family="Arial" font-size="14.00" fill="#000000">profile_image_id    </text>
<text text-anchor="start" x="1605.8864" y="-1123.9" font-family="Arial" font-size="14.00" fill="#666666">[uuid]</text>
<polygon fill="none" stroke="#000000" points="1462,-1082.5 1462,-1112.5 1755,-1112.5 1755,-1082.5 1462,-1082.5"/>
<text text-anchor="start" x="1469" y="-1093.9" font-family="Arial" font-size="14.00" fill="#000000">grade_id    </text>
<text text-anchor="start" x="1557.6676" y="-1093.9" font-family="Arial" font-size="14.00" fill="#666666">[uuid]</text>
<polygon fill="none" stroke="#000000" points="1462,-1052.5 1462,-1082.5 1755,-1082.5 1755,-1052.5 1462,-1052.5"/>
<text text-anchor="start" x="1469" y="-1063.9" font-family="Arial" font-size="14.00" fill="#000000">group_id    </text>
<text text-anchor="start" x="1557.6676" y="-1063.9" font-family="Arial" font-size="14.00" fill="#666666">[uuid]</text>
<polygon fill="none" stroke="#000000" points="1462,-1022.5 1462,-1052.5 1755,-1052.5 1755,-1022.5 1462,-1022.5"/>
<text text-anchor="start" x="1469" y="-1033.9" font-family="Arial" font-size="14.00" fill="#000000">personal_organization_id    </text>
<text text-anchor="start" x="1659.582" y="-1033.9" font-family="Arial" font-size="14.00" fill="#666666">[uuid]</text>
<polygon fill="none" stroke="#000000" points="1462,-992.5 1462,-1022.5 1755,-1022.5 1755,-992.5 1462,-992.5"/>
<text text-anchor="start" x="1469" y="-1003.9" font-family="Arial" font-size="14.00" fill="#000000">role_id    </text>
<text text-anchor="start" x="1545.209" y="-1003.9" font-family="Arial" font-size="14.00" fill="#666666">[uuid]</text>
<polygon fill="none" stroke="#000000" points="1462,-962.5 1462,-992.5 1755,-992.5 1755,-962.5 1462,-962.5"/>
<text text-anchor="start" x="1469" y="-973.9" font-family="Arial" font-size="14.00" fill="#000000">created_at    </text>
<text text-anchor="start" x="1569.3422" y="-973.9" font-family="Arial" font-size="14.00" fill="#666666">[timestamp with time zone]</text>
<polygon fill="none" stroke="#000000" points="1462,-932.5 1462,-962.5 1755,-962.5 1755,-932.5 1462,-932.5"/>
<text text-anchor="start" x="1469" y="-943.9" font-family="Arial" font-size="14.00" fill="#000000">updated_at    </text>
<text text-anchor="start" x="1573.2468" y="-943.9" font-family="Arial" font-size="14.00" fill="#666666">[timestamp with time zone]</text>
</g>
<!-- public.m_members&#45;&gt;public.m_organizations -->
<g id="edge4" class="edge">
<title>public.m_members:personal_organization_id&#45;&gt;public.m_organizations:organization_id</title>
<path fill="none" stroke="#000000" d="M1765.0236,-1035.183C1821.9247,-1006.815 1778.7905,-727.5 1847,-727.5"/>
<polygon fill="#000000" stroke="#000000" points="1764.7431,-1035.2477 1753.9865,-1033.1156 1759.8715,-1036.3739 1755,-1037.5 1755,-1037.5 1755,-1037.5 1759.8715,-1036.3739 1756.0135,-1041.8844 1764.7431,-1035.2477 1764.7431,-1035.2477"/>
<text text-anchor="start" x="1111.3675" y="-1047.5" font-family="Arial" font-size="10.00" fill="#000000">FOREIGN KEY (personal_organization_id) REFERENCES m_organizations(organization_id) ON UPDATE RESTRICT ON DELETE RESTRICT</text>
</g>
<!-- public.t_events -->
<g id="node6" class="node">
<title>public.t_events</title>
<polygon fill="#efefef" stroke="transparent" points="1859,-1382.5 1859,-1417.5 2160,-1417.5 2160,-1382.5 1859,-1382.5"/>
<polygon fill="none" stroke="#000000" points="1859,-1382.5 1859,-1417.5 2160,-1417.5 2160,-1382.5 1859,-1382.5"/>
<text text-anchor="start" x="1885.6968" y="-1395.3" font-family="Arial Bold" font-size="18.00" fill="#000000">public.t_events</text>
<text text-anchor="start" x="2005.7352" y="-1395.3" font-family="Arial" font-size="14.00" fill="#000000">    </text>
<text text-anchor="start" x="2039.94" y="-1395.3" font-family="Arial" font-size="14.00" fill="#666666">[BASE TABLE]</text>
<polygon fill="none" stroke="#000000" points="1859,-1352.5 1859,-1382.5 2160,-1382.5 2160,-1352.5 1859,-1352.5"/>
<text text-anchor="start" x="1866" y="-1363.9" font-family="Arial" font-size="14.00" fill="#000000">t_events_pkey    </text>
<text text-anchor="start" x="1990.4642" y="-1363.9" font-family="Arial" font-size="14.00" fill="#666666">[bigint]</text>
<polygon fill="none" stroke="#000000" points="1859,-1322.5 1859,-1352.5 2160,-1352.5 2160,-1322.5 1859,-1322.5"/>
<text text-anchor="start" x="1866" y="-1333.9" font-family="Arial" font-size="14.00" fill="#000000">event_id    </text>
<text text-anchor="start" x="1953.115" y="-1333.9" font-family="Arial" font-size="14.00" fill="#666666">[uuid]</text>
<polygon fill="none" stroke="#000000" points="1859,-1292.5 1859,-1322.5 2160,-1322.5 2160,-1292.5 1859,-1292.5"/>
<text text-anchor="start" x="1866" y="-1303.9" font-family="Arial" font-size="14.00" fill="#000000">event_type_id    </text>
<text text-anchor="start" x="1987.3534" y="-1303.9" font-family="Arial" font-size="14.00" fill="#666666">[uuid]</text>
<polygon fill="none" stroke="#000000" points="1859,-1262.5 1859,-1292.5 2160,-1292.5 2160,-1262.5 1859,-1262.5"/>
<text text-anchor="start" x="1866" y="-1273.9" font-family="Arial" font-size="14.00" fill="#000000">title    </text>
<text text-anchor="start" x="1921.9818" y="-1273.9" font-family="Arial" font-size="14.00" fill="#666666">[varchar(255)]</text>
<polygon fill="none" stroke="#000000" points="1859,-1232.5 1859,-1262.5 2160,-1262.5 2160,-1232.5 1859,-1232.5"/>
<text text-anchor="start" x="1866" y="-1243.9" font-family="Arial" font-size="14.00" fill="#000000">description    </text>
<text text-anchor="start" x="1967.8822" y="-1243.9" font-family="Arial" font-size="14.00" fill="#666666">[text]</text>
<polygon fill="none" stroke="#000000" points="1859,-1202.5 1859,-1232.5 2160,-1232.5 2160,-1202.5 1859,-1202.5"/>
<text text-anchor="start" x="1866" y="-1213.9" font-family="Arial" font-size="14.00" fill="#000000">organization_id    </text>
<text text-anchor="start" x="1995.1192" y="-1213.9" font-family="Arial" font-size="14.00" fill="#666666">[uuid]</text>
<polygon fill="none" stroke="#000000" points="1859,-1172.5 1859,-1202.5 2160,-1202.5 2160,-1172.5 1859,-1172.5"/>
<text text-anchor="start" x="1866" y="-1183.9" font-family="Arial" font-size="14.00" fill="#000000">start_time    </text>
<text text-anchor="start" x="1961.6522" y="-1183.9" font-family="Arial" font-size="14.00" fill="#666666">[timestamp with time zone]</text>
<polygon fill="none" stroke="#000000" points="1859,-1142.5 1859,-1172.5 2160,-1172.5 2160,-1142.5 1859,-1142.5"/>
<text text-anchor="start" x="1866" y="-1153.9" font-family="Arial" font-size="14.00" fill="#000000">end_time    </text>
<text text-anchor="start" x="1957.7756" y="-1153.9" font-family="Arial" font-size="14.00" fill="#666666">[timestamp with time zone]</text>
<polygon fill="none" stroke="#000000" points="1859,-1112.5 1859,-1142.5 2160,-1142.5 2160,-1112.5 1859,-1112.5"/>
<text text-anchor="start" x="1866" y="-1123.9" font-family="Arial" font-size="14.00" fill="#000000">mail_send_flag    </text>
<text text-anchor="start" x="1994.3366" y="-1123.9" font-family="Arial" font-size="14.00" fill="#666666">[boolean]</text>
<polygon fill="none" stroke="#000000" points="1859,-1082.5 1859,-1112.5 2160,-1112.5 2160,-1082.5 1859,-1082.5"/>
<text text-anchor="start" x="1866" y="-1093.9" font-family="Arial" font-size="14.00" fill="#000000">send_organization_id    </text>
<text text-anchor="start" x="2033.2496" y="-1093.9" font-family="Arial" font-size="14.00" fill="#666666">[uuid]</text>
<polygon fill="none" stroke="#000000" points="1859,-1052.5 1859,-1082.5 2160,-1082.5 2160,-1052.5 1859,-1052.5"/>
<text text-anchor="start" x="1866" y="-1063.9" font-family="Arial" font-size="14.00" fill="#000000">posted_by    </text>
<text text-anchor="start" x="1964.791" y="-1063.9" font-family="Arial" font-size="14.00" fill="#666666">[uuid]</text>
<polygon fill="none" stroke="#000000" points="1859,-1022.5 1859,-1052.5 2160,-1052.5 2160,-1022.5 1859,-1022.5"/>
<text text-anchor="start" x="1866" y="-1033.9" font-family="Arial" font-size="14.00" fill="#000000">last_edited_by    </text>
<text text-anchor="start" x="1990.46" y="-1033.9" font-family="Arial" font-size="14.00" fill="#666666">[uuid]</text>
<polygon fill="none" stroke="#000000" points="1859,-992.5 1859,-1022.5 2160,-1022.5 2160,-992.5 1859,-992.5"/>
<text text-anchor="start" x="1866" y="-1003.9" font-family="Arial" font-size="14.00" fill="#000000">posted_at    </text>
<text text-anchor="start" x="1961.6816" y="-1003.9" font-family="Arial" font-size="14.00" fill="#666666">[timestamp with time zone]</text>
<polygon fill="none" stroke="#000000" points="1859,-962.5 1859,-992.5 2160,-992.5 2160,-962.5 1859,-962.5"/>
<text text-anchor="start" x="1865.9825" y="-973.9" font-family="Arial" font-size="14.00" fill="#000000">last_edited_at    </text>
<text text-anchor="start" x="1987.3331" y="-973.9" font-family="Arial" font-size="14.00" fill="#666666">[timestamp with time zone]</text>
</g>
<!-- public.t_events&#45;&gt;public.m_organizations -->
<g id="edge5" class="edge">
<title>public.t_events:organization_id&#45;&gt;public.m_organizations:organization_id</title>
<path fill="none" stroke="#000000" d="M1849.869,-1212.6503C1803.3612,-1161.7604 1795.7303,-727.5 1847,-727.5"/>
<polygon fill="#000000" stroke="#000000" points="1850.1684,-1212.8093 1856.8892,-1221.4742 1854.5842,-1215.1546 1859,-1217.5 1859,-1217.5 1859,-1217.5 1854.5842,-1215.1546 1861.1108,-1213.5258 1850.1684,-1212.8093 1850.1684,-1212.8093"/>
<text text-anchor="start" x="1865.5285" y="-1227.5" font-family="Arial" font-size="10.00" fill="#000000">FOREIGN KEY (organization_id) REFERENCES m_organizations(organization_id) ON UPDATE SET NULL ON DELETE SET NULL</text>
</g>
<!-- public.t_events&#45;&gt;public.m_organizations -->
<g id="edge6" class="edge">
<title>public.t_events:send_organization_id&#45;&gt;public.m_organizations:organization_id</title>
<path fill="none" stroke="#000000" d="M1850.548,-1091.9825C1816.4104,-1045.9557 1808.8398,-727.5 1847,-727.5"/>
<polygon fill="#000000" stroke="#000000" points="1850.6263,-1092.0336 1856.5401,-1101.2682 1854.8132,-1094.7668 1859,-1097.5 1859,-1097.5 1859,-1097.5 1854.8132,-1094.7668 1861.4599,-1093.7318 1850.6263,-1092.0336 1850.6263,-1092.0336"/>
<text text-anchor="start" x="1865.9105" y="-1107.5" font-family="Arial" font-size="10.00" fill="#000000">FOREIGN KEY (send_organization_id) REFERENCES m_organizations(organization_id) ON UPDATE SET NULL ON DELETE SET NULL</text>
</g>
<!-- public.t_attendances -->
<g id="node7" class="node">
<title>public.t_attendances</title>
<polygon fill="#efefef" stroke="transparent" points="2264,-1322.5 2264,-1357.5 2570,-1357.5 2570,-1322.5 2264,-1322.5"/>
<polygon fill="none" stroke="#000000" points="2264,-1322.5 2264,-1357.5 2570,-1357.5 2570,-1322.5 2264,-1322.5"/>
<text text-anchor="start" x="2270.6833" y="-1335.3" font-family="Arial Bold" font-size="18.00" fill="#000000">public.t_attendances</text>
<text text-anchor="start" x="2435.7487" y="-1335.3" font-family="Arial" font-size="14.00" fill="#000000">    </text>
<text text-anchor="start" x="2469.9535" y="-1335.3" font-family="Arial" font-size="14.00" fill="#666666">[BASE TABLE]</text>
<polygon fill="none" stroke="#000000" points="2264,-1292.5 2264,-1322.5 2570,-1322.5 2570,-1292.5 2264,-1292.5"/>
<text text-anchor="start" x="2271" y="-1303.9" font-family="Arial" font-size="14.00" fill="#000000">t_attendances_pkey    </text>
<text text-anchor="start" x="2430.4852" y="-1303.9" font-family="Arial" font-size="14.00" fill="#666666">[bigint]</text>
<polygon fill="none" stroke="#000000" points="2264,-1262.5 2264,-1292.5 2570,-1292.5 2570,-1262.5 2264,-1262.5"/>
<text text-anchor="start" x="2271" y="-1273.9" font-family="Arial" font-size="14.00" fill="#000000">attendance_id    </text>
<text text-anchor="start" x="2393.136" y="-1273.9" font-family="Arial" font-size="14.00" fill="#666666">[uuid]</text>
<polygon fill="none" stroke="#000000" points="2264,-1232.5 2264,-1262.5 2570,-1262.5 2570,-1232.5 2264,-1232.5"/>
<text text-anchor="start" x="2271" y="-1243.9" font-family="Arial" font-size="14.00" fill="#000000">attendance_type_id    </text>
<text text-anchor="start" x="2427.3744" y="-1243.9" font-family="Arial" font-size="14.00" fill="#666666">[uuid]</text>
<polygon fill="none" stroke="#000000" points="2264,-1202.5 2264,-1232.5 2570,-1232.5 2570,-1202.5 2264,-1202.5"/>
<text text-anchor="start" x="2271" y="-1213.9" font-family="Arial" font-size="14.00" fill="#000000">member_id    </text>
<text text-anchor="start" x="2375.2062" y="-1213.9" font-family="Arial" font-size="14.00" fill="#666666">[uuid]</text>
<polygon fill="none" stroke="#000000" points="2264,-1172.5 2264,-1202.5 2570,-1202.5 2570,-1172.5 2264,-1172.5"/>
<text text-anchor="start" x="2271" y="-1183.9" font-family="Arial" font-size="14.00" fill="#000000">description    </text>
<text text-anchor="start" x="2372.8822" y="-1183.9" font-family="Arial" font-size="14.00" fill="#666666">[text]</text>
<polygon fill="none" stroke="#000000" points="2264,-1142.5 2264,-1172.5 2570,-1172.5 2570,-1142.5 2264,-1142.5"/>
<text text-anchor="start" x="2271" y="-1153.9" font-family="Arial" font-size="14.00" fill="#000000">date    </text>
<text text-anchor="start" x="2332.4432" y="-1153.9" font-family="Arial" font-size="14.00" fill="#666666">[date]</text>
<polygon fill="none" stroke="#000000" points="2264,-1112.5 2264,-1142.5 2570,-1142.5 2570,-1112.5 2264,-1112.5"/>
<text text-anchor="start" x="2271" y="-1123.9" font-family="Arial" font-size="14.00" fill="#000000">mail_send_flag    </text>
<text text-anchor="start" x="2399.3366" y="-1123.9" font-family="Arial" font-size="14.00" fill="#666666">[boolean]</text>
<polygon fill="none" stroke="#000000" points="2264,-1082.5 2264,-1112.5 2570,-1112.5 2570,-1082.5 2264,-1082.5"/>
<text text-anchor="start" x="2271" y="-1093.9" font-family="Arial" font-size="14.00" fill="#000000">send_organization_id    </text>
<text text-anchor="start" x="2438.2496" y="-1093.9" font-family="Arial" font-size="14.00" fill="#666666">[uuid]</text>
<polygon fill="none" stroke="#000000" points="2264,-1052.5 2264,-1082.5 2570,-1082.5 2570,-1052.5 2264,-1052.5"/>
<text text-anchor="start" x="2271" y="-1063.9" font-family="Arial" font-size="14.00" fill="#000000">posted_at    </text>
<text text-anchor="start" x="2366.6816" y="-1063.9" font-family="Arial" font-size="14.00" fill="#666666">[timestamp with time zone]</text>
<polygon fill="none" stroke="#000000" points="2264,-1022.5 2264,-1052.5 2570,-1052.5 2570,-1022.5 2264,-1022.5"/>
<text text-anchor="start" x="2271" y="-1033.9" font-family="Arial" font-size="14.00" fill="#000000">last_edited_at    </text>
<text text-anchor="start" x="2392.3506" y="-1033.9" font-family="Arial" font-size="14.00" fill="#666666">[timestamp with time zone]</text>
</g>
<!-- public.t_attendances&#45;&gt;public.m_organizations -->
<g id="edge7" class="edge">
<title>public.t_attendances:send_organization_id&#45;&gt;public.m_organizations:organization_id</title>
<path fill="none" stroke="#000000" d="M2253.9509,-1095.5093C2185.6307,-1066.3863 2253.0853,-727.5 2172,-727.5"/>
<polygon fill="#000000" stroke="#000000" points="2254.1906,-1095.5567 2263.1255,-1101.9142 2259.0953,-1096.5284 2264,-1097.5 2264,-1097.5 2264,-1097.5 2259.0953,-1096.5284 2264.8745,-1093.0858 2254.1906,-1095.5567 2254.1906,-1095.5567"/>
<text text-anchor="start" x="2270.9105" y="-1081.5" font-family="Arial" font-size="10.00" fill="#000000">FOREIGN KEY (send_organization_id) REFERENCES m_organizations(organization_id) ON UPDATE SET NULL ON DELETE SET NULL</text>
</g>
<!-- public.t_records -->
<g id="node8" class="node">
<title>public.t_records</title>
<polygon fill="#efefef" stroke="transparent" points="2675,-1322.5 2675,-1357.5 2976,-1357.5 2976,-1322.5 2675,-1322.5"/>
<polygon fill="none" stroke="#000000" points="2675,-1322.5 2675,-1357.5 2976,-1357.5 2976,-1322.5 2675,-1322.5"/>
<text text-anchor="start" x="2698.2057" y="-1335.3" font-family="Arial Bold" font-size="18.00" fill="#000000">public.t_records</text>
<text text-anchor="start" x="2825.2263" y="-1335.3" font-family="Arial" font-size="14.00" fill="#000000">    </text>
<text text-anchor="start" x="2859.4311" y="-1335.3" font-family="Arial" font-size="14.00" fill="#666666">[BASE TABLE]</text>
<polygon fill="none" stroke="#000000" points="2675,-1292.5 2675,-1322.5 2976,-1322.5 2976,-1292.5 2675,-1292.5"/>
<text text-anchor="start" x="2682" y="-1303.9" font-family="Arial" font-size="14.00" fill="#000000">t_records_pkey    </text>
<text text-anchor="start" x="2811.8948" y="-1303.9" font-family="Arial" font-size="14.00" fill="#666666">[bigint]</text>
<polygon fill="none" stroke="#000000" points="2675,-1262.5 2675,-1292.5 2976,-1292.5 2976,-1262.5 2675,-1262.5"/>
<text text-anchor="start" x="2682" y="-1273.9" font-family="Arial" font-size="14.00" fill="#000000">record_id    </text>
<text text-anchor="start" x="2774.5456" y="-1273.9" font-family="Arial" font-size="14.00" fill="#666666">[uuid]</text>
<polygon fill="none" stroke="#000000" points="2675,-1232.5 2675,-1262.5 2976,-1262.5 2976,-1232.5 2675,-1232.5"/>
<text text-anchor="start" x="2682" y="-1243.9" font-family="Arial" font-size="14.00" fill="#000000">record_type_id    </text>
<text text-anchor="start" x="2808.784" y="-1243.9" font-family="Arial" font-size="14.00" fill="#666666">[uuid]</text>
<polygon fill="none" stroke="#000000" points="2675,-1202.5 2675,-1232.5 2976,-1232.5 2976,-1202.5 2675,-1202.5"/>
<text text-anchor="start" x="2682" y="-1213.9" font-family="Arial" font-size="14.00" fill="#000000">title    </text>
<text text-anchor="start" x="2737.9818" y="-1213.9" font-family="Arial" font-size="14.00" fill="#666666">[varchar(255)]</text>
<polygon fill="none" stroke="#000000" points="2675,-1172.5 2675,-1202.5 2976,-1202.5 2976,-1172.5 2675,-1172.5"/>
<text text-anchor="start" x="2682" y="-1183.9" font-family="Arial" font-size="14.00" fill="#000000">body    </text>
<text text-anchor="start" x="2746.5526" y="-1183.9" font-family="Arial" font-size="14.00" fill="#666666">[text]</text>
<polygon fill="none" stroke="#000000" points="2675,-1142.5 2675,-1172.5 2976,-1172.5 2976,-1142.5 2675,-1142.5"/>
<text text-anchor="start" x="2682" y="-1153.9" font-family="Arial" font-size="14.00" fill="#000000">organization_id    </text>
<text text-anchor="start" x="2811.1192" y="-1153.9" font-family="Arial" font-size="14.00" fill="#666666">[uuid]</text>
<polygon fill="none" stroke="#000000" points="2675,-1112.5 2675,-1142.5 2976,-1142.5 2976,-1112.5 2675,-1112.5"/>
<text text-anchor="start" x="2682" y="-1123.9" font-family="Arial" font-size="14.00" fill="#000000">posted_by    </text>
<text text-anchor="start" x="2780.791" y="-1123.9" font-family="Arial" font-size="14.00" fill="#666666">[uuid]</text>
<polygon fill="none" stroke="#000000" points="2675,-1082.5 2675,-1112.5 2976,-1112.5 2976,-1082.5 2675,-1082.5"/>
<text text-anchor="start" x="2682" y="-1093.9" font-family="Arial" font-size="14.00" fill="#000000">last_edited_by    </text>
<text text-anchor="start" x="2806.46" y="-1093.9" font-family="Arial" font-size="14.00" fill="#666666">[uuid]</text>
<polygon fill="none" stroke="#000000" points="2675,-1052.5 2675,-1082.5 2976,-1082.5 2976,-1052.5 2675,-1052.5"/>
<text text-anchor="start" x="2682" y="-1063.9" font-family="Arial" font-size="14.00" fill="#000000">posted_at    </text>
<text text-anchor="start" x="2777.6816" y="-1063.9" font-family="Arial" font-size="14.00" fill="#666666">[timestamp with time zone]</text>
<polygon fill="none" stroke="#000000" points="2675,-1022.5 2675,-1052.5 2976,-1052.5 2976,-1022.5 2675,-1022.5"/>
<text text-anchor="start" x="2681.9825" y="-1033.9" font-family="Arial" font-size="14.00" fill="#000000">last_edited_at    </text>
<text text-anchor="start" x="2803.3331" y="-1033.9" font-family="Arial" font-size="14.00" fill="#666666">[timestamp with time zone]</text>
</g>
<!-- public.t_records&#45;&gt;public.m_organizations -->
<g id="edge8" class="edge">
<title>public.t_records:organization_id&#45;&gt;public.m_organizations:organization_id</title>
<path fill="none" stroke="#000000" d="M2664.7168,-1157.0244C2562.505,-1146.9458 2698.6041,-979.1364 2622,-890 2483.4053,-728.7314 2384.6407,-727.5 2172,-727.5"/>
<polygon fill="#000000" stroke="#000000" points="2665.0107,-1157.0379 2674.7921,-1161.9952 2670.0053,-1157.269 2675,-1157.5 2675,-1157.5 2675,-1157.5 2670.0053,-1157.269 2675.2079,-1153.0048 2665.0107,-1157.0379 2665.0107,-1157.0379"/>
<text text-anchor="start" x="2681.5285" y="-1167.5" font-family="Arial" font-size="10.00" fill="#000000">FOREIGN KEY (organization_id) REFERENCES m_organizations(organization_id) ON UPDATE SET NULL ON DELETE SET NULL</text>
</g>
<!-- public.m_memberships -->
<g id="node9" class="node">
<title>public.m_memberships</title>
<polygon fill="#efefef" stroke="transparent" points="3080,-1247.5 3080,-1282.5 3406,-1282.5 3406,-1247.5 3080,-1247.5"/>
<polygon fill="none" stroke="#000000" points="3080,-1247.5 3080,-1282.5 3406,-1282.5 3406,-1247.5 3080,-1247.5"/>
<text text-anchor="start" x="3086.7113" y="-1260.3" font-family="Arial Bold" font-size="18.00" fill="#000000">public.m_memberships</text>
<text text-anchor="start" x="3271.7207" y="-1260.3" font-family="Arial" font-size="14.00" fill="#000000">    </text>
<text text-anchor="start" x="3305.9255" y="-1260.3" font-family="Arial" font-size="14.00" fill="#666666">[BASE TABLE]</text>
<polygon fill="none" stroke="#000000" points="3080,-1217.5 3080,-1247.5 3406,-1247.5 3406,-1217.5 3080,-1217.5"/>
<text text-anchor="start" x="3087" y="-1228.9" font-family="Arial" font-size="14.00" fill="#000000">m_memberships_pkey    </text>
<text text-anchor="start" x="3261.9972" y="-1228.9" font-family="Arial" font-size="14.00" fill="#666666">[bigint]</text>
<polygon fill="none" stroke="#000000" points="3080,-1187.5 3080,-1217.5 3406,-1217.5 3406,-1187.5 3080,-1187.5"/>
<text text-anchor="start" x="3087" y="-1198.9" font-family="Arial" font-size="14.00" fill="#000000">member_id    </text>
<text text-anchor="start" x="3191.2062" y="-1198.9" font-family="Arial" font-size="14.00" fill="#666666">[uuid]</text>
<polygon fill="none" stroke="#000000" points="3080,-1157.5 3080,-1187.5 3406,-1187.5 3406,-1157.5 3080,-1157.5"/>
<text text-anchor="start" x="3087" y="-1168.9" font-family="Arial" font-size="14.00" fill="#000000">organization_id    </text>
<text text-anchor="start" x="3216.1192" y="-1168.9" font-family="Arial" font-size="14.00" fill="#666666">[uuid]</text>
<polygon fill="none" stroke="#000000" points="3080,-1127.5 3080,-1157.5 3406,-1157.5 3406,-1127.5 3080,-1127.5"/>
<text text-anchor="start" x="3087" y="-1138.9" font-family="Arial" font-size="14.00" fill="#000000">work_position_id    </text>
<text text-anchor="start" x="3225.4432" y="-1138.9" font-family="Arial" font-size="14.00" fill="#666666">[uuid]</text>
<polygon fill="none" stroke="#000000" points="3080,-1097.5 3080,-1127.5 3406,-1127.5 3406,-1097.5 3080,-1097.5"/>
<text text-anchor="start" x="3087" y="-1108.9" font-family="Arial" font-size="14.00" fill="#000000">added_at    </text>
<text text-anchor="start" x="3179.5736" y="-1108.9" font-family="Arial" font-size="14.00" fill="#666666">[timestamp with time zone]</text>
</g>
<!-- public.m_memberships&#45;&gt;public.m_organizations -->
<g id="edge9" class="edge">
<title>public.m_memberships:organization_id&#45;&gt;public.m_organizations:organization_id</title>
<path fill="none" stroke="#000000" d="M3069.8468,-1172.0447C2961.5146,-1161.7077 3115.4715,-977.9601 3028,-890 2891.4722,-752.7095 2365.6195,-727.5 2172,-727.5"/>
<polygon fill="#000000" stroke="#000000" points="3070.01,-1172.052 3079.7984,-1176.9955 3075.005,-1172.276 3080,-1172.5 3080,-1172.5 3080,-1172.5 3075.005,-1172.276 3080.2016,-1168.0045 3070.01,-1172.052 3070.01,-1172.052"/>
<text text-anchor="start" x="3086.9775" y="-1182.5" font-family="Arial" font-size="10.00" fill="#000000">FOREIGN KEY (organization_id) REFERENCES m_organizations(organization_id) ON UPDATE CASCADE ON DELETE CASCADE</text>
</g>
</g>
</svg>
