<?xml version="1.0" encoding="UTF-8" standalone="no"?>
<!DOCTYPE svg PUBLIC "-//W3C//DTD SVG 1.1//EN"
 "http://www.w3.org/Graphics/SVG/1.1/DTD/svg11.dtd">
<!-- Generated by graphviz version 2.40.1 (20161225.0304)
 -->
<!-- Title: public.t_messages Pages: 1 -->
<svg width="1514pt" height="1259pt"
 viewBox="0.00 0.00 1514.00 1259.00" xmlns="http://www.w3.org/2000/svg" xmlns:xlink="http://www.w3.org/1999/xlink">
<g id="graph0" class="graph" transform="scale(1 1) rotate(0) translate(4 1255)">
<title>public.t_messages</title>
<polygon fill="#ffffff" stroke="transparent" points="-4,4 -4,-1255 1510,-1255 1510,4 -4,4"/>
<!-- public.t_messages -->
<g id="node1" class="node">
<title>public.t_messages</title>
<polygon fill="#efefef" stroke="transparent" points="543,-892.5 543,-927.5 833,-927.5 833,-892.5 543,-892.5"/>
<polygon fill="none" stroke="#000000" points="543,-892.5 543,-927.5 833,-927.5 833,-892.5 543,-892.5"/>
<text text-anchor="start" x="549.6987" y="-905.3" font-family="Arial Bold" font-size="18.00" fill="#000000">public.t_messages</text>
<text text-anchor="start" x="698.7333" y="-905.3" font-family="Arial" font-size="14.00" fill="#000000">    </text>
<text text-anchor="start" x="732.9381" y="-905.3" font-family="Arial" font-size="14.00" fill="#666666">[BASE TABLE]</text>
<polygon fill="none" stroke="#000000" points="543,-862.5 543,-892.5 833,-892.5 833,-862.5 543,-862.5"/>
<text text-anchor="start" x="550" y="-873.9" font-family="Arial" font-size="14.00" fill="#000000">t_messages_pkey </text>
<text text-anchor="start" x="666.7026" y="-873.9" font-family="Arial" font-size="14.00" fill="#666666">[bigint]</text>
<polygon fill="none" stroke="#000000" points="543,-832.5 543,-862.5 833,-862.5 833,-832.5 543,-832.5"/>
<text text-anchor="start" x="550" y="-843.9" font-family="Arial" font-size="14.00" fill="#000000">message_id </text>
<text text-anchor="start" x="629.3534" y="-843.9" font-family="Arial" font-size="14.00" fill="#666666">[uuid]</text>
<polygon fill="none" stroke="#000000" points="543,-802.5 543,-832.5 833,-832.5 833,-802.5 543,-802.5"/>
<text text-anchor="start" x="550" y="-813.9" font-family="Arial" font-size="14.00" fill="#000000">sender_id </text>
<text text-anchor="start" x="615.3534" y="-813.9" font-family="Arial" font-size="14.00" fill="#666666">[uuid]</text>
<polygon fill="none" stroke="#000000" points="543,-772.5 543,-802.5 833,-802.5 833,-772.5 543,-772.5"/>
<text text-anchor="start" x="550" y="-783.9" font-family="Arial" font-size="14.00" fill="#000000">body </text>
<text text-anchor="start" x="584.2384" y="-783.9" font-family="Arial" font-size="14.00" fill="#666666">[text]</text>
<polygon fill="none" stroke="#000000" points="543,-742.5 543,-772.5 833,-772.5 833,-742.5 543,-742.5"/>
<text text-anchor="start" x="550" y="-753.9" font-family="Arial" font-size="14.00" fill="#000000">posted_at </text>
<text text-anchor="start" x="615.3674" y="-753.9" font-family="Arial" font-size="14.00" fill="#666666">[timestamp with time zone]</text>
<polygon fill="none" stroke="#000000" points="543,-712.5 543,-742.5 833,-742.5 833,-712.5 543,-712.5"/>
<text text-anchor="start" x="550" y="-723.9" font-family="Arial" font-size="14.00" fill="#000000">last_edited_at </text>
<text text-anchor="start" x="641.0364" y="-723.9" font-family="Arial" font-size="14.00" fill="#666666">[timestamp with time zone]</text>
<polygon fill="none" stroke="#000000" points="543,-682.5 543,-712.5 833,-712.5 833,-682.5 543,-682.5"/>
<text text-anchor="start" x="550" y="-693.9" font-family="Arial" font-size="14.00" fill="#000000">chat_room_action_id </text>
<text text-anchor="start" x="683.8148" y="-693.9" font-family="Arial" font-size="14.00" fill="#666666">[uuid]</text>
<polygon fill="none" stroke="#000000" stroke-width="3" points="541.5,-681.5 541.5,-929.5 834.5,-929.5 834.5,-681.5 541.5,-681.5"/>
</g>
<!-- public.m_members -->
<g id="node4" class="node">
<title>public.m_members</title>
<polygon fill="#efefef" stroke="transparent" points="326,-522.5 326,-557.5 619,-557.5 619,-522.5 326,-522.5"/>
<polygon fill="none" stroke="#000000" points="326,-522.5 326,-557.5 619,-557.5 619,-522.5 326,-522.5"/>
<text text-anchor="start" x="332.7146" y="-535.3" font-family="Arial Bold" font-size="18.00" fill="#000000">public.m_members</text>
<text text-anchor="start" x="484.7174" y="-535.3" font-family="Arial" font-size="14.00" fill="#000000">    </text>
<text text-anchor="start" x="518.9222" y="-535.3" font-family="Arial" font-size="14.00" fill="#666666">[BASE TABLE]</text>
<polygon fill="none" stroke="#000000" points="326,-492.5 326,-522.5 619,-522.5 619,-492.5 326,-492.5"/>
<text text-anchor="start" x="333" y="-503.9" font-family="Arial" font-size="14.00" fill="#000000">m_members_pkey    </text>
<text text-anchor="start" x="482.3254" y="-503.9" font-family="Arial" font-size="14.00" fill="#666666">[bigint]</text>
<polygon fill="none" stroke="#000000" points="326,-462.5 326,-492.5 619,-492.5 619,-462.5 326,-462.5"/>
<text text-anchor="start" x="333" y="-473.9" font-family="Arial" font-size="14.00" fill="#000000">member_id    </text>
<text text-anchor="start" x="437.2062" y="-473.9" font-family="Arial" font-size="14.00" fill="#666666">[uuid]</text>
<polygon fill="none" stroke="#000000" points="326,-432.5 326,-462.5 619,-462.5 619,-432.5 326,-432.5"/>
<text text-anchor="start" x="333" y="-443.9" font-family="Arial" font-size="14.00" fill="#000000">login_id    </text>
<text text-anchor="start" x="415.4376" y="-443.9" font-family="Arial" font-size="14.00" fill="#666666">[varchar(255)]</text>
<polygon fill="none" stroke="#000000" points="326,-402.5 326,-432.5 619,-432.5 619,-402.5 326,-402.5"/>
<text text-anchor="start" x="333" y="-413.9" font-family="Arial" font-size="14.00" fill="#000000">password    </text>
<text text-anchor="start" x="427.1024" y="-413.9" font-family="Arial" font-size="14.00" fill="#666666">[varchar(255)]</text>
<polygon fill="none" stroke="#000000" points="326,-372.5 326,-402.5 619,-402.5 619,-372.5 326,-372.5"/>
<text text-anchor="start" x="333" y="-383.9" font-family="Arial" font-size="14.00" fill="#000000">email    </text>
<text text-anchor="start" x="400.6438" y="-383.9" font-family="Arial" font-size="14.00" fill="#666666">[varchar(255)]</text>
<polygon fill="none" stroke="#000000" points="326,-342.5 326,-372.5 619,-372.5 619,-342.5 326,-342.5"/>
<text text-anchor="start" x="333" y="-353.9" font-family="Arial" font-size="14.00" fill="#000000">name    </text>
<text text-anchor="start" x="402.2132" y="-353.9" font-family="Arial" font-size="14.00" fill="#666666">[varchar(255)]</text>
<polygon fill="none" stroke="#000000" points="326,-312.5 326,-342.5 619,-342.5 619,-312.5 326,-312.5"/>
<text text-anchor="start" x="333" y="-323.9" font-family="Arial" font-size="14.00" fill="#000000">first_name    </text>
<text text-anchor="start" x="432.5442" y="-323.9" font-family="Arial" font-size="14.00" fill="#666666">[varchar(255)]</text>
<polygon fill="none" stroke="#000000" points="326,-282.5 326,-312.5 619,-312.5 619,-282.5 326,-282.5"/>
<text text-anchor="start" x="333" y="-293.9" font-family="Arial" font-size="14.00" fill="#000000">last_name    </text>
<text text-anchor="start" x="431.7756" y="-293.9" font-family="Arial" font-size="14.00" fill="#666666">[varchar(255)]</text>
<polygon fill="none" stroke="#000000" points="326,-252.5 326,-282.5 619,-282.5 619,-252.5 326,-252.5"/>
<text text-anchor="start" x="333" y="-263.9" font-family="Arial" font-size="14.00" fill="#000000">attend_status_id    </text>
<text text-anchor="start" x="469.9172" y="-263.9" font-family="Arial" font-size="14.00" fill="#666666">[uuid]</text>
<polygon fill="none" stroke="#000000" points="326,-222.5 326,-252.5 619,-252.5 619,-222.5 326,-222.5"/>
<text text-anchor="start" x="333" y="-233.9" font-family="Arial" font-size="14.00" fill="#000000">profile_image_id    </text>
<text text-anchor="start" x="469.8864" y="-233.9" font-family="Arial" font-size="14.00" fill="#666666">[uuid]</text>
<polygon fill="none" stroke="#000000" points="326,-192.5 326,-222.5 619,-222.5 619,-192.5 326,-192.5"/>
<text text-anchor="start" x="333" y="-203.9" font-family="Arial" font-size="14.00" fill="#000000">grade_id    </text>
<text text-anchor="start" x="421.6676" y="-203.9" font-family="Arial" font-size="14.00" fill="#666666">[uuid]</text>
<polygon fill="none" stroke="#000000" points="326,-162.5 326,-192.5 619,-192.5 619,-162.5 326,-162.5"/>
<text text-anchor="start" x="333" y="-173.9" font-family="Arial" font-size="14.00" fill="#000000">group_id    </text>
<text text-anchor="start" x="421.6676" y="-173.9" font-family="Arial" font-size="14.00" fill="#666666">[uuid]</text>
<polygon fill="none" stroke="#000000" points="326,-132.5 326,-162.5 619,-162.5 619,-132.5 326,-132.5"/>
<text text-anchor="start" x="333" y="-143.9" font-family="Arial" font-size="14.00" fill="#000000">personal_organization_id    </text>
<text text-anchor="start" x="523.582" y="-143.9" font-family="Arial" font-size="14.00" fill="#666666">[uuid]</text>
<polygon fill="none" stroke="#000000" points="326,-102.5 326,-132.5 619,-132.5 619,-102.5 326,-102.5"/>
<text text-anchor="start" x="333" y="-113.9" font-family="Arial" font-size="14.00" fill="#000000">role_id    </text>
<text text-anchor="start" x="409.209" y="-113.9" font-family="Arial" font-size="14.00" fill="#666666">[uuid]</text>
<polygon fill="none" stroke="#000000" points="326,-72.5 326,-102.5 619,-102.5 619,-72.5 326,-72.5"/>
<text text-anchor="start" x="333" y="-83.9" font-family="Arial" font-size="14.00" fill="#000000">created_at    </text>
<text text-anchor="start" x="433.3422" y="-83.9" font-family="Arial" font-size="14.00" fill="#666666">[timestamp with time zone]</text>
<polygon fill="none" stroke="#000000" points="326,-42.5 326,-72.5 619,-72.5 619,-42.5 326,-42.5"/>
<text text-anchor="start" x="333" y="-53.9" font-family="Arial" font-size="14.00" fill="#000000">updated_at    </text>
<text text-anchor="start" x="437.2468" y="-53.9" font-family="Arial" font-size="14.00" fill="#666666">[timestamp with time zone]</text>
</g>
<!-- public.t_messages&#45;&gt;public.m_members -->
<g id="edge3" class="edge">
<title>public.t_messages:sender_id&#45;&gt;public.m_members:member_id</title>
<path fill="none" stroke="#000000" d="M532.8903,-816.8319C466.1423,-807.4642 502.0283,-701.7434 543,-637 562.9866,-605.4172 599.0134,-632.5828 619,-601 648.3518,-554.6183 673.8889,-477.5 619,-477.5"/>
<polygon fill="#000000" stroke="#000000" points="533.0218,-816.8405 542.7032,-821.9902 538.0109,-817.1703 543,-817.5 543,-817.5 543,-817.5 538.0109,-817.1703 543.2968,-813.0098 533.0218,-816.8405 533.0218,-816.8405"/>
<text text-anchor="start" x="7.2705" y="-827.5" font-family="Arial" font-size="10.00" fill="#000000">FOREIGN KEY (sender_id) REFERENCES m_members(member_id) ON UPDATE SET NULL ON DELETE SET NULL</text>
</g>
<!-- public.t_chat_room_actions -->
<g id="node5" class="node">
<title>public.t_chat_room_actions</title>
<polygon fill="#efefef" stroke="transparent" points="723,-357.5 723,-392.5 1083,-392.5 1083,-357.5 723,-357.5"/>
<polygon fill="none" stroke="#000000" points="723,-357.5 723,-392.5 1083,-392.5 1083,-357.5 723,-357.5"/>
<text text-anchor="start" x="729.6878" y="-370.3" font-family="Arial Bold" font-size="18.00" fill="#000000">public.t_chat_room_actions</text>
<text text-anchor="start" x="948.7442" y="-370.3" font-family="Arial" font-size="14.00" fill="#000000">    </text>
<text text-anchor="start" x="982.949" y="-370.3" font-family="Arial" font-size="14.00" fill="#666666">[BASE TABLE]</text>
<polygon fill="none" stroke="#000000" points="723,-327.5 723,-357.5 1083,-357.5 1083,-327.5 723,-327.5"/>
<text text-anchor="start" x="730" y="-338.9" font-family="Arial" font-size="14.00" fill="#000000">t_chat_room_actions_pkey    </text>
<text text-anchor="start" x="931.4782" y="-338.9" font-family="Arial" font-size="14.00" fill="#666666">[bigint]</text>
<polygon fill="none" stroke="#000000" points="723,-297.5 723,-327.5 1083,-327.5 1083,-297.5 723,-297.5"/>
<text text-anchor="start" x="730" y="-308.9" font-family="Arial" font-size="14.00" fill="#000000">chat_room_action_id    </text>
<text text-anchor="start" x="894.129" y="-308.9" font-family="Arial" font-size="14.00" fill="#666666">[uuid]</text>
<polygon fill="none" stroke="#000000" points="723,-267.5 723,-297.5 1083,-297.5 1083,-267.5 723,-267.5"/>
<text text-anchor="start" x="730" y="-278.9" font-family="Arial" font-size="14.00" fill="#000000">chat_room_id    </text>
<text text-anchor="start" x="849.0014" y="-278.9" font-family="Arial" font-size="14.00" fill="#666666">[uuid]</text>
<polygon fill="none" stroke="#000000" points="723,-237.5 723,-267.5 1083,-267.5 1083,-237.5 723,-237.5"/>
<text text-anchor="start" x="730" y="-248.9" font-family="Arial" font-size="14.00" fill="#000000">chat_room_action_type_id    </text>
<text text-anchor="start" x="928.3674" y="-248.9" font-family="Arial" font-size="14.00" fill="#666666">[uuid]</text>
<polygon fill="none" stroke="#000000" points="723,-207.5 723,-237.5 1083,-237.5 1083,-207.5 723,-207.5"/>
<text text-anchor="start" x="730" y="-218.9" font-family="Arial" font-size="14.00" fill="#000000">acted_at    </text>
<text text-anchor="start" x="817.899" y="-218.9" font-family="Arial" font-size="14.00" fill="#666666">[timestamp with time zone]</text>
</g>
<!-- public.t_messages&#45;&gt;public.t_chat_room_actions -->
<g id="edge4" class="edge">
<title>public.t_messages:chat_room_action_id&#45;&gt;public.t_chat_room_actions:chat_room_action_id</title>
<path fill="none" stroke="#000000" d="M842.6978,-694.9074C853.6171,-686.4223 838.5691,-658.7766 833,-637 807.7689,-538.3392 748.2311,-534.6608 723,-436 709.4006,-382.8225 668.1111,-312.5 723,-312.5"/>
<polygon fill="#000000" stroke="#000000" points="842.6607,-694.9173 831.8378,-693.1527 837.8304,-696.2086 833,-697.5 833,-697.5 833,-697.5 837.8304,-696.2086 834.1622,-701.8473 842.6607,-694.9173 842.6607,-694.9173"/>
<text text-anchor="start" x="840.242" y="-707.5" font-family="Arial" font-size="10.00" fill="#000000">FOREIGN KEY (chat_room_action_id) REFERENCES t_chat_room_actions(chat_room_action_id) ON UPDATE CASCADE ON DELETE CASCADE</text>
</g>
<!-- public.t_attached_messages -->
<g id="node2" class="node">
<title>public.t_attached_messages</title>
<polygon fill="#efefef" stroke="transparent" points="280,-1172.5 280,-1207.5 649,-1207.5 649,-1172.5 280,-1172.5"/>
<polygon fill="none" stroke="#000000" points="280,-1172.5 280,-1207.5 649,-1207.5 649,-1172.5 280,-1172.5"/>
<text text-anchor="start" x="286.6779" y="-1185.3" font-family="Arial Bold" font-size="18.00" fill="#000000">public.t_attached_messages</text>
<text text-anchor="start" x="514.7541" y="-1185.3" font-family="Arial" font-size="14.00" fill="#000000">    </text>
<text text-anchor="start" x="548.9589" y="-1185.3" font-family="Arial" font-size="14.00" fill="#666666">[BASE TABLE]</text>
<polygon fill="none" stroke="#000000" points="280,-1142.5 280,-1172.5 649,-1172.5 649,-1142.5 280,-1142.5"/>
<text text-anchor="start" x="287" y="-1153.9" font-family="Arial" font-size="14.00" fill="#000000">t_attached_messages_pkey    </text>
<text text-anchor="start" x="495.4936" y="-1153.9" font-family="Arial" font-size="14.00" fill="#666666">[bigint]</text>
<polygon fill="none" stroke="#000000" points="280,-1112.5 280,-1142.5 649,-1142.5 649,-1112.5 280,-1112.5"/>
<text text-anchor="start" x="287" y="-1123.9" font-family="Arial" font-size="14.00" fill="#000000">attached_message_id    </text>
<text text-anchor="start" x="458.1444" y="-1123.9" font-family="Arial" font-size="14.00" fill="#666666">[uuid]</text>
<polygon fill="none" stroke="#000000" points="280,-1082.5 280,-1112.5 649,-1112.5 649,-1082.5 280,-1082.5"/>
<text text-anchor="start" x="287" y="-1093.9" font-family="Arial" font-size="14.00" fill="#000000">message_id    </text>
<text text-anchor="start" x="396.6676" y="-1093.9" font-family="Arial" font-size="14.00" fill="#666666">[uuid]</text>
<polygon fill="none" stroke="#000000" points="280,-1052.5 280,-1082.5 649,-1082.5 649,-1052.5 280,-1052.5"/>
<text text-anchor="start" x="287" y="-1063.9" font-family="Arial" font-size="14.00" fill="#000000">attachable_item_id    </text>
<text text-anchor="start" x="438.683" y="-1063.9" font-family="Arial" font-size="14.00" fill="#666666">[uuid]</text>
</g>
<!-- public.t_attached_messages&#45;&gt;public.t_messages -->
<g id="edge1" class="edge">
<title>public.t_attached_messages:message_id&#45;&gt;public.t_messages:message_id</title>
<path fill="none" stroke="#000000" d="M659.1941,-1095.8545C684.5241,-1086.3982 669.3492,-1038.4018 649,-1010 620.0225,-969.5555 571.9775,-1014.4445 543,-974 510.2553,-928.2975 486.7778,-847.5 543,-847.5"/>
<polygon fill="#000000" stroke="#000000" points="658.8722,-1095.9064 648.2829,-1093.0575 653.9361,-1096.7032 649,-1097.5 649,-1097.5 649,-1097.5 653.9361,-1096.7032 649.7171,-1101.9425 658.8722,-1095.9064 658.8722,-1095.9064"/>
<text text-anchor="start" x="99.5935" y="-1107.5" font-family="Arial" font-size="10.00" fill="#000000">FOREIGN KEY (message_id) REFERENCES t_messages(message_id) ON UPDATE CASCADE ON DELETE CASCADE</text>
</g>
<!-- public.t_read_receipts -->
<g id="node3" class="node">
<title>public.t_read_receipts</title>
<polygon fill="#efefef" stroke="transparent" points="753,-1172.5 753,-1207.5 1070,-1207.5 1070,-1172.5 753,-1172.5"/>
<polygon fill="none" stroke="#000000" points="753,-1172.5 753,-1207.5 1070,-1207.5 1070,-1172.5 753,-1172.5"/>
<text text-anchor="start" x="759.6951" y="-1185.3" font-family="Arial Bold" font-size="18.00" fill="#000000">public.t_read_receipts</text>
<text text-anchor="start" x="935.7369" y="-1185.3" font-family="Arial" font-size="14.00" fill="#000000">    </text>
<text text-anchor="start" x="969.9417" y="-1185.3" font-family="Arial" font-size="14.00" fill="#666666">[BASE TABLE]</text>
<polygon fill="none" stroke="#000000" points="753,-1142.5 753,-1172.5 1070,-1172.5 1070,-1142.5 753,-1142.5"/>
<text text-anchor="start" x="760" y="-1153.9" font-family="Arial" font-size="14.00" fill="#000000">t_read_receipts_pkey    </text>
<text text-anchor="start" x="928.0224" y="-1153.9" font-family="Arial" font-size="14.00" fill="#666666">[bigint]</text>
<polygon fill="none" stroke="#000000" points="753,-1112.5 753,-1142.5 1070,-1142.5 1070,-1112.5 753,-1112.5"/>
<text text-anchor="start" x="760" y="-1123.9" font-family="Arial" font-size="14.00" fill="#000000">member_id    </text>
<text text-anchor="start" x="864.2062" y="-1123.9" font-family="Arial" font-size="14.00" fill="#666666">[uuid]</text>
<polygon fill="none" stroke="#000000" points="753,-1082.5 753,-1112.5 1070,-1112.5 1070,-1082.5 753,-1082.5"/>
<text text-anchor="start" x="760" y="-1093.9" font-family="Arial" font-size="14.00" fill="#000000">message_id    </text>
<text text-anchor="start" x="869.6676" y="-1093.9" font-family="Arial" font-size="14.00" fill="#666666">[uuid]</text>
<polygon fill="none" stroke="#000000" points="753,-1052.5 753,-1082.5 1070,-1082.5 1070,-1052.5 753,-1052.5"/>
<text text-anchor="start" x="760" y="-1063.9" font-family="Arial" font-size="14.00" fill="#000000">read_at    </text>
<text text-anchor="start" x="841.669" y="-1063.9" font-family="Arial" font-size="14.00" fill="#666666">[timestamp with time zone]</text>
</g>
<!-- public.t_read_receipts&#45;&gt;public.t_messages -->
<g id="edge2" class="edge">
<title>public.t_read_receipts:message_id&#45;&gt;public.t_messages:message_id</title>
<path fill="none" stroke="#000000" d="M742.8486,-1095.8836C717.7558,-1086.5889 734.029,-1039.3403 753,-1010 774.1703,-977.2583 811.8297,-1006.7417 833,-974 863.527,-926.7873 889.2222,-847.5 833,-847.5"/>
<polygon fill="#000000" stroke="#000000" points="743.1244,-1095.9274 752.2923,-1101.944 748.0622,-1096.7137 753,-1097.5 753,-1097.5 753,-1097.5 748.0622,-1096.7137 753.7077,-1093.056 743.1244,-1095.9274 743.1244,-1095.9274"/>
<text text-anchor="start" x="759.5935" y="-1107.5" font-family="Arial" font-size="10.00" fill="#000000">FOREIGN KEY (message_id) REFERENCES t_messages(message_id) ON UPDATE CASCADE ON DELETE CASCADE</text>
</g>
</g>
</svg>
