<?xml version="1.0" encoding="UTF-8" standalone="no"?>
<!DOCTYPE svg PUBLIC "-//W3C//DTD SVG 1.1//EN"
 "http://www.w3.org/Graphics/SVG/1.1/DTD/svg11.dtd">
<!-- Generated by graphviz version 2.40.1 (20161225.0304)
 -->
<!-- Title: public.m_chat_rooms Pages: 1 -->
<svg width="1540pt" height="1439pt"
 viewBox="0.00 0.00 1540.00 1439.00" xmlns="http://www.w3.org/2000/svg" xmlns:xlink="http://www.w3.org/1999/xlink">
<g id="graph0" class="graph" transform="scale(1 1) rotate(0) translate(4 1435)">
<title>public.m_chat_rooms</title>
<polygon fill="#ffffff" stroke="transparent" points="-4,4 -4,-1435 1536,-1435 1536,4 -4,4"/>
<!-- public.m_chat_rooms -->
<g id="node1" class="node">
<title>public.m_chat_rooms</title>
<polygon fill="#efefef" stroke="transparent" points="540,-892.5 540,-927.5 852,-927.5 852,-892.5 540,-892.5"/>
<polygon fill="none" stroke="#000000" points="540,-892.5 540,-927.5 852,-927.5 852,-892.5 540,-892.5"/>
<text text-anchor="start" x="546.7034" y="-905.3" font-family="Arial Bold" font-size="18.00" fill="#000000">public.m_chat_rooms</text>
<text text-anchor="start" x="717.7286" y="-905.3" font-family="Arial" font-size="14.00" fill="#000000">    </text>
<text text-anchor="start" x="751.9334" y="-905.3" font-family="Arial" font-size="14.00" fill="#666666">[BASE TABLE]</text>
<polygon fill="none" stroke="#000000" points="540,-862.5 540,-892.5 852,-892.5 852,-862.5 540,-862.5"/>
<text text-anchor="start" x="547" y="-873.9" font-family="Arial" font-size="14.00" fill="#000000">m_chat_rooms_pkey </text>
<text text-anchor="start" x="680.8064" y="-873.9" font-family="Arial" font-size="14.00" fill="#666666">[bigint]</text>
<polygon fill="none" stroke="#000000" points="540,-832.5 540,-862.5 852,-862.5 852,-832.5 540,-832.5"/>
<text text-anchor="start" x="547" y="-843.9" font-family="Arial" font-size="14.00" fill="#000000">chat_room_id </text>
<text text-anchor="start" x="635.6872" y="-843.9" font-family="Arial" font-size="14.00" fill="#666666">[uuid]</text>
<polygon fill="none" stroke="#000000" points="540,-802.5 540,-832.5 852,-832.5 852,-802.5 540,-802.5"/>
<text text-anchor="start" x="547" y="-813.9" font-family="Arial" font-size="14.00" fill="#000000">name </text>
<text text-anchor="start" x="585.899" y="-813.9" font-family="Arial" font-size="14.00" fill="#666666">[varchar(255)]</text>
<polygon fill="none" stroke="#000000" points="540,-772.5 540,-802.5 852,-802.5 852,-772.5 540,-772.5"/>
<text text-anchor="start" x="547" y="-783.9" font-family="Arial" font-size="14.00" fill="#000000">is_private </text>
<text text-anchor="start" x="610.7854" y="-783.9" font-family="Arial" font-size="14.00" fill="#666666">[boolean]</text>
<polygon fill="none" stroke="#000000" points="540,-742.5 540,-772.5 852,-772.5 852,-742.5 540,-742.5"/>
<text text-anchor="start" x="547" y="-753.9" font-family="Arial" font-size="14.00" fill="#000000">cover_image_url </text>
<text text-anchor="start" x="654.3464" y="-753.9" font-family="Arial" font-size="14.00" fill="#666666">[text]</text>
<polygon fill="none" stroke="#000000" points="540,-712.5 540,-742.5 852,-742.5 852,-712.5 540,-712.5"/>
<text text-anchor="start" x="547" y="-723.9" font-family="Arial" font-size="14.00" fill="#000000">owner_id </text>
<text text-anchor="start" x="607.6774" y="-723.9" font-family="Arial" font-size="14.00" fill="#666666">[uuid]</text>
<polygon fill="none" stroke="#000000" points="540,-682.5 540,-712.5 852,-712.5 852,-682.5 540,-682.5"/>
<text text-anchor="start" x="547" y="-693.9" font-family="Arial" font-size="14.00" fill="#000000">from_organization </text>
<text text-anchor="start" x="662.9102" y="-693.9" font-family="Arial" font-size="14.00" fill="#666666">[boolean]</text>
<polygon fill="none" stroke="#000000" points="540,-652.5 540,-682.5 852,-682.5 852,-652.5 540,-652.5"/>
<text text-anchor="start" x="547" y="-663.9" font-family="Arial" font-size="14.00" fill="#000000">created_at </text>
<text text-anchor="start" x="617.028" y="-663.9" font-family="Arial" font-size="14.00" fill="#666666">[timestamp with time zone]</text>
<polygon fill="none" stroke="#000000" points="540,-622.5 540,-652.5 852,-652.5 852,-622.5 540,-622.5"/>
<text text-anchor="start" x="547" y="-633.9" font-family="Arial" font-size="14.00" fill="#000000">updated_at </text>
<text text-anchor="start" x="620.9326" y="-633.9" font-family="Arial" font-size="14.00" fill="#666666">[timestamp with time zone]</text>
<polygon fill="none" stroke="#000000" stroke-width="3" points="538.5,-621.5 538.5,-929.5 853.5,-929.5 853.5,-621.5 538.5,-621.5"/>
</g>
<!-- public.m_members -->
<g id="node5" class="node">
<title>public.m_members</title>
<polygon fill="#efefef" stroke="transparent" points="549,-462.5 549,-497.5 842,-497.5 842,-462.5 549,-462.5"/>
<polygon fill="none" stroke="#000000" points="549,-462.5 549,-497.5 842,-497.5 842,-462.5 549,-462.5"/>
<text text-anchor="start" x="555.7146" y="-475.3" font-family="Arial Bold" font-size="18.00" fill="#000000">public.m_members</text>
<text text-anchor="start" x="707.7174" y="-475.3" font-family="Arial" font-size="14.00" fill="#000000">    </text>
<text text-anchor="start" x="741.9222" y="-475.3" font-family="Arial" font-size="14.00" fill="#666666">[BASE TABLE]</text>
<polygon fill="none" stroke="#000000" points="549,-432.5 549,-462.5 842,-462.5 842,-432.5 549,-432.5"/>
<text text-anchor="start" x="556" y="-443.9" font-family="Arial" font-size="14.00" fill="#000000">m_members_pkey    </text>
<text text-anchor="start" x="705.3254" y="-443.9" font-family="Arial" font-size="14.00" fill="#666666">[bigint]</text>
<polygon fill="none" stroke="#000000" points="549,-402.5 549,-432.5 842,-432.5 842,-402.5 549,-402.5"/>
<text text-anchor="start" x="556" y="-413.9" font-family="Arial" font-size="14.00" fill="#000000">member_id    </text>
<text text-anchor="start" x="660.2062" y="-413.9" font-family="Arial" font-size="14.00" fill="#666666">[uuid]</text>
<polygon fill="none" stroke="#000000" points="549,-372.5 549,-402.5 842,-402.5 842,-372.5 549,-372.5"/>
<text text-anchor="start" x="556" y="-383.9" font-family="Arial" font-size="14.00" fill="#000000">login_id    </text>
<text text-anchor="start" x="638.4376" y="-383.9" font-family="Arial" font-size="14.00" fill="#666666">[varchar(255)]</text>
<polygon fill="none" stroke="#000000" points="549,-342.5 549,-372.5 842,-372.5 842,-342.5 549,-342.5"/>
<text text-anchor="start" x="556" y="-353.9" font-family="Arial" font-size="14.00" fill="#000000">password    </text>
<text text-anchor="start" x="650.1024" y="-353.9" font-family="Arial" font-size="14.00" fill="#666666">[varchar(255)]</text>
<polygon fill="none" stroke="#000000" points="549,-312.5 549,-342.5 842,-342.5 842,-312.5 549,-312.5"/>
<text text-anchor="start" x="556" y="-323.9" font-family="Arial" font-size="14.00" fill="#000000">email    </text>
<text text-anchor="start" x="623.6438" y="-323.9" font-family="Arial" font-size="14.00" fill="#666666">[varchar(255)]</text>
<polygon fill="none" stroke="#000000" points="549,-282.5 549,-312.5 842,-312.5 842,-282.5 549,-282.5"/>
<text text-anchor="start" x="556" y="-293.9" font-family="Arial" font-size="14.00" fill="#000000">name    </text>
<text text-anchor="start" x="625.2132" y="-293.9" font-family="Arial" font-size="14.00" fill="#666666">[varchar(255)]</text>
<polygon fill="none" stroke="#000000" points="549,-252.5 549,-282.5 842,-282.5 842,-252.5 549,-252.5"/>
<text text-anchor="start" x="556" y="-263.9" font-family="Arial" font-size="14.00" fill="#000000">attend_status_id    </text>
<text text-anchor="start" x="692.9172" y="-263.9" font-family="Arial" font-size="14.00" fill="#666666">[uuid]</text>
<polygon fill="none" stroke="#000000" points="549,-222.5 549,-252.5 842,-252.5 842,-222.5 549,-222.5"/>
<text text-anchor="start" x="556" y="-233.9" font-family="Arial" font-size="14.00" fill="#000000">profile_image_url    </text>
<text text-anchor="start" x="697.547" y="-233.9" font-family="Arial" font-size="14.00" fill="#666666">[text]</text>
<polygon fill="none" stroke="#000000" points="549,-192.5 549,-222.5 842,-222.5 842,-192.5 549,-192.5"/>
<text text-anchor="start" x="556" y="-203.9" font-family="Arial" font-size="14.00" fill="#000000">grade_id    </text>
<text text-anchor="start" x="644.6676" y="-203.9" font-family="Arial" font-size="14.00" fill="#666666">[uuid]</text>
<polygon fill="none" stroke="#000000" points="549,-162.5 549,-192.5 842,-192.5 842,-162.5 549,-162.5"/>
<text text-anchor="start" x="556" y="-173.9" font-family="Arial" font-size="14.00" fill="#000000">group_id    </text>
<text text-anchor="start" x="644.6676" y="-173.9" font-family="Arial" font-size="14.00" fill="#666666">[uuid]</text>
<polygon fill="none" stroke="#000000" points="549,-132.5 549,-162.5 842,-162.5 842,-132.5 549,-132.5"/>
<text text-anchor="start" x="556" y="-143.9" font-family="Arial" font-size="14.00" fill="#000000">personal_organization_id    </text>
<text text-anchor="start" x="746.582" y="-143.9" font-family="Arial" font-size="14.00" fill="#666666">[uuid]</text>
<polygon fill="none" stroke="#000000" points="549,-102.5 549,-132.5 842,-132.5 842,-102.5 549,-102.5"/>
<text text-anchor="start" x="556" y="-113.9" font-family="Arial" font-size="14.00" fill="#000000">role_id    </text>
<text text-anchor="start" x="632.209" y="-113.9" font-family="Arial" font-size="14.00" fill="#666666">[uuid]</text>
<polygon fill="none" stroke="#000000" points="549,-72.5 549,-102.5 842,-102.5 842,-72.5 549,-72.5"/>
<text text-anchor="start" x="556" y="-83.9" font-family="Arial" font-size="14.00" fill="#000000">created_at    </text>
<text text-anchor="start" x="656.3422" y="-83.9" font-family="Arial" font-size="14.00" fill="#666666">[timestamp with time zone]</text>
<polygon fill="none" stroke="#000000" points="549,-42.5 549,-72.5 842,-72.5 842,-42.5 549,-42.5"/>
<text text-anchor="start" x="556" y="-53.9" font-family="Arial" font-size="14.00" fill="#000000">updated_at    </text>
<text text-anchor="start" x="660.2468" y="-53.9" font-family="Arial" font-size="14.00" fill="#666666">[timestamp with time zone]</text>
</g>
<!-- public.m_chat_rooms&#45;&gt;public.m_members -->
<g id="edge4" class="edge">
<title>public.m_chat_rooms:owner_id&#45;&gt;public.m_members:member_id</title>
<path fill="none" stroke="#000000" d="M529.8168,-726.6232C475.6353,-716.6608 498.0185,-624.2832 540,-577 629.7464,-475.9199 752.2536,-642.0801 842,-541 878.4429,-499.9549 896.8889,-417.5 842,-417.5"/>
<polygon fill="#000000" stroke="#000000" points="530.0369,-726.642 539.6139,-731.9834 535.0184,-727.071 540,-727.5 540,-727.5 540,-727.5 535.0184,-727.071 540.3861,-723.0166 530.0369,-726.642 530.0369,-726.642"/>
<text text-anchor="start" x="6.9405" y="-737.5" font-family="Arial" font-size="10.00" fill="#000000">FOREIGN KEY (owner_id) REFERENCES m_members(member_id) ON UPDATE SET NULL ON DELETE SET NULL</text>
</g>
<!-- public.m_organizations -->
<g id="node2" class="node">
<title>public.m_organizations</title>
<polygon fill="#efefef" stroke="transparent" points="116,-1352.5 116,-1387.5 441,-1387.5 441,-1352.5 116,-1352.5"/>
<polygon fill="none" stroke="#000000" points="116,-1352.5 116,-1387.5 441,-1387.5 441,-1352.5 116,-1352.5"/>
<text text-anchor="start" x="122.6991" y="-1365.3" font-family="Arial Bold" font-size="18.00" fill="#000000">public.m_organizations</text>
<text text-anchor="start" x="306.7329" y="-1365.3" font-family="Arial" font-size="14.00" fill="#000000">    </text>
<text text-anchor="start" x="340.9377" y="-1365.3" font-family="Arial" font-size="14.00" fill="#666666">[BASE TABLE]</text>
<polygon fill="none" stroke="#000000" points="116,-1322.5 116,-1352.5 441,-1352.5 441,-1322.5 116,-1322.5"/>
<text text-anchor="start" x="123" y="-1333.9" font-family="Arial" font-size="14.00" fill="#000000">m_organizations_pkey    </text>
<text text-anchor="start" x="297.2384" y="-1333.9" font-family="Arial" font-size="14.00" fill="#666666">[bigint]</text>
<polygon fill="none" stroke="#000000" points="116,-1292.5 116,-1322.5 441,-1322.5 441,-1292.5 116,-1292.5"/>
<text text-anchor="start" x="123" y="-1303.9" font-family="Arial" font-size="14.00" fill="#000000">organization_id    </text>
<text text-anchor="start" x="252.1192" y="-1303.9" font-family="Arial" font-size="14.00" fill="#666666">[uuid]</text>
<polygon fill="none" stroke="#000000" points="116,-1262.5 116,-1292.5 441,-1292.5 441,-1262.5 116,-1262.5"/>
<text text-anchor="start" x="123" y="-1273.9" font-family="Arial" font-size="14.00" fill="#000000">name    </text>
<text text-anchor="start" x="192.2132" y="-1273.9" font-family="Arial" font-size="14.00" fill="#666666">[varchar(255)]</text>
<polygon fill="none" stroke="#000000" points="116,-1232.5 116,-1262.5 441,-1262.5 441,-1232.5 116,-1232.5"/>
<text text-anchor="start" x="123" y="-1243.9" font-family="Arial" font-size="14.00" fill="#000000">description    </text>
<text text-anchor="start" x="224.8822" y="-1243.9" font-family="Arial" font-size="14.00" fill="#666666">[text]</text>
<polygon fill="none" stroke="#000000" points="116,-1202.5 116,-1232.5 441,-1232.5 441,-1202.5 116,-1202.5"/>
<text text-anchor="start" x="123" y="-1213.9" font-family="Arial" font-size="14.00" fill="#000000">color    </text>
<text text-anchor="start" x="187.5372" y="-1213.9" font-family="Arial" font-size="14.00" fill="#666666">[varchar(7)]</text>
<polygon fill="none" stroke="#000000" points="116,-1172.5 116,-1202.5 441,-1202.5 441,-1172.5 116,-1172.5"/>
<text text-anchor="start" x="123" y="-1183.9" font-family="Arial" font-size="14.00" fill="#000000">is_personal    </text>
<text text-anchor="start" x="228.7742" y="-1183.9" font-family="Arial" font-size="14.00" fill="#666666">[boolean]</text>
<polygon fill="none" stroke="#000000" points="116,-1142.5 116,-1172.5 441,-1172.5 441,-1142.5 116,-1142.5"/>
<text text-anchor="start" x="123" y="-1153.9" font-family="Arial" font-size="14.00" fill="#000000">is_whole    </text>
<text text-anchor="start" x="211.655" y="-1153.9" font-family="Arial" font-size="14.00" fill="#666666">[boolean]</text>
<polygon fill="none" stroke="#000000" points="116,-1112.5 116,-1142.5 441,-1142.5 441,-1112.5 116,-1112.5"/>
<text text-anchor="start" x="123" y="-1123.9" font-family="Arial" font-size="14.00" fill="#000000">created_at    </text>
<text text-anchor="start" x="223.3422" y="-1123.9" font-family="Arial" font-size="14.00" fill="#666666">[timestamp with time zone]</text>
<polygon fill="none" stroke="#000000" points="116,-1082.5 116,-1112.5 441,-1112.5 441,-1082.5 116,-1082.5"/>
<text text-anchor="start" x="123" y="-1093.9" font-family="Arial" font-size="14.00" fill="#000000">updated_at    </text>
<text text-anchor="start" x="227.2468" y="-1093.9" font-family="Arial" font-size="14.00" fill="#666666">[timestamp with time zone]</text>
<polygon fill="none" stroke="#000000" points="116,-1052.5 116,-1082.5 441,-1082.5 441,-1052.5 116,-1052.5"/>
<text text-anchor="start" x="123" y="-1063.9" font-family="Arial" font-size="14.00" fill="#000000">chat_room_id    </text>
<text text-anchor="start" x="242.0014" y="-1063.9" font-family="Arial" font-size="14.00" fill="#666666">[uuid]</text>
</g>
<!-- public.m_organizations&#45;&gt;public.m_chat_rooms -->
<g id="edge1" class="edge">
<title>public.m_organizations:chat_room_id&#45;&gt;public.m_chat_rooms:chat_room_id</title>
<path fill="none" stroke="#000000" d="M451.2318,-1066.7465C540.5902,-1052.718 436.4431,-847.5 540,-847.5"/>
<polygon fill="#000000" stroke="#000000" points="450.973,-1066.7655 440.6695,-1063.0122 445.9865,-1067.1327 441,-1067.5 441,-1067.5 441,-1067.5 445.9865,-1067.1327 441.3305,-1071.9878 450.973,-1066.7655 450.973,-1066.7655"/>
<text text-anchor="start" x="448.159" y="-1051.5" font-family="Arial" font-size="10.00" fill="#000000">FOREIGN KEY (chat_room_id) REFERENCES m_chat_rooms(chat_room_id) ON UPDATE RESTRICT ON DELETE RESTRICT</text>
</g>
<!-- public.t_messages -->
<g id="node3" class="node">
<title>public.t_messages</title>
<polygon fill="#efefef" stroke="transparent" points="545,-1307.5 545,-1342.5 846,-1342.5 846,-1307.5 545,-1307.5"/>
<polygon fill="none" stroke="#000000" points="545,-1307.5 545,-1342.5 846,-1342.5 846,-1307.5 545,-1307.5"/>
<text text-anchor="start" x="557.1987" y="-1320.3" font-family="Arial Bold" font-size="18.00" fill="#000000">public.t_messages</text>
<text text-anchor="start" x="706.2333" y="-1320.3" font-family="Arial" font-size="14.00" fill="#000000">    </text>
<text text-anchor="start" x="740.4381" y="-1320.3" font-family="Arial" font-size="14.00" fill="#666666">[BASE TABLE]</text>
<polygon fill="none" stroke="#000000" points="545,-1277.5 545,-1307.5 846,-1307.5 846,-1277.5 545,-1277.5"/>
<text text-anchor="start" x="552" y="-1288.9" font-family="Arial" font-size="14.00" fill="#000000">t_messages_pkey    </text>
<text text-anchor="start" x="699.0168" y="-1288.9" font-family="Arial" font-size="14.00" fill="#666666">[bigint]</text>
<polygon fill="none" stroke="#000000" points="545,-1247.5 545,-1277.5 846,-1277.5 846,-1247.5 545,-1247.5"/>
<text text-anchor="start" x="552" y="-1258.9" font-family="Arial" font-size="14.00" fill="#000000">message_id    </text>
<text text-anchor="start" x="661.6676" y="-1258.9" font-family="Arial" font-size="14.00" fill="#666666">[uuid]</text>
<polygon fill="none" stroke="#000000" points="545,-1217.5 545,-1247.5 846,-1247.5 846,-1217.5 545,-1217.5"/>
<text text-anchor="start" x="552" y="-1228.9" font-family="Arial" font-size="14.00" fill="#000000">chat_room_id    </text>
<text text-anchor="start" x="671.0014" y="-1228.9" font-family="Arial" font-size="14.00" fill="#666666">[uuid]</text>
<polygon fill="none" stroke="#000000" points="545,-1187.5 545,-1217.5 846,-1217.5 846,-1187.5 545,-1187.5"/>
<text text-anchor="start" x="552" y="-1198.9" font-family="Arial" font-size="14.00" fill="#000000">sender_id    </text>
<text text-anchor="start" x="647.6676" y="-1198.9" font-family="Arial" font-size="14.00" fill="#666666">[uuid]</text>
<polygon fill="none" stroke="#000000" points="545,-1157.5 545,-1187.5 846,-1187.5 846,-1157.5 545,-1157.5"/>
<text text-anchor="start" x="552" y="-1168.9" font-family="Arial" font-size="14.00" fill="#000000">body    </text>
<text text-anchor="start" x="616.5526" y="-1168.9" font-family="Arial" font-size="14.00" fill="#666666">[text]</text>
<polygon fill="none" stroke="#000000" points="545,-1127.5 545,-1157.5 846,-1157.5 846,-1127.5 545,-1127.5"/>
<text text-anchor="start" x="552" y="-1138.9" font-family="Arial" font-size="14.00" fill="#000000">posted_at    </text>
<text text-anchor="start" x="647.6816" y="-1138.9" font-family="Arial" font-size="14.00" fill="#666666">[timestamp with time zone]</text>
<polygon fill="none" stroke="#000000" points="545,-1097.5 545,-1127.5 846,-1127.5 846,-1097.5 545,-1097.5"/>
<text text-anchor="start" x="551.9825" y="-1108.9" font-family="Arial" font-size="14.00" fill="#000000">last_edited_at    </text>
<text text-anchor="start" x="673.3331" y="-1108.9" font-family="Arial" font-size="14.00" fill="#666666">[timestamp with time zone]</text>
</g>
<!-- public.t_messages&#45;&gt;public.m_chat_rooms -->
<g id="edge2" class="edge">
<title>public.t_messages:chat_room_id&#45;&gt;public.m_chat_rooms:chat_room_id</title>
<path fill="none" stroke="#000000" d="M856.3804,-1231.7593C921.9661,-1221.8354 891.8636,-1114.5836 846,-1055 760.1881,-943.5177 625.8119,-1085.4823 540,-974 505.7066,-929.4478 483.7778,-847.5 540,-847.5"/>
<polygon fill="#000000" stroke="#000000" points="855.9746,-1231.7881 845.6797,-1228.0114 850.9873,-1232.1441 846,-1232.5 846,-1232.5 846,-1232.5 850.9873,-1232.1441 846.3203,-1236.9886 855.9746,-1231.7881 855.9746,-1231.7881"/>
<text text-anchor="start" x="561.818" y="-1216.5" font-family="Arial" font-size="10.00" fill="#000000">FOREIGN KEY (chat_room_id) REFERENCES m_chat_rooms(chat_room_id) ON UPDATE CASCADE ON DELETE CASCADE</text>
</g>
<!-- public.m_chat_room_belongings -->
<g id="node4" class="node">
<title>public.m_chat_room_belongings</title>
<polygon fill="#efefef" stroke="transparent" points="950,-1262.5 950,-1297.5 1350,-1297.5 1350,-1262.5 950,-1262.5"/>
<polygon fill="none" stroke="#000000" points="950,-1262.5 950,-1297.5 1350,-1297.5 1350,-1262.5 950,-1262.5"/>
<text text-anchor="start" x="956.6844" y="-1275.3" font-family="Arial Bold" font-size="18.00" fill="#000000">public.m_chat_room_belongings</text>
<text text-anchor="start" x="1215.7476" y="-1275.3" font-family="Arial" font-size="14.00" fill="#000000">    </text>
<text text-anchor="start" x="1249.9524" y="-1275.3" font-family="Arial" font-size="14.00" fill="#666666">[BASE TABLE]</text>
<polygon fill="none" stroke="#000000" points="950,-1232.5 950,-1262.5 1350,-1262.5 1350,-1232.5 950,-1232.5"/>
<text text-anchor="start" x="957" y="-1243.9" font-family="Arial" font-size="14.00" fill="#000000">m_chat_room_belongings_pkey    </text>
<text text-anchor="start" x="1189.5946" y="-1243.9" font-family="Arial" font-size="14.00" fill="#666666">[bigint]</text>
<polygon fill="none" stroke="#000000" points="950,-1202.5 950,-1232.5 1350,-1232.5 1350,-1202.5 950,-1202.5"/>
<text text-anchor="start" x="957" y="-1213.9" font-family="Arial" font-size="14.00" fill="#000000">member_id    </text>
<text text-anchor="start" x="1061.2062" y="-1213.9" font-family="Arial" font-size="14.00" fill="#666666">[uuid]</text>
<polygon fill="none" stroke="#000000" points="950,-1172.5 950,-1202.5 1350,-1202.5 1350,-1172.5 950,-1172.5"/>
<text text-anchor="start" x="957" y="-1183.9" font-family="Arial" font-size="14.00" fill="#000000">chat_room_id    </text>
<text text-anchor="start" x="1076.0014" y="-1183.9" font-family="Arial" font-size="14.00" fill="#666666">[uuid]</text>
<polygon fill="none" stroke="#000000" points="950,-1142.5 950,-1172.5 1350,-1172.5 1350,-1142.5 950,-1142.5"/>
<text text-anchor="start" x="957" y="-1153.9" font-family="Arial" font-size="14.00" fill="#000000">added_at    </text>
<text text-anchor="start" x="1049.5736" y="-1153.9" font-family="Arial" font-size="14.00" fill="#666666">[timestamp with time zone]</text>
</g>
<!-- public.m_chat_room_belongings&#45;&gt;public.m_chat_rooms -->
<g id="edge3" class="edge">
<title>public.m_chat_room_belongings:chat_room_id&#45;&gt;public.m_chat_rooms:chat_room_id</title>
<path fill="none" stroke="#000000" d="M939.823,-1185.3288C876.6214,-1156.3721 926.9457,-847.5 852,-847.5"/>
<polygon fill="#000000" stroke="#000000" points="940.2201,-1185.4135 949.0611,-1191.901 945.11,-1186.4567 950,-1187.5 950,-1187.5 950,-1187.5 945.11,-1186.4567 950.9389,-1183.099 940.2201,-1185.4135 940.2201,-1185.4135"/>
<text text-anchor="start" x="956.818" y="-1171.5" font-family="Arial" font-size="10.00" fill="#000000">FOREIGN KEY (chat_room_id) REFERENCES m_chat_rooms(chat_room_id) ON UPDATE CASCADE ON DELETE CASCADE</text>
</g>
</g>
</svg>
