<?xml version="1.0" encoding="UTF-8" standalone="no"?>
<!DOCTYPE svg PUBLIC "-//W3C//DTD SVG 1.1//EN"
 "http://www.w3.org/Graphics/SVG/1.1/DTD/svg11.dtd">
<!-- Generated by graphviz version 2.40.1 (20161225.0304)
 -->
<!-- Title: public.m_chat_room_belongings Pages: 1 -->
<svg width="1540pt" height="892pt"
 viewBox="0.00 0.00 1540.00 892.00" xmlns="http://www.w3.org/2000/svg" xmlns:xlink="http://www.w3.org/1999/xlink">
<g id="graph0" class="graph" transform="scale(1 1) rotate(0) translate(4 888)">
<title>public.m_chat_room_belongings</title>
<polygon fill="#ffffff" stroke="transparent" points="-4,4 -4,-888 1536,-888 1536,4 -4,4"/>
<!-- public.m_chat_room_belongings -->
<g id="node1" class="node">
<title>public.m_chat_room_belongings</title>
<polygon fill="#efefef" stroke="transparent" points="550,-802.5 550,-837.5 950,-837.5 950,-802.5 550,-802.5"/>
<polygon fill="none" stroke="#000000" points="550,-802.5 550,-837.5 950,-837.5 950,-802.5 550,-802.5"/>
<text text-anchor="start" x="556.6844" y="-815.3" font-family="Arial Bold" font-size="18.00" fill="#000000">public.m_chat_room_belongings</text>
<text text-anchor="start" x="815.7476" y="-815.3" font-family="Arial" font-size="14.00" fill="#000000">    </text>
<text text-anchor="start" x="849.9524" y="-815.3" font-family="Arial" font-size="14.00" fill="#666666">[BASE TABLE]</text>
<polygon fill="none" stroke="#000000" points="550,-772.5 550,-802.5 950,-802.5 950,-772.5 550,-772.5"/>
<text text-anchor="start" x="557" y="-783.9" font-family="Arial" font-size="14.00" fill="#000000">m_chat_room_belongings_pkey </text>
<text text-anchor="start" x="759.2804" y="-783.9" font-family="Arial" font-size="14.00" fill="#666666">[bigint]</text>
<polygon fill="none" stroke="#000000" points="550,-742.5 550,-772.5 950,-772.5 950,-742.5 550,-742.5"/>
<text text-anchor="start" x="557" y="-753.9" font-family="Arial" font-size="14.00" fill="#000000">member_id </text>
<text text-anchor="start" x="630.892" y="-753.9" font-family="Arial" font-size="14.00" fill="#666666">[uuid]</text>
<polygon fill="none" stroke="#000000" points="550,-712.5 550,-742.5 950,-742.5 950,-712.5 550,-712.5"/>
<text text-anchor="start" x="557" y="-723.9" font-family="Arial" font-size="14.00" fill="#000000">chat_room_id </text>
<text text-anchor="start" x="645.6872" y="-723.9" font-family="Arial" font-size="14.00" fill="#666666">[uuid]</text>
<polygon fill="none" stroke="#000000" points="550,-682.5 550,-712.5 950,-712.5 950,-682.5 550,-682.5"/>
<text text-anchor="start" x="557" y="-693.9" font-family="Arial" font-size="14.00" fill="#000000">added_at </text>
<text text-anchor="start" x="619.2594" y="-693.9" font-family="Arial" font-size="14.00" fill="#666666">[timestamp with time zone]</text>
<polygon fill="none" stroke="#000000" stroke-width="3" points="548.5,-681.5 548.5,-839.5 951.5,-839.5 951.5,-681.5 548.5,-681.5"/>
</g>
<!-- public.m_members -->
<g id="node2" class="node">
<title>public.m_members</title>
<polygon fill="#efefef" stroke="transparent" points="400,-522.5 400,-557.5 693,-557.5 693,-522.5 400,-522.5"/>
<polygon fill="none" stroke="#000000" points="400,-522.5 400,-557.5 693,-557.5 693,-522.5 400,-522.5"/>
<text text-anchor="start" x="406.7146" y="-535.3" font-family="Arial Bold" font-size="18.00" fill="#000000">public.m_members</text>
<text text-anchor="start" x="558.7174" y="-535.3" font-family="Arial" font-size="14.00" fill="#000000">    </text>
<text text-anchor="start" x="592.9222" y="-535.3" font-family="Arial" font-size="14.00" fill="#666666">[BASE TABLE]</text>
<polygon fill="none" stroke="#000000" points="400,-492.5 400,-522.5 693,-522.5 693,-492.5 400,-492.5"/>
<text text-anchor="start" x="407" y="-503.9" font-family="Arial" font-size="14.00" fill="#000000">m_members_pkey    </text>
<text text-anchor="start" x="556.3254" y="-503.9" font-family="Arial" font-size="14.00" fill="#666666">[bigint]</text>
<polygon fill="none" stroke="#000000" points="400,-462.5 400,-492.5 693,-492.5 693,-462.5 400,-462.5"/>
<text text-anchor="start" x="407" y="-473.9" font-family="Arial" font-size="14.00" fill="#000000">member_id    </text>
<text text-anchor="start" x="511.2062" y="-473.9" font-family="Arial" font-size="14.00" fill="#666666">[uuid]</text>
<polygon fill="none" stroke="#000000" points="400,-432.5 400,-462.5 693,-462.5 693,-432.5 400,-432.5"/>
<text text-anchor="start" x="407" y="-443.9" font-family="Arial" font-size="14.00" fill="#000000">login_id    </text>
<text text-anchor="start" x="489.4376" y="-443.9" font-family="Arial" font-size="14.00" fill="#666666">[varchar(255)]</text>
<polygon fill="none" stroke="#000000" points="400,-402.5 400,-432.5 693,-432.5 693,-402.5 400,-402.5"/>
<text text-anchor="start" x="407" y="-413.9" font-family="Arial" font-size="14.00" fill="#000000">password    </text>
<text text-anchor="start" x="501.1024" y="-413.9" font-family="Arial" font-size="14.00" fill="#666666">[varchar(255)]</text>
<polygon fill="none" stroke="#000000" points="400,-372.5 400,-402.5 693,-402.5 693,-372.5 400,-372.5"/>
<text text-anchor="start" x="407" y="-383.9" font-family="Arial" font-size="14.00" fill="#000000">email    </text>
<text text-anchor="start" x="474.6438" y="-383.9" font-family="Arial" font-size="14.00" fill="#666666">[varchar(255)]</text>
<polygon fill="none" stroke="#000000" points="400,-342.5 400,-372.5 693,-372.5 693,-342.5 400,-342.5"/>
<text text-anchor="start" x="407" y="-353.9" font-family="Arial" font-size="14.00" fill="#000000">name    </text>
<text text-anchor="start" x="476.2132" y="-353.9" font-family="Arial" font-size="14.00" fill="#666666">[varchar(255)]</text>
<polygon fill="none" stroke="#000000" points="400,-312.5 400,-342.5 693,-342.5 693,-312.5 400,-312.5"/>
<text text-anchor="start" x="407" y="-323.9" font-family="Arial" font-size="14.00" fill="#000000">first_name    </text>
<text text-anchor="start" x="506.5442" y="-323.9" font-family="Arial" font-size="14.00" fill="#666666">[varchar(255)]</text>
<polygon fill="none" stroke="#000000" points="400,-282.5 400,-312.5 693,-312.5 693,-282.5 400,-282.5"/>
<text text-anchor="start" x="407" y="-293.9" font-family="Arial" font-size="14.00" fill="#000000">last_name    </text>
<text text-anchor="start" x="505.7756" y="-293.9" font-family="Arial" font-size="14.00" fill="#666666">[varchar(255)]</text>
<polygon fill="none" stroke="#000000" points="400,-252.5 400,-282.5 693,-282.5 693,-252.5 400,-252.5"/>
<text text-anchor="start" x="407" y="-263.9" font-family="Arial" font-size="14.00" fill="#000000">attend_status_id    </text>
<text text-anchor="start" x="543.9172" y="-263.9" font-family="Arial" font-size="14.00" fill="#666666">[uuid]</text>
<polygon fill="none" stroke="#000000" points="400,-222.5 400,-252.5 693,-252.5 693,-222.5 400,-222.5"/>
<text text-anchor="start" x="407" y="-233.9" font-family="Arial" font-size="14.00" fill="#000000">profile_image_id    </text>
<text text-anchor="start" x="543.8864" y="-233.9" font-family="Arial" font-size="14.00" fill="#666666">[uuid]</text>
<polygon fill="none" stroke="#000000" points="400,-192.5 400,-222.5 693,-222.5 693,-192.5 400,-192.5"/>
<text text-anchor="start" x="407" y="-203.9" font-family="Arial" font-size="14.00" fill="#000000">grade_id    </text>
<text text-anchor="start" x="495.6676" y="-203.9" font-family="Arial" font-size="14.00" fill="#666666">[uuid]</text>
<polygon fill="none" stroke="#000000" points="400,-162.5 400,-192.5 693,-192.5 693,-162.5 400,-162.5"/>
<text text-anchor="start" x="407" y="-173.9" font-family="Arial" font-size="14.00" fill="#000000">group_id    </text>
<text text-anchor="start" x="495.6676" y="-173.9" font-family="Arial" font-size="14.00" fill="#666666">[uuid]</text>
<polygon fill="none" stroke="#000000" points="400,-132.5 400,-162.5 693,-162.5 693,-132.5 400,-132.5"/>
<text text-anchor="start" x="407" y="-143.9" font-family="Arial" font-size="14.00" fill="#000000">personal_organization_id    </text>
<text text-anchor="start" x="597.582" y="-143.9" font-family="Arial" font-size="14.00" fill="#666666">[uuid]</text>
<polygon fill="none" stroke="#000000" points="400,-102.5 400,-132.5 693,-132.5 693,-102.5 400,-102.5"/>
<text text-anchor="start" x="407" y="-113.9" font-family="Arial" font-size="14.00" fill="#000000">role_id    </text>
<text text-anchor="start" x="483.209" y="-113.9" font-family="Arial" font-size="14.00" fill="#666666">[uuid]</text>
<polygon fill="none" stroke="#000000" points="400,-72.5 400,-102.5 693,-102.5 693,-72.5 400,-72.5"/>
<text text-anchor="start" x="407" y="-83.9" font-family="Arial" font-size="14.00" fill="#000000">created_at    </text>
<text text-anchor="start" x="507.3422" y="-83.9" font-family="Arial" font-size="14.00" fill="#666666">[timestamp with time zone]</text>
<polygon fill="none" stroke="#000000" points="400,-42.5 400,-72.5 693,-72.5 693,-42.5 400,-42.5"/>
<text text-anchor="start" x="407" y="-53.9" font-family="Arial" font-size="14.00" fill="#000000">updated_at    </text>
<text text-anchor="start" x="511.2468" y="-53.9" font-family="Arial" font-size="14.00" fill="#666666">[timestamp with time zone]</text>
</g>
<!-- public.m_chat_room_belongings&#45;&gt;public.m_members -->
<g id="edge1" class="edge">
<title>public.m_chat_room_belongings:member_id&#45;&gt;public.m_members:member_id</title>
<path fill="none" stroke="#000000" d="M540.0372,-756.4394C499.3226,-746.9687 519.3266,-676.3524 550,-637 590.2908,-585.309 652.7092,-652.691 693,-601 726.7437,-557.7085 747.8889,-477.5 693,-477.5"/>
<polygon fill="#000000" stroke="#000000" points="540.0562,-756.4413 549.5236,-761.9747 545.0281,-756.9707 550,-757.5 550,-757.5 550,-757.5 545.0281,-756.9707 550.4764,-753.0253 540.0562,-756.4413 540.0562,-756.4413"/>
<text text-anchor="start" x="6.67" y="-767.5" font-family="Arial" font-size="10.00" fill="#000000">FOREIGN KEY (member_id) REFERENCES m_members(member_id) ON UPDATE CASCADE ON DELETE CASCADE</text>
</g>
<!-- public.m_chat_rooms -->
<g id="node3" class="node">
<title>public.m_chat_rooms</title>
<polygon fill="#efefef" stroke="transparent" points="797,-417.5 797,-452.5 1109,-452.5 1109,-417.5 797,-417.5"/>
<polygon fill="none" stroke="#000000" points="797,-417.5 797,-452.5 1109,-452.5 1109,-417.5 797,-417.5"/>
<text text-anchor="start" x="803.7034" y="-430.3" font-family="Arial Bold" font-size="18.00" fill="#000000">public.m_chat_rooms</text>
<text text-anchor="start" x="974.7286" y="-430.3" font-family="Arial" font-size="14.00" fill="#000000">    </text>
<text text-anchor="start" x="1008.9334" y="-430.3" font-family="Arial" font-size="14.00" fill="#666666">[BASE TABLE]</text>
<polygon fill="none" stroke="#000000" points="797,-387.5 797,-417.5 1109,-417.5 1109,-387.5 797,-387.5"/>
<text text-anchor="start" x="804" y="-398.9" font-family="Arial" font-size="14.00" fill="#000000">m_chat_rooms_pkey    </text>
<text text-anchor="start" x="968.1206" y="-398.9" font-family="Arial" font-size="14.00" fill="#666666">[bigint]</text>
<polygon fill="none" stroke="#000000" points="797,-357.5 797,-387.5 1109,-387.5 1109,-357.5 797,-357.5"/>
<text text-anchor="start" x="804" y="-368.9" font-family="Arial" font-size="14.00" fill="#000000">chat_room_id    </text>
<text text-anchor="start" x="923.0014" y="-368.9" font-family="Arial" font-size="14.00" fill="#666666">[uuid]</text>
<polygon fill="none" stroke="#000000" points="797,-327.5 797,-357.5 1109,-357.5 1109,-327.5 797,-327.5"/>
<text text-anchor="start" x="804" y="-338.9" font-family="Arial" font-size="14.00" fill="#000000">name    </text>
<text text-anchor="start" x="873.2132" y="-338.9" font-family="Arial" font-size="14.00" fill="#666666">[varchar(255)]</text>
<polygon fill="none" stroke="#000000" points="797,-297.5 797,-327.5 1109,-327.5 1109,-297.5 797,-297.5"/>
<text text-anchor="start" x="804" y="-308.9" font-family="Arial" font-size="14.00" fill="#000000">is_private    </text>
<text text-anchor="start" x="898.0996" y="-308.9" font-family="Arial" font-size="14.00" fill="#666666">[boolean]</text>
<polygon fill="none" stroke="#000000" points="797,-267.5 797,-297.5 1109,-297.5 1109,-267.5 797,-267.5"/>
<text text-anchor="start" x="804" y="-278.9" font-family="Arial" font-size="14.00" fill="#000000">cover_image_id    </text>
<text text-anchor="start" x="937" y="-278.9" font-family="Arial" font-size="14.00" fill="#666666">[uuid]</text>
<polygon fill="none" stroke="#000000" points="797,-237.5 797,-267.5 1109,-267.5 1109,-237.5 797,-237.5"/>
<text text-anchor="start" x="804" y="-248.9" font-family="Arial" font-size="14.00" fill="#000000">owner_id    </text>
<text text-anchor="start" x="894.9916" y="-248.9" font-family="Arial" font-size="14.00" fill="#666666">[uuid]</text>
<polygon fill="none" stroke="#000000" points="797,-207.5 797,-237.5 1109,-237.5 1109,-207.5 797,-207.5"/>
<text text-anchor="start" x="804" y="-218.9" font-family="Arial" font-size="14.00" fill="#000000">from_organization    </text>
<text text-anchor="start" x="950.2244" y="-218.9" font-family="Arial" font-size="14.00" fill="#666666">[boolean]</text>
<polygon fill="none" stroke="#000000" points="797,-177.5 797,-207.5 1109,-207.5 1109,-177.5 797,-177.5"/>
<text text-anchor="start" x="804" y="-188.9" font-family="Arial" font-size="14.00" fill="#000000">created_at    </text>
<text text-anchor="start" x="904.3422" y="-188.9" font-family="Arial" font-size="14.00" fill="#666666">[timestamp with time zone]</text>
<polygon fill="none" stroke="#000000" points="797,-147.5 797,-177.5 1109,-177.5 1109,-147.5 797,-147.5"/>
<text text-anchor="start" x="804" y="-158.9" font-family="Arial" font-size="14.00" fill="#000000">updated_at    </text>
<text text-anchor="start" x="908.2468" y="-158.9" font-family="Arial" font-size="14.00" fill="#666666">[timestamp with time zone]</text>
</g>
<!-- public.m_chat_room_belongings&#45;&gt;public.m_chat_rooms -->
<g id="edge2" class="edge">
<title>public.m_chat_room_belongings:chat_room_id&#45;&gt;public.m_chat_rooms:chat_room_id</title>
<path fill="none" stroke="#000000" d="M960.0116,-726.0304C985.5957,-717.1797 964.5702,-670.2413 950,-637 912.8773,-552.3063 834.1227,-580.6937 797,-496 774.965,-445.7282 742.1111,-372.5 797,-372.5"/>
<polygon fill="#000000" stroke="#000000" points="959.894,-726.0476 949.3464,-723.0477 954.947,-726.7738 950,-727.5 950,-727.5 950,-727.5 954.947,-726.7738 950.6536,-731.9523 959.894,-726.0476 959.894,-726.0476"/>
<text text-anchor="start" x="956.818" y="-737.5" font-family="Arial" font-size="10.00" fill="#000000">FOREIGN KEY (chat_room_id) REFERENCES m_chat_rooms(chat_room_id) ON UPDATE CASCADE ON DELETE CASCADE</text>
</g>
</g>
</svg>
