<?xml version="1.0" encoding="UTF-8" standalone="no"?>
<!DOCTYPE svg PUBLIC "-//W3C//DTD SVG 1.1//EN"
 "http://www.w3.org/Graphics/SVG/1.1/DTD/svg11.dtd">
<!-- Generated by graphviz version 2.40.1 (20161225.0304)
 -->
<!-- Title: public.t_attached_messages Pages: 1 -->
<svg width="1578pt" height="652pt"
 viewBox="0.00 0.00 1578.00 652.00" xmlns="http://www.w3.org/2000/svg" xmlns:xlink="http://www.w3.org/1999/xlink">
<g id="graph0" class="graph" transform="scale(1 1) rotate(0) translate(4 648)">
<title>public.t_attached_messages</title>
<polygon fill="#ffffff" stroke="transparent" points="-4,4 -4,-648 1574,-648 1574,4 -4,4"/>
<!-- public.t_attached_messages -->
<g id="node1" class="node">
<title>public.t_attached_messages</title>
<polygon fill="#efefef" stroke="transparent" points="556,-562.5 556,-597.5 925,-597.5 925,-562.5 556,-562.5"/>
<polygon fill="none" stroke="#000000" points="556,-562.5 556,-597.5 925,-597.5 925,-562.5 556,-562.5"/>
<text text-anchor="start" x="562.6779" y="-575.3" font-family="Arial Bold" font-size="18.00" fill="#000000">public.t_attached_messages</text>
<text text-anchor="start" x="790.7541" y="-575.3" font-family="Arial" font-size="14.00" fill="#000000">    </text>
<text text-anchor="start" x="824.9589" y="-575.3" font-family="Arial" font-size="14.00" fill="#666666">[BASE TABLE]</text>
<polygon fill="none" stroke="#000000" points="556,-532.5 556,-562.5 925,-562.5 925,-532.5 556,-532.5"/>
<text text-anchor="start" x="563" y="-543.9" font-family="Arial" font-size="14.00" fill="#000000">t_attached_messages_pkey </text>
<text text-anchor="start" x="741.1794" y="-543.9" font-family="Arial" font-size="14.00" fill="#666666">[bigint]</text>
<polygon fill="none" stroke="#000000" points="556,-502.5 556,-532.5 925,-532.5 925,-502.5 556,-502.5"/>
<text text-anchor="start" x="563" y="-513.9" font-family="Arial" font-size="14.00" fill="#000000">attached_message_id </text>
<text text-anchor="start" x="703.8302" y="-513.9" font-family="Arial" font-size="14.00" fill="#666666">[uuid]</text>
<polygon fill="none" stroke="#000000" points="556,-472.5 556,-502.5 925,-502.5 925,-472.5 556,-472.5"/>
<text text-anchor="start" x="563" y="-483.9" font-family="Arial" font-size="14.00" fill="#000000">message_id </text>
<text text-anchor="start" x="642.3534" y="-483.9" font-family="Arial" font-size="14.00" fill="#666666">[uuid]</text>
<polygon fill="none" stroke="#000000" points="556,-442.5 556,-472.5 925,-472.5 925,-442.5 556,-442.5"/>
<text text-anchor="start" x="563" y="-453.9" font-family="Arial" font-size="14.00" fill="#000000">attachable_item_id </text>
<text text-anchor="start" x="684.3688" y="-453.9" font-family="Arial" font-size="14.00" fill="#666666">[uuid]</text>
<polygon fill="none" stroke="#000000" stroke-width="3" points="554,-441.5 554,-599.5 926,-599.5 926,-441.5 554,-441.5"/>
</g>
<!-- public.t_messages -->
<g id="node2" class="node">
<title>public.t_messages</title>
<polygon fill="#efefef" stroke="transparent" points="377,-267.5 377,-302.5 678,-302.5 678,-267.5 377,-267.5"/>
<polygon fill="none" stroke="#000000" points="377,-267.5 377,-302.5 678,-302.5 678,-267.5 377,-267.5"/>
<text text-anchor="start" x="389.1987" y="-280.3" font-family="Arial Bold" font-size="18.00" fill="#000000">public.t_messages</text>
<text text-anchor="start" x="538.2333" y="-280.3" font-family="Arial" font-size="14.00" fill="#000000">    </text>
<text text-anchor="start" x="572.4381" y="-280.3" font-family="Arial" font-size="14.00" fill="#666666">[BASE TABLE]</text>
<polygon fill="none" stroke="#000000" points="377,-237.5 377,-267.5 678,-267.5 678,-237.5 377,-237.5"/>
<text text-anchor="start" x="384" y="-248.9" font-family="Arial" font-size="14.00" fill="#000000">t_messages_pkey    </text>
<text text-anchor="start" x="531.0168" y="-248.9" font-family="Arial" font-size="14.00" fill="#666666">[bigint]</text>
<polygon fill="none" stroke="#000000" points="377,-207.5 377,-237.5 678,-237.5 678,-207.5 377,-207.5"/>
<text text-anchor="start" x="384" y="-218.9" font-family="Arial" font-size="14.00" fill="#000000">message_id    </text>
<text text-anchor="start" x="493.6676" y="-218.9" font-family="Arial" font-size="14.00" fill="#666666">[uuid]</text>
<polygon fill="none" stroke="#000000" points="377,-177.5 377,-207.5 678,-207.5 678,-177.5 377,-177.5"/>
<text text-anchor="start" x="384" y="-188.9" font-family="Arial" font-size="14.00" fill="#000000">sender_id    </text>
<text text-anchor="start" x="479.6676" y="-188.9" font-family="Arial" font-size="14.00" fill="#666666">[uuid]</text>
<polygon fill="none" stroke="#000000" points="377,-147.5 377,-177.5 678,-177.5 678,-147.5 377,-147.5"/>
<text text-anchor="start" x="384" y="-158.9" font-family="Arial" font-size="14.00" fill="#000000">body    </text>
<text text-anchor="start" x="448.5526" y="-158.9" font-family="Arial" font-size="14.00" fill="#666666">[text]</text>
<polygon fill="none" stroke="#000000" points="377,-117.5 377,-147.5 678,-147.5 678,-117.5 377,-117.5"/>
<text text-anchor="start" x="384" y="-128.9" font-family="Arial" font-size="14.00" fill="#000000">posted_at    </text>
<text text-anchor="start" x="479.6816" y="-128.9" font-family="Arial" font-size="14.00" fill="#666666">[timestamp with time zone]</text>
<polygon fill="none" stroke="#000000" points="377,-87.5 377,-117.5 678,-117.5 678,-87.5 377,-87.5"/>
<text text-anchor="start" x="383.9825" y="-98.9" font-family="Arial" font-size="14.00" fill="#000000">last_edited_at    </text>
<text text-anchor="start" x="505.3331" y="-98.9" font-family="Arial" font-size="14.00" fill="#666666">[timestamp with time zone]</text>
<polygon fill="none" stroke="#000000" points="377,-57.5 377,-87.5 678,-87.5 678,-57.5 377,-57.5"/>
<text text-anchor="start" x="384" y="-68.9" font-family="Arial" font-size="14.00" fill="#000000">chat_room_action_id    </text>
<text text-anchor="start" x="548.129" y="-68.9" font-family="Arial" font-size="14.00" fill="#666666">[uuid]</text>
</g>
<!-- public.t_attached_messages&#45;&gt;public.t_messages -->
<g id="edge1" class="edge">
<title>public.t_attached_messages:message_id&#45;&gt;public.t_messages:message_id</title>
<path fill="none" stroke="#000000" d="M545.8298,-485.9437C519.3214,-476.5878 535.8851,-427.2104 556,-397 588.5709,-348.0821 645.4291,-394.9179 678,-346 708.4203,-300.312 732.8889,-222.5 678,-222.5"/>
<polygon fill="#000000" stroke="#000000" points="546.1151,-485.9872 555.3193,-491.9482 551.0575,-486.7436 556,-487.5 556,-487.5 556,-487.5 551.0575,-486.7436 556.6807,-483.0518 546.1151,-485.9872 546.1151,-485.9872"/>
<text text-anchor="start" x="6.5935" y="-497.5" font-family="Arial" font-size="10.00" fill="#000000">FOREIGN KEY (message_id) REFERENCES t_messages(message_id) ON UPDATE CASCADE ON DELETE CASCADE</text>
</g>
<!-- public.t_attachable_items -->
<g id="node3" class="node">
<title>public.t_attachable_items</title>
<polygon fill="#efefef" stroke="transparent" points="782,-282.5 782,-317.5 1126,-317.5 1126,-282.5 782,-282.5"/>
<polygon fill="none" stroke="#000000" points="782,-282.5 782,-317.5 1126,-317.5 1126,-282.5 782,-282.5"/>
<text text-anchor="start" x="788.6888" y="-295.3" font-family="Arial Bold" font-size="18.00" fill="#000000">public.t_attachable_items</text>
<text text-anchor="start" x="991.7432" y="-295.3" font-family="Arial" font-size="14.00" fill="#000000">    </text>
<text text-anchor="start" x="1025.948" y="-295.3" font-family="Arial" font-size="14.00" fill="#666666">[BASE TABLE]</text>
<polygon fill="none" stroke="#000000" points="782,-252.5 782,-282.5 1126,-282.5 1126,-252.5 782,-252.5"/>
<text text-anchor="start" x="789" y="-263.9" font-family="Arial" font-size="14.00" fill="#000000">t_attachable_items_pkey    </text>
<text text-anchor="start" x="978.0322" y="-263.9" font-family="Arial" font-size="14.00" fill="#666666">[bigint]</text>
<polygon fill="none" stroke="#000000" points="782,-222.5 782,-252.5 1126,-252.5 1126,-222.5 782,-222.5"/>
<text text-anchor="start" x="789" y="-233.9" font-family="Arial" font-size="14.00" fill="#000000">attachable_item_id    </text>
<text text-anchor="start" x="940.683" y="-233.9" font-family="Arial" font-size="14.00" fill="#666666">[uuid]</text>
<polygon fill="none" stroke="#000000" points="782,-192.5 782,-222.5 1126,-222.5 1126,-192.5 782,-192.5"/>
<text text-anchor="start" x="789" y="-203.9" font-family="Arial" font-size="14.00" fill="#000000">url    </text>
<text text-anchor="start" x="838.7546" y="-203.9" font-family="Arial" font-size="14.00" fill="#666666">[text]</text>
<polygon fill="none" stroke="#000000" points="782,-162.5 782,-192.5 1126,-192.5 1126,-162.5 782,-162.5"/>
<text text-anchor="start" x="789" y="-173.9" font-family="Arial" font-size="14.00" fill="#000000">size    </text>
<text text-anchor="start" x="848.094" y="-173.9" font-family="Arial" font-size="14.00" fill="#666666">[double precision]</text>
<polygon fill="none" stroke="#000000" points="782,-132.5 782,-162.5 1126,-162.5 1126,-132.5 782,-132.5"/>
<text text-anchor="start" x="789" y="-143.9" font-family="Arial" font-size="14.00" fill="#000000">alias    </text>
<text text-anchor="start" x="851.9832" y="-143.9" font-family="Arial" font-size="14.00" fill="#666666">[varchar(255)]</text>
<polygon fill="none" stroke="#000000" points="782,-102.5 782,-132.5 1126,-132.5 1126,-102.5 782,-102.5"/>
<text text-anchor="start" x="789" y="-113.9" font-family="Arial" font-size="14.00" fill="#000000">mime_type_id    </text>
<text text-anchor="start" x="910.3254" y="-113.9" font-family="Arial" font-size="14.00" fill="#666666">[uuid]</text>
<polygon fill="none" stroke="#000000" points="782,-72.5 782,-102.5 1126,-102.5 1126,-72.5 782,-72.5"/>
<text text-anchor="start" x="789" y="-83.9" font-family="Arial" font-size="14.00" fill="#000000">owner_id    </text>
<text text-anchor="start" x="879.9916" y="-83.9" font-family="Arial" font-size="14.00" fill="#666666">[uuid]</text>
<polygon fill="none" stroke="#000000" points="782,-42.5 782,-72.5 1126,-72.5 1126,-42.5 782,-42.5"/>
<text text-anchor="start" x="789" y="-53.9" font-family="Arial" font-size="14.00" fill="#000000">from_outer    </text>
<text text-anchor="start" x="890.8808" y="-53.9" font-family="Arial" font-size="14.00" fill="#666666">[boolean]</text>
</g>
<!-- public.t_attached_messages&#45;&gt;public.t_attachable_items -->
<g id="edge2" class="edge">
<title>public.t_attached_messages:attachable_item_id&#45;&gt;public.t_attachable_items:attachable_item_id</title>
<path fill="none" stroke="#000000" d="M934.9946,-454.841C948.5012,-445.6626 938.9475,-414.8939 925,-397 884.7092,-345.309 822.2908,-412.691 782,-361 748.2563,-317.7085 727.1111,-237.5 782,-237.5"/>
<polygon fill="#000000" stroke="#000000" points="934.6639,-454.9289 923.843,-453.1513 929.8319,-456.2145 925,-457.5 925,-457.5 925,-457.5 929.8319,-456.2145 926.157,-461.8487 934.6639,-454.9289 934.6639,-454.9289"/>
<text text-anchor="start" x="932.128" y="-467.5" font-family="Arial" font-size="10.00" fill="#000000">FOREIGN KEY (attachable_item_id) REFERENCES t_attachable_items(attachable_item_id) ON UPDATE SET NULL ON DELETE SET NULL</text>
</g>
</g>
</svg>
