<?xml version="1.0" encoding="UTF-8" standalone="no"?>
<!DOCTYPE svg PUBLIC "-//W3C//DTD SVG 1.1//EN"
 "http://www.w3.org/Graphics/SVG/1.1/DTD/svg11.dtd">
<!-- Generated by graphviz version 2.40.1 (20161225.0304)
 -->
<!-- Title: public.m_mime_types Pages: 1 -->
<svg width="813pt" height="562pt"
 viewBox="0.00 0.00 813.00 562.00" xmlns="http://www.w3.org/2000/svg" xmlns:xlink="http://www.w3.org/1999/xlink">
<g id="graph0" class="graph" transform="scale(1 1) rotate(0) translate(4 558)">
<title>public.m_mime_types</title>
<polygon fill="#ffffff" stroke="transparent" points="-4,4 -4,-558 809,-558 809,4 -4,4"/>
<!-- public.m_mime_types -->
<g id="node1" class="node">
<title>public.m_mime_types</title>
<polygon fill="#efefef" stroke="transparent" points="432,-165.5 432,-200.5 747,-200.5 747,-165.5 432,-165.5"/>
<polygon fill="none" stroke="#000000" points="432,-165.5 432,-200.5 747,-200.5 747,-165.5 432,-165.5"/>
<text text-anchor="start" x="438.7094" y="-178.3" font-family="Arial Bold" font-size="18.00" fill="#000000">public.m_mime_types</text>
<text text-anchor="start" x="612.7226" y="-178.3" font-family="Arial" font-size="14.00" fill="#000000">    </text>
<text text-anchor="start" x="646.9274" y="-178.3" font-family="Arial" font-size="14.00" fill="#666666">[BASE TABLE]</text>
<polygon fill="none" stroke="#000000" points="432,-135.5 432,-165.5 747,-165.5 747,-135.5 432,-135.5"/>
<text text-anchor="start" x="439" y="-146.9" font-family="Arial" font-size="14.00" fill="#000000">m_mime_types_pkey </text>
<text text-anchor="start" x="575.1304" y="-146.9" font-family="Arial" font-size="14.00" fill="#666666">[bigint]</text>
<polygon fill="none" stroke="#000000" points="432,-105.5 432,-135.5 747,-135.5 747,-105.5 432,-105.5"/>
<text text-anchor="start" x="439" y="-116.9" font-family="Arial" font-size="14.00" fill="#000000">mime_type_id </text>
<text text-anchor="start" x="530.0112" y="-116.9" font-family="Arial" font-size="14.00" fill="#666666">[uuid]</text>
<polygon fill="none" stroke="#000000" points="432,-75.5 432,-105.5 747,-105.5 747,-75.5 432,-75.5"/>
<text text-anchor="start" x="439" y="-86.9" font-family="Arial" font-size="14.00" fill="#000000">name </text>
<text text-anchor="start" x="477.899" y="-86.9" font-family="Arial" font-size="14.00" fill="#666666">[varchar(255)]</text>
<polygon fill="none" stroke="#000000" points="432,-45.5 432,-75.5 747,-75.5 747,-45.5 432,-45.5"/>
<text text-anchor="start" x="439" y="-56.9" font-family="Arial" font-size="14.00" fill="#000000">key </text>
<text text-anchor="start" x="464.6732" y="-56.9" font-family="Arial" font-size="14.00" fill="#666666">[varchar(255)]</text>
<polygon fill="none" stroke="#000000" stroke-width="3" points="430,-44.5 430,-202.5 748,-202.5 748,-44.5 430,-44.5"/>
</g>
<!-- public.t_attachable_items -->
<g id="node2" class="node">
<title>public.t_attachable_items</title>
<polygon fill="#efefef" stroke="transparent" points="418,-475.5 418,-510.5 762,-510.5 762,-475.5 418,-475.5"/>
<polygon fill="none" stroke="#000000" points="418,-475.5 418,-510.5 762,-510.5 762,-475.5 418,-475.5"/>
<text text-anchor="start" x="424.6888" y="-488.3" font-family="Arial Bold" font-size="18.00" fill="#000000">public.t_attachable_items</text>
<text text-anchor="start" x="627.7432" y="-488.3" font-family="Arial" font-size="14.00" fill="#000000">    </text>
<text text-anchor="start" x="661.948" y="-488.3" font-family="Arial" font-size="14.00" fill="#666666">[BASE TABLE]</text>
<polygon fill="none" stroke="#000000" points="418,-445.5 418,-475.5 762,-475.5 762,-445.5 418,-445.5"/>
<text text-anchor="start" x="425" y="-456.9" font-family="Arial" font-size="14.00" fill="#000000">t_attachable_items_pkey    </text>
<text text-anchor="start" x="614.0322" y="-456.9" font-family="Arial" font-size="14.00" fill="#666666">[bigint]</text>
<polygon fill="none" stroke="#000000" points="418,-415.5 418,-445.5 762,-445.5 762,-415.5 418,-415.5"/>
<text text-anchor="start" x="425" y="-426.9" font-family="Arial" font-size="14.00" fill="#000000">attachable_item_id    </text>
<text text-anchor="start" x="576.683" y="-426.9" font-family="Arial" font-size="14.00" fill="#666666">[uuid]</text>
<polygon fill="none" stroke="#000000" points="418,-385.5 418,-415.5 762,-415.5 762,-385.5 418,-385.5"/>
<text text-anchor="start" x="425" y="-396.9" font-family="Arial" font-size="14.00" fill="#000000">url    </text>
<text text-anchor="start" x="474.7546" y="-396.9" font-family="Arial" font-size="14.00" fill="#666666">[text]</text>
<polygon fill="none" stroke="#000000" points="418,-355.5 418,-385.5 762,-385.5 762,-355.5 418,-355.5"/>
<text text-anchor="start" x="425" y="-366.9" font-family="Arial" font-size="14.00" fill="#000000">size    </text>
<text text-anchor="start" x="484.094" y="-366.9" font-family="Arial" font-size="14.00" fill="#666666">[double precision]</text>
<polygon fill="none" stroke="#000000" points="418,-325.5 418,-355.5 762,-355.5 762,-325.5 418,-325.5"/>
<text text-anchor="start" x="425" y="-336.9" font-family="Arial" font-size="14.00" fill="#000000">mime_type_id    </text>
<text text-anchor="start" x="546.3254" y="-336.9" font-family="Arial" font-size="14.00" fill="#666666">[uuid]</text>
</g>
<!-- public.t_attachable_items&#45;&gt;public.m_mime_types -->
<g id="edge1" class="edge">
<title>public.t_attachable_items:mime_type_id&#45;&gt;public.m_mime_types:mime_type_id</title>
<path fill="none" stroke="#000000" d="M590.7449,-315.4493C600.7089,-253.3714 707.9082,-310.2519 747,-247 776.5578,-199.1745 803.2222,-120.5 747,-120.5"/>
<polygon fill="#000000" stroke="#000000" points="590.7392,-315.5274 585.5123,-325.1674 590.3696,-320.5137 590,-325.5 590,-325.5 590,-325.5 590.3696,-320.5137 594.4877,-325.8326 590.7392,-315.5274 590.7392,-315.5274"/>
<text text-anchor="start" x="6.669" y="-335.5" font-family="Arial" font-size="10.00" fill="#000000">FOREIGN KEY (mime_type_id) REFERENCES m_mime_types(mime_type_id) ON UPDATE RESTRICT ON DELETE RESTRICT</text>
</g>
</g>
</svg>
