<?xml version="1.0" encoding="UTF-8" standalone="no"?>
<!DOCTYPE svg PUBLIC "-//W3C//DTD SVG 1.1//EN"
 "http://www.w3.org/Graphics/SVG/1.1/DTD/svg11.dtd">
<!-- Generated by graphviz version 2.40.1 (20161225.0304)
 -->
<!-- Title: public.m_chat_room_belongings Pages: 1 -->
<svg width="1540pt" height="832pt"
 viewBox="0.00 0.00 1540.00 832.00" xmlns="http://www.w3.org/2000/svg" xmlns:xlink="http://www.w3.org/1999/xlink">
<g id="graph0" class="graph" transform="scale(1 1) rotate(0) translate(4 828)">
<title>public.m_chat_room_belongings</title>
<polygon fill="#ffffff" stroke="transparent" points="-4,4 -4,-828 1536,-828 1536,4 -4,4"/>
<!-- public.m_chat_room_belongings -->
<g id="node1" class="node">
<title>public.m_chat_room_belongings</title>
<polygon fill="#efefef" stroke="transparent" points="550,-742.5 550,-777.5 950,-777.5 950,-742.5 550,-742.5"/>
<polygon fill="none" stroke="#000000" points="550,-742.5 550,-777.5 950,-777.5 950,-742.5 550,-742.5"/>
<text text-anchor="start" x="556.6844" y="-755.3" font-family="Arial Bold" font-size="18.00" fill="#000000">public.m_chat_room_belongings</text>
<text text-anchor="start" x="815.7476" y="-755.3" font-family="Arial" font-size="14.00" fill="#000000">    </text>
<text text-anchor="start" x="849.9524" y="-755.3" font-family="Arial" font-size="14.00" fill="#666666">[BASE TABLE]</text>
<polygon fill="none" stroke="#000000" points="550,-712.5 550,-742.5 950,-742.5 950,-712.5 550,-712.5"/>
<text text-anchor="start" x="557" y="-723.9" font-family="Arial" font-size="14.00" fill="#000000">m_chat_room_belongings_pkey </text>
<text text-anchor="start" x="759.2804" y="-723.9" font-family="Arial" font-size="14.00" fill="#666666">[bigint]</text>
<polygon fill="none" stroke="#000000" points="550,-682.5 550,-712.5 950,-712.5 950,-682.5 550,-682.5"/>
<text text-anchor="start" x="557" y="-693.9" font-family="Arial" font-size="14.00" fill="#000000">member_id </text>
<text text-anchor="start" x="630.892" y="-693.9" font-family="Arial" font-size="14.00" fill="#666666">[uuid]</text>
<polygon fill="none" stroke="#000000" points="550,-652.5 550,-682.5 950,-682.5 950,-652.5 550,-652.5"/>
<text text-anchor="start" x="557" y="-663.9" font-family="Arial" font-size="14.00" fill="#000000">chat_room_id </text>
<text text-anchor="start" x="645.6872" y="-663.9" font-family="Arial" font-size="14.00" fill="#666666">[uuid]</text>
<polygon fill="none" stroke="#000000" points="550,-622.5 550,-652.5 950,-652.5 950,-622.5 550,-622.5"/>
<text text-anchor="start" x="557" y="-633.9" font-family="Arial" font-size="14.00" fill="#000000">added_at </text>
<text text-anchor="start" x="619.2594" y="-633.9" font-family="Arial" font-size="14.00" fill="#666666">[timestamp with time zone]</text>
<polygon fill="none" stroke="#000000" stroke-width="3" points="548.5,-621.5 548.5,-779.5 951.5,-779.5 951.5,-621.5 548.5,-621.5"/>
</g>
<!-- public.m_members -->
<g id="node2" class="node">
<title>public.m_members</title>
<polygon fill="#efefef" stroke="transparent" points="400,-462.5 400,-497.5 693,-497.5 693,-462.5 400,-462.5"/>
<polygon fill="none" stroke="#000000" points="400,-462.5 400,-497.5 693,-497.5 693,-462.5 400,-462.5"/>
<text text-anchor="start" x="406.7146" y="-475.3" font-family="Arial Bold" font-size="18.00" fill="#000000">public.m_members</text>
<text text-anchor="start" x="558.7174" y="-475.3" font-family="Arial" font-size="14.00" fill="#000000">    </text>
<text text-anchor="start" x="592.9222" y="-475.3" font-family="Arial" font-size="14.00" fill="#666666">[BASE TABLE]</text>
<polygon fill="none" stroke="#000000" points="400,-432.5 400,-462.5 693,-462.5 693,-432.5 400,-432.5"/>
<text text-anchor="start" x="407" y="-443.9" font-family="Arial" font-size="14.00" fill="#000000">m_members_pkey    </text>
<text text-anchor="start" x="556.3254" y="-443.9" font-family="Arial" font-size="14.00" fill="#666666">[bigint]</text>
<polygon fill="none" stroke="#000000" points="400,-402.5 400,-432.5 693,-432.5 693,-402.5 400,-402.5"/>
<text text-anchor="start" x="407" y="-413.9" font-family="Arial" font-size="14.00" fill="#000000">member_id    </text>
<text text-anchor="start" x="511.2062" y="-413.9" font-family="Arial" font-size="14.00" fill="#666666">[uuid]</text>
<polygon fill="none" stroke="#000000" points="400,-372.5 400,-402.5 693,-402.5 693,-372.5 400,-372.5"/>
<text text-anchor="start" x="407" y="-383.9" font-family="Arial" font-size="14.00" fill="#000000">login_id    </text>
<text text-anchor="start" x="489.4376" y="-383.9" font-family="Arial" font-size="14.00" fill="#666666">[varchar(255)]</text>
<polygon fill="none" stroke="#000000" points="400,-342.5 400,-372.5 693,-372.5 693,-342.5 400,-342.5"/>
<text text-anchor="start" x="407" y="-353.9" font-family="Arial" font-size="14.00" fill="#000000">password    </text>
<text text-anchor="start" x="501.1024" y="-353.9" font-family="Arial" font-size="14.00" fill="#666666">[varchar(255)]</text>
<polygon fill="none" stroke="#000000" points="400,-312.5 400,-342.5 693,-342.5 693,-312.5 400,-312.5"/>
<text text-anchor="start" x="407" y="-323.9" font-family="Arial" font-size="14.00" fill="#000000">email    </text>
<text text-anchor="start" x="474.6438" y="-323.9" font-family="Arial" font-size="14.00" fill="#666666">[varchar(255)]</text>
<polygon fill="none" stroke="#000000" points="400,-282.5 400,-312.5 693,-312.5 693,-282.5 400,-282.5"/>
<text text-anchor="start" x="407" y="-293.9" font-family="Arial" font-size="14.00" fill="#000000">name    </text>
<text text-anchor="start" x="476.2132" y="-293.9" font-family="Arial" font-size="14.00" fill="#666666">[varchar(255)]</text>
<polygon fill="none" stroke="#000000" points="400,-252.5 400,-282.5 693,-282.5 693,-252.5 400,-252.5"/>
<text text-anchor="start" x="407" y="-263.9" font-family="Arial" font-size="14.00" fill="#000000">attend_status_id    </text>
<text text-anchor="start" x="543.9172" y="-263.9" font-family="Arial" font-size="14.00" fill="#666666">[uuid]</text>
<polygon fill="none" stroke="#000000" points="400,-222.5 400,-252.5 693,-252.5 693,-222.5 400,-222.5"/>
<text text-anchor="start" x="407" y="-233.9" font-family="Arial" font-size="14.00" fill="#000000">profile_image_url    </text>
<text text-anchor="start" x="548.547" y="-233.9" font-family="Arial" font-size="14.00" fill="#666666">[text]</text>
<polygon fill="none" stroke="#000000" points="400,-192.5 400,-222.5 693,-222.5 693,-192.5 400,-192.5"/>
<text text-anchor="start" x="407" y="-203.9" font-family="Arial" font-size="14.00" fill="#000000">grade_id    </text>
<text text-anchor="start" x="495.6676" y="-203.9" font-family="Arial" font-size="14.00" fill="#666666">[uuid]</text>
<polygon fill="none" stroke="#000000" points="400,-162.5 400,-192.5 693,-192.5 693,-162.5 400,-162.5"/>
<text text-anchor="start" x="407" y="-173.9" font-family="Arial" font-size="14.00" fill="#000000">group_id    </text>
<text text-anchor="start" x="495.6676" y="-173.9" font-family="Arial" font-size="14.00" fill="#666666">[uuid]</text>
<polygon fill="none" stroke="#000000" points="400,-132.5 400,-162.5 693,-162.5 693,-132.5 400,-132.5"/>
<text text-anchor="start" x="407" y="-143.9" font-family="Arial" font-size="14.00" fill="#000000">personal_organization_id    </text>
<text text-anchor="start" x="597.582" y="-143.9" font-family="Arial" font-size="14.00" fill="#666666">[uuid]</text>
<polygon fill="none" stroke="#000000" points="400,-102.5 400,-132.5 693,-132.5 693,-102.5 400,-102.5"/>
<text text-anchor="start" x="407" y="-113.9" font-family="Arial" font-size="14.00" fill="#000000">role_id    </text>
<text text-anchor="start" x="483.209" y="-113.9" font-family="Arial" font-size="14.00" fill="#666666">[uuid]</text>
<polygon fill="none" stroke="#000000" points="400,-72.5 400,-102.5 693,-102.5 693,-72.5 400,-72.5"/>
<text text-anchor="start" x="407" y="-83.9" font-family="Arial" font-size="14.00" fill="#000000">created_at    </text>
<text text-anchor="start" x="507.3422" y="-83.9" font-family="Arial" font-size="14.00" fill="#666666">[timestamp with time zone]</text>
<polygon fill="none" stroke="#000000" points="400,-42.5 400,-72.5 693,-72.5 693,-42.5 400,-42.5"/>
<text text-anchor="start" x="407" y="-53.9" font-family="Arial" font-size="14.00" fill="#000000">updated_at    </text>
<text text-anchor="start" x="511.2468" y="-53.9" font-family="Arial" font-size="14.00" fill="#666666">[timestamp with time zone]</text>
</g>
<!-- public.m_chat_room_belongings&#45;&gt;public.m_members -->
<g id="edge1" class="edge">
<title>public.m_chat_room_belongings:member_id&#45;&gt;public.m_members:member_id</title>
<path fill="none" stroke="#000000" d="M540.0372,-696.4394C499.3226,-686.9687 519.3266,-616.3524 550,-577 590.2908,-525.309 652.7092,-592.691 693,-541 726.7437,-497.7085 747.8889,-417.5 693,-417.5"/>
<polygon fill="#000000" stroke="#000000" points="540.0562,-696.4413 549.5236,-701.9747 545.0281,-696.9707 550,-697.5 550,-697.5 550,-697.5 545.0281,-696.9707 550.4764,-693.0253 540.0562,-696.4413 540.0562,-696.4413"/>
<text text-anchor="start" x="6.67" y="-707.5" font-family="Arial" font-size="10.00" fill="#000000">FOREIGN KEY (member_id) REFERENCES m_members(member_id) ON UPDATE CASCADE ON DELETE CASCADE</text>
</g>
<!-- public.m_chat_rooms -->
<g id="node3" class="node">
<title>public.m_chat_rooms</title>
<polygon fill="#efefef" stroke="transparent" points="797,-387.5 797,-422.5 1109,-422.5 1109,-387.5 797,-387.5"/>
<polygon fill="none" stroke="#000000" points="797,-387.5 797,-422.5 1109,-422.5 1109,-387.5 797,-387.5"/>
<text text-anchor="start" x="803.7034" y="-400.3" font-family="Arial Bold" font-size="18.00" fill="#000000">public.m_chat_rooms</text>
<text text-anchor="start" x="974.7286" y="-400.3" font-family="Arial" font-size="14.00" fill="#000000">    </text>
<text text-anchor="start" x="1008.9334" y="-400.3" font-family="Arial" font-size="14.00" fill="#666666">[BASE TABLE]</text>
<polygon fill="none" stroke="#000000" points="797,-357.5 797,-387.5 1109,-387.5 1109,-357.5 797,-357.5"/>
<text text-anchor="start" x="804" y="-368.9" font-family="Arial" font-size="14.00" fill="#000000">m_chat_rooms_pkey    </text>
<text text-anchor="start" x="968.1206" y="-368.9" font-family="Arial" font-size="14.00" fill="#666666">[bigint]</text>
<polygon fill="none" stroke="#000000" points="797,-327.5 797,-357.5 1109,-357.5 1109,-327.5 797,-327.5"/>
<text text-anchor="start" x="804" y="-338.9" font-family="Arial" font-size="14.00" fill="#000000">chat_room_id    </text>
<text text-anchor="start" x="923.0014" y="-338.9" font-family="Arial" font-size="14.00" fill="#666666">[uuid]</text>
<polygon fill="none" stroke="#000000" points="797,-297.5 797,-327.5 1109,-327.5 1109,-297.5 797,-297.5"/>
<text text-anchor="start" x="804" y="-308.9" font-family="Arial" font-size="14.00" fill="#000000">name    </text>
<text text-anchor="start" x="873.2132" y="-308.9" font-family="Arial" font-size="14.00" fill="#666666">[varchar(255)]</text>
<polygon fill="none" stroke="#000000" points="797,-267.5 797,-297.5 1109,-297.5 1109,-267.5 797,-267.5"/>
<text text-anchor="start" x="804" y="-278.9" font-family="Arial" font-size="14.00" fill="#000000">is_private    </text>
<text text-anchor="start" x="898.0996" y="-278.9" font-family="Arial" font-size="14.00" fill="#666666">[boolean]</text>
<polygon fill="none" stroke="#000000" points="797,-237.5 797,-267.5 1109,-267.5 1109,-237.5 797,-237.5"/>
<text text-anchor="start" x="804" y="-248.9" font-family="Arial" font-size="14.00" fill="#000000">cover_image_url    </text>
<text text-anchor="start" x="941.6606" y="-248.9" font-family="Arial" font-size="14.00" fill="#666666">[text]</text>
<polygon fill="none" stroke="#000000" points="797,-207.5 797,-237.5 1109,-237.5 1109,-207.5 797,-207.5"/>
<text text-anchor="start" x="804" y="-218.9" font-family="Arial" font-size="14.00" fill="#000000">owner_id    </text>
<text text-anchor="start" x="894.9916" y="-218.9" font-family="Arial" font-size="14.00" fill="#666666">[uuid]</text>
<polygon fill="none" stroke="#000000" points="797,-177.5 797,-207.5 1109,-207.5 1109,-177.5 797,-177.5"/>
<text text-anchor="start" x="804" y="-188.9" font-family="Arial" font-size="14.00" fill="#000000">from_organization    </text>
<text text-anchor="start" x="950.2244" y="-188.9" font-family="Arial" font-size="14.00" fill="#666666">[boolean]</text>
<polygon fill="none" stroke="#000000" points="797,-147.5 797,-177.5 1109,-177.5 1109,-147.5 797,-147.5"/>
<text text-anchor="start" x="804" y="-158.9" font-family="Arial" font-size="14.00" fill="#000000">created_at    </text>
<text text-anchor="start" x="904.3422" y="-158.9" font-family="Arial" font-size="14.00" fill="#666666">[timestamp with time zone]</text>
<polygon fill="none" stroke="#000000" points="797,-117.5 797,-147.5 1109,-147.5 1109,-117.5 797,-117.5"/>
<text text-anchor="start" x="804" y="-128.9" font-family="Arial" font-size="14.00" fill="#000000">updated_at    </text>
<text text-anchor="start" x="908.2468" y="-128.9" font-family="Arial" font-size="14.00" fill="#666666">[timestamp with time zone]</text>
</g>
<!-- public.m_chat_room_belongings&#45;&gt;public.m_chat_rooms -->
<g id="edge2" class="edge">
<title>public.m_chat_room_belongings:chat_room_id&#45;&gt;public.m_chat_rooms:chat_room_id</title>
<path fill="none" stroke="#000000" d="M960.0664,-666.0044C985.9703,-657.0023 966.4884,-609.3328 950,-577 911.8342,-502.1592 835.1658,-540.8408 797,-466 772.0641,-417.1022 742.1111,-342.5 797,-342.5"/>
<polygon fill="#000000" stroke="#000000" points="959.8914,-666.0303 949.3386,-663.0489 954.9457,-666.7652 950,-667.5 950,-667.5 950,-667.5 954.9457,-666.7652 950.6614,-671.9511 959.8914,-666.0303 959.8914,-666.0303"/>
<text text-anchor="start" x="956.818" y="-677.5" font-family="Arial" font-size="10.00" fill="#000000">FOREIGN KEY (chat_room_id) REFERENCES m_chat_rooms(chat_room_id) ON UPDATE CASCADE ON DELETE CASCADE</text>
</g>
</g>
</svg>
