<?xml version="1.0" encoding="UTF-8" standalone="no"?>
<!DOCTYPE svg PUBLIC "-//W3C//DTD SVG 1.1//EN"
 "http://www.w3.org/Graphics/SVG/1.1/DTD/svg11.dtd">
<!-- Generated by graphviz version 2.40.1 (20161225.0304)
 -->
<!-- Title: public.t_attached_messages Pages: 1 -->
<svg width="1582pt" height="652pt"
 viewBox="0.00 0.00 1582.00 652.00" xmlns="http://www.w3.org/2000/svg" xmlns:xlink="http://www.w3.org/1999/xlink">
<g id="graph0" class="graph" transform="scale(1 1) rotate(0) translate(4 648)">
<title>public.t_attached_messages</title>
<polygon fill="#ffffff" stroke="transparent" points="-4,4 -4,-648 1578,-648 1578,4 -4,4"/>
<!-- public.t_attached_messages -->
<g id="node1" class="node">
<title>public.t_attached_messages</title>
<polygon fill="#efefef" stroke="transparent" points="560,-562.5 560,-597.5 929,-597.5 929,-562.5 560,-562.5"/>
<polygon fill="none" stroke="#000000" points="560,-562.5 560,-597.5 929,-597.5 929,-562.5 560,-562.5"/>
<text text-anchor="start" x="566.6779" y="-575.3" font-family="Arial Bold" font-size="18.00" fill="#000000">public.t_attached_messages</text>
<text text-anchor="start" x="794.7541" y="-575.3" font-family="Arial" font-size="14.00" fill="#000000">    </text>
<text text-anchor="start" x="828.9589" y="-575.3" font-family="Arial" font-size="14.00" fill="#666666">[BASE TABLE]</text>
<polygon fill="none" stroke="#000000" points="560,-532.5 560,-562.5 929,-562.5 929,-532.5 560,-532.5"/>
<text text-anchor="start" x="567" y="-543.9" font-family="Arial" font-size="14.00" fill="#000000">t_attached_messages_pkey </text>
<text text-anchor="start" x="745.1794" y="-543.9" font-family="Arial" font-size="14.00" fill="#666666">[bigint]</text>
<polygon fill="none" stroke="#000000" points="560,-502.5 560,-532.5 929,-532.5 929,-502.5 560,-502.5"/>
<text text-anchor="start" x="567" y="-513.9" font-family="Arial" font-size="14.00" fill="#000000">attached_message_id </text>
<text text-anchor="start" x="707.8302" y="-513.9" font-family="Arial" font-size="14.00" fill="#666666">[uuid]</text>
<polygon fill="none" stroke="#000000" points="560,-472.5 560,-502.5 929,-502.5 929,-472.5 560,-472.5"/>
<text text-anchor="start" x="567" y="-483.9" font-family="Arial" font-size="14.00" fill="#000000">message_id </text>
<text text-anchor="start" x="646.3534" y="-483.9" font-family="Arial" font-size="14.00" fill="#666666">[uuid]</text>
<polygon fill="none" stroke="#000000" points="560,-442.5 560,-472.5 929,-472.5 929,-442.5 560,-442.5"/>
<text text-anchor="start" x="567" y="-453.9" font-family="Arial" font-size="14.00" fill="#000000">attachable_item_id </text>
<text text-anchor="start" x="688.3688" y="-453.9" font-family="Arial" font-size="14.00" fill="#666666">[uuid]</text>
<polygon fill="none" stroke="#000000" stroke-width="3" points="558,-441.5 558,-599.5 930,-599.5 930,-441.5 558,-441.5"/>
</g>
<!-- public.t_messages -->
<g id="node2" class="node">
<title>public.t_messages</title>
<polygon fill="#efefef" stroke="transparent" points="381,-267.5 381,-302.5 682,-302.5 682,-267.5 381,-267.5"/>
<polygon fill="none" stroke="#000000" points="381,-267.5 381,-302.5 682,-302.5 682,-267.5 381,-267.5"/>
<text text-anchor="start" x="393.1987" y="-280.3" font-family="Arial Bold" font-size="18.00" fill="#000000">public.t_messages</text>
<text text-anchor="start" x="542.2333" y="-280.3" font-family="Arial" font-size="14.00" fill="#000000">    </text>
<text text-anchor="start" x="576.4381" y="-280.3" font-family="Arial" font-size="14.00" fill="#666666">[BASE TABLE]</text>
<polygon fill="none" stroke="#000000" points="381,-237.5 381,-267.5 682,-267.5 682,-237.5 381,-237.5"/>
<text text-anchor="start" x="388" y="-248.9" font-family="Arial" font-size="14.00" fill="#000000">t_messages_pkey    </text>
<text text-anchor="start" x="535.0168" y="-248.9" font-family="Arial" font-size="14.00" fill="#666666">[bigint]</text>
<polygon fill="none" stroke="#000000" points="381,-207.5 381,-237.5 682,-237.5 682,-207.5 381,-207.5"/>
<text text-anchor="start" x="388" y="-218.9" font-family="Arial" font-size="14.00" fill="#000000">message_id    </text>
<text text-anchor="start" x="497.6676" y="-218.9" font-family="Arial" font-size="14.00" fill="#666666">[uuid]</text>
<polygon fill="none" stroke="#000000" points="381,-177.5 381,-207.5 682,-207.5 682,-177.5 381,-177.5"/>
<text text-anchor="start" x="388" y="-188.9" font-family="Arial" font-size="14.00" fill="#000000">chat_room_id    </text>
<text text-anchor="start" x="507.0014" y="-188.9" font-family="Arial" font-size="14.00" fill="#666666">[uuid]</text>
<polygon fill="none" stroke="#000000" points="381,-147.5 381,-177.5 682,-177.5 682,-147.5 381,-147.5"/>
<text text-anchor="start" x="388" y="-158.9" font-family="Arial" font-size="14.00" fill="#000000">sender_id    </text>
<text text-anchor="start" x="483.6676" y="-158.9" font-family="Arial" font-size="14.00" fill="#666666">[uuid]</text>
<polygon fill="none" stroke="#000000" points="381,-117.5 381,-147.5 682,-147.5 682,-117.5 381,-117.5"/>
<text text-anchor="start" x="388" y="-128.9" font-family="Arial" font-size="14.00" fill="#000000">body    </text>
<text text-anchor="start" x="452.5526" y="-128.9" font-family="Arial" font-size="14.00" fill="#666666">[text]</text>
<polygon fill="none" stroke="#000000" points="381,-87.5 381,-117.5 682,-117.5 682,-87.5 381,-87.5"/>
<text text-anchor="start" x="388" y="-98.9" font-family="Arial" font-size="14.00" fill="#000000">posted_at    </text>
<text text-anchor="start" x="483.6816" y="-98.9" font-family="Arial" font-size="14.00" fill="#666666">[timestamp with time zone]</text>
<polygon fill="none" stroke="#000000" points="381,-57.5 381,-87.5 682,-87.5 682,-57.5 381,-57.5"/>
<text text-anchor="start" x="387.9825" y="-68.9" font-family="Arial" font-size="14.00" fill="#000000">last_edited_at    </text>
<text text-anchor="start" x="509.3331" y="-68.9" font-family="Arial" font-size="14.00" fill="#666666">[timestamp with time zone]</text>
</g>
<!-- public.t_attached_messages&#45;&gt;public.t_messages -->
<g id="edge1" class="edge">
<title>public.t_attached_messages:message_id&#45;&gt;public.t_messages:message_id</title>
<path fill="none" stroke="#000000" d="M549.8298,-485.9437C523.3214,-476.5878 539.8851,-427.2104 560,-397 592.5709,-348.0821 649.4291,-394.9179 682,-346 712.4203,-300.312 736.8889,-222.5 682,-222.5"/>
<polygon fill="#000000" stroke="#000000" points="550.1151,-485.9872 559.3193,-491.9482 555.0575,-486.7436 560,-487.5 560,-487.5 560,-487.5 555.0575,-486.7436 560.6807,-483.0518 550.1151,-485.9872 550.1151,-485.9872"/>
<text text-anchor="start" x="6.9345" y="-497.5" font-family="Arial" font-size="10.00" fill="#000000">FOREIGN KEY (message_id) REFERENCES t_messages(message_id) ON UPDATE RESTRICT ON DELETE RESTRICT</text>
</g>
<!-- public.t_attachable_items -->
<g id="node3" class="node">
<title>public.t_attachable_items</title>
<polygon fill="#efefef" stroke="transparent" points="786,-282.5 786,-317.5 1130,-317.5 1130,-282.5 786,-282.5"/>
<polygon fill="none" stroke="#000000" points="786,-282.5 786,-317.5 1130,-317.5 1130,-282.5 786,-282.5"/>
<text text-anchor="start" x="792.6888" y="-295.3" font-family="Arial Bold" font-size="18.00" fill="#000000">public.t_attachable_items</text>
<text text-anchor="start" x="995.7432" y="-295.3" font-family="Arial" font-size="14.00" fill="#000000">    </text>
<text text-anchor="start" x="1029.948" y="-295.3" font-family="Arial" font-size="14.00" fill="#666666">[BASE TABLE]</text>
<polygon fill="none" stroke="#000000" points="786,-252.5 786,-282.5 1130,-282.5 1130,-252.5 786,-252.5"/>
<text text-anchor="start" x="793" y="-263.9" font-family="Arial" font-size="14.00" fill="#000000">t_attachable_items_pkey    </text>
<text text-anchor="start" x="982.0322" y="-263.9" font-family="Arial" font-size="14.00" fill="#666666">[bigint]</text>
<polygon fill="none" stroke="#000000" points="786,-222.5 786,-252.5 1130,-252.5 1130,-222.5 786,-222.5"/>
<text text-anchor="start" x="793" y="-233.9" font-family="Arial" font-size="14.00" fill="#000000">attachable_item_id    </text>
<text text-anchor="start" x="944.683" y="-233.9" font-family="Arial" font-size="14.00" fill="#666666">[uuid]</text>
<polygon fill="none" stroke="#000000" points="786,-192.5 786,-222.5 1130,-222.5 1130,-192.5 786,-192.5"/>
<text text-anchor="start" x="793" y="-203.9" font-family="Arial" font-size="14.00" fill="#000000">url    </text>
<text text-anchor="start" x="842.7546" y="-203.9" font-family="Arial" font-size="14.00" fill="#666666">[text]</text>
<polygon fill="none" stroke="#000000" points="786,-162.5 786,-192.5 1130,-192.5 1130,-162.5 786,-162.5"/>
<text text-anchor="start" x="793" y="-173.9" font-family="Arial" font-size="14.00" fill="#000000">size    </text>
<text text-anchor="start" x="852.094" y="-173.9" font-family="Arial" font-size="14.00" fill="#666666">[double precision]</text>
<polygon fill="none" stroke="#000000" points="786,-132.5 786,-162.5 1130,-162.5 1130,-132.5 786,-132.5"/>
<text text-anchor="start" x="793" y="-143.9" font-family="Arial" font-size="14.00" fill="#000000">alias    </text>
<text text-anchor="start" x="855.9832" y="-143.9" font-family="Arial" font-size="14.00" fill="#666666">[varchar(255)]</text>
<polygon fill="none" stroke="#000000" points="786,-102.5 786,-132.5 1130,-132.5 1130,-102.5 786,-102.5"/>
<text text-anchor="start" x="793" y="-113.9" font-family="Arial" font-size="14.00" fill="#000000">mime_type_id    </text>
<text text-anchor="start" x="914.3254" y="-113.9" font-family="Arial" font-size="14.00" fill="#666666">[uuid]</text>
<polygon fill="none" stroke="#000000" points="786,-72.5 786,-102.5 1130,-102.5 1130,-72.5 786,-72.5"/>
<text text-anchor="start" x="793" y="-83.9" font-family="Arial" font-size="14.00" fill="#000000">owner_id    </text>
<text text-anchor="start" x="883.9916" y="-83.9" font-family="Arial" font-size="14.00" fill="#666666">[uuid]</text>
<polygon fill="none" stroke="#000000" points="786,-42.5 786,-72.5 1130,-72.5 1130,-42.5 786,-42.5"/>
<text text-anchor="start" x="793" y="-53.9" font-family="Arial" font-size="14.00" fill="#000000">from_outer    </text>
<text text-anchor="start" x="894.8808" y="-53.9" font-family="Arial" font-size="14.00" fill="#666666">[boolean]</text>
</g>
<!-- public.t_attached_messages&#45;&gt;public.t_attachable_items -->
<g id="edge2" class="edge">
<title>public.t_attached_messages:attachable_item_id&#45;&gt;public.t_attachable_items:attachable_item_id</title>
<path fill="none" stroke="#000000" d="M938.9946,-454.841C952.5012,-445.6626 942.9475,-414.8939 929,-397 888.7092,-345.309 826.2908,-412.691 786,-361 752.2563,-317.7085 731.1111,-237.5 786,-237.5"/>
<polygon fill="#000000" stroke="#000000" points="938.6639,-454.9289 927.843,-453.1513 933.8319,-456.2145 929,-457.5 929,-457.5 929,-457.5 933.8319,-456.2145 930.157,-461.8487 938.6639,-454.9289 938.6639,-454.9289"/>
<text text-anchor="start" x="936.128" y="-467.5" font-family="Arial" font-size="10.00" fill="#000000">FOREIGN KEY (attachable_item_id) REFERENCES t_attachable_items(attachable_item_id) ON UPDATE SET NULL ON DELETE SET NULL</text>
</g>
</g>
</svg>
