<?xml version="1.0" encoding="UTF-8" standalone="no"?>
<!DOCTYPE svg PUBLIC "-//W3C//DTD SVG 1.1//EN"
 "http://www.w3.org/Graphics/SVG/1.1/DTD/svg11.dtd">
<!-- Generated by graphviz version 2.40.1 (20161225.0304)
 -->
<!-- Title: public.m_memberships Pages: 1 -->
<svg width="1560pt" height="922pt"
 viewBox="0.00 0.00 1560.00 922.00" xmlns="http://www.w3.org/2000/svg" xmlns:xlink="http://www.w3.org/1999/xlink">
<g id="graph0" class="graph" transform="scale(1 1) rotate(0) translate(4 918)">
<title>public.m_memberships</title>
<polygon fill="#ffffff" stroke="transparent" points="-4,4 -4,-918 1556,-918 1556,4 -4,4"/>
<!-- public.m_memberships -->
<g id="node1" class="node">
<title>public.m_memberships</title>
<polygon fill="#efefef" stroke="transparent" points="604,-832.5 604,-867.5 930,-867.5 930,-832.5 604,-832.5"/>
<polygon fill="none" stroke="#000000" points="604,-832.5 604,-867.5 930,-867.5 930,-832.5 604,-832.5"/>
<text text-anchor="start" x="610.7113" y="-845.3" font-family="Arial Bold" font-size="18.00" fill="#000000">public.m_memberships</text>
<text text-anchor="start" x="795.7207" y="-845.3" font-family="Arial" font-size="14.00" fill="#000000">    </text>
<text text-anchor="start" x="829.9255" y="-845.3" font-family="Arial" font-size="14.00" fill="#666666">[BASE TABLE]</text>
<polygon fill="none" stroke="#000000" points="604,-802.5 604,-832.5 930,-832.5 930,-802.5 604,-802.5"/>
<text text-anchor="start" x="611" y="-813.9" font-family="Arial" font-size="14.00" fill="#000000">m_memberships_pkey </text>
<text text-anchor="start" x="755.683" y="-813.9" font-family="Arial" font-size="14.00" fill="#666666">[bigint]</text>
<polygon fill="none" stroke="#000000" points="604,-772.5 604,-802.5 930,-802.5 930,-772.5 604,-772.5"/>
<text text-anchor="start" x="611" y="-783.9" font-family="Arial" font-size="14.00" fill="#000000">member_id </text>
<text text-anchor="start" x="684.892" y="-783.9" font-family="Arial" font-size="14.00" fill="#666666">[uuid]</text>
<polygon fill="none" stroke="#000000" points="604,-742.5 604,-772.5 930,-772.5 930,-742.5 604,-742.5"/>
<text text-anchor="start" x="611" y="-753.9" font-family="Arial" font-size="14.00" fill="#000000">organization_id </text>
<text text-anchor="start" x="709.805" y="-753.9" font-family="Arial" font-size="14.00" fill="#666666">[uuid]</text>
<polygon fill="none" stroke="#000000" points="604,-712.5 604,-742.5 930,-742.5 930,-712.5 604,-712.5"/>
<text text-anchor="start" x="611" y="-723.9" font-family="Arial" font-size="14.00" fill="#000000">work_position_id </text>
<text text-anchor="start" x="719.129" y="-723.9" font-family="Arial" font-size="14.00" fill="#666666">[uuid]</text>
<polygon fill="none" stroke="#000000" points="604,-682.5 604,-712.5 930,-712.5 930,-682.5 604,-682.5"/>
<text text-anchor="start" x="611" y="-693.9" font-family="Arial" font-size="14.00" fill="#000000">added_at </text>
<text text-anchor="start" x="673.2594" y="-693.9" font-family="Arial" font-size="14.00" fill="#666666">[timestamp with time zone]</text>
<polygon fill="none" stroke="#000000" stroke-width="3" points="602.5,-681.5 602.5,-869.5 931.5,-869.5 931.5,-681.5 602.5,-681.5"/>
</g>
<!-- public.m_members -->
<g id="node2" class="node">
<title>public.m_members</title>
<polygon fill="#efefef" stroke="transparent" points="207,-522.5 207,-557.5 500,-557.5 500,-522.5 207,-522.5"/>
<polygon fill="none" stroke="#000000" points="207,-522.5 207,-557.5 500,-557.5 500,-522.5 207,-522.5"/>
<text text-anchor="start" x="213.7146" y="-535.3" font-family="Arial Bold" font-size="18.00" fill="#000000">public.m_members</text>
<text text-anchor="start" x="365.7174" y="-535.3" font-family="Arial" font-size="14.00" fill="#000000">    </text>
<text text-anchor="start" x="399.9222" y="-535.3" font-family="Arial" font-size="14.00" fill="#666666">[BASE TABLE]</text>
<polygon fill="none" stroke="#000000" points="207,-492.5 207,-522.5 500,-522.5 500,-492.5 207,-492.5"/>
<text text-anchor="start" x="214" y="-503.9" font-family="Arial" font-size="14.00" fill="#000000">m_members_pkey    </text>
<text text-anchor="start" x="363.3254" y="-503.9" font-family="Arial" font-size="14.00" fill="#666666">[bigint]</text>
<polygon fill="none" stroke="#000000" points="207,-462.5 207,-492.5 500,-492.5 500,-462.5 207,-462.5"/>
<text text-anchor="start" x="214" y="-473.9" font-family="Arial" font-size="14.00" fill="#000000">member_id    </text>
<text text-anchor="start" x="318.2062" y="-473.9" font-family="Arial" font-size="14.00" fill="#666666">[uuid]</text>
<polygon fill="none" stroke="#000000" points="207,-432.5 207,-462.5 500,-462.5 500,-432.5 207,-432.5"/>
<text text-anchor="start" x="214" y="-443.9" font-family="Arial" font-size="14.00" fill="#000000">login_id    </text>
<text text-anchor="start" x="296.4376" y="-443.9" font-family="Arial" font-size="14.00" fill="#666666">[varchar(255)]</text>
<polygon fill="none" stroke="#000000" points="207,-402.5 207,-432.5 500,-432.5 500,-402.5 207,-402.5"/>
<text text-anchor="start" x="214" y="-413.9" font-family="Arial" font-size="14.00" fill="#000000">password    </text>
<text text-anchor="start" x="308.1024" y="-413.9" font-family="Arial" font-size="14.00" fill="#666666">[varchar(255)]</text>
<polygon fill="none" stroke="#000000" points="207,-372.5 207,-402.5 500,-402.5 500,-372.5 207,-372.5"/>
<text text-anchor="start" x="214" y="-383.9" font-family="Arial" font-size="14.00" fill="#000000">email    </text>
<text text-anchor="start" x="281.6438" y="-383.9" font-family="Arial" font-size="14.00" fill="#666666">[varchar(255)]</text>
<polygon fill="none" stroke="#000000" points="207,-342.5 207,-372.5 500,-372.5 500,-342.5 207,-342.5"/>
<text text-anchor="start" x="214" y="-353.9" font-family="Arial" font-size="14.00" fill="#000000">name    </text>
<text text-anchor="start" x="283.2132" y="-353.9" font-family="Arial" font-size="14.00" fill="#666666">[varchar(255)]</text>
<polygon fill="none" stroke="#000000" points="207,-312.5 207,-342.5 500,-342.5 500,-312.5 207,-312.5"/>
<text text-anchor="start" x="214" y="-323.9" font-family="Arial" font-size="14.00" fill="#000000">first_name    </text>
<text text-anchor="start" x="313.5442" y="-323.9" font-family="Arial" font-size="14.00" fill="#666666">[varchar(255)]</text>
<polygon fill="none" stroke="#000000" points="207,-282.5 207,-312.5 500,-312.5 500,-282.5 207,-282.5"/>
<text text-anchor="start" x="214" y="-293.9" font-family="Arial" font-size="14.00" fill="#000000">last_name    </text>
<text text-anchor="start" x="312.7756" y="-293.9" font-family="Arial" font-size="14.00" fill="#666666">[varchar(255)]</text>
<polygon fill="none" stroke="#000000" points="207,-252.5 207,-282.5 500,-282.5 500,-252.5 207,-252.5"/>
<text text-anchor="start" x="214" y="-263.9" font-family="Arial" font-size="14.00" fill="#000000">attend_status_id    </text>
<text text-anchor="start" x="350.9172" y="-263.9" font-family="Arial" font-size="14.00" fill="#666666">[uuid]</text>
<polygon fill="none" stroke="#000000" points="207,-222.5 207,-252.5 500,-252.5 500,-222.5 207,-222.5"/>
<text text-anchor="start" x="214" y="-233.9" font-family="Arial" font-size="14.00" fill="#000000">profile_image_id    </text>
<text text-anchor="start" x="350.8864" y="-233.9" font-family="Arial" font-size="14.00" fill="#666666">[uuid]</text>
<polygon fill="none" stroke="#000000" points="207,-192.5 207,-222.5 500,-222.5 500,-192.5 207,-192.5"/>
<text text-anchor="start" x="214" y="-203.9" font-family="Arial" font-size="14.00" fill="#000000">grade_id    </text>
<text text-anchor="start" x="302.6676" y="-203.9" font-family="Arial" font-size="14.00" fill="#666666">[uuid]</text>
<polygon fill="none" stroke="#000000" points="207,-162.5 207,-192.5 500,-192.5 500,-162.5 207,-162.5"/>
<text text-anchor="start" x="214" y="-173.9" font-family="Arial" font-size="14.00" fill="#000000">group_id    </text>
<text text-anchor="start" x="302.6676" y="-173.9" font-family="Arial" font-size="14.00" fill="#666666">[uuid]</text>
<polygon fill="none" stroke="#000000" points="207,-132.5 207,-162.5 500,-162.5 500,-132.5 207,-132.5"/>
<text text-anchor="start" x="214" y="-143.9" font-family="Arial" font-size="14.00" fill="#000000">personal_organization_id    </text>
<text text-anchor="start" x="404.582" y="-143.9" font-family="Arial" font-size="14.00" fill="#666666">[uuid]</text>
<polygon fill="none" stroke="#000000" points="207,-102.5 207,-132.5 500,-132.5 500,-102.5 207,-102.5"/>
<text text-anchor="start" x="214" y="-113.9" font-family="Arial" font-size="14.00" fill="#000000">role_id    </text>
<text text-anchor="start" x="290.209" y="-113.9" font-family="Arial" font-size="14.00" fill="#666666">[uuid]</text>
<polygon fill="none" stroke="#000000" points="207,-72.5 207,-102.5 500,-102.5 500,-72.5 207,-72.5"/>
<text text-anchor="start" x="214" y="-83.9" font-family="Arial" font-size="14.00" fill="#000000">created_at    </text>
<text text-anchor="start" x="314.3422" y="-83.9" font-family="Arial" font-size="14.00" fill="#666666">[timestamp with time zone]</text>
<polygon fill="none" stroke="#000000" points="207,-42.5 207,-72.5 500,-72.5 500,-42.5 207,-42.5"/>
<text text-anchor="start" x="214" y="-53.9" font-family="Arial" font-size="14.00" fill="#000000">updated_at    </text>
<text text-anchor="start" x="318.2468" y="-53.9" font-family="Arial" font-size="14.00" fill="#666666">[timestamp with time zone]</text>
</g>
<!-- public.m_memberships&#45;&gt;public.m_members -->
<g id="edge1" class="edge">
<title>public.m_memberships:member_id&#45;&gt;public.m_members:member_id</title>
<path fill="none" stroke="#000000" d="M594.1449,-785.3549C535.1016,-757.9657 569.1143,-477.5 500,-477.5"/>
<polygon fill="#000000" stroke="#000000" points="594.2288,-785.3731 603.0429,-791.897 599.1144,-786.4365 604,-787.5 604,-787.5 604,-787.5 599.1144,-786.4365 604.9571,-783.103 594.2288,-785.3731 594.2288,-785.3731"/>
<text text-anchor="start" x="60.67" y="-797.5" font-family="Arial" font-size="10.00" fill="#000000">FOREIGN KEY (member_id) REFERENCES m_members(member_id) ON UPDATE CASCADE ON DELETE CASCADE</text>
</g>
<!-- public.m_organizations -->
<g id="node3" class="node">
<title>public.m_organizations</title>
<polygon fill="#efefef" stroke="transparent" points="604,-432.5 604,-467.5 929,-467.5 929,-432.5 604,-432.5"/>
<polygon fill="none" stroke="#000000" points="604,-432.5 604,-467.5 929,-467.5 929,-432.5 604,-432.5"/>
<text text-anchor="start" x="610.6991" y="-445.3" font-family="Arial Bold" font-size="18.00" fill="#000000">public.m_organizations</text>
<text text-anchor="start" x="794.7329" y="-445.3" font-family="Arial" font-size="14.00" fill="#000000">    </text>
<text text-anchor="start" x="828.9377" y="-445.3" font-family="Arial" font-size="14.00" fill="#666666">[BASE TABLE]</text>
<polygon fill="none" stroke="#000000" points="604,-402.5 604,-432.5 929,-432.5 929,-402.5 604,-402.5"/>
<text text-anchor="start" x="611" y="-413.9" font-family="Arial" font-size="14.00" fill="#000000">m_organizations_pkey    </text>
<text text-anchor="start" x="785.2384" y="-413.9" font-family="Arial" font-size="14.00" fill="#666666">[bigint]</text>
<polygon fill="none" stroke="#000000" points="604,-372.5 604,-402.5 929,-402.5 929,-372.5 604,-372.5"/>
<text text-anchor="start" x="611" y="-383.9" font-family="Arial" font-size="14.00" fill="#000000">organization_id    </text>
<text text-anchor="start" x="740.1192" y="-383.9" font-family="Arial" font-size="14.00" fill="#666666">[uuid]</text>
<polygon fill="none" stroke="#000000" points="604,-342.5 604,-372.5 929,-372.5 929,-342.5 604,-342.5"/>
<text text-anchor="start" x="611" y="-353.9" font-family="Arial" font-size="14.00" fill="#000000">name    </text>
<text text-anchor="start" x="680.2132" y="-353.9" font-family="Arial" font-size="14.00" fill="#666666">[varchar(255)]</text>
<polygon fill="none" stroke="#000000" points="604,-312.5 604,-342.5 929,-342.5 929,-312.5 604,-312.5"/>
<text text-anchor="start" x="611" y="-323.9" font-family="Arial" font-size="14.00" fill="#000000">description    </text>
<text text-anchor="start" x="712.8822" y="-323.9" font-family="Arial" font-size="14.00" fill="#666666">[text]</text>
<polygon fill="none" stroke="#000000" points="604,-282.5 604,-312.5 929,-312.5 929,-282.5 604,-282.5"/>
<text text-anchor="start" x="611" y="-293.9" font-family="Arial" font-size="14.00" fill="#000000">color    </text>
<text text-anchor="start" x="675.5372" y="-293.9" font-family="Arial" font-size="14.00" fill="#666666">[varchar(7)]</text>
<polygon fill="none" stroke="#000000" points="604,-252.5 604,-282.5 929,-282.5 929,-252.5 604,-252.5"/>
<text text-anchor="start" x="611" y="-263.9" font-family="Arial" font-size="14.00" fill="#000000">is_personal    </text>
<text text-anchor="start" x="716.7742" y="-263.9" font-family="Arial" font-size="14.00" fill="#666666">[boolean]</text>
<polygon fill="none" stroke="#000000" points="604,-222.5 604,-252.5 929,-252.5 929,-222.5 604,-222.5"/>
<text text-anchor="start" x="611" y="-233.9" font-family="Arial" font-size="14.00" fill="#000000">is_whole    </text>
<text text-anchor="start" x="699.655" y="-233.9" font-family="Arial" font-size="14.00" fill="#666666">[boolean]</text>
<polygon fill="none" stroke="#000000" points="604,-192.5 604,-222.5 929,-222.5 929,-192.5 604,-192.5"/>
<text text-anchor="start" x="611" y="-203.9" font-family="Arial" font-size="14.00" fill="#000000">created_at    </text>
<text text-anchor="start" x="711.3422" y="-203.9" font-family="Arial" font-size="14.00" fill="#666666">[timestamp with time zone]</text>
<polygon fill="none" stroke="#000000" points="604,-162.5 604,-192.5 929,-192.5 929,-162.5 604,-162.5"/>
<text text-anchor="start" x="611" y="-173.9" font-family="Arial" font-size="14.00" fill="#000000">updated_at    </text>
<text text-anchor="start" x="715.2468" y="-173.9" font-family="Arial" font-size="14.00" fill="#666666">[timestamp with time zone]</text>
<polygon fill="none" stroke="#000000" points="604,-132.5 604,-162.5 929,-162.5 929,-132.5 604,-132.5"/>
<text text-anchor="start" x="611" y="-143.9" font-family="Arial" font-size="14.00" fill="#000000">chat_room_id    </text>
<text text-anchor="start" x="730.0014" y="-143.9" font-family="Arial" font-size="14.00" fill="#666666">[uuid]</text>
</g>
<!-- public.m_memberships&#45;&gt;public.m_organizations -->
<g id="edge2" class="edge">
<title>public.m_memberships:organization_id&#45;&gt;public.m_organizations:organization_id</title>
<path fill="none" stroke="#000000" d="M593.8186,-756.4059C553.7547,-746.9273 575.8671,-678.0801 604,-637 691.5348,-509.1804 841.4652,-638.8196 929,-511 960.014,-465.7129 983.8889,-387.5 929,-387.5"/>
<polygon fill="#000000" stroke="#000000" points="594.0572,-756.4314 603.5191,-761.9742 599.0286,-756.9657 604,-757.5 604,-757.5 604,-757.5 599.0286,-756.9657 604.4809,-753.0258 594.0572,-756.4314 594.0572,-756.4314"/>
<text text-anchor="start" x="6.9775" y="-767.5" font-family="Arial" font-size="10.00" fill="#000000">FOREIGN KEY (organization_id) REFERENCES m_organizations(organization_id) ON UPDATE CASCADE ON DELETE CASCADE</text>
</g>
<!-- public.m_work_positions -->
<g id="node4" class="node">
<title>public.m_work_positions</title>
<polygon fill="#efefef" stroke="transparent" points="1033,-387.5 1033,-422.5 1370,-422.5 1370,-387.5 1033,-387.5"/>
<polygon fill="none" stroke="#000000" points="1033,-387.5 1033,-422.5 1370,-422.5 1370,-387.5 1033,-387.5"/>
<text text-anchor="start" x="1039.7051" y="-400.3" font-family="Arial Bold" font-size="18.00" fill="#000000">public.m_work_positions</text>
<text text-anchor="start" x="1235.7269" y="-400.3" font-family="Arial" font-size="14.00" fill="#000000">    </text>
<text text-anchor="start" x="1269.9317" y="-400.3" font-family="Arial" font-size="14.00" fill="#666666">[BASE TABLE]</text>
<polygon fill="none" stroke="#000000" points="1033,-357.5 1033,-387.5 1370,-387.5 1370,-357.5 1033,-357.5"/>
<text text-anchor="start" x="1040" y="-368.9" font-family="Arial" font-size="14.00" fill="#000000">m_work_positions_pkey    </text>
<text text-anchor="start" x="1223.5624" y="-368.9" font-family="Arial" font-size="14.00" fill="#666666">[bigint]</text>
<polygon fill="none" stroke="#000000" points="1033,-327.5 1033,-357.5 1370,-357.5 1370,-327.5 1033,-327.5"/>
<text text-anchor="start" x="1040" y="-338.9" font-family="Arial" font-size="14.00" fill="#000000">work_position_id    </text>
<text text-anchor="start" x="1178.4432" y="-338.9" font-family="Arial" font-size="14.00" fill="#666666">[uuid]</text>
<polygon fill="none" stroke="#000000" points="1033,-297.5 1033,-327.5 1370,-327.5 1370,-297.5 1033,-297.5"/>
<text text-anchor="start" x="1040" y="-308.9" font-family="Arial" font-size="14.00" fill="#000000">organization_id    </text>
<text text-anchor="start" x="1169.1192" y="-308.9" font-family="Arial" font-size="14.00" fill="#666666">[uuid]</text>
<polygon fill="none" stroke="#000000" points="1033,-267.5 1033,-297.5 1370,-297.5 1370,-267.5 1033,-267.5"/>
<text text-anchor="start" x="1040" y="-278.9" font-family="Arial" font-size="14.00" fill="#000000">name    </text>
<text text-anchor="start" x="1109.2132" y="-278.9" font-family="Arial" font-size="14.00" fill="#666666">[varchar(255)]</text>
<polygon fill="none" stroke="#000000" points="1033,-237.5 1033,-267.5 1370,-267.5 1370,-237.5 1033,-237.5"/>
<text text-anchor="start" x="1040" y="-248.9" font-family="Arial" font-size="14.00" fill="#000000">description    </text>
<text text-anchor="start" x="1141.8822" y="-248.9" font-family="Arial" font-size="14.00" fill="#666666">[text]</text>
<polygon fill="none" stroke="#000000" points="1033,-207.5 1033,-237.5 1370,-237.5 1370,-207.5 1033,-207.5"/>
<text text-anchor="start" x="1040" y="-218.9" font-family="Arial" font-size="14.00" fill="#000000">created_at    </text>
<text text-anchor="start" x="1140.3422" y="-218.9" font-family="Arial" font-size="14.00" fill="#666666">[timestamp with time zone]</text>
<polygon fill="none" stroke="#000000" points="1033,-177.5 1033,-207.5 1370,-207.5 1370,-177.5 1033,-177.5"/>
<text text-anchor="start" x="1040" y="-188.9" font-family="Arial" font-size="14.00" fill="#000000">updated_at    </text>
<text text-anchor="start" x="1144.2468" y="-188.9" font-family="Arial" font-size="14.00" fill="#666666">[timestamp with time zone]</text>
</g>
<!-- public.m_memberships&#45;&gt;public.m_work_positions -->
<g id="edge3" class="edge">
<title>public.m_memberships:work_position_id&#45;&gt;public.m_work_positions:work_position_id</title>
<path fill="none" stroke="#000000" d="M940.0766,-726.7649C987.5121,-719.2519 964.6678,-655.557 981,-601 997.8043,-544.8661 974.4048,-342.5 1033,-342.5"/>
<polygon fill="#000000" stroke="#000000" points="939.9735,-726.7724 929.6726,-723.0119 934.9867,-727.1362 930,-727.5 930,-727.5 930,-727.5 934.9867,-727.1362 930.3274,-731.9881 939.9735,-726.7724 939.9735,-726.7724"/>
<text text-anchor="start" x="936.5385" y="-737.5" font-family="Arial" font-size="10.00" fill="#000000">FOREIGN KEY (work_position_id) REFERENCES m_work_positions(work_position_id) ON UPDATE SET NULL ON DELETE SET NULL</text>
</g>
</g>
</svg>
