<?xml version="1.0" encoding="UTF-8" standalone="no"?>
<!DOCTYPE svg PUBLIC "-//W3C//DTD SVG 1.1//EN"
 "http://www.w3.org/Graphics/SVG/1.1/DTD/svg11.dtd">
<!-- Generated by graphviz version 2.40.1 (20161225.0304)
 -->
<!-- Title: public.m_attend_statuses Pages: 1 -->
<svg width="1002pt" height="832pt"
 viewBox="0.00 0.00 1001.50 832.00" xmlns="http://www.w3.org/2000/svg" xmlns:xlink="http://www.w3.org/1999/xlink">
<g id="graph0" class="graph" transform="scale(1 1) rotate(0) translate(4 828)">
<title>public.m_attend_statuses</title>
<polygon fill="#ffffff" stroke="transparent" points="-4,4 -4,-828 997.5,-828 997.5,4 -4,4"/>
<!-- public.m_attend_statuses -->
<g id="node1" class="node">
<title>public.m_attend_statuses</title>
<polygon fill="#efefef" stroke="transparent" points="603,-165.5 603,-200.5 948,-200.5 948,-165.5 603,-165.5"/>
<polygon fill="none" stroke="#000000" points="603,-165.5 603,-200.5 948,-200.5 948,-165.5 603,-165.5"/>
<text text-anchor="start" x="609.683" y="-178.3" font-family="Arial Bold" font-size="18.00" fill="#000000">public.m_attend_statuses</text>
<text text-anchor="start" x="813.749" y="-178.3" font-family="Arial" font-size="14.00" fill="#000000">    </text>
<text text-anchor="start" x="847.9538" y="-178.3" font-family="Arial" font-size="14.00" fill="#666666">[BASE TABLE]</text>
<polygon fill="none" stroke="#000000" points="603,-135.5 603,-165.5 948,-165.5 948,-135.5 603,-135.5"/>
<text text-anchor="start" x="610" y="-146.9" font-family="Arial" font-size="14.00" fill="#000000">m_attend_statuses_pkey </text>
<text text-anchor="start" x="769.5048" y="-146.9" font-family="Arial" font-size="14.00" fill="#666666">[bigint]</text>
<polygon fill="none" stroke="#000000" points="603,-105.5 603,-135.5 948,-135.5 948,-105.5 603,-105.5"/>
<text text-anchor="start" x="610" y="-116.9" font-family="Arial" font-size="14.00" fill="#000000">attend_status_id </text>
<text text-anchor="start" x="716.603" y="-116.9" font-family="Arial" font-size="14.00" fill="#666666">[uuid]</text>
<polygon fill="none" stroke="#000000" points="603,-75.5 603,-105.5 948,-105.5 948,-75.5 603,-75.5"/>
<text text-anchor="start" x="610" y="-86.9" font-family="Arial" font-size="14.00" fill="#000000">name </text>
<text text-anchor="start" x="648.899" y="-86.9" font-family="Arial" font-size="14.00" fill="#666666">[varchar(255)]</text>
<polygon fill="none" stroke="#000000" points="603,-45.5 603,-75.5 948,-75.5 948,-45.5 603,-45.5"/>
<text text-anchor="start" x="610" y="-56.9" font-family="Arial" font-size="14.00" fill="#000000">key </text>
<text text-anchor="start" x="635.6732" y="-56.9" font-family="Arial" font-size="14.00" fill="#666666">[varchar(255)]</text>
<polygon fill="none" stroke="#000000" stroke-width="3" points="601,-44.5 601,-202.5 949,-202.5 949,-44.5 601,-44.5"/>
</g>
<!-- public.m_members -->
<g id="node2" class="node">
<title>public.m_members</title>
<polygon fill="#efefef" stroke="transparent" points="629,-745.5 629,-780.5 922,-780.5 922,-745.5 629,-745.5"/>
<polygon fill="none" stroke="#000000" points="629,-745.5 629,-780.5 922,-780.5 922,-745.5 629,-745.5"/>
<text text-anchor="start" x="635.7146" y="-758.3" font-family="Arial Bold" font-size="18.00" fill="#000000">public.m_members</text>
<text text-anchor="start" x="787.7174" y="-758.3" font-family="Arial" font-size="14.00" fill="#000000">    </text>
<text text-anchor="start" x="821.9222" y="-758.3" font-family="Arial" font-size="14.00" fill="#666666">[BASE TABLE]</text>
<polygon fill="none" stroke="#000000" points="629,-715.5 629,-745.5 922,-745.5 922,-715.5 629,-715.5"/>
<text text-anchor="start" x="636" y="-726.9" font-family="Arial" font-size="14.00" fill="#000000">m_members_pkey    </text>
<text text-anchor="start" x="785.3254" y="-726.9" font-family="Arial" font-size="14.00" fill="#666666">[bigint]</text>
<polygon fill="none" stroke="#000000" points="629,-685.5 629,-715.5 922,-715.5 922,-685.5 629,-685.5"/>
<text text-anchor="start" x="636" y="-696.9" font-family="Arial" font-size="14.00" fill="#000000">member_id    </text>
<text text-anchor="start" x="740.2062" y="-696.9" font-family="Arial" font-size="14.00" fill="#666666">[uuid]</text>
<polygon fill="none" stroke="#000000" points="629,-655.5 629,-685.5 922,-685.5 922,-655.5 629,-655.5"/>
<text text-anchor="start" x="636" y="-666.9" font-family="Arial" font-size="14.00" fill="#000000">login_id    </text>
<text text-anchor="start" x="718.4376" y="-666.9" font-family="Arial" font-size="14.00" fill="#666666">[varchar(255)]</text>
<polygon fill="none" stroke="#000000" points="629,-625.5 629,-655.5 922,-655.5 922,-625.5 629,-625.5"/>
<text text-anchor="start" x="636" y="-636.9" font-family="Arial" font-size="14.00" fill="#000000">password    </text>
<text text-anchor="start" x="730.1024" y="-636.9" font-family="Arial" font-size="14.00" fill="#666666">[varchar(255)]</text>
<polygon fill="none" stroke="#000000" points="629,-595.5 629,-625.5 922,-625.5 922,-595.5 629,-595.5"/>
<text text-anchor="start" x="636" y="-606.9" font-family="Arial" font-size="14.00" fill="#000000">email    </text>
<text text-anchor="start" x="703.6438" y="-606.9" font-family="Arial" font-size="14.00" fill="#666666">[varchar(255)]</text>
<polygon fill="none" stroke="#000000" points="629,-565.5 629,-595.5 922,-595.5 922,-565.5 629,-565.5"/>
<text text-anchor="start" x="636" y="-576.9" font-family="Arial" font-size="14.00" fill="#000000">name    </text>
<text text-anchor="start" x="705.2132" y="-576.9" font-family="Arial" font-size="14.00" fill="#666666">[varchar(255)]</text>
<polygon fill="none" stroke="#000000" points="629,-535.5 629,-565.5 922,-565.5 922,-535.5 629,-535.5"/>
<text text-anchor="start" x="636" y="-546.9" font-family="Arial" font-size="14.00" fill="#000000">attend_status_id    </text>
<text text-anchor="start" x="772.9172" y="-546.9" font-family="Arial" font-size="14.00" fill="#666666">[uuid]</text>
<polygon fill="none" stroke="#000000" points="629,-505.5 629,-535.5 922,-535.5 922,-505.5 629,-505.5"/>
<text text-anchor="start" x="636" y="-516.9" font-family="Arial" font-size="14.00" fill="#000000">profile_image_url    </text>
<text text-anchor="start" x="777.547" y="-516.9" font-family="Arial" font-size="14.00" fill="#666666">[text]</text>
<polygon fill="none" stroke="#000000" points="629,-475.5 629,-505.5 922,-505.5 922,-475.5 629,-475.5"/>
<text text-anchor="start" x="636" y="-486.9" font-family="Arial" font-size="14.00" fill="#000000">grade_id    </text>
<text text-anchor="start" x="724.6676" y="-486.9" font-family="Arial" font-size="14.00" fill="#666666">[uuid]</text>
<polygon fill="none" stroke="#000000" points="629,-445.5 629,-475.5 922,-475.5 922,-445.5 629,-445.5"/>
<text text-anchor="start" x="636" y="-456.9" font-family="Arial" font-size="14.00" fill="#000000">group_id    </text>
<text text-anchor="start" x="724.6676" y="-456.9" font-family="Arial" font-size="14.00" fill="#666666">[uuid]</text>
<polygon fill="none" stroke="#000000" points="629,-415.5 629,-445.5 922,-445.5 922,-415.5 629,-415.5"/>
<text text-anchor="start" x="636" y="-426.9" font-family="Arial" font-size="14.00" fill="#000000">personal_organization_id    </text>
<text text-anchor="start" x="826.582" y="-426.9" font-family="Arial" font-size="14.00" fill="#666666">[uuid]</text>
<polygon fill="none" stroke="#000000" points="629,-385.5 629,-415.5 922,-415.5 922,-385.5 629,-385.5"/>
<text text-anchor="start" x="636" y="-396.9" font-family="Arial" font-size="14.00" fill="#000000">role_id    </text>
<text text-anchor="start" x="712.209" y="-396.9" font-family="Arial" font-size="14.00" fill="#666666">[uuid]</text>
<polygon fill="none" stroke="#000000" points="629,-355.5 629,-385.5 922,-385.5 922,-355.5 629,-355.5"/>
<text text-anchor="start" x="636" y="-366.9" font-family="Arial" font-size="14.00" fill="#000000">created_at    </text>
<text text-anchor="start" x="736.3422" y="-366.9" font-family="Arial" font-size="14.00" fill="#666666">[timestamp with time zone]</text>
<polygon fill="none" stroke="#000000" points="629,-325.5 629,-355.5 922,-355.5 922,-325.5 629,-325.5"/>
<text text-anchor="start" x="636" y="-336.9" font-family="Arial" font-size="14.00" fill="#000000">updated_at    </text>
<text text-anchor="start" x="740.2468" y="-336.9" font-family="Arial" font-size="14.00" fill="#666666">[timestamp with time zone]</text>
</g>
<!-- public.m_members&#45;&gt;public.m_attend_statuses -->
<g id="edge1" class="edge">
<title>public.m_members:attend_status_id&#45;&gt;public.m_attend_statuses:attend_status_id</title>
<path fill="none" stroke="#000000" d="M618.8986,-548.8564C531.5499,-519.9872 510.7289,-120.5 603,-120.5"/>
<polygon fill="#000000" stroke="#000000" points="619.1298,-548.8939 628.2773,-554.9416 624.0649,-549.697 629,-550.5 629,-550.5 629,-550.5 624.0649,-549.697 629.7227,-546.0584 619.1298,-548.8939 619.1298,-548.8939"/>
<text text-anchor="start" x="7.184" y="-560.5" font-family="Arial" font-size="10.00" fill="#000000">FOREIGN KEY (attend_status_id) REFERENCES m_attend_statuses(attend_status_id) ON UPDATE RESTRICT ON DELETE RESTRICT</text>
</g>
</g>
</svg>
