<?xml version="1.0" encoding="UTF-8" standalone="no"?>
<!DOCTYPE svg PUBLIC "-//W3C//DTD SVG 1.1//EN"
 "http://www.w3.org/Graphics/SVG/1.1/DTD/svg11.dtd">
<!-- Generated by graphviz version 2.40.1 (20161225.0304)
 -->
<!-- Title: public.m_chat_rooms Pages: 1 -->
<svg width="1684pt" height="1499pt"
 viewBox="0.00 0.00 1684.00 1499.00" xmlns="http://www.w3.org/2000/svg" xmlns:xlink="http://www.w3.org/1999/xlink">
<g id="graph0" class="graph" transform="scale(1 1) rotate(0) translate(4 1495)">
<title>public.m_chat_rooms</title>
<polygon fill="#ffffff" stroke="transparent" points="-4,4 -4,-1495 1680,-1495 1680,4 -4,4"/>
<!-- public.m_chat_rooms -->
<g id="node1" class="node">
<title>public.m_chat_rooms</title>
<polygon fill="#efefef" stroke="transparent" points="684,-952.5 684,-987.5 996,-987.5 996,-952.5 684,-952.5"/>
<polygon fill="none" stroke="#000000" points="684,-952.5 684,-987.5 996,-987.5 996,-952.5 684,-952.5"/>
<text text-anchor="start" x="690.7034" y="-965.3" font-family="Arial Bold" font-size="18.00" fill="#000000">public.m_chat_rooms</text>
<text text-anchor="start" x="861.7286" y="-965.3" font-family="Arial" font-size="14.00" fill="#000000">    </text>
<text text-anchor="start" x="895.9334" y="-965.3" font-family="Arial" font-size="14.00" fill="#666666">[BASE TABLE]</text>
<polygon fill="none" stroke="#000000" points="684,-922.5 684,-952.5 996,-952.5 996,-922.5 684,-922.5"/>
<text text-anchor="start" x="691" y="-933.9" font-family="Arial" font-size="14.00" fill="#000000">m_chat_rooms_pkey </text>
<text text-anchor="start" x="824.8064" y="-933.9" font-family="Arial" font-size="14.00" fill="#666666">[bigint]</text>
<polygon fill="none" stroke="#000000" points="684,-892.5 684,-922.5 996,-922.5 996,-892.5 684,-892.5"/>
<text text-anchor="start" x="691" y="-903.9" font-family="Arial" font-size="14.00" fill="#000000">chat_room_id </text>
<text text-anchor="start" x="779.6872" y="-903.9" font-family="Arial" font-size="14.00" fill="#666666">[uuid]</text>
<polygon fill="none" stroke="#000000" points="684,-862.5 684,-892.5 996,-892.5 996,-862.5 684,-862.5"/>
<text text-anchor="start" x="691" y="-873.9" font-family="Arial" font-size="14.00" fill="#000000">name </text>
<text text-anchor="start" x="729.899" y="-873.9" font-family="Arial" font-size="14.00" fill="#666666">[varchar(255)]</text>
<polygon fill="none" stroke="#000000" points="684,-832.5 684,-862.5 996,-862.5 996,-832.5 684,-832.5"/>
<text text-anchor="start" x="691" y="-843.9" font-family="Arial" font-size="14.00" fill="#000000">is_private </text>
<text text-anchor="start" x="754.7854" y="-843.9" font-family="Arial" font-size="14.00" fill="#666666">[boolean]</text>
<polygon fill="none" stroke="#000000" points="684,-802.5 684,-832.5 996,-832.5 996,-802.5 684,-802.5"/>
<text text-anchor="start" x="691" y="-813.9" font-family="Arial" font-size="14.00" fill="#000000">cover_image_id </text>
<text text-anchor="start" x="793.6858" y="-813.9" font-family="Arial" font-size="14.00" fill="#666666">[uuid]</text>
<polygon fill="none" stroke="#000000" points="684,-772.5 684,-802.5 996,-802.5 996,-772.5 684,-772.5"/>
<text text-anchor="start" x="691" y="-783.9" font-family="Arial" font-size="14.00" fill="#000000">owner_id </text>
<text text-anchor="start" x="751.6774" y="-783.9" font-family="Arial" font-size="14.00" fill="#666666">[uuid]</text>
<polygon fill="none" stroke="#000000" points="684,-742.5 684,-772.5 996,-772.5 996,-742.5 684,-742.5"/>
<text text-anchor="start" x="691" y="-753.9" font-family="Arial" font-size="14.00" fill="#000000">from_organization </text>
<text text-anchor="start" x="806.9102" y="-753.9" font-family="Arial" font-size="14.00" fill="#666666">[boolean]</text>
<polygon fill="none" stroke="#000000" points="684,-712.5 684,-742.5 996,-742.5 996,-712.5 684,-712.5"/>
<text text-anchor="start" x="691" y="-723.9" font-family="Arial" font-size="14.00" fill="#000000">created_at </text>
<text text-anchor="start" x="761.028" y="-723.9" font-family="Arial" font-size="14.00" fill="#666666">[timestamp with time zone]</text>
<polygon fill="none" stroke="#000000" points="684,-682.5 684,-712.5 996,-712.5 996,-682.5 684,-682.5"/>
<text text-anchor="start" x="691" y="-693.9" font-family="Arial" font-size="14.00" fill="#000000">updated_at </text>
<text text-anchor="start" x="764.9326" y="-693.9" font-family="Arial" font-size="14.00" fill="#666666">[timestamp with time zone]</text>
<polygon fill="none" stroke="#000000" stroke-width="3" points="682.5,-681.5 682.5,-989.5 997.5,-989.5 997.5,-681.5 682.5,-681.5"/>
</g>
<!-- public.t_images -->
<g id="node5" class="node">
<title>public.t_images</title>
<polygon fill="#efefef" stroke="transparent" points="515,-357.5 515,-392.5 781,-392.5 781,-357.5 515,-357.5"/>
<polygon fill="none" stroke="#000000" points="515,-357.5 515,-392.5 781,-392.5 781,-357.5 515,-357.5"/>
<text text-anchor="start" x="521.7047" y="-370.3" font-family="Arial Bold" font-size="18.00" fill="#000000">public.t_images</text>
<text text-anchor="start" x="646.7273" y="-370.3" font-family="Arial" font-size="14.00" fill="#000000">    </text>
<text text-anchor="start" x="680.9321" y="-370.3" font-family="Arial" font-size="14.00" fill="#666666">[BASE TABLE]</text>
<polygon fill="none" stroke="#000000" points="515,-327.5 515,-357.5 781,-357.5 781,-327.5 515,-327.5"/>
<text text-anchor="start" x="522" y="-338.9" font-family="Arial" font-size="14.00" fill="#000000">t_images_pkey    </text>
<text text-anchor="start" x="650.3408" y="-338.9" font-family="Arial" font-size="14.00" fill="#666666">[bigint]</text>
<polygon fill="none" stroke="#000000" points="515,-297.5 515,-327.5 781,-327.5 781,-297.5 515,-297.5"/>
<text text-anchor="start" x="522" y="-308.9" font-family="Arial" font-size="14.00" fill="#000000">image_id    </text>
<text text-anchor="start" x="612.9916" y="-308.9" font-family="Arial" font-size="14.00" fill="#666666">[uuid]</text>
<polygon fill="none" stroke="#000000" points="515,-267.5 515,-297.5 781,-297.5 781,-267.5 515,-267.5"/>
<text text-anchor="start" x="522" y="-278.9" font-family="Arial" font-size="14.00" fill="#000000">height    </text>
<text text-anchor="start" x="594.3324" y="-278.9" font-family="Arial" font-size="14.00" fill="#666666">[double precision]</text>
<polygon fill="none" stroke="#000000" points="515,-237.5 515,-267.5 781,-267.5 781,-237.5 515,-237.5"/>
<text text-anchor="start" x="522" y="-248.9" font-family="Arial" font-size="14.00" fill="#000000">width    </text>
<text text-anchor="start" x="588.8738" y="-248.9" font-family="Arial" font-size="14.00" fill="#666666">[double precision]</text>
<polygon fill="none" stroke="#000000" points="515,-207.5 515,-237.5 781,-237.5 781,-207.5 515,-207.5"/>
<text text-anchor="start" x="522" y="-218.9" font-family="Arial" font-size="14.00" fill="#000000">attachable_item_id    </text>
<text text-anchor="start" x="673.683" y="-218.9" font-family="Arial" font-size="14.00" fill="#666666">[uuid]</text>
</g>
<!-- public.m_chat_rooms&#45;&gt;public.t_images -->
<g id="edge4" class="edge">
<title>public.m_chat_rooms:cover_image_id&#45;&gt;public.t_images:image_id</title>
<path fill="none" stroke="#000000" d="M673.8504,-816.9684C547.3373,-802.9091 763.1585,-514.0208 781,-436 793.2359,-382.4923 835.8889,-312.5 781,-312.5"/>
<polygon fill="#000000" stroke="#000000" points="674.0137,-816.9769 683.7646,-821.9938 679.0068,-817.2384 684,-817.5 684,-817.5 684,-817.5 679.0068,-817.2384 684.2354,-813.0062 674.0137,-816.9769 674.0137,-816.9769"/>
<text text-anchor="start" x="146.1515" y="-827.5" font-family="Arial" font-size="10.00" fill="#000000">FOREIGN KEY (cover_image_id) REFERENCES t_images(image_id) ON UPDATE SET NULL ON DELETE SET NULL</text>
</g>
<!-- public.m_members -->
<g id="node6" class="node">
<title>public.m_members</title>
<polygon fill="#efefef" stroke="transparent" points="886,-522.5 886,-557.5 1179,-557.5 1179,-522.5 886,-522.5"/>
<polygon fill="none" stroke="#000000" points="886,-522.5 886,-557.5 1179,-557.5 1179,-522.5 886,-522.5"/>
<text text-anchor="start" x="892.7146" y="-535.3" font-family="Arial Bold" font-size="18.00" fill="#000000">public.m_members</text>
<text text-anchor="start" x="1044.7174" y="-535.3" font-family="Arial" font-size="14.00" fill="#000000">    </text>
<text text-anchor="start" x="1078.9222" y="-535.3" font-family="Arial" font-size="14.00" fill="#666666">[BASE TABLE]</text>
<polygon fill="none" stroke="#000000" points="886,-492.5 886,-522.5 1179,-522.5 1179,-492.5 886,-492.5"/>
<text text-anchor="start" x="893" y="-503.9" font-family="Arial" font-size="14.00" fill="#000000">m_members_pkey    </text>
<text text-anchor="start" x="1042.3254" y="-503.9" font-family="Arial" font-size="14.00" fill="#666666">[bigint]</text>
<polygon fill="none" stroke="#000000" points="886,-462.5 886,-492.5 1179,-492.5 1179,-462.5 886,-462.5"/>
<text text-anchor="start" x="893" y="-473.9" font-family="Arial" font-size="14.00" fill="#000000">member_id    </text>
<text text-anchor="start" x="997.2062" y="-473.9" font-family="Arial" font-size="14.00" fill="#666666">[uuid]</text>
<polygon fill="none" stroke="#000000" points="886,-432.5 886,-462.5 1179,-462.5 1179,-432.5 886,-432.5"/>
<text text-anchor="start" x="893" y="-443.9" font-family="Arial" font-size="14.00" fill="#000000">login_id    </text>
<text text-anchor="start" x="975.4376" y="-443.9" font-family="Arial" font-size="14.00" fill="#666666">[varchar(255)]</text>
<polygon fill="none" stroke="#000000" points="886,-402.5 886,-432.5 1179,-432.5 1179,-402.5 886,-402.5"/>
<text text-anchor="start" x="893" y="-413.9" font-family="Arial" font-size="14.00" fill="#000000">password    </text>
<text text-anchor="start" x="987.1024" y="-413.9" font-family="Arial" font-size="14.00" fill="#666666">[varchar(255)]</text>
<polygon fill="none" stroke="#000000" points="886,-372.5 886,-402.5 1179,-402.5 1179,-372.5 886,-372.5"/>
<text text-anchor="start" x="893" y="-383.9" font-family="Arial" font-size="14.00" fill="#000000">email    </text>
<text text-anchor="start" x="960.6438" y="-383.9" font-family="Arial" font-size="14.00" fill="#666666">[varchar(255)]</text>
<polygon fill="none" stroke="#000000" points="886,-342.5 886,-372.5 1179,-372.5 1179,-342.5 886,-342.5"/>
<text text-anchor="start" x="893" y="-353.9" font-family="Arial" font-size="14.00" fill="#000000">name    </text>
<text text-anchor="start" x="962.2132" y="-353.9" font-family="Arial" font-size="14.00" fill="#666666">[varchar(255)]</text>
<polygon fill="none" stroke="#000000" points="886,-312.5 886,-342.5 1179,-342.5 1179,-312.5 886,-312.5"/>
<text text-anchor="start" x="893" y="-323.9" font-family="Arial" font-size="14.00" fill="#000000">first_name    </text>
<text text-anchor="start" x="992.5442" y="-323.9" font-family="Arial" font-size="14.00" fill="#666666">[varchar(255)]</text>
<polygon fill="none" stroke="#000000" points="886,-282.5 886,-312.5 1179,-312.5 1179,-282.5 886,-282.5"/>
<text text-anchor="start" x="893" y="-293.9" font-family="Arial" font-size="14.00" fill="#000000">last_name    </text>
<text text-anchor="start" x="991.7756" y="-293.9" font-family="Arial" font-size="14.00" fill="#666666">[varchar(255)]</text>
<polygon fill="none" stroke="#000000" points="886,-252.5 886,-282.5 1179,-282.5 1179,-252.5 886,-252.5"/>
<text text-anchor="start" x="893" y="-263.9" font-family="Arial" font-size="14.00" fill="#000000">attend_status_id    </text>
<text text-anchor="start" x="1029.9172" y="-263.9" font-family="Arial" font-size="14.00" fill="#666666">[uuid]</text>
<polygon fill="none" stroke="#000000" points="886,-222.5 886,-252.5 1179,-252.5 1179,-222.5 886,-222.5"/>
<text text-anchor="start" x="893" y="-233.9" font-family="Arial" font-size="14.00" fill="#000000">profile_image_id    </text>
<text text-anchor="start" x="1029.8864" y="-233.9" font-family="Arial" font-size="14.00" fill="#666666">[uuid]</text>
<polygon fill="none" stroke="#000000" points="886,-192.5 886,-222.5 1179,-222.5 1179,-192.5 886,-192.5"/>
<text text-anchor="start" x="893" y="-203.9" font-family="Arial" font-size="14.00" fill="#000000">grade_id    </text>
<text text-anchor="start" x="981.6676" y="-203.9" font-family="Arial" font-size="14.00" fill="#666666">[uuid]</text>
<polygon fill="none" stroke="#000000" points="886,-162.5 886,-192.5 1179,-192.5 1179,-162.5 886,-162.5"/>
<text text-anchor="start" x="893" y="-173.9" font-family="Arial" font-size="14.00" fill="#000000">group_id    </text>
<text text-anchor="start" x="981.6676" y="-173.9" font-family="Arial" font-size="14.00" fill="#666666">[uuid]</text>
<polygon fill="none" stroke="#000000" points="886,-132.5 886,-162.5 1179,-162.5 1179,-132.5 886,-132.5"/>
<text text-anchor="start" x="893" y="-143.9" font-family="Arial" font-size="14.00" fill="#000000">personal_organization_id    </text>
<text text-anchor="start" x="1083.582" y="-143.9" font-family="Arial" font-size="14.00" fill="#666666">[uuid]</text>
<polygon fill="none" stroke="#000000" points="886,-102.5 886,-132.5 1179,-132.5 1179,-102.5 886,-102.5"/>
<text text-anchor="start" x="893" y="-113.9" font-family="Arial" font-size="14.00" fill="#000000">role_id    </text>
<text text-anchor="start" x="969.209" y="-113.9" font-family="Arial" font-size="14.00" fill="#666666">[uuid]</text>
<polygon fill="none" stroke="#000000" points="886,-72.5 886,-102.5 1179,-102.5 1179,-72.5 886,-72.5"/>
<text text-anchor="start" x="893" y="-83.9" font-family="Arial" font-size="14.00" fill="#000000">created_at    </text>
<text text-anchor="start" x="993.3422" y="-83.9" font-family="Arial" font-size="14.00" fill="#666666">[timestamp with time zone]</text>
<polygon fill="none" stroke="#000000" points="886,-42.5 886,-72.5 1179,-72.5 1179,-42.5 886,-42.5"/>
<text text-anchor="start" x="893" y="-53.9" font-family="Arial" font-size="14.00" fill="#000000">updated_at    </text>
<text text-anchor="start" x="997.2468" y="-53.9" font-family="Arial" font-size="14.00" fill="#666666">[timestamp with time zone]</text>
</g>
<!-- public.m_chat_rooms&#45;&gt;public.m_members -->
<g id="edge5" class="edge">
<title>public.m_chat_rooms:owner_id&#45;&gt;public.m_members:member_id</title>
<path fill="none" stroke="#000000" d="M1006.1395,-786.6582C1059.8321,-777.0886 1033.1118,-688.1944 996,-637 965.8083,-595.3516 916.1917,-642.6484 886,-601 853.7844,-556.5597 831.1111,-477.5 886,-477.5"/>
<polygon fill="#000000" stroke="#000000" points="1005.9657,-786.6726 995.6277,-783.0154 1000.9829,-787.0863 996,-787.5 996,-787.5 996,-787.5 1000.9829,-787.0863 996.3723,-791.9846 1005.9657,-786.6726 1005.9657,-786.6726"/>
<text text-anchor="start" x="1002.9405" y="-797.5" font-family="Arial" font-size="10.00" fill="#000000">FOREIGN KEY (owner_id) REFERENCES m_members(member_id) ON UPDATE SET NULL ON DELETE SET NULL</text>
</g>
<!-- public.m_organizations -->
<g id="node2" class="node">
<title>public.m_organizations</title>
<polygon fill="#efefef" stroke="transparent" points="260,-1412.5 260,-1447.5 585,-1447.5 585,-1412.5 260,-1412.5"/>
<polygon fill="none" stroke="#000000" points="260,-1412.5 260,-1447.5 585,-1447.5 585,-1412.5 260,-1412.5"/>
<text text-anchor="start" x="266.6991" y="-1425.3" font-family="Arial Bold" font-size="18.00" fill="#000000">public.m_organizations</text>
<text text-anchor="start" x="450.7329" y="-1425.3" font-family="Arial" font-size="14.00" fill="#000000">    </text>
<text text-anchor="start" x="484.9377" y="-1425.3" font-family="Arial" font-size="14.00" fill="#666666">[BASE TABLE]</text>
<polygon fill="none" stroke="#000000" points="260,-1382.5 260,-1412.5 585,-1412.5 585,-1382.5 260,-1382.5"/>
<text text-anchor="start" x="267" y="-1393.9" font-family="Arial" font-size="14.00" fill="#000000">m_organizations_pkey    </text>
<text text-anchor="start" x="441.2384" y="-1393.9" font-family="Arial" font-size="14.00" fill="#666666">[bigint]</text>
<polygon fill="none" stroke="#000000" points="260,-1352.5 260,-1382.5 585,-1382.5 585,-1352.5 260,-1352.5"/>
<text text-anchor="start" x="267" y="-1363.9" font-family="Arial" font-size="14.00" fill="#000000">organization_id    </text>
<text text-anchor="start" x="396.1192" y="-1363.9" font-family="Arial" font-size="14.00" fill="#666666">[uuid]</text>
<polygon fill="none" stroke="#000000" points="260,-1322.5 260,-1352.5 585,-1352.5 585,-1322.5 260,-1322.5"/>
<text text-anchor="start" x="267" y="-1333.9" font-family="Arial" font-size="14.00" fill="#000000">name    </text>
<text text-anchor="start" x="336.2132" y="-1333.9" font-family="Arial" font-size="14.00" fill="#666666">[varchar(255)]</text>
<polygon fill="none" stroke="#000000" points="260,-1292.5 260,-1322.5 585,-1322.5 585,-1292.5 260,-1292.5"/>
<text text-anchor="start" x="267" y="-1303.9" font-family="Arial" font-size="14.00" fill="#000000">description    </text>
<text text-anchor="start" x="368.8822" y="-1303.9" font-family="Arial" font-size="14.00" fill="#666666">[text]</text>
<polygon fill="none" stroke="#000000" points="260,-1262.5 260,-1292.5 585,-1292.5 585,-1262.5 260,-1262.5"/>
<text text-anchor="start" x="267" y="-1273.9" font-family="Arial" font-size="14.00" fill="#000000">color    </text>
<text text-anchor="start" x="331.5372" y="-1273.9" font-family="Arial" font-size="14.00" fill="#666666">[varchar(7)]</text>
<polygon fill="none" stroke="#000000" points="260,-1232.5 260,-1262.5 585,-1262.5 585,-1232.5 260,-1232.5"/>
<text text-anchor="start" x="267" y="-1243.9" font-family="Arial" font-size="14.00" fill="#000000">is_personal    </text>
<text text-anchor="start" x="372.7742" y="-1243.9" font-family="Arial" font-size="14.00" fill="#666666">[boolean]</text>
<polygon fill="none" stroke="#000000" points="260,-1202.5 260,-1232.5 585,-1232.5 585,-1202.5 260,-1202.5"/>
<text text-anchor="start" x="267" y="-1213.9" font-family="Arial" font-size="14.00" fill="#000000">is_whole    </text>
<text text-anchor="start" x="355.655" y="-1213.9" font-family="Arial" font-size="14.00" fill="#666666">[boolean]</text>
<polygon fill="none" stroke="#000000" points="260,-1172.5 260,-1202.5 585,-1202.5 585,-1172.5 260,-1172.5"/>
<text text-anchor="start" x="267" y="-1183.9" font-family="Arial" font-size="14.00" fill="#000000">created_at    </text>
<text text-anchor="start" x="367.3422" y="-1183.9" font-family="Arial" font-size="14.00" fill="#666666">[timestamp with time zone]</text>
<polygon fill="none" stroke="#000000" points="260,-1142.5 260,-1172.5 585,-1172.5 585,-1142.5 260,-1142.5"/>
<text text-anchor="start" x="267" y="-1153.9" font-family="Arial" font-size="14.00" fill="#000000">updated_at    </text>
<text text-anchor="start" x="371.2468" y="-1153.9" font-family="Arial" font-size="14.00" fill="#666666">[timestamp with time zone]</text>
<polygon fill="none" stroke="#000000" points="260,-1112.5 260,-1142.5 585,-1142.5 585,-1112.5 260,-1112.5"/>
<text text-anchor="start" x="267" y="-1123.9" font-family="Arial" font-size="14.00" fill="#000000">chat_room_id    </text>
<text text-anchor="start" x="386.0014" y="-1123.9" font-family="Arial" font-size="14.00" fill="#666666">[uuid]</text>
</g>
<!-- public.m_organizations&#45;&gt;public.m_chat_rooms -->
<g id="edge1" class="edge">
<title>public.m_organizations:chat_room_id&#45;&gt;public.m_chat_rooms:chat_room_id</title>
<path fill="none" stroke="#000000" d="M595.2318,-1126.7465C684.5902,-1112.718 580.4431,-907.5 684,-907.5"/>
<polygon fill="#000000" stroke="#000000" points="594.973,-1126.7655 584.6695,-1123.0122 589.9865,-1127.1327 585,-1127.5 585,-1127.5 585,-1127.5 589.9865,-1127.1327 585.3305,-1131.9878 594.973,-1126.7655 594.973,-1126.7655"/>
<text text-anchor="start" x="7.159" y="-1137.5" font-family="Arial" font-size="10.00" fill="#000000">FOREIGN KEY (chat_room_id) REFERENCES m_chat_rooms(chat_room_id) ON UPDATE RESTRICT ON DELETE RESTRICT</text>
</g>
<!-- public.t_messages -->
<g id="node3" class="node">
<title>public.t_messages</title>
<polygon fill="#efefef" stroke="transparent" points="689,-1382.5 689,-1417.5 990,-1417.5 990,-1382.5 689,-1382.5"/>
<polygon fill="none" stroke="#000000" points="689,-1382.5 689,-1417.5 990,-1417.5 990,-1382.5 689,-1382.5"/>
<text text-anchor="start" x="701.1987" y="-1395.3" font-family="Arial Bold" font-size="18.00" fill="#000000">public.t_messages</text>
<text text-anchor="start" x="850.2333" y="-1395.3" font-family="Arial" font-size="14.00" fill="#000000">    </text>
<text text-anchor="start" x="884.4381" y="-1395.3" font-family="Arial" font-size="14.00" fill="#666666">[BASE TABLE]</text>
<polygon fill="none" stroke="#000000" points="689,-1352.5 689,-1382.5 990,-1382.5 990,-1352.5 689,-1352.5"/>
<text text-anchor="start" x="696" y="-1363.9" font-family="Arial" font-size="14.00" fill="#000000">t_messages_pkey    </text>
<text text-anchor="start" x="843.0168" y="-1363.9" font-family="Arial" font-size="14.00" fill="#666666">[bigint]</text>
<polygon fill="none" stroke="#000000" points="689,-1322.5 689,-1352.5 990,-1352.5 990,-1322.5 689,-1322.5"/>
<text text-anchor="start" x="696" y="-1333.9" font-family="Arial" font-size="14.00" fill="#000000">message_id    </text>
<text text-anchor="start" x="805.6676" y="-1333.9" font-family="Arial" font-size="14.00" fill="#666666">[uuid]</text>
<polygon fill="none" stroke="#000000" points="689,-1292.5 689,-1322.5 990,-1322.5 990,-1292.5 689,-1292.5"/>
<text text-anchor="start" x="696" y="-1303.9" font-family="Arial" font-size="14.00" fill="#000000">chat_room_id    </text>
<text text-anchor="start" x="815.0014" y="-1303.9" font-family="Arial" font-size="14.00" fill="#666666">[uuid]</text>
<polygon fill="none" stroke="#000000" points="689,-1262.5 689,-1292.5 990,-1292.5 990,-1262.5 689,-1262.5"/>
<text text-anchor="start" x="696" y="-1273.9" font-family="Arial" font-size="14.00" fill="#000000">sender_id    </text>
<text text-anchor="start" x="791.6676" y="-1273.9" font-family="Arial" font-size="14.00" fill="#666666">[uuid]</text>
<polygon fill="none" stroke="#000000" points="689,-1232.5 689,-1262.5 990,-1262.5 990,-1232.5 689,-1232.5"/>
<text text-anchor="start" x="696" y="-1243.9" font-family="Arial" font-size="14.00" fill="#000000">body    </text>
<text text-anchor="start" x="760.5526" y="-1243.9" font-family="Arial" font-size="14.00" fill="#666666">[text]</text>
<polygon fill="none" stroke="#000000" points="689,-1202.5 689,-1232.5 990,-1232.5 990,-1202.5 689,-1202.5"/>
<text text-anchor="start" x="696" y="-1213.9" font-family="Arial" font-size="14.00" fill="#000000">posted_at    </text>
<text text-anchor="start" x="791.6816" y="-1213.9" font-family="Arial" font-size="14.00" fill="#666666">[timestamp with time zone]</text>
<polygon fill="none" stroke="#000000" points="689,-1172.5 689,-1202.5 990,-1202.5 990,-1172.5 689,-1172.5"/>
<text text-anchor="start" x="695.9825" y="-1183.9" font-family="Arial" font-size="14.00" fill="#000000">last_edited_at    </text>
<text text-anchor="start" x="817.3331" y="-1183.9" font-family="Arial" font-size="14.00" fill="#666666">[timestamp with time zone]</text>
<polygon fill="none" stroke="#000000" points="689,-1142.5 689,-1172.5 990,-1172.5 990,-1142.5 689,-1142.5"/>
<text text-anchor="start" x="696" y="-1153.9" font-family="Arial" font-size="14.00" fill="#000000">chat_room_action_id    </text>
<text text-anchor="start" x="860.129" y="-1153.9" font-family="Arial" font-size="14.00" fill="#666666">[uuid]</text>
</g>
<!-- public.t_messages&#45;&gt;public.m_chat_rooms -->
<g id="edge2" class="edge">
<title>public.t_messages:chat_room_id&#45;&gt;public.m_chat_rooms:chat_room_id</title>
<path fill="none" stroke="#000000" d="M999.6735,-1304.5041C1033.3599,-1281.5126 1016.7021,-1133.0754 990,-1100 902.6061,-991.7468 771.3939,-1142.2532 684,-1034 648.6836,-990.2542 627.7778,-907.5 684,-907.5"/>
<polygon fill="#000000" stroke="#000000" points="999.5524,-1304.5415 988.6687,-1303.2014 994.7762,-1306.0208 990,-1307.5 990,-1307.5 990,-1307.5 994.7762,-1306.0208 991.3313,-1311.7986 999.5524,-1304.5415 999.5524,-1304.5415"/>
<text text-anchor="start" x="996.818" y="-1317.5" font-family="Arial" font-size="10.00" fill="#000000">FOREIGN KEY (chat_room_id) REFERENCES m_chat_rooms(chat_room_id) ON UPDATE CASCADE ON DELETE CASCADE</text>
</g>
<!-- public.m_chat_room_belongings -->
<g id="node4" class="node">
<title>public.m_chat_room_belongings</title>
<polygon fill="#efefef" stroke="transparent" points="1094,-1322.5 1094,-1357.5 1494,-1357.5 1494,-1322.5 1094,-1322.5"/>
<polygon fill="none" stroke="#000000" points="1094,-1322.5 1094,-1357.5 1494,-1357.5 1494,-1322.5 1094,-1322.5"/>
<text text-anchor="start" x="1100.6844" y="-1335.3" font-family="Arial Bold" font-size="18.00" fill="#000000">public.m_chat_room_belongings</text>
<text text-anchor="start" x="1359.7476" y="-1335.3" font-family="Arial" font-size="14.00" fill="#000000">    </text>
<text text-anchor="start" x="1393.9524" y="-1335.3" font-family="Arial" font-size="14.00" fill="#666666">[BASE TABLE]</text>
<polygon fill="none" stroke="#000000" points="1094,-1292.5 1094,-1322.5 1494,-1322.5 1494,-1292.5 1094,-1292.5"/>
<text text-anchor="start" x="1101" y="-1303.9" font-family="Arial" font-size="14.00" fill="#000000">m_chat_room_belongings_pkey    </text>
<text text-anchor="start" x="1333.5946" y="-1303.9" font-family="Arial" font-size="14.00" fill="#666666">[bigint]</text>
<polygon fill="none" stroke="#000000" points="1094,-1262.5 1094,-1292.5 1494,-1292.5 1494,-1262.5 1094,-1262.5"/>
<text text-anchor="start" x="1101" y="-1273.9" font-family="Arial" font-size="14.00" fill="#000000">member_id    </text>
<text text-anchor="start" x="1205.2062" y="-1273.9" font-family="Arial" font-size="14.00" fill="#666666">[uuid]</text>
<polygon fill="none" stroke="#000000" points="1094,-1232.5 1094,-1262.5 1494,-1262.5 1494,-1232.5 1094,-1232.5"/>
<text text-anchor="start" x="1101" y="-1243.9" font-family="Arial" font-size="14.00" fill="#000000">chat_room_id    </text>
<text text-anchor="start" x="1220.0014" y="-1243.9" font-family="Arial" font-size="14.00" fill="#666666">[uuid]</text>
<polygon fill="none" stroke="#000000" points="1094,-1202.5 1094,-1232.5 1494,-1232.5 1494,-1202.5 1094,-1202.5"/>
<text text-anchor="start" x="1101" y="-1213.9" font-family="Arial" font-size="14.00" fill="#000000">added_at    </text>
<text text-anchor="start" x="1193.5736" y="-1213.9" font-family="Arial" font-size="14.00" fill="#666666">[timestamp with time zone]</text>
</g>
<!-- public.m_chat_room_belongings&#45;&gt;public.m_chat_rooms -->
<g id="edge3" class="edge">
<title>public.m_chat_room_belongings:chat_room_id&#45;&gt;public.m_chat_rooms:chat_room_id</title>
<path fill="none" stroke="#000000" d="M1083.823,-1245.3288C1020.6214,-1216.3721 1070.9457,-907.5 996,-907.5"/>
<polygon fill="#000000" stroke="#000000" points="1084.2201,-1245.4135 1093.0611,-1251.901 1089.11,-1246.4567 1094,-1247.5 1094,-1247.5 1094,-1247.5 1089.11,-1246.4567 1094.9389,-1243.099 1084.2201,-1245.4135 1084.2201,-1245.4135"/>
<text text-anchor="start" x="1100.818" y="-1257.5" font-family="Arial" font-size="10.00" fill="#000000">FOREIGN KEY (chat_room_id) REFERENCES m_chat_rooms(chat_room_id) ON UPDATE CASCADE ON DELETE CASCADE</text>
</g>
</g>
</svg>
