<?xml version="1.0" encoding="UTF-8" standalone="no"?>
<!DOCTYPE svg PUBLIC "-//W3C//DTD SVG 1.1//EN"
 "http://www.w3.org/Graphics/SVG/1.1/DTD/svg11.dtd">
<!-- Generated by graphviz version 2.40.1 (20161225.0304)
 -->
<!-- Title: public.t_attachable_items Pages: 1 -->
<svg width="1482pt" height="1199pt"
 viewBox="0.00 0.00 1482.00 1199.00" xmlns="http://www.w3.org/2000/svg" xmlns:xlink="http://www.w3.org/1999/xlink">
<g id="graph0" class="graph" transform="scale(1 1) rotate(0) translate(4 1195)">
<title>public.t_attachable_items</title>
<polygon fill="#ffffff" stroke="transparent" points="-4,4 -4,-1195 1478,-1195 1478,4 -4,4"/>
<!-- public.t_attachable_items -->
<g id="node1" class="node">
<title>public.t_attachable_items</title>
<polygon fill="#efefef" stroke="transparent" points="590,-802.5 590,-837.5 934,-837.5 934,-802.5 590,-802.5"/>
<polygon fill="none" stroke="#000000" points="590,-802.5 590,-837.5 934,-837.5 934,-802.5 590,-802.5"/>
<text text-anchor="start" x="596.6888" y="-815.3" font-family="Arial Bold" font-size="18.00" fill="#000000">public.t_attachable_items</text>
<text text-anchor="start" x="799.7432" y="-815.3" font-family="Arial" font-size="14.00" fill="#000000">    </text>
<text text-anchor="start" x="833.948" y="-815.3" font-family="Arial" font-size="14.00" fill="#666666">[BASE TABLE]</text>
<polygon fill="none" stroke="#000000" points="590,-772.5 590,-802.5 934,-802.5 934,-772.5 590,-772.5"/>
<text text-anchor="start" x="597" y="-783.9" font-family="Arial" font-size="14.00" fill="#000000">t_attachable_items_pkey </text>
<text text-anchor="start" x="755.718" y="-783.9" font-family="Arial" font-size="14.00" fill="#666666">[bigint]</text>
<polygon fill="none" stroke="#000000" points="590,-742.5 590,-772.5 934,-772.5 934,-742.5 590,-742.5"/>
<text text-anchor="start" x="597" y="-753.9" font-family="Arial" font-size="14.00" fill="#000000">attachable_item_id </text>
<text text-anchor="start" x="718.3688" y="-753.9" font-family="Arial" font-size="14.00" fill="#666666">[uuid]</text>
<polygon fill="none" stroke="#000000" points="590,-712.5 590,-742.5 934,-742.5 934,-712.5 590,-712.5"/>
<text text-anchor="start" x="597" y="-723.9" font-family="Arial" font-size="14.00" fill="#000000">url </text>
<text text-anchor="start" x="616.4404" y="-723.9" font-family="Arial" font-size="14.00" fill="#666666">[text]</text>
<polygon fill="none" stroke="#000000" points="590,-682.5 590,-712.5 934,-712.5 934,-682.5 590,-682.5"/>
<text text-anchor="start" x="597" y="-693.9" font-family="Arial" font-size="14.00" fill="#000000">size </text>
<text text-anchor="start" x="625.7798" y="-693.9" font-family="Arial" font-size="14.00" fill="#666666">[double precision]</text>
<polygon fill="none" stroke="#000000" points="590,-652.5 590,-682.5 934,-682.5 934,-652.5 590,-652.5"/>
<text text-anchor="start" x="597" y="-663.9" font-family="Arial" font-size="14.00" fill="#000000">mime_type_id </text>
<text text-anchor="start" x="688.0112" y="-663.9" font-family="Arial" font-size="14.00" fill="#666666">[uuid]</text>
<polygon fill="none" stroke="#000000" points="590,-622.5 590,-652.5 934,-652.5 934,-622.5 590,-622.5"/>
<text text-anchor="start" x="597" y="-633.9" font-family="Arial" font-size="14.00" fill="#000000">owner_id </text>
<text text-anchor="start" x="657.6774" y="-633.9" font-family="Arial" font-size="14.00" fill="#666666">[uuid]</text>
<polygon fill="none" stroke="#000000" stroke-width="3" points="588.5,-621.5 588.5,-839.5 935.5,-839.5 935.5,-621.5 588.5,-621.5"/>
</g>
<!-- public.m_mime_types -->
<g id="node4" class="node">
<title>public.m_mime_types</title>
<polygon fill="#efefef" stroke="transparent" points="400,-327.5 400,-362.5 715,-362.5 715,-327.5 400,-327.5"/>
<polygon fill="none" stroke="#000000" points="400,-327.5 400,-362.5 715,-362.5 715,-327.5 400,-327.5"/>
<text text-anchor="start" x="406.7094" y="-340.3" font-family="Arial Bold" font-size="18.00" fill="#000000">public.m_mime_types</text>
<text text-anchor="start" x="580.7226" y="-340.3" font-family="Arial" font-size="14.00" fill="#000000">    </text>
<text text-anchor="start" x="614.9274" y="-340.3" font-family="Arial" font-size="14.00" fill="#666666">[BASE TABLE]</text>
<polygon fill="none" stroke="#000000" points="400,-297.5 400,-327.5 715,-327.5 715,-297.5 400,-297.5"/>
<text text-anchor="start" x="407" y="-308.9" font-family="Arial" font-size="14.00" fill="#000000">m_mime_types_pkey    </text>
<text text-anchor="start" x="573.4446" y="-308.9" font-family="Arial" font-size="14.00" fill="#666666">[bigint]</text>
<polygon fill="none" stroke="#000000" points="400,-267.5 400,-297.5 715,-297.5 715,-267.5 400,-267.5"/>
<text text-anchor="start" x="407" y="-278.9" font-family="Arial" font-size="14.00" fill="#000000">mime_type_id    </text>
<text text-anchor="start" x="528.3254" y="-278.9" font-family="Arial" font-size="14.00" fill="#666666">[uuid]</text>
<polygon fill="none" stroke="#000000" points="400,-237.5 400,-267.5 715,-267.5 715,-237.5 400,-237.5"/>
<text text-anchor="start" x="407" y="-248.9" font-family="Arial" font-size="14.00" fill="#000000">name    </text>
<text text-anchor="start" x="476.2132" y="-248.9" font-family="Arial" font-size="14.00" fill="#666666">[varchar(255)]</text>
<polygon fill="none" stroke="#000000" points="400,-207.5 400,-237.5 715,-237.5 715,-207.5 400,-207.5"/>
<text text-anchor="start" x="407" y="-218.9" font-family="Arial" font-size="14.00" fill="#000000">kind    </text>
<text text-anchor="start" x="466.8766" y="-218.9" font-family="Arial" font-size="14.00" fill="#666666">[varchar(255)]</text>
<polygon fill="none" stroke="#000000" points="400,-177.5 400,-207.5 715,-207.5 715,-177.5 400,-177.5"/>
<text text-anchor="start" x="407" y="-188.9" font-family="Arial" font-size="14.00" fill="#000000">key    </text>
<text text-anchor="start" x="462.9874" y="-188.9" font-family="Arial" font-size="14.00" fill="#666666">[varchar(255)]</text>
</g>
<!-- public.t_attachable_items&#45;&gt;public.m_mime_types -->
<g id="edge3" class="edge">
<title>public.t_attachable_items:mime_type_id&#45;&gt;public.m_mime_types:mime_type_id</title>
<path fill="none" stroke="#000000" d="M580.083,-666.0664C555.0498,-657.4259 578.7343,-611.5016 590,-577 619.2211,-487.5095 685.7789,-495.4905 715,-406 732.0375,-353.8223 769.8889,-282.5 715,-282.5"/>
<polygon fill="#000000" stroke="#000000" points="580.1029,-666.0692 589.3562,-671.9537 585.0514,-666.7846 590,-667.5 590,-667.5 590,-667.5 585.0514,-666.7846 590.6438,-663.0463 580.1029,-666.0692 580.1029,-666.0692"/>
<text text-anchor="start" x="6.669" y="-677.5" font-family="Arial" font-size="10.00" fill="#000000">FOREIGN KEY (mime_type_id) REFERENCES m_mime_types(mime_type_id) ON UPDATE RESTRICT ON DELETE RESTRICT</text>
</g>
<!-- public.m_members -->
<g id="node5" class="node">
<title>public.m_members</title>
<polygon fill="#efefef" stroke="transparent" points="819,-462.5 819,-497.5 1112,-497.5 1112,-462.5 819,-462.5"/>
<polygon fill="none" stroke="#000000" points="819,-462.5 819,-497.5 1112,-497.5 1112,-462.5 819,-462.5"/>
<text text-anchor="start" x="825.7146" y="-475.3" font-family="Arial Bold" font-size="18.00" fill="#000000">public.m_members</text>
<text text-anchor="start" x="977.7174" y="-475.3" font-family="Arial" font-size="14.00" fill="#000000">    </text>
<text text-anchor="start" x="1011.9222" y="-475.3" font-family="Arial" font-size="14.00" fill="#666666">[BASE TABLE]</text>
<polygon fill="none" stroke="#000000" points="819,-432.5 819,-462.5 1112,-462.5 1112,-432.5 819,-432.5"/>
<text text-anchor="start" x="826" y="-443.9" font-family="Arial" font-size="14.00" fill="#000000">m_members_pkey    </text>
<text text-anchor="start" x="975.3254" y="-443.9" font-family="Arial" font-size="14.00" fill="#666666">[bigint]</text>
<polygon fill="none" stroke="#000000" points="819,-402.5 819,-432.5 1112,-432.5 1112,-402.5 819,-402.5"/>
<text text-anchor="start" x="826" y="-413.9" font-family="Arial" font-size="14.00" fill="#000000">member_id    </text>
<text text-anchor="start" x="930.2062" y="-413.9" font-family="Arial" font-size="14.00" fill="#666666">[uuid]</text>
<polygon fill="none" stroke="#000000" points="819,-372.5 819,-402.5 1112,-402.5 1112,-372.5 819,-372.5"/>
<text text-anchor="start" x="826" y="-383.9" font-family="Arial" font-size="14.00" fill="#000000">login_id    </text>
<text text-anchor="start" x="908.4376" y="-383.9" font-family="Arial" font-size="14.00" fill="#666666">[varchar(255)]</text>
<polygon fill="none" stroke="#000000" points="819,-342.5 819,-372.5 1112,-372.5 1112,-342.5 819,-342.5"/>
<text text-anchor="start" x="826" y="-353.9" font-family="Arial" font-size="14.00" fill="#000000">password    </text>
<text text-anchor="start" x="920.1024" y="-353.9" font-family="Arial" font-size="14.00" fill="#666666">[varchar(255)]</text>
<polygon fill="none" stroke="#000000" points="819,-312.5 819,-342.5 1112,-342.5 1112,-312.5 819,-312.5"/>
<text text-anchor="start" x="826" y="-323.9" font-family="Arial" font-size="14.00" fill="#000000">email    </text>
<text text-anchor="start" x="893.6438" y="-323.9" font-family="Arial" font-size="14.00" fill="#666666">[varchar(255)]</text>
<polygon fill="none" stroke="#000000" points="819,-282.5 819,-312.5 1112,-312.5 1112,-282.5 819,-282.5"/>
<text text-anchor="start" x="826" y="-293.9" font-family="Arial" font-size="14.00" fill="#000000">name    </text>
<text text-anchor="start" x="895.2132" y="-293.9" font-family="Arial" font-size="14.00" fill="#666666">[varchar(255)]</text>
<polygon fill="none" stroke="#000000" points="819,-252.5 819,-282.5 1112,-282.5 1112,-252.5 819,-252.5"/>
<text text-anchor="start" x="826" y="-263.9" font-family="Arial" font-size="14.00" fill="#000000">attend_status_id    </text>
<text text-anchor="start" x="962.9172" y="-263.9" font-family="Arial" font-size="14.00" fill="#666666">[uuid]</text>
<polygon fill="none" stroke="#000000" points="819,-222.5 819,-252.5 1112,-252.5 1112,-222.5 819,-222.5"/>
<text text-anchor="start" x="826" y="-233.9" font-family="Arial" font-size="14.00" fill="#000000">profile_image_url    </text>
<text text-anchor="start" x="967.547" y="-233.9" font-family="Arial" font-size="14.00" fill="#666666">[text]</text>
<polygon fill="none" stroke="#000000" points="819,-192.5 819,-222.5 1112,-222.5 1112,-192.5 819,-192.5"/>
<text text-anchor="start" x="826" y="-203.9" font-family="Arial" font-size="14.00" fill="#000000">grade_id    </text>
<text text-anchor="start" x="914.6676" y="-203.9" font-family="Arial" font-size="14.00" fill="#666666">[uuid]</text>
<polygon fill="none" stroke="#000000" points="819,-162.5 819,-192.5 1112,-192.5 1112,-162.5 819,-162.5"/>
<text text-anchor="start" x="826" y="-173.9" font-family="Arial" font-size="14.00" fill="#000000">group_id    </text>
<text text-anchor="start" x="914.6676" y="-173.9" font-family="Arial" font-size="14.00" fill="#666666">[uuid]</text>
<polygon fill="none" stroke="#000000" points="819,-132.5 819,-162.5 1112,-162.5 1112,-132.5 819,-132.5"/>
<text text-anchor="start" x="826" y="-143.9" font-family="Arial" font-size="14.00" fill="#000000">personal_organization_id    </text>
<text text-anchor="start" x="1016.582" y="-143.9" font-family="Arial" font-size="14.00" fill="#666666">[uuid]</text>
<polygon fill="none" stroke="#000000" points="819,-102.5 819,-132.5 1112,-132.5 1112,-102.5 819,-102.5"/>
<text text-anchor="start" x="826" y="-113.9" font-family="Arial" font-size="14.00" fill="#000000">role_id    </text>
<text text-anchor="start" x="902.209" y="-113.9" font-family="Arial" font-size="14.00" fill="#666666">[uuid]</text>
<polygon fill="none" stroke="#000000" points="819,-72.5 819,-102.5 1112,-102.5 1112,-72.5 819,-72.5"/>
<text text-anchor="start" x="826" y="-83.9" font-family="Arial" font-size="14.00" fill="#000000">created_at    </text>
<text text-anchor="start" x="926.3422" y="-83.9" font-family="Arial" font-size="14.00" fill="#666666">[timestamp with time zone]</text>
<polygon fill="none" stroke="#000000" points="819,-42.5 819,-72.5 1112,-72.5 1112,-42.5 819,-42.5"/>
<text text-anchor="start" x="826" y="-53.9" font-family="Arial" font-size="14.00" fill="#000000">updated_at    </text>
<text text-anchor="start" x="930.2468" y="-53.9" font-family="Arial" font-size="14.00" fill="#666666">[timestamp with time zone]</text>
</g>
<!-- public.t_attachable_items&#45;&gt;public.m_members -->
<g id="edge4" class="edge">
<title>public.t_attachable_items:owner_id&#45;&gt;public.m_members:member_id</title>
<path fill="none" stroke="#000000" d="M943.957,-634.8695C957.3407,-625.7841 947.4341,-595.2824 934,-577 902.287,-533.8418 850.713,-584.1582 819,-541 786.4983,-496.7685 764.1111,-417.5 819,-417.5"/>
<polygon fill="#000000" stroke="#000000" points="943.6683,-634.9457 932.8506,-633.1493 938.8341,-636.2228 934,-637.5 934,-637.5 934,-637.5 938.8341,-636.2228 935.1494,-641.8507 943.6683,-634.9457 943.6683,-634.9457"/>
<text text-anchor="start" x="940.9405" y="-647.5" font-family="Arial" font-size="10.00" fill="#000000">FOREIGN KEY (owner_id) REFERENCES m_members(member_id) ON UPDATE SET NULL ON DELETE SET NULL</text>
</g>
<!-- public.t_images -->
<g id="node2" class="node">
<title>public.t_images</title>
<polygon fill="#efefef" stroke="transparent" points="451,-1112.5 451,-1147.5 717,-1147.5 717,-1112.5 451,-1112.5"/>
<polygon fill="none" stroke="#000000" points="451,-1112.5 451,-1147.5 717,-1147.5 717,-1112.5 451,-1112.5"/>
<text text-anchor="start" x="457.7047" y="-1125.3" font-family="Arial Bold" font-size="18.00" fill="#000000">public.t_images</text>
<text text-anchor="start" x="582.7273" y="-1125.3" font-family="Arial" font-size="14.00" fill="#000000">    </text>
<text text-anchor="start" x="616.9321" y="-1125.3" font-family="Arial" font-size="14.00" fill="#666666">[BASE TABLE]</text>
<polygon fill="none" stroke="#000000" points="451,-1082.5 451,-1112.5 717,-1112.5 717,-1082.5 451,-1082.5"/>
<text text-anchor="start" x="458" y="-1093.9" font-family="Arial" font-size="14.00" fill="#000000">t_images_pkey    </text>
<text text-anchor="start" x="586.3408" y="-1093.9" font-family="Arial" font-size="14.00" fill="#666666">[bigint]</text>
<polygon fill="none" stroke="#000000" points="451,-1052.5 451,-1082.5 717,-1082.5 717,-1052.5 451,-1052.5"/>
<text text-anchor="start" x="458" y="-1063.9" font-family="Arial" font-size="14.00" fill="#000000">image_id    </text>
<text text-anchor="start" x="548.9916" y="-1063.9" font-family="Arial" font-size="14.00" fill="#666666">[uuid]</text>
<polygon fill="none" stroke="#000000" points="451,-1022.5 451,-1052.5 717,-1052.5 717,-1022.5 451,-1022.5"/>
<text text-anchor="start" x="458" y="-1033.9" font-family="Arial" font-size="14.00" fill="#000000">height    </text>
<text text-anchor="start" x="530.3324" y="-1033.9" font-family="Arial" font-size="14.00" fill="#666666">[double precision]</text>
<polygon fill="none" stroke="#000000" points="451,-992.5 451,-1022.5 717,-1022.5 717,-992.5 451,-992.5"/>
<text text-anchor="start" x="458" y="-1003.9" font-family="Arial" font-size="14.00" fill="#000000">width    </text>
<text text-anchor="start" x="524.8738" y="-1003.9" font-family="Arial" font-size="14.00" fill="#666666">[double precision]</text>
<polygon fill="none" stroke="#000000" points="451,-962.5 451,-992.5 717,-992.5 717,-962.5 451,-962.5"/>
<text text-anchor="start" x="458" y="-973.9" font-family="Arial" font-size="14.00" fill="#000000">attachable_item_id    </text>
<text text-anchor="start" x="609.683" y="-973.9" font-family="Arial" font-size="14.00" fill="#666666">[uuid]</text>
</g>
<!-- public.t_images&#45;&gt;public.t_attachable_items -->
<g id="edge1" class="edge">
<title>public.t_images:attachable_item_id&#45;&gt;public.t_attachable_items:attachable_item_id</title>
<path fill="none" stroke="#000000" d="M726.8297,-974.7408C739.085,-965.7723 729.8824,-937.0416 717,-920 681.6215,-873.199 625.3785,-930.801 590,-884 556.0965,-839.1503 533.7778,-757.5 590,-757.5"/>
<polygon fill="#000000" stroke="#000000" points="726.6279,-974.7974 715.7838,-973.1674 721.814,-976.1487 717,-977.5 717,-977.5 717,-977.5 721.814,-976.1487 718.2162,-981.8326 726.6279,-974.7974 726.6279,-974.7974"/>
<text text-anchor="start" x="73.918" y="-987.5" font-family="Arial" font-size="10.00" fill="#000000">FOREIGN KEY (attachable_item_id) REFERENCES t_attachable_items(attachable_item_id) ON UPDATE RESTRICT ON DELETE RESTRICT</text>
</g>
<!-- public.t_files -->
<g id="node3" class="node">
<title>public.t_files</title>
<polygon fill="#efefef" stroke="transparent" points="821,-1082.5 821,-1117.5 1061,-1117.5 1061,-1082.5 821,-1082.5"/>
<polygon fill="none" stroke="#000000" points="821,-1082.5 821,-1117.5 1061,-1117.5 1061,-1082.5 821,-1082.5"/>
<text text-anchor="start" x="827.7088" y="-1095.3" font-family="Arial Bold" font-size="18.00" fill="#000000">public.t_files</text>
<text text-anchor="start" x="926.7232" y="-1095.3" font-family="Arial" font-size="14.00" fill="#000000">    </text>
<text text-anchor="start" x="960.928" y="-1095.3" font-family="Arial" font-size="14.00" fill="#666666">[BASE TABLE]</text>
<polygon fill="none" stroke="#000000" points="821,-1052.5 821,-1082.5 1061,-1082.5 1061,-1052.5 821,-1052.5"/>
<text text-anchor="start" x="828" y="-1063.9" font-family="Arial" font-size="14.00" fill="#000000">t_files_pkey    </text>
<text text-anchor="start" x="936.1122" y="-1063.9" font-family="Arial" font-size="14.00" fill="#666666">[bigint]</text>
<polygon fill="none" stroke="#000000" points="821,-1022.5 821,-1052.5 1061,-1052.5 1061,-1022.5 821,-1022.5"/>
<text text-anchor="start" x="828" y="-1033.9" font-family="Arial" font-size="14.00" fill="#000000">file_id    </text>
<text text-anchor="start" x="898.763" y="-1033.9" font-family="Arial" font-size="14.00" fill="#666666">[uuid]</text>
<polygon fill="none" stroke="#000000" points="821,-992.5 821,-1022.5 1061,-1022.5 1061,-992.5 821,-992.5"/>
<text text-anchor="start" x="828" y="-1003.9" font-family="Arial" font-size="14.00" fill="#000000">attachable_item_id    </text>
<text text-anchor="start" x="979.683" y="-1003.9" font-family="Arial" font-size="14.00" fill="#666666">[uuid]</text>
</g>
<!-- public.t_files&#45;&gt;public.t_attachable_items -->
<g id="edge2" class="edge">
<title>public.t_files:attachable_item_id&#45;&gt;public.t_attachable_items:attachable_item_id</title>
<path fill="none" stroke="#000000" d="M811.3518,-1004.8608C799.6524,-996.2599 810.3651,-968.5276 821,-950 849.9539,-899.5581 905.0461,-934.4419 934,-884 961.9887,-835.2396 990.2222,-757.5 934,-757.5"/>
<polygon fill="#000000" stroke="#000000" points="811.3543,-1004.8615 819.8127,-1011.8405 816.1772,-1006.1807 821,-1007.5 821,-1007.5 821,-1007.5 816.1772,-1006.1807 822.1873,-1003.1595 811.3543,-1004.8615 811.3543,-1004.8615"/>
<text text-anchor="start" x="827.918" y="-1017.5" font-family="Arial" font-size="10.00" fill="#000000">FOREIGN KEY (attachable_item_id) REFERENCES t_attachable_items(attachable_item_id) ON UPDATE RESTRICT ON DELETE RESTRICT</text>
</g>
</g>
</svg>
