<?xml version="1.0" encoding="UTF-8" standalone="no"?>
<!DOCTYPE svg PUBLIC "-//W3C//DTD SVG 1.1//EN"
 "http://www.w3.org/Graphics/SVG/1.1/DTD/svg11.dtd">
<!-- Generated by graphviz version 2.40.1 (20161225.0304)
 -->
<!-- Title: public.m_work_positions Pages: 1 -->
<svg width="885pt" height="562pt"
 viewBox="0.00 0.00 885.00 562.00" xmlns="http://www.w3.org/2000/svg" xmlns:xlink="http://www.w3.org/1999/xlink">
<g id="graph0" class="graph" transform="scale(1 1) rotate(0) translate(4 558)">
<title>public.m_work_positions</title>
<polygon fill="#ffffff" stroke="transparent" points="-4,4 -4,-558 881,-558 881,4 -4,4"/>
<!-- public.m_work_positions -->
<g id="node1" class="node">
<title>public.m_work_positions</title>
<polygon fill="#efefef" stroke="transparent" points="458,-225.5 458,-260.5 795,-260.5 795,-225.5 458,-225.5"/>
<polygon fill="none" stroke="#000000" points="458,-225.5 458,-260.5 795,-260.5 795,-225.5 458,-225.5"/>
<text text-anchor="start" x="464.7051" y="-238.3" font-family="Arial Bold" font-size="18.00" fill="#000000">public.m_work_positions</text>
<text text-anchor="start" x="660.7269" y="-238.3" font-family="Arial" font-size="14.00" fill="#000000">    </text>
<text text-anchor="start" x="694.9317" y="-238.3" font-family="Arial" font-size="14.00" fill="#666666">[BASE TABLE]</text>
<polygon fill="none" stroke="#000000" points="458,-195.5 458,-225.5 795,-225.5 795,-195.5 458,-195.5"/>
<text text-anchor="start" x="465" y="-206.9" font-family="Arial" font-size="14.00" fill="#000000">m_work_positions_pkey </text>
<text text-anchor="start" x="618.2482" y="-206.9" font-family="Arial" font-size="14.00" fill="#666666">[bigint]</text>
<polygon fill="none" stroke="#000000" points="458,-165.5 458,-195.5 795,-195.5 795,-165.5 458,-165.5"/>
<text text-anchor="start" x="465" y="-176.9" font-family="Arial" font-size="14.00" fill="#000000">work_position_id </text>
<text text-anchor="start" x="573.129" y="-176.9" font-family="Arial" font-size="14.00" fill="#666666">[uuid]</text>
<polygon fill="none" stroke="#000000" points="458,-135.5 458,-165.5 795,-165.5 795,-135.5 458,-135.5"/>
<text text-anchor="start" x="465" y="-146.9" font-family="Arial" font-size="14.00" fill="#000000">name </text>
<text text-anchor="start" x="503.899" y="-146.9" font-family="Arial" font-size="14.00" fill="#666666">[varchar(255)]</text>
<polygon fill="none" stroke="#000000" points="458,-105.5 458,-135.5 795,-135.5 795,-105.5 458,-105.5"/>
<text text-anchor="start" x="465" y="-116.9" font-family="Arial" font-size="14.00" fill="#000000">description </text>
<text text-anchor="start" x="536.568" y="-116.9" font-family="Arial" font-size="14.00" fill="#666666">[text]</text>
<polygon fill="none" stroke="#000000" points="458,-75.5 458,-105.5 795,-105.5 795,-75.5 458,-75.5"/>
<text text-anchor="start" x="465" y="-86.9" font-family="Arial" font-size="14.00" fill="#000000">created_at </text>
<text text-anchor="start" x="535.028" y="-86.9" font-family="Arial" font-size="14.00" fill="#666666">[timestamp with time zone]</text>
<polygon fill="none" stroke="#000000" points="458,-45.5 458,-75.5 795,-75.5 795,-45.5 458,-45.5"/>
<text text-anchor="start" x="465" y="-56.9" font-family="Arial" font-size="14.00" fill="#000000">updated_at </text>
<text text-anchor="start" x="538.9326" y="-56.9" font-family="Arial" font-size="14.00" fill="#666666">[timestamp with time zone]</text>
<polygon fill="none" stroke="#000000" stroke-width="3" points="456,-44.5 456,-262.5 796,-262.5 796,-44.5 456,-44.5"/>
</g>
<!-- public.m_permission_associations -->
<g id="node2" class="node">
<title>public.m_permission_associations</title>
<polygon fill="#efefef" stroke="transparent" points="420,-475.5 420,-510.5 834,-510.5 834,-475.5 420,-475.5"/>
<polygon fill="none" stroke="#000000" points="420,-475.5 420,-510.5 834,-510.5 834,-475.5 420,-475.5"/>
<text text-anchor="start" x="426.6995" y="-488.3" font-family="Arial Bold" font-size="18.00" fill="#000000">public.m_permission_associations</text>
<text text-anchor="start" x="699.7325" y="-488.3" font-family="Arial" font-size="14.00" fill="#000000">    </text>
<text text-anchor="start" x="733.9373" y="-488.3" font-family="Arial" font-size="14.00" fill="#666666">[BASE TABLE]</text>
<polygon fill="none" stroke="#000000" points="420,-445.5 420,-475.5 834,-475.5 834,-445.5 420,-445.5"/>
<text text-anchor="start" x="427" y="-456.9" font-family="Arial" font-size="14.00" fill="#000000">m_permission_associations_pkey    </text>
<text text-anchor="start" x="670.46" y="-456.9" font-family="Arial" font-size="14.00" fill="#666666">[bigint]</text>
<polygon fill="none" stroke="#000000" points="420,-415.5 420,-445.5 834,-445.5 834,-415.5 420,-415.5"/>
<text text-anchor="start" x="427" y="-426.9" font-family="Arial" font-size="14.00" fill="#000000">permission_id    </text>
<text text-anchor="start" x="547.5414" y="-426.9" font-family="Arial" font-size="14.00" fill="#666666">[uuid]</text>
<polygon fill="none" stroke="#000000" points="420,-385.5 420,-415.5 834,-415.5 834,-385.5 420,-385.5"/>
<text text-anchor="start" x="427" y="-396.9" font-family="Arial" font-size="14.00" fill="#000000">work_position_id    </text>
<text text-anchor="start" x="565.4432" y="-396.9" font-family="Arial" font-size="14.00" fill="#666666">[uuid]</text>
</g>
<!-- public.m_permission_associations&#45;&gt;public.m_work_positions -->
<g id="edge1" class="edge">
<title>public.m_permission_associations:work_position_id&#45;&gt;public.m_work_positions:work_position_id</title>
<path fill="none" stroke="#000000" d="M627.7307,-375.3097C637.9573,-309.3941 752.7333,-373.4028 795,-307 825.1896,-259.5708 851.2222,-180.5 795,-180.5"/>
<polygon fill="#000000" stroke="#000000" points="627.7153,-375.5256 622.5115,-385.1781 627.3577,-380.5128 627,-385.5 627,-385.5 627,-385.5 627.3577,-380.5128 631.4885,-385.8219 627.7153,-375.5256 627.7153,-375.5256"/>
<text text-anchor="start" x="7.3285" y="-395.5" font-family="Arial" font-size="10.00" fill="#000000">FOREIGN KEY (work_position_id) REFERENCES m_work_positions(work_position_id) ON UPDATE RESTRICT ON DELETE RESTRICT</text>
</g>
</g>
</svg>
