<?xml version="1.0" encoding="UTF-8" standalone="no"?>
<!DOCTYPE svg PUBLIC "-//W3C//DTD SVG 1.1//EN"
 "http://www.w3.org/Graphics/SVG/1.1/DTD/svg11.dtd">
<!-- Generated by graphviz version 2.40.1 (20161225.0304)
 -->
<!-- Title: public.m_work_positions Pages: 1 -->
<svg width="1477pt" height="1109pt"
 viewBox="0.00 0.00 1477.00 1109.00" xmlns="http://www.w3.org/2000/svg" xmlns:xlink="http://www.w3.org/1999/xlink">
<g id="graph0" class="graph" transform="scale(1 1) rotate(0) translate(4 1105)">
<title>public.m_work_positions</title>
<polygon fill="#ffffff" stroke="transparent" points="-4,4 -4,-1105 1473,-1105 1473,4 -4,4"/>
<!-- public.m_work_positions -->
<g id="node1" class="node">
<title>public.m_work_positions</title>
<polygon fill="#efefef" stroke="transparent" points="604,-712.5 604,-747.5 941,-747.5 941,-712.5 604,-712.5"/>
<polygon fill="none" stroke="#000000" points="604,-712.5 604,-747.5 941,-747.5 941,-712.5 604,-712.5"/>
<text text-anchor="start" x="610.7051" y="-725.3" font-family="Arial Bold" font-size="18.00" fill="#000000">public.m_work_positions</text>
<text text-anchor="start" x="806.7269" y="-725.3" font-family="Arial" font-size="14.00" fill="#000000">    </text>
<text text-anchor="start" x="840.9317" y="-725.3" font-family="Arial" font-size="14.00" fill="#666666">[BASE TABLE]</text>
<polygon fill="none" stroke="#000000" points="604,-682.5 604,-712.5 941,-712.5 941,-682.5 604,-682.5"/>
<text text-anchor="start" x="611" y="-693.9" font-family="Arial" font-size="14.00" fill="#000000">m_work_positions_pkey </text>
<text text-anchor="start" x="764.2482" y="-693.9" font-family="Arial" font-size="14.00" fill="#666666">[bigint]</text>
<polygon fill="none" stroke="#000000" points="604,-652.5 604,-682.5 941,-682.5 941,-652.5 604,-652.5"/>
<text text-anchor="start" x="611" y="-663.9" font-family="Arial" font-size="14.00" fill="#000000">work_position_id </text>
<text text-anchor="start" x="719.129" y="-663.9" font-family="Arial" font-size="14.00" fill="#666666">[uuid]</text>
<polygon fill="none" stroke="#000000" points="604,-622.5 604,-652.5 941,-652.5 941,-622.5 604,-622.5"/>
<text text-anchor="start" x="611" y="-633.9" font-family="Arial" font-size="14.00" fill="#000000">organization_id </text>
<text text-anchor="start" x="709.805" y="-633.9" font-family="Arial" font-size="14.00" fill="#666666">[uuid]</text>
<polygon fill="none" stroke="#000000" points="604,-592.5 604,-622.5 941,-622.5 941,-592.5 604,-592.5"/>
<text text-anchor="start" x="611" y="-603.9" font-family="Arial" font-size="14.00" fill="#000000">name </text>
<text text-anchor="start" x="649.899" y="-603.9" font-family="Arial" font-size="14.00" fill="#666666">[varchar(255)]</text>
<polygon fill="none" stroke="#000000" points="604,-562.5 604,-592.5 941,-592.5 941,-562.5 604,-562.5"/>
<text text-anchor="start" x="611" y="-573.9" font-family="Arial" font-size="14.00" fill="#000000">description </text>
<text text-anchor="start" x="682.568" y="-573.9" font-family="Arial" font-size="14.00" fill="#666666">[text]</text>
<polygon fill="none" stroke="#000000" points="604,-532.5 604,-562.5 941,-562.5 941,-532.5 604,-532.5"/>
<text text-anchor="start" x="611" y="-543.9" font-family="Arial" font-size="14.00" fill="#000000">created_at </text>
<text text-anchor="start" x="681.028" y="-543.9" font-family="Arial" font-size="14.00" fill="#666666">[timestamp with time zone]</text>
<polygon fill="none" stroke="#000000" points="604,-502.5 604,-532.5 941,-532.5 941,-502.5 604,-502.5"/>
<text text-anchor="start" x="611" y="-513.9" font-family="Arial" font-size="14.00" fill="#000000">updated_at </text>
<text text-anchor="start" x="684.9326" y="-513.9" font-family="Arial" font-size="14.00" fill="#666666">[timestamp with time zone]</text>
<polygon fill="none" stroke="#000000" stroke-width="3" points="602,-501.5 602,-749.5 942,-749.5 942,-501.5 602,-501.5"/>
</g>
<!-- public.m_organizations -->
<g id="node4" class="node">
<title>public.m_organizations</title>
<polygon fill="#efefef" stroke="transparent" points="610,-342.5 610,-377.5 935,-377.5 935,-342.5 610,-342.5"/>
<polygon fill="none" stroke="#000000" points="610,-342.5 610,-377.5 935,-377.5 935,-342.5 610,-342.5"/>
<text text-anchor="start" x="616.6991" y="-355.3" font-family="Arial Bold" font-size="18.00" fill="#000000">public.m_organizations</text>
<text text-anchor="start" x="800.7329" y="-355.3" font-family="Arial" font-size="14.00" fill="#000000">    </text>
<text text-anchor="start" x="834.9377" y="-355.3" font-family="Arial" font-size="14.00" fill="#666666">[BASE TABLE]</text>
<polygon fill="none" stroke="#000000" points="610,-312.5 610,-342.5 935,-342.5 935,-312.5 610,-312.5"/>
<text text-anchor="start" x="617" y="-323.9" font-family="Arial" font-size="14.00" fill="#000000">m_organizations_pkey    </text>
<text text-anchor="start" x="791.2384" y="-323.9" font-family="Arial" font-size="14.00" fill="#666666">[bigint]</text>
<polygon fill="none" stroke="#000000" points="610,-282.5 610,-312.5 935,-312.5 935,-282.5 610,-282.5"/>
<text text-anchor="start" x="617" y="-293.9" font-family="Arial" font-size="14.00" fill="#000000">organization_id    </text>
<text text-anchor="start" x="746.1192" y="-293.9" font-family="Arial" font-size="14.00" fill="#666666">[uuid]</text>
<polygon fill="none" stroke="#000000" points="610,-252.5 610,-282.5 935,-282.5 935,-252.5 610,-252.5"/>
<text text-anchor="start" x="617" y="-263.9" font-family="Arial" font-size="14.00" fill="#000000">name    </text>
<text text-anchor="start" x="686.2132" y="-263.9" font-family="Arial" font-size="14.00" fill="#666666">[varchar(255)]</text>
<polygon fill="none" stroke="#000000" points="610,-222.5 610,-252.5 935,-252.5 935,-222.5 610,-222.5"/>
<text text-anchor="start" x="617" y="-233.9" font-family="Arial" font-size="14.00" fill="#000000">description    </text>
<text text-anchor="start" x="718.8822" y="-233.9" font-family="Arial" font-size="14.00" fill="#666666">[text]</text>
<polygon fill="none" stroke="#000000" points="610,-192.5 610,-222.5 935,-222.5 935,-192.5 610,-192.5"/>
<text text-anchor="start" x="617" y="-203.9" font-family="Arial" font-size="14.00" fill="#000000">color    </text>
<text text-anchor="start" x="681.5372" y="-203.9" font-family="Arial" font-size="14.00" fill="#666666">[varchar(7)]</text>
<polygon fill="none" stroke="#000000" points="610,-162.5 610,-192.5 935,-192.5 935,-162.5 610,-162.5"/>
<text text-anchor="start" x="617" y="-173.9" font-family="Arial" font-size="14.00" fill="#000000">is_personal    </text>
<text text-anchor="start" x="722.7742" y="-173.9" font-family="Arial" font-size="14.00" fill="#666666">[boolean]</text>
<polygon fill="none" stroke="#000000" points="610,-132.5 610,-162.5 935,-162.5 935,-132.5 610,-132.5"/>
<text text-anchor="start" x="617" y="-143.9" font-family="Arial" font-size="14.00" fill="#000000">is_whole    </text>
<text text-anchor="start" x="705.655" y="-143.9" font-family="Arial" font-size="14.00" fill="#666666">[boolean]</text>
<polygon fill="none" stroke="#000000" points="610,-102.5 610,-132.5 935,-132.5 935,-102.5 610,-102.5"/>
<text text-anchor="start" x="617" y="-113.9" font-family="Arial" font-size="14.00" fill="#000000">created_at    </text>
<text text-anchor="start" x="717.3422" y="-113.9" font-family="Arial" font-size="14.00" fill="#666666">[timestamp with time zone]</text>
<polygon fill="none" stroke="#000000" points="610,-72.5 610,-102.5 935,-102.5 935,-72.5 610,-72.5"/>
<text text-anchor="start" x="617" y="-83.9" font-family="Arial" font-size="14.00" fill="#000000">updated_at    </text>
<text text-anchor="start" x="721.2468" y="-83.9" font-family="Arial" font-size="14.00" fill="#666666">[timestamp with time zone]</text>
<polygon fill="none" stroke="#000000" points="610,-42.5 610,-72.5 935,-72.5 935,-42.5 610,-42.5"/>
<text text-anchor="start" x="617" y="-53.9" font-family="Arial" font-size="14.00" fill="#000000">chat_room_id    </text>
<text text-anchor="start" x="736.0014" y="-53.9" font-family="Arial" font-size="14.00" fill="#666666">[uuid]</text>
</g>
<!-- public.m_work_positions&#45;&gt;public.m_organizations -->
<g id="edge3" class="edge">
<title>public.m_work_positions:organization_id&#45;&gt;public.m_organizations:organization_id</title>
<path fill="none" stroke="#000000" d="M593.6321,-636.9485C453.2263,-621.7493 462.4076,-297.5 610,-297.5"/>
<polygon fill="#000000" stroke="#000000" points="594.0141,-636.9687 603.7609,-641.9936 599.0071,-637.2343 604,-637.5 604,-637.5 604,-637.5 599.0071,-637.2343 604.2391,-633.0064 594.0141,-636.9687 594.0141,-636.9687"/>
<text text-anchor="start" x="6.9775" y="-647.5" font-family="Arial" font-size="10.00" fill="#000000">FOREIGN KEY (organization_id) REFERENCES m_organizations(organization_id) ON UPDATE CASCADE ON DELETE CASCADE</text>
</g>
<!-- public.m_permission_associations -->
<g id="node2" class="node">
<title>public.m_permission_associations</title>
<polygon fill="#efefef" stroke="transparent" points="329,-992.5 329,-1027.5 743,-1027.5 743,-992.5 329,-992.5"/>
<polygon fill="none" stroke="#000000" points="329,-992.5 329,-1027.5 743,-1027.5 743,-992.5 329,-992.5"/>
<text text-anchor="start" x="335.6995" y="-1005.3" font-family="Arial Bold" font-size="18.00" fill="#000000">public.m_permission_associations</text>
<text text-anchor="start" x="608.7325" y="-1005.3" font-family="Arial" font-size="14.00" fill="#000000">    </text>
<text text-anchor="start" x="642.9373" y="-1005.3" font-family="Arial" font-size="14.00" fill="#666666">[BASE TABLE]</text>
<polygon fill="none" stroke="#000000" points="329,-962.5 329,-992.5 743,-992.5 743,-962.5 329,-962.5"/>
<text text-anchor="start" x="336" y="-973.9" font-family="Arial" font-size="14.00" fill="#000000">m_permission_associations_pkey    </text>
<text text-anchor="start" x="579.46" y="-973.9" font-family="Arial" font-size="14.00" fill="#666666">[bigint]</text>
<polygon fill="none" stroke="#000000" points="329,-932.5 329,-962.5 743,-962.5 743,-932.5 329,-932.5"/>
<text text-anchor="start" x="336" y="-943.9" font-family="Arial" font-size="14.00" fill="#000000">permission_id    </text>
<text text-anchor="start" x="456.5414" y="-943.9" font-family="Arial" font-size="14.00" fill="#666666">[uuid]</text>
<polygon fill="none" stroke="#000000" points="329,-902.5 329,-932.5 743,-932.5 743,-902.5 329,-902.5"/>
<text text-anchor="start" x="336" y="-913.9" font-family="Arial" font-size="14.00" fill="#000000">work_position_id    </text>
<text text-anchor="start" x="474.4432" y="-913.9" font-family="Arial" font-size="14.00" fill="#666666">[uuid]</text>
</g>
<!-- public.m_permission_associations&#45;&gt;public.m_work_positions -->
<g id="edge1" class="edge">
<title>public.m_permission_associations:work_position_id&#45;&gt;public.m_work_positions:work_position_id</title>
<path fill="none" stroke="#000000" d="M752.7113,-914.8228C764.6037,-906.1055 754.4154,-878.0571 743,-860 706.4563,-802.1943 640.5437,-851.8057 604,-794 573.9572,-746.4777 547.7778,-667.5 604,-667.5"/>
<polygon fill="#000000" stroke="#000000" points="752.6404,-914.8423 741.804,-913.1618 747.8202,-916.1712 743,-917.5 743,-917.5 743,-917.5 747.8202,-916.1712 744.196,-921.8382 752.6404,-914.8423 752.6404,-914.8423"/>
<text text-anchor="start" x="750.3285" y="-927.5" font-family="Arial" font-size="10.00" fill="#000000">FOREIGN KEY (work_position_id) REFERENCES m_work_positions(work_position_id) ON UPDATE RESTRICT ON DELETE RESTRICT</text>
</g>
<!-- public.m_memberships -->
<g id="node3" class="node">
<title>public.m_memberships</title>
<polygon fill="#efefef" stroke="transparent" points="847,-1022.5 847,-1057.5 1173,-1057.5 1173,-1022.5 847,-1022.5"/>
<polygon fill="none" stroke="#000000" points="847,-1022.5 847,-1057.5 1173,-1057.5 1173,-1022.5 847,-1022.5"/>
<text text-anchor="start" x="853.7113" y="-1035.3" font-family="Arial Bold" font-size="18.00" fill="#000000">public.m_memberships</text>
<text text-anchor="start" x="1038.7207" y="-1035.3" font-family="Arial" font-size="14.00" fill="#000000">    </text>
<text text-anchor="start" x="1072.9255" y="-1035.3" font-family="Arial" font-size="14.00" fill="#666666">[BASE TABLE]</text>
<polygon fill="none" stroke="#000000" points="847,-992.5 847,-1022.5 1173,-1022.5 1173,-992.5 847,-992.5"/>
<text text-anchor="start" x="854" y="-1003.9" font-family="Arial" font-size="14.00" fill="#000000">m_memberships_pkey    </text>
<text text-anchor="start" x="1028.9972" y="-1003.9" font-family="Arial" font-size="14.00" fill="#666666">[bigint]</text>
<polygon fill="none" stroke="#000000" points="847,-962.5 847,-992.5 1173,-992.5 1173,-962.5 847,-962.5"/>
<text text-anchor="start" x="854" y="-973.9" font-family="Arial" font-size="14.00" fill="#000000">member_id    </text>
<text text-anchor="start" x="958.2062" y="-973.9" font-family="Arial" font-size="14.00" fill="#666666">[uuid]</text>
<polygon fill="none" stroke="#000000" points="847,-932.5 847,-962.5 1173,-962.5 1173,-932.5 847,-932.5"/>
<text text-anchor="start" x="854" y="-943.9" font-family="Arial" font-size="14.00" fill="#000000">organization_id    </text>
<text text-anchor="start" x="983.1192" y="-943.9" font-family="Arial" font-size="14.00" fill="#666666">[uuid]</text>
<polygon fill="none" stroke="#000000" points="847,-902.5 847,-932.5 1173,-932.5 1173,-902.5 847,-902.5"/>
<text text-anchor="start" x="854" y="-913.9" font-family="Arial" font-size="14.00" fill="#000000">work_position_id    </text>
<text text-anchor="start" x="992.4432" y="-913.9" font-family="Arial" font-size="14.00" fill="#666666">[uuid]</text>
<polygon fill="none" stroke="#000000" points="847,-872.5 847,-902.5 1173,-902.5 1173,-872.5 847,-872.5"/>
<text text-anchor="start" x="854" y="-883.9" font-family="Arial" font-size="14.00" fill="#000000">added_at    </text>
<text text-anchor="start" x="946.5736" y="-883.9" font-family="Arial" font-size="14.00" fill="#666666">[timestamp with time zone]</text>
</g>
<!-- public.m_memberships&#45;&gt;public.m_work_positions -->
<g id="edge2" class="edge">
<title>public.m_memberships:work_position_id&#45;&gt;public.m_work_positions:work_position_id</title>
<path fill="none" stroke="#000000" d="M836.8229,-915.8665C811.5872,-906.4764 827.1991,-858.7867 847,-830 872.3534,-793.141 915.6466,-830.859 941,-794 972.8625,-747.6781 997.2222,-667.5 941,-667.5"/>
<polygon fill="#000000" stroke="#000000" points="837.1264,-915.9151 846.2868,-921.9431 842.0632,-916.7075 847,-917.5 847,-917.5 847,-917.5 842.0632,-916.7075 847.7132,-913.0569 837.1264,-915.9151 837.1264,-915.9151"/>
<text text-anchor="start" x="853.5385" y="-901.5" font-family="Arial" font-size="10.00" fill="#000000">FOREIGN KEY (work_position_id) REFERENCES m_work_positions(work_position_id) ON UPDATE SET NULL ON DELETE SET NULL</text>
</g>
</g>
</svg>
