<?xml version="1.0" encoding="UTF-8" standalone="no"?>
<!DOCTYPE svg PUBLIC "-//W3C//DTD SVG 1.1//EN"
 "http://www.w3.org/Graphics/SVG/1.1/DTD/svg11.dtd">
<!-- Generated by graphviz version 2.40.1 (20161225.0304)
 -->
<!-- Title: public.t_late_arrivals Pages: 1 -->
<svg width="946pt" height="712pt"
 viewBox="0.00 0.00 945.50 712.00" xmlns="http://www.w3.org/2000/svg" xmlns:xlink="http://www.w3.org/1999/xlink">
<g id="graph0" class="graph" transform="scale(1 1) rotate(0) translate(4 708)">
<title>public.t_late_arrivals</title>
<polygon fill="#ffffff" stroke="transparent" points="-4,4 -4,-708 941.5,-708 941.5,4 -4,4"/>
<!-- public.t_late_arrivals -->
<g id="node1" class="node">
<title>public.t_late_arrivals</title>
<polygon fill="#efefef" stroke="transparent" points="46.5,-622.5 46.5,-657.5 351.5,-657.5 351.5,-622.5 46.5,-622.5"/>
<polygon fill="none" stroke="#000000" points="46.5,-622.5 46.5,-657.5 351.5,-657.5 351.5,-622.5 46.5,-622.5"/>
<text text-anchor="start" x="53.2071" y="-635.3" font-family="Arial Bold" font-size="18.00" fill="#000000">public.t_late_arrivals</text>
<text text-anchor="start" x="217.2249" y="-635.3" font-family="Arial" font-size="14.00" fill="#000000">    </text>
<text text-anchor="start" x="251.4297" y="-635.3" font-family="Arial" font-size="14.00" fill="#666666">[BASE TABLE]</text>
<polygon fill="none" stroke="#000000" points="46.5,-592.5 46.5,-622.5 351.5,-622.5 351.5,-592.5 46.5,-592.5"/>
<text text-anchor="start" x="53.5" y="-603.9" font-family="Arial" font-size="14.00" fill="#000000">t_late_arrivals_pkey </text>
<text text-anchor="start" x="181.8562" y="-603.9" font-family="Arial" font-size="14.00" fill="#666666">[bigint]</text>
<polygon fill="none" stroke="#000000" points="46.5,-562.5 46.5,-592.5 351.5,-592.5 351.5,-562.5 46.5,-562.5"/>
<text text-anchor="start" x="53.5" y="-573.9" font-family="Arial" font-size="14.00" fill="#000000">late_arrival_id </text>
<text text-anchor="start" x="144.507" y="-573.9" font-family="Arial" font-size="14.00" fill="#666666">[uuid]</text>
<polygon fill="none" stroke="#000000" points="46.5,-532.5 46.5,-562.5 351.5,-562.5 351.5,-532.5 46.5,-532.5"/>
<text text-anchor="start" x="53.5" y="-543.9" font-family="Arial" font-size="14.00" fill="#000000">attendance_id </text>
<text text-anchor="start" x="145.3218" y="-543.9" font-family="Arial" font-size="14.00" fill="#666666">[uuid]</text>
<polygon fill="none" stroke="#000000" points="46.5,-502.5 46.5,-532.5 351.5,-532.5 351.5,-502.5 46.5,-502.5"/>
<text text-anchor="start" x="53.5" y="-513.9" font-family="Arial" font-size="14.00" fill="#000000">arrive_time </text>
<text text-anchor="start" x="126.6066" y="-513.9" font-family="Arial" font-size="14.00" fill="#666666">[timestamp with time zone]</text>
<polygon fill="none" stroke="#000000" stroke-width="3" points="44.5,-501.5 44.5,-659.5 352.5,-659.5 352.5,-501.5 44.5,-501.5"/>
</g>
<!-- public.t_attendances -->
<g id="node2" class="node">
<title>public.t_attendances</title>
<polygon fill="#efefef" stroke="transparent" points="46.5,-342.5 46.5,-377.5 352.5,-377.5 352.5,-342.5 46.5,-342.5"/>
<polygon fill="none" stroke="#000000" points="46.5,-342.5 46.5,-377.5 352.5,-377.5 352.5,-342.5 46.5,-342.5"/>
<text text-anchor="start" x="53.1833" y="-355.3" font-family="Arial Bold" font-size="18.00" fill="#000000">public.t_attendances</text>
<text text-anchor="start" x="218.2487" y="-355.3" font-family="Arial" font-size="14.00" fill="#000000">    </text>
<text text-anchor="start" x="252.4535" y="-355.3" font-family="Arial" font-size="14.00" fill="#666666">[BASE TABLE]</text>
<polygon fill="none" stroke="#000000" points="46.5,-312.5 46.5,-342.5 352.5,-342.5 352.5,-312.5 46.5,-312.5"/>
<text text-anchor="start" x="53.5" y="-323.9" font-family="Arial" font-size="14.00" fill="#000000">t_attendances_pkey    </text>
<text text-anchor="start" x="212.9852" y="-323.9" font-family="Arial" font-size="14.00" fill="#666666">[bigint]</text>
<polygon fill="none" stroke="#000000" points="46.5,-282.5 46.5,-312.5 352.5,-312.5 352.5,-282.5 46.5,-282.5"/>
<text text-anchor="start" x="53.5" y="-293.9" font-family="Arial" font-size="14.00" fill="#000000">attendance_id    </text>
<text text-anchor="start" x="175.636" y="-293.9" font-family="Arial" font-size="14.00" fill="#666666">[uuid]</text>
<polygon fill="none" stroke="#000000" points="46.5,-252.5 46.5,-282.5 352.5,-282.5 352.5,-252.5 46.5,-252.5"/>
<text text-anchor="start" x="53.5" y="-263.9" font-family="Arial" font-size="14.00" fill="#000000">attendance_type_id    </text>
<text text-anchor="start" x="209.8744" y="-263.9" font-family="Arial" font-size="14.00" fill="#666666">[uuid]</text>
<polygon fill="none" stroke="#000000" points="46.5,-222.5 46.5,-252.5 352.5,-252.5 352.5,-222.5 46.5,-222.5"/>
<text text-anchor="start" x="53.5" y="-233.9" font-family="Arial" font-size="14.00" fill="#000000">member_id    </text>
<text text-anchor="start" x="157.7062" y="-233.9" font-family="Arial" font-size="14.00" fill="#666666">[uuid]</text>
<polygon fill="none" stroke="#000000" points="46.5,-192.5 46.5,-222.5 352.5,-222.5 352.5,-192.5 46.5,-192.5"/>
<text text-anchor="start" x="53.5" y="-203.9" font-family="Arial" font-size="14.00" fill="#000000">description    </text>
<text text-anchor="start" x="155.3822" y="-203.9" font-family="Arial" font-size="14.00" fill="#666666">[text]</text>
<polygon fill="none" stroke="#000000" points="46.5,-162.5 46.5,-192.5 352.5,-192.5 352.5,-162.5 46.5,-162.5"/>
<text text-anchor="start" x="53.5" y="-173.9" font-family="Arial" font-size="14.00" fill="#000000">date    </text>
<text text-anchor="start" x="114.9432" y="-173.9" font-family="Arial" font-size="14.00" fill="#666666">[date]</text>
<polygon fill="none" stroke="#000000" points="46.5,-132.5 46.5,-162.5 352.5,-162.5 352.5,-132.5 46.5,-132.5"/>
<text text-anchor="start" x="53.5" y="-143.9" font-family="Arial" font-size="14.00" fill="#000000">mail_send_flag    </text>
<text text-anchor="start" x="181.8366" y="-143.9" font-family="Arial" font-size="14.00" fill="#666666">[boolean]</text>
<polygon fill="none" stroke="#000000" points="46.5,-102.5 46.5,-132.5 352.5,-132.5 352.5,-102.5 46.5,-102.5"/>
<text text-anchor="start" x="53.5" y="-113.9" font-family="Arial" font-size="14.00" fill="#000000">send_organization_id    </text>
<text text-anchor="start" x="220.7496" y="-113.9" font-family="Arial" font-size="14.00" fill="#666666">[uuid]</text>
<polygon fill="none" stroke="#000000" points="46.5,-72.5 46.5,-102.5 352.5,-102.5 352.5,-72.5 46.5,-72.5"/>
<text text-anchor="start" x="53.5" y="-83.9" font-family="Arial" font-size="14.00" fill="#000000">posted_at    </text>
<text text-anchor="start" x="149.1816" y="-83.9" font-family="Arial" font-size="14.00" fill="#666666">[timestamp with time zone]</text>
<polygon fill="none" stroke="#000000" points="46.5,-42.5 46.5,-72.5 352.5,-72.5 352.5,-42.5 46.5,-42.5"/>
<text text-anchor="start" x="53.5" y="-53.9" font-family="Arial" font-size="14.00" fill="#000000">last_edited_at    </text>
<text text-anchor="start" x="174.8506" y="-53.9" font-family="Arial" font-size="14.00" fill="#666666">[timestamp with time zone]</text>
</g>
<!-- public.t_late_arrivals&#45;&gt;public.t_attendances -->
<g id="edge1" class="edge">
<title>public.t_late_arrivals:attendance_id&#45;&gt;public.t_attendances:attendance_id</title>
<path fill="none" stroke="#000000" d="M361.4294,-545.9813C389.0748,-536.4349 375.7173,-484.2438 351.5,-457 260.8155,-354.9822 137.1845,-523.0178 46.5,-421 10.0333,-379.9759 -8.3889,-297.5 46.5,-297.5"/>
<polygon fill="#000000" stroke="#000000" points="361.385,-545.9879 350.8196,-543.0517 356.4425,-546.744 351.5,-547.5 351.5,-547.5 351.5,-547.5 356.4425,-546.744 352.1804,-551.9483 361.385,-545.9879 361.385,-545.9879"/>
<text text-anchor="start" x="358.0755" y="-557.5" font-family="Arial" font-size="10.00" fill="#000000">FOREIGN KEY (attendance_id) REFERENCES t_attendances(attendance_id) ON UPDATE RESTRICT ON DELETE RESTRICT</text>
</g>
</g>
</svg>
