<?xml version="1.0" encoding="UTF-8" standalone="no"?>
<!DOCTYPE svg PUBLIC "-//W3C//DTD SVG 1.1//EN"
 "http://www.w3.org/Graphics/SVG/1.1/DTD/svg11.dtd">
<!-- Generated by graphviz version 2.40.1 (20161225.0304)
 -->
<!-- Title: public.t_events Pages: 1 -->
<svg width="1472pt" height="1192pt"
 viewBox="0.00 0.00 1472.00 1192.00" xmlns="http://www.w3.org/2000/svg" xmlns:xlink="http://www.w3.org/1999/xlink">
<g id="graph0" class="graph" transform="scale(1 1) rotate(0) translate(4 1188)">
<title>public.t_events</title>
<polygon fill="#ffffff" stroke="transparent" points="-4,4 -4,-1188 1468,-1188 1468,4 -4,4"/>
<!-- public.t_events -->
<g id="node1" class="node">
<title>public.t_events</title>
<polygon fill="#efefef" stroke="transparent" points="630,-1102.5 630,-1137.5 900,-1137.5 900,-1102.5 630,-1102.5"/>
<polygon fill="none" stroke="#000000" points="630,-1102.5 630,-1137.5 900,-1137.5 900,-1102.5 630,-1102.5"/>
<text text-anchor="start" x="641.1968" y="-1115.3" font-family="Arial Bold" font-size="18.00" fill="#000000">public.t_events</text>
<text text-anchor="start" x="761.2352" y="-1115.3" font-family="Arial" font-size="14.00" fill="#000000">    </text>
<text text-anchor="start" x="795.44" y="-1115.3" font-family="Arial" font-size="14.00" fill="#666666">[BASE TABLE]</text>
<polygon fill="none" stroke="#000000" points="630,-1072.5 630,-1102.5 900,-1102.5 900,-1072.5 630,-1072.5"/>
<text text-anchor="start" x="637" y="-1083.9" font-family="Arial" font-size="14.00" fill="#000000">t_events_pkey </text>
<text text-anchor="start" x="731.15" y="-1083.9" font-family="Arial" font-size="14.00" fill="#666666">[bigint]</text>
<polygon fill="none" stroke="#000000" points="630,-1042.5 630,-1072.5 900,-1072.5 900,-1042.5 630,-1042.5"/>
<text text-anchor="start" x="637" y="-1053.9" font-family="Arial" font-size="14.00" fill="#000000">event_id </text>
<text text-anchor="start" x="693.8008" y="-1053.9" font-family="Arial" font-size="14.00" fill="#666666">[uuid]</text>
<polygon fill="none" stroke="#000000" points="630,-1012.5 630,-1042.5 900,-1042.5 900,-1012.5 630,-1012.5"/>
<text text-anchor="start" x="637" y="-1023.9" font-family="Arial" font-size="14.00" fill="#000000">event_type_id </text>
<text text-anchor="start" x="728.0392" y="-1023.9" font-family="Arial" font-size="14.00" fill="#666666">[uuid]</text>
<polygon fill="none" stroke="#000000" points="630,-982.5 630,-1012.5 900,-1012.5 900,-982.5 630,-982.5"/>
<text text-anchor="start" x="637" y="-993.9" font-family="Arial" font-size="14.00" fill="#000000">title </text>
<text text-anchor="start" x="662.6676" y="-993.9" font-family="Arial" font-size="14.00" fill="#666666">[varchar(255)]</text>
<polygon fill="none" stroke="#000000" points="630,-952.5 630,-982.5 900,-982.5 900,-952.5 630,-952.5"/>
<text text-anchor="start" x="637" y="-963.9" font-family="Arial" font-size="14.00" fill="#000000">description </text>
<text text-anchor="start" x="708.568" y="-963.9" font-family="Arial" font-size="14.00" fill="#666666">[text]</text>
<polygon fill="none" stroke="#000000" points="630,-922.5 630,-952.5 900,-952.5 900,-922.5 630,-922.5"/>
<text text-anchor="start" x="637" y="-933.9" font-family="Arial" font-size="14.00" fill="#000000">organization_id </text>
<text text-anchor="start" x="735.805" y="-933.9" font-family="Arial" font-size="14.00" fill="#666666">[uuid]</text>
<polygon fill="none" stroke="#000000" points="630,-892.5 630,-922.5 900,-922.5 900,-892.5 630,-892.5"/>
<text text-anchor="start" x="637" y="-903.9" font-family="Arial" font-size="14.00" fill="#000000">start_time </text>
<text text-anchor="start" x="702.338" y="-903.9" font-family="Arial" font-size="14.00" fill="#666666">[timestamp with time zone]</text>
<polygon fill="none" stroke="#000000" points="630,-862.5 630,-892.5 900,-892.5 900,-862.5 630,-862.5"/>
<text text-anchor="start" x="637" y="-873.9" font-family="Arial" font-size="14.00" fill="#000000">end_time </text>
<text text-anchor="start" x="698.4614" y="-873.9" font-family="Arial" font-size="14.00" fill="#666666">[timestamp with time zone]</text>
<polygon fill="none" stroke="#000000" points="630,-832.5 630,-862.5 900,-862.5 900,-832.5 630,-832.5"/>
<text text-anchor="start" x="637" y="-843.9" font-family="Arial" font-size="14.00" fill="#000000">mail_send_flag </text>
<text text-anchor="start" x="735.0224" y="-843.9" font-family="Arial" font-size="14.00" fill="#666666">[boolean]</text>
<polygon fill="none" stroke="#000000" points="630,-802.5 630,-832.5 900,-832.5 900,-802.5 630,-802.5"/>
<text text-anchor="start" x="637" y="-813.9" font-family="Arial" font-size="14.00" fill="#000000">send_organization_id </text>
<text text-anchor="start" x="773.9354" y="-813.9" font-family="Arial" font-size="14.00" fill="#666666">[uuid]</text>
<polygon fill="none" stroke="#000000" points="630,-772.5 630,-802.5 900,-802.5 900,-772.5 630,-772.5"/>
<text text-anchor="start" x="637" y="-783.9" font-family="Arial" font-size="14.00" fill="#000000">posted_by </text>
<text text-anchor="start" x="705.4768" y="-783.9" font-family="Arial" font-size="14.00" fill="#666666">[uuid]</text>
<polygon fill="none" stroke="#000000" points="630,-742.5 630,-772.5 900,-772.5 900,-742.5 630,-742.5"/>
<text text-anchor="start" x="637" y="-753.9" font-family="Arial" font-size="14.00" fill="#000000">last_edited_by </text>
<text text-anchor="start" x="731.1458" y="-753.9" font-family="Arial" font-size="14.00" fill="#666666">[uuid]</text>
<polygon fill="none" stroke="#000000" points="630,-712.5 630,-742.5 900,-742.5 900,-712.5 630,-712.5"/>
<text text-anchor="start" x="637" y="-723.9" font-family="Arial" font-size="14.00" fill="#000000">posted_at </text>
<text text-anchor="start" x="702.3674" y="-723.9" font-family="Arial" font-size="14.00" fill="#666666">[timestamp with time zone]</text>
<polygon fill="none" stroke="#000000" points="630,-682.5 630,-712.5 900,-712.5 900,-682.5 630,-682.5"/>
<text text-anchor="start" x="636.6396" y="-693.9" font-family="Arial" font-size="14.00" fill="#000000">last_edited_at </text>
<text text-anchor="start" x="727.676" y="-693.9" font-family="Arial" font-size="14.00" fill="#666666">[timestamp with time zone]</text>
<polygon fill="none" stroke="#000000" stroke-width="3" points="628.5,-681.5 628.5,-1139.5 901.5,-1139.5 901.5,-681.5 628.5,-681.5"/>
</g>
<!-- public.m_event_types -->
<g id="node2" class="node">
<title>public.m_event_types</title>
<polygon fill="#efefef" stroke="transparent" points="183,-357.5 183,-392.5 498,-392.5 498,-357.5 183,-357.5"/>
<polygon fill="none" stroke="#000000" points="183,-357.5 183,-392.5 498,-392.5 498,-357.5 183,-357.5"/>
<text text-anchor="start" x="189.6914" y="-370.3" font-family="Arial Bold" font-size="18.00" fill="#000000">public.m_event_types</text>
<text text-anchor="start" x="363.7406" y="-370.3" font-family="Arial" font-size="14.00" fill="#000000">    </text>
<text text-anchor="start" x="397.9454" y="-370.3" font-family="Arial" font-size="14.00" fill="#666666">[BASE TABLE]</text>
<polygon fill="none" stroke="#000000" points="183,-327.5 183,-357.5 498,-357.5 498,-327.5 183,-327.5"/>
<text text-anchor="start" x="190" y="-338.9" font-family="Arial" font-size="14.00" fill="#000000">m_event_types_pkey    </text>
<text text-anchor="start" x="356.4726" y="-338.9" font-family="Arial" font-size="14.00" fill="#666666">[bigint]</text>
<polygon fill="none" stroke="#000000" points="183,-297.5 183,-327.5 498,-327.5 498,-297.5 183,-297.5"/>
<text text-anchor="start" x="190" y="-308.9" font-family="Arial" font-size="14.00" fill="#000000">event_type_id    </text>
<text text-anchor="start" x="311.3534" y="-308.9" font-family="Arial" font-size="14.00" fill="#666666">[uuid]</text>
<polygon fill="none" stroke="#000000" points="183,-267.5 183,-297.5 498,-297.5 498,-267.5 183,-267.5"/>
<text text-anchor="start" x="190" y="-278.9" font-family="Arial" font-size="14.00" fill="#000000">name    </text>
<text text-anchor="start" x="259.2132" y="-278.9" font-family="Arial" font-size="14.00" fill="#666666">[varchar(255)]</text>
<polygon fill="none" stroke="#000000" points="183,-237.5 183,-267.5 498,-267.5 498,-237.5 183,-237.5"/>
<text text-anchor="start" x="190" y="-248.9" font-family="Arial" font-size="14.00" fill="#000000">key    </text>
<text text-anchor="start" x="245.9874" y="-248.9" font-family="Arial" font-size="14.00" fill="#666666">[varchar(255)]</text>
<polygon fill="none" stroke="#000000" points="183,-207.5 183,-237.5 498,-237.5 498,-207.5 183,-207.5"/>
<text text-anchor="start" x="190" y="-218.9" font-family="Arial" font-size="14.00" fill="#000000">color    </text>
<text text-anchor="start" x="254.5372" y="-218.9" font-family="Arial" font-size="14.00" fill="#666666">[varchar(15)]</text>
</g>
<!-- public.t_events&#45;&gt;public.m_event_types -->
<g id="edge1" class="edge">
<title>public.t_events:event_type_id&#45;&gt;public.m_event_types:event_type_id</title>
<path fill="none" stroke="#000000" d="M619.8721,-1027.2699C442.299,-1018.962 583.1657,-787.3519 549,-601 537.2593,-536.9622 563.1051,-312.5 498,-312.5"/>
<polygon fill="#000000" stroke="#000000" points="620.0026,-1027.2727 629.8977,-1031.9988 625.0013,-1027.3864 630,-1027.5 630,-1027.5 630,-1027.5 625.0013,-1027.3864 630.1023,-1023.0012 620.0026,-1027.2727 620.0026,-1027.2727"/>
<text text-anchor="start" x="46.639" y="-1037.5" font-family="Arial" font-size="10.00" fill="#000000">FOREIGN KEY (event_type_id) REFERENCES m_event_types(event_type_id) ON UPDATE RESTRICT ON DELETE RESTRICT</text>
</g>
<!-- public.m_organizations -->
<g id="node3" class="node">
<title>public.m_organizations</title>
<polygon fill="#efefef" stroke="transparent" points="602,-432.5 602,-467.5 927,-467.5 927,-432.5 602,-432.5"/>
<polygon fill="none" stroke="#000000" points="602,-432.5 602,-467.5 927,-467.5 927,-432.5 602,-432.5"/>
<text text-anchor="start" x="608.6991" y="-445.3" font-family="Arial Bold" font-size="18.00" fill="#000000">public.m_organizations</text>
<text text-anchor="start" x="792.7329" y="-445.3" font-family="Arial" font-size="14.00" fill="#000000">    </text>
<text text-anchor="start" x="826.9377" y="-445.3" font-family="Arial" font-size="14.00" fill="#666666">[BASE TABLE]</text>
<polygon fill="none" stroke="#000000" points="602,-402.5 602,-432.5 927,-432.5 927,-402.5 602,-402.5"/>
<text text-anchor="start" x="609" y="-413.9" font-family="Arial" font-size="14.00" fill="#000000">m_organizations_pkey    </text>
<text text-anchor="start" x="783.2384" y="-413.9" font-family="Arial" font-size="14.00" fill="#666666">[bigint]</text>
<polygon fill="none" stroke="#000000" points="602,-372.5 602,-402.5 927,-402.5 927,-372.5 602,-372.5"/>
<text text-anchor="start" x="609" y="-383.9" font-family="Arial" font-size="14.00" fill="#000000">organization_id    </text>
<text text-anchor="start" x="738.1192" y="-383.9" font-family="Arial" font-size="14.00" fill="#666666">[uuid]</text>
<polygon fill="none" stroke="#000000" points="602,-342.5 602,-372.5 927,-372.5 927,-342.5 602,-342.5"/>
<text text-anchor="start" x="609" y="-353.9" font-family="Arial" font-size="14.00" fill="#000000">name    </text>
<text text-anchor="start" x="678.2132" y="-353.9" font-family="Arial" font-size="14.00" fill="#666666">[varchar(255)]</text>
<polygon fill="none" stroke="#000000" points="602,-312.5 602,-342.5 927,-342.5 927,-312.5 602,-312.5"/>
<text text-anchor="start" x="609" y="-323.9" font-family="Arial" font-size="14.00" fill="#000000">description    </text>
<text text-anchor="start" x="710.8822" y="-323.9" font-family="Arial" font-size="14.00" fill="#666666">[text]</text>
<polygon fill="none" stroke="#000000" points="602,-282.5 602,-312.5 927,-312.5 927,-282.5 602,-282.5"/>
<text text-anchor="start" x="609" y="-293.9" font-family="Arial" font-size="14.00" fill="#000000">color    </text>
<text text-anchor="start" x="673.5372" y="-293.9" font-family="Arial" font-size="14.00" fill="#666666">[varchar(7)]</text>
<polygon fill="none" stroke="#000000" points="602,-252.5 602,-282.5 927,-282.5 927,-252.5 602,-252.5"/>
<text text-anchor="start" x="609" y="-263.9" font-family="Arial" font-size="14.00" fill="#000000">is_personal    </text>
<text text-anchor="start" x="714.7742" y="-263.9" font-family="Arial" font-size="14.00" fill="#666666">[boolean]</text>
<polygon fill="none" stroke="#000000" points="602,-222.5 602,-252.5 927,-252.5 927,-222.5 602,-222.5"/>
<text text-anchor="start" x="609" y="-233.9" font-family="Arial" font-size="14.00" fill="#000000">is_whole    </text>
<text text-anchor="start" x="697.655" y="-233.9" font-family="Arial" font-size="14.00" fill="#666666">[boolean]</text>
<polygon fill="none" stroke="#000000" points="602,-192.5 602,-222.5 927,-222.5 927,-192.5 602,-192.5"/>
<text text-anchor="start" x="609" y="-203.9" font-family="Arial" font-size="14.00" fill="#000000">created_at    </text>
<text text-anchor="start" x="709.3422" y="-203.9" font-family="Arial" font-size="14.00" fill="#666666">[timestamp with time zone]</text>
<polygon fill="none" stroke="#000000" points="602,-162.5 602,-192.5 927,-192.5 927,-162.5 602,-162.5"/>
<text text-anchor="start" x="609" y="-173.9" font-family="Arial" font-size="14.00" fill="#000000">updated_at    </text>
<text text-anchor="start" x="713.2468" y="-173.9" font-family="Arial" font-size="14.00" fill="#666666">[timestamp with time zone]</text>
<polygon fill="none" stroke="#000000" points="602,-132.5 602,-162.5 927,-162.5 927,-132.5 602,-132.5"/>
<text text-anchor="start" x="609" y="-143.9" font-family="Arial" font-size="14.00" fill="#000000">chat_room_id    </text>
<text text-anchor="start" x="728.0014" y="-143.9" font-family="Arial" font-size="14.00" fill="#666666">[uuid]</text>
</g>
<!-- public.t_events&#45;&gt;public.m_organizations -->
<g id="edge2" class="edge">
<title>public.t_events:organization_id&#45;&gt;public.m_organizations:organization_id</title>
<path fill="none" stroke="#000000" d="M619.8356,-937.1104C499.6092,-927.58 558.2187,-745.4265 630,-637 709.1527,-517.4389 847.8473,-630.5611 927,-511 957.2997,-465.2319 981.8889,-387.5 927,-387.5"/>
<polygon fill="#000000" stroke="#000000" points="620.0073,-937.1169 629.8276,-941.9967 625.0037,-937.3085 630,-937.5 630,-937.5 630,-937.5 625.0037,-937.3085 630.1724,-933.0033 620.0073,-937.1169 620.0073,-937.1169"/>
<text text-anchor="start" x="34.5285" y="-947.5" font-family="Arial" font-size="10.00" fill="#000000">FOREIGN KEY (organization_id) REFERENCES m_organizations(organization_id) ON UPDATE SET NULL ON DELETE SET NULL</text>
</g>
<!-- public.t_events&#45;&gt;public.m_organizations -->
<g id="edge3" class="edge">
<title>public.t_events:send_organization_id&#45;&gt;public.m_organizations:organization_id</title>
<path fill="none" stroke="#000000" d="M619.8823,-816.8268C553.0234,-807.3873 587.7051,-700.8869 630,-637 709.1527,-517.4389 847.8473,-630.5611 927,-511 957.2997,-465.2319 981.8889,-387.5 927,-387.5"/>
<polygon fill="#000000" stroke="#000000" points="620.0221,-816.836 629.7012,-821.9901 625.011,-817.168 630,-817.5 630,-817.5 630,-817.5 625.011,-817.168 630.2988,-813.0099 620.0221,-816.836 620.0221,-816.836"/>
<text text-anchor="start" x="6.9105" y="-827.5" font-family="Arial" font-size="10.00" fill="#000000">FOREIGN KEY (send_organization_id) REFERENCES m_organizations(organization_id) ON UPDATE SET NULL ON DELETE SET NULL</text>
</g>
<!-- public.m_members -->
<g id="node4" class="node">
<title>public.m_members</title>
<polygon fill="#efefef" stroke="transparent" points="1031,-522.5 1031,-557.5 1324,-557.5 1324,-522.5 1031,-522.5"/>
<polygon fill="none" stroke="#000000" points="1031,-522.5 1031,-557.5 1324,-557.5 1324,-522.5 1031,-522.5"/>
<text text-anchor="start" x="1037.7146" y="-535.3" font-family="Arial Bold" font-size="18.00" fill="#000000">public.m_members</text>
<text text-anchor="start" x="1189.7174" y="-535.3" font-family="Arial" font-size="14.00" fill="#000000">    </text>
<text text-anchor="start" x="1223.9222" y="-535.3" font-family="Arial" font-size="14.00" fill="#666666">[BASE TABLE]</text>
<polygon fill="none" stroke="#000000" points="1031,-492.5 1031,-522.5 1324,-522.5 1324,-492.5 1031,-492.5"/>
<text text-anchor="start" x="1038" y="-503.9" font-family="Arial" font-size="14.00" fill="#000000">m_members_pkey    </text>
<text text-anchor="start" x="1187.3254" y="-503.9" font-family="Arial" font-size="14.00" fill="#666666">[bigint]</text>
<polygon fill="none" stroke="#000000" points="1031,-462.5 1031,-492.5 1324,-492.5 1324,-462.5 1031,-462.5"/>
<text text-anchor="start" x="1038" y="-473.9" font-family="Arial" font-size="14.00" fill="#000000">member_id    </text>
<text text-anchor="start" x="1142.2062" y="-473.9" font-family="Arial" font-size="14.00" fill="#666666">[uuid]</text>
<polygon fill="none" stroke="#000000" points="1031,-432.5 1031,-462.5 1324,-462.5 1324,-432.5 1031,-432.5"/>
<text text-anchor="start" x="1038" y="-443.9" font-family="Arial" font-size="14.00" fill="#000000">login_id    </text>
<text text-anchor="start" x="1120.4376" y="-443.9" font-family="Arial" font-size="14.00" fill="#666666">[varchar(255)]</text>
<polygon fill="none" stroke="#000000" points="1031,-402.5 1031,-432.5 1324,-432.5 1324,-402.5 1031,-402.5"/>
<text text-anchor="start" x="1038" y="-413.9" font-family="Arial" font-size="14.00" fill="#000000">password    </text>
<text text-anchor="start" x="1132.1024" y="-413.9" font-family="Arial" font-size="14.00" fill="#666666">[varchar(255)]</text>
<polygon fill="none" stroke="#000000" points="1031,-372.5 1031,-402.5 1324,-402.5 1324,-372.5 1031,-372.5"/>
<text text-anchor="start" x="1038" y="-383.9" font-family="Arial" font-size="14.00" fill="#000000">email    </text>
<text text-anchor="start" x="1105.6438" y="-383.9" font-family="Arial" font-size="14.00" fill="#666666">[varchar(255)]</text>
<polygon fill="none" stroke="#000000" points="1031,-342.5 1031,-372.5 1324,-372.5 1324,-342.5 1031,-342.5"/>
<text text-anchor="start" x="1038" y="-353.9" font-family="Arial" font-size="14.00" fill="#000000">name    </text>
<text text-anchor="start" x="1107.2132" y="-353.9" font-family="Arial" font-size="14.00" fill="#666666">[varchar(255)]</text>
<polygon fill="none" stroke="#000000" points="1031,-312.5 1031,-342.5 1324,-342.5 1324,-312.5 1031,-312.5"/>
<text text-anchor="start" x="1038" y="-323.9" font-family="Arial" font-size="14.00" fill="#000000">first_name    </text>
<text text-anchor="start" x="1137.5442" y="-323.9" font-family="Arial" font-size="14.00" fill="#666666">[varchar(255)]</text>
<polygon fill="none" stroke="#000000" points="1031,-282.5 1031,-312.5 1324,-312.5 1324,-282.5 1031,-282.5"/>
<text text-anchor="start" x="1038" y="-293.9" font-family="Arial" font-size="14.00" fill="#000000">last_name    </text>
<text text-anchor="start" x="1136.7756" y="-293.9" font-family="Arial" font-size="14.00" fill="#666666">[varchar(255)]</text>
<polygon fill="none" stroke="#000000" points="1031,-252.5 1031,-282.5 1324,-282.5 1324,-252.5 1031,-252.5"/>
<text text-anchor="start" x="1038" y="-263.9" font-family="Arial" font-size="14.00" fill="#000000">attend_status_id    </text>
<text text-anchor="start" x="1174.9172" y="-263.9" font-family="Arial" font-size="14.00" fill="#666666">[uuid]</text>
<polygon fill="none" stroke="#000000" points="1031,-222.5 1031,-252.5 1324,-252.5 1324,-222.5 1031,-222.5"/>
<text text-anchor="start" x="1038" y="-233.9" font-family="Arial" font-size="14.00" fill="#000000">profile_image_id    </text>
<text text-anchor="start" x="1174.8864" y="-233.9" font-family="Arial" font-size="14.00" fill="#666666">[uuid]</text>
<polygon fill="none" stroke="#000000" points="1031,-192.5 1031,-222.5 1324,-222.5 1324,-192.5 1031,-192.5"/>
<text text-anchor="start" x="1038" y="-203.9" font-family="Arial" font-size="14.00" fill="#000000">grade_id    </text>
<text text-anchor="start" x="1126.6676" y="-203.9" font-family="Arial" font-size="14.00" fill="#666666">[uuid]</text>
<polygon fill="none" stroke="#000000" points="1031,-162.5 1031,-192.5 1324,-192.5 1324,-162.5 1031,-162.5"/>
<text text-anchor="start" x="1038" y="-173.9" font-family="Arial" font-size="14.00" fill="#000000">group_id    </text>
<text text-anchor="start" x="1126.6676" y="-173.9" font-family="Arial" font-size="14.00" fill="#666666">[uuid]</text>
<polygon fill="none" stroke="#000000" points="1031,-132.5 1031,-162.5 1324,-162.5 1324,-132.5 1031,-132.5"/>
<text text-anchor="start" x="1038" y="-143.9" font-family="Arial" font-size="14.00" fill="#000000">personal_organization_id    </text>
<text text-anchor="start" x="1228.582" y="-143.9" font-family="Arial" font-size="14.00" fill="#666666">[uuid]</text>
<polygon fill="none" stroke="#000000" points="1031,-102.5 1031,-132.5 1324,-132.5 1324,-102.5 1031,-102.5"/>
<text text-anchor="start" x="1038" y="-113.9" font-family="Arial" font-size="14.00" fill="#000000">role_id    </text>
<text text-anchor="start" x="1114.209" y="-113.9" font-family="Arial" font-size="14.00" fill="#666666">[uuid]</text>
<polygon fill="none" stroke="#000000" points="1031,-72.5 1031,-102.5 1324,-102.5 1324,-72.5 1031,-72.5"/>
<text text-anchor="start" x="1038" y="-83.9" font-family="Arial" font-size="14.00" fill="#000000">created_at    </text>
<text text-anchor="start" x="1138.3422" y="-83.9" font-family="Arial" font-size="14.00" fill="#666666">[timestamp with time zone]</text>
<polygon fill="none" stroke="#000000" points="1031,-42.5 1031,-72.5 1324,-72.5 1324,-42.5 1031,-42.5"/>
<text text-anchor="start" x="1038" y="-53.9" font-family="Arial" font-size="14.00" fill="#000000">updated_at    </text>
<text text-anchor="start" x="1142.2468" y="-53.9" font-family="Arial" font-size="14.00" fill="#666666">[timestamp with time zone]</text>
</g>
<!-- public.t_events&#45;&gt;public.m_members -->
<g id="edge4" class="edge">
<title>public.t_events:posted_by&#45;&gt;public.m_members:member_id</title>
<path fill="none" stroke="#000000" d="M910.4048,-786.9859C986.3783,-779.0385 945.4147,-680.5254 979,-601 1002.1703,-546.1361 971.444,-477.5 1031,-477.5"/>
<polygon fill="#000000" stroke="#000000" points="909.9878,-787.0064 899.7779,-783.0055 904.9939,-787.2532 900,-787.5 900,-787.5 900,-787.5 904.9939,-787.2532 900.2221,-791.9945 909.9878,-787.0064 909.9878,-787.0064"/>
<text text-anchor="start" x="907.155" y="-797.5" font-family="Arial" font-size="10.00" fill="#000000">FOREIGN KEY (posted_by) REFERENCES m_members(member_id) ON UPDATE SET NULL ON DELETE SET NULL</text>
</g>
<!-- public.t_events&#45;&gt;public.m_members -->
<g id="edge5" class="edge">
<title>public.t_events:last_edited_by&#45;&gt;public.m_members:member_id</title>
<path fill="none" stroke="#000000" d="M910.2528,-756.945C975.0932,-749.4916 947.8397,-668.4093 979,-601 1003.9893,-546.9403 971.444,-477.5 1031,-477.5"/>
<polygon fill="#000000" stroke="#000000" points="909.9854,-756.9594 899.7567,-753.0066 904.9927,-757.2297 900,-757.5 900,-757.5 900,-757.5 904.9927,-757.2297 900.2433,-761.9934 909.9854,-756.9594 909.9854,-756.9594"/>
<text text-anchor="start" x="906.9875" y="-767.5" font-family="Arial" font-size="10.00" fill="#000000">FOREIGN KEY (last_edited_by) REFERENCES m_members(member_id) ON UPDATE SET NULL ON DELETE SET NULL</text>
</g>
</g>
</svg>
