<?xml version="1.0" encoding="UTF-8" standalone="no"?>
<!DOCTYPE svg PUBLIC "-//W3C//DTD SVG 1.1//EN"
 "http://www.w3.org/Graphics/SVG/1.1/DTD/svg11.dtd">
<!-- Generated by graphviz version 2.40.1 (20161225.0304)
 -->
<!-- Title: public.m_organizations Pages: 1 -->
<svg width="3285pt" height="1439pt"
 viewBox="0.00 0.00 3285.00 1439.00" xmlns="http://www.w3.org/2000/svg" xmlns:xlink="http://www.w3.org/1999/xlink">
<g id="graph0" class="graph" transform="scale(1 1) rotate(0) translate(4 1435)">
<title>public.m_organizations</title>
<polygon fill="#ffffff" stroke="transparent" points="-4,4 -4,-1435 3281,-1435 3281,4 -4,4"/>
<!-- public.m_organizations -->
<g id="node1" class="node">
<title>public.m_organizations</title>
<polygon fill="#efefef" stroke="transparent" points="1646,-772.5 1646,-807.5 1971,-807.5 1971,-772.5 1646,-772.5"/>
<polygon fill="none" stroke="#000000" points="1646,-772.5 1646,-807.5 1971,-807.5 1971,-772.5 1646,-772.5"/>
<text text-anchor="start" x="1652.6991" y="-785.3" font-family="Arial Bold" font-size="18.00" fill="#000000">public.m_organizations</text>
<text text-anchor="start" x="1836.7329" y="-785.3" font-family="Arial" font-size="14.00" fill="#000000">    </text>
<text text-anchor="start" x="1870.9377" y="-785.3" font-family="Arial" font-size="14.00" fill="#666666">[BASE TABLE]</text>
<polygon fill="none" stroke="#000000" points="1646,-742.5 1646,-772.5 1971,-772.5 1971,-742.5 1646,-742.5"/>
<text text-anchor="start" x="1653" y="-753.9" font-family="Arial" font-size="14.00" fill="#000000">m_organizations_pkey </text>
<text text-anchor="start" x="1796.9242" y="-753.9" font-family="Arial" font-size="14.00" fill="#666666">[bigint]</text>
<polygon fill="none" stroke="#000000" points="1646,-712.5 1646,-742.5 1971,-742.5 1971,-712.5 1646,-712.5"/>
<text text-anchor="start" x="1653" y="-723.9" font-family="Arial" font-size="14.00" fill="#000000">organization_id </text>
<text text-anchor="start" x="1751.805" y="-723.9" font-family="Arial" font-size="14.00" fill="#666666">[uuid]</text>
<polygon fill="none" stroke="#000000" points="1646,-682.5 1646,-712.5 1971,-712.5 1971,-682.5 1646,-682.5"/>
<text text-anchor="start" x="1653" y="-693.9" font-family="Arial" font-size="14.00" fill="#000000">name </text>
<text text-anchor="start" x="1691.899" y="-693.9" font-family="Arial" font-size="14.00" fill="#666666">[varchar(255)]</text>
<polygon fill="none" stroke="#000000" points="1646,-652.5 1646,-682.5 1971,-682.5 1971,-652.5 1646,-652.5"/>
<text text-anchor="start" x="1653" y="-663.9" font-family="Arial" font-size="14.00" fill="#000000">description </text>
<text text-anchor="start" x="1724.568" y="-663.9" font-family="Arial" font-size="14.00" fill="#666666">[text]</text>
<polygon fill="none" stroke="#000000" points="1646,-622.5 1646,-652.5 1971,-652.5 1971,-622.5 1646,-622.5"/>
<text text-anchor="start" x="1653" y="-633.9" font-family="Arial" font-size="14.00" fill="#000000">color </text>
<text text-anchor="start" x="1687.223" y="-633.9" font-family="Arial" font-size="14.00" fill="#666666">[varchar(7)]</text>
<polygon fill="none" stroke="#000000" points="1646,-592.5 1646,-622.5 1971,-622.5 1971,-592.5 1646,-592.5"/>
<text text-anchor="start" x="1653" y="-603.9" font-family="Arial" font-size="14.00" fill="#000000">is_personal </text>
<text text-anchor="start" x="1728.46" y="-603.9" font-family="Arial" font-size="14.00" fill="#666666">[boolean]</text>
<polygon fill="none" stroke="#000000" points="1646,-562.5 1646,-592.5 1971,-592.5 1971,-562.5 1646,-562.5"/>
<text text-anchor="start" x="1653" y="-573.9" font-family="Arial" font-size="14.00" fill="#000000">is_whole </text>
<text text-anchor="start" x="1711.3408" y="-573.9" font-family="Arial" font-size="14.00" fill="#666666">[boolean]</text>
<polygon fill="none" stroke="#000000" points="1646,-532.5 1646,-562.5 1971,-562.5 1971,-532.5 1646,-532.5"/>
<text text-anchor="start" x="1653" y="-543.9" font-family="Arial" font-size="14.00" fill="#000000">created_at </text>
<text text-anchor="start" x="1723.028" y="-543.9" font-family="Arial" font-size="14.00" fill="#666666">[timestamp with time zone]</text>
<polygon fill="none" stroke="#000000" points="1646,-502.5 1646,-532.5 1971,-532.5 1971,-502.5 1646,-502.5"/>
<text text-anchor="start" x="1653" y="-513.9" font-family="Arial" font-size="14.00" fill="#000000">updated_at </text>
<text text-anchor="start" x="1726.9326" y="-513.9" font-family="Arial" font-size="14.00" fill="#666666">[timestamp with time zone]</text>
<polygon fill="none" stroke="#000000" points="1646,-472.5 1646,-502.5 1971,-502.5 1971,-472.5 1646,-472.5"/>
<text text-anchor="start" x="1653" y="-483.9" font-family="Arial" font-size="14.00" fill="#000000">chat_room_id </text>
<text text-anchor="start" x="1741.6872" y="-483.9" font-family="Arial" font-size="14.00" fill="#666666">[uuid]</text>
<polygon fill="none" stroke="#000000" stroke-width="3" points="1644,-471.5 1644,-809.5 1972,-809.5 1972,-471.5 1644,-471.5"/>
</g>
<!-- public.m_chat_rooms -->
<g id="node9" class="node">
<title>public.m_chat_rooms</title>
<polygon fill="#efefef" stroke="transparent" points="1653,-312.5 1653,-347.5 1965,-347.5 1965,-312.5 1653,-312.5"/>
<polygon fill="none" stroke="#000000" points="1653,-312.5 1653,-347.5 1965,-347.5 1965,-312.5 1653,-312.5"/>
<text text-anchor="start" x="1659.7034" y="-325.3" font-family="Arial Bold" font-size="18.00" fill="#000000">public.m_chat_rooms</text>
<text text-anchor="start" x="1830.7286" y="-325.3" font-family="Arial" font-size="14.00" fill="#000000">    </text>
<text text-anchor="start" x="1864.9334" y="-325.3" font-family="Arial" font-size="14.00" fill="#666666">[BASE TABLE]</text>
<polygon fill="none" stroke="#000000" points="1653,-282.5 1653,-312.5 1965,-312.5 1965,-282.5 1653,-282.5"/>
<text text-anchor="start" x="1660" y="-293.9" font-family="Arial" font-size="14.00" fill="#000000">m_chat_rooms_pkey    </text>
<text text-anchor="start" x="1824.1206" y="-293.9" font-family="Arial" font-size="14.00" fill="#666666">[bigint]</text>
<polygon fill="none" stroke="#000000" points="1653,-252.5 1653,-282.5 1965,-282.5 1965,-252.5 1653,-252.5"/>
<text text-anchor="start" x="1660" y="-263.9" font-family="Arial" font-size="14.00" fill="#000000">chat_room_id    </text>
<text text-anchor="start" x="1779.0014" y="-263.9" font-family="Arial" font-size="14.00" fill="#666666">[uuid]</text>
<polygon fill="none" stroke="#000000" points="1653,-222.5 1653,-252.5 1965,-252.5 1965,-222.5 1653,-222.5"/>
<text text-anchor="start" x="1660" y="-233.9" font-family="Arial" font-size="14.00" fill="#000000">name    </text>
<text text-anchor="start" x="1729.2132" y="-233.9" font-family="Arial" font-size="14.00" fill="#666666">[varchar(255)]</text>
<polygon fill="none" stroke="#000000" points="1653,-192.5 1653,-222.5 1965,-222.5 1965,-192.5 1653,-192.5"/>
<text text-anchor="start" x="1660" y="-203.9" font-family="Arial" font-size="14.00" fill="#000000">is_private    </text>
<text text-anchor="start" x="1754.0996" y="-203.9" font-family="Arial" font-size="14.00" fill="#666666">[boolean]</text>
<polygon fill="none" stroke="#000000" points="1653,-162.5 1653,-192.5 1965,-192.5 1965,-162.5 1653,-162.5"/>
<text text-anchor="start" x="1660" y="-173.9" font-family="Arial" font-size="14.00" fill="#000000">cover_image_url    </text>
<text text-anchor="start" x="1797.6606" y="-173.9" font-family="Arial" font-size="14.00" fill="#666666">[text]</text>
<polygon fill="none" stroke="#000000" points="1653,-132.5 1653,-162.5 1965,-162.5 1965,-132.5 1653,-132.5"/>
<text text-anchor="start" x="1660" y="-143.9" font-family="Arial" font-size="14.00" fill="#000000">owner_id    </text>
<text text-anchor="start" x="1750.9916" y="-143.9" font-family="Arial" font-size="14.00" fill="#666666">[uuid]</text>
<polygon fill="none" stroke="#000000" points="1653,-102.5 1653,-132.5 1965,-132.5 1965,-102.5 1653,-102.5"/>
<text text-anchor="start" x="1660" y="-113.9" font-family="Arial" font-size="14.00" fill="#000000">from_organization    </text>
<text text-anchor="start" x="1806.2244" y="-113.9" font-family="Arial" font-size="14.00" fill="#666666">[boolean]</text>
<polygon fill="none" stroke="#000000" points="1653,-72.5 1653,-102.5 1965,-102.5 1965,-72.5 1653,-72.5"/>
<text text-anchor="start" x="1660" y="-83.9" font-family="Arial" font-size="14.00" fill="#000000">created_at    </text>
<text text-anchor="start" x="1760.3422" y="-83.9" font-family="Arial" font-size="14.00" fill="#666666">[timestamp with time zone]</text>
<polygon fill="none" stroke="#000000" points="1653,-42.5 1653,-72.5 1965,-72.5 1965,-42.5 1653,-42.5"/>
<text text-anchor="start" x="1660" y="-53.9" font-family="Arial" font-size="14.00" fill="#000000">updated_at    </text>
<text text-anchor="start" x="1764.2468" y="-53.9" font-family="Arial" font-size="14.00" fill="#666666">[timestamp with time zone]</text>
</g>
<!-- public.m_organizations&#45;&gt;public.m_chat_rooms -->
<g id="edge9" class="edge">
<title>public.m_organizations:chat_room_id&#45;&gt;public.m_chat_rooms:chat_room_id</title>
<path fill="none" stroke="#000000" d="M1808.2585,-462.4066C1798.3395,-399.9535 1691.632,-454.7691 1653,-391 1624.5596,-344.0539 1598.1111,-267.5 1653,-267.5"/>
<polygon fill="#000000" stroke="#000000" points="1808.2672,-462.5269 1804.5121,-472.8298 1808.6336,-467.5134 1809,-472.5 1809,-472.5 1809,-472.5 1808.6336,-467.5134 1813.4879,-472.1702 1808.2672,-462.5269 1808.2672,-462.5269"/>
<text text-anchor="start" x="1816.159" y="-482.5" font-family="Arial" font-size="10.00" fill="#000000">FOREIGN KEY (chat_room_id) REFERENCES m_chat_rooms(chat_room_id) ON UPDATE RESTRICT ON DELETE RESTRICT</text>
</g>
<!-- public.m_work_positions -->
<g id="node2" class="node">
<title>public.m_work_positions</title>
<polygon fill="#efefef" stroke="transparent" points="267,-1247.5 267,-1282.5 604,-1282.5 604,-1247.5 267,-1247.5"/>
<polygon fill="none" stroke="#000000" points="267,-1247.5 267,-1282.5 604,-1282.5 604,-1247.5 267,-1247.5"/>
<text text-anchor="start" x="273.7051" y="-1260.3" font-family="Arial Bold" font-size="18.00" fill="#000000">public.m_work_positions</text>
<text text-anchor="start" x="469.7269" y="-1260.3" font-family="Arial" font-size="14.00" fill="#000000">    </text>
<text text-anchor="start" x="503.9317" y="-1260.3" font-family="Arial" font-size="14.00" fill="#666666">[BASE TABLE]</text>
<polygon fill="none" stroke="#000000" points="267,-1217.5 267,-1247.5 604,-1247.5 604,-1217.5 267,-1217.5"/>
<text text-anchor="start" x="274" y="-1228.9" font-family="Arial" font-size="14.00" fill="#000000">m_work_positions_pkey    </text>
<text text-anchor="start" x="457.5624" y="-1228.9" font-family="Arial" font-size="14.00" fill="#666666">[bigint]</text>
<polygon fill="none" stroke="#000000" points="267,-1187.5 267,-1217.5 604,-1217.5 604,-1187.5 267,-1187.5"/>
<text text-anchor="start" x="274" y="-1198.9" font-family="Arial" font-size="14.00" fill="#000000">work_position_id    </text>
<text text-anchor="start" x="412.4432" y="-1198.9" font-family="Arial" font-size="14.00" fill="#666666">[uuid]</text>
<polygon fill="none" stroke="#000000" points="267,-1157.5 267,-1187.5 604,-1187.5 604,-1157.5 267,-1157.5"/>
<text text-anchor="start" x="274" y="-1168.9" font-family="Arial" font-size="14.00" fill="#000000">organization_id    </text>
<text text-anchor="start" x="403.1192" y="-1168.9" font-family="Arial" font-size="14.00" fill="#666666">[uuid]</text>
<polygon fill="none" stroke="#000000" points="267,-1127.5 267,-1157.5 604,-1157.5 604,-1127.5 267,-1127.5"/>
<text text-anchor="start" x="274" y="-1138.9" font-family="Arial" font-size="14.00" fill="#000000">name    </text>
<text text-anchor="start" x="343.2132" y="-1138.9" font-family="Arial" font-size="14.00" fill="#666666">[varchar(255)]</text>
<polygon fill="none" stroke="#000000" points="267,-1097.5 267,-1127.5 604,-1127.5 604,-1097.5 267,-1097.5"/>
<text text-anchor="start" x="274" y="-1108.9" font-family="Arial" font-size="14.00" fill="#000000">description    </text>
<text text-anchor="start" x="375.8822" y="-1108.9" font-family="Arial" font-size="14.00" fill="#666666">[text]</text>
<polygon fill="none" stroke="#000000" points="267,-1067.5 267,-1097.5 604,-1097.5 604,-1067.5 267,-1067.5"/>
<text text-anchor="start" x="274" y="-1078.9" font-family="Arial" font-size="14.00" fill="#000000">created_at    </text>
<text text-anchor="start" x="374.3422" y="-1078.9" font-family="Arial" font-size="14.00" fill="#666666">[timestamp with time zone]</text>
<polygon fill="none" stroke="#000000" points="267,-1037.5 267,-1067.5 604,-1067.5 604,-1037.5 267,-1037.5"/>
<text text-anchor="start" x="274" y="-1048.9" font-family="Arial" font-size="14.00" fill="#000000">updated_at    </text>
<text text-anchor="start" x="378.2468" y="-1048.9" font-family="Arial" font-size="14.00" fill="#666666">[timestamp with time zone]</text>
</g>
<!-- public.m_work_positions&#45;&gt;public.m_organizations -->
<g id="edge1" class="edge">
<title>public.m_work_positions:organization_id&#45;&gt;public.m_organizations:organization_id</title>
<path fill="none" stroke="#000000" d="M614.1423,-1172.0423C722.3038,-1161.6507 566.6368,-976.9539 655,-890 814.0637,-733.4734 1422.8367,-727.5 1646,-727.5"/>
<polygon fill="#000000" stroke="#000000" points="613.9898,-1172.0491 603.7971,-1168.0046 608.9949,-1172.2746 604,-1172.5 604,-1172.5 604,-1172.5 608.9949,-1172.2746 604.2029,-1176.9954 613.9898,-1172.0491 613.9898,-1172.0491"/>
<text text-anchor="start" x="6.9775" y="-1182.5" font-family="Arial" font-size="10.00" fill="#000000">FOREIGN KEY (organization_id) REFERENCES m_organizations(organization_id) ON UPDATE CASCADE ON DELETE CASCADE</text>
</g>
<!-- public.m_groups -->
<g id="node3" class="node">
<title>public.m_groups</title>
<polygon fill="#efefef" stroke="transparent" points="708,-1202.5 708,-1237.5 981,-1237.5 981,-1202.5 708,-1202.5"/>
<polygon fill="none" stroke="#000000" points="708,-1202.5 708,-1237.5 981,-1237.5 981,-1202.5 708,-1202.5"/>
<text text-anchor="start" x="714.7037" y="-1215.3" font-family="Arial Bold" font-size="18.00" fill="#000000">public.m_groups</text>
<text text-anchor="start" x="846.7283" y="-1215.3" font-family="Arial" font-size="14.00" fill="#000000">    </text>
<text text-anchor="start" x="880.9331" y="-1215.3" font-family="Arial" font-size="14.00" fill="#666666">[BASE TABLE]</text>
<polygon fill="none" stroke="#000000" points="708,-1172.5 708,-1202.5 981,-1202.5 981,-1172.5 708,-1172.5"/>
<text text-anchor="start" x="715" y="-1183.9" font-family="Arial" font-size="14.00" fill="#000000">m_groups_pkey    </text>
<text text-anchor="start" x="848.7868" y="-1183.9" font-family="Arial" font-size="14.00" fill="#666666">[bigint]</text>
<polygon fill="none" stroke="#000000" points="708,-1142.5 708,-1172.5 981,-1172.5 981,-1142.5 708,-1142.5"/>
<text text-anchor="start" x="715" y="-1153.9" font-family="Arial" font-size="14.00" fill="#000000">group_id    </text>
<text text-anchor="start" x="803.6676" y="-1153.9" font-family="Arial" font-size="14.00" fill="#666666">[uuid]</text>
<polygon fill="none" stroke="#000000" points="708,-1112.5 708,-1142.5 981,-1142.5 981,-1112.5 708,-1112.5"/>
<text text-anchor="start" x="715" y="-1123.9" font-family="Arial" font-size="14.00" fill="#000000">key    </text>
<text text-anchor="start" x="770.9874" y="-1123.9" font-family="Arial" font-size="14.00" fill="#666666">[varchar(255)]</text>
<polygon fill="none" stroke="#000000" points="708,-1082.5 708,-1112.5 981,-1112.5 981,-1082.5 708,-1082.5"/>
<text text-anchor="start" x="715" y="-1093.9" font-family="Arial" font-size="14.00" fill="#000000">organization_id    </text>
<text text-anchor="start" x="844.1192" y="-1093.9" font-family="Arial" font-size="14.00" fill="#666666">[uuid]</text>
</g>
<!-- public.m_groups&#45;&gt;public.m_organizations -->
<g id="edge2" class="edge">
<title>public.m_groups:organization_id&#45;&gt;public.m_organizations:organization_id</title>
<path fill="none" stroke="#000000" d="M991.2111,-1096.8729C1067.6027,-1086.6915 968.0456,-955.0978 1032,-890 1130.9144,-789.3171 1504.8579,-727.5 1646,-727.5"/>
<polygon fill="#000000" stroke="#000000" points="990.9812,-1096.8869 980.7241,-1093.0085 985.9906,-1097.1934 981,-1097.5 981,-1097.5 981,-1097.5 985.9906,-1097.1934 981.2759,-1101.9915 990.9812,-1096.8869 990.9812,-1096.8869"/>
<text text-anchor="start" x="684.8185" y="-1081.5" font-family="Arial" font-size="10.00" fill="#000000">FOREIGN KEY (organization_id) REFERENCES m_organizations(organization_id) ON UPDATE RESTRICT ON DELETE RESTRICT</text>
</g>
<!-- public.m_grades -->
<g id="node4" class="node">
<title>public.m_grades</title>
<polygon fill="#efefef" stroke="transparent" points="1085,-1202.5 1085,-1237.5 1358,-1237.5 1358,-1202.5 1085,-1202.5"/>
<polygon fill="none" stroke="#000000" points="1085,-1202.5 1085,-1237.5 1358,-1237.5 1358,-1202.5 1085,-1202.5"/>
<text text-anchor="start" x="1091.7037" y="-1215.3" font-family="Arial Bold" font-size="18.00" fill="#000000">public.m_grades</text>
<text text-anchor="start" x="1223.7283" y="-1215.3" font-family="Arial" font-size="14.00" fill="#000000">    </text>
<text text-anchor="start" x="1257.9331" y="-1215.3" font-family="Arial" font-size="14.00" fill="#666666">[BASE TABLE]</text>
<polygon fill="none" stroke="#000000" points="1085,-1172.5 1085,-1202.5 1358,-1202.5 1358,-1172.5 1085,-1172.5"/>
<text text-anchor="start" x="1092" y="-1183.9" font-family="Arial" font-size="14.00" fill="#000000">m_grades_pkey    </text>
<text text-anchor="start" x="1225.7868" y="-1183.9" font-family="Arial" font-size="14.00" fill="#666666">[bigint]</text>
<polygon fill="none" stroke="#000000" points="1085,-1142.5 1085,-1172.5 1358,-1172.5 1358,-1142.5 1085,-1142.5"/>
<text text-anchor="start" x="1092" y="-1153.9" font-family="Arial" font-size="14.00" fill="#000000">grade_id    </text>
<text text-anchor="start" x="1180.6676" y="-1153.9" font-family="Arial" font-size="14.00" fill="#666666">[uuid]</text>
<polygon fill="none" stroke="#000000" points="1085,-1112.5 1085,-1142.5 1358,-1142.5 1358,-1112.5 1085,-1112.5"/>
<text text-anchor="start" x="1092" y="-1123.9" font-family="Arial" font-size="14.00" fill="#000000">key    </text>
<text text-anchor="start" x="1147.9874" y="-1123.9" font-family="Arial" font-size="14.00" fill="#666666">[varchar(255)]</text>
<polygon fill="none" stroke="#000000" points="1085,-1082.5 1085,-1112.5 1358,-1112.5 1358,-1082.5 1085,-1082.5"/>
<text text-anchor="start" x="1092" y="-1093.9" font-family="Arial" font-size="14.00" fill="#000000">organization_id    </text>
<text text-anchor="start" x="1221.1192" y="-1093.9" font-family="Arial" font-size="14.00" fill="#666666">[uuid]</text>
</g>
<!-- public.m_grades&#45;&gt;public.m_organizations -->
<g id="edge3" class="edge">
<title>public.m_grades:organization_id&#45;&gt;public.m_organizations:organization_id</title>
<path fill="none" stroke="#000000" d="M1368.2661,-1096.9184C1445.5419,-1087.4681 1357.0674,-965.0393 1409,-890 1481.6799,-784.982 1518.2848,-727.5 1646,-727.5"/>
<polygon fill="#000000" stroke="#000000" points="1367.984,-1096.9343 1357.7454,-1093.0072 1362.992,-1097.2171 1358,-1097.5 1358,-1097.5 1358,-1097.5 1362.992,-1097.2171 1358.2546,-1101.9928 1367.984,-1096.9343 1367.984,-1096.9343"/>
<text text-anchor="start" x="758.3185" y="-1107.5" font-family="Arial" font-size="10.00" fill="#000000">FOREIGN KEY (organization_id) REFERENCES m_organizations(organization_id) ON UPDATE RESTRICT ON DELETE RESTRICT</text>
</g>
<!-- public.m_members -->
<g id="node5" class="node">
<title>public.m_members</title>
<polygon fill="#efefef" stroke="transparent" points="1462,-1352.5 1462,-1387.5 1755,-1387.5 1755,-1352.5 1462,-1352.5"/>
<polygon fill="none" stroke="#000000" points="1462,-1352.5 1462,-1387.5 1755,-1387.5 1755,-1352.5 1462,-1352.5"/>
<text text-anchor="start" x="1468.7146" y="-1365.3" font-family="Arial Bold" font-size="18.00" fill="#000000">public.m_members</text>
<text text-anchor="start" x="1620.7174" y="-1365.3" font-family="Arial" font-size="14.00" fill="#000000">    </text>
<text text-anchor="start" x="1654.9222" y="-1365.3" font-family="Arial" font-size="14.00" fill="#666666">[BASE TABLE]</text>
<polygon fill="none" stroke="#000000" points="1462,-1322.5 1462,-1352.5 1755,-1352.5 1755,-1322.5 1462,-1322.5"/>
<text text-anchor="start" x="1469" y="-1333.9" font-family="Arial" font-size="14.00" fill="#000000">m_members_pkey    </text>
<text text-anchor="start" x="1618.3254" y="-1333.9" font-family="Arial" font-size="14.00" fill="#666666">[bigint]</text>
<polygon fill="none" stroke="#000000" points="1462,-1292.5 1462,-1322.5 1755,-1322.5 1755,-1292.5 1462,-1292.5"/>
<text text-anchor="start" x="1469" y="-1303.9" font-family="Arial" font-size="14.00" fill="#000000">member_id    </text>
<text text-anchor="start" x="1573.2062" y="-1303.9" font-family="Arial" font-size="14.00" fill="#666666">[uuid]</text>
<polygon fill="none" stroke="#000000" points="1462,-1262.5 1462,-1292.5 1755,-1292.5 1755,-1262.5 1462,-1262.5"/>
<text text-anchor="start" x="1469" y="-1273.9" font-family="Arial" font-size="14.00" fill="#000000">login_id    </text>
<text text-anchor="start" x="1551.4376" y="-1273.9" font-family="Arial" font-size="14.00" fill="#666666">[varchar(255)]</text>
<polygon fill="none" stroke="#000000" points="1462,-1232.5 1462,-1262.5 1755,-1262.5 1755,-1232.5 1462,-1232.5"/>
<text text-anchor="start" x="1469" y="-1243.9" font-family="Arial" font-size="14.00" fill="#000000">password    </text>
<text text-anchor="start" x="1563.1024" y="-1243.9" font-family="Arial" font-size="14.00" fill="#666666">[varchar(255)]</text>
<polygon fill="none" stroke="#000000" points="1462,-1202.5 1462,-1232.5 1755,-1232.5 1755,-1202.5 1462,-1202.5"/>
<text text-anchor="start" x="1469" y="-1213.9" font-family="Arial" font-size="14.00" fill="#000000">email    </text>
<text text-anchor="start" x="1536.6438" y="-1213.9" font-family="Arial" font-size="14.00" fill="#666666">[varchar(255)]</text>
<polygon fill="none" stroke="#000000" points="1462,-1172.5 1462,-1202.5 1755,-1202.5 1755,-1172.5 1462,-1172.5"/>
<text text-anchor="start" x="1469" y="-1183.9" font-family="Arial" font-size="14.00" fill="#000000">name    </text>
<text text-anchor="start" x="1538.2132" y="-1183.9" font-family="Arial" font-size="14.00" fill="#666666">[varchar(255)]</text>
<polygon fill="none" stroke="#000000" points="1462,-1142.5 1462,-1172.5 1755,-1172.5 1755,-1142.5 1462,-1142.5"/>
<text text-anchor="start" x="1469" y="-1153.9" font-family="Arial" font-size="14.00" fill="#000000">attend_status_id    </text>
<text text-anchor="start" x="1605.9172" y="-1153.9" font-family="Arial" font-size="14.00" fill="#666666">[uuid]</text>
<polygon fill="none" stroke="#000000" points="1462,-1112.5 1462,-1142.5 1755,-1142.5 1755,-1112.5 1462,-1112.5"/>
<text text-anchor="start" x="1469" y="-1123.9" font-family="Arial" font-size="14.00" fill="#000000">profile_image_url    </text>
<text text-anchor="start" x="1610.547" y="-1123.9" font-family="Arial" font-size="14.00" fill="#666666">[text]</text>
<polygon fill="none" stroke="#000000" points="1462,-1082.5 1462,-1112.5 1755,-1112.5 1755,-1082.5 1462,-1082.5"/>
<text text-anchor="start" x="1469" y="-1093.9" font-family="Arial" font-size="14.00" fill="#000000">grade_id    </text>
<text text-anchor="start" x="1557.6676" y="-1093.9" font-family="Arial" font-size="14.00" fill="#666666">[uuid]</text>
<polygon fill="none" stroke="#000000" points="1462,-1052.5 1462,-1082.5 1755,-1082.5 1755,-1052.5 1462,-1052.5"/>
<text text-anchor="start" x="1469" y="-1063.9" font-family="Arial" font-size="14.00" fill="#000000">group_id    </text>
<text text-anchor="start" x="1557.6676" y="-1063.9" font-family="Arial" font-size="14.00" fill="#666666">[uuid]</text>
<polygon fill="none" stroke="#000000" points="1462,-1022.5 1462,-1052.5 1755,-1052.5 1755,-1022.5 1462,-1022.5"/>
<text text-anchor="start" x="1469" y="-1033.9" font-family="Arial" font-size="14.00" fill="#000000">personal_organization_id    </text>
<text text-anchor="start" x="1659.582" y="-1033.9" font-family="Arial" font-size="14.00" fill="#666666">[uuid]</text>
<polygon fill="none" stroke="#000000" points="1462,-992.5 1462,-1022.5 1755,-1022.5 1755,-992.5 1462,-992.5"/>
<text text-anchor="start" x="1469" y="-1003.9" font-family="Arial" font-size="14.00" fill="#000000">role_id    </text>
<text text-anchor="start" x="1545.209" y="-1003.9" font-family="Arial" font-size="14.00" fill="#666666">[uuid]</text>
<polygon fill="none" stroke="#000000" points="1462,-962.5 1462,-992.5 1755,-992.5 1755,-962.5 1462,-962.5"/>
<text text-anchor="start" x="1469" y="-973.9" font-family="Arial" font-size="14.00" fill="#000000">created_at    </text>
<text text-anchor="start" x="1569.3422" y="-973.9" font-family="Arial" font-size="14.00" fill="#666666">[timestamp with time zone]</text>
<polygon fill="none" stroke="#000000" points="1462,-932.5 1462,-962.5 1755,-962.5 1755,-932.5 1462,-932.5"/>
<text text-anchor="start" x="1469" y="-943.9" font-family="Arial" font-size="14.00" fill="#000000">updated_at    </text>
<text text-anchor="start" x="1573.2468" y="-943.9" font-family="Arial" font-size="14.00" fill="#666666">[timestamp with time zone]</text>
</g>
<!-- public.m_members&#45;&gt;public.m_organizations -->
<g id="edge4" class="edge">
<title>public.m_members:personal_organization_id&#45;&gt;public.m_organizations:organization_id</title>
<path fill="none" stroke="#000000" d="M1765.2619,-1036.6164C1817.4437,-1026.9418 1791.229,-940.1193 1755,-890 1725.1121,-848.653 1675.8879,-895.347 1646,-854 1613.0635,-808.4355 1589.7778,-727.5 1646,-727.5"/>
<polygon fill="#000000" stroke="#000000" points="1764.9631,-1036.642 1754.6139,-1033.0166 1759.9816,-1037.071 1755,-1037.5 1755,-1037.5 1755,-1037.5 1759.9816,-1037.071 1755.3861,-1041.9834 1764.9631,-1036.642 1764.9631,-1036.642"/>
<text text-anchor="start" x="1111.3675" y="-1021.5" font-family="Arial" font-size="10.00" fill="#000000">FOREIGN KEY (personal_organization_id) REFERENCES m_organizations(organization_id) ON UPDATE RESTRICT ON DELETE RESTRICT</text>
</g>
<!-- public.t_events -->
<g id="node6" class="node">
<title>public.t_events</title>
<polygon fill="#efefef" stroke="transparent" points="1859,-1352.5 1859,-1387.5 2160,-1387.5 2160,-1352.5 1859,-1352.5"/>
<polygon fill="none" stroke="#000000" points="1859,-1352.5 1859,-1387.5 2160,-1387.5 2160,-1352.5 1859,-1352.5"/>
<text text-anchor="start" x="1885.6968" y="-1365.3" font-family="Arial Bold" font-size="18.00" fill="#000000">public.t_events</text>
<text text-anchor="start" x="2005.7352" y="-1365.3" font-family="Arial" font-size="14.00" fill="#000000">    </text>
<text text-anchor="start" x="2039.94" y="-1365.3" font-family="Arial" font-size="14.00" fill="#666666">[BASE TABLE]</text>
<polygon fill="none" stroke="#000000" points="1859,-1322.5 1859,-1352.5 2160,-1352.5 2160,-1322.5 1859,-1322.5"/>
<text text-anchor="start" x="1866" y="-1333.9" font-family="Arial" font-size="14.00" fill="#000000">t_events_pkey    </text>
<text text-anchor="start" x="1990.4642" y="-1333.9" font-family="Arial" font-size="14.00" fill="#666666">[bigint]</text>
<polygon fill="none" stroke="#000000" points="1859,-1292.5 1859,-1322.5 2160,-1322.5 2160,-1292.5 1859,-1292.5"/>
<text text-anchor="start" x="1866" y="-1303.9" font-family="Arial" font-size="14.00" fill="#000000">event_id    </text>
<text text-anchor="start" x="1953.115" y="-1303.9" font-family="Arial" font-size="14.00" fill="#666666">[uuid]</text>
<polygon fill="none" stroke="#000000" points="1859,-1262.5 1859,-1292.5 2160,-1292.5 2160,-1262.5 1859,-1262.5"/>
<text text-anchor="start" x="1866" y="-1273.9" font-family="Arial" font-size="14.00" fill="#000000">event_type_id    </text>
<text text-anchor="start" x="1987.3534" y="-1273.9" font-family="Arial" font-size="14.00" fill="#666666">[uuid]</text>
<polygon fill="none" stroke="#000000" points="1859,-1232.5 1859,-1262.5 2160,-1262.5 2160,-1232.5 1859,-1232.5"/>
<text text-anchor="start" x="1866" y="-1243.9" font-family="Arial" font-size="14.00" fill="#000000">title    </text>
<text text-anchor="start" x="1921.9818" y="-1243.9" font-family="Arial" font-size="14.00" fill="#666666">[varchar(255)]</text>
<polygon fill="none" stroke="#000000" points="1859,-1202.5 1859,-1232.5 2160,-1232.5 2160,-1202.5 1859,-1202.5"/>
<text text-anchor="start" x="1866" y="-1213.9" font-family="Arial" font-size="14.00" fill="#000000">description    </text>
<text text-anchor="start" x="1967.8822" y="-1213.9" font-family="Arial" font-size="14.00" fill="#666666">[text]</text>
<polygon fill="none" stroke="#000000" points="1859,-1172.5 1859,-1202.5 2160,-1202.5 2160,-1172.5 1859,-1172.5"/>
<text text-anchor="start" x="1866" y="-1183.9" font-family="Arial" font-size="14.00" fill="#000000">organization_id    </text>
<text text-anchor="start" x="1995.1192" y="-1183.9" font-family="Arial" font-size="14.00" fill="#666666">[uuid]</text>
<polygon fill="none" stroke="#000000" points="1859,-1142.5 1859,-1172.5 2160,-1172.5 2160,-1142.5 1859,-1142.5"/>
<text text-anchor="start" x="1866" y="-1153.9" font-family="Arial" font-size="14.00" fill="#000000">start_time    </text>
<text text-anchor="start" x="1961.6522" y="-1153.9" font-family="Arial" font-size="14.00" fill="#666666">[timestamp with time zone]</text>
<polygon fill="none" stroke="#000000" points="1859,-1112.5 1859,-1142.5 2160,-1142.5 2160,-1112.5 1859,-1112.5"/>
<text text-anchor="start" x="1866" y="-1123.9" font-family="Arial" font-size="14.00" fill="#000000">end_time    </text>
<text text-anchor="start" x="1957.7756" y="-1123.9" font-family="Arial" font-size="14.00" fill="#666666">[timestamp with time zone]</text>
<polygon fill="none" stroke="#000000" points="1859,-1082.5 1859,-1112.5 2160,-1112.5 2160,-1082.5 1859,-1082.5"/>
<text text-anchor="start" x="1866" y="-1093.9" font-family="Arial" font-size="14.00" fill="#000000">mail_send_flag    </text>
<text text-anchor="start" x="1994.3366" y="-1093.9" font-family="Arial" font-size="14.00" fill="#666666">[boolean]</text>
<polygon fill="none" stroke="#000000" points="1859,-1052.5 1859,-1082.5 2160,-1082.5 2160,-1052.5 1859,-1052.5"/>
<text text-anchor="start" x="1866" y="-1063.9" font-family="Arial" font-size="14.00" fill="#000000">send_organization_id    </text>
<text text-anchor="start" x="2033.2496" y="-1063.9" font-family="Arial" font-size="14.00" fill="#666666">[uuid]</text>
<polygon fill="none" stroke="#000000" points="1859,-1022.5 1859,-1052.5 2160,-1052.5 2160,-1022.5 1859,-1022.5"/>
<text text-anchor="start" x="1866" y="-1033.9" font-family="Arial" font-size="14.00" fill="#000000">posted_by    </text>
<text text-anchor="start" x="1964.791" y="-1033.9" font-family="Arial" font-size="14.00" fill="#666666">[uuid]</text>
<polygon fill="none" stroke="#000000" points="1859,-992.5 1859,-1022.5 2160,-1022.5 2160,-992.5 1859,-992.5"/>
<text text-anchor="start" x="1866" y="-1003.9" font-family="Arial" font-size="14.00" fill="#000000">last_edited_by    </text>
<text text-anchor="start" x="1990.46" y="-1003.9" font-family="Arial" font-size="14.00" fill="#666666">[uuid]</text>
<polygon fill="none" stroke="#000000" points="1859,-962.5 1859,-992.5 2160,-992.5 2160,-962.5 1859,-962.5"/>
<text text-anchor="start" x="1866" y="-973.9" font-family="Arial" font-size="14.00" fill="#000000">posted_at    </text>
<text text-anchor="start" x="1961.6816" y="-973.9" font-family="Arial" font-size="14.00" fill="#666666">[timestamp with time zone]</text>
<polygon fill="none" stroke="#000000" points="1859,-932.5 1859,-962.5 2160,-962.5 2160,-932.5 1859,-932.5"/>
<text text-anchor="start" x="1865.9825" y="-943.9" font-family="Arial" font-size="14.00" fill="#000000">last_edited_at    </text>
<text text-anchor="start" x="1987.3331" y="-943.9" font-family="Arial" font-size="14.00" fill="#666666">[timestamp with time zone]</text>
</g>
<!-- public.t_events&#45;&gt;public.m_organizations -->
<g id="edge5" class="edge">
<title>public.t_events:organization_id&#45;&gt;public.m_organizations:organization_id</title>
<path fill="none" stroke="#000000" d="M1848.9772,-1185.3812C1795.8956,-1161.3743 1822.1861,-940.5019 1859,-890 1889.7998,-847.7484 1940.2002,-896.2516 1971,-854 2004.1184,-808.5676 2027.2222,-727.5 1971,-727.5"/>
<polygon fill="#000000" stroke="#000000" points="1849.2162,-1185.4317 1858.0692,-1191.9027 1854.1081,-1186.4658 1859,-1187.5 1859,-1187.5 1859,-1187.5 1854.1081,-1186.4658 1859.9308,-1183.0973 1849.2162,-1185.4317 1849.2162,-1185.4317"/>
<text text-anchor="start" x="1865.5285" y="-1197.5" font-family="Arial" font-size="10.00" fill="#000000">FOREIGN KEY (organization_id) REFERENCES m_organizations(organization_id) ON UPDATE SET NULL ON DELETE SET NULL</text>
</g>
<!-- public.t_events&#45;&gt;public.m_organizations -->
<g id="edge6" class="edge">
<title>public.t_events:send_organization_id&#45;&gt;public.m_organizations:organization_id</title>
<path fill="none" stroke="#000000" d="M1848.6299,-1066.767C1783.1812,-1056.9457 1814.7078,-950.7608 1859,-890 1889.7998,-847.7484 1940.2002,-896.2516 1971,-854 2004.1184,-808.5676 2027.2222,-727.5 1971,-727.5"/>
<polygon fill="#000000" stroke="#000000" points="1849.0249,-1066.7949 1858.6827,-1071.9888 1854.0124,-1067.1474 1859,-1067.5 1859,-1067.5 1859,-1067.5 1854.0124,-1067.1474 1859.3173,-1063.0112 1849.0249,-1066.7949 1849.0249,-1066.7949"/>
<text text-anchor="start" x="1865.9105" y="-1077.5" font-family="Arial" font-size="10.00" fill="#000000">FOREIGN KEY (send_organization_id) REFERENCES m_organizations(organization_id) ON UPDATE SET NULL ON DELETE SET NULL</text>
</g>
<!-- public.t_attendances -->
<g id="node7" class="node">
<title>public.t_attendances</title>
<polygon fill="#efefef" stroke="transparent" points="2264,-1292.5 2264,-1327.5 2570,-1327.5 2570,-1292.5 2264,-1292.5"/>
<polygon fill="none" stroke="#000000" points="2264,-1292.5 2264,-1327.5 2570,-1327.5 2570,-1292.5 2264,-1292.5"/>
<text text-anchor="start" x="2270.6833" y="-1305.3" font-family="Arial Bold" font-size="18.00" fill="#000000">public.t_attendances</text>
<text text-anchor="start" x="2435.7487" y="-1305.3" font-family="Arial" font-size="14.00" fill="#000000">    </text>
<text text-anchor="start" x="2469.9535" y="-1305.3" font-family="Arial" font-size="14.00" fill="#666666">[BASE TABLE]</text>
<polygon fill="none" stroke="#000000" points="2264,-1262.5 2264,-1292.5 2570,-1292.5 2570,-1262.5 2264,-1262.5"/>
<text text-anchor="start" x="2271" y="-1273.9" font-family="Arial" font-size="14.00" fill="#000000">t_attendances_pkey    </text>
<text text-anchor="start" x="2430.4852" y="-1273.9" font-family="Arial" font-size="14.00" fill="#666666">[bigint]</text>
<polygon fill="none" stroke="#000000" points="2264,-1232.5 2264,-1262.5 2570,-1262.5 2570,-1232.5 2264,-1232.5"/>
<text text-anchor="start" x="2271" y="-1243.9" font-family="Arial" font-size="14.00" fill="#000000">attendance_id    </text>
<text text-anchor="start" x="2393.136" y="-1243.9" font-family="Arial" font-size="14.00" fill="#666666">[uuid]</text>
<polygon fill="none" stroke="#000000" points="2264,-1202.5 2264,-1232.5 2570,-1232.5 2570,-1202.5 2264,-1202.5"/>
<text text-anchor="start" x="2271" y="-1213.9" font-family="Arial" font-size="14.00" fill="#000000">attendance_type_id    </text>
<text text-anchor="start" x="2427.3744" y="-1213.9" font-family="Arial" font-size="14.00" fill="#666666">[uuid]</text>
<polygon fill="none" stroke="#000000" points="2264,-1172.5 2264,-1202.5 2570,-1202.5 2570,-1172.5 2264,-1172.5"/>
<text text-anchor="start" x="2271" y="-1183.9" font-family="Arial" font-size="14.00" fill="#000000">member_id    </text>
<text text-anchor="start" x="2375.2062" y="-1183.9" font-family="Arial" font-size="14.00" fill="#666666">[uuid]</text>
<polygon fill="none" stroke="#000000" points="2264,-1142.5 2264,-1172.5 2570,-1172.5 2570,-1142.5 2264,-1142.5"/>
<text text-anchor="start" x="2271" y="-1153.9" font-family="Arial" font-size="14.00" fill="#000000">description    </text>
<text text-anchor="start" x="2372.8822" y="-1153.9" font-family="Arial" font-size="14.00" fill="#666666">[text]</text>
<polygon fill="none" stroke="#000000" points="2264,-1112.5 2264,-1142.5 2570,-1142.5 2570,-1112.5 2264,-1112.5"/>
<text text-anchor="start" x="2271" y="-1123.9" font-family="Arial" font-size="14.00" fill="#000000">date    </text>
<text text-anchor="start" x="2332.4432" y="-1123.9" font-family="Arial" font-size="14.00" fill="#666666">[date]</text>
<polygon fill="none" stroke="#000000" points="2264,-1082.5 2264,-1112.5 2570,-1112.5 2570,-1082.5 2264,-1082.5"/>
<text text-anchor="start" x="2271" y="-1093.9" font-family="Arial" font-size="14.00" fill="#000000">mail_send_flag    </text>
<text text-anchor="start" x="2399.3366" y="-1093.9" font-family="Arial" font-size="14.00" fill="#666666">[boolean]</text>
<polygon fill="none" stroke="#000000" points="2264,-1052.5 2264,-1082.5 2570,-1082.5 2570,-1052.5 2264,-1052.5"/>
<text text-anchor="start" x="2271" y="-1063.9" font-family="Arial" font-size="14.00" fill="#000000">send_organization_id    </text>
<text text-anchor="start" x="2438.2496" y="-1063.9" font-family="Arial" font-size="14.00" fill="#666666">[uuid]</text>
<polygon fill="none" stroke="#000000" points="2264,-1022.5 2264,-1052.5 2570,-1052.5 2570,-1022.5 2264,-1022.5"/>
<text text-anchor="start" x="2271" y="-1033.9" font-family="Arial" font-size="14.00" fill="#000000">posted_at    </text>
<text text-anchor="start" x="2366.6816" y="-1033.9" font-family="Arial" font-size="14.00" fill="#666666">[timestamp with time zone]</text>
<polygon fill="none" stroke="#000000" points="2264,-992.5 2264,-1022.5 2570,-1022.5 2570,-992.5 2264,-992.5"/>
<text text-anchor="start" x="2271" y="-1003.9" font-family="Arial" font-size="14.00" fill="#000000">last_edited_at    </text>
<text text-anchor="start" x="2392.3506" y="-1003.9" font-family="Arial" font-size="14.00" fill="#666666">[timestamp with time zone]</text>
</g>
<!-- public.t_attendances&#45;&gt;public.m_organizations -->
<g id="edge7" class="edge">
<title>public.t_attendances:send_organization_id&#45;&gt;public.m_organizations:organization_id</title>
<path fill="none" stroke="#000000" d="M2253.8698,-1066.8413C2188.6111,-1057.6053 2258.335,-953.3811 2212,-890 2135.7592,-785.7111 2100.1853,-727.5 1971,-727.5"/>
<polygon fill="#000000" stroke="#000000" points="2254.0211,-1066.8511 2263.708,-1071.9905 2259.0105,-1067.1755 2264,-1067.5 2264,-1067.5 2264,-1067.5 2259.0105,-1067.1755 2264.292,-1063.0095 2254.0211,-1066.8511 2254.0211,-1066.8511"/>
<text text-anchor="start" x="2270.9105" y="-1051.5" font-family="Arial" font-size="10.00" fill="#000000">FOREIGN KEY (send_organization_id) REFERENCES m_organizations(organization_id) ON UPDATE SET NULL ON DELETE SET NULL</text>
</g>
<!-- public.t_records -->
<g id="node8" class="node">
<title>public.t_records</title>
<polygon fill="#efefef" stroke="transparent" points="2675,-1292.5 2675,-1327.5 2976,-1327.5 2976,-1292.5 2675,-1292.5"/>
<polygon fill="none" stroke="#000000" points="2675,-1292.5 2675,-1327.5 2976,-1327.5 2976,-1292.5 2675,-1292.5"/>
<text text-anchor="start" x="2698.2057" y="-1305.3" font-family="Arial Bold" font-size="18.00" fill="#000000">public.t_records</text>
<text text-anchor="start" x="2825.2263" y="-1305.3" font-family="Arial" font-size="14.00" fill="#000000">    </text>
<text text-anchor="start" x="2859.4311" y="-1305.3" font-family="Arial" font-size="14.00" fill="#666666">[BASE TABLE]</text>
<polygon fill="none" stroke="#000000" points="2675,-1262.5 2675,-1292.5 2976,-1292.5 2976,-1262.5 2675,-1262.5"/>
<text text-anchor="start" x="2682" y="-1273.9" font-family="Arial" font-size="14.00" fill="#000000">t_records_pkey    </text>
<text text-anchor="start" x="2811.8948" y="-1273.9" font-family="Arial" font-size="14.00" fill="#666666">[bigint]</text>
<polygon fill="none" stroke="#000000" points="2675,-1232.5 2675,-1262.5 2976,-1262.5 2976,-1232.5 2675,-1232.5"/>
<text text-anchor="start" x="2682" y="-1243.9" font-family="Arial" font-size="14.00" fill="#000000">record_id    </text>
<text text-anchor="start" x="2774.5456" y="-1243.9" font-family="Arial" font-size="14.00" fill="#666666">[uuid]</text>
<polygon fill="none" stroke="#000000" points="2675,-1202.5 2675,-1232.5 2976,-1232.5 2976,-1202.5 2675,-1202.5"/>
<text text-anchor="start" x="2682" y="-1213.9" font-family="Arial" font-size="14.00" fill="#000000">record_type_id    </text>
<text text-anchor="start" x="2808.784" y="-1213.9" font-family="Arial" font-size="14.00" fill="#666666">[uuid]</text>
<polygon fill="none" stroke="#000000" points="2675,-1172.5 2675,-1202.5 2976,-1202.5 2976,-1172.5 2675,-1172.5"/>
<text text-anchor="start" x="2682" y="-1183.9" font-family="Arial" font-size="14.00" fill="#000000">title    </text>
<text text-anchor="start" x="2737.9818" y="-1183.9" font-family="Arial" font-size="14.00" fill="#666666">[varchar(255)]</text>
<polygon fill="none" stroke="#000000" points="2675,-1142.5 2675,-1172.5 2976,-1172.5 2976,-1142.5 2675,-1142.5"/>
<text text-anchor="start" x="2682" y="-1153.9" font-family="Arial" font-size="14.00" fill="#000000">body    </text>
<text text-anchor="start" x="2746.5526" y="-1153.9" font-family="Arial" font-size="14.00" fill="#666666">[text]</text>
<polygon fill="none" stroke="#000000" points="2675,-1112.5 2675,-1142.5 2976,-1142.5 2976,-1112.5 2675,-1112.5"/>
<text text-anchor="start" x="2682" y="-1123.9" font-family="Arial" font-size="14.00" fill="#000000">organization_id    </text>
<text text-anchor="start" x="2811.1192" y="-1123.9" font-family="Arial" font-size="14.00" fill="#666666">[uuid]</text>
<polygon fill="none" stroke="#000000" points="2675,-1082.5 2675,-1112.5 2976,-1112.5 2976,-1082.5 2675,-1082.5"/>
<text text-anchor="start" x="2682" y="-1093.9" font-family="Arial" font-size="14.00" fill="#000000">posted_by    </text>
<text text-anchor="start" x="2780.791" y="-1093.9" font-family="Arial" font-size="14.00" fill="#666666">[uuid]</text>
<polygon fill="none" stroke="#000000" points="2675,-1052.5 2675,-1082.5 2976,-1082.5 2976,-1052.5 2675,-1052.5"/>
<text text-anchor="start" x="2682" y="-1063.9" font-family="Arial" font-size="14.00" fill="#000000">last_edited_by    </text>
<text text-anchor="start" x="2806.46" y="-1063.9" font-family="Arial" font-size="14.00" fill="#666666">[uuid]</text>
<polygon fill="none" stroke="#000000" points="2675,-1022.5 2675,-1052.5 2976,-1052.5 2976,-1022.5 2675,-1022.5"/>
<text text-anchor="start" x="2682" y="-1033.9" font-family="Arial" font-size="14.00" fill="#000000">posted_at    </text>
<text text-anchor="start" x="2777.6816" y="-1033.9" font-family="Arial" font-size="14.00" fill="#666666">[timestamp with time zone]</text>
<polygon fill="none" stroke="#000000" points="2675,-992.5 2675,-1022.5 2976,-1022.5 2976,-992.5 2675,-992.5"/>
<text text-anchor="start" x="2681.9825" y="-1003.9" font-family="Arial" font-size="14.00" fill="#000000">last_edited_at    </text>
<text text-anchor="start" x="2803.3331" y="-1003.9" font-family="Arial" font-size="14.00" fill="#666666">[timestamp with time zone]</text>
</g>
<!-- public.t_records&#45;&gt;public.m_organizations -->
<g id="edge8" class="edge">
<title>public.t_records:organization_id&#45;&gt;public.m_organizations:organization_id</title>
<path fill="none" stroke="#000000" d="M2665.0006,-1126.9795C2575.2976,-1116.9613 2695.0037,-964.8562 2622,-890 2517.8956,-783.2539 2120.1055,-727.5 1971,-727.5"/>
<polygon fill="#000000" stroke="#000000" points="2665.0135,-1126.98 2674.766,-1131.9939 2670.0068,-1127.24 2675,-1127.5 2675,-1127.5 2675,-1127.5 2670.0068,-1127.24 2675.234,-1123.0061 2665.0135,-1126.98 2665.0135,-1126.98"/>
<text text-anchor="start" x="2681.5285" y="-1137.5" font-family="Arial" font-size="10.00" fill="#000000">FOREIGN KEY (organization_id) REFERENCES m_organizations(organization_id) ON UPDATE SET NULL ON DELETE SET NULL</text>
</g>
</g>
</svg>
