<?xml version="1.0" encoding="UTF-8" standalone="no"?>
<!DOCTYPE svg PUBLIC "-//W3C//DTD SVG 1.1//EN"
 "http://www.w3.org/Graphics/SVG/1.1/DTD/svg11.dtd">
<!-- Generated by graphviz version 2.40.1 (20161225.0304)
 -->
<!-- Title: public.m_organizations Pages: 1 -->
<svg width="2911pt" height="952pt"
 viewBox="0.00 0.00 2911.00 952.00" xmlns="http://www.w3.org/2000/svg" xmlns:xlink="http://www.w3.org/1999/xlink">
<g id="graph0" class="graph" transform="scale(1 1) rotate(0) translate(4 948)">
<title>public.m_organizations</title>
<polygon fill="#ffffff" stroke="transparent" points="-4,4 -4,-948 2907,-948 2907,4 -4,4"/>
<!-- public.m_organizations -->
<g id="node1" class="node">
<title>public.m_organizations</title>
<polygon fill="#efefef" stroke="transparent" points="1473,-285.5 1473,-320.5 1798,-320.5 1798,-285.5 1473,-285.5"/>
<polygon fill="none" stroke="#000000" points="1473,-285.5 1473,-320.5 1798,-320.5 1798,-285.5 1473,-285.5"/>
<text text-anchor="start" x="1479.6991" y="-298.3" font-family="Arial Bold" font-size="18.00" fill="#000000">public.m_organizations</text>
<text text-anchor="start" x="1663.7329" y="-298.3" font-family="Arial" font-size="14.00" fill="#000000">    </text>
<text text-anchor="start" x="1697.9377" y="-298.3" font-family="Arial" font-size="14.00" fill="#666666">[BASE TABLE]</text>
<polygon fill="none" stroke="#000000" points="1473,-255.5 1473,-285.5 1798,-285.5 1798,-255.5 1473,-255.5"/>
<text text-anchor="start" x="1480" y="-266.9" font-family="Arial" font-size="14.00" fill="#000000">m_organizations_pkey </text>
<text text-anchor="start" x="1623.9242" y="-266.9" font-family="Arial" font-size="14.00" fill="#666666">[bigint]</text>
<polygon fill="none" stroke="#000000" points="1473,-225.5 1473,-255.5 1798,-255.5 1798,-225.5 1473,-225.5"/>
<text text-anchor="start" x="1480" y="-236.9" font-family="Arial" font-size="14.00" fill="#000000">organization_id </text>
<text text-anchor="start" x="1578.805" y="-236.9" font-family="Arial" font-size="14.00" fill="#666666">[uuid]</text>
<polygon fill="none" stroke="#000000" points="1473,-195.5 1473,-225.5 1798,-225.5 1798,-195.5 1473,-195.5"/>
<text text-anchor="start" x="1480" y="-206.9" font-family="Arial" font-size="14.00" fill="#000000">name </text>
<text text-anchor="start" x="1518.899" y="-206.9" font-family="Arial" font-size="14.00" fill="#666666">[varchar(255)]</text>
<polygon fill="none" stroke="#000000" points="1473,-165.5 1473,-195.5 1798,-195.5 1798,-165.5 1473,-165.5"/>
<text text-anchor="start" x="1480" y="-176.9" font-family="Arial" font-size="14.00" fill="#000000">description </text>
<text text-anchor="start" x="1551.568" y="-176.9" font-family="Arial" font-size="14.00" fill="#666666">[text]</text>
<polygon fill="none" stroke="#000000" points="1473,-135.5 1473,-165.5 1798,-165.5 1798,-135.5 1473,-135.5"/>
<text text-anchor="start" x="1480" y="-146.9" font-family="Arial" font-size="14.00" fill="#000000">is_personal </text>
<text text-anchor="start" x="1555.46" y="-146.9" font-family="Arial" font-size="14.00" fill="#666666">[boolean]</text>
<polygon fill="none" stroke="#000000" points="1473,-105.5 1473,-135.5 1798,-135.5 1798,-105.5 1473,-105.5"/>
<text text-anchor="start" x="1480" y="-116.9" font-family="Arial" font-size="14.00" fill="#000000">is_whole </text>
<text text-anchor="start" x="1538.3408" y="-116.9" font-family="Arial" font-size="14.00" fill="#666666">[boolean]</text>
<polygon fill="none" stroke="#000000" points="1473,-75.5 1473,-105.5 1798,-105.5 1798,-75.5 1473,-75.5"/>
<text text-anchor="start" x="1480" y="-86.9" font-family="Arial" font-size="14.00" fill="#000000">created_at </text>
<text text-anchor="start" x="1550.028" y="-86.9" font-family="Arial" font-size="14.00" fill="#666666">[timestamp with time zone]</text>
<polygon fill="none" stroke="#000000" points="1473,-45.5 1473,-75.5 1798,-75.5 1798,-45.5 1473,-45.5"/>
<text text-anchor="start" x="1480" y="-56.9" font-family="Arial" font-size="14.00" fill="#000000">updated_at </text>
<text text-anchor="start" x="1553.9326" y="-56.9" font-family="Arial" font-size="14.00" fill="#666666">[timestamp with time zone]</text>
<polygon fill="none" stroke="#000000" stroke-width="3" points="1471,-44.5 1471,-322.5 1799,-322.5 1799,-44.5 1471,-44.5"/>
</g>
<!-- public.m_groups -->
<g id="node2" class="node">
<title>public.m_groups</title>
<polygon fill="#efefef" stroke="transparent" points="334,-715.5 334,-750.5 607,-750.5 607,-715.5 334,-715.5"/>
<polygon fill="none" stroke="#000000" points="334,-715.5 334,-750.5 607,-750.5 607,-715.5 334,-715.5"/>
<text text-anchor="start" x="340.7037" y="-728.3" font-family="Arial Bold" font-size="18.00" fill="#000000">public.m_groups</text>
<text text-anchor="start" x="472.7283" y="-728.3" font-family="Arial" font-size="14.00" fill="#000000">    </text>
<text text-anchor="start" x="506.9331" y="-728.3" font-family="Arial" font-size="14.00" fill="#666666">[BASE TABLE]</text>
<polygon fill="none" stroke="#000000" points="334,-685.5 334,-715.5 607,-715.5 607,-685.5 334,-685.5"/>
<text text-anchor="start" x="341" y="-696.9" font-family="Arial" font-size="14.00" fill="#000000">m_groups_pkey    </text>
<text text-anchor="start" x="474.7868" y="-696.9" font-family="Arial" font-size="14.00" fill="#666666">[bigint]</text>
<polygon fill="none" stroke="#000000" points="334,-655.5 334,-685.5 607,-685.5 607,-655.5 334,-655.5"/>
<text text-anchor="start" x="341" y="-666.9" font-family="Arial" font-size="14.00" fill="#000000">group_id    </text>
<text text-anchor="start" x="429.6676" y="-666.9" font-family="Arial" font-size="14.00" fill="#666666">[uuid]</text>
<polygon fill="none" stroke="#000000" points="334,-625.5 334,-655.5 607,-655.5 607,-625.5 334,-625.5"/>
<text text-anchor="start" x="341" y="-636.9" font-family="Arial" font-size="14.00" fill="#000000">key    </text>
<text text-anchor="start" x="396.9874" y="-636.9" font-family="Arial" font-size="14.00" fill="#666666">[varchar(255)]</text>
<polygon fill="none" stroke="#000000" points="334,-595.5 334,-625.5 607,-625.5 607,-595.5 334,-595.5"/>
<text text-anchor="start" x="341" y="-606.9" font-family="Arial" font-size="14.00" fill="#000000">organization_id    </text>
<text text-anchor="start" x="470.1192" y="-606.9" font-family="Arial" font-size="14.00" fill="#666666">[uuid]</text>
</g>
<!-- public.m_groups&#45;&gt;public.m_organizations -->
<g id="edge1" class="edge">
<title>public.m_groups:organization_id&#45;&gt;public.m_organizations:organization_id</title>
<path fill="none" stroke="#000000" d="M617.202,-609.8637C693.4476,-599.5343 592.0611,-466.0869 658,-403 791.4395,-275.3319 1288.3239,-240.5 1473,-240.5"/>
<polygon fill="#000000" stroke="#000000" points="616.9806,-609.8774 606.7198,-606.0087 611.9903,-610.1887 607,-610.5 607,-610.5 607,-610.5 611.9903,-610.1887 607.2802,-614.9913 616.9806,-609.8774 616.9806,-609.8774"/>
<text text-anchor="start" x="7.3185" y="-620.5" font-family="Arial" font-size="10.00" fill="#000000">FOREIGN KEY (organization_id) REFERENCES m_organizations(organization_id) ON UPDATE RESTRICT ON DELETE RESTRICT</text>
</g>
<!-- public.m_grades -->
<g id="node3" class="node">
<title>public.m_grades</title>
<polygon fill="#efefef" stroke="transparent" points="711,-715.5 711,-750.5 984,-750.5 984,-715.5 711,-715.5"/>
<polygon fill="none" stroke="#000000" points="711,-715.5 711,-750.5 984,-750.5 984,-715.5 711,-715.5"/>
<text text-anchor="start" x="717.7037" y="-728.3" font-family="Arial Bold" font-size="18.00" fill="#000000">public.m_grades</text>
<text text-anchor="start" x="849.7283" y="-728.3" font-family="Arial" font-size="14.00" fill="#000000">    </text>
<text text-anchor="start" x="883.9331" y="-728.3" font-family="Arial" font-size="14.00" fill="#666666">[BASE TABLE]</text>
<polygon fill="none" stroke="#000000" points="711,-685.5 711,-715.5 984,-715.5 984,-685.5 711,-685.5"/>
<text text-anchor="start" x="718" y="-696.9" font-family="Arial" font-size="14.00" fill="#000000">m_grades_pkey    </text>
<text text-anchor="start" x="851.7868" y="-696.9" font-family="Arial" font-size="14.00" fill="#666666">[bigint]</text>
<polygon fill="none" stroke="#000000" points="711,-655.5 711,-685.5 984,-685.5 984,-655.5 711,-655.5"/>
<text text-anchor="start" x="718" y="-666.9" font-family="Arial" font-size="14.00" fill="#000000">grade_id    </text>
<text text-anchor="start" x="806.6676" y="-666.9" font-family="Arial" font-size="14.00" fill="#666666">[uuid]</text>
<polygon fill="none" stroke="#000000" points="711,-625.5 711,-655.5 984,-655.5 984,-625.5 711,-625.5"/>
<text text-anchor="start" x="718" y="-636.9" font-family="Arial" font-size="14.00" fill="#000000">key    </text>
<text text-anchor="start" x="773.9874" y="-636.9" font-family="Arial" font-size="14.00" fill="#666666">[varchar(255)]</text>
<polygon fill="none" stroke="#000000" points="711,-595.5 711,-625.5 984,-625.5 984,-595.5 711,-595.5"/>
<text text-anchor="start" x="718" y="-606.9" font-family="Arial" font-size="14.00" fill="#000000">organization_id    </text>
<text text-anchor="start" x="847.1192" y="-606.9" font-family="Arial" font-size="14.00" fill="#666666">[uuid]</text>
</g>
<!-- public.m_grades&#45;&gt;public.m_organizations -->
<g id="edge2" class="edge">
<title>public.m_grades:organization_id&#45;&gt;public.m_organizations:organization_id</title>
<path fill="none" stroke="#000000" d="M994.2258,-609.8866C1070.8539,-599.9266 974.2611,-471.1078 1035,-403 1173.1957,-248.0384 1265.3677,-240.5 1473,-240.5"/>
<polygon fill="#000000" stroke="#000000" points="993.9821,-609.9012 983.7305,-606.0081 988.991,-610.2006 984,-610.5 984,-610.5 984,-610.5 988.991,-610.2006 984.2695,-614.9919 993.9821,-609.9012 993.9821,-609.9012"/>
<text text-anchor="start" x="687.8185" y="-594.5" font-family="Arial" font-size="10.00" fill="#000000">FOREIGN KEY (organization_id) REFERENCES m_organizations(organization_id) ON UPDATE RESTRICT ON DELETE RESTRICT</text>
</g>
<!-- public.m_members -->
<g id="node4" class="node">
<title>public.m_members</title>
<polygon fill="#efefef" stroke="transparent" points="1088,-865.5 1088,-900.5 1381,-900.5 1381,-865.5 1088,-865.5"/>
<polygon fill="none" stroke="#000000" points="1088,-865.5 1088,-900.5 1381,-900.5 1381,-865.5 1088,-865.5"/>
<text text-anchor="start" x="1094.7146" y="-878.3" font-family="Arial Bold" font-size="18.00" fill="#000000">public.m_members</text>
<text text-anchor="start" x="1246.7174" y="-878.3" font-family="Arial" font-size="14.00" fill="#000000">    </text>
<text text-anchor="start" x="1280.9222" y="-878.3" font-family="Arial" font-size="14.00" fill="#666666">[BASE TABLE]</text>
<polygon fill="none" stroke="#000000" points="1088,-835.5 1088,-865.5 1381,-865.5 1381,-835.5 1088,-835.5"/>
<text text-anchor="start" x="1095" y="-846.9" font-family="Arial" font-size="14.00" fill="#000000">m_members_pkey    </text>
<text text-anchor="start" x="1244.3254" y="-846.9" font-family="Arial" font-size="14.00" fill="#666666">[bigint]</text>
<polygon fill="none" stroke="#000000" points="1088,-805.5 1088,-835.5 1381,-835.5 1381,-805.5 1088,-805.5"/>
<text text-anchor="start" x="1095" y="-816.9" font-family="Arial" font-size="14.00" fill="#000000">member_id    </text>
<text text-anchor="start" x="1199.2062" y="-816.9" font-family="Arial" font-size="14.00" fill="#666666">[uuid]</text>
<polygon fill="none" stroke="#000000" points="1088,-775.5 1088,-805.5 1381,-805.5 1381,-775.5 1088,-775.5"/>
<text text-anchor="start" x="1095" y="-786.9" font-family="Arial" font-size="14.00" fill="#000000">login_id    </text>
<text text-anchor="start" x="1177.4376" y="-786.9" font-family="Arial" font-size="14.00" fill="#666666">[varchar(255)]</text>
<polygon fill="none" stroke="#000000" points="1088,-745.5 1088,-775.5 1381,-775.5 1381,-745.5 1088,-745.5"/>
<text text-anchor="start" x="1095" y="-756.9" font-family="Arial" font-size="14.00" fill="#000000">password    </text>
<text text-anchor="start" x="1189.1024" y="-756.9" font-family="Arial" font-size="14.00" fill="#666666">[varchar(255)]</text>
<polygon fill="none" stroke="#000000" points="1088,-715.5 1088,-745.5 1381,-745.5 1381,-715.5 1088,-715.5"/>
<text text-anchor="start" x="1095" y="-726.9" font-family="Arial" font-size="14.00" fill="#000000">email    </text>
<text text-anchor="start" x="1162.6438" y="-726.9" font-family="Arial" font-size="14.00" fill="#666666">[varchar(255)]</text>
<polygon fill="none" stroke="#000000" points="1088,-685.5 1088,-715.5 1381,-715.5 1381,-685.5 1088,-685.5"/>
<text text-anchor="start" x="1095" y="-696.9" font-family="Arial" font-size="14.00" fill="#000000">name    </text>
<text text-anchor="start" x="1164.2132" y="-696.9" font-family="Arial" font-size="14.00" fill="#666666">[varchar(255)]</text>
<polygon fill="none" stroke="#000000" points="1088,-655.5 1088,-685.5 1381,-685.5 1381,-655.5 1088,-655.5"/>
<text text-anchor="start" x="1095" y="-666.9" font-family="Arial" font-size="14.00" fill="#000000">attend_status_id    </text>
<text text-anchor="start" x="1231.9172" y="-666.9" font-family="Arial" font-size="14.00" fill="#666666">[uuid]</text>
<polygon fill="none" stroke="#000000" points="1088,-625.5 1088,-655.5 1381,-655.5 1381,-625.5 1088,-625.5"/>
<text text-anchor="start" x="1095" y="-636.9" font-family="Arial" font-size="14.00" fill="#000000">profile_image_id    </text>
<text text-anchor="start" x="1231.8864" y="-636.9" font-family="Arial" font-size="14.00" fill="#666666">[uuid]</text>
<polygon fill="none" stroke="#000000" points="1088,-595.5 1088,-625.5 1381,-625.5 1381,-595.5 1088,-595.5"/>
<text text-anchor="start" x="1095" y="-606.9" font-family="Arial" font-size="14.00" fill="#000000">grade_id    </text>
<text text-anchor="start" x="1183.6676" y="-606.9" font-family="Arial" font-size="14.00" fill="#666666">[uuid]</text>
<polygon fill="none" stroke="#000000" points="1088,-565.5 1088,-595.5 1381,-595.5 1381,-565.5 1088,-565.5"/>
<text text-anchor="start" x="1095" y="-576.9" font-family="Arial" font-size="14.00" fill="#000000">group_id    </text>
<text text-anchor="start" x="1183.6676" y="-576.9" font-family="Arial" font-size="14.00" fill="#666666">[uuid]</text>
<polygon fill="none" stroke="#000000" points="1088,-535.5 1088,-565.5 1381,-565.5 1381,-535.5 1088,-535.5"/>
<text text-anchor="start" x="1095" y="-546.9" font-family="Arial" font-size="14.00" fill="#000000">personal_organization_id    </text>
<text text-anchor="start" x="1285.582" y="-546.9" font-family="Arial" font-size="14.00" fill="#666666">[uuid]</text>
<polygon fill="none" stroke="#000000" points="1088,-505.5 1088,-535.5 1381,-535.5 1381,-505.5 1088,-505.5"/>
<text text-anchor="start" x="1095" y="-516.9" font-family="Arial" font-size="14.00" fill="#000000">role_id    </text>
<text text-anchor="start" x="1171.209" y="-516.9" font-family="Arial" font-size="14.00" fill="#666666">[uuid]</text>
<polygon fill="none" stroke="#000000" points="1088,-475.5 1088,-505.5 1381,-505.5 1381,-475.5 1088,-475.5"/>
<text text-anchor="start" x="1095" y="-486.9" font-family="Arial" font-size="14.00" fill="#000000">created_at    </text>
<text text-anchor="start" x="1195.3422" y="-486.9" font-family="Arial" font-size="14.00" fill="#666666">[timestamp with time zone]</text>
<polygon fill="none" stroke="#000000" points="1088,-445.5 1088,-475.5 1381,-475.5 1381,-445.5 1088,-445.5"/>
<text text-anchor="start" x="1095" y="-456.9" font-family="Arial" font-size="14.00" fill="#000000">updated_at    </text>
<text text-anchor="start" x="1199.2468" y="-456.9" font-family="Arial" font-size="14.00" fill="#666666">[timestamp with time zone]</text>
</g>
<!-- public.m_members&#45;&gt;public.m_organizations -->
<g id="edge3" class="edge">
<title>public.m_members:personal_organization_id&#45;&gt;public.m_organizations:organization_id</title>
<path fill="none" stroke="#000000" d="M1391.0236,-548.183C1447.9247,-519.815 1404.7905,-240.5 1473,-240.5"/>
<polygon fill="#000000" stroke="#000000" points="1390.7431,-548.2477 1379.9865,-546.1156 1385.8715,-549.3739 1381,-550.5 1381,-550.5 1381,-550.5 1385.8715,-549.3739 1382.0135,-554.8844 1390.7431,-548.2477 1390.7431,-548.2477"/>
<text text-anchor="start" x="737.3675" y="-534.5" font-family="Arial" font-size="10.00" fill="#000000">FOREIGN KEY (personal_organization_id) REFERENCES m_organizations(organization_id) ON UPDATE RESTRICT ON DELETE RESTRICT</text>
</g>
<!-- public.t_events -->
<g id="node5" class="node">
<title>public.t_events</title>
<polygon fill="#efefef" stroke="transparent" points="1485,-865.5 1485,-900.5 1786,-900.5 1786,-865.5 1485,-865.5"/>
<polygon fill="none" stroke="#000000" points="1485,-865.5 1485,-900.5 1786,-900.5 1786,-865.5 1485,-865.5"/>
<text text-anchor="start" x="1511.6968" y="-878.3" font-family="Arial Bold" font-size="18.00" fill="#000000">public.t_events</text>
<text text-anchor="start" x="1631.7352" y="-878.3" font-family="Arial" font-size="14.00" fill="#000000">    </text>
<text text-anchor="start" x="1665.94" y="-878.3" font-family="Arial" font-size="14.00" fill="#666666">[BASE TABLE]</text>
<polygon fill="none" stroke="#000000" points="1485,-835.5 1485,-865.5 1786,-865.5 1786,-835.5 1485,-835.5"/>
<text text-anchor="start" x="1492" y="-846.9" font-family="Arial" font-size="14.00" fill="#000000">t_events_pkey    </text>
<text text-anchor="start" x="1616.4642" y="-846.9" font-family="Arial" font-size="14.00" fill="#666666">[bigint]</text>
<polygon fill="none" stroke="#000000" points="1485,-805.5 1485,-835.5 1786,-835.5 1786,-805.5 1485,-805.5"/>
<text text-anchor="start" x="1492" y="-816.9" font-family="Arial" font-size="14.00" fill="#000000">event_id    </text>
<text text-anchor="start" x="1579.115" y="-816.9" font-family="Arial" font-size="14.00" fill="#666666">[uuid]</text>
<polygon fill="none" stroke="#000000" points="1485,-775.5 1485,-805.5 1786,-805.5 1786,-775.5 1485,-775.5"/>
<text text-anchor="start" x="1492" y="-786.9" font-family="Arial" font-size="14.00" fill="#000000">event_type_id    </text>
<text text-anchor="start" x="1613.3534" y="-786.9" font-family="Arial" font-size="14.00" fill="#666666">[uuid]</text>
<polygon fill="none" stroke="#000000" points="1485,-745.5 1485,-775.5 1786,-775.5 1786,-745.5 1485,-745.5"/>
<text text-anchor="start" x="1492" y="-756.9" font-family="Arial" font-size="14.00" fill="#000000">title    </text>
<text text-anchor="start" x="1547.9818" y="-756.9" font-family="Arial" font-size="14.00" fill="#666666">[varchar(255)]</text>
<polygon fill="none" stroke="#000000" points="1485,-715.5 1485,-745.5 1786,-745.5 1786,-715.5 1485,-715.5"/>
<text text-anchor="start" x="1492" y="-726.9" font-family="Arial" font-size="14.00" fill="#000000">description    </text>
<text text-anchor="start" x="1593.8822" y="-726.9" font-family="Arial" font-size="14.00" fill="#666666">[text]</text>
<polygon fill="none" stroke="#000000" points="1485,-685.5 1485,-715.5 1786,-715.5 1786,-685.5 1485,-685.5"/>
<text text-anchor="start" x="1492" y="-696.9" font-family="Arial" font-size="14.00" fill="#000000">organization_id    </text>
<text text-anchor="start" x="1621.1192" y="-696.9" font-family="Arial" font-size="14.00" fill="#666666">[uuid]</text>
<polygon fill="none" stroke="#000000" points="1485,-655.5 1485,-685.5 1786,-685.5 1786,-655.5 1485,-655.5"/>
<text text-anchor="start" x="1492" y="-666.9" font-family="Arial" font-size="14.00" fill="#000000">start_time    </text>
<text text-anchor="start" x="1587.6522" y="-666.9" font-family="Arial" font-size="14.00" fill="#666666">[timestamp with time zone]</text>
<polygon fill="none" stroke="#000000" points="1485,-625.5 1485,-655.5 1786,-655.5 1786,-625.5 1485,-625.5"/>
<text text-anchor="start" x="1492" y="-636.9" font-family="Arial" font-size="14.00" fill="#000000">end_time    </text>
<text text-anchor="start" x="1583.7756" y="-636.9" font-family="Arial" font-size="14.00" fill="#666666">[timestamp with time zone]</text>
<polygon fill="none" stroke="#000000" points="1485,-595.5 1485,-625.5 1786,-625.5 1786,-595.5 1485,-595.5"/>
<text text-anchor="start" x="1492" y="-606.9" font-family="Arial" font-size="14.00" fill="#000000">mail_send_flag    </text>
<text text-anchor="start" x="1620.3366" y="-606.9" font-family="Arial" font-size="14.00" fill="#666666">[boolean]</text>
<polygon fill="none" stroke="#000000" points="1485,-565.5 1485,-595.5 1786,-595.5 1786,-565.5 1485,-565.5"/>
<text text-anchor="start" x="1492" y="-576.9" font-family="Arial" font-size="14.00" fill="#000000">send_organization_id    </text>
<text text-anchor="start" x="1659.2496" y="-576.9" font-family="Arial" font-size="14.00" fill="#666666">[uuid]</text>
<polygon fill="none" stroke="#000000" points="1485,-535.5 1485,-565.5 1786,-565.5 1786,-535.5 1485,-535.5"/>
<text text-anchor="start" x="1492" y="-546.9" font-family="Arial" font-size="14.00" fill="#000000">posted_by    </text>
<text text-anchor="start" x="1590.791" y="-546.9" font-family="Arial" font-size="14.00" fill="#666666">[uuid]</text>
<polygon fill="none" stroke="#000000" points="1485,-505.5 1485,-535.5 1786,-535.5 1786,-505.5 1485,-505.5"/>
<text text-anchor="start" x="1492" y="-516.9" font-family="Arial" font-size="14.00" fill="#000000">last_edited_by    </text>
<text text-anchor="start" x="1616.46" y="-516.9" font-family="Arial" font-size="14.00" fill="#666666">[uuid]</text>
<polygon fill="none" stroke="#000000" points="1485,-475.5 1485,-505.5 1786,-505.5 1786,-475.5 1485,-475.5"/>
<text text-anchor="start" x="1492" y="-486.9" font-family="Arial" font-size="14.00" fill="#000000">posted_at    </text>
<text text-anchor="start" x="1587.6816" y="-486.9" font-family="Arial" font-size="14.00" fill="#666666">[timestamp with time zone]</text>
<polygon fill="none" stroke="#000000" points="1485,-445.5 1485,-475.5 1786,-475.5 1786,-445.5 1485,-445.5"/>
<text text-anchor="start" x="1491.9825" y="-456.9" font-family="Arial" font-size="14.00" fill="#000000">last_edited_at    </text>
<text text-anchor="start" x="1613.3331" y="-456.9" font-family="Arial" font-size="14.00" fill="#666666">[timestamp with time zone]</text>
</g>
<!-- public.t_events&#45;&gt;public.m_organizations -->
<g id="edge4" class="edge">
<title>public.t_events:organization_id&#45;&gt;public.m_organizations:organization_id</title>
<path fill="none" stroke="#000000" d="M1476.1486,-695.6452C1432.6498,-646.4832 1424.9672,-240.5 1473,-240.5"/>
<polygon fill="#000000" stroke="#000000" points="1476.2322,-695.691 1482.836,-704.4455 1480.6161,-698.0955 1485,-700.5 1485,-700.5 1485,-700.5 1480.6161,-698.0955 1487.164,-696.5545 1476.2322,-695.691 1476.2322,-695.691"/>
<text text-anchor="start" x="1491.5285" y="-710.5" font-family="Arial" font-size="10.00" fill="#000000">FOREIGN KEY (organization_id) REFERENCES m_organizations(organization_id) ON UPDATE SET NULL ON DELETE SET NULL</text>
</g>
<!-- public.t_events&#45;&gt;public.m_organizations -->
<g id="edge5" class="edge">
<title>public.t_events:send_organization_id&#45;&gt;public.m_organizations:organization_id</title>
<path fill="none" stroke="#000000" d="M1476.6242,-574.5987C1445.6277,-529.4502 1438.1519,-240.5 1473,-240.5"/>
<polygon fill="#000000" stroke="#000000" points="1476.8253,-574.7403 1482.4081,-584.1786 1480.9126,-577.6201 1485,-580.5 1485,-580.5 1485,-580.5 1480.9126,-577.6201 1487.5919,-576.8214 1476.8253,-574.7403 1476.8253,-574.7403"/>
<text text-anchor="start" x="1491.9105" y="-590.5" font-family="Arial" font-size="10.00" fill="#000000">FOREIGN KEY (send_organization_id) REFERENCES m_organizations(organization_id) ON UPDATE SET NULL ON DELETE SET NULL</text>
</g>
<!-- public.t_attendances -->
<g id="node6" class="node">
<title>public.t_attendances</title>
<polygon fill="#efefef" stroke="transparent" points="1890,-805.5 1890,-840.5 2196,-840.5 2196,-805.5 1890,-805.5"/>
<polygon fill="none" stroke="#000000" points="1890,-805.5 1890,-840.5 2196,-840.5 2196,-805.5 1890,-805.5"/>
<text text-anchor="start" x="1896.6833" y="-818.3" font-family="Arial Bold" font-size="18.00" fill="#000000">public.t_attendances</text>
<text text-anchor="start" x="2061.7487" y="-818.3" font-family="Arial" font-size="14.00" fill="#000000">    </text>
<text text-anchor="start" x="2095.9535" y="-818.3" font-family="Arial" font-size="14.00" fill="#666666">[BASE TABLE]</text>
<polygon fill="none" stroke="#000000" points="1890,-775.5 1890,-805.5 2196,-805.5 2196,-775.5 1890,-775.5"/>
<text text-anchor="start" x="1897" y="-786.9" font-family="Arial" font-size="14.00" fill="#000000">t_attendances_pkey    </text>
<text text-anchor="start" x="2056.4852" y="-786.9" font-family="Arial" font-size="14.00" fill="#666666">[bigint]</text>
<polygon fill="none" stroke="#000000" points="1890,-745.5 1890,-775.5 2196,-775.5 2196,-745.5 1890,-745.5"/>
<text text-anchor="start" x="1897" y="-756.9" font-family="Arial" font-size="14.00" fill="#000000">attendance_id    </text>
<text text-anchor="start" x="2019.136" y="-756.9" font-family="Arial" font-size="14.00" fill="#666666">[uuid]</text>
<polygon fill="none" stroke="#000000" points="1890,-715.5 1890,-745.5 2196,-745.5 2196,-715.5 1890,-715.5"/>
<text text-anchor="start" x="1897" y="-726.9" font-family="Arial" font-size="14.00" fill="#000000">attendance_type_id    </text>
<text text-anchor="start" x="2053.3744" y="-726.9" font-family="Arial" font-size="14.00" fill="#666666">[uuid]</text>
<polygon fill="none" stroke="#000000" points="1890,-685.5 1890,-715.5 2196,-715.5 2196,-685.5 1890,-685.5"/>
<text text-anchor="start" x="1897" y="-696.9" font-family="Arial" font-size="14.00" fill="#000000">member_id    </text>
<text text-anchor="start" x="2001.2062" y="-696.9" font-family="Arial" font-size="14.00" fill="#666666">[uuid]</text>
<polygon fill="none" stroke="#000000" points="1890,-655.5 1890,-685.5 2196,-685.5 2196,-655.5 1890,-655.5"/>
<text text-anchor="start" x="1897" y="-666.9" font-family="Arial" font-size="14.00" fill="#000000">description    </text>
<text text-anchor="start" x="1998.8822" y="-666.9" font-family="Arial" font-size="14.00" fill="#666666">[text]</text>
<polygon fill="none" stroke="#000000" points="1890,-625.5 1890,-655.5 2196,-655.5 2196,-625.5 1890,-625.5"/>
<text text-anchor="start" x="1897" y="-636.9" font-family="Arial" font-size="14.00" fill="#000000">date    </text>
<text text-anchor="start" x="1958.4432" y="-636.9" font-family="Arial" font-size="14.00" fill="#666666">[date]</text>
<polygon fill="none" stroke="#000000" points="1890,-595.5 1890,-625.5 2196,-625.5 2196,-595.5 1890,-595.5"/>
<text text-anchor="start" x="1897" y="-606.9" font-family="Arial" font-size="14.00" fill="#000000">mail_send_flag    </text>
<text text-anchor="start" x="2025.3366" y="-606.9" font-family="Arial" font-size="14.00" fill="#666666">[boolean]</text>
<polygon fill="none" stroke="#000000" points="1890,-565.5 1890,-595.5 2196,-595.5 2196,-565.5 1890,-565.5"/>
<text text-anchor="start" x="1897" y="-576.9" font-family="Arial" font-size="14.00" fill="#000000">send_organization_id    </text>
<text text-anchor="start" x="2064.2496" y="-576.9" font-family="Arial" font-size="14.00" fill="#666666">[uuid]</text>
<polygon fill="none" stroke="#000000" points="1890,-535.5 1890,-565.5 2196,-565.5 2196,-535.5 1890,-535.5"/>
<text text-anchor="start" x="1897" y="-546.9" font-family="Arial" font-size="14.00" fill="#000000">posted_at    </text>
<text text-anchor="start" x="1992.6816" y="-546.9" font-family="Arial" font-size="14.00" fill="#666666">[timestamp with time zone]</text>
<polygon fill="none" stroke="#000000" points="1890,-505.5 1890,-535.5 2196,-535.5 2196,-505.5 1890,-505.5"/>
<text text-anchor="start" x="1897" y="-516.9" font-family="Arial" font-size="14.00" fill="#000000">last_edited_at    </text>
<text text-anchor="start" x="2018.3506" y="-516.9" font-family="Arial" font-size="14.00" fill="#666666">[timestamp with time zone]</text>
</g>
<!-- public.t_attendances&#45;&gt;public.m_organizations -->
<g id="edge6" class="edge">
<title>public.t_attendances:send_organization_id&#45;&gt;public.m_organizations:organization_id</title>
<path fill="none" stroke="#000000" d="M1879.9049,-578.3288C1817.4646,-549.3721 1872.6037,-240.5 1798,-240.5"/>
<polygon fill="#000000" stroke="#000000" points="1880.2236,-578.3973 1889.0538,-584.8994 1885.1118,-579.4486 1890,-580.5 1890,-580.5 1890,-580.5 1885.1118,-579.4486 1890.9462,-576.1006 1880.2236,-578.3973 1880.2236,-578.3973"/>
<text text-anchor="start" x="1896.9105" y="-564.5" font-family="Arial" font-size="10.00" fill="#000000">FOREIGN KEY (send_organization_id) REFERENCES m_organizations(organization_id) ON UPDATE SET NULL ON DELETE SET NULL</text>
</g>
<!-- public.t_records -->
<g id="node7" class="node">
<title>public.t_records</title>
<polygon fill="#efefef" stroke="transparent" points="2301,-805.5 2301,-840.5 2602,-840.5 2602,-805.5 2301,-805.5"/>
<polygon fill="none" stroke="#000000" points="2301,-805.5 2301,-840.5 2602,-840.5 2602,-805.5 2301,-805.5"/>
<text text-anchor="start" x="2324.2057" y="-818.3" font-family="Arial Bold" font-size="18.00" fill="#000000">public.t_records</text>
<text text-anchor="start" x="2451.2263" y="-818.3" font-family="Arial" font-size="14.00" fill="#000000">    </text>
<text text-anchor="start" x="2485.4311" y="-818.3" font-family="Arial" font-size="14.00" fill="#666666">[BASE TABLE]</text>
<polygon fill="none" stroke="#000000" points="2301,-775.5 2301,-805.5 2602,-805.5 2602,-775.5 2301,-775.5"/>
<text text-anchor="start" x="2308" y="-786.9" font-family="Arial" font-size="14.00" fill="#000000">t_records_pkey    </text>
<text text-anchor="start" x="2437.8948" y="-786.9" font-family="Arial" font-size="14.00" fill="#666666">[bigint]</text>
<polygon fill="none" stroke="#000000" points="2301,-745.5 2301,-775.5 2602,-775.5 2602,-745.5 2301,-745.5"/>
<text text-anchor="start" x="2308" y="-756.9" font-family="Arial" font-size="14.00" fill="#000000">record_id    </text>
<text text-anchor="start" x="2400.5456" y="-756.9" font-family="Arial" font-size="14.00" fill="#666666">[uuid]</text>
<polygon fill="none" stroke="#000000" points="2301,-715.5 2301,-745.5 2602,-745.5 2602,-715.5 2301,-715.5"/>
<text text-anchor="start" x="2308" y="-726.9" font-family="Arial" font-size="14.00" fill="#000000">record_type_id    </text>
<text text-anchor="start" x="2434.784" y="-726.9" font-family="Arial" font-size="14.00" fill="#666666">[uuid]</text>
<polygon fill="none" stroke="#000000" points="2301,-685.5 2301,-715.5 2602,-715.5 2602,-685.5 2301,-685.5"/>
<text text-anchor="start" x="2308" y="-696.9" font-family="Arial" font-size="14.00" fill="#000000">title    </text>
<text text-anchor="start" x="2363.9818" y="-696.9" font-family="Arial" font-size="14.00" fill="#666666">[varchar(255)]</text>
<polygon fill="none" stroke="#000000" points="2301,-655.5 2301,-685.5 2602,-685.5 2602,-655.5 2301,-655.5"/>
<text text-anchor="start" x="2308" y="-666.9" font-family="Arial" font-size="14.00" fill="#000000">body    </text>
<text text-anchor="start" x="2372.5526" y="-666.9" font-family="Arial" font-size="14.00" fill="#666666">[text]</text>
<polygon fill="none" stroke="#000000" points="2301,-625.5 2301,-655.5 2602,-655.5 2602,-625.5 2301,-625.5"/>
<text text-anchor="start" x="2308" y="-636.9" font-family="Arial" font-size="14.00" fill="#000000">organization_id    </text>
<text text-anchor="start" x="2437.1192" y="-636.9" font-family="Arial" font-size="14.00" fill="#666666">[uuid]</text>
<polygon fill="none" stroke="#000000" points="2301,-595.5 2301,-625.5 2602,-625.5 2602,-595.5 2301,-595.5"/>
<text text-anchor="start" x="2308" y="-606.9" font-family="Arial" font-size="14.00" fill="#000000">posted_by    </text>
<text text-anchor="start" x="2406.791" y="-606.9" font-family="Arial" font-size="14.00" fill="#666666">[uuid]</text>
<polygon fill="none" stroke="#000000" points="2301,-565.5 2301,-595.5 2602,-595.5 2602,-565.5 2301,-565.5"/>
<text text-anchor="start" x="2308" y="-576.9" font-family="Arial" font-size="14.00" fill="#000000">last_edited_by    </text>
<text text-anchor="start" x="2432.46" y="-576.9" font-family="Arial" font-size="14.00" fill="#666666">[uuid]</text>
<polygon fill="none" stroke="#000000" points="2301,-535.5 2301,-565.5 2602,-565.5 2602,-535.5 2301,-535.5"/>
<text text-anchor="start" x="2308" y="-546.9" font-family="Arial" font-size="14.00" fill="#000000">posted_at    </text>
<text text-anchor="start" x="2403.6816" y="-546.9" font-family="Arial" font-size="14.00" fill="#666666">[timestamp with time zone]</text>
<polygon fill="none" stroke="#000000" points="2301,-505.5 2301,-535.5 2602,-535.5 2602,-505.5 2301,-505.5"/>
<text text-anchor="start" x="2307.9825" y="-516.9" font-family="Arial" font-size="14.00" fill="#000000">last_edited_at    </text>
<text text-anchor="start" x="2429.3331" y="-516.9" font-family="Arial" font-size="14.00" fill="#666666">[timestamp with time zone]</text>
</g>
<!-- public.t_records&#45;&gt;public.m_organizations -->
<g id="edge7" class="edge">
<title>public.t_records:organization_id&#45;&gt;public.m_organizations:organization_id</title>
<path fill="none" stroke="#000000" d="M2290.9877,-639.9914C2201.0381,-630.2018 2317.0958,-481.4778 2248,-403 2107.4831,-243.4035 2010.6407,-240.5 1798,-240.5"/>
<polygon fill="#000000" stroke="#000000" points="2291.0129,-639.9926 2300.7717,-644.9942 2296.0064,-640.2463 2301,-640.5 2301,-640.5 2301,-640.5 2296.0064,-640.2463 2301.2283,-636.0058 2291.0129,-639.9926 2291.0129,-639.9926"/>
<text text-anchor="start" x="2307.5285" y="-650.5" font-family="Arial" font-size="10.00" fill="#000000">FOREIGN KEY (organization_id) REFERENCES m_organizations(organization_id) ON UPDATE SET NULL ON DELETE SET NULL</text>
</g>
</g>
</svg>
