<?xml version="1.0" encoding="UTF-8" standalone="no"?>
<!DOCTYPE svg PUBLIC "-//W3C//DTD SVG 1.1//EN"
 "http://www.w3.org/Graphics/SVG/1.1/DTD/svg11.dtd">
<!-- Generated by graphviz version 2.40.1 (20161225.0304)
 -->
<!-- Title: public.t_images Pages: 1 -->
<svg width="1250pt" height="1319pt"
 viewBox="0.00 0.00 1250.00 1319.00" xmlns="http://www.w3.org/2000/svg" xmlns:xlink="http://www.w3.org/1999/xlink">
<g id="graph0" class="graph" transform="scale(1 1) rotate(0) translate(4 1315)">
<title>public.t_images</title>
<polygon fill="#ffffff" stroke="transparent" points="-4,4 -4,-1315 1246,-1315 1246,4 -4,4"/>
<!-- public.t_images -->
<g id="node1" class="node">
<title>public.t_images</title>
<polygon fill="#efefef" stroke="transparent" points="517,-592.5 517,-627.5 783,-627.5 783,-592.5 517,-592.5"/>
<polygon fill="none" stroke="#000000" points="517,-592.5 517,-627.5 783,-627.5 783,-592.5 517,-592.5"/>
<text text-anchor="start" x="523.7047" y="-605.3" font-family="Arial Bold" font-size="18.00" fill="#000000">public.t_images</text>
<text text-anchor="start" x="648.7273" y="-605.3" font-family="Arial" font-size="14.00" fill="#000000">    </text>
<text text-anchor="start" x="682.9321" y="-605.3" font-family="Arial" font-size="14.00" fill="#666666">[BASE TABLE]</text>
<polygon fill="none" stroke="#000000" points="517,-562.5 517,-592.5 783,-592.5 783,-562.5 517,-562.5"/>
<text text-anchor="start" x="524" y="-573.9" font-family="Arial" font-size="14.00" fill="#000000">t_images_pkey </text>
<text text-anchor="start" x="622.0266" y="-573.9" font-family="Arial" font-size="14.00" fill="#666666">[bigint]</text>
<polygon fill="none" stroke="#000000" points="517,-532.5 517,-562.5 783,-562.5 783,-532.5 517,-532.5"/>
<text text-anchor="start" x="524" y="-543.9" font-family="Arial" font-size="14.00" fill="#000000">image_id </text>
<text text-anchor="start" x="584.6774" y="-543.9" font-family="Arial" font-size="14.00" fill="#666666">[uuid]</text>
<polygon fill="none" stroke="#000000" points="517,-502.5 517,-532.5 783,-532.5 783,-502.5 517,-502.5"/>
<text text-anchor="start" x="524" y="-513.9" font-family="Arial" font-size="14.00" fill="#000000">height </text>
<text text-anchor="start" x="566.0182" y="-513.9" font-family="Arial" font-size="14.00" fill="#666666">[double precision]</text>
<polygon fill="none" stroke="#000000" points="517,-472.5 517,-502.5 783,-502.5 783,-472.5 517,-472.5"/>
<text text-anchor="start" x="524" y="-483.9" font-family="Arial" font-size="14.00" fill="#000000">width </text>
<text text-anchor="start" x="560.5596" y="-483.9" font-family="Arial" font-size="14.00" fill="#666666">[double precision]</text>
<polygon fill="none" stroke="#000000" points="517,-442.5 517,-472.5 783,-472.5 783,-442.5 517,-442.5"/>
<text text-anchor="start" x="524" y="-453.9" font-family="Arial" font-size="14.00" fill="#000000">attachable_item_id </text>
<text text-anchor="start" x="645.3688" y="-453.9" font-family="Arial" font-size="14.00" fill="#666666">[uuid]</text>
<polygon fill="none" stroke="#000000" stroke-width="3" points="515.5,-441.5 515.5,-629.5 784.5,-629.5 784.5,-441.5 515.5,-441.5"/>
</g>
<!-- public.t_attachable_items -->
<g id="node4" class="node">
<title>public.t_attachable_items</title>
<polygon fill="#efefef" stroke="transparent" points="478,-282.5 478,-317.5 822,-317.5 822,-282.5 478,-282.5"/>
<polygon fill="none" stroke="#000000" points="478,-282.5 478,-317.5 822,-317.5 822,-282.5 478,-282.5"/>
<text text-anchor="start" x="484.6888" y="-295.3" font-family="Arial Bold" font-size="18.00" fill="#000000">public.t_attachable_items</text>
<text text-anchor="start" x="687.7432" y="-295.3" font-family="Arial" font-size="14.00" fill="#000000">    </text>
<text text-anchor="start" x="721.948" y="-295.3" font-family="Arial" font-size="14.00" fill="#666666">[BASE TABLE]</text>
<polygon fill="none" stroke="#000000" points="478,-252.5 478,-282.5 822,-282.5 822,-252.5 478,-252.5"/>
<text text-anchor="start" x="485" y="-263.9" font-family="Arial" font-size="14.00" fill="#000000">t_attachable_items_pkey    </text>
<text text-anchor="start" x="674.0322" y="-263.9" font-family="Arial" font-size="14.00" fill="#666666">[bigint]</text>
<polygon fill="none" stroke="#000000" points="478,-222.5 478,-252.5 822,-252.5 822,-222.5 478,-222.5"/>
<text text-anchor="start" x="485" y="-233.9" font-family="Arial" font-size="14.00" fill="#000000">attachable_item_id    </text>
<text text-anchor="start" x="636.683" y="-233.9" font-family="Arial" font-size="14.00" fill="#666666">[uuid]</text>
<polygon fill="none" stroke="#000000" points="478,-192.5 478,-222.5 822,-222.5 822,-192.5 478,-192.5"/>
<text text-anchor="start" x="485" y="-203.9" font-family="Arial" font-size="14.00" fill="#000000">url    </text>
<text text-anchor="start" x="534.7546" y="-203.9" font-family="Arial" font-size="14.00" fill="#666666">[text]</text>
<polygon fill="none" stroke="#000000" points="478,-162.5 478,-192.5 822,-192.5 822,-162.5 478,-162.5"/>
<text text-anchor="start" x="485" y="-173.9" font-family="Arial" font-size="14.00" fill="#000000">size    </text>
<text text-anchor="start" x="544.094" y="-173.9" font-family="Arial" font-size="14.00" fill="#666666">[double precision]</text>
<polygon fill="none" stroke="#000000" points="478,-132.5 478,-162.5 822,-162.5 822,-132.5 478,-132.5"/>
<text text-anchor="start" x="485" y="-143.9" font-family="Arial" font-size="14.00" fill="#000000">alias    </text>
<text text-anchor="start" x="547.9832" y="-143.9" font-family="Arial" font-size="14.00" fill="#666666">[varchar(255)]</text>
<polygon fill="none" stroke="#000000" points="478,-102.5 478,-132.5 822,-132.5 822,-102.5 478,-102.5"/>
<text text-anchor="start" x="485" y="-113.9" font-family="Arial" font-size="14.00" fill="#000000">mime_type_id    </text>
<text text-anchor="start" x="606.3254" y="-113.9" font-family="Arial" font-size="14.00" fill="#666666">[uuid]</text>
<polygon fill="none" stroke="#000000" points="478,-72.5 478,-102.5 822,-102.5 822,-72.5 478,-72.5"/>
<text text-anchor="start" x="485" y="-83.9" font-family="Arial" font-size="14.00" fill="#000000">owner_id    </text>
<text text-anchor="start" x="575.9916" y="-83.9" font-family="Arial" font-size="14.00" fill="#666666">[uuid]</text>
<polygon fill="none" stroke="#000000" points="478,-42.5 478,-72.5 822,-72.5 822,-42.5 478,-42.5"/>
<text text-anchor="start" x="485" y="-53.9" font-family="Arial" font-size="14.00" fill="#000000">from_outer    </text>
<text text-anchor="start" x="586.8808" y="-53.9" font-family="Arial" font-size="14.00" fill="#666666">[boolean]</text>
</g>
<!-- public.t_images&#45;&gt;public.t_attachable_items -->
<g id="edge3" class="edge">
<title>public.t_images:attachable_item_id&#45;&gt;public.t_attachable_items:attachable_item_id</title>
<path fill="none" stroke="#000000" d="M650.6856,-432.453C660.7437,-364.0472 778.7125,-429.4124 822,-361 851.3489,-314.6165 876.8889,-237.5 822,-237.5"/>
<polygon fill="#000000" stroke="#000000" points="650.6809,-432.5232 645.5104,-442.1936 650.3405,-437.5116 650,-442.5 650,-442.5 650,-442.5 650.3405,-437.5116 654.4896,-442.8064 650.6809,-432.5232 650.6809,-432.5232"/>
<text text-anchor="start" x="6.918" y="-452.5" font-family="Arial" font-size="10.00" fill="#000000">FOREIGN KEY (attachable_item_id) REFERENCES t_attachable_items(attachable_item_id) ON UPDATE RESTRICT ON DELETE RESTRICT</text>
</g>
<!-- public.m_members -->
<g id="node2" class="node">
<title>public.m_members</title>
<polygon fill="#efefef" stroke="transparent" points="300,-1232.5 300,-1267.5 593,-1267.5 593,-1232.5 300,-1232.5"/>
<polygon fill="none" stroke="#000000" points="300,-1232.5 300,-1267.5 593,-1267.5 593,-1232.5 300,-1232.5"/>
<text text-anchor="start" x="306.7146" y="-1245.3" font-family="Arial Bold" font-size="18.00" fill="#000000">public.m_members</text>
<text text-anchor="start" x="458.7174" y="-1245.3" font-family="Arial" font-size="14.00" fill="#000000">    </text>
<text text-anchor="start" x="492.9222" y="-1245.3" font-family="Arial" font-size="14.00" fill="#666666">[BASE TABLE]</text>
<polygon fill="none" stroke="#000000" points="300,-1202.5 300,-1232.5 593,-1232.5 593,-1202.5 300,-1202.5"/>
<text text-anchor="start" x="307" y="-1213.9" font-family="Arial" font-size="14.00" fill="#000000">m_members_pkey    </text>
<text text-anchor="start" x="456.3254" y="-1213.9" font-family="Arial" font-size="14.00" fill="#666666">[bigint]</text>
<polygon fill="none" stroke="#000000" points="300,-1172.5 300,-1202.5 593,-1202.5 593,-1172.5 300,-1172.5"/>
<text text-anchor="start" x="307" y="-1183.9" font-family="Arial" font-size="14.00" fill="#000000">member_id    </text>
<text text-anchor="start" x="411.2062" y="-1183.9" font-family="Arial" font-size="14.00" fill="#666666">[uuid]</text>
<polygon fill="none" stroke="#000000" points="300,-1142.5 300,-1172.5 593,-1172.5 593,-1142.5 300,-1142.5"/>
<text text-anchor="start" x="307" y="-1153.9" font-family="Arial" font-size="14.00" fill="#000000">login_id    </text>
<text text-anchor="start" x="389.4376" y="-1153.9" font-family="Arial" font-size="14.00" fill="#666666">[varchar(255)]</text>
<polygon fill="none" stroke="#000000" points="300,-1112.5 300,-1142.5 593,-1142.5 593,-1112.5 300,-1112.5"/>
<text text-anchor="start" x="307" y="-1123.9" font-family="Arial" font-size="14.00" fill="#000000">password    </text>
<text text-anchor="start" x="401.1024" y="-1123.9" font-family="Arial" font-size="14.00" fill="#666666">[varchar(255)]</text>
<polygon fill="none" stroke="#000000" points="300,-1082.5 300,-1112.5 593,-1112.5 593,-1082.5 300,-1082.5"/>
<text text-anchor="start" x="307" y="-1093.9" font-family="Arial" font-size="14.00" fill="#000000">email    </text>
<text text-anchor="start" x="374.6438" y="-1093.9" font-family="Arial" font-size="14.00" fill="#666666">[varchar(255)]</text>
<polygon fill="none" stroke="#000000" points="300,-1052.5 300,-1082.5 593,-1082.5 593,-1052.5 300,-1052.5"/>
<text text-anchor="start" x="307" y="-1063.9" font-family="Arial" font-size="14.00" fill="#000000">name    </text>
<text text-anchor="start" x="376.2132" y="-1063.9" font-family="Arial" font-size="14.00" fill="#666666">[varchar(255)]</text>
<polygon fill="none" stroke="#000000" points="300,-1022.5 300,-1052.5 593,-1052.5 593,-1022.5 300,-1022.5"/>
<text text-anchor="start" x="307" y="-1033.9" font-family="Arial" font-size="14.00" fill="#000000">first_name    </text>
<text text-anchor="start" x="406.5442" y="-1033.9" font-family="Arial" font-size="14.00" fill="#666666">[varchar(255)]</text>
<polygon fill="none" stroke="#000000" points="300,-992.5 300,-1022.5 593,-1022.5 593,-992.5 300,-992.5"/>
<text text-anchor="start" x="307" y="-1003.9" font-family="Arial" font-size="14.00" fill="#000000">last_name    </text>
<text text-anchor="start" x="405.7756" y="-1003.9" font-family="Arial" font-size="14.00" fill="#666666">[varchar(255)]</text>
<polygon fill="none" stroke="#000000" points="300,-962.5 300,-992.5 593,-992.5 593,-962.5 300,-962.5"/>
<text text-anchor="start" x="307" y="-973.9" font-family="Arial" font-size="14.00" fill="#000000">attend_status_id    </text>
<text text-anchor="start" x="443.9172" y="-973.9" font-family="Arial" font-size="14.00" fill="#666666">[uuid]</text>
<polygon fill="none" stroke="#000000" points="300,-932.5 300,-962.5 593,-962.5 593,-932.5 300,-932.5"/>
<text text-anchor="start" x="307" y="-943.9" font-family="Arial" font-size="14.00" fill="#000000">profile_image_id    </text>
<text text-anchor="start" x="443.8864" y="-943.9" font-family="Arial" font-size="14.00" fill="#666666">[uuid]</text>
<polygon fill="none" stroke="#000000" points="300,-902.5 300,-932.5 593,-932.5 593,-902.5 300,-902.5"/>
<text text-anchor="start" x="307" y="-913.9" font-family="Arial" font-size="14.00" fill="#000000">grade_id    </text>
<text text-anchor="start" x="395.6676" y="-913.9" font-family="Arial" font-size="14.00" fill="#666666">[uuid]</text>
<polygon fill="none" stroke="#000000" points="300,-872.5 300,-902.5 593,-902.5 593,-872.5 300,-872.5"/>
<text text-anchor="start" x="307" y="-883.9" font-family="Arial" font-size="14.00" fill="#000000">group_id    </text>
<text text-anchor="start" x="395.6676" y="-883.9" font-family="Arial" font-size="14.00" fill="#666666">[uuid]</text>
<polygon fill="none" stroke="#000000" points="300,-842.5 300,-872.5 593,-872.5 593,-842.5 300,-842.5"/>
<text text-anchor="start" x="307" y="-853.9" font-family="Arial" font-size="14.00" fill="#000000">personal_organization_id    </text>
<text text-anchor="start" x="497.582" y="-853.9" font-family="Arial" font-size="14.00" fill="#666666">[uuid]</text>
<polygon fill="none" stroke="#000000" points="300,-812.5 300,-842.5 593,-842.5 593,-812.5 300,-812.5"/>
<text text-anchor="start" x="307" y="-823.9" font-family="Arial" font-size="14.00" fill="#000000">role_id    </text>
<text text-anchor="start" x="383.209" y="-823.9" font-family="Arial" font-size="14.00" fill="#666666">[uuid]</text>
<polygon fill="none" stroke="#000000" points="300,-782.5 300,-812.5 593,-812.5 593,-782.5 300,-782.5"/>
<text text-anchor="start" x="307" y="-793.9" font-family="Arial" font-size="14.00" fill="#000000">created_at    </text>
<text text-anchor="start" x="407.3422" y="-793.9" font-family="Arial" font-size="14.00" fill="#666666">[timestamp with time zone]</text>
<polygon fill="none" stroke="#000000" points="300,-752.5 300,-782.5 593,-782.5 593,-752.5 300,-752.5"/>
<text text-anchor="start" x="307" y="-763.9" font-family="Arial" font-size="14.00" fill="#000000">updated_at    </text>
<text text-anchor="start" x="411.2468" y="-763.9" font-family="Arial" font-size="14.00" fill="#666666">[timestamp with time zone]</text>
</g>
<!-- public.m_members&#45;&gt;public.t_images -->
<g id="edge1" class="edge">
<title>public.m_members:profile_image_id&#45;&gt;public.t_images:image_id</title>
<path fill="none" stroke="#000000" d="M603.0115,-944.7576C642.3066,-921.1063 619.2385,-751.462 593,-710 573.0134,-678.4172 536.9866,-705.5828 517,-674 486.9352,-626.4916 460.7778,-547.5 517,-547.5"/>
<polygon fill="#000000" stroke="#000000" points="602.6447,-944.858 591.8111,-943.1599 597.8223,-946.179 593,-947.5 593,-947.5 593,-947.5 597.8223,-946.179 594.1889,-951.8401 602.6447,-944.858 602.6447,-944.858"/>
<text text-anchor="start" x="51.7635" y="-957.5" font-family="Arial" font-size="10.00" fill="#000000">FOREIGN KEY (profile_image_id) REFERENCES t_images(image_id) ON UPDATE SET NULL ON DELETE SET NULL</text>
</g>
<!-- public.m_chat_rooms -->
<g id="node3" class="node">
<title>public.m_chat_rooms</title>
<polygon fill="#efefef" stroke="transparent" points="697,-1127.5 697,-1162.5 1009,-1162.5 1009,-1127.5 697,-1127.5"/>
<polygon fill="none" stroke="#000000" points="697,-1127.5 697,-1162.5 1009,-1162.5 1009,-1127.5 697,-1127.5"/>
<text text-anchor="start" x="703.7034" y="-1140.3" font-family="Arial Bold" font-size="18.00" fill="#000000">public.m_chat_rooms</text>
<text text-anchor="start" x="874.7286" y="-1140.3" font-family="Arial" font-size="14.00" fill="#000000">    </text>
<text text-anchor="start" x="908.9334" y="-1140.3" font-family="Arial" font-size="14.00" fill="#666666">[BASE TABLE]</text>
<polygon fill="none" stroke="#000000" points="697,-1097.5 697,-1127.5 1009,-1127.5 1009,-1097.5 697,-1097.5"/>
<text text-anchor="start" x="704" y="-1108.9" font-family="Arial" font-size="14.00" fill="#000000">m_chat_rooms_pkey    </text>
<text text-anchor="start" x="868.1206" y="-1108.9" font-family="Arial" font-size="14.00" fill="#666666">[bigint]</text>
<polygon fill="none" stroke="#000000" points="697,-1067.5 697,-1097.5 1009,-1097.5 1009,-1067.5 697,-1067.5"/>
<text text-anchor="start" x="704" y="-1078.9" font-family="Arial" font-size="14.00" fill="#000000">chat_room_id    </text>
<text text-anchor="start" x="823.0014" y="-1078.9" font-family="Arial" font-size="14.00" fill="#666666">[uuid]</text>
<polygon fill="none" stroke="#000000" points="697,-1037.5 697,-1067.5 1009,-1067.5 1009,-1037.5 697,-1037.5"/>
<text text-anchor="start" x="704" y="-1048.9" font-family="Arial" font-size="14.00" fill="#000000">name    </text>
<text text-anchor="start" x="773.2132" y="-1048.9" font-family="Arial" font-size="14.00" fill="#666666">[varchar(255)]</text>
<polygon fill="none" stroke="#000000" points="697,-1007.5 697,-1037.5 1009,-1037.5 1009,-1007.5 697,-1007.5"/>
<text text-anchor="start" x="704" y="-1018.9" font-family="Arial" font-size="14.00" fill="#000000">is_private    </text>
<text text-anchor="start" x="798.0996" y="-1018.9" font-family="Arial" font-size="14.00" fill="#666666">[boolean]</text>
<polygon fill="none" stroke="#000000" points="697,-977.5 697,-1007.5 1009,-1007.5 1009,-977.5 697,-977.5"/>
<text text-anchor="start" x="704" y="-988.9" font-family="Arial" font-size="14.00" fill="#000000">cover_image_id    </text>
<text text-anchor="start" x="837" y="-988.9" font-family="Arial" font-size="14.00" fill="#666666">[uuid]</text>
<polygon fill="none" stroke="#000000" points="697,-947.5 697,-977.5 1009,-977.5 1009,-947.5 697,-947.5"/>
<text text-anchor="start" x="704" y="-958.9" font-family="Arial" font-size="14.00" fill="#000000">owner_id    </text>
<text text-anchor="start" x="794.9916" y="-958.9" font-family="Arial" font-size="14.00" fill="#666666">[uuid]</text>
<polygon fill="none" stroke="#000000" points="697,-917.5 697,-947.5 1009,-947.5 1009,-917.5 697,-917.5"/>
<text text-anchor="start" x="704" y="-928.9" font-family="Arial" font-size="14.00" fill="#000000">from_organization    </text>
<text text-anchor="start" x="850.2244" y="-928.9" font-family="Arial" font-size="14.00" fill="#666666">[boolean]</text>
<polygon fill="none" stroke="#000000" points="697,-887.5 697,-917.5 1009,-917.5 1009,-887.5 697,-887.5"/>
<text text-anchor="start" x="704" y="-898.9" font-family="Arial" font-size="14.00" fill="#000000">created_at    </text>
<text text-anchor="start" x="804.3422" y="-898.9" font-family="Arial" font-size="14.00" fill="#666666">[timestamp with time zone]</text>
<polygon fill="none" stroke="#000000" points="697,-857.5 697,-887.5 1009,-887.5 1009,-857.5 697,-857.5"/>
<text text-anchor="start" x="704" y="-868.9" font-family="Arial" font-size="14.00" fill="#000000">updated_at    </text>
<text text-anchor="start" x="808.2468" y="-868.9" font-family="Arial" font-size="14.00" fill="#666666">[timestamp with time zone]</text>
</g>
<!-- public.m_chat_rooms&#45;&gt;public.t_images -->
<g id="edge2" class="edge">
<title>public.m_chat_rooms:cover_image_id&#45;&gt;public.t_images:image_id</title>
<path fill="none" stroke="#000000" d="M686.7879,-991.8437C623.4273,-983.0359 676.6658,-887.3892 697,-815 716.8508,-744.3318 763.1492,-744.6682 783,-674 798.2044,-619.8727 839.2222,-547.5 783,-547.5"/>
<polygon fill="#000000" stroke="#000000" points="687.0206,-991.8586 696.7114,-996.9907 692.0103,-992.1793 697,-992.5 697,-992.5 697,-992.5 692.0103,-992.1793 697.2886,-988.0093 687.0206,-991.8586 687.0206,-991.8586"/>
<text text-anchor="start" x="704.1515" y="-1002.5" font-family="Arial" font-size="10.00" fill="#000000">FOREIGN KEY (cover_image_id) REFERENCES t_images(image_id) ON UPDATE SET NULL ON DELETE SET NULL</text>
</g>
</g>
</svg>
