<?xml version="1.0" encoding="UTF-8" standalone="no"?>
<!DOCTYPE svg PUBLIC "-//W3C//DTD SVG 1.1//EN"
 "http://www.w3.org/Graphics/SVG/1.1/DTD/svg11.dtd">
<!-- Generated by graphviz version 2.40.1 (20161225.0304)
 -->
<!-- Title: public.m_permission_associations Pages: 1 -->
<svg width="1634pt" height="592pt"
 viewBox="0.00 0.00 1634.00 592.00" xmlns="http://www.w3.org/2000/svg" xmlns:xlink="http://www.w3.org/1999/xlink">
<g id="graph0" class="graph" transform="scale(1 1) rotate(0) translate(4 588)">
<title>public.m_permission_associations</title>
<polygon fill="#ffffff" stroke="transparent" points="-4,4 -4,-588 1630,-588 1630,4 -4,4"/>
<!-- public.m_permission_associations -->
<g id="node1" class="node">
<title>public.m_permission_associations</title>
<polygon fill="#efefef" stroke="transparent" points="585,-502.5 585,-537.5 999,-537.5 999,-502.5 585,-502.5"/>
<polygon fill="none" stroke="#000000" points="585,-502.5 585,-537.5 999,-537.5 999,-502.5 585,-502.5"/>
<text text-anchor="start" x="591.6995" y="-515.3" font-family="Arial Bold" font-size="18.00" fill="#000000">public.m_permission_associations</text>
<text text-anchor="start" x="864.7325" y="-515.3" font-family="Arial" font-size="14.00" fill="#000000">    </text>
<text text-anchor="start" x="898.9373" y="-515.3" font-family="Arial" font-size="14.00" fill="#666666">[BASE TABLE]</text>
<polygon fill="none" stroke="#000000" points="585,-472.5 585,-502.5 999,-502.5 999,-472.5 585,-472.5"/>
<text text-anchor="start" x="592" y="-483.9" font-family="Arial" font-size="14.00" fill="#000000">m_permission_associations_pkey </text>
<text text-anchor="start" x="805.1458" y="-483.9" font-family="Arial" font-size="14.00" fill="#666666">[bigint]</text>
<polygon fill="none" stroke="#000000" points="585,-442.5 585,-472.5 999,-472.5 999,-442.5 585,-442.5"/>
<text text-anchor="start" x="592" y="-453.9" font-family="Arial" font-size="14.00" fill="#000000">permission_id </text>
<text text-anchor="start" x="682.2272" y="-453.9" font-family="Arial" font-size="14.00" fill="#666666">[uuid]</text>
<polygon fill="none" stroke="#000000" points="585,-412.5 585,-442.5 999,-442.5 999,-412.5 585,-412.5"/>
<text text-anchor="start" x="592" y="-423.9" font-family="Arial" font-size="14.00" fill="#000000">work_position_id </text>
<text text-anchor="start" x="700.129" y="-423.9" font-family="Arial" font-size="14.00" fill="#666666">[uuid]</text>
<polygon fill="none" stroke="#000000" stroke-width="3" points="583.5,-411.5 583.5,-539.5 1000.5,-539.5 1000.5,-411.5 583.5,-411.5"/>
</g>
<!-- public.m_permissions -->
<g id="node2" class="node">
<title>public.m_permissions</title>
<polygon fill="#efefef" stroke="transparent" points="420,-237.5 420,-272.5 734,-272.5 734,-237.5 420,-237.5"/>
<polygon fill="none" stroke="#000000" points="420,-237.5 420,-272.5 734,-272.5 734,-237.5 420,-237.5"/>
<text text-anchor="start" x="426.7134" y="-250.3" font-family="Arial Bold" font-size="18.00" fill="#000000">public.m_permissions</text>
<text text-anchor="start" x="599.7186" y="-250.3" font-family="Arial" font-size="14.00" fill="#000000">    </text>
<text text-anchor="start" x="633.9234" y="-250.3" font-family="Arial" font-size="14.00" fill="#666666">[BASE TABLE]</text>
<polygon fill="none" stroke="#000000" points="420,-207.5 420,-237.5 734,-237.5 734,-207.5 420,-207.5"/>
<text text-anchor="start" x="427" y="-218.9" font-family="Arial" font-size="14.00" fill="#000000">m_permissions_pkey    </text>
<text text-anchor="start" x="592.6606" y="-218.9" font-family="Arial" font-size="14.00" fill="#666666">[bigint]</text>
<polygon fill="none" stroke="#000000" points="420,-177.5 420,-207.5 734,-207.5 734,-177.5 420,-177.5"/>
<text text-anchor="start" x="427" y="-188.9" font-family="Arial" font-size="14.00" fill="#000000">permission_id    </text>
<text text-anchor="start" x="547.5414" y="-188.9" font-family="Arial" font-size="14.00" fill="#666666">[uuid]</text>
<polygon fill="none" stroke="#000000" points="420,-147.5 420,-177.5 734,-177.5 734,-147.5 420,-147.5"/>
<text text-anchor="start" x="427" y="-158.9" font-family="Arial" font-size="14.00" fill="#000000">name    </text>
<text text-anchor="start" x="496.2132" y="-158.9" font-family="Arial" font-size="14.00" fill="#666666">[varchar(255)]</text>
<polygon fill="none" stroke="#000000" points="420,-117.5 420,-147.5 734,-147.5 734,-117.5 420,-117.5"/>
<text text-anchor="start" x="427" y="-128.9" font-family="Arial" font-size="14.00" fill="#000000">description    </text>
<text text-anchor="start" x="528.8822" y="-128.9" font-family="Arial" font-size="14.00" fill="#666666">[text]</text>
<polygon fill="none" stroke="#000000" points="420,-87.5 420,-117.5 734,-117.5 734,-87.5 420,-87.5"/>
<text text-anchor="start" x="427" y="-98.9" font-family="Arial" font-size="14.00" fill="#000000">key    </text>
<text text-anchor="start" x="482.9874" y="-98.9" font-family="Arial" font-size="14.00" fill="#666666">[varchar(255)]</text>
<polygon fill="none" stroke="#000000" points="420,-57.5 420,-87.5 734,-87.5 734,-57.5 420,-57.5"/>
<text text-anchor="start" x="427" y="-68.9" font-family="Arial" font-size="14.00" fill="#000000">permission_category_id    </text>
<text text-anchor="start" x="609.0056" y="-68.9" font-family="Arial" font-size="14.00" fill="#666666">[uuid]</text>
</g>
<!-- public.m_permission_associations&#45;&gt;public.m_permissions -->
<g id="edge1" class="edge">
<title>public.m_permission_associations:permission_id&#45;&gt;public.m_permissions:permission_id</title>
<path fill="none" stroke="#000000" d="M574.8015,-455.9242C548.1284,-446.4546 563.8968,-396.5284 585,-367 625.6978,-310.054 693.3022,-372.946 734,-316 765.915,-271.3433 788.8889,-192.5 734,-192.5"/>
<polygon fill="#000000" stroke="#000000" points="575.1173,-455.9729 584.3128,-461.9472 580.0586,-456.7364 585,-457.5 585,-457.5 585,-457.5 580.0586,-456.7364 585.6872,-453.0528 575.1173,-455.9729 575.1173,-455.9729"/>
<text text-anchor="start" x="7.168" y="-467.5" font-family="Arial" font-size="10.00" fill="#000000">FOREIGN KEY (permission_id) REFERENCES m_permissions(permission_id) ON UPDATE CASCADE ON DELETE CASCADE</text>
</g>
<!-- public.m_work_positions -->
<g id="node3" class="node">
<title>public.m_work_positions</title>
<polygon fill="#efefef" stroke="transparent" points="839,-252.5 839,-287.5 1176,-287.5 1176,-252.5 839,-252.5"/>
<polygon fill="none" stroke="#000000" points="839,-252.5 839,-287.5 1176,-287.5 1176,-252.5 839,-252.5"/>
<text text-anchor="start" x="845.7051" y="-265.3" font-family="Arial Bold" font-size="18.00" fill="#000000">public.m_work_positions</text>
<text text-anchor="start" x="1041.7269" y="-265.3" font-family="Arial" font-size="14.00" fill="#000000">    </text>
<text text-anchor="start" x="1075.9317" y="-265.3" font-family="Arial" font-size="14.00" fill="#666666">[BASE TABLE]</text>
<polygon fill="none" stroke="#000000" points="839,-222.5 839,-252.5 1176,-252.5 1176,-222.5 839,-222.5"/>
<text text-anchor="start" x="846" y="-233.9" font-family="Arial" font-size="14.00" fill="#000000">m_work_positions_pkey    </text>
<text text-anchor="start" x="1029.5624" y="-233.9" font-family="Arial" font-size="14.00" fill="#666666">[bigint]</text>
<polygon fill="none" stroke="#000000" points="839,-192.5 839,-222.5 1176,-222.5 1176,-192.5 839,-192.5"/>
<text text-anchor="start" x="846" y="-203.9" font-family="Arial" font-size="14.00" fill="#000000">work_position_id    </text>
<text text-anchor="start" x="984.4432" y="-203.9" font-family="Arial" font-size="14.00" fill="#666666">[uuid]</text>
<polygon fill="none" stroke="#000000" points="839,-162.5 839,-192.5 1176,-192.5 1176,-162.5 839,-162.5"/>
<text text-anchor="start" x="846" y="-173.9" font-family="Arial" font-size="14.00" fill="#000000">organization_id    </text>
<text text-anchor="start" x="975.1192" y="-173.9" font-family="Arial" font-size="14.00" fill="#666666">[uuid]</text>
<polygon fill="none" stroke="#000000" points="839,-132.5 839,-162.5 1176,-162.5 1176,-132.5 839,-132.5"/>
<text text-anchor="start" x="846" y="-143.9" font-family="Arial" font-size="14.00" fill="#000000">name    </text>
<text text-anchor="start" x="915.2132" y="-143.9" font-family="Arial" font-size="14.00" fill="#666666">[varchar(255)]</text>
<polygon fill="none" stroke="#000000" points="839,-102.5 839,-132.5 1176,-132.5 1176,-102.5 839,-102.5"/>
<text text-anchor="start" x="846" y="-113.9" font-family="Arial" font-size="14.00" fill="#000000">description    </text>
<text text-anchor="start" x="947.8822" y="-113.9" font-family="Arial" font-size="14.00" fill="#666666">[text]</text>
<polygon fill="none" stroke="#000000" points="839,-72.5 839,-102.5 1176,-102.5 1176,-72.5 839,-72.5"/>
<text text-anchor="start" x="846" y="-83.9" font-family="Arial" font-size="14.00" fill="#000000">created_at    </text>
<text text-anchor="start" x="946.3422" y="-83.9" font-family="Arial" font-size="14.00" fill="#666666">[timestamp with time zone]</text>
<polygon fill="none" stroke="#000000" points="839,-42.5 839,-72.5 1176,-72.5 1176,-42.5 839,-42.5"/>
<text text-anchor="start" x="846" y="-53.9" font-family="Arial" font-size="14.00" fill="#000000">updated_at    </text>
<text text-anchor="start" x="950.2468" y="-53.9" font-family="Arial" font-size="14.00" fill="#666666">[timestamp with time zone]</text>
</g>
<!-- public.m_permission_associations&#45;&gt;public.m_work_positions -->
<g id="edge2" class="edge">
<title>public.m_permission_associations:work_position_id&#45;&gt;public.m_work_positions:work_position_id</title>
<path fill="none" stroke="#000000" d="M1009.0111,-424.828C1022.5716,-415.607 1013.1728,-384.716 999,-367 953.4667,-310.0833 884.5333,-387.9167 839,-331 804.7112,-288.139 784.1111,-207.5 839,-207.5"/>
<polygon fill="#000000" stroke="#000000" points="1008.6618,-424.9212 997.8395,-423.1522 1003.8309,-426.2106 999,-427.5 999,-427.5 999,-427.5 1003.8309,-426.2106 1000.1605,-431.8478 1008.6618,-424.9212 1008.6618,-424.9212"/>
<text text-anchor="start" x="1006.3285" y="-437.5" font-family="Arial" font-size="10.00" fill="#000000">FOREIGN KEY (work_position_id) REFERENCES m_work_positions(work_position_id) ON UPDATE RESTRICT ON DELETE RESTRICT</text>
</g>
</g>
</svg>
