<?xml version="1.0" encoding="UTF-8" standalone="no"?>
<!DOCTYPE svg PUBLIC "-//W3C//DTD SVG 1.1//EN"
 "http://www.w3.org/Graphics/SVG/1.1/DTD/svg11.dtd">
<!-- Generated by graphviz version 2.40.1 (20161225.0304)
 -->
<!-- Title: public.t_images Pages: 1 -->
<svg width="873pt" height="622pt"
 viewBox="0.00 0.00 873.00 622.00" xmlns="http://www.w3.org/2000/svg" xmlns:xlink="http://www.w3.org/1999/xlink">
<g id="graph0" class="graph" transform="scale(1 1) rotate(0) translate(4 618)">
<title>public.t_images</title>
<polygon fill="#ffffff" stroke="transparent" points="-4,4 -4,-618 869,-618 869,4 -4,4"/>
<!-- public.t_images -->
<g id="node1" class="node">
<title>public.t_images</title>
<polygon fill="#efefef" stroke="transparent" points="517,-532.5 517,-567.5 783,-567.5 783,-532.5 517,-532.5"/>
<polygon fill="none" stroke="#000000" points="517,-532.5 517,-567.5 783,-567.5 783,-532.5 517,-532.5"/>
<text text-anchor="start" x="523.7047" y="-545.3" font-family="Arial Bold" font-size="18.00" fill="#000000">public.t_images</text>
<text text-anchor="start" x="648.7273" y="-545.3" font-family="Arial" font-size="14.00" fill="#000000">    </text>
<text text-anchor="start" x="682.9321" y="-545.3" font-family="Arial" font-size="14.00" fill="#666666">[BASE TABLE]</text>
<polygon fill="none" stroke="#000000" points="517,-502.5 517,-532.5 783,-532.5 783,-502.5 517,-502.5"/>
<text text-anchor="start" x="524" y="-513.9" font-family="Arial" font-size="14.00" fill="#000000">t_images_pkey </text>
<text text-anchor="start" x="622.0266" y="-513.9" font-family="Arial" font-size="14.00" fill="#666666">[bigint]</text>
<polygon fill="none" stroke="#000000" points="517,-472.5 517,-502.5 783,-502.5 783,-472.5 517,-472.5"/>
<text text-anchor="start" x="524" y="-483.9" font-family="Arial" font-size="14.00" fill="#000000">image_id </text>
<text text-anchor="start" x="584.6774" y="-483.9" font-family="Arial" font-size="14.00" fill="#666666">[uuid]</text>
<polygon fill="none" stroke="#000000" points="517,-442.5 517,-472.5 783,-472.5 783,-442.5 517,-442.5"/>
<text text-anchor="start" x="524" y="-453.9" font-family="Arial" font-size="14.00" fill="#000000">height </text>
<text text-anchor="start" x="566.0182" y="-453.9" font-family="Arial" font-size="14.00" fill="#666666">[double precision]</text>
<polygon fill="none" stroke="#000000" points="517,-412.5 517,-442.5 783,-442.5 783,-412.5 517,-412.5"/>
<text text-anchor="start" x="524" y="-423.9" font-family="Arial" font-size="14.00" fill="#000000">width </text>
<text text-anchor="start" x="560.5596" y="-423.9" font-family="Arial" font-size="14.00" fill="#666666">[double precision]</text>
<polygon fill="none" stroke="#000000" points="517,-382.5 517,-412.5 783,-412.5 783,-382.5 517,-382.5"/>
<text text-anchor="start" x="524" y="-393.9" font-family="Arial" font-size="14.00" fill="#000000">attachable_item_id </text>
<text text-anchor="start" x="645.3688" y="-393.9" font-family="Arial" font-size="14.00" fill="#666666">[uuid]</text>
<polygon fill="none" stroke="#000000" stroke-width="3" points="515.5,-381.5 515.5,-569.5 784.5,-569.5 784.5,-381.5 515.5,-381.5"/>
</g>
<!-- public.t_attachable_items -->
<g id="node2" class="node">
<title>public.t_attachable_items</title>
<polygon fill="#efefef" stroke="transparent" points="478,-222.5 478,-257.5 822,-257.5 822,-222.5 478,-222.5"/>
<polygon fill="none" stroke="#000000" points="478,-222.5 478,-257.5 822,-257.5 822,-222.5 478,-222.5"/>
<text text-anchor="start" x="484.6888" y="-235.3" font-family="Arial Bold" font-size="18.00" fill="#000000">public.t_attachable_items</text>
<text text-anchor="start" x="687.7432" y="-235.3" font-family="Arial" font-size="14.00" fill="#000000">    </text>
<text text-anchor="start" x="721.948" y="-235.3" font-family="Arial" font-size="14.00" fill="#666666">[BASE TABLE]</text>
<polygon fill="none" stroke="#000000" points="478,-192.5 478,-222.5 822,-222.5 822,-192.5 478,-192.5"/>
<text text-anchor="start" x="485" y="-203.9" font-family="Arial" font-size="14.00" fill="#000000">t_attachable_items_pkey    </text>
<text text-anchor="start" x="674.0322" y="-203.9" font-family="Arial" font-size="14.00" fill="#666666">[bigint]</text>
<polygon fill="none" stroke="#000000" points="478,-162.5 478,-192.5 822,-192.5 822,-162.5 478,-162.5"/>
<text text-anchor="start" x="485" y="-173.9" font-family="Arial" font-size="14.00" fill="#000000">attachable_item_id    </text>
<text text-anchor="start" x="636.683" y="-173.9" font-family="Arial" font-size="14.00" fill="#666666">[uuid]</text>
<polygon fill="none" stroke="#000000" points="478,-132.5 478,-162.5 822,-162.5 822,-132.5 478,-132.5"/>
<text text-anchor="start" x="485" y="-143.9" font-family="Arial" font-size="14.00" fill="#000000">url    </text>
<text text-anchor="start" x="534.7546" y="-143.9" font-family="Arial" font-size="14.00" fill="#666666">[text]</text>
<polygon fill="none" stroke="#000000" points="478,-102.5 478,-132.5 822,-132.5 822,-102.5 478,-102.5"/>
<text text-anchor="start" x="485" y="-113.9" font-family="Arial" font-size="14.00" fill="#000000">size    </text>
<text text-anchor="start" x="544.094" y="-113.9" font-family="Arial" font-size="14.00" fill="#666666">[double precision]</text>
<polygon fill="none" stroke="#000000" points="478,-72.5 478,-102.5 822,-102.5 822,-72.5 478,-72.5"/>
<text text-anchor="start" x="485" y="-83.9" font-family="Arial" font-size="14.00" fill="#000000">mime_type_id    </text>
<text text-anchor="start" x="606.3254" y="-83.9" font-family="Arial" font-size="14.00" fill="#666666">[uuid]</text>
<polygon fill="none" stroke="#000000" points="478,-42.5 478,-72.5 822,-72.5 822,-42.5 478,-42.5"/>
<text text-anchor="start" x="485" y="-53.9" font-family="Arial" font-size="14.00" fill="#000000">owner_id    </text>
<text text-anchor="start" x="575.9916" y="-53.9" font-family="Arial" font-size="14.00" fill="#666666">[uuid]</text>
</g>
<!-- public.t_images&#45;&gt;public.t_attachable_items -->
<g id="edge1" class="edge">
<title>public.t_images:attachable_item_id&#45;&gt;public.t_attachable_items:attachable_item_id</title>
<path fill="none" stroke="#000000" d="M650.6856,-372.453C660.7437,-304.0472 778.7125,-369.4124 822,-301 851.3489,-254.6165 876.8889,-177.5 822,-177.5"/>
<polygon fill="#000000" stroke="#000000" points="650.6809,-372.5232 645.5104,-382.1936 650.3405,-377.5116 650,-382.5 650,-382.5 650,-382.5 650.3405,-377.5116 654.4896,-382.8064 650.6809,-372.5232 650.6809,-372.5232"/>
<text text-anchor="start" x="6.918" y="-392.5" font-family="Arial" font-size="10.00" fill="#000000">FOREIGN KEY (attachable_item_id) REFERENCES t_attachable_items(attachable_item_id) ON UPDATE RESTRICT ON DELETE RESTRICT</text>
</g>
</g>
</svg>
