<?xml version="1.0" encoding="UTF-8" standalone="no"?>
<!DOCTYPE svg PUBLIC "-//W3C//DTD SVG 1.1//EN"
 "http://www.w3.org/Graphics/SVG/1.1/DTD/svg11.dtd">
<!-- Generated by graphviz version 2.40.1 (20161225.0304)
 -->
<!-- Title: public.t_files Pages: 1 -->
<svg width="873pt" height="532pt"
 viewBox="0.00 0.00 873.00 532.00" xmlns="http://www.w3.org/2000/svg" xmlns:xlink="http://www.w3.org/1999/xlink">
<g id="graph0" class="graph" transform="scale(1 1) rotate(0) translate(4 528)">
<title>public.t_files</title>
<polygon fill="#ffffff" stroke="transparent" points="-4,4 -4,-528 869,-528 869,4 -4,4"/>
<!-- public.t_files -->
<g id="node1" class="node">
<title>public.t_files</title>
<polygon fill="#efefef" stroke="transparent" points="530,-442.5 530,-477.5 770,-477.5 770,-442.5 530,-442.5"/>
<polygon fill="none" stroke="#000000" points="530,-442.5 530,-477.5 770,-477.5 770,-442.5 530,-442.5"/>
<text text-anchor="start" x="536.7088" y="-455.3" font-family="Arial Bold" font-size="18.00" fill="#000000">public.t_files</text>
<text text-anchor="start" x="635.7232" y="-455.3" font-family="Arial" font-size="14.00" fill="#000000">    </text>
<text text-anchor="start" x="669.928" y="-455.3" font-family="Arial" font-size="14.00" fill="#666666">[BASE TABLE]</text>
<polygon fill="none" stroke="#000000" points="530,-412.5 530,-442.5 770,-442.5 770,-412.5 530,-412.5"/>
<text text-anchor="start" x="537" y="-423.9" font-family="Arial" font-size="14.00" fill="#000000">t_files_pkey </text>
<text text-anchor="start" x="614.798" y="-423.9" font-family="Arial" font-size="14.00" fill="#666666">[bigint]</text>
<polygon fill="none" stroke="#000000" points="530,-382.5 530,-412.5 770,-412.5 770,-382.5 530,-382.5"/>
<text text-anchor="start" x="537" y="-393.9" font-family="Arial" font-size="14.00" fill="#000000">file_id </text>
<text text-anchor="start" x="577.4488" y="-393.9" font-family="Arial" font-size="14.00" fill="#666666">[uuid]</text>
<polygon fill="none" stroke="#000000" points="530,-352.5 530,-382.5 770,-382.5 770,-352.5 530,-352.5"/>
<text text-anchor="start" x="537" y="-363.9" font-family="Arial" font-size="14.00" fill="#000000">attachable_item_id </text>
<text text-anchor="start" x="658.3688" y="-363.9" font-family="Arial" font-size="14.00" fill="#666666">[uuid]</text>
<polygon fill="none" stroke="#000000" stroke-width="3" points="528.5,-351.5 528.5,-479.5 771.5,-479.5 771.5,-351.5 528.5,-351.5"/>
</g>
<!-- public.t_attachable_items -->
<g id="node2" class="node">
<title>public.t_attachable_items</title>
<polygon fill="#efefef" stroke="transparent" points="478,-192.5 478,-227.5 822,-227.5 822,-192.5 478,-192.5"/>
<polygon fill="none" stroke="#000000" points="478,-192.5 478,-227.5 822,-227.5 822,-192.5 478,-192.5"/>
<text text-anchor="start" x="484.6888" y="-205.3" font-family="Arial Bold" font-size="18.00" fill="#000000">public.t_attachable_items</text>
<text text-anchor="start" x="687.7432" y="-205.3" font-family="Arial" font-size="14.00" fill="#000000">    </text>
<text text-anchor="start" x="721.948" y="-205.3" font-family="Arial" font-size="14.00" fill="#666666">[BASE TABLE]</text>
<polygon fill="none" stroke="#000000" points="478,-162.5 478,-192.5 822,-192.5 822,-162.5 478,-162.5"/>
<text text-anchor="start" x="485" y="-173.9" font-family="Arial" font-size="14.00" fill="#000000">t_attachable_items_pkey    </text>
<text text-anchor="start" x="674.0322" y="-173.9" font-family="Arial" font-size="14.00" fill="#666666">[bigint]</text>
<polygon fill="none" stroke="#000000" points="478,-132.5 478,-162.5 822,-162.5 822,-132.5 478,-132.5"/>
<text text-anchor="start" x="485" y="-143.9" font-family="Arial" font-size="14.00" fill="#000000">attachable_item_id    </text>
<text text-anchor="start" x="636.683" y="-143.9" font-family="Arial" font-size="14.00" fill="#666666">[uuid]</text>
<polygon fill="none" stroke="#000000" points="478,-102.5 478,-132.5 822,-132.5 822,-102.5 478,-102.5"/>
<text text-anchor="start" x="485" y="-113.9" font-family="Arial" font-size="14.00" fill="#000000">url    </text>
<text text-anchor="start" x="534.7546" y="-113.9" font-family="Arial" font-size="14.00" fill="#666666">[text]</text>
<polygon fill="none" stroke="#000000" points="478,-72.5 478,-102.5 822,-102.5 822,-72.5 478,-72.5"/>
<text text-anchor="start" x="485" y="-83.9" font-family="Arial" font-size="14.00" fill="#000000">size    </text>
<text text-anchor="start" x="544.094" y="-83.9" font-family="Arial" font-size="14.00" fill="#666666">[double precision]</text>
<polygon fill="none" stroke="#000000" points="478,-42.5 478,-72.5 822,-72.5 822,-42.5 478,-42.5"/>
<text text-anchor="start" x="485" y="-53.9" font-family="Arial" font-size="14.00" fill="#000000">mime_type_id    </text>
<text text-anchor="start" x="606.3254" y="-53.9" font-family="Arial" font-size="14.00" fill="#666666">[uuid]</text>
</g>
<!-- public.t_files&#45;&gt;public.t_attachable_items -->
<g id="edge1" class="edge">
<title>public.t_files:attachable_item_id&#45;&gt;public.t_attachable_items:attachable_item_id</title>
<path fill="none" stroke="#000000" d="M650.6856,-342.453C660.7437,-274.0472 778.7125,-339.4124 822,-271 851.3489,-224.6165 876.8889,-147.5 822,-147.5"/>
<polygon fill="#000000" stroke="#000000" points="650.6809,-342.5232 645.5104,-352.1936 650.3405,-347.5116 650,-352.5 650,-352.5 650,-352.5 650.3405,-347.5116 654.4896,-352.8064 650.6809,-342.5232 650.6809,-342.5232"/>
<text text-anchor="start" x="6.918" y="-362.5" font-family="Arial" font-size="10.00" fill="#000000">FOREIGN KEY (attachable_item_id) REFERENCES t_attachable_items(attachable_item_id) ON UPDATE RESTRICT ON DELETE RESTRICT</text>
</g>
</g>
</svg>
