<?xml version="1.0" encoding="UTF-8" standalone="no"?>
<!DOCTYPE svg PUBLIC "-//W3C//DTD SVG 1.1//EN"
 "http://www.w3.org/Graphics/SVG/1.1/DTD/svg11.dtd">
<!-- Generated by graphviz version 2.40.1 (20161225.0304)
 -->
<!-- Title: public.t_attached_messages Pages: 1 -->
<svg width="1582pt" height="622pt"
 viewBox="0.00 0.00 1582.00 622.00" xmlns="http://www.w3.org/2000/svg" xmlns:xlink="http://www.w3.org/1999/xlink">
<g id="graph0" class="graph" transform="scale(1 1) rotate(0) translate(4 618)">
<title>public.t_attached_messages</title>
<polygon fill="#ffffff" stroke="transparent" points="-4,4 -4,-618 1578,-618 1578,4 -4,4"/>
<!-- public.t_attached_messages -->
<g id="node1" class="node">
<title>public.t_attached_messages</title>
<polygon fill="#efefef" stroke="transparent" points="560,-532.5 560,-567.5 929,-567.5 929,-532.5 560,-532.5"/>
<polygon fill="none" stroke="#000000" points="560,-532.5 560,-567.5 929,-567.5 929,-532.5 560,-532.5"/>
<text text-anchor="start" x="566.6779" y="-545.3" font-family="Arial Bold" font-size="18.00" fill="#000000">public.t_attached_messages</text>
<text text-anchor="start" x="794.7541" y="-545.3" font-family="Arial" font-size="14.00" fill="#000000">    </text>
<text text-anchor="start" x="828.9589" y="-545.3" font-family="Arial" font-size="14.00" fill="#666666">[BASE TABLE]</text>
<polygon fill="none" stroke="#000000" points="560,-502.5 560,-532.5 929,-532.5 929,-502.5 560,-502.5"/>
<text text-anchor="start" x="567" y="-513.9" font-family="Arial" font-size="14.00" fill="#000000">t_attached_messages_pkey </text>
<text text-anchor="start" x="745.1794" y="-513.9" font-family="Arial" font-size="14.00" fill="#666666">[bigint]</text>
<polygon fill="none" stroke="#000000" points="560,-472.5 560,-502.5 929,-502.5 929,-472.5 560,-472.5"/>
<text text-anchor="start" x="567" y="-483.9" font-family="Arial" font-size="14.00" fill="#000000">attached_message_id </text>
<text text-anchor="start" x="707.8302" y="-483.9" font-family="Arial" font-size="14.00" fill="#666666">[uuid]</text>
<polygon fill="none" stroke="#000000" points="560,-442.5 560,-472.5 929,-472.5 929,-442.5 560,-442.5"/>
<text text-anchor="start" x="567" y="-453.9" font-family="Arial" font-size="14.00" fill="#000000">message_id </text>
<text text-anchor="start" x="646.3534" y="-453.9" font-family="Arial" font-size="14.00" fill="#666666">[uuid]</text>
<polygon fill="none" stroke="#000000" points="560,-412.5 560,-442.5 929,-442.5 929,-412.5 560,-412.5"/>
<text text-anchor="start" x="567" y="-423.9" font-family="Arial" font-size="14.00" fill="#000000">attachable_item_id </text>
<text text-anchor="start" x="688.3688" y="-423.9" font-family="Arial" font-size="14.00" fill="#666666">[uuid]</text>
<polygon fill="none" stroke="#000000" stroke-width="3" points="558,-411.5 558,-569.5 930,-569.5 930,-411.5 558,-411.5"/>
</g>
<!-- public.t_messages -->
<g id="node2" class="node">
<title>public.t_messages</title>
<polygon fill="#efefef" stroke="transparent" points="381,-252.5 381,-287.5 682,-287.5 682,-252.5 381,-252.5"/>
<polygon fill="none" stroke="#000000" points="381,-252.5 381,-287.5 682,-287.5 682,-252.5 381,-252.5"/>
<text text-anchor="start" x="393.1987" y="-265.3" font-family="Arial Bold" font-size="18.00" fill="#000000">public.t_messages</text>
<text text-anchor="start" x="542.2333" y="-265.3" font-family="Arial" font-size="14.00" fill="#000000">    </text>
<text text-anchor="start" x="576.4381" y="-265.3" font-family="Arial" font-size="14.00" fill="#666666">[BASE TABLE]</text>
<polygon fill="none" stroke="#000000" points="381,-222.5 381,-252.5 682,-252.5 682,-222.5 381,-222.5"/>
<text text-anchor="start" x="388" y="-233.9" font-family="Arial" font-size="14.00" fill="#000000">t_messages_pkey    </text>
<text text-anchor="start" x="535.0168" y="-233.9" font-family="Arial" font-size="14.00" fill="#666666">[bigint]</text>
<polygon fill="none" stroke="#000000" points="381,-192.5 381,-222.5 682,-222.5 682,-192.5 381,-192.5"/>
<text text-anchor="start" x="388" y="-203.9" font-family="Arial" font-size="14.00" fill="#000000">message_id    </text>
<text text-anchor="start" x="497.6676" y="-203.9" font-family="Arial" font-size="14.00" fill="#666666">[uuid]</text>
<polygon fill="none" stroke="#000000" points="381,-162.5 381,-192.5 682,-192.5 682,-162.5 381,-162.5"/>
<text text-anchor="start" x="388" y="-173.9" font-family="Arial" font-size="14.00" fill="#000000">chat_room_id    </text>
<text text-anchor="start" x="507.0014" y="-173.9" font-family="Arial" font-size="14.00" fill="#666666">[uuid]</text>
<polygon fill="none" stroke="#000000" points="381,-132.5 381,-162.5 682,-162.5 682,-132.5 381,-132.5"/>
<text text-anchor="start" x="388" y="-143.9" font-family="Arial" font-size="14.00" fill="#000000">sender_id    </text>
<text text-anchor="start" x="483.6676" y="-143.9" font-family="Arial" font-size="14.00" fill="#666666">[uuid]</text>
<polygon fill="none" stroke="#000000" points="381,-102.5 381,-132.5 682,-132.5 682,-102.5 381,-102.5"/>
<text text-anchor="start" x="388" y="-113.9" font-family="Arial" font-size="14.00" fill="#000000">body    </text>
<text text-anchor="start" x="452.5526" y="-113.9" font-family="Arial" font-size="14.00" fill="#666666">[text]</text>
<polygon fill="none" stroke="#000000" points="381,-72.5 381,-102.5 682,-102.5 682,-72.5 381,-72.5"/>
<text text-anchor="start" x="388" y="-83.9" font-family="Arial" font-size="14.00" fill="#000000">posted_at    </text>
<text text-anchor="start" x="483.6816" y="-83.9" font-family="Arial" font-size="14.00" fill="#666666">[timestamp with time zone]</text>
<polygon fill="none" stroke="#000000" points="381,-42.5 381,-72.5 682,-72.5 682,-42.5 381,-42.5"/>
<text text-anchor="start" x="387.9825" y="-53.9" font-family="Arial" font-size="14.00" fill="#000000">last_edited_at    </text>
<text text-anchor="start" x="509.3331" y="-53.9" font-family="Arial" font-size="14.00" fill="#666666">[timestamp with time zone]</text>
</g>
<!-- public.t_attached_messages&#45;&gt;public.t_messages -->
<g id="edge1" class="edge">
<title>public.t_attached_messages:message_id&#45;&gt;public.t_messages:message_id</title>
<path fill="none" stroke="#000000" d="M549.7836,-455.911C523.0058,-446.365 538.2691,-396.0696 560,-367 593.849,-321.7198 648.151,-376.2802 682,-331 714.8643,-287.0372 736.8889,-207.5 682,-207.5"/>
<polygon fill="#000000" stroke="#000000" points="550.1188,-455.9631 559.3084,-461.9465 555.0594,-456.7315 560,-457.5 560,-457.5 560,-457.5 555.0594,-456.7315 560.6916,-453.0535 550.1188,-455.9631 550.1188,-455.9631"/>
<text text-anchor="start" x="6.9345" y="-467.5" font-family="Arial" font-size="10.00" fill="#000000">FOREIGN KEY (message_id) REFERENCES t_messages(message_id) ON UPDATE RESTRICT ON DELETE RESTRICT</text>
</g>
<!-- public.t_attachable_items -->
<g id="node3" class="node">
<title>public.t_attachable_items</title>
<polygon fill="#efefef" stroke="transparent" points="786,-252.5 786,-287.5 1130,-287.5 1130,-252.5 786,-252.5"/>
<polygon fill="none" stroke="#000000" points="786,-252.5 786,-287.5 1130,-287.5 1130,-252.5 786,-252.5"/>
<text text-anchor="start" x="792.6888" y="-265.3" font-family="Arial Bold" font-size="18.00" fill="#000000">public.t_attachable_items</text>
<text text-anchor="start" x="995.7432" y="-265.3" font-family="Arial" font-size="14.00" fill="#000000">    </text>
<text text-anchor="start" x="1029.948" y="-265.3" font-family="Arial" font-size="14.00" fill="#666666">[BASE TABLE]</text>
<polygon fill="none" stroke="#000000" points="786,-222.5 786,-252.5 1130,-252.5 1130,-222.5 786,-222.5"/>
<text text-anchor="start" x="793" y="-233.9" font-family="Arial" font-size="14.00" fill="#000000">t_attachable_items_pkey    </text>
<text text-anchor="start" x="982.0322" y="-233.9" font-family="Arial" font-size="14.00" fill="#666666">[bigint]</text>
<polygon fill="none" stroke="#000000" points="786,-192.5 786,-222.5 1130,-222.5 1130,-192.5 786,-192.5"/>
<text text-anchor="start" x="793" y="-203.9" font-family="Arial" font-size="14.00" fill="#000000">attachable_item_id    </text>
<text text-anchor="start" x="944.683" y="-203.9" font-family="Arial" font-size="14.00" fill="#666666">[uuid]</text>
<polygon fill="none" stroke="#000000" points="786,-162.5 786,-192.5 1130,-192.5 1130,-162.5 786,-162.5"/>
<text text-anchor="start" x="793" y="-173.9" font-family="Arial" font-size="14.00" fill="#000000">url    </text>
<text text-anchor="start" x="842.7546" y="-173.9" font-family="Arial" font-size="14.00" fill="#666666">[text]</text>
<polygon fill="none" stroke="#000000" points="786,-132.5 786,-162.5 1130,-162.5 1130,-132.5 786,-132.5"/>
<text text-anchor="start" x="793" y="-143.9" font-family="Arial" font-size="14.00" fill="#000000">size    </text>
<text text-anchor="start" x="852.094" y="-143.9" font-family="Arial" font-size="14.00" fill="#666666">[double precision]</text>
<polygon fill="none" stroke="#000000" points="786,-102.5 786,-132.5 1130,-132.5 1130,-102.5 786,-102.5"/>
<text text-anchor="start" x="793" y="-113.9" font-family="Arial" font-size="14.00" fill="#000000">mime_type_id    </text>
<text text-anchor="start" x="914.3254" y="-113.9" font-family="Arial" font-size="14.00" fill="#666666">[uuid]</text>
<polygon fill="none" stroke="#000000" points="786,-72.5 786,-102.5 1130,-102.5 1130,-72.5 786,-72.5"/>
<text text-anchor="start" x="793" y="-83.9" font-family="Arial" font-size="14.00" fill="#000000">owner_id    </text>
<text text-anchor="start" x="883.9916" y="-83.9" font-family="Arial" font-size="14.00" fill="#666666">[uuid]</text>
<polygon fill="none" stroke="#000000" points="786,-42.5 786,-72.5 1130,-72.5 1130,-42.5 786,-42.5"/>
<text text-anchor="start" x="793" y="-53.9" font-family="Arial" font-size="14.00" fill="#000000">from_outer    </text>
<text text-anchor="start" x="894.8808" y="-53.9" font-family="Arial" font-size="14.00" fill="#666666">[boolean]</text>
</g>
<!-- public.t_attached_messages&#45;&gt;public.t_attachable_items -->
<g id="edge2" class="edge">
<title>public.t_attached_messages:attachable_item_id&#45;&gt;public.t_attachable_items:attachable_item_id</title>
<path fill="none" stroke="#000000" d="M938.9946,-424.841C952.5012,-415.6626 942.9475,-384.8939 929,-367 888.7092,-315.309 826.2908,-382.691 786,-331 752.2563,-287.7085 731.1111,-207.5 786,-207.5"/>
<polygon fill="#000000" stroke="#000000" points="938.6639,-424.9289 927.843,-423.1513 933.8319,-426.2145 929,-427.5 929,-427.5 929,-427.5 933.8319,-426.2145 930.157,-431.8487 938.6639,-424.9289 938.6639,-424.9289"/>
<text text-anchor="start" x="936.128" y="-437.5" font-family="Arial" font-size="10.00" fill="#000000">FOREIGN KEY (attachable_item_id) REFERENCES t_attachable_items(attachable_item_id) ON UPDATE SET NULL ON DELETE SET NULL</text>
</g>
</g>
</svg>
