<?xml version="1.0" encoding="UTF-8" standalone="no"?>
<!DOCTYPE svg PUBLIC "-//W3C//DTD SVG 1.1//EN"
 "http://www.w3.org/Graphics/SVG/1.1/DTD/svg11.dtd">
<!-- Generated by graphviz version 2.40.1 (20161225.0304)
 -->
<!-- Title: public.t_messages Pages: 1 -->
<svg width="1423pt" height="922pt"
 viewBox="0.00 0.00 1423.00 922.00" xmlns="http://www.w3.org/2000/svg" xmlns:xlink="http://www.w3.org/1999/xlink">
<g id="graph0" class="graph" transform="scale(1 1) rotate(0) translate(4 918)">
<title>public.t_messages</title>
<polygon fill="#ffffff" stroke="transparent" points="-4,4 -4,-918 1419,-918 1419,4 -4,4"/>
<!-- public.t_messages -->
<g id="node1" class="node">
<title>public.t_messages</title>
<polygon fill="#efefef" stroke="transparent" points="582,-832.5 582,-867.5 872,-867.5 872,-832.5 582,-832.5"/>
<polygon fill="none" stroke="#000000" points="582,-832.5 582,-867.5 872,-867.5 872,-832.5 582,-832.5"/>
<text text-anchor="start" x="588.6987" y="-845.3" font-family="Arial Bold" font-size="18.00" fill="#000000">public.t_messages</text>
<text text-anchor="start" x="737.7333" y="-845.3" font-family="Arial" font-size="14.00" fill="#000000">    </text>
<text text-anchor="start" x="771.9381" y="-845.3" font-family="Arial" font-size="14.00" fill="#666666">[BASE TABLE]</text>
<polygon fill="none" stroke="#000000" points="582,-802.5 582,-832.5 872,-832.5 872,-802.5 582,-802.5"/>
<text text-anchor="start" x="589" y="-813.9" font-family="Arial" font-size="14.00" fill="#000000">t_messages_pkey </text>
<text text-anchor="start" x="705.7026" y="-813.9" font-family="Arial" font-size="14.00" fill="#666666">[bigint]</text>
<polygon fill="none" stroke="#000000" points="582,-772.5 582,-802.5 872,-802.5 872,-772.5 582,-772.5"/>
<text text-anchor="start" x="589" y="-783.9" font-family="Arial" font-size="14.00" fill="#000000">message_id </text>
<text text-anchor="start" x="668.3534" y="-783.9" font-family="Arial" font-size="14.00" fill="#666666">[uuid]</text>
<polygon fill="none" stroke="#000000" points="582,-742.5 582,-772.5 872,-772.5 872,-742.5 582,-742.5"/>
<text text-anchor="start" x="589" y="-753.9" font-family="Arial" font-size="14.00" fill="#000000">chat_room_id </text>
<text text-anchor="start" x="677.6872" y="-753.9" font-family="Arial" font-size="14.00" fill="#666666">[uuid]</text>
<polygon fill="none" stroke="#000000" points="582,-712.5 582,-742.5 872,-742.5 872,-712.5 582,-712.5"/>
<text text-anchor="start" x="589" y="-723.9" font-family="Arial" font-size="14.00" fill="#000000">sender_id </text>
<text text-anchor="start" x="654.3534" y="-723.9" font-family="Arial" font-size="14.00" fill="#666666">[uuid]</text>
<polygon fill="none" stroke="#000000" points="582,-682.5 582,-712.5 872,-712.5 872,-682.5 582,-682.5"/>
<text text-anchor="start" x="589" y="-693.9" font-family="Arial" font-size="14.00" fill="#000000">body </text>
<text text-anchor="start" x="623.2384" y="-693.9" font-family="Arial" font-size="14.00" fill="#666666">[text]</text>
<polygon fill="none" stroke="#000000" points="582,-652.5 582,-682.5 872,-682.5 872,-652.5 582,-652.5"/>
<text text-anchor="start" x="589" y="-663.9" font-family="Arial" font-size="14.00" fill="#000000">posted_at </text>
<text text-anchor="start" x="654.3674" y="-663.9" font-family="Arial" font-size="14.00" fill="#666666">[timestamp with time zone]</text>
<polygon fill="none" stroke="#000000" points="582,-622.5 582,-652.5 872,-652.5 872,-622.5 582,-622.5"/>
<text text-anchor="start" x="589" y="-633.9" font-family="Arial" font-size="14.00" fill="#000000">last_edited_at </text>
<text text-anchor="start" x="680.0364" y="-633.9" font-family="Arial" font-size="14.00" fill="#666666">[timestamp with time zone]</text>
<polygon fill="none" stroke="#000000" stroke-width="3" points="580.5,-621.5 580.5,-869.5 873.5,-869.5 873.5,-621.5 580.5,-621.5"/>
</g>
<!-- public.m_chat_rooms -->
<g id="node2" class="node">
<title>public.m_chat_rooms</title>
<polygon fill="#efefef" stroke="transparent" points="367,-372.5 367,-407.5 679,-407.5 679,-372.5 367,-372.5"/>
<polygon fill="none" stroke="#000000" points="367,-372.5 367,-407.5 679,-407.5 679,-372.5 367,-372.5"/>
<text text-anchor="start" x="373.7034" y="-385.3" font-family="Arial Bold" font-size="18.00" fill="#000000">public.m_chat_rooms</text>
<text text-anchor="start" x="544.7286" y="-385.3" font-family="Arial" font-size="14.00" fill="#000000">    </text>
<text text-anchor="start" x="578.9334" y="-385.3" font-family="Arial" font-size="14.00" fill="#666666">[BASE TABLE]</text>
<polygon fill="none" stroke="#000000" points="367,-342.5 367,-372.5 679,-372.5 679,-342.5 367,-342.5"/>
<text text-anchor="start" x="374" y="-353.9" font-family="Arial" font-size="14.00" fill="#000000">m_chat_rooms_pkey    </text>
<text text-anchor="start" x="538.1206" y="-353.9" font-family="Arial" font-size="14.00" fill="#666666">[bigint]</text>
<polygon fill="none" stroke="#000000" points="367,-312.5 367,-342.5 679,-342.5 679,-312.5 367,-312.5"/>
<text text-anchor="start" x="374" y="-323.9" font-family="Arial" font-size="14.00" fill="#000000">chat_room_id    </text>
<text text-anchor="start" x="493.0014" y="-323.9" font-family="Arial" font-size="14.00" fill="#666666">[uuid]</text>
<polygon fill="none" stroke="#000000" points="367,-282.5 367,-312.5 679,-312.5 679,-282.5 367,-282.5"/>
<text text-anchor="start" x="374" y="-293.9" font-family="Arial" font-size="14.00" fill="#000000">name    </text>
<text text-anchor="start" x="443.2132" y="-293.9" font-family="Arial" font-size="14.00" fill="#666666">[varchar(255)]</text>
<polygon fill="none" stroke="#000000" points="367,-252.5 367,-282.5 679,-282.5 679,-252.5 367,-252.5"/>
<text text-anchor="start" x="374" y="-263.9" font-family="Arial" font-size="14.00" fill="#000000">is_private    </text>
<text text-anchor="start" x="468.0996" y="-263.9" font-family="Arial" font-size="14.00" fill="#666666">[boolean]</text>
<polygon fill="none" stroke="#000000" points="367,-222.5 367,-252.5 679,-252.5 679,-222.5 367,-222.5"/>
<text text-anchor="start" x="374" y="-233.9" font-family="Arial" font-size="14.00" fill="#000000">cover_image_id    </text>
<text text-anchor="start" x="507" y="-233.9" font-family="Arial" font-size="14.00" fill="#666666">[uuid]</text>
<polygon fill="none" stroke="#000000" points="367,-192.5 367,-222.5 679,-222.5 679,-192.5 367,-192.5"/>
<text text-anchor="start" x="374" y="-203.9" font-family="Arial" font-size="14.00" fill="#000000">owner_id    </text>
<text text-anchor="start" x="464.9916" y="-203.9" font-family="Arial" font-size="14.00" fill="#666666">[uuid]</text>
<polygon fill="none" stroke="#000000" points="367,-162.5 367,-192.5 679,-192.5 679,-162.5 367,-162.5"/>
<text text-anchor="start" x="374" y="-173.9" font-family="Arial" font-size="14.00" fill="#000000">created_at    </text>
<text text-anchor="start" x="474.3422" y="-173.9" font-family="Arial" font-size="14.00" fill="#666666">[timestamp with time zone]</text>
<polygon fill="none" stroke="#000000" points="367,-132.5 367,-162.5 679,-162.5 679,-132.5 367,-132.5"/>
<text text-anchor="start" x="374" y="-143.9" font-family="Arial" font-size="14.00" fill="#000000">updated_at    </text>
<text text-anchor="start" x="478.2468" y="-143.9" font-family="Arial" font-size="14.00" fill="#666666">[timestamp with time zone]</text>
</g>
<!-- public.t_messages&#45;&gt;public.m_chat_rooms -->
<g id="edge1" class="edge">
<title>public.t_messages:chat_room_id&#45;&gt;public.m_chat_rooms:chat_room_id</title>
<path fill="none" stroke="#000000" d="M571.8222,-757.2966C372.777,-749.0563 664.6989,-493.0205 679,-451 696.6845,-399.038 733.8889,-327.5 679,-327.5"/>
<polygon fill="#000000" stroke="#000000" points="572.002,-757.3001 581.91,-761.9991 577.001,-757.4 582,-757.5 582,-757.5 582,-757.5 577.001,-757.4 582.09,-753.0009 572.002,-757.3001 572.002,-757.3001"/>
<text text-anchor="start" x="6.818" y="-767.5" font-family="Arial" font-size="10.00" fill="#000000">FOREIGN KEY (chat_room_id) REFERENCES m_chat_rooms(chat_room_id) ON UPDATE CASCADE ON DELETE CASCADE</text>
</g>
<!-- public.m_members -->
<g id="node3" class="node">
<title>public.m_members</title>
<polygon fill="#efefef" stroke="transparent" points="784,-462.5 784,-497.5 1077,-497.5 1077,-462.5 784,-462.5"/>
<polygon fill="none" stroke="#000000" points="784,-462.5 784,-497.5 1077,-497.5 1077,-462.5 784,-462.5"/>
<text text-anchor="start" x="790.7146" y="-475.3" font-family="Arial Bold" font-size="18.00" fill="#000000">public.m_members</text>
<text text-anchor="start" x="942.7174" y="-475.3" font-family="Arial" font-size="14.00" fill="#000000">    </text>
<text text-anchor="start" x="976.9222" y="-475.3" font-family="Arial" font-size="14.00" fill="#666666">[BASE TABLE]</text>
<polygon fill="none" stroke="#000000" points="784,-432.5 784,-462.5 1077,-462.5 1077,-432.5 784,-432.5"/>
<text text-anchor="start" x="791" y="-443.9" font-family="Arial" font-size="14.00" fill="#000000">m_members_pkey    </text>
<text text-anchor="start" x="940.3254" y="-443.9" font-family="Arial" font-size="14.00" fill="#666666">[bigint]</text>
<polygon fill="none" stroke="#000000" points="784,-402.5 784,-432.5 1077,-432.5 1077,-402.5 784,-402.5"/>
<text text-anchor="start" x="791" y="-413.9" font-family="Arial" font-size="14.00" fill="#000000">member_id    </text>
<text text-anchor="start" x="895.2062" y="-413.9" font-family="Arial" font-size="14.00" fill="#666666">[uuid]</text>
<polygon fill="none" stroke="#000000" points="784,-372.5 784,-402.5 1077,-402.5 1077,-372.5 784,-372.5"/>
<text text-anchor="start" x="791" y="-383.9" font-family="Arial" font-size="14.00" fill="#000000">login_id    </text>
<text text-anchor="start" x="873.4376" y="-383.9" font-family="Arial" font-size="14.00" fill="#666666">[varchar(255)]</text>
<polygon fill="none" stroke="#000000" points="784,-342.5 784,-372.5 1077,-372.5 1077,-342.5 784,-342.5"/>
<text text-anchor="start" x="791" y="-353.9" font-family="Arial" font-size="14.00" fill="#000000">password    </text>
<text text-anchor="start" x="885.1024" y="-353.9" font-family="Arial" font-size="14.00" fill="#666666">[varchar(255)]</text>
<polygon fill="none" stroke="#000000" points="784,-312.5 784,-342.5 1077,-342.5 1077,-312.5 784,-312.5"/>
<text text-anchor="start" x="791" y="-323.9" font-family="Arial" font-size="14.00" fill="#000000">email    </text>
<text text-anchor="start" x="858.6438" y="-323.9" font-family="Arial" font-size="14.00" fill="#666666">[varchar(255)]</text>
<polygon fill="none" stroke="#000000" points="784,-282.5 784,-312.5 1077,-312.5 1077,-282.5 784,-282.5"/>
<text text-anchor="start" x="791" y="-293.9" font-family="Arial" font-size="14.00" fill="#000000">name    </text>
<text text-anchor="start" x="860.2132" y="-293.9" font-family="Arial" font-size="14.00" fill="#666666">[varchar(255)]</text>
<polygon fill="none" stroke="#000000" points="784,-252.5 784,-282.5 1077,-282.5 1077,-252.5 784,-252.5"/>
<text text-anchor="start" x="791" y="-263.9" font-family="Arial" font-size="14.00" fill="#000000">attend_status_id    </text>
<text text-anchor="start" x="927.9172" y="-263.9" font-family="Arial" font-size="14.00" fill="#666666">[uuid]</text>
<polygon fill="none" stroke="#000000" points="784,-222.5 784,-252.5 1077,-252.5 1077,-222.5 784,-222.5"/>
<text text-anchor="start" x="791" y="-233.9" font-family="Arial" font-size="14.00" fill="#000000">profile_image_id    </text>
<text text-anchor="start" x="927.8864" y="-233.9" font-family="Arial" font-size="14.00" fill="#666666">[uuid]</text>
<polygon fill="none" stroke="#000000" points="784,-192.5 784,-222.5 1077,-222.5 1077,-192.5 784,-192.5"/>
<text text-anchor="start" x="791" y="-203.9" font-family="Arial" font-size="14.00" fill="#000000">grade_id    </text>
<text text-anchor="start" x="879.6676" y="-203.9" font-family="Arial" font-size="14.00" fill="#666666">[uuid]</text>
<polygon fill="none" stroke="#000000" points="784,-162.5 784,-192.5 1077,-192.5 1077,-162.5 784,-162.5"/>
<text text-anchor="start" x="791" y="-173.9" font-family="Arial" font-size="14.00" fill="#000000">group_id    </text>
<text text-anchor="start" x="879.6676" y="-173.9" font-family="Arial" font-size="14.00" fill="#666666">[uuid]</text>
<polygon fill="none" stroke="#000000" points="784,-132.5 784,-162.5 1077,-162.5 1077,-132.5 784,-132.5"/>
<text text-anchor="start" x="791" y="-143.9" font-family="Arial" font-size="14.00" fill="#000000">personal_organization_id    </text>
<text text-anchor="start" x="981.582" y="-143.9" font-family="Arial" font-size="14.00" fill="#666666">[uuid]</text>
<polygon fill="none" stroke="#000000" points="784,-102.5 784,-132.5 1077,-132.5 1077,-102.5 784,-102.5"/>
<text text-anchor="start" x="791" y="-113.9" font-family="Arial" font-size="14.00" fill="#000000">role_id    </text>
<text text-anchor="start" x="867.209" y="-113.9" font-family="Arial" font-size="14.00" fill="#666666">[uuid]</text>
<polygon fill="none" stroke="#000000" points="784,-72.5 784,-102.5 1077,-102.5 1077,-72.5 784,-72.5"/>
<text text-anchor="start" x="791" y="-83.9" font-family="Arial" font-size="14.00" fill="#000000">created_at    </text>
<text text-anchor="start" x="891.3422" y="-83.9" font-family="Arial" font-size="14.00" fill="#666666">[timestamp with time zone]</text>
<polygon fill="none" stroke="#000000" points="784,-42.5 784,-72.5 1077,-72.5 1077,-42.5 784,-42.5"/>
<text text-anchor="start" x="791" y="-53.9" font-family="Arial" font-size="14.00" fill="#000000">updated_at    </text>
<text text-anchor="start" x="895.2468" y="-53.9" font-family="Arial" font-size="14.00" fill="#666666">[timestamp with time zone]</text>
</g>
<!-- public.t_messages&#45;&gt;public.m_members -->
<g id="edge2" class="edge">
<title>public.t_messages:sender_id&#45;&gt;public.m_members:member_id</title>
<path fill="none" stroke="#000000" d="M882.1227,-726.6699C935.6278,-717.2311 907.2443,-629.4975 872,-577 848.4462,-541.9158 807.5538,-576.0842 784,-541 753.4055,-495.4285 729.1111,-417.5 784,-417.5"/>
<polygon fill="#000000" stroke="#000000" points="881.9665,-726.6827 871.6322,-723.0151 876.9833,-727.0913 872,-727.5 872,-727.5 872,-727.5 876.9833,-727.0913 872.3678,-731.9849 881.9665,-726.6827 881.9665,-726.6827"/>
<text text-anchor="start" x="879.2705" y="-737.5" font-family="Arial" font-size="10.00" fill="#000000">FOREIGN KEY (sender_id) REFERENCES m_members(member_id) ON UPDATE SET NULL ON DELETE SET NULL</text>
</g>
</g>
</svg>
