<?xml version="1.0" encoding="UTF-8" standalone="no"?>
<!DOCTYPE svg PUBLIC "-//W3C//DTD SVG 1.1//EN"
 "http://www.w3.org/Graphics/SVG/1.1/DTD/svg11.dtd">
<!-- Generated by graphviz version 2.40.1 (20161225.0304)
 -->
<!-- Title: public.t_chat_room_remove_member_actions Pages: 1 -->
<svg width="2079pt" height="1139pt"
 viewBox="0.00 0.00 2079.00 1139.00" xmlns="http://www.w3.org/2000/svg" xmlns:xlink="http://www.w3.org/1999/xlink">
<g id="graph0" class="graph" transform="scale(1 1) rotate(0) translate(4 1135)">
<title>public.t_chat_room_remove_member_actions</title>
<polygon fill="#ffffff" stroke="transparent" points="-4,4 -4,-1135 2075,-1135 2075,4 -4,4"/>
<!-- public.t_chat_room_remove_member_actions -->
<g id="node1" class="node">
<title>public.t_chat_room_remove_member_actions</title>
<polygon fill="#efefef" stroke="transparent" points="673,-802.5 673,-837.5 1179,-837.5 1179,-802.5 673,-802.5"/>
<polygon fill="none" stroke="#000000" points="673,-802.5 673,-837.5 1179,-837.5 1179,-802.5 673,-802.5"/>
<text text-anchor="start" x="679.6825" y="-815.3" font-family="Arial Bold" font-size="18.00" fill="#000000">public.t_chat_room_remove_member_actions</text>
<text text-anchor="start" x="1044.7495" y="-815.3" font-family="Arial" font-size="14.00" fill="#000000">    </text>
<text text-anchor="start" x="1078.9543" y="-815.3" font-family="Arial" font-size="14.00" fill="#666666">[BASE TABLE]</text>
<polygon fill="none" stroke="#000000" points="673,-772.5 673,-802.5 1179,-802.5 1179,-772.5 673,-772.5"/>
<text text-anchor="start" x="680" y="-783.9" font-family="Arial" font-size="14.00" fill="#000000">t_chat_room_remove_member_actions_pkey </text>
<text text-anchor="start" x="964.7278" y="-783.9" font-family="Arial" font-size="14.00" fill="#666666">[bigint]</text>
<polygon fill="none" stroke="#000000" points="673,-742.5 673,-772.5 1179,-772.5 1179,-742.5 673,-742.5"/>
<text text-anchor="start" x="680" y="-753.9" font-family="Arial" font-size="14.00" fill="#000000">chat_room_remove_member_action_id </text>
<text text-anchor="start" x="927.3786" y="-753.9" font-family="Arial" font-size="14.00" fill="#666666">[uuid]</text>
<polygon fill="none" stroke="#000000" points="673,-712.5 673,-742.5 1179,-742.5 1179,-712.5 673,-712.5"/>
<text text-anchor="start" x="680" y="-723.9" font-family="Arial" font-size="14.00" fill="#000000">chat_room_action_id </text>
<text text-anchor="start" x="813.8148" y="-723.9" font-family="Arial" font-size="14.00" fill="#666666">[uuid]</text>
<polygon fill="none" stroke="#000000" points="673,-682.5 673,-712.5 1179,-712.5 1179,-682.5 673,-682.5"/>
<text text-anchor="start" x="680" y="-693.9" font-family="Arial" font-size="14.00" fill="#000000">removed_by </text>
<text text-anchor="start" x="760.9074" y="-693.9" font-family="Arial" font-size="14.00" fill="#666666">[uuid]</text>
<polygon fill="none" stroke="#000000" stroke-width="3" points="671.5,-681.5 671.5,-839.5 1180.5,-839.5 1180.5,-681.5 671.5,-681.5"/>
</g>
<!-- public.t_chat_room_actions -->
<g id="node3" class="node">
<title>public.t_chat_room_actions</title>
<polygon fill="#efefef" stroke="transparent" points="530,-357.5 530,-392.5 890,-392.5 890,-357.5 530,-357.5"/>
<polygon fill="none" stroke="#000000" points="530,-357.5 530,-392.5 890,-392.5 890,-357.5 530,-357.5"/>
<text text-anchor="start" x="536.6878" y="-370.3" font-family="Arial Bold" font-size="18.00" fill="#000000">public.t_chat_room_actions</text>
<text text-anchor="start" x="755.7442" y="-370.3" font-family="Arial" font-size="14.00" fill="#000000">    </text>
<text text-anchor="start" x="789.949" y="-370.3" font-family="Arial" font-size="14.00" fill="#666666">[BASE TABLE]</text>
<polygon fill="none" stroke="#000000" points="530,-327.5 530,-357.5 890,-357.5 890,-327.5 530,-327.5"/>
<text text-anchor="start" x="537" y="-338.9" font-family="Arial" font-size="14.00" fill="#000000">t_chat_room_actions_pkey    </text>
<text text-anchor="start" x="738.4782" y="-338.9" font-family="Arial" font-size="14.00" fill="#666666">[bigint]</text>
<polygon fill="none" stroke="#000000" points="530,-297.5 530,-327.5 890,-327.5 890,-297.5 530,-297.5"/>
<text text-anchor="start" x="537" y="-308.9" font-family="Arial" font-size="14.00" fill="#000000">chat_room_action_id    </text>
<text text-anchor="start" x="701.129" y="-308.9" font-family="Arial" font-size="14.00" fill="#666666">[uuid]</text>
<polygon fill="none" stroke="#000000" points="530,-267.5 530,-297.5 890,-297.5 890,-267.5 530,-267.5"/>
<text text-anchor="start" x="537" y="-278.9" font-family="Arial" font-size="14.00" fill="#000000">chat_room_id    </text>
<text text-anchor="start" x="656.0014" y="-278.9" font-family="Arial" font-size="14.00" fill="#666666">[uuid]</text>
<polygon fill="none" stroke="#000000" points="530,-237.5 530,-267.5 890,-267.5 890,-237.5 530,-237.5"/>
<text text-anchor="start" x="537" y="-248.9" font-family="Arial" font-size="14.00" fill="#000000">chat_room_action_type_id    </text>
<text text-anchor="start" x="735.3674" y="-248.9" font-family="Arial" font-size="14.00" fill="#666666">[uuid]</text>
<polygon fill="none" stroke="#000000" points="530,-207.5 530,-237.5 890,-237.5 890,-207.5 530,-207.5"/>
<text text-anchor="start" x="537" y="-218.9" font-family="Arial" font-size="14.00" fill="#000000">acted_at    </text>
<text text-anchor="start" x="624.899" y="-218.9" font-family="Arial" font-size="14.00" fill="#666666">[timestamp with time zone]</text>
</g>
<!-- public.t_chat_room_remove_member_actions&#45;&gt;public.t_chat_room_actions -->
<g id="edge2" class="edge">
<title>public.t_chat_room_remove_member_actions:chat_room_action_id&#45;&gt;public.t_chat_room_actions:chat_room_action_id</title>
<path fill="none" stroke="#000000" d="M662.9896,-726.0309C637.4126,-717.1833 658.4719,-670.2597 673,-637 725.6219,-516.5305 837.3781,-556.4695 890,-436 911.9712,-385.7003 944.8889,-312.5 890,-312.5"/>
<polygon fill="#000000" stroke="#000000" points="663.106,-726.0479 672.3466,-731.9523 668.053,-726.7739 673,-727.5 673,-727.5 673,-727.5 668.053,-726.7739 673.6534,-723.0477 663.106,-726.0479 663.106,-726.0479"/>
<text text-anchor="start" x="7.242" y="-737.5" font-family="Arial" font-size="10.00" fill="#000000">FOREIGN KEY (chat_room_action_id) REFERENCES t_chat_room_actions(chat_room_action_id) ON UPDATE CASCADE ON DELETE CASCADE</text>
</g>
<!-- public.m_members -->
<g id="node4" class="node">
<title>public.m_members</title>
<polygon fill="#efefef" stroke="transparent" points="995,-522.5 995,-557.5 1288,-557.5 1288,-522.5 995,-522.5"/>
<polygon fill="none" stroke="#000000" points="995,-522.5 995,-557.5 1288,-557.5 1288,-522.5 995,-522.5"/>
<text text-anchor="start" x="1001.7146" y="-535.3" font-family="Arial Bold" font-size="18.00" fill="#000000">public.m_members</text>
<text text-anchor="start" x="1153.7174" y="-535.3" font-family="Arial" font-size="14.00" fill="#000000">    </text>
<text text-anchor="start" x="1187.9222" y="-535.3" font-family="Arial" font-size="14.00" fill="#666666">[BASE TABLE]</text>
<polygon fill="none" stroke="#000000" points="995,-492.5 995,-522.5 1288,-522.5 1288,-492.5 995,-492.5"/>
<text text-anchor="start" x="1002" y="-503.9" font-family="Arial" font-size="14.00" fill="#000000">m_members_pkey    </text>
<text text-anchor="start" x="1151.3254" y="-503.9" font-family="Arial" font-size="14.00" fill="#666666">[bigint]</text>
<polygon fill="none" stroke="#000000" points="995,-462.5 995,-492.5 1288,-492.5 1288,-462.5 995,-462.5"/>
<text text-anchor="start" x="1002" y="-473.9" font-family="Arial" font-size="14.00" fill="#000000">member_id    </text>
<text text-anchor="start" x="1106.2062" y="-473.9" font-family="Arial" font-size="14.00" fill="#666666">[uuid]</text>
<polygon fill="none" stroke="#000000" points="995,-432.5 995,-462.5 1288,-462.5 1288,-432.5 995,-432.5"/>
<text text-anchor="start" x="1002" y="-443.9" font-family="Arial" font-size="14.00" fill="#000000">login_id    </text>
<text text-anchor="start" x="1084.4376" y="-443.9" font-family="Arial" font-size="14.00" fill="#666666">[varchar(255)]</text>
<polygon fill="none" stroke="#000000" points="995,-402.5 995,-432.5 1288,-432.5 1288,-402.5 995,-402.5"/>
<text text-anchor="start" x="1002" y="-413.9" font-family="Arial" font-size="14.00" fill="#000000">password    </text>
<text text-anchor="start" x="1096.1024" y="-413.9" font-family="Arial" font-size="14.00" fill="#666666">[varchar(255)]</text>
<polygon fill="none" stroke="#000000" points="995,-372.5 995,-402.5 1288,-402.5 1288,-372.5 995,-372.5"/>
<text text-anchor="start" x="1002" y="-383.9" font-family="Arial" font-size="14.00" fill="#000000">email    </text>
<text text-anchor="start" x="1069.6438" y="-383.9" font-family="Arial" font-size="14.00" fill="#666666">[varchar(255)]</text>
<polygon fill="none" stroke="#000000" points="995,-342.5 995,-372.5 1288,-372.5 1288,-342.5 995,-342.5"/>
<text text-anchor="start" x="1002" y="-353.9" font-family="Arial" font-size="14.00" fill="#000000">name    </text>
<text text-anchor="start" x="1071.2132" y="-353.9" font-family="Arial" font-size="14.00" fill="#666666">[varchar(255)]</text>
<polygon fill="none" stroke="#000000" points="995,-312.5 995,-342.5 1288,-342.5 1288,-312.5 995,-312.5"/>
<text text-anchor="start" x="1002" y="-323.9" font-family="Arial" font-size="14.00" fill="#000000">first_name    </text>
<text text-anchor="start" x="1101.5442" y="-323.9" font-family="Arial" font-size="14.00" fill="#666666">[varchar(255)]</text>
<polygon fill="none" stroke="#000000" points="995,-282.5 995,-312.5 1288,-312.5 1288,-282.5 995,-282.5"/>
<text text-anchor="start" x="1002" y="-293.9" font-family="Arial" font-size="14.00" fill="#000000">last_name    </text>
<text text-anchor="start" x="1100.7756" y="-293.9" font-family="Arial" font-size="14.00" fill="#666666">[varchar(255)]</text>
<polygon fill="none" stroke="#000000" points="995,-252.5 995,-282.5 1288,-282.5 1288,-252.5 995,-252.5"/>
<text text-anchor="start" x="1002" y="-263.9" font-family="Arial" font-size="14.00" fill="#000000">attend_status_id    </text>
<text text-anchor="start" x="1138.9172" y="-263.9" font-family="Arial" font-size="14.00" fill="#666666">[uuid]</text>
<polygon fill="none" stroke="#000000" points="995,-222.5 995,-252.5 1288,-252.5 1288,-222.5 995,-222.5"/>
<text text-anchor="start" x="1002" y="-233.9" font-family="Arial" font-size="14.00" fill="#000000">profile_image_id    </text>
<text text-anchor="start" x="1138.8864" y="-233.9" font-family="Arial" font-size="14.00" fill="#666666">[uuid]</text>
<polygon fill="none" stroke="#000000" points="995,-192.5 995,-222.5 1288,-222.5 1288,-192.5 995,-192.5"/>
<text text-anchor="start" x="1002" y="-203.9" font-family="Arial" font-size="14.00" fill="#000000">grade_id    </text>
<text text-anchor="start" x="1090.6676" y="-203.9" font-family="Arial" font-size="14.00" fill="#666666">[uuid]</text>
<polygon fill="none" stroke="#000000" points="995,-162.5 995,-192.5 1288,-192.5 1288,-162.5 995,-162.5"/>
<text text-anchor="start" x="1002" y="-173.9" font-family="Arial" font-size="14.00" fill="#000000">group_id    </text>
<text text-anchor="start" x="1090.6676" y="-173.9" font-family="Arial" font-size="14.00" fill="#666666">[uuid]</text>
<polygon fill="none" stroke="#000000" points="995,-132.5 995,-162.5 1288,-162.5 1288,-132.5 995,-132.5"/>
<text text-anchor="start" x="1002" y="-143.9" font-family="Arial" font-size="14.00" fill="#000000">personal_organization_id    </text>
<text text-anchor="start" x="1192.582" y="-143.9" font-family="Arial" font-size="14.00" fill="#666666">[uuid]</text>
<polygon fill="none" stroke="#000000" points="995,-102.5 995,-132.5 1288,-132.5 1288,-102.5 995,-102.5"/>
<text text-anchor="start" x="1002" y="-113.9" font-family="Arial" font-size="14.00" fill="#000000">role_id    </text>
<text text-anchor="start" x="1078.209" y="-113.9" font-family="Arial" font-size="14.00" fill="#666666">[uuid]</text>
<polygon fill="none" stroke="#000000" points="995,-72.5 995,-102.5 1288,-102.5 1288,-72.5 995,-72.5"/>
<text text-anchor="start" x="1002" y="-83.9" font-family="Arial" font-size="14.00" fill="#000000">created_at    </text>
<text text-anchor="start" x="1102.3422" y="-83.9" font-family="Arial" font-size="14.00" fill="#666666">[timestamp with time zone]</text>
<polygon fill="none" stroke="#000000" points="995,-42.5 995,-72.5 1288,-72.5 1288,-42.5 995,-42.5"/>
<text text-anchor="start" x="1002" y="-53.9" font-family="Arial" font-size="14.00" fill="#000000">updated_at    </text>
<text text-anchor="start" x="1106.2468" y="-53.9" font-family="Arial" font-size="14.00" fill="#666666">[timestamp with time zone]</text>
</g>
<!-- public.t_chat_room_remove_member_actions&#45;&gt;public.m_members -->
<g id="edge3" class="edge">
<title>public.t_chat_room_remove_member_actions:removed_by&#45;&gt;public.m_members:member_id</title>
<path fill="none" stroke="#000000" d="M1189.0293,-694.8133C1202.6489,-685.5443 1193.4203,-654.5151 1179,-637 1126.0361,-572.6694 1047.9639,-665.3306 995,-601 960.1123,-558.625 940.1111,-477.5 995,-477.5"/>
<polygon fill="#000000" stroke="#000000" points="1188.6594,-694.9123 1177.8355,-693.1533 1183.8297,-696.2061 1179,-697.5 1179,-697.5 1179,-697.5 1183.8297,-696.2061 1180.1645,-701.8467 1188.6594,-694.9123 1188.6594,-694.9123"/>
<text text-anchor="start" x="1185.7155" y="-707.5" font-family="Arial" font-size="10.00" fill="#000000">FOREIGN KEY (removed_by) REFERENCES m_members(member_id) ON UPDATE SET NULL ON DELETE SET NULL</text>
</g>
<!-- public.t_chat_room_removed_members -->
<g id="node2" class="node">
<title>public.t_chat_room_removed_members</title>
<polygon fill="#efefef" stroke="transparent" points="697,-1052.5 697,-1087.5 1155,-1087.5 1155,-1052.5 697,-1052.5"/>
<polygon fill="none" stroke="#000000" points="697,-1052.5 697,-1087.5 1155,-1087.5 1155,-1052.5 697,-1052.5"/>
<text text-anchor="start" x="703.69" y="-1065.3" font-family="Arial Bold" font-size="18.00" fill="#000000">public.t_chat_room_removed_members</text>
<text text-anchor="start" x="1020.742" y="-1065.3" font-family="Arial" font-size="14.00" fill="#000000">    </text>
<text text-anchor="start" x="1054.9468" y="-1065.3" font-family="Arial" font-size="14.00" fill="#666666">[BASE TABLE]</text>
<polygon fill="none" stroke="#000000" points="697,-1022.5 697,-1052.5 1155,-1052.5 1155,-1022.5 697,-1022.5"/>
<text text-anchor="start" x="704" y="-1033.9" font-family="Arial" font-size="14.00" fill="#000000">t_chat_room_removed_members_pkey    </text>
<text text-anchor="start" x="981.697" y="-1033.9" font-family="Arial" font-size="14.00" fill="#666666">[bigint]</text>
<polygon fill="none" stroke="#000000" points="697,-992.5 697,-1022.5 1155,-1022.5 1155,-992.5 697,-992.5"/>
<text text-anchor="start" x="704" y="-1003.9" font-family="Arial" font-size="14.00" fill="#000000">chat_room_remove_member_action_id    </text>
<text text-anchor="start" x="981.6928" y="-1003.9" font-family="Arial" font-size="14.00" fill="#666666">[uuid]</text>
<polygon fill="none" stroke="#000000" points="697,-962.5 697,-992.5 1155,-992.5 1155,-962.5 697,-962.5"/>
<text text-anchor="start" x="704" y="-973.9" font-family="Arial" font-size="14.00" fill="#000000">member_id    </text>
<text text-anchor="start" x="808.2062" y="-973.9" font-family="Arial" font-size="14.00" fill="#666666">[uuid]</text>
</g>
<!-- public.t_chat_room_removed_members&#45;&gt;public.t_chat_room_remove_member_actions -->
<g id="edge1" class="edge">
<title>public.t_chat_room_removed_members:chat_room_remove_member_action_id&#45;&gt;public.t_chat_room_remove_member_actions:chat_room_remove_member_action_id</title>
<path fill="none" stroke="#000000" d="M1165.2064,-1006.7828C1267.9895,-992.1191 1287.1338,-757.5 1179,-757.5"/>
<polygon fill="#000000" stroke="#000000" points="1164.9754,-1006.799 1154.6845,-1003.0111 1159.9877,-1007.1495 1155,-1007.5 1155,-1007.5 1155,-1007.5 1159.9877,-1007.1495 1155.3155,-1011.9889 1164.9754,-1006.799 1164.9754,-1006.799"/>
<text text-anchor="start" x="1161.5665" y="-1017.5" font-family="Arial" font-size="10.00" fill="#000000">FOREIGN KEY (chat_room_remove_member_action_id) REFERENCES t_chat_room_remove_member_actions(chat_room_remove_member_action_id) ON UPDATE CASCADE ON DELETE CASCADE</text>
</g>
</g>
</svg>
