<?xml version="1.0" encoding="UTF-8" standalone="no"?>
<!DOCTYPE svg PUBLIC "-//W3C//DTD SVG 1.1//EN"
 "http://www.w3.org/Graphics/SVG/1.1/DTD/svg11.dtd">
<!-- Generated by graphviz version 2.40.1 (20161225.0304)
 -->
<!-- Title: public.t_chat_room_update_name_actions Pages: 1 -->
<svg width="1712pt" height="922pt"
 viewBox="0.00 0.00 1712.00 922.00" xmlns="http://www.w3.org/2000/svg" xmlns:xlink="http://www.w3.org/1999/xlink">
<g id="graph0" class="graph" transform="scale(1 1) rotate(0) translate(4 918)">
<title>public.t_chat_room_update_name_actions</title>
<polygon fill="#ffffff" stroke="transparent" points="-4,4 -4,-918 1708,-918 1708,4 -4,4"/>
<!-- public.t_chat_room_update_name_actions -->
<g id="node1" class="node">
<title>public.t_chat_room_update_name_actions</title>
<polygon fill="#efefef" stroke="transparent" points="673,-832.5 673,-867.5 1153,-867.5 1153,-832.5 673,-832.5"/>
<polygon fill="none" stroke="#000000" points="673,-832.5 673,-867.5 1153,-867.5 1153,-832.5 673,-832.5"/>
<text text-anchor="start" x="679.6596" y="-845.3" font-family="Arial Bold" font-size="18.00" fill="#000000">public.t_chat_room_update_name_actions</text>
<text text-anchor="start" x="1018.7724" y="-845.3" font-family="Arial" font-size="14.00" fill="#000000">    </text>
<text text-anchor="start" x="1052.9772" y="-845.3" font-family="Arial" font-size="14.00" fill="#666666">[BASE TABLE]</text>
<polygon fill="none" stroke="#000000" points="673,-802.5 673,-832.5 1153,-832.5 1153,-802.5 673,-802.5"/>
<text text-anchor="start" x="680" y="-813.9" font-family="Arial" font-size="14.00" fill="#000000">t_chat_room_update_name_actions_pkey </text>
<text text-anchor="start" x="944.5412" y="-813.9" font-family="Arial" font-size="14.00" fill="#666666">[bigint]</text>
<polygon fill="none" stroke="#000000" points="673,-772.5 673,-802.5 1153,-802.5 1153,-772.5 673,-772.5"/>
<text text-anchor="start" x="680" y="-783.9" font-family="Arial" font-size="14.00" fill="#000000">chat_room_update_name_action_id </text>
<text text-anchor="start" x="907.192" y="-783.9" font-family="Arial" font-size="14.00" fill="#666666">[uuid]</text>
<polygon fill="none" stroke="#000000" points="673,-742.5 673,-772.5 1153,-772.5 1153,-742.5 673,-742.5"/>
<text text-anchor="start" x="680" y="-753.9" font-family="Arial" font-size="14.00" fill="#000000">chat_room_action_id </text>
<text text-anchor="start" x="813.8148" y="-753.9" font-family="Arial" font-size="14.00" fill="#666666">[uuid]</text>
<polygon fill="none" stroke="#000000" points="673,-712.5 673,-742.5 1153,-742.5 1153,-712.5 673,-712.5"/>
<text text-anchor="start" x="680" y="-723.9" font-family="Arial" font-size="14.00" fill="#000000">updated_by </text>
<text text-anchor="start" x="757.042" y="-723.9" font-family="Arial" font-size="14.00" fill="#666666">[uuid]</text>
<polygon fill="none" stroke="#000000" points="673,-682.5 673,-712.5 1153,-712.5 1153,-682.5 673,-682.5"/>
<text text-anchor="start" x="680" y="-693.9" font-family="Arial" font-size="14.00" fill="#000000">name </text>
<text text-anchor="start" x="718.899" y="-693.9" font-family="Arial" font-size="14.00" fill="#666666">[varchar(255)]</text>
<polygon fill="none" stroke="#000000" stroke-width="3" points="671.5,-681.5 671.5,-869.5 1154.5,-869.5 1154.5,-681.5 671.5,-681.5"/>
</g>
<!-- public.t_chat_room_actions -->
<g id="node2" class="node">
<title>public.t_chat_room_actions</title>
<polygon fill="#efefef" stroke="transparent" points="517,-357.5 517,-392.5 877,-392.5 877,-357.5 517,-357.5"/>
<polygon fill="none" stroke="#000000" points="517,-357.5 517,-392.5 877,-392.5 877,-357.5 517,-357.5"/>
<text text-anchor="start" x="523.6878" y="-370.3" font-family="Arial Bold" font-size="18.00" fill="#000000">public.t_chat_room_actions</text>
<text text-anchor="start" x="742.7442" y="-370.3" font-family="Arial" font-size="14.00" fill="#000000">    </text>
<text text-anchor="start" x="776.949" y="-370.3" font-family="Arial" font-size="14.00" fill="#666666">[BASE TABLE]</text>
<polygon fill="none" stroke="#000000" points="517,-327.5 517,-357.5 877,-357.5 877,-327.5 517,-327.5"/>
<text text-anchor="start" x="524" y="-338.9" font-family="Arial" font-size="14.00" fill="#000000">t_chat_room_actions_pkey    </text>
<text text-anchor="start" x="725.4782" y="-338.9" font-family="Arial" font-size="14.00" fill="#666666">[bigint]</text>
<polygon fill="none" stroke="#000000" points="517,-297.5 517,-327.5 877,-327.5 877,-297.5 517,-297.5"/>
<text text-anchor="start" x="524" y="-308.9" font-family="Arial" font-size="14.00" fill="#000000">chat_room_action_id    </text>
<text text-anchor="start" x="688.129" y="-308.9" font-family="Arial" font-size="14.00" fill="#666666">[uuid]</text>
<polygon fill="none" stroke="#000000" points="517,-267.5 517,-297.5 877,-297.5 877,-267.5 517,-267.5"/>
<text text-anchor="start" x="524" y="-278.9" font-family="Arial" font-size="14.00" fill="#000000">chat_room_id    </text>
<text text-anchor="start" x="643.0014" y="-278.9" font-family="Arial" font-size="14.00" fill="#666666">[uuid]</text>
<polygon fill="none" stroke="#000000" points="517,-237.5 517,-267.5 877,-267.5 877,-237.5 517,-237.5"/>
<text text-anchor="start" x="524" y="-248.9" font-family="Arial" font-size="14.00" fill="#000000">chat_room_action_type_id    </text>
<text text-anchor="start" x="722.3674" y="-248.9" font-family="Arial" font-size="14.00" fill="#666666">[uuid]</text>
<polygon fill="none" stroke="#000000" points="517,-207.5 517,-237.5 877,-237.5 877,-207.5 517,-207.5"/>
<text text-anchor="start" x="524" y="-218.9" font-family="Arial" font-size="14.00" fill="#000000">acted_at    </text>
<text text-anchor="start" x="611.899" y="-218.9" font-family="Arial" font-size="14.00" fill="#666666">[timestamp with time zone]</text>
</g>
<!-- public.t_chat_room_update_name_actions&#45;&gt;public.t_chat_room_actions -->
<g id="edge1" class="edge">
<title>public.t_chat_room_update_name_actions:chat_room_action_id&#45;&gt;public.t_chat_room_actions:chat_room_action_id</title>
<path fill="none" stroke="#000000" d="M662.9508,-756.4778C624.0075,-747.6092 653.776,-682.929 673,-637 722.1442,-519.5873 827.8558,-553.4127 877,-436 898.1927,-385.3674 931.8889,-312.5 877,-312.5"/>
<polygon fill="#000000" stroke="#000000" points="663.0513,-756.4879 672.5446,-761.9769 668.0257,-756.994 673,-757.5 673,-757.5 673,-757.5 668.0257,-756.994 673.4554,-753.0231 663.0513,-756.4879 663.0513,-756.4879"/>
<text text-anchor="start" x="7.242" y="-767.5" font-family="Arial" font-size="10.00" fill="#000000">FOREIGN KEY (chat_room_action_id) REFERENCES t_chat_room_actions(chat_room_action_id) ON UPDATE CASCADE ON DELETE CASCADE</text>
</g>
<!-- public.m_members -->
<g id="node3" class="node">
<title>public.m_members</title>
<polygon fill="#efefef" stroke="transparent" points="982,-522.5 982,-557.5 1275,-557.5 1275,-522.5 982,-522.5"/>
<polygon fill="none" stroke="#000000" points="982,-522.5 982,-557.5 1275,-557.5 1275,-522.5 982,-522.5"/>
<text text-anchor="start" x="988.7146" y="-535.3" font-family="Arial Bold" font-size="18.00" fill="#000000">public.m_members</text>
<text text-anchor="start" x="1140.7174" y="-535.3" font-family="Arial" font-size="14.00" fill="#000000">    </text>
<text text-anchor="start" x="1174.9222" y="-535.3" font-family="Arial" font-size="14.00" fill="#666666">[BASE TABLE]</text>
<polygon fill="none" stroke="#000000" points="982,-492.5 982,-522.5 1275,-522.5 1275,-492.5 982,-492.5"/>
<text text-anchor="start" x="989" y="-503.9" font-family="Arial" font-size="14.00" fill="#000000">m_members_pkey    </text>
<text text-anchor="start" x="1138.3254" y="-503.9" font-family="Arial" font-size="14.00" fill="#666666">[bigint]</text>
<polygon fill="none" stroke="#000000" points="982,-462.5 982,-492.5 1275,-492.5 1275,-462.5 982,-462.5"/>
<text text-anchor="start" x="989" y="-473.9" font-family="Arial" font-size="14.00" fill="#000000">member_id    </text>
<text text-anchor="start" x="1093.2062" y="-473.9" font-family="Arial" font-size="14.00" fill="#666666">[uuid]</text>
<polygon fill="none" stroke="#000000" points="982,-432.5 982,-462.5 1275,-462.5 1275,-432.5 982,-432.5"/>
<text text-anchor="start" x="989" y="-443.9" font-family="Arial" font-size="14.00" fill="#000000">login_id    </text>
<text text-anchor="start" x="1071.4376" y="-443.9" font-family="Arial" font-size="14.00" fill="#666666">[varchar(255)]</text>
<polygon fill="none" stroke="#000000" points="982,-402.5 982,-432.5 1275,-432.5 1275,-402.5 982,-402.5"/>
<text text-anchor="start" x="989" y="-413.9" font-family="Arial" font-size="14.00" fill="#000000">password    </text>
<text text-anchor="start" x="1083.1024" y="-413.9" font-family="Arial" font-size="14.00" fill="#666666">[varchar(255)]</text>
<polygon fill="none" stroke="#000000" points="982,-372.5 982,-402.5 1275,-402.5 1275,-372.5 982,-372.5"/>
<text text-anchor="start" x="989" y="-383.9" font-family="Arial" font-size="14.00" fill="#000000">email    </text>
<text text-anchor="start" x="1056.6438" y="-383.9" font-family="Arial" font-size="14.00" fill="#666666">[varchar(255)]</text>
<polygon fill="none" stroke="#000000" points="982,-342.5 982,-372.5 1275,-372.5 1275,-342.5 982,-342.5"/>
<text text-anchor="start" x="989" y="-353.9" font-family="Arial" font-size="14.00" fill="#000000">name    </text>
<text text-anchor="start" x="1058.2132" y="-353.9" font-family="Arial" font-size="14.00" fill="#666666">[varchar(255)]</text>
<polygon fill="none" stroke="#000000" points="982,-312.5 982,-342.5 1275,-342.5 1275,-312.5 982,-312.5"/>
<text text-anchor="start" x="989" y="-323.9" font-family="Arial" font-size="14.00" fill="#000000">first_name    </text>
<text text-anchor="start" x="1088.5442" y="-323.9" font-family="Arial" font-size="14.00" fill="#666666">[varchar(255)]</text>
<polygon fill="none" stroke="#000000" points="982,-282.5 982,-312.5 1275,-312.5 1275,-282.5 982,-282.5"/>
<text text-anchor="start" x="989" y="-293.9" font-family="Arial" font-size="14.00" fill="#000000">last_name    </text>
<text text-anchor="start" x="1087.7756" y="-293.9" font-family="Arial" font-size="14.00" fill="#666666">[varchar(255)]</text>
<polygon fill="none" stroke="#000000" points="982,-252.5 982,-282.5 1275,-282.5 1275,-252.5 982,-252.5"/>
<text text-anchor="start" x="989" y="-263.9" font-family="Arial" font-size="14.00" fill="#000000">attend_status_id    </text>
<text text-anchor="start" x="1125.9172" y="-263.9" font-family="Arial" font-size="14.00" fill="#666666">[uuid]</text>
<polygon fill="none" stroke="#000000" points="982,-222.5 982,-252.5 1275,-252.5 1275,-222.5 982,-222.5"/>
<text text-anchor="start" x="989" y="-233.9" font-family="Arial" font-size="14.00" fill="#000000">profile_image_id    </text>
<text text-anchor="start" x="1125.8864" y="-233.9" font-family="Arial" font-size="14.00" fill="#666666">[uuid]</text>
<polygon fill="none" stroke="#000000" points="982,-192.5 982,-222.5 1275,-222.5 1275,-192.5 982,-192.5"/>
<text text-anchor="start" x="989" y="-203.9" font-family="Arial" font-size="14.00" fill="#000000">grade_id    </text>
<text text-anchor="start" x="1077.6676" y="-203.9" font-family="Arial" font-size="14.00" fill="#666666">[uuid]</text>
<polygon fill="none" stroke="#000000" points="982,-162.5 982,-192.5 1275,-192.5 1275,-162.5 982,-162.5"/>
<text text-anchor="start" x="989" y="-173.9" font-family="Arial" font-size="14.00" fill="#000000">group_id    </text>
<text text-anchor="start" x="1077.6676" y="-173.9" font-family="Arial" font-size="14.00" fill="#666666">[uuid]</text>
<polygon fill="none" stroke="#000000" points="982,-132.5 982,-162.5 1275,-162.5 1275,-132.5 982,-132.5"/>
<text text-anchor="start" x="989" y="-143.9" font-family="Arial" font-size="14.00" fill="#000000">personal_organization_id    </text>
<text text-anchor="start" x="1179.582" y="-143.9" font-family="Arial" font-size="14.00" fill="#666666">[uuid]</text>
<polygon fill="none" stroke="#000000" points="982,-102.5 982,-132.5 1275,-132.5 1275,-102.5 982,-102.5"/>
<text text-anchor="start" x="989" y="-113.9" font-family="Arial" font-size="14.00" fill="#000000">role_id    </text>
<text text-anchor="start" x="1065.209" y="-113.9" font-family="Arial" font-size="14.00" fill="#666666">[uuid]</text>
<polygon fill="none" stroke="#000000" points="982,-72.5 982,-102.5 1275,-102.5 1275,-72.5 982,-72.5"/>
<text text-anchor="start" x="989" y="-83.9" font-family="Arial" font-size="14.00" fill="#000000">created_at    </text>
<text text-anchor="start" x="1089.3422" y="-83.9" font-family="Arial" font-size="14.00" fill="#666666">[timestamp with time zone]</text>
<polygon fill="none" stroke="#000000" points="982,-42.5 982,-72.5 1275,-72.5 1275,-42.5 982,-42.5"/>
<text text-anchor="start" x="989" y="-53.9" font-family="Arial" font-size="14.00" fill="#000000">updated_at    </text>
<text text-anchor="start" x="1093.2468" y="-53.9" font-family="Arial" font-size="14.00" fill="#666666">[timestamp with time zone]</text>
</g>
<!-- public.t_chat_room_update_name_actions&#45;&gt;public.m_members -->
<g id="edge2" class="edge">
<title>public.t_chat_room_update_name_actions:updated_by&#45;&gt;public.m_members:member_id</title>
<path fill="none" stroke="#000000" d="M1162.8964,-726.0093C1190.3404,-716.634 1175.9671,-665.3057 1153,-637 1104.0646,-576.6897 1030.9354,-661.3103 982,-601 947.4159,-558.3769 927.1111,-477.5 982,-477.5"/>
<polygon fill="#000000" stroke="#000000" points="1162.8884,-726.0104 1152.3297,-723.0502 1157.9442,-726.7552 1153,-727.5 1153,-727.5 1153,-727.5 1157.9442,-726.7552 1153.6703,-731.9498 1162.8884,-726.0104 1162.8884,-726.0104"/>
<text text-anchor="start" x="1160.096" y="-737.5" font-family="Arial" font-size="10.00" fill="#000000">FOREIGN KEY (updated_by) REFERENCES m_members(member_id) ON UPDATE SET NULL ON DELETE SET NULL</text>
</g>
</g>
</svg>
