<?xml version="1.0" encoding="UTF-8" standalone="no"?>
<!DOCTYPE svg PUBLIC "-//W3C//DTD SVG 1.1//EN"
 "http://www.w3.org/Graphics/SVG/1.1/DTD/svg11.dtd">
<!-- Generated by graphviz version 2.40.1 (20161225.0304)
 -->
<!-- Title: public.t_chat_room_remove_member_actions Pages: 1 -->
<svg width="2082pt" height="1139pt"
 viewBox="0.00 0.00 2082.00 1139.00" xmlns="http://www.w3.org/2000/svg" xmlns:xlink="http://www.w3.org/1999/xlink">
<g id="graph0" class="graph" transform="scale(1 1) rotate(0) translate(4 1135)">
<title>public.t_chat_room_remove_member_actions</title>
<polygon fill="#ffffff" stroke="transparent" points="-4,4 -4,-1135 2078,-1135 2078,4 -4,4"/>
<!-- public.t_chat_room_remove_member_actions -->
<g id="node1" class="node">
<title>public.t_chat_room_remove_member_actions</title>
<polygon fill="#efefef" stroke="transparent" points="676,-802.5 676,-837.5 1182,-837.5 1182,-802.5 676,-802.5"/>
<polygon fill="none" stroke="#000000" points="676,-802.5 676,-837.5 1182,-837.5 1182,-802.5 676,-802.5"/>
<text text-anchor="start" x="682.6825" y="-815.3" font-family="Arial Bold" font-size="18.00" fill="#000000">public.t_chat_room_remove_member_actions</text>
<text text-anchor="start" x="1047.7495" y="-815.3" font-family="Arial" font-size="14.00" fill="#000000">    </text>
<text text-anchor="start" x="1081.9543" y="-815.3" font-family="Arial" font-size="14.00" fill="#666666">[BASE TABLE]</text>
<polygon fill="none" stroke="#000000" points="676,-772.5 676,-802.5 1182,-802.5 1182,-772.5 676,-772.5"/>
<text text-anchor="start" x="683" y="-783.9" font-family="Arial" font-size="14.00" fill="#000000">t_chat_room_remove_member_actions_pkey </text>
<text text-anchor="start" x="967.7278" y="-783.9" font-family="Arial" font-size="14.00" fill="#666666">[bigint]</text>
<polygon fill="none" stroke="#000000" points="676,-742.5 676,-772.5 1182,-772.5 1182,-742.5 676,-742.5"/>
<text text-anchor="start" x="683" y="-753.9" font-family="Arial" font-size="14.00" fill="#000000">chat_room_remove_member_action_id </text>
<text text-anchor="start" x="930.3786" y="-753.9" font-family="Arial" font-size="14.00" fill="#666666">[uuid]</text>
<polygon fill="none" stroke="#000000" points="676,-712.5 676,-742.5 1182,-742.5 1182,-712.5 676,-712.5"/>
<text text-anchor="start" x="683" y="-723.9" font-family="Arial" font-size="14.00" fill="#000000">chat_room_action_id </text>
<text text-anchor="start" x="816.8148" y="-723.9" font-family="Arial" font-size="14.00" fill="#666666">[uuid]</text>
<polygon fill="none" stroke="#000000" points="676,-682.5 676,-712.5 1182,-712.5 1182,-682.5 676,-682.5"/>
<text text-anchor="start" x="683" y="-693.9" font-family="Arial" font-size="14.00" fill="#000000">removed_by </text>
<text text-anchor="start" x="763.9074" y="-693.9" font-family="Arial" font-size="14.00" fill="#666666">[uuid]</text>
<polygon fill="none" stroke="#000000" stroke-width="3" points="674.5,-681.5 674.5,-839.5 1183.5,-839.5 1183.5,-681.5 674.5,-681.5"/>
</g>
<!-- public.t_chat_room_actions -->
<g id="node3" class="node">
<title>public.t_chat_room_actions</title>
<polygon fill="#efefef" stroke="transparent" points="533,-342.5 533,-377.5 893,-377.5 893,-342.5 533,-342.5"/>
<polygon fill="none" stroke="#000000" points="533,-342.5 533,-377.5 893,-377.5 893,-342.5 533,-342.5"/>
<text text-anchor="start" x="539.6878" y="-355.3" font-family="Arial Bold" font-size="18.00" fill="#000000">public.t_chat_room_actions</text>
<text text-anchor="start" x="758.7442" y="-355.3" font-family="Arial" font-size="14.00" fill="#000000">    </text>
<text text-anchor="start" x="792.949" y="-355.3" font-family="Arial" font-size="14.00" fill="#666666">[BASE TABLE]</text>
<polygon fill="none" stroke="#000000" points="533,-312.5 533,-342.5 893,-342.5 893,-312.5 533,-312.5"/>
<text text-anchor="start" x="540" y="-323.9" font-family="Arial" font-size="14.00" fill="#000000">t_chat_room_actions_pkey    </text>
<text text-anchor="start" x="741.4782" y="-323.9" font-family="Arial" font-size="14.00" fill="#666666">[bigint]</text>
<polygon fill="none" stroke="#000000" points="533,-282.5 533,-312.5 893,-312.5 893,-282.5 533,-282.5"/>
<text text-anchor="start" x="540" y="-293.9" font-family="Arial" font-size="14.00" fill="#000000">chat_room_action_id    </text>
<text text-anchor="start" x="704.129" y="-293.9" font-family="Arial" font-size="14.00" fill="#666666">[uuid]</text>
<polygon fill="none" stroke="#000000" points="533,-252.5 533,-282.5 893,-282.5 893,-252.5 533,-252.5"/>
<text text-anchor="start" x="540" y="-263.9" font-family="Arial" font-size="14.00" fill="#000000">chat_room_action_type_id    </text>
<text text-anchor="start" x="738.3674" y="-263.9" font-family="Arial" font-size="14.00" fill="#666666">[uuid]</text>
<polygon fill="none" stroke="#000000" points="533,-222.5 533,-252.5 893,-252.5 893,-222.5 533,-222.5"/>
<text text-anchor="start" x="540" y="-233.9" font-family="Arial" font-size="14.00" fill="#000000">acted_at    </text>
<text text-anchor="start" x="627.899" y="-233.9" font-family="Arial" font-size="14.00" fill="#666666">[timestamp with time zone]</text>
</g>
<!-- public.t_chat_room_remove_member_actions&#45;&gt;public.t_chat_room_actions -->
<g id="edge2" class="edge">
<title>public.t_chat_room_remove_member_actions:chat_room_action_id&#45;&gt;public.t_chat_room_actions:chat_room_action_id</title>
<path fill="none" stroke="#000000" d="M666.0068,-726.0382C640.5298,-717.2333 662.0721,-670.5155 676,-637 728.2204,-511.3395 840.7796,-546.6605 893,-421 914.0636,-370.3136 947.8889,-297.5 893,-297.5"/>
<polygon fill="#000000" stroke="#000000" points="666.1053,-726.0525 675.3486,-731.9526 671.0526,-726.7763 676,-727.5 676,-727.5 676,-727.5 671.0526,-726.7763 676.6514,-723.0474 666.1053,-726.0525 666.1053,-726.0525"/>
<text text-anchor="start" x="6.583" y="-737.5" font-family="Arial" font-size="10.00" fill="#000000">FOREIGN KEY (chat_room_action_id) REFERENCES t_chat_room_actions(chat_room_action_id) ON UPDATE RESTRICT ON DELETE RESTRICT</text>
</g>
<!-- public.m_members -->
<g id="node4" class="node">
<title>public.m_members</title>
<polygon fill="#efefef" stroke="transparent" points="998,-522.5 998,-557.5 1291,-557.5 1291,-522.5 998,-522.5"/>
<polygon fill="none" stroke="#000000" points="998,-522.5 998,-557.5 1291,-557.5 1291,-522.5 998,-522.5"/>
<text text-anchor="start" x="1004.7146" y="-535.3" font-family="Arial Bold" font-size="18.00" fill="#000000">public.m_members</text>
<text text-anchor="start" x="1156.7174" y="-535.3" font-family="Arial" font-size="14.00" fill="#000000">    </text>
<text text-anchor="start" x="1190.9222" y="-535.3" font-family="Arial" font-size="14.00" fill="#666666">[BASE TABLE]</text>
<polygon fill="none" stroke="#000000" points="998,-492.5 998,-522.5 1291,-522.5 1291,-492.5 998,-492.5"/>
<text text-anchor="start" x="1005" y="-503.9" font-family="Arial" font-size="14.00" fill="#000000">m_members_pkey    </text>
<text text-anchor="start" x="1154.3254" y="-503.9" font-family="Arial" font-size="14.00" fill="#666666">[bigint]</text>
<polygon fill="none" stroke="#000000" points="998,-462.5 998,-492.5 1291,-492.5 1291,-462.5 998,-462.5"/>
<text text-anchor="start" x="1005" y="-473.9" font-family="Arial" font-size="14.00" fill="#000000">member_id    </text>
<text text-anchor="start" x="1109.2062" y="-473.9" font-family="Arial" font-size="14.00" fill="#666666">[uuid]</text>
<polygon fill="none" stroke="#000000" points="998,-432.5 998,-462.5 1291,-462.5 1291,-432.5 998,-432.5"/>
<text text-anchor="start" x="1005" y="-443.9" font-family="Arial" font-size="14.00" fill="#000000">login_id    </text>
<text text-anchor="start" x="1087.4376" y="-443.9" font-family="Arial" font-size="14.00" fill="#666666">[varchar(255)]</text>
<polygon fill="none" stroke="#000000" points="998,-402.5 998,-432.5 1291,-432.5 1291,-402.5 998,-402.5"/>
<text text-anchor="start" x="1005" y="-413.9" font-family="Arial" font-size="14.00" fill="#000000">password    </text>
<text text-anchor="start" x="1099.1024" y="-413.9" font-family="Arial" font-size="14.00" fill="#666666">[varchar(255)]</text>
<polygon fill="none" stroke="#000000" points="998,-372.5 998,-402.5 1291,-402.5 1291,-372.5 998,-372.5"/>
<text text-anchor="start" x="1005" y="-383.9" font-family="Arial" font-size="14.00" fill="#000000">email    </text>
<text text-anchor="start" x="1072.6438" y="-383.9" font-family="Arial" font-size="14.00" fill="#666666">[varchar(255)]</text>
<polygon fill="none" stroke="#000000" points="998,-342.5 998,-372.5 1291,-372.5 1291,-342.5 998,-342.5"/>
<text text-anchor="start" x="1005" y="-353.9" font-family="Arial" font-size="14.00" fill="#000000">name    </text>
<text text-anchor="start" x="1074.2132" y="-353.9" font-family="Arial" font-size="14.00" fill="#666666">[varchar(255)]</text>
<polygon fill="none" stroke="#000000" points="998,-312.5 998,-342.5 1291,-342.5 1291,-312.5 998,-312.5"/>
<text text-anchor="start" x="1005" y="-323.9" font-family="Arial" font-size="14.00" fill="#000000">first_name    </text>
<text text-anchor="start" x="1104.5442" y="-323.9" font-family="Arial" font-size="14.00" fill="#666666">[varchar(255)]</text>
<polygon fill="none" stroke="#000000" points="998,-282.5 998,-312.5 1291,-312.5 1291,-282.5 998,-282.5"/>
<text text-anchor="start" x="1005" y="-293.9" font-family="Arial" font-size="14.00" fill="#000000">last_name    </text>
<text text-anchor="start" x="1103.7756" y="-293.9" font-family="Arial" font-size="14.00" fill="#666666">[varchar(255)]</text>
<polygon fill="none" stroke="#000000" points="998,-252.5 998,-282.5 1291,-282.5 1291,-252.5 998,-252.5"/>
<text text-anchor="start" x="1005" y="-263.9" font-family="Arial" font-size="14.00" fill="#000000">attend_status_id    </text>
<text text-anchor="start" x="1141.9172" y="-263.9" font-family="Arial" font-size="14.00" fill="#666666">[uuid]</text>
<polygon fill="none" stroke="#000000" points="998,-222.5 998,-252.5 1291,-252.5 1291,-222.5 998,-222.5"/>
<text text-anchor="start" x="1005" y="-233.9" font-family="Arial" font-size="14.00" fill="#000000">profile_image_id    </text>
<text text-anchor="start" x="1141.8864" y="-233.9" font-family="Arial" font-size="14.00" fill="#666666">[uuid]</text>
<polygon fill="none" stroke="#000000" points="998,-192.5 998,-222.5 1291,-222.5 1291,-192.5 998,-192.5"/>
<text text-anchor="start" x="1005" y="-203.9" font-family="Arial" font-size="14.00" fill="#000000">grade_id    </text>
<text text-anchor="start" x="1093.6676" y="-203.9" font-family="Arial" font-size="14.00" fill="#666666">[uuid]</text>
<polygon fill="none" stroke="#000000" points="998,-162.5 998,-192.5 1291,-192.5 1291,-162.5 998,-162.5"/>
<text text-anchor="start" x="1005" y="-173.9" font-family="Arial" font-size="14.00" fill="#000000">group_id    </text>
<text text-anchor="start" x="1093.6676" y="-173.9" font-family="Arial" font-size="14.00" fill="#666666">[uuid]</text>
<polygon fill="none" stroke="#000000" points="998,-132.5 998,-162.5 1291,-162.5 1291,-132.5 998,-132.5"/>
<text text-anchor="start" x="1005" y="-143.9" font-family="Arial" font-size="14.00" fill="#000000">personal_organization_id    </text>
<text text-anchor="start" x="1195.582" y="-143.9" font-family="Arial" font-size="14.00" fill="#666666">[uuid]</text>
<polygon fill="none" stroke="#000000" points="998,-102.5 998,-132.5 1291,-132.5 1291,-102.5 998,-102.5"/>
<text text-anchor="start" x="1005" y="-113.9" font-family="Arial" font-size="14.00" fill="#000000">role_id    </text>
<text text-anchor="start" x="1081.209" y="-113.9" font-family="Arial" font-size="14.00" fill="#666666">[uuid]</text>
<polygon fill="none" stroke="#000000" points="998,-72.5 998,-102.5 1291,-102.5 1291,-72.5 998,-72.5"/>
<text text-anchor="start" x="1005" y="-83.9" font-family="Arial" font-size="14.00" fill="#000000">created_at    </text>
<text text-anchor="start" x="1105.3422" y="-83.9" font-family="Arial" font-size="14.00" fill="#666666">[timestamp with time zone]</text>
<polygon fill="none" stroke="#000000" points="998,-42.5 998,-72.5 1291,-72.5 1291,-42.5 998,-42.5"/>
<text text-anchor="start" x="1005" y="-53.9" font-family="Arial" font-size="14.00" fill="#000000">updated_at    </text>
<text text-anchor="start" x="1109.2468" y="-53.9" font-family="Arial" font-size="14.00" fill="#666666">[timestamp with time zone]</text>
</g>
<!-- public.t_chat_room_remove_member_actions&#45;&gt;public.m_members -->
<g id="edge3" class="edge">
<title>public.t_chat_room_remove_member_actions:removed_by&#45;&gt;public.m_members:member_id</title>
<path fill="none" stroke="#000000" d="M1192.0293,-694.8133C1205.6489,-685.5443 1196.4203,-654.5151 1182,-637 1129.0361,-572.6694 1050.9639,-665.3306 998,-601 963.1123,-558.625 943.1111,-477.5 998,-477.5"/>
<polygon fill="#000000" stroke="#000000" points="1191.6594,-694.9123 1180.8355,-693.1533 1186.8297,-696.2061 1182,-697.5 1182,-697.5 1182,-697.5 1186.8297,-696.2061 1183.1645,-701.8467 1191.6594,-694.9123 1191.6594,-694.9123"/>
<text text-anchor="start" x="1188.7155" y="-707.5" font-family="Arial" font-size="10.00" fill="#000000">FOREIGN KEY (removed_by) REFERENCES m_members(member_id) ON UPDATE SET NULL ON DELETE SET NULL</text>
</g>
<!-- public.t_chat_room_removed_members -->
<g id="node2" class="node">
<title>public.t_chat_room_removed_members</title>
<polygon fill="#efefef" stroke="transparent" points="700,-1052.5 700,-1087.5 1158,-1087.5 1158,-1052.5 700,-1052.5"/>
<polygon fill="none" stroke="#000000" points="700,-1052.5 700,-1087.5 1158,-1087.5 1158,-1052.5 700,-1052.5"/>
<text text-anchor="start" x="706.69" y="-1065.3" font-family="Arial Bold" font-size="18.00" fill="#000000">public.t_chat_room_removed_members</text>
<text text-anchor="start" x="1023.742" y="-1065.3" font-family="Arial" font-size="14.00" fill="#000000">    </text>
<text text-anchor="start" x="1057.9468" y="-1065.3" font-family="Arial" font-size="14.00" fill="#666666">[BASE TABLE]</text>
<polygon fill="none" stroke="#000000" points="700,-1022.5 700,-1052.5 1158,-1052.5 1158,-1022.5 700,-1022.5"/>
<text text-anchor="start" x="707" y="-1033.9" font-family="Arial" font-size="14.00" fill="#000000">t_chat_room_removed_members_pkey    </text>
<text text-anchor="start" x="984.697" y="-1033.9" font-family="Arial" font-size="14.00" fill="#666666">[bigint]</text>
<polygon fill="none" stroke="#000000" points="700,-992.5 700,-1022.5 1158,-1022.5 1158,-992.5 700,-992.5"/>
<text text-anchor="start" x="707" y="-1003.9" font-family="Arial" font-size="14.00" fill="#000000">chat_room_remove_member_action_id    </text>
<text text-anchor="start" x="984.6928" y="-1003.9" font-family="Arial" font-size="14.00" fill="#666666">[uuid]</text>
<polygon fill="none" stroke="#000000" points="700,-962.5 700,-992.5 1158,-992.5 1158,-962.5 700,-962.5"/>
<text text-anchor="start" x="707" y="-973.9" font-family="Arial" font-size="14.00" fill="#000000">member_id    </text>
<text text-anchor="start" x="811.2062" y="-973.9" font-family="Arial" font-size="14.00" fill="#666666">[uuid]</text>
</g>
<!-- public.t_chat_room_removed_members&#45;&gt;public.t_chat_room_remove_member_actions -->
<g id="edge1" class="edge">
<title>public.t_chat_room_removed_members:chat_room_remove_member_action_id&#45;&gt;public.t_chat_room_remove_member_actions:chat_room_remove_member_action_id</title>
<path fill="none" stroke="#000000" d="M1168.2064,-1006.7828C1270.9895,-992.1191 1290.1338,-757.5 1182,-757.5"/>
<polygon fill="#000000" stroke="#000000" points="1167.9754,-1006.799 1157.6845,-1003.0111 1162.9877,-1007.1495 1158,-1007.5 1158,-1007.5 1158,-1007.5 1162.9877,-1007.1495 1158.3155,-1011.9889 1167.9754,-1006.799 1167.9754,-1006.799"/>
<text text-anchor="start" x="1164.5665" y="-1017.5" font-family="Arial" font-size="10.00" fill="#000000">FOREIGN KEY (chat_room_remove_member_action_id) REFERENCES t_chat_room_remove_member_actions(chat_room_remove_member_action_id) ON UPDATE CASCADE ON DELETE CASCADE</text>
</g>
</g>
</svg>
