<?xml version="1.0" encoding="UTF-8" standalone="no"?>
<!DOCTYPE svg PUBLIC "-//W3C//DTD SVG 1.1//EN"
 "http://www.w3.org/Graphics/SVG/1.1/DTD/svg11.dtd">
<!-- Generated by graphviz version 2.40.1 (20161225.0304)
 -->
<!-- Title: public.m_event_types Pages: 1 -->
<svg width="952pt" height="862pt"
 viewBox="0.00 0.00 951.50 862.00" xmlns="http://www.w3.org/2000/svg" xmlns:xlink="http://www.w3.org/1999/xlink">
<g id="graph0" class="graph" transform="scale(1 1) rotate(0) translate(4 858)">
<title>public.m_event_types</title>
<polygon fill="#ffffff" stroke="transparent" points="-4,4 -4,-858 947.5,-858 947.5,4 -4,4"/>
<!-- public.m_event_types -->
<g id="node1" class="node">
<title>public.m_event_types</title>
<polygon fill="#efefef" stroke="transparent" points="583,-195.5 583,-230.5 898,-230.5 898,-195.5 583,-195.5"/>
<polygon fill="none" stroke="#000000" points="583,-195.5 583,-230.5 898,-230.5 898,-195.5 583,-195.5"/>
<text text-anchor="start" x="589.6914" y="-208.3" font-family="Arial Bold" font-size="18.00" fill="#000000">public.m_event_types</text>
<text text-anchor="start" x="763.7406" y="-208.3" font-family="Arial" font-size="14.00" fill="#000000">    </text>
<text text-anchor="start" x="797.9454" y="-208.3" font-family="Arial" font-size="14.00" fill="#666666">[BASE TABLE]</text>
<polygon fill="none" stroke="#000000" points="583,-165.5 583,-195.5 898,-195.5 898,-165.5 583,-165.5"/>
<text text-anchor="start" x="590" y="-176.9" font-family="Arial" font-size="14.00" fill="#000000">m_event_types_pkey </text>
<text text-anchor="start" x="726.1584" y="-176.9" font-family="Arial" font-size="14.00" fill="#666666">[bigint]</text>
<polygon fill="none" stroke="#000000" points="583,-135.5 583,-165.5 898,-165.5 898,-135.5 583,-135.5"/>
<text text-anchor="start" x="590" y="-146.9" font-family="Arial" font-size="14.00" fill="#000000">event_type_id </text>
<text text-anchor="start" x="681.0392" y="-146.9" font-family="Arial" font-size="14.00" fill="#666666">[uuid]</text>
<polygon fill="none" stroke="#000000" points="583,-105.5 583,-135.5 898,-135.5 898,-105.5 583,-105.5"/>
<text text-anchor="start" x="590" y="-116.9" font-family="Arial" font-size="14.00" fill="#000000">name </text>
<text text-anchor="start" x="628.899" y="-116.9" font-family="Arial" font-size="14.00" fill="#666666">[varchar(255)]</text>
<polygon fill="none" stroke="#000000" points="583,-75.5 583,-105.5 898,-105.5 898,-75.5 583,-75.5"/>
<text text-anchor="start" x="590" y="-86.9" font-family="Arial" font-size="14.00" fill="#000000">key </text>
<text text-anchor="start" x="615.6732" y="-86.9" font-family="Arial" font-size="14.00" fill="#666666">[varchar(255)]</text>
<polygon fill="none" stroke="#000000" points="583,-45.5 583,-75.5 898,-75.5 898,-45.5 583,-45.5"/>
<text text-anchor="start" x="590" y="-56.9" font-family="Arial" font-size="14.00" fill="#000000">color </text>
<text text-anchor="start" x="624.223" y="-56.9" font-family="Arial" font-size="14.00" fill="#666666">[varchar(15)]</text>
<polygon fill="none" stroke="#000000" stroke-width="3" points="581,-44.5 581,-232.5 899,-232.5 899,-44.5 581,-44.5"/>
</g>
<!-- public.t_events -->
<g id="node2" class="node">
<title>public.t_events</title>
<polygon fill="#efefef" stroke="transparent" points="590,-775.5 590,-810.5 891,-810.5 891,-775.5 590,-775.5"/>
<polygon fill="none" stroke="#000000" points="590,-775.5 590,-810.5 891,-810.5 891,-775.5 590,-775.5"/>
<text text-anchor="start" x="616.6968" y="-788.3" font-family="Arial Bold" font-size="18.00" fill="#000000">public.t_events</text>
<text text-anchor="start" x="736.7352" y="-788.3" font-family="Arial" font-size="14.00" fill="#000000">    </text>
<text text-anchor="start" x="770.94" y="-788.3" font-family="Arial" font-size="14.00" fill="#666666">[BASE TABLE]</text>
<polygon fill="none" stroke="#000000" points="590,-745.5 590,-775.5 891,-775.5 891,-745.5 590,-745.5"/>
<text text-anchor="start" x="597" y="-756.9" font-family="Arial" font-size="14.00" fill="#000000">t_events_pkey    </text>
<text text-anchor="start" x="721.4642" y="-756.9" font-family="Arial" font-size="14.00" fill="#666666">[bigint]</text>
<polygon fill="none" stroke="#000000" points="590,-715.5 590,-745.5 891,-745.5 891,-715.5 590,-715.5"/>
<text text-anchor="start" x="597" y="-726.9" font-family="Arial" font-size="14.00" fill="#000000">event_id    </text>
<text text-anchor="start" x="684.115" y="-726.9" font-family="Arial" font-size="14.00" fill="#666666">[uuid]</text>
<polygon fill="none" stroke="#000000" points="590,-685.5 590,-715.5 891,-715.5 891,-685.5 590,-685.5"/>
<text text-anchor="start" x="597" y="-696.9" font-family="Arial" font-size="14.00" fill="#000000">event_type_id    </text>
<text text-anchor="start" x="718.3534" y="-696.9" font-family="Arial" font-size="14.00" fill="#666666">[uuid]</text>
<polygon fill="none" stroke="#000000" points="590,-655.5 590,-685.5 891,-685.5 891,-655.5 590,-655.5"/>
<text text-anchor="start" x="597" y="-666.9" font-family="Arial" font-size="14.00" fill="#000000">title    </text>
<text text-anchor="start" x="652.9818" y="-666.9" font-family="Arial" font-size="14.00" fill="#666666">[varchar(255)]</text>
<polygon fill="none" stroke="#000000" points="590,-625.5 590,-655.5 891,-655.5 891,-625.5 590,-625.5"/>
<text text-anchor="start" x="597" y="-636.9" font-family="Arial" font-size="14.00" fill="#000000">description    </text>
<text text-anchor="start" x="698.8822" y="-636.9" font-family="Arial" font-size="14.00" fill="#666666">[text]</text>
<polygon fill="none" stroke="#000000" points="590,-595.5 590,-625.5 891,-625.5 891,-595.5 590,-595.5"/>
<text text-anchor="start" x="597" y="-606.9" font-family="Arial" font-size="14.00" fill="#000000">organization_id    </text>
<text text-anchor="start" x="726.1192" y="-606.9" font-family="Arial" font-size="14.00" fill="#666666">[uuid]</text>
<polygon fill="none" stroke="#000000" points="590,-565.5 590,-595.5 891,-595.5 891,-565.5 590,-565.5"/>
<text text-anchor="start" x="597" y="-576.9" font-family="Arial" font-size="14.00" fill="#000000">start_time    </text>
<text text-anchor="start" x="692.6522" y="-576.9" font-family="Arial" font-size="14.00" fill="#666666">[timestamp with time zone]</text>
<polygon fill="none" stroke="#000000" points="590,-535.5 590,-565.5 891,-565.5 891,-535.5 590,-535.5"/>
<text text-anchor="start" x="597" y="-546.9" font-family="Arial" font-size="14.00" fill="#000000">end_time    </text>
<text text-anchor="start" x="688.7756" y="-546.9" font-family="Arial" font-size="14.00" fill="#666666">[timestamp with time zone]</text>
<polygon fill="none" stroke="#000000" points="590,-505.5 590,-535.5 891,-535.5 891,-505.5 590,-505.5"/>
<text text-anchor="start" x="597" y="-516.9" font-family="Arial" font-size="14.00" fill="#000000">mail_send_flag    </text>
<text text-anchor="start" x="725.3366" y="-516.9" font-family="Arial" font-size="14.00" fill="#666666">[boolean]</text>
<polygon fill="none" stroke="#000000" points="590,-475.5 590,-505.5 891,-505.5 891,-475.5 590,-475.5"/>
<text text-anchor="start" x="597" y="-486.9" font-family="Arial" font-size="14.00" fill="#000000">send_organization_id    </text>
<text text-anchor="start" x="764.2496" y="-486.9" font-family="Arial" font-size="14.00" fill="#666666">[uuid]</text>
<polygon fill="none" stroke="#000000" points="590,-445.5 590,-475.5 891,-475.5 891,-445.5 590,-445.5"/>
<text text-anchor="start" x="597" y="-456.9" font-family="Arial" font-size="14.00" fill="#000000">posted_by    </text>
<text text-anchor="start" x="695.791" y="-456.9" font-family="Arial" font-size="14.00" fill="#666666">[uuid]</text>
<polygon fill="none" stroke="#000000" points="590,-415.5 590,-445.5 891,-445.5 891,-415.5 590,-415.5"/>
<text text-anchor="start" x="597" y="-426.9" font-family="Arial" font-size="14.00" fill="#000000">last_edited_by    </text>
<text text-anchor="start" x="721.46" y="-426.9" font-family="Arial" font-size="14.00" fill="#666666">[uuid]</text>
<polygon fill="none" stroke="#000000" points="590,-385.5 590,-415.5 891,-415.5 891,-385.5 590,-385.5"/>
<text text-anchor="start" x="597" y="-396.9" font-family="Arial" font-size="14.00" fill="#000000">posted_at    </text>
<text text-anchor="start" x="692.6816" y="-396.9" font-family="Arial" font-size="14.00" fill="#666666">[timestamp with time zone]</text>
<polygon fill="none" stroke="#000000" points="590,-355.5 590,-385.5 891,-385.5 891,-355.5 590,-355.5"/>
<text text-anchor="start" x="596.9825" y="-366.9" font-family="Arial" font-size="14.00" fill="#000000">last_edited_at    </text>
<text text-anchor="start" x="718.3331" y="-366.9" font-family="Arial" font-size="14.00" fill="#666666">[timestamp with time zone]</text>
</g>
<!-- public.t_events&#45;&gt;public.m_event_types -->
<g id="edge1" class="edge">
<title>public.t_events:event_type_id&#45;&gt;public.m_event_types:event_type_id</title>
<path fill="none" stroke="#000000" d="M580.7848,-696.0728C528.3351,-644.0217 525.1069,-150.5 583,-150.5"/>
<polygon fill="#000000" stroke="#000000" points="580.9862,-696.1695 588.0513,-704.5562 585.4931,-698.3348 590,-700.5 590,-700.5 590,-700.5 585.4931,-698.3348 591.9487,-696.4438 580.9862,-696.1695 580.9862,-696.1695"/>
<text text-anchor="start" x="6.639" y="-710.5" font-family="Arial" font-size="10.00" fill="#000000">FOREIGN KEY (event_type_id) REFERENCES m_event_types(event_type_id) ON UPDATE RESTRICT ON DELETE RESTRICT</text>
</g>
</g>
</svg>
