<?xml version="1.0" encoding="UTF-8" standalone="no"?>
<!DOCTYPE svg PUBLIC "-//W3C//DTD SVG 1.1//EN"
 "http://www.w3.org/Graphics/SVG/1.1/DTD/svg11.dtd">
<!-- Generated by graphviz version 2.40.1 (20161225.0304)
 -->
<!-- Title: public.t_read_receipts Pages: 1 -->
<svg width="1430pt" height="892pt"
 viewBox="0.00 0.00 1430.00 892.00" xmlns="http://www.w3.org/2000/svg" xmlns:xlink="http://www.w3.org/1999/xlink">
<g id="graph0" class="graph" transform="scale(1 1) rotate(0) translate(4 888)">
<title>public.t_read_receipts</title>
<polygon fill="#ffffff" stroke="transparent" points="-4,4 -4,-888 1426,-888 1426,4 -4,4"/>
<!-- public.t_read_receipts -->
<g id="node1" class="node">
<title>public.t_read_receipts</title>
<polygon fill="#efefef" stroke="transparent" points="549,-802.5 549,-837.5 866,-837.5 866,-802.5 549,-802.5"/>
<polygon fill="none" stroke="#000000" points="549,-802.5 549,-837.5 866,-837.5 866,-802.5 549,-802.5"/>
<text text-anchor="start" x="555.6951" y="-815.3" font-family="Arial Bold" font-size="18.00" fill="#000000">public.t_read_receipts</text>
<text text-anchor="start" x="731.7369" y="-815.3" font-family="Arial" font-size="14.00" fill="#000000">    </text>
<text text-anchor="start" x="765.9417" y="-815.3" font-family="Arial" font-size="14.00" fill="#666666">[BASE TABLE]</text>
<polygon fill="none" stroke="#000000" points="549,-772.5 549,-802.5 866,-802.5 866,-772.5 549,-772.5"/>
<text text-anchor="start" x="556" y="-783.9" font-family="Arial" font-size="14.00" fill="#000000">t_read_receipts_pkey </text>
<text text-anchor="start" x="693.7082" y="-783.9" font-family="Arial" font-size="14.00" fill="#666666">[bigint]</text>
<polygon fill="none" stroke="#000000" points="549,-742.5 549,-772.5 866,-772.5 866,-742.5 549,-742.5"/>
<text text-anchor="start" x="556" y="-753.9" font-family="Arial" font-size="14.00" fill="#000000">member_id </text>
<text text-anchor="start" x="629.892" y="-753.9" font-family="Arial" font-size="14.00" fill="#666666">[uuid]</text>
<polygon fill="none" stroke="#000000" points="549,-712.5 549,-742.5 866,-742.5 866,-712.5 549,-712.5"/>
<text text-anchor="start" x="556" y="-723.9" font-family="Arial" font-size="14.00" fill="#000000">message_id </text>
<text text-anchor="start" x="635.3534" y="-723.9" font-family="Arial" font-size="14.00" fill="#666666">[uuid]</text>
<polygon fill="none" stroke="#000000" points="549,-682.5 549,-712.5 866,-712.5 866,-682.5 549,-682.5"/>
<text text-anchor="start" x="556" y="-693.9" font-family="Arial" font-size="14.00" fill="#000000">read_at </text>
<text text-anchor="start" x="607.3548" y="-693.9" font-family="Arial" font-size="14.00" fill="#666666">[timestamp with time zone]</text>
<polygon fill="none" stroke="#000000" stroke-width="3" points="547,-681.5 547,-839.5 867,-839.5 867,-681.5 547,-681.5"/>
</g>
<!-- public.m_members -->
<g id="node2" class="node">
<title>public.m_members</title>
<polygon fill="#efefef" stroke="transparent" points="361,-522.5 361,-557.5 654,-557.5 654,-522.5 361,-522.5"/>
<polygon fill="none" stroke="#000000" points="361,-522.5 361,-557.5 654,-557.5 654,-522.5 361,-522.5"/>
<text text-anchor="start" x="367.7146" y="-535.3" font-family="Arial Bold" font-size="18.00" fill="#000000">public.m_members</text>
<text text-anchor="start" x="519.7174" y="-535.3" font-family="Arial" font-size="14.00" fill="#000000">    </text>
<text text-anchor="start" x="553.9222" y="-535.3" font-family="Arial" font-size="14.00" fill="#666666">[BASE TABLE]</text>
<polygon fill="none" stroke="#000000" points="361,-492.5 361,-522.5 654,-522.5 654,-492.5 361,-492.5"/>
<text text-anchor="start" x="368" y="-503.9" font-family="Arial" font-size="14.00" fill="#000000">m_members_pkey    </text>
<text text-anchor="start" x="517.3254" y="-503.9" font-family="Arial" font-size="14.00" fill="#666666">[bigint]</text>
<polygon fill="none" stroke="#000000" points="361,-462.5 361,-492.5 654,-492.5 654,-462.5 361,-462.5"/>
<text text-anchor="start" x="368" y="-473.9" font-family="Arial" font-size="14.00" fill="#000000">member_id    </text>
<text text-anchor="start" x="472.2062" y="-473.9" font-family="Arial" font-size="14.00" fill="#666666">[uuid]</text>
<polygon fill="none" stroke="#000000" points="361,-432.5 361,-462.5 654,-462.5 654,-432.5 361,-432.5"/>
<text text-anchor="start" x="368" y="-443.9" font-family="Arial" font-size="14.00" fill="#000000">login_id    </text>
<text text-anchor="start" x="450.4376" y="-443.9" font-family="Arial" font-size="14.00" fill="#666666">[varchar(255)]</text>
<polygon fill="none" stroke="#000000" points="361,-402.5 361,-432.5 654,-432.5 654,-402.5 361,-402.5"/>
<text text-anchor="start" x="368" y="-413.9" font-family="Arial" font-size="14.00" fill="#000000">password    </text>
<text text-anchor="start" x="462.1024" y="-413.9" font-family="Arial" font-size="14.00" fill="#666666">[varchar(255)]</text>
<polygon fill="none" stroke="#000000" points="361,-372.5 361,-402.5 654,-402.5 654,-372.5 361,-372.5"/>
<text text-anchor="start" x="368" y="-383.9" font-family="Arial" font-size="14.00" fill="#000000">email    </text>
<text text-anchor="start" x="435.6438" y="-383.9" font-family="Arial" font-size="14.00" fill="#666666">[varchar(255)]</text>
<polygon fill="none" stroke="#000000" points="361,-342.5 361,-372.5 654,-372.5 654,-342.5 361,-342.5"/>
<text text-anchor="start" x="368" y="-353.9" font-family="Arial" font-size="14.00" fill="#000000">name    </text>
<text text-anchor="start" x="437.2132" y="-353.9" font-family="Arial" font-size="14.00" fill="#666666">[varchar(255)]</text>
<polygon fill="none" stroke="#000000" points="361,-312.5 361,-342.5 654,-342.5 654,-312.5 361,-312.5"/>
<text text-anchor="start" x="368" y="-323.9" font-family="Arial" font-size="14.00" fill="#000000">first_name    </text>
<text text-anchor="start" x="467.5442" y="-323.9" font-family="Arial" font-size="14.00" fill="#666666">[varchar(255)]</text>
<polygon fill="none" stroke="#000000" points="361,-282.5 361,-312.5 654,-312.5 654,-282.5 361,-282.5"/>
<text text-anchor="start" x="368" y="-293.9" font-family="Arial" font-size="14.00" fill="#000000">last_name    </text>
<text text-anchor="start" x="466.7756" y="-293.9" font-family="Arial" font-size="14.00" fill="#666666">[varchar(255)]</text>
<polygon fill="none" stroke="#000000" points="361,-252.5 361,-282.5 654,-282.5 654,-252.5 361,-252.5"/>
<text text-anchor="start" x="368" y="-263.9" font-family="Arial" font-size="14.00" fill="#000000">attend_status_id    </text>
<text text-anchor="start" x="504.9172" y="-263.9" font-family="Arial" font-size="14.00" fill="#666666">[uuid]</text>
<polygon fill="none" stroke="#000000" points="361,-222.5 361,-252.5 654,-252.5 654,-222.5 361,-222.5"/>
<text text-anchor="start" x="368" y="-233.9" font-family="Arial" font-size="14.00" fill="#000000">profile_image_id    </text>
<text text-anchor="start" x="504.8864" y="-233.9" font-family="Arial" font-size="14.00" fill="#666666">[uuid]</text>
<polygon fill="none" stroke="#000000" points="361,-192.5 361,-222.5 654,-222.5 654,-192.5 361,-192.5"/>
<text text-anchor="start" x="368" y="-203.9" font-family="Arial" font-size="14.00" fill="#000000">grade_id    </text>
<text text-anchor="start" x="456.6676" y="-203.9" font-family="Arial" font-size="14.00" fill="#666666">[uuid]</text>
<polygon fill="none" stroke="#000000" points="361,-162.5 361,-192.5 654,-192.5 654,-162.5 361,-162.5"/>
<text text-anchor="start" x="368" y="-173.9" font-family="Arial" font-size="14.00" fill="#000000">group_id    </text>
<text text-anchor="start" x="456.6676" y="-173.9" font-family="Arial" font-size="14.00" fill="#666666">[uuid]</text>
<polygon fill="none" stroke="#000000" points="361,-132.5 361,-162.5 654,-162.5 654,-132.5 361,-132.5"/>
<text text-anchor="start" x="368" y="-143.9" font-family="Arial" font-size="14.00" fill="#000000">personal_organization_id    </text>
<text text-anchor="start" x="558.582" y="-143.9" font-family="Arial" font-size="14.00" fill="#666666">[uuid]</text>
<polygon fill="none" stroke="#000000" points="361,-102.5 361,-132.5 654,-132.5 654,-102.5 361,-102.5"/>
<text text-anchor="start" x="368" y="-113.9" font-family="Arial" font-size="14.00" fill="#000000">role_id    </text>
<text text-anchor="start" x="444.209" y="-113.9" font-family="Arial" font-size="14.00" fill="#666666">[uuid]</text>
<polygon fill="none" stroke="#000000" points="361,-72.5 361,-102.5 654,-102.5 654,-72.5 361,-72.5"/>
<text text-anchor="start" x="368" y="-83.9" font-family="Arial" font-size="14.00" fill="#000000">created_at    </text>
<text text-anchor="start" x="468.3422" y="-83.9" font-family="Arial" font-size="14.00" fill="#666666">[timestamp with time zone]</text>
<polygon fill="none" stroke="#000000" points="361,-42.5 361,-72.5 654,-72.5 654,-42.5 361,-42.5"/>
<text text-anchor="start" x="368" y="-53.9" font-family="Arial" font-size="14.00" fill="#000000">updated_at    </text>
<text text-anchor="start" x="472.2468" y="-53.9" font-family="Arial" font-size="14.00" fill="#666666">[timestamp with time zone]</text>
</g>
<!-- public.t_read_receipts&#45;&gt;public.m_members -->
<g id="edge1" class="edge">
<title>public.t_read_receipts:member_id&#45;&gt;public.m_members:member_id</title>
<path fill="none" stroke="#000000" d="M538.8067,-756.3975C498.6413,-746.8479 520.0602,-677.5157 549,-637 577.6744,-596.8558 625.3256,-641.1442 654,-601 685.9035,-556.3351 708.8889,-477.5 654,-477.5"/>
<polygon fill="#000000" stroke="#000000" points="539.058,-756.4246 548.5161,-761.9739 544.029,-756.9623 549,-757.5 549,-757.5 549,-757.5 544.029,-756.9623 549.4839,-753.0261 539.058,-756.4246 539.058,-756.4246"/>
<text text-anchor="start" x="7.221" y="-767.5" font-family="Arial" font-size="10.00" fill="#000000">FOREIGN KEY (member_id) REFERENCES m_members(member_id) ON UPDATE SET NULL ON DELETE SET NULL</text>
</g>
<!-- public.t_messages -->
<g id="node3" class="node">
<title>public.t_messages</title>
<polygon fill="#efefef" stroke="transparent" points="758,-387.5 758,-422.5 1059,-422.5 1059,-387.5 758,-387.5"/>
<polygon fill="none" stroke="#000000" points="758,-387.5 758,-422.5 1059,-422.5 1059,-387.5 758,-387.5"/>
<text text-anchor="start" x="770.1987" y="-400.3" font-family="Arial Bold" font-size="18.00" fill="#000000">public.t_messages</text>
<text text-anchor="start" x="919.2333" y="-400.3" font-family="Arial" font-size="14.00" fill="#000000">    </text>
<text text-anchor="start" x="953.4381" y="-400.3" font-family="Arial" font-size="14.00" fill="#666666">[BASE TABLE]</text>
<polygon fill="none" stroke="#000000" points="758,-357.5 758,-387.5 1059,-387.5 1059,-357.5 758,-357.5"/>
<text text-anchor="start" x="765" y="-368.9" font-family="Arial" font-size="14.00" fill="#000000">t_messages_pkey    </text>
<text text-anchor="start" x="912.0168" y="-368.9" font-family="Arial" font-size="14.00" fill="#666666">[bigint]</text>
<polygon fill="none" stroke="#000000" points="758,-327.5 758,-357.5 1059,-357.5 1059,-327.5 758,-327.5"/>
<text text-anchor="start" x="765" y="-338.9" font-family="Arial" font-size="14.00" fill="#000000">message_id    </text>
<text text-anchor="start" x="874.6676" y="-338.9" font-family="Arial" font-size="14.00" fill="#666666">[uuid]</text>
<polygon fill="none" stroke="#000000" points="758,-297.5 758,-327.5 1059,-327.5 1059,-297.5 758,-297.5"/>
<text text-anchor="start" x="765" y="-308.9" font-family="Arial" font-size="14.00" fill="#000000">chat_room_id    </text>
<text text-anchor="start" x="884.0014" y="-308.9" font-family="Arial" font-size="14.00" fill="#666666">[uuid]</text>
<polygon fill="none" stroke="#000000" points="758,-267.5 758,-297.5 1059,-297.5 1059,-267.5 758,-267.5"/>
<text text-anchor="start" x="765" y="-278.9" font-family="Arial" font-size="14.00" fill="#000000">sender_id    </text>
<text text-anchor="start" x="860.6676" y="-278.9" font-family="Arial" font-size="14.00" fill="#666666">[uuid]</text>
<polygon fill="none" stroke="#000000" points="758,-237.5 758,-267.5 1059,-267.5 1059,-237.5 758,-237.5"/>
<text text-anchor="start" x="765" y="-248.9" font-family="Arial" font-size="14.00" fill="#000000">body    </text>
<text text-anchor="start" x="829.5526" y="-248.9" font-family="Arial" font-size="14.00" fill="#666666">[text]</text>
<polygon fill="none" stroke="#000000" points="758,-207.5 758,-237.5 1059,-237.5 1059,-207.5 758,-207.5"/>
<text text-anchor="start" x="765" y="-218.9" font-family="Arial" font-size="14.00" fill="#000000">posted_at    </text>
<text text-anchor="start" x="860.6816" y="-218.9" font-family="Arial" font-size="14.00" fill="#666666">[timestamp with time zone]</text>
<polygon fill="none" stroke="#000000" points="758,-177.5 758,-207.5 1059,-207.5 1059,-177.5 758,-177.5"/>
<text text-anchor="start" x="764.9825" y="-188.9" font-family="Arial" font-size="14.00" fill="#000000">last_edited_at    </text>
<text text-anchor="start" x="886.3331" y="-188.9" font-family="Arial" font-size="14.00" fill="#666666">[timestamp with time zone]</text>
</g>
<!-- public.t_read_receipts&#45;&gt;public.t_messages -->
<g id="edge2" class="edge">
<title>public.t_read_receipts:message_id&#45;&gt;public.t_messages:message_id</title>
<path fill="none" stroke="#000000" d="M876.2031,-725.9633C900.5072,-717.1018 876.0443,-671.7132 866,-637 841.0155,-550.6532 782.9845,-552.3468 758,-466 742.7437,-413.274 703.1111,-342.5 758,-342.5"/>
<polygon fill="#000000" stroke="#000000" points="875.8885,-726.0106 865.3298,-723.0502 870.9442,-726.7553 866,-727.5 866,-727.5 866,-727.5 870.9442,-726.7553 866.6702,-731.9498 875.8885,-726.0106 875.8885,-726.0106"/>
<text text-anchor="start" x="872.5935" y="-737.5" font-family="Arial" font-size="10.00" fill="#000000">FOREIGN KEY (message_id) REFERENCES t_messages(message_id) ON UPDATE CASCADE ON DELETE CASCADE</text>
</g>
</g>
</svg>
