<?xml version="1.0" encoding="UTF-8" standalone="no"?>
<!DOCTYPE svg PUBLIC "-//W3C//DTD SVG 1.1//EN"
 "http://www.w3.org/Graphics/SVG/1.1/DTD/svg11.dtd">
<!-- Generated by graphviz version 2.40.1 (20161225.0304)
 -->
<!-- Title: public.t_chat_room_update_name_actions Pages: 1 -->
<svg width="1715pt" height="922pt"
 viewBox="0.00 0.00 1715.00 922.00" xmlns="http://www.w3.org/2000/svg" xmlns:xlink="http://www.w3.org/1999/xlink">
<g id="graph0" class="graph" transform="scale(1 1) rotate(0) translate(4 918)">
<title>public.t_chat_room_update_name_actions</title>
<polygon fill="#ffffff" stroke="transparent" points="-4,4 -4,-918 1711,-918 1711,4 -4,4"/>
<!-- public.t_chat_room_update_name_actions -->
<g id="node1" class="node">
<title>public.t_chat_room_update_name_actions</title>
<polygon fill="#efefef" stroke="transparent" points="676,-832.5 676,-867.5 1156,-867.5 1156,-832.5 676,-832.5"/>
<polygon fill="none" stroke="#000000" points="676,-832.5 676,-867.5 1156,-867.5 1156,-832.5 676,-832.5"/>
<text text-anchor="start" x="682.6596" y="-845.3" font-family="Arial Bold" font-size="18.00" fill="#000000">public.t_chat_room_update_name_actions</text>
<text text-anchor="start" x="1021.7724" y="-845.3" font-family="Arial" font-size="14.00" fill="#000000">    </text>
<text text-anchor="start" x="1055.9772" y="-845.3" font-family="Arial" font-size="14.00" fill="#666666">[BASE TABLE]</text>
<polygon fill="none" stroke="#000000" points="676,-802.5 676,-832.5 1156,-832.5 1156,-802.5 676,-802.5"/>
<text text-anchor="start" x="683" y="-813.9" font-family="Arial" font-size="14.00" fill="#000000">t_chat_room_update_name_actions_pkey </text>
<text text-anchor="start" x="947.5412" y="-813.9" font-family="Arial" font-size="14.00" fill="#666666">[bigint]</text>
<polygon fill="none" stroke="#000000" points="676,-772.5 676,-802.5 1156,-802.5 1156,-772.5 676,-772.5"/>
<text text-anchor="start" x="683" y="-783.9" font-family="Arial" font-size="14.00" fill="#000000">chat_room_update_name_action_id </text>
<text text-anchor="start" x="910.192" y="-783.9" font-family="Arial" font-size="14.00" fill="#666666">[uuid]</text>
<polygon fill="none" stroke="#000000" points="676,-742.5 676,-772.5 1156,-772.5 1156,-742.5 676,-742.5"/>
<text text-anchor="start" x="683" y="-753.9" font-family="Arial" font-size="14.00" fill="#000000">chat_room_action_id </text>
<text text-anchor="start" x="816.8148" y="-753.9" font-family="Arial" font-size="14.00" fill="#666666">[uuid]</text>
<polygon fill="none" stroke="#000000" points="676,-712.5 676,-742.5 1156,-742.5 1156,-712.5 676,-712.5"/>
<text text-anchor="start" x="683" y="-723.9" font-family="Arial" font-size="14.00" fill="#000000">updated_by </text>
<text text-anchor="start" x="760.042" y="-723.9" font-family="Arial" font-size="14.00" fill="#666666">[uuid]</text>
<polygon fill="none" stroke="#000000" points="676,-682.5 676,-712.5 1156,-712.5 1156,-682.5 676,-682.5"/>
<text text-anchor="start" x="683" y="-693.9" font-family="Arial" font-size="14.00" fill="#000000">name </text>
<text text-anchor="start" x="721.899" y="-693.9" font-family="Arial" font-size="14.00" fill="#666666">[varchar(255)]</text>
<polygon fill="none" stroke="#000000" stroke-width="3" points="674.5,-681.5 674.5,-869.5 1157.5,-869.5 1157.5,-681.5 674.5,-681.5"/>
</g>
<!-- public.t_chat_room_actions -->
<g id="node2" class="node">
<title>public.t_chat_room_actions</title>
<polygon fill="#efefef" stroke="transparent" points="520,-342.5 520,-377.5 880,-377.5 880,-342.5 520,-342.5"/>
<polygon fill="none" stroke="#000000" points="520,-342.5 520,-377.5 880,-377.5 880,-342.5 520,-342.5"/>
<text text-anchor="start" x="526.6878" y="-355.3" font-family="Arial Bold" font-size="18.00" fill="#000000">public.t_chat_room_actions</text>
<text text-anchor="start" x="745.7442" y="-355.3" font-family="Arial" font-size="14.00" fill="#000000">    </text>
<text text-anchor="start" x="779.949" y="-355.3" font-family="Arial" font-size="14.00" fill="#666666">[BASE TABLE]</text>
<polygon fill="none" stroke="#000000" points="520,-312.5 520,-342.5 880,-342.5 880,-312.5 520,-312.5"/>
<text text-anchor="start" x="527" y="-323.9" font-family="Arial" font-size="14.00" fill="#000000">t_chat_room_actions_pkey    </text>
<text text-anchor="start" x="728.4782" y="-323.9" font-family="Arial" font-size="14.00" fill="#666666">[bigint]</text>
<polygon fill="none" stroke="#000000" points="520,-282.5 520,-312.5 880,-312.5 880,-282.5 520,-282.5"/>
<text text-anchor="start" x="527" y="-293.9" font-family="Arial" font-size="14.00" fill="#000000">chat_room_action_id    </text>
<text text-anchor="start" x="691.129" y="-293.9" font-family="Arial" font-size="14.00" fill="#666666">[uuid]</text>
<polygon fill="none" stroke="#000000" points="520,-252.5 520,-282.5 880,-282.5 880,-252.5 520,-252.5"/>
<text text-anchor="start" x="527" y="-263.9" font-family="Arial" font-size="14.00" fill="#000000">chat_room_action_type_id    </text>
<text text-anchor="start" x="725.3674" y="-263.9" font-family="Arial" font-size="14.00" fill="#666666">[uuid]</text>
<polygon fill="none" stroke="#000000" points="520,-222.5 520,-252.5 880,-252.5 880,-222.5 520,-222.5"/>
<text text-anchor="start" x="527" y="-233.9" font-family="Arial" font-size="14.00" fill="#000000">acted_at    </text>
<text text-anchor="start" x="614.899" y="-233.9" font-family="Arial" font-size="14.00" fill="#666666">[timestamp with time zone]</text>
</g>
<!-- public.t_chat_room_update_name_actions&#45;&gt;public.t_chat_room_actions -->
<g id="edge1" class="edge">
<title>public.t_chat_room_update_name_actions:chat_room_action_id&#45;&gt;public.t_chat_room_actions:chat_room_action_id</title>
<path fill="none" stroke="#000000" d="M665.9631,-756.4828C627.1241,-747.6568 657.6051,-683.2673 676,-637 724.7848,-514.2951 831.2152,-543.7049 880,-421 900.2787,-369.9945 934.8889,-297.5 880,-297.5"/>
<polygon fill="#000000" stroke="#000000" points="666.051,-756.4916 675.5462,-761.9771 671.0255,-756.9958 676,-757.5 676,-757.5 676,-757.5 671.0255,-756.9958 676.4538,-753.0229 666.051,-756.4916 666.051,-756.4916"/>
<text text-anchor="start" x="6.583" y="-767.5" font-family="Arial" font-size="10.00" fill="#000000">FOREIGN KEY (chat_room_action_id) REFERENCES t_chat_room_actions(chat_room_action_id) ON UPDATE RESTRICT ON DELETE RESTRICT</text>
</g>
<!-- public.m_members -->
<g id="node3" class="node">
<title>public.m_members</title>
<polygon fill="#efefef" stroke="transparent" points="985,-522.5 985,-557.5 1278,-557.5 1278,-522.5 985,-522.5"/>
<polygon fill="none" stroke="#000000" points="985,-522.5 985,-557.5 1278,-557.5 1278,-522.5 985,-522.5"/>
<text text-anchor="start" x="991.7146" y="-535.3" font-family="Arial Bold" font-size="18.00" fill="#000000">public.m_members</text>
<text text-anchor="start" x="1143.7174" y="-535.3" font-family="Arial" font-size="14.00" fill="#000000">    </text>
<text text-anchor="start" x="1177.9222" y="-535.3" font-family="Arial" font-size="14.00" fill="#666666">[BASE TABLE]</text>
<polygon fill="none" stroke="#000000" points="985,-492.5 985,-522.5 1278,-522.5 1278,-492.5 985,-492.5"/>
<text text-anchor="start" x="992" y="-503.9" font-family="Arial" font-size="14.00" fill="#000000">m_members_pkey    </text>
<text text-anchor="start" x="1141.3254" y="-503.9" font-family="Arial" font-size="14.00" fill="#666666">[bigint]</text>
<polygon fill="none" stroke="#000000" points="985,-462.5 985,-492.5 1278,-492.5 1278,-462.5 985,-462.5"/>
<text text-anchor="start" x="992" y="-473.9" font-family="Arial" font-size="14.00" fill="#000000">member_id    </text>
<text text-anchor="start" x="1096.2062" y="-473.9" font-family="Arial" font-size="14.00" fill="#666666">[uuid]</text>
<polygon fill="none" stroke="#000000" points="985,-432.5 985,-462.5 1278,-462.5 1278,-432.5 985,-432.5"/>
<text text-anchor="start" x="992" y="-443.9" font-family="Arial" font-size="14.00" fill="#000000">login_id    </text>
<text text-anchor="start" x="1074.4376" y="-443.9" font-family="Arial" font-size="14.00" fill="#666666">[varchar(255)]</text>
<polygon fill="none" stroke="#000000" points="985,-402.5 985,-432.5 1278,-432.5 1278,-402.5 985,-402.5"/>
<text text-anchor="start" x="992" y="-413.9" font-family="Arial" font-size="14.00" fill="#000000">password    </text>
<text text-anchor="start" x="1086.1024" y="-413.9" font-family="Arial" font-size="14.00" fill="#666666">[varchar(255)]</text>
<polygon fill="none" stroke="#000000" points="985,-372.5 985,-402.5 1278,-402.5 1278,-372.5 985,-372.5"/>
<text text-anchor="start" x="992" y="-383.9" font-family="Arial" font-size="14.00" fill="#000000">email    </text>
<text text-anchor="start" x="1059.6438" y="-383.9" font-family="Arial" font-size="14.00" fill="#666666">[varchar(255)]</text>
<polygon fill="none" stroke="#000000" points="985,-342.5 985,-372.5 1278,-372.5 1278,-342.5 985,-342.5"/>
<text text-anchor="start" x="992" y="-353.9" font-family="Arial" font-size="14.00" fill="#000000">name    </text>
<text text-anchor="start" x="1061.2132" y="-353.9" font-family="Arial" font-size="14.00" fill="#666666">[varchar(255)]</text>
<polygon fill="none" stroke="#000000" points="985,-312.5 985,-342.5 1278,-342.5 1278,-312.5 985,-312.5"/>
<text text-anchor="start" x="992" y="-323.9" font-family="Arial" font-size="14.00" fill="#000000">first_name    </text>
<text text-anchor="start" x="1091.5442" y="-323.9" font-family="Arial" font-size="14.00" fill="#666666">[varchar(255)]</text>
<polygon fill="none" stroke="#000000" points="985,-282.5 985,-312.5 1278,-312.5 1278,-282.5 985,-282.5"/>
<text text-anchor="start" x="992" y="-293.9" font-family="Arial" font-size="14.00" fill="#000000">last_name    </text>
<text text-anchor="start" x="1090.7756" y="-293.9" font-family="Arial" font-size="14.00" fill="#666666">[varchar(255)]</text>
<polygon fill="none" stroke="#000000" points="985,-252.5 985,-282.5 1278,-282.5 1278,-252.5 985,-252.5"/>
<text text-anchor="start" x="992" y="-263.9" font-family="Arial" font-size="14.00" fill="#000000">attend_status_id    </text>
<text text-anchor="start" x="1128.9172" y="-263.9" font-family="Arial" font-size="14.00" fill="#666666">[uuid]</text>
<polygon fill="none" stroke="#000000" points="985,-222.5 985,-252.5 1278,-252.5 1278,-222.5 985,-222.5"/>
<text text-anchor="start" x="992" y="-233.9" font-family="Arial" font-size="14.00" fill="#000000">profile_image_id    </text>
<text text-anchor="start" x="1128.8864" y="-233.9" font-family="Arial" font-size="14.00" fill="#666666">[uuid]</text>
<polygon fill="none" stroke="#000000" points="985,-192.5 985,-222.5 1278,-222.5 1278,-192.5 985,-192.5"/>
<text text-anchor="start" x="992" y="-203.9" font-family="Arial" font-size="14.00" fill="#000000">grade_id    </text>
<text text-anchor="start" x="1080.6676" y="-203.9" font-family="Arial" font-size="14.00" fill="#666666">[uuid]</text>
<polygon fill="none" stroke="#000000" points="985,-162.5 985,-192.5 1278,-192.5 1278,-162.5 985,-162.5"/>
<text text-anchor="start" x="992" y="-173.9" font-family="Arial" font-size="14.00" fill="#000000">group_id    </text>
<text text-anchor="start" x="1080.6676" y="-173.9" font-family="Arial" font-size="14.00" fill="#666666">[uuid]</text>
<polygon fill="none" stroke="#000000" points="985,-132.5 985,-162.5 1278,-162.5 1278,-132.5 985,-132.5"/>
<text text-anchor="start" x="992" y="-143.9" font-family="Arial" font-size="14.00" fill="#000000">personal_organization_id    </text>
<text text-anchor="start" x="1182.582" y="-143.9" font-family="Arial" font-size="14.00" fill="#666666">[uuid]</text>
<polygon fill="none" stroke="#000000" points="985,-102.5 985,-132.5 1278,-132.5 1278,-102.5 985,-102.5"/>
<text text-anchor="start" x="992" y="-113.9" font-family="Arial" font-size="14.00" fill="#000000">role_id    </text>
<text text-anchor="start" x="1068.209" y="-113.9" font-family="Arial" font-size="14.00" fill="#666666">[uuid]</text>
<polygon fill="none" stroke="#000000" points="985,-72.5 985,-102.5 1278,-102.5 1278,-72.5 985,-72.5"/>
<text text-anchor="start" x="992" y="-83.9" font-family="Arial" font-size="14.00" fill="#000000">created_at    </text>
<text text-anchor="start" x="1092.3422" y="-83.9" font-family="Arial" font-size="14.00" fill="#666666">[timestamp with time zone]</text>
<polygon fill="none" stroke="#000000" points="985,-42.5 985,-72.5 1278,-72.5 1278,-42.5 985,-42.5"/>
<text text-anchor="start" x="992" y="-53.9" font-family="Arial" font-size="14.00" fill="#000000">updated_at    </text>
<text text-anchor="start" x="1096.2468" y="-53.9" font-family="Arial" font-size="14.00" fill="#666666">[timestamp with time zone]</text>
</g>
<!-- public.t_chat_room_update_name_actions&#45;&gt;public.m_members -->
<g id="edge2" class="edge">
<title>public.t_chat_room_update_name_actions:updated_by&#45;&gt;public.m_members:member_id</title>
<path fill="none" stroke="#000000" d="M1165.8964,-726.0093C1193.3404,-716.634 1178.9671,-665.3057 1156,-637 1107.0646,-576.6897 1033.9354,-661.3103 985,-601 950.4159,-558.3769 930.1111,-477.5 985,-477.5"/>
<polygon fill="#000000" stroke="#000000" points="1165.8884,-726.0104 1155.3297,-723.0502 1160.9442,-726.7552 1156,-727.5 1156,-727.5 1156,-727.5 1160.9442,-726.7552 1156.6703,-731.9498 1165.8884,-726.0104 1165.8884,-726.0104"/>
<text text-anchor="start" x="1163.096" y="-737.5" font-family="Arial" font-size="10.00" fill="#000000">FOREIGN KEY (updated_by) REFERENCES m_members(member_id) ON UPDATE SET NULL ON DELETE SET NULL</text>
</g>
</g>
</svg>
