<?xml version="1.0" encoding="UTF-8" standalone="no"?>
<!DOCTYPE svg PUBLIC "-//W3C//DTD SVG 1.1//EN"
 "http://www.w3.org/Graphics/SVG/1.1/DTD/svg11.dtd">
<!-- Generated by graphviz version 2.40.1 (20161225.0304)
 -->
<!-- Title: public.t_chat_room_withdraw_actions Pages: 1 -->
<svg width="1671pt" height="892pt"
 viewBox="0.00 0.00 1671.00 892.00" xmlns="http://www.w3.org/2000/svg" xmlns:xlink="http://www.w3.org/1999/xlink">
<g id="graph0" class="graph" transform="scale(1 1) rotate(0) translate(4 888)">
<title>public.t_chat_room_withdraw_actions</title>
<polygon fill="#ffffff" stroke="transparent" points="-4,4 -4,-888 1667,-888 1667,4 -4,4"/>
<!-- public.t_chat_room_withdraw_actions -->
<g id="node1" class="node">
<title>public.t_chat_room_withdraw_actions</title>
<polygon fill="#efefef" stroke="transparent" points="673,-802.5 673,-837.5 1114,-837.5 1114,-802.5 673,-802.5"/>
<polygon fill="none" stroke="#000000" points="673,-802.5 673,-837.5 1114,-837.5 1114,-802.5 673,-802.5"/>
<text text-anchor="start" x="679.6869" y="-815.3" font-family="Arial Bold" font-size="18.00" fill="#000000">public.t_chat_room_withdraw_actions</text>
<text text-anchor="start" x="979.7451" y="-815.3" font-family="Arial" font-size="14.00" fill="#000000">    </text>
<text text-anchor="start" x="1013.9499" y="-815.3" font-family="Arial" font-size="14.00" fill="#666666">[BASE TABLE]</text>
<polygon fill="none" stroke="#000000" points="673,-772.5 673,-802.5 1114,-802.5 1114,-772.5 673,-772.5"/>
<text text-anchor="start" x="680" y="-783.9" font-family="Arial" font-size="14.00" fill="#000000">t_chat_room_withdraw_actions_pkey </text>
<text text-anchor="start" x="914.1654" y="-783.9" font-family="Arial" font-size="14.00" fill="#666666">[bigint]</text>
<polygon fill="none" stroke="#000000" points="673,-742.5 673,-772.5 1114,-772.5 1114,-742.5 673,-742.5"/>
<text text-anchor="start" x="680" y="-753.9" font-family="Arial" font-size="14.00" fill="#000000">chat_room_withdraw_action_id </text>
<text text-anchor="start" x="876.8162" y="-753.9" font-family="Arial" font-size="14.00" fill="#666666">[uuid]</text>
<polygon fill="none" stroke="#000000" points="673,-712.5 673,-742.5 1114,-742.5 1114,-712.5 673,-712.5"/>
<text text-anchor="start" x="680" y="-723.9" font-family="Arial" font-size="14.00" fill="#000000">chat_room_action_id </text>
<text text-anchor="start" x="813.8148" y="-723.9" font-family="Arial" font-size="14.00" fill="#666666">[uuid]</text>
<polygon fill="none" stroke="#000000" points="673,-682.5 673,-712.5 1114,-712.5 1114,-682.5 673,-682.5"/>
<text text-anchor="start" x="680" y="-693.9" font-family="Arial" font-size="14.00" fill="#000000">member_id </text>
<text text-anchor="start" x="753.892" y="-693.9" font-family="Arial" font-size="14.00" fill="#666666">[uuid]</text>
<polygon fill="none" stroke="#000000" stroke-width="3" points="671,-681.5 671,-839.5 1115,-839.5 1115,-681.5 671,-681.5"/>
</g>
<!-- public.t_chat_room_actions -->
<g id="node2" class="node">
<title>public.t_chat_room_actions</title>
<polygon fill="#efefef" stroke="transparent" points="498,-357.5 498,-392.5 858,-392.5 858,-357.5 498,-357.5"/>
<polygon fill="none" stroke="#000000" points="498,-357.5 498,-392.5 858,-392.5 858,-357.5 498,-357.5"/>
<text text-anchor="start" x="504.6878" y="-370.3" font-family="Arial Bold" font-size="18.00" fill="#000000">public.t_chat_room_actions</text>
<text text-anchor="start" x="723.7442" y="-370.3" font-family="Arial" font-size="14.00" fill="#000000">    </text>
<text text-anchor="start" x="757.949" y="-370.3" font-family="Arial" font-size="14.00" fill="#666666">[BASE TABLE]</text>
<polygon fill="none" stroke="#000000" points="498,-327.5 498,-357.5 858,-357.5 858,-327.5 498,-327.5"/>
<text text-anchor="start" x="505" y="-338.9" font-family="Arial" font-size="14.00" fill="#000000">t_chat_room_actions_pkey    </text>
<text text-anchor="start" x="706.4782" y="-338.9" font-family="Arial" font-size="14.00" fill="#666666">[bigint]</text>
<polygon fill="none" stroke="#000000" points="498,-297.5 498,-327.5 858,-327.5 858,-297.5 498,-297.5"/>
<text text-anchor="start" x="505" y="-308.9" font-family="Arial" font-size="14.00" fill="#000000">chat_room_action_id    </text>
<text text-anchor="start" x="669.129" y="-308.9" font-family="Arial" font-size="14.00" fill="#666666">[uuid]</text>
<polygon fill="none" stroke="#000000" points="498,-267.5 498,-297.5 858,-297.5 858,-267.5 498,-267.5"/>
<text text-anchor="start" x="505" y="-278.9" font-family="Arial" font-size="14.00" fill="#000000">chat_room_id    </text>
<text text-anchor="start" x="624.0014" y="-278.9" font-family="Arial" font-size="14.00" fill="#666666">[uuid]</text>
<polygon fill="none" stroke="#000000" points="498,-237.5 498,-267.5 858,-267.5 858,-237.5 498,-237.5"/>
<text text-anchor="start" x="505" y="-248.9" font-family="Arial" font-size="14.00" fill="#000000">chat_room_action_type_id    </text>
<text text-anchor="start" x="703.3674" y="-248.9" font-family="Arial" font-size="14.00" fill="#666666">[uuid]</text>
<polygon fill="none" stroke="#000000" points="498,-207.5 498,-237.5 858,-237.5 858,-207.5 498,-207.5"/>
<text text-anchor="start" x="505" y="-218.9" font-family="Arial" font-size="14.00" fill="#000000">acted_at    </text>
<text text-anchor="start" x="592.899" y="-218.9" font-family="Arial" font-size="14.00" fill="#666666">[timestamp with time zone]</text>
</g>
<!-- public.t_chat_room_withdraw_actions&#45;&gt;public.t_chat_room_actions -->
<g id="edge1" class="edge">
<title>public.t_chat_room_withdraw_actions:chat_room_action_id&#45;&gt;public.t_chat_room_actions:chat_room_action_id</title>
<path fill="none" stroke="#000000" d="M663.0279,-726.0467C637.6736,-717.2912 659.8083,-670.812 673,-637 717.1292,-523.8914 813.8708,-549.1086 858,-436 877.9502,-384.8651 912.8889,-312.5 858,-312.5"/>
<polygon fill="#000000" stroke="#000000" points="663.1045,-726.0578 672.351,-731.953 668.0523,-726.7789 673,-727.5 673,-727.5 673,-727.5 668.0523,-726.7789 673.649,-723.047 663.1045,-726.0578 663.1045,-726.0578"/>
<text text-anchor="start" x="7.242" y="-737.5" font-family="Arial" font-size="10.00" fill="#000000">FOREIGN KEY (chat_room_action_id) REFERENCES t_chat_room_actions(chat_room_action_id) ON UPDATE CASCADE ON DELETE CASCADE</text>
</g>
<!-- public.m_members -->
<g id="node3" class="node">
<title>public.m_members</title>
<polygon fill="#efefef" stroke="transparent" points="963,-522.5 963,-557.5 1256,-557.5 1256,-522.5 963,-522.5"/>
<polygon fill="none" stroke="#000000" points="963,-522.5 963,-557.5 1256,-557.5 1256,-522.5 963,-522.5"/>
<text text-anchor="start" x="969.7146" y="-535.3" font-family="Arial Bold" font-size="18.00" fill="#000000">public.m_members</text>
<text text-anchor="start" x="1121.7174" y="-535.3" font-family="Arial" font-size="14.00" fill="#000000">    </text>
<text text-anchor="start" x="1155.9222" y="-535.3" font-family="Arial" font-size="14.00" fill="#666666">[BASE TABLE]</text>
<polygon fill="none" stroke="#000000" points="963,-492.5 963,-522.5 1256,-522.5 1256,-492.5 963,-492.5"/>
<text text-anchor="start" x="970" y="-503.9" font-family="Arial" font-size="14.00" fill="#000000">m_members_pkey    </text>
<text text-anchor="start" x="1119.3254" y="-503.9" font-family="Arial" font-size="14.00" fill="#666666">[bigint]</text>
<polygon fill="none" stroke="#000000" points="963,-462.5 963,-492.5 1256,-492.5 1256,-462.5 963,-462.5"/>
<text text-anchor="start" x="970" y="-473.9" font-family="Arial" font-size="14.00" fill="#000000">member_id    </text>
<text text-anchor="start" x="1074.2062" y="-473.9" font-family="Arial" font-size="14.00" fill="#666666">[uuid]</text>
<polygon fill="none" stroke="#000000" points="963,-432.5 963,-462.5 1256,-462.5 1256,-432.5 963,-432.5"/>
<text text-anchor="start" x="970" y="-443.9" font-family="Arial" font-size="14.00" fill="#000000">login_id    </text>
<text text-anchor="start" x="1052.4376" y="-443.9" font-family="Arial" font-size="14.00" fill="#666666">[varchar(255)]</text>
<polygon fill="none" stroke="#000000" points="963,-402.5 963,-432.5 1256,-432.5 1256,-402.5 963,-402.5"/>
<text text-anchor="start" x="970" y="-413.9" font-family="Arial" font-size="14.00" fill="#000000">password    </text>
<text text-anchor="start" x="1064.1024" y="-413.9" font-family="Arial" font-size="14.00" fill="#666666">[varchar(255)]</text>
<polygon fill="none" stroke="#000000" points="963,-372.5 963,-402.5 1256,-402.5 1256,-372.5 963,-372.5"/>
<text text-anchor="start" x="970" y="-383.9" font-family="Arial" font-size="14.00" fill="#000000">email    </text>
<text text-anchor="start" x="1037.6438" y="-383.9" font-family="Arial" font-size="14.00" fill="#666666">[varchar(255)]</text>
<polygon fill="none" stroke="#000000" points="963,-342.5 963,-372.5 1256,-372.5 1256,-342.5 963,-342.5"/>
<text text-anchor="start" x="970" y="-353.9" font-family="Arial" font-size="14.00" fill="#000000">name    </text>
<text text-anchor="start" x="1039.2132" y="-353.9" font-family="Arial" font-size="14.00" fill="#666666">[varchar(255)]</text>
<polygon fill="none" stroke="#000000" points="963,-312.5 963,-342.5 1256,-342.5 1256,-312.5 963,-312.5"/>
<text text-anchor="start" x="970" y="-323.9" font-family="Arial" font-size="14.00" fill="#000000">first_name    </text>
<text text-anchor="start" x="1069.5442" y="-323.9" font-family="Arial" font-size="14.00" fill="#666666">[varchar(255)]</text>
<polygon fill="none" stroke="#000000" points="963,-282.5 963,-312.5 1256,-312.5 1256,-282.5 963,-282.5"/>
<text text-anchor="start" x="970" y="-293.9" font-family="Arial" font-size="14.00" fill="#000000">last_name    </text>
<text text-anchor="start" x="1068.7756" y="-293.9" font-family="Arial" font-size="14.00" fill="#666666">[varchar(255)]</text>
<polygon fill="none" stroke="#000000" points="963,-252.5 963,-282.5 1256,-282.5 1256,-252.5 963,-252.5"/>
<text text-anchor="start" x="970" y="-263.9" font-family="Arial" font-size="14.00" fill="#000000">attend_status_id    </text>
<text text-anchor="start" x="1106.9172" y="-263.9" font-family="Arial" font-size="14.00" fill="#666666">[uuid]</text>
<polygon fill="none" stroke="#000000" points="963,-222.5 963,-252.5 1256,-252.5 1256,-222.5 963,-222.5"/>
<text text-anchor="start" x="970" y="-233.9" font-family="Arial" font-size="14.00" fill="#000000">profile_image_id    </text>
<text text-anchor="start" x="1106.8864" y="-233.9" font-family="Arial" font-size="14.00" fill="#666666">[uuid]</text>
<polygon fill="none" stroke="#000000" points="963,-192.5 963,-222.5 1256,-222.5 1256,-192.5 963,-192.5"/>
<text text-anchor="start" x="970" y="-203.9" font-family="Arial" font-size="14.00" fill="#000000">grade_id    </text>
<text text-anchor="start" x="1058.6676" y="-203.9" font-family="Arial" font-size="14.00" fill="#666666">[uuid]</text>
<polygon fill="none" stroke="#000000" points="963,-162.5 963,-192.5 1256,-192.5 1256,-162.5 963,-162.5"/>
<text text-anchor="start" x="970" y="-173.9" font-family="Arial" font-size="14.00" fill="#000000">group_id    </text>
<text text-anchor="start" x="1058.6676" y="-173.9" font-family="Arial" font-size="14.00" fill="#666666">[uuid]</text>
<polygon fill="none" stroke="#000000" points="963,-132.5 963,-162.5 1256,-162.5 1256,-132.5 963,-132.5"/>
<text text-anchor="start" x="970" y="-143.9" font-family="Arial" font-size="14.00" fill="#000000">personal_organization_id    </text>
<text text-anchor="start" x="1160.582" y="-143.9" font-family="Arial" font-size="14.00" fill="#666666">[uuid]</text>
<polygon fill="none" stroke="#000000" points="963,-102.5 963,-132.5 1256,-132.5 1256,-102.5 963,-102.5"/>
<text text-anchor="start" x="970" y="-113.9" font-family="Arial" font-size="14.00" fill="#000000">role_id    </text>
<text text-anchor="start" x="1046.209" y="-113.9" font-family="Arial" font-size="14.00" fill="#666666">[uuid]</text>
<polygon fill="none" stroke="#000000" points="963,-72.5 963,-102.5 1256,-102.5 1256,-72.5 963,-72.5"/>
<text text-anchor="start" x="970" y="-83.9" font-family="Arial" font-size="14.00" fill="#000000">created_at    </text>
<text text-anchor="start" x="1070.3422" y="-83.9" font-family="Arial" font-size="14.00" fill="#666666">[timestamp with time zone]</text>
<polygon fill="none" stroke="#000000" points="963,-42.5 963,-72.5 1256,-72.5 1256,-42.5 963,-42.5"/>
<text text-anchor="start" x="970" y="-53.9" font-family="Arial" font-size="14.00" fill="#000000">updated_at    </text>
<text text-anchor="start" x="1074.2468" y="-53.9" font-family="Arial" font-size="14.00" fill="#666666">[timestamp with time zone]</text>
</g>
<!-- public.t_chat_room_withdraw_actions&#45;&gt;public.m_members -->
<g id="edge2" class="edge">
<title>public.t_chat_room_withdraw_actions:member_id&#45;&gt;public.m_members:member_id</title>
<path fill="none" stroke="#000000" d="M1124.0029,-694.8346C1137.5362,-685.6351 1128.0597,-654.8058 1114,-637 1071.2447,-582.8531 1005.7553,-655.1469 963,-601 928.9846,-557.9216 908.1111,-477.5 963,-477.5"/>
<polygon fill="#000000" stroke="#000000" points="1123.6628,-694.9251 1112.8413,-693.1517 1118.8314,-696.2125 1114,-697.5 1114,-697.5 1114,-697.5 1118.8314,-696.2125 1115.1587,-701.8483 1123.6628,-694.9251 1123.6628,-694.9251"/>
<text text-anchor="start" x="1121.221" y="-707.5" font-family="Arial" font-size="10.00" fill="#000000">FOREIGN KEY (member_id) REFERENCES m_members(member_id) ON UPDATE SET NULL ON DELETE SET NULL</text>
</g>
</g>
</svg>
