<?xml version="1.0" encoding="UTF-8" standalone="no"?>
<!DOCTYPE svg PUBLIC "-//W3C//DTD SVG 1.1//EN"
 "http://www.w3.org/Graphics/SVG/1.1/DTD/svg11.dtd">
<!-- Generated by graphviz version 2.40.1 (20161225.0304)
 -->
<!-- Title: public.m_permissions Pages: 1 -->
<svg width="1523pt" height="869pt"
 viewBox="0.00 0.00 1523.00 869.00" xmlns="http://www.w3.org/2000/svg" xmlns:xlink="http://www.w3.org/1999/xlink">
<g id="graph0" class="graph" transform="scale(1 1) rotate(0) translate(4 865)">
<title>public.m_permissions</title>
<polygon fill="#ffffff" stroke="transparent" points="-4,4 -4,-865 1519,-865 1519,4 -4,4"/>
<!-- public.m_permissions -->
<g id="node1" class="node">
<title>public.m_permissions</title>
<polygon fill="#efefef" stroke="transparent" points="566,-532.5 566,-567.5 880,-567.5 880,-532.5 566,-532.5"/>
<polygon fill="none" stroke="#000000" points="566,-532.5 566,-567.5 880,-567.5 880,-532.5 566,-532.5"/>
<text text-anchor="start" x="572.7134" y="-545.3" font-family="Arial Bold" font-size="18.00" fill="#000000">public.m_permissions</text>
<text text-anchor="start" x="745.7186" y="-545.3" font-family="Arial" font-size="14.00" fill="#000000">    </text>
<text text-anchor="start" x="779.9234" y="-545.3" font-family="Arial" font-size="14.00" fill="#666666">[BASE TABLE]</text>
<polygon fill="none" stroke="#000000" points="566,-502.5 566,-532.5 880,-532.5 880,-502.5 566,-502.5"/>
<text text-anchor="start" x="573" y="-513.9" font-family="Arial" font-size="14.00" fill="#000000">m_permissions_pkey </text>
<text text-anchor="start" x="708.3464" y="-513.9" font-family="Arial" font-size="14.00" fill="#666666">[bigint]</text>
<polygon fill="none" stroke="#000000" points="566,-472.5 566,-502.5 880,-502.5 880,-472.5 566,-472.5"/>
<text text-anchor="start" x="573" y="-483.9" font-family="Arial" font-size="14.00" fill="#000000">permission_id </text>
<text text-anchor="start" x="663.2272" y="-483.9" font-family="Arial" font-size="14.00" fill="#666666">[uuid]</text>
<polygon fill="none" stroke="#000000" points="566,-442.5 566,-472.5 880,-472.5 880,-442.5 566,-442.5"/>
<text text-anchor="start" x="573" y="-453.9" font-family="Arial" font-size="14.00" fill="#000000">name </text>
<text text-anchor="start" x="611.899" y="-453.9" font-family="Arial" font-size="14.00" fill="#666666">[varchar(255)]</text>
<polygon fill="none" stroke="#000000" points="566,-412.5 566,-442.5 880,-442.5 880,-412.5 566,-412.5"/>
<text text-anchor="start" x="573" y="-423.9" font-family="Arial" font-size="14.00" fill="#000000">description </text>
<text text-anchor="start" x="644.568" y="-423.9" font-family="Arial" font-size="14.00" fill="#666666">[text]</text>
<polygon fill="none" stroke="#000000" points="566,-382.5 566,-412.5 880,-412.5 880,-382.5 566,-382.5"/>
<text text-anchor="start" x="573" y="-393.9" font-family="Arial" font-size="14.00" fill="#000000">key </text>
<text text-anchor="start" x="598.6732" y="-393.9" font-family="Arial" font-size="14.00" fill="#666666">[varchar(255)]</text>
<polygon fill="none" stroke="#000000" points="566,-352.5 566,-382.5 880,-382.5 880,-352.5 566,-352.5"/>
<text text-anchor="start" x="573" y="-363.9" font-family="Arial" font-size="14.00" fill="#000000">permission_category_id </text>
<text text-anchor="start" x="724.6914" y="-363.9" font-family="Arial" font-size="14.00" fill="#666666">[uuid]</text>
<polygon fill="none" stroke="#000000" stroke-width="3" points="564.5,-351.5 564.5,-569.5 881.5,-569.5 881.5,-351.5 564.5,-351.5"/>
</g>
<!-- public.m_permission_categories -->
<g id="node3" class="node">
<title>public.m_permission_categories</title>
<polygon fill="#efefef" stroke="transparent" points="524,-192.5 524,-227.5 922,-227.5 922,-192.5 524,-192.5"/>
<polygon fill="none" stroke="#000000" points="524,-192.5 524,-227.5 922,-227.5 922,-192.5 524,-192.5"/>
<text text-anchor="start" x="530.7005" y="-205.3" font-family="Arial Bold" font-size="18.00" fill="#000000">public.m_permission_categories</text>
<text text-anchor="start" x="787.7315" y="-205.3" font-family="Arial" font-size="14.00" fill="#000000">    </text>
<text text-anchor="start" x="821.9363" y="-205.3" font-family="Arial" font-size="14.00" fill="#666666">[BASE TABLE]</text>
<polygon fill="none" stroke="#000000" points="524,-162.5 524,-192.5 922,-192.5 922,-162.5 524,-162.5"/>
<text text-anchor="start" x="531" y="-173.9" font-family="Arial" font-size="14.00" fill="#000000">m_permission_categories_pkey    </text>
<text text-anchor="start" x="762.014" y="-173.9" font-family="Arial" font-size="14.00" fill="#666666">[bigint]</text>
<polygon fill="none" stroke="#000000" points="524,-132.5 524,-162.5 922,-162.5 922,-132.5 524,-132.5"/>
<text text-anchor="start" x="531" y="-143.9" font-family="Arial" font-size="14.00" fill="#000000">permission_category_id    </text>
<text text-anchor="start" x="713.0056" y="-143.9" font-family="Arial" font-size="14.00" fill="#666666">[uuid]</text>
<polygon fill="none" stroke="#000000" points="524,-102.5 524,-132.5 922,-132.5 922,-102.5 524,-102.5"/>
<text text-anchor="start" x="531" y="-113.9" font-family="Arial" font-size="14.00" fill="#000000">name    </text>
<text text-anchor="start" x="600.2132" y="-113.9" font-family="Arial" font-size="14.00" fill="#666666">[varchar(255)]</text>
<polygon fill="none" stroke="#000000" points="524,-72.5 524,-102.5 922,-102.5 922,-72.5 524,-72.5"/>
<text text-anchor="start" x="531" y="-83.9" font-family="Arial" font-size="14.00" fill="#000000">description    </text>
<text text-anchor="start" x="632.8822" y="-83.9" font-family="Arial" font-size="14.00" fill="#666666">[text]</text>
<polygon fill="none" stroke="#000000" points="524,-42.5 524,-72.5 922,-72.5 922,-42.5 524,-42.5"/>
<text text-anchor="start" x="531" y="-53.9" font-family="Arial" font-size="14.00" fill="#000000">key    </text>
<text text-anchor="start" x="586.9874" y="-53.9" font-family="Arial" font-size="14.00" fill="#666666">[varchar(255)]</text>
</g>
<!-- public.m_permissions&#45;&gt;public.m_permission_categories -->
<g id="edge2" class="edge">
<title>public.m_permissions:permission_category_id&#45;&gt;public.m_permission_categories:permission_category_id</title>
<path fill="none" stroke="#000000" d="M723.653,-342.1435C734.2451,-263.9616 870.8236,-347.2611 922,-271 952.5856,-225.4225 976.8889,-147.5 922,-147.5"/>
<polygon fill="#000000" stroke="#000000" points="723.6293,-342.5198 718.5089,-352.2168 723.3147,-347.5099 723,-352.5 723,-352.5 723,-352.5 723.3147,-347.5099 727.4911,-352.7832 723.6293,-342.5198 723.6293,-342.5198"/>
<text text-anchor="start" x="7.2655" y="-362.5" font-family="Arial" font-size="10.00" fill="#000000">FOREIGN KEY (permission_category_id) REFERENCES m_permission_categories(permission_category_id) ON UPDATE RESTRICT ON DELETE RESTRICT</text>
</g>
<!-- public.m_permission_associations -->
<g id="node2" class="node">
<title>public.m_permission_associations</title>
<polygon fill="#efefef" stroke="transparent" points="516,-782.5 516,-817.5 930,-817.5 930,-782.5 516,-782.5"/>
<polygon fill="none" stroke="#000000" points="516,-782.5 516,-817.5 930,-817.5 930,-782.5 516,-782.5"/>
<text text-anchor="start" x="522.6995" y="-795.3" font-family="Arial Bold" font-size="18.00" fill="#000000">public.m_permission_associations</text>
<text text-anchor="start" x="795.7325" y="-795.3" font-family="Arial" font-size="14.00" fill="#000000">    </text>
<text text-anchor="start" x="829.9373" y="-795.3" font-family="Arial" font-size="14.00" fill="#666666">[BASE TABLE]</text>
<polygon fill="none" stroke="#000000" points="516,-752.5 516,-782.5 930,-782.5 930,-752.5 516,-752.5"/>
<text text-anchor="start" x="523" y="-763.9" font-family="Arial" font-size="14.00" fill="#000000">m_permission_associations_pkey    </text>
<text text-anchor="start" x="766.46" y="-763.9" font-family="Arial" font-size="14.00" fill="#666666">[bigint]</text>
<polygon fill="none" stroke="#000000" points="516,-722.5 516,-752.5 930,-752.5 930,-722.5 516,-722.5"/>
<text text-anchor="start" x="523" y="-733.9" font-family="Arial" font-size="14.00" fill="#000000">permission_id    </text>
<text text-anchor="start" x="643.5414" y="-733.9" font-family="Arial" font-size="14.00" fill="#666666">[uuid]</text>
<polygon fill="none" stroke="#000000" points="516,-692.5 516,-722.5 930,-722.5 930,-692.5 516,-692.5"/>
<text text-anchor="start" x="523" y="-703.9" font-family="Arial" font-size="14.00" fill="#000000">work_position_id    </text>
<text text-anchor="start" x="661.4432" y="-703.9" font-family="Arial" font-size="14.00" fill="#666666">[uuid]</text>
</g>
<!-- public.m_permission_associations&#45;&gt;public.m_permissions -->
<g id="edge1" class="edge">
<title>public.m_permission_associations:permission_id&#45;&gt;public.m_permissions:permission_id</title>
<path fill="none" stroke="#000000" d="M940.1476,-736.7828C1040.1247,-722.1191 989.7706,-487.5 880,-487.5"/>
<polygon fill="#000000" stroke="#000000" points="939.9751,-736.7949 929.6827,-733.0112 934.9876,-737.1475 930,-737.5 930,-737.5 930,-737.5 934.9876,-737.1475 930.3173,-741.9888 939.9751,-736.7949 939.9751,-736.7949"/>
<text text-anchor="start" x="937.168" y="-747.5" font-family="Arial" font-size="10.00" fill="#000000">FOREIGN KEY (permission_id) REFERENCES m_permissions(permission_id) ON UPDATE CASCADE ON DELETE CASCADE</text>
</g>
</g>
</svg>
