<?xml version="1.0" encoding="UTF-8" standalone="no"?>
<!DOCTYPE svg PUBLIC "-//W3C//DTD SVG 1.1//EN"
 "http://www.w3.org/Graphics/SVG/1.1/DTD/svg11.dtd">
<!-- Generated by graphviz version 2.40.1 (20161225.0304)
 -->
<!-- Title: public.t_attached_messages Pages: 1 -->
<svg width="1582pt" height="592pt"
 viewBox="0.00 0.00 1582.00 592.00" xmlns="http://www.w3.org/2000/svg" xmlns:xlink="http://www.w3.org/1999/xlink">
<g id="graph0" class="graph" transform="scale(1 1) rotate(0) translate(4 588)">
<title>public.t_attached_messages</title>
<polygon fill="#ffffff" stroke="transparent" points="-4,4 -4,-588 1578,-588 1578,4 -4,4"/>
<!-- public.t_attached_messages -->
<g id="node1" class="node">
<title>public.t_attached_messages</title>
<polygon fill="#efefef" stroke="transparent" points="555,-502.5 555,-537.5 924,-537.5 924,-502.5 555,-502.5"/>
<polygon fill="none" stroke="#000000" points="555,-502.5 555,-537.5 924,-537.5 924,-502.5 555,-502.5"/>
<text text-anchor="start" x="561.6779" y="-515.3" font-family="Arial Bold" font-size="18.00" fill="#000000">public.t_attached_messages</text>
<text text-anchor="start" x="789.7541" y="-515.3" font-family="Arial" font-size="14.00" fill="#000000">    </text>
<text text-anchor="start" x="823.9589" y="-515.3" font-family="Arial" font-size="14.00" fill="#666666">[BASE TABLE]</text>
<polygon fill="none" stroke="#000000" points="555,-472.5 555,-502.5 924,-502.5 924,-472.5 555,-472.5"/>
<text text-anchor="start" x="562" y="-483.9" font-family="Arial" font-size="14.00" fill="#000000">t_attached_messages_pkey </text>
<text text-anchor="start" x="740.1794" y="-483.9" font-family="Arial" font-size="14.00" fill="#666666">[bigint]</text>
<polygon fill="none" stroke="#000000" points="555,-442.5 555,-472.5 924,-472.5 924,-442.5 555,-442.5"/>
<text text-anchor="start" x="562" y="-453.9" font-family="Arial" font-size="14.00" fill="#000000">message_id </text>
<text text-anchor="start" x="641.3534" y="-453.9" font-family="Arial" font-size="14.00" fill="#666666">[uuid]</text>
<polygon fill="none" stroke="#000000" points="555,-412.5 555,-442.5 924,-442.5 924,-412.5 555,-412.5"/>
<text text-anchor="start" x="562" y="-423.9" font-family="Arial" font-size="14.00" fill="#000000">attachable_item_id </text>
<text text-anchor="start" x="683.3688" y="-423.9" font-family="Arial" font-size="14.00" fill="#666666">[uuid]</text>
<polygon fill="none" stroke="#000000" stroke-width="3" points="553,-411.5 553,-539.5 925,-539.5 925,-411.5 553,-411.5"/>
</g>
<!-- public.t_messages -->
<g id="node2" class="node">
<title>public.t_messages</title>
<polygon fill="#efefef" stroke="transparent" points="376,-252.5 376,-287.5 677,-287.5 677,-252.5 376,-252.5"/>
<polygon fill="none" stroke="#000000" points="376,-252.5 376,-287.5 677,-287.5 677,-252.5 376,-252.5"/>
<text text-anchor="start" x="388.1987" y="-265.3" font-family="Arial Bold" font-size="18.00" fill="#000000">public.t_messages</text>
<text text-anchor="start" x="537.2333" y="-265.3" font-family="Arial" font-size="14.00" fill="#000000">    </text>
<text text-anchor="start" x="571.4381" y="-265.3" font-family="Arial" font-size="14.00" fill="#666666">[BASE TABLE]</text>
<polygon fill="none" stroke="#000000" points="376,-222.5 376,-252.5 677,-252.5 677,-222.5 376,-222.5"/>
<text text-anchor="start" x="383" y="-233.9" font-family="Arial" font-size="14.00" fill="#000000">t_messages_pkey    </text>
<text text-anchor="start" x="530.0168" y="-233.9" font-family="Arial" font-size="14.00" fill="#666666">[bigint]</text>
<polygon fill="none" stroke="#000000" points="376,-192.5 376,-222.5 677,-222.5 677,-192.5 376,-192.5"/>
<text text-anchor="start" x="383" y="-203.9" font-family="Arial" font-size="14.00" fill="#000000">message_id    </text>
<text text-anchor="start" x="492.6676" y="-203.9" font-family="Arial" font-size="14.00" fill="#666666">[uuid]</text>
<polygon fill="none" stroke="#000000" points="376,-162.5 376,-192.5 677,-192.5 677,-162.5 376,-162.5"/>
<text text-anchor="start" x="383" y="-173.9" font-family="Arial" font-size="14.00" fill="#000000">chat_room_id    </text>
<text text-anchor="start" x="502.0014" y="-173.9" font-family="Arial" font-size="14.00" fill="#666666">[uuid]</text>
<polygon fill="none" stroke="#000000" points="376,-132.5 376,-162.5 677,-162.5 677,-132.5 376,-132.5"/>
<text text-anchor="start" x="383" y="-143.9" font-family="Arial" font-size="14.00" fill="#000000">sender_id    </text>
<text text-anchor="start" x="478.6676" y="-143.9" font-family="Arial" font-size="14.00" fill="#666666">[uuid]</text>
<polygon fill="none" stroke="#000000" points="376,-102.5 376,-132.5 677,-132.5 677,-102.5 376,-102.5"/>
<text text-anchor="start" x="383" y="-113.9" font-family="Arial" font-size="14.00" fill="#000000">body    </text>
<text text-anchor="start" x="447.5526" y="-113.9" font-family="Arial" font-size="14.00" fill="#666666">[text]</text>
<polygon fill="none" stroke="#000000" points="376,-72.5 376,-102.5 677,-102.5 677,-72.5 376,-72.5"/>
<text text-anchor="start" x="383" y="-83.9" font-family="Arial" font-size="14.00" fill="#000000">posted_at    </text>
<text text-anchor="start" x="478.6816" y="-83.9" font-family="Arial" font-size="14.00" fill="#666666">[timestamp with time zone]</text>
<polygon fill="none" stroke="#000000" points="376,-42.5 376,-72.5 677,-72.5 677,-42.5 376,-42.5"/>
<text text-anchor="start" x="382.9825" y="-53.9" font-family="Arial" font-size="14.00" fill="#000000">last_edited_at    </text>
<text text-anchor="start" x="504.3331" y="-53.9" font-family="Arial" font-size="14.00" fill="#666666">[timestamp with time zone]</text>
</g>
<!-- public.t_attached_messages&#45;&gt;public.t_messages -->
<g id="edge1" class="edge">
<title>public.t_attached_messages:message_id&#45;&gt;public.t_messages:message_id</title>
<path fill="none" stroke="#000000" d="M544.7836,-455.911C518.0058,-446.365 533.2691,-396.0696 555,-367 588.849,-321.7198 643.151,-376.2802 677,-331 709.8643,-287.0372 731.8889,-207.5 677,-207.5"/>
<polygon fill="#000000" stroke="#000000" points="545.1188,-455.9631 554.3084,-461.9465 550.0594,-456.7315 555,-457.5 555,-457.5 555,-457.5 550.0594,-456.7315 555.6916,-453.0535 545.1188,-455.9631 545.1188,-455.9631"/>
<text text-anchor="start" x="7.1445" y="-467.5" font-family="Arial" font-size="10.00" fill="#000000">FOREIGN KEY (message_id) REFERENCES t_messages(message_id) ON UPDATE SET NULL ON DELETE SET NULL</text>
</g>
<!-- public.t_attachable_items -->
<g id="node3" class="node">
<title>public.t_attachable_items</title>
<polygon fill="#efefef" stroke="transparent" points="781,-222.5 781,-257.5 1125,-257.5 1125,-222.5 781,-222.5"/>
<polygon fill="none" stroke="#000000" points="781,-222.5 781,-257.5 1125,-257.5 1125,-222.5 781,-222.5"/>
<text text-anchor="start" x="787.6888" y="-235.3" font-family="Arial Bold" font-size="18.00" fill="#000000">public.t_attachable_items</text>
<text text-anchor="start" x="990.7432" y="-235.3" font-family="Arial" font-size="14.00" fill="#000000">    </text>
<text text-anchor="start" x="1024.948" y="-235.3" font-family="Arial" font-size="14.00" fill="#666666">[BASE TABLE]</text>
<polygon fill="none" stroke="#000000" points="781,-192.5 781,-222.5 1125,-222.5 1125,-192.5 781,-192.5"/>
<text text-anchor="start" x="788" y="-203.9" font-family="Arial" font-size="14.00" fill="#000000">t_attachable_items_pkey    </text>
<text text-anchor="start" x="977.0322" y="-203.9" font-family="Arial" font-size="14.00" fill="#666666">[bigint]</text>
<polygon fill="none" stroke="#000000" points="781,-162.5 781,-192.5 1125,-192.5 1125,-162.5 781,-162.5"/>
<text text-anchor="start" x="788" y="-173.9" font-family="Arial" font-size="14.00" fill="#000000">attachable_item_id    </text>
<text text-anchor="start" x="939.683" y="-173.9" font-family="Arial" font-size="14.00" fill="#666666">[uuid]</text>
<polygon fill="none" stroke="#000000" points="781,-132.5 781,-162.5 1125,-162.5 1125,-132.5 781,-132.5"/>
<text text-anchor="start" x="788" y="-143.9" font-family="Arial" font-size="14.00" fill="#000000">url    </text>
<text text-anchor="start" x="837.7546" y="-143.9" font-family="Arial" font-size="14.00" fill="#666666">[text]</text>
<polygon fill="none" stroke="#000000" points="781,-102.5 781,-132.5 1125,-132.5 1125,-102.5 781,-102.5"/>
<text text-anchor="start" x="788" y="-113.9" font-family="Arial" font-size="14.00" fill="#000000">size    </text>
<text text-anchor="start" x="847.094" y="-113.9" font-family="Arial" font-size="14.00" fill="#666666">[double precision]</text>
<polygon fill="none" stroke="#000000" points="781,-72.5 781,-102.5 1125,-102.5 1125,-72.5 781,-72.5"/>
<text text-anchor="start" x="788" y="-83.9" font-family="Arial" font-size="14.00" fill="#000000">mime_type_id    </text>
<text text-anchor="start" x="909.3254" y="-83.9" font-family="Arial" font-size="14.00" fill="#666666">[uuid]</text>
</g>
<!-- public.t_attached_messages&#45;&gt;public.t_attachable_items -->
<g id="edge2" class="edge">
<title>public.t_attached_messages:attachable_item_id&#45;&gt;public.t_attachable_items:attachable_item_id</title>
<path fill="none" stroke="#000000" d="M933.8687,-424.9301C946.9637,-416.0428 936.2275,-386.1105 924,-367 886.2742,-308.038 818.7258,-359.962 781,-301 751.4174,-254.7651 726.1111,-177.5 781,-177.5"/>
<polygon fill="#000000" stroke="#000000" points="933.6773,-424.9799 922.8659,-423.1452 928.8386,-426.2399 924,-427.5 924,-427.5 924,-427.5 928.8386,-426.2399 925.1341,-431.8548 933.6773,-424.9799 933.6773,-424.9799"/>
<text text-anchor="start" x="930.918" y="-437.5" font-family="Arial" font-size="10.00" fill="#000000">FOREIGN KEY (attachable_item_id) REFERENCES t_attachable_items(attachable_item_id) ON UPDATE RESTRICT ON DELETE RESTRICT</text>
</g>
</g>
</svg>
