<?xml version="1.0" encoding="UTF-8" standalone="no"?>
<!DOCTYPE svg PUBLIC "-//W3C//DTD SVG 1.1//EN"
 "http://www.w3.org/Graphics/SVG/1.1/DTD/svg11.dtd">
<!-- Generated by graphviz version 2.40.1 (20161225.0304)
 -->
<!-- Title: public.m_chat_rooms Pages: 1 -->
<svg width="1545pt" height="1499pt"
 viewBox="0.00 0.00 1545.00 1499.00" xmlns="http://www.w3.org/2000/svg" xmlns:xlink="http://www.w3.org/1999/xlink">
<g id="graph0" class="graph" transform="scale(1 1) rotate(0) translate(4 1495)">
<title>public.m_chat_rooms</title>
<polygon fill="#ffffff" stroke="transparent" points="-4,4 -4,-1495 1541,-1495 1541,4 -4,4"/>
<!-- public.m_chat_rooms -->
<g id="node1" class="node">
<title>public.m_chat_rooms</title>
<polygon fill="#efefef" stroke="transparent" points="545,-952.5 545,-987.5 857,-987.5 857,-952.5 545,-952.5"/>
<polygon fill="none" stroke="#000000" points="545,-952.5 545,-987.5 857,-987.5 857,-952.5 545,-952.5"/>
<text text-anchor="start" x="551.7034" y="-965.3" font-family="Arial Bold" font-size="18.00" fill="#000000">public.m_chat_rooms</text>
<text text-anchor="start" x="722.7286" y="-965.3" font-family="Arial" font-size="14.00" fill="#000000">    </text>
<text text-anchor="start" x="756.9334" y="-965.3" font-family="Arial" font-size="14.00" fill="#666666">[BASE TABLE]</text>
<polygon fill="none" stroke="#000000" points="545,-922.5 545,-952.5 857,-952.5 857,-922.5 545,-922.5"/>
<text text-anchor="start" x="552" y="-933.9" font-family="Arial" font-size="14.00" fill="#000000">m_chat_rooms_pkey </text>
<text text-anchor="start" x="685.8064" y="-933.9" font-family="Arial" font-size="14.00" fill="#666666">[bigint]</text>
<polygon fill="none" stroke="#000000" points="545,-892.5 545,-922.5 857,-922.5 857,-892.5 545,-892.5"/>
<text text-anchor="start" x="552" y="-903.9" font-family="Arial" font-size="14.00" fill="#000000">chat_room_id </text>
<text text-anchor="start" x="640.6872" y="-903.9" font-family="Arial" font-size="14.00" fill="#666666">[uuid]</text>
<polygon fill="none" stroke="#000000" points="545,-862.5 545,-892.5 857,-892.5 857,-862.5 545,-862.5"/>
<text text-anchor="start" x="552" y="-873.9" font-family="Arial" font-size="14.00" fill="#000000">name </text>
<text text-anchor="start" x="590.899" y="-873.9" font-family="Arial" font-size="14.00" fill="#666666">[varchar(255)]</text>
<polygon fill="none" stroke="#000000" points="545,-832.5 545,-862.5 857,-862.5 857,-832.5 545,-832.5"/>
<text text-anchor="start" x="552" y="-843.9" font-family="Arial" font-size="14.00" fill="#000000">is_private </text>
<text text-anchor="start" x="615.7854" y="-843.9" font-family="Arial" font-size="14.00" fill="#666666">[boolean]</text>
<polygon fill="none" stroke="#000000" points="545,-802.5 545,-832.5 857,-832.5 857,-802.5 545,-802.5"/>
<text text-anchor="start" x="552" y="-813.9" font-family="Arial" font-size="14.00" fill="#000000">cover_image_id </text>
<text text-anchor="start" x="654.6858" y="-813.9" font-family="Arial" font-size="14.00" fill="#666666">[uuid]</text>
<polygon fill="none" stroke="#000000" points="545,-772.5 545,-802.5 857,-802.5 857,-772.5 545,-772.5"/>
<text text-anchor="start" x="552" y="-783.9" font-family="Arial" font-size="14.00" fill="#000000">owner_id </text>
<text text-anchor="start" x="612.6774" y="-783.9" font-family="Arial" font-size="14.00" fill="#666666">[uuid]</text>
<polygon fill="none" stroke="#000000" points="545,-742.5 545,-772.5 857,-772.5 857,-742.5 545,-742.5"/>
<text text-anchor="start" x="552" y="-753.9" font-family="Arial" font-size="14.00" fill="#000000">from_organization </text>
<text text-anchor="start" x="667.9102" y="-753.9" font-family="Arial" font-size="14.00" fill="#666666">[boolean]</text>
<polygon fill="none" stroke="#000000" points="545,-712.5 545,-742.5 857,-742.5 857,-712.5 545,-712.5"/>
<text text-anchor="start" x="552" y="-723.9" font-family="Arial" font-size="14.00" fill="#000000">created_at </text>
<text text-anchor="start" x="622.028" y="-723.9" font-family="Arial" font-size="14.00" fill="#666666">[timestamp with time zone]</text>
<polygon fill="none" stroke="#000000" points="545,-682.5 545,-712.5 857,-712.5 857,-682.5 545,-682.5"/>
<text text-anchor="start" x="552" y="-693.9" font-family="Arial" font-size="14.00" fill="#000000">updated_at </text>
<text text-anchor="start" x="625.9326" y="-693.9" font-family="Arial" font-size="14.00" fill="#666666">[timestamp with time zone]</text>
<polygon fill="none" stroke="#000000" stroke-width="3" points="543.5,-681.5 543.5,-989.5 858.5,-989.5 858.5,-681.5 543.5,-681.5"/>
</g>
<!-- public.t_images -->
<g id="node5" class="node">
<title>public.t_images</title>
<polygon fill="#efefef" stroke="transparent" points="376,-357.5 376,-392.5 642,-392.5 642,-357.5 376,-357.5"/>
<polygon fill="none" stroke="#000000" points="376,-357.5 376,-392.5 642,-392.5 642,-357.5 376,-357.5"/>
<text text-anchor="start" x="382.7047" y="-370.3" font-family="Arial Bold" font-size="18.00" fill="#000000">public.t_images</text>
<text text-anchor="start" x="507.7273" y="-370.3" font-family="Arial" font-size="14.00" fill="#000000">    </text>
<text text-anchor="start" x="541.9321" y="-370.3" font-family="Arial" font-size="14.00" fill="#666666">[BASE TABLE]</text>
<polygon fill="none" stroke="#000000" points="376,-327.5 376,-357.5 642,-357.5 642,-327.5 376,-327.5"/>
<text text-anchor="start" x="383" y="-338.9" font-family="Arial" font-size="14.00" fill="#000000">t_images_pkey    </text>
<text text-anchor="start" x="511.3408" y="-338.9" font-family="Arial" font-size="14.00" fill="#666666">[bigint]</text>
<polygon fill="none" stroke="#000000" points="376,-297.5 376,-327.5 642,-327.5 642,-297.5 376,-297.5"/>
<text text-anchor="start" x="383" y="-308.9" font-family="Arial" font-size="14.00" fill="#000000">image_id    </text>
<text text-anchor="start" x="473.9916" y="-308.9" font-family="Arial" font-size="14.00" fill="#666666">[uuid]</text>
<polygon fill="none" stroke="#000000" points="376,-267.5 376,-297.5 642,-297.5 642,-267.5 376,-267.5"/>
<text text-anchor="start" x="383" y="-278.9" font-family="Arial" font-size="14.00" fill="#000000">height    </text>
<text text-anchor="start" x="455.3324" y="-278.9" font-family="Arial" font-size="14.00" fill="#666666">[double precision]</text>
<polygon fill="none" stroke="#000000" points="376,-237.5 376,-267.5 642,-267.5 642,-237.5 376,-237.5"/>
<text text-anchor="start" x="383" y="-248.9" font-family="Arial" font-size="14.00" fill="#000000">width    </text>
<text text-anchor="start" x="449.8738" y="-248.9" font-family="Arial" font-size="14.00" fill="#666666">[double precision]</text>
<polygon fill="none" stroke="#000000" points="376,-207.5 376,-237.5 642,-237.5 642,-207.5 376,-207.5"/>
<text text-anchor="start" x="383" y="-218.9" font-family="Arial" font-size="14.00" fill="#000000">attachable_item_id    </text>
<text text-anchor="start" x="534.683" y="-218.9" font-family="Arial" font-size="14.00" fill="#666666">[uuid]</text>
</g>
<!-- public.m_chat_rooms&#45;&gt;public.t_images -->
<g id="edge4" class="edge">
<title>public.m_chat_rooms:cover_image_id&#45;&gt;public.t_images:image_id</title>
<path fill="none" stroke="#000000" d="M534.8504,-816.9684C408.3373,-802.9091 624.1585,-514.0208 642,-436 654.2359,-382.4923 696.8889,-312.5 642,-312.5"/>
<polygon fill="#000000" stroke="#000000" points="535.0137,-816.9769 544.7646,-821.9938 540.0068,-817.2384 545,-817.5 545,-817.5 545,-817.5 540.0068,-817.2384 545.2354,-813.0062 535.0137,-816.9769 535.0137,-816.9769"/>
<text text-anchor="start" x="7.1515" y="-827.5" font-family="Arial" font-size="10.00" fill="#000000">FOREIGN KEY (cover_image_id) REFERENCES t_images(image_id) ON UPDATE SET NULL ON DELETE SET NULL</text>
</g>
<!-- public.m_members -->
<g id="node6" class="node">
<title>public.m_members</title>
<polygon fill="#efefef" stroke="transparent" points="747,-522.5 747,-557.5 1040,-557.5 1040,-522.5 747,-522.5"/>
<polygon fill="none" stroke="#000000" points="747,-522.5 747,-557.5 1040,-557.5 1040,-522.5 747,-522.5"/>
<text text-anchor="start" x="753.7146" y="-535.3" font-family="Arial Bold" font-size="18.00" fill="#000000">public.m_members</text>
<text text-anchor="start" x="905.7174" y="-535.3" font-family="Arial" font-size="14.00" fill="#000000">    </text>
<text text-anchor="start" x="939.9222" y="-535.3" font-family="Arial" font-size="14.00" fill="#666666">[BASE TABLE]</text>
<polygon fill="none" stroke="#000000" points="747,-492.5 747,-522.5 1040,-522.5 1040,-492.5 747,-492.5"/>
<text text-anchor="start" x="754" y="-503.9" font-family="Arial" font-size="14.00" fill="#000000">m_members_pkey    </text>
<text text-anchor="start" x="903.3254" y="-503.9" font-family="Arial" font-size="14.00" fill="#666666">[bigint]</text>
<polygon fill="none" stroke="#000000" points="747,-462.5 747,-492.5 1040,-492.5 1040,-462.5 747,-462.5"/>
<text text-anchor="start" x="754" y="-473.9" font-family="Arial" font-size="14.00" fill="#000000">member_id    </text>
<text text-anchor="start" x="858.2062" y="-473.9" font-family="Arial" font-size="14.00" fill="#666666">[uuid]</text>
<polygon fill="none" stroke="#000000" points="747,-432.5 747,-462.5 1040,-462.5 1040,-432.5 747,-432.5"/>
<text text-anchor="start" x="754" y="-443.9" font-family="Arial" font-size="14.00" fill="#000000">login_id    </text>
<text text-anchor="start" x="836.4376" y="-443.9" font-family="Arial" font-size="14.00" fill="#666666">[varchar(255)]</text>
<polygon fill="none" stroke="#000000" points="747,-402.5 747,-432.5 1040,-432.5 1040,-402.5 747,-402.5"/>
<text text-anchor="start" x="754" y="-413.9" font-family="Arial" font-size="14.00" fill="#000000">password    </text>
<text text-anchor="start" x="848.1024" y="-413.9" font-family="Arial" font-size="14.00" fill="#666666">[varchar(255)]</text>
<polygon fill="none" stroke="#000000" points="747,-372.5 747,-402.5 1040,-402.5 1040,-372.5 747,-372.5"/>
<text text-anchor="start" x="754" y="-383.9" font-family="Arial" font-size="14.00" fill="#000000">email    </text>
<text text-anchor="start" x="821.6438" y="-383.9" font-family="Arial" font-size="14.00" fill="#666666">[varchar(255)]</text>
<polygon fill="none" stroke="#000000" points="747,-342.5 747,-372.5 1040,-372.5 1040,-342.5 747,-342.5"/>
<text text-anchor="start" x="754" y="-353.9" font-family="Arial" font-size="14.00" fill="#000000">name    </text>
<text text-anchor="start" x="823.2132" y="-353.9" font-family="Arial" font-size="14.00" fill="#666666">[varchar(255)]</text>
<polygon fill="none" stroke="#000000" points="747,-312.5 747,-342.5 1040,-342.5 1040,-312.5 747,-312.5"/>
<text text-anchor="start" x="754" y="-323.9" font-family="Arial" font-size="14.00" fill="#000000">first_name    </text>
<text text-anchor="start" x="853.5442" y="-323.9" font-family="Arial" font-size="14.00" fill="#666666">[varchar(255)]</text>
<polygon fill="none" stroke="#000000" points="747,-282.5 747,-312.5 1040,-312.5 1040,-282.5 747,-282.5"/>
<text text-anchor="start" x="754" y="-293.9" font-family="Arial" font-size="14.00" fill="#000000">last_name    </text>
<text text-anchor="start" x="852.7756" y="-293.9" font-family="Arial" font-size="14.00" fill="#666666">[varchar(255)]</text>
<polygon fill="none" stroke="#000000" points="747,-252.5 747,-282.5 1040,-282.5 1040,-252.5 747,-252.5"/>
<text text-anchor="start" x="754" y="-263.9" font-family="Arial" font-size="14.00" fill="#000000">attend_status_id    </text>
<text text-anchor="start" x="890.9172" y="-263.9" font-family="Arial" font-size="14.00" fill="#666666">[uuid]</text>
<polygon fill="none" stroke="#000000" points="747,-222.5 747,-252.5 1040,-252.5 1040,-222.5 747,-222.5"/>
<text text-anchor="start" x="754" y="-233.9" font-family="Arial" font-size="14.00" fill="#000000">profile_image_id    </text>
<text text-anchor="start" x="890.8864" y="-233.9" font-family="Arial" font-size="14.00" fill="#666666">[uuid]</text>
<polygon fill="none" stroke="#000000" points="747,-192.5 747,-222.5 1040,-222.5 1040,-192.5 747,-192.5"/>
<text text-anchor="start" x="754" y="-203.9" font-family="Arial" font-size="14.00" fill="#000000">grade_id    </text>
<text text-anchor="start" x="842.6676" y="-203.9" font-family="Arial" font-size="14.00" fill="#666666">[uuid]</text>
<polygon fill="none" stroke="#000000" points="747,-162.5 747,-192.5 1040,-192.5 1040,-162.5 747,-162.5"/>
<text text-anchor="start" x="754" y="-173.9" font-family="Arial" font-size="14.00" fill="#000000">group_id    </text>
<text text-anchor="start" x="842.6676" y="-173.9" font-family="Arial" font-size="14.00" fill="#666666">[uuid]</text>
<polygon fill="none" stroke="#000000" points="747,-132.5 747,-162.5 1040,-162.5 1040,-132.5 747,-132.5"/>
<text text-anchor="start" x="754" y="-143.9" font-family="Arial" font-size="14.00" fill="#000000">personal_organization_id    </text>
<text text-anchor="start" x="944.582" y="-143.9" font-family="Arial" font-size="14.00" fill="#666666">[uuid]</text>
<polygon fill="none" stroke="#000000" points="747,-102.5 747,-132.5 1040,-132.5 1040,-102.5 747,-102.5"/>
<text text-anchor="start" x="754" y="-113.9" font-family="Arial" font-size="14.00" fill="#000000">role_id    </text>
<text text-anchor="start" x="830.209" y="-113.9" font-family="Arial" font-size="14.00" fill="#666666">[uuid]</text>
<polygon fill="none" stroke="#000000" points="747,-72.5 747,-102.5 1040,-102.5 1040,-72.5 747,-72.5"/>
<text text-anchor="start" x="754" y="-83.9" font-family="Arial" font-size="14.00" fill="#000000">created_at    </text>
<text text-anchor="start" x="854.3422" y="-83.9" font-family="Arial" font-size="14.00" fill="#666666">[timestamp with time zone]</text>
<polygon fill="none" stroke="#000000" points="747,-42.5 747,-72.5 1040,-72.5 1040,-42.5 747,-42.5"/>
<text text-anchor="start" x="754" y="-53.9" font-family="Arial" font-size="14.00" fill="#000000">updated_at    </text>
<text text-anchor="start" x="858.2468" y="-53.9" font-family="Arial" font-size="14.00" fill="#666666">[timestamp with time zone]</text>
</g>
<!-- public.m_chat_rooms&#45;&gt;public.m_members -->
<g id="edge5" class="edge">
<title>public.m_chat_rooms:owner_id&#45;&gt;public.m_members:member_id</title>
<path fill="none" stroke="#000000" d="M867.1395,-786.6582C920.8321,-777.0886 894.1118,-688.1944 857,-637 826.8083,-595.3516 777.1917,-642.6484 747,-601 714.7844,-556.5597 692.1111,-477.5 747,-477.5"/>
<polygon fill="#000000" stroke="#000000" points="866.9657,-786.6726 856.6277,-783.0154 861.9829,-787.0863 857,-787.5 857,-787.5 857,-787.5 861.9829,-787.0863 857.3723,-791.9846 866.9657,-786.6726 866.9657,-786.6726"/>
<text text-anchor="start" x="863.9405" y="-797.5" font-family="Arial" font-size="10.00" fill="#000000">FOREIGN KEY (owner_id) REFERENCES m_members(member_id) ON UPDATE SET NULL ON DELETE SET NULL</text>
</g>
<!-- public.m_organizations -->
<g id="node2" class="node">
<title>public.m_organizations</title>
<polygon fill="#efefef" stroke="transparent" points="121,-1412.5 121,-1447.5 446,-1447.5 446,-1412.5 121,-1412.5"/>
<polygon fill="none" stroke="#000000" points="121,-1412.5 121,-1447.5 446,-1447.5 446,-1412.5 121,-1412.5"/>
<text text-anchor="start" x="127.6991" y="-1425.3" font-family="Arial Bold" font-size="18.00" fill="#000000">public.m_organizations</text>
<text text-anchor="start" x="311.7329" y="-1425.3" font-family="Arial" font-size="14.00" fill="#000000">    </text>
<text text-anchor="start" x="345.9377" y="-1425.3" font-family="Arial" font-size="14.00" fill="#666666">[BASE TABLE]</text>
<polygon fill="none" stroke="#000000" points="121,-1382.5 121,-1412.5 446,-1412.5 446,-1382.5 121,-1382.5"/>
<text text-anchor="start" x="128" y="-1393.9" font-family="Arial" font-size="14.00" fill="#000000">m_organizations_pkey    </text>
<text text-anchor="start" x="302.2384" y="-1393.9" font-family="Arial" font-size="14.00" fill="#666666">[bigint]</text>
<polygon fill="none" stroke="#000000" points="121,-1352.5 121,-1382.5 446,-1382.5 446,-1352.5 121,-1352.5"/>
<text text-anchor="start" x="128" y="-1363.9" font-family="Arial" font-size="14.00" fill="#000000">organization_id    </text>
<text text-anchor="start" x="257.1192" y="-1363.9" font-family="Arial" font-size="14.00" fill="#666666">[uuid]</text>
<polygon fill="none" stroke="#000000" points="121,-1322.5 121,-1352.5 446,-1352.5 446,-1322.5 121,-1322.5"/>
<text text-anchor="start" x="128" y="-1333.9" font-family="Arial" font-size="14.00" fill="#000000">name    </text>
<text text-anchor="start" x="197.2132" y="-1333.9" font-family="Arial" font-size="14.00" fill="#666666">[varchar(255)]</text>
<polygon fill="none" stroke="#000000" points="121,-1292.5 121,-1322.5 446,-1322.5 446,-1292.5 121,-1292.5"/>
<text text-anchor="start" x="128" y="-1303.9" font-family="Arial" font-size="14.00" fill="#000000">description    </text>
<text text-anchor="start" x="229.8822" y="-1303.9" font-family="Arial" font-size="14.00" fill="#666666">[text]</text>
<polygon fill="none" stroke="#000000" points="121,-1262.5 121,-1292.5 446,-1292.5 446,-1262.5 121,-1262.5"/>
<text text-anchor="start" x="128" y="-1273.9" font-family="Arial" font-size="14.00" fill="#000000">color    </text>
<text text-anchor="start" x="192.5372" y="-1273.9" font-family="Arial" font-size="14.00" fill="#666666">[varchar(7)]</text>
<polygon fill="none" stroke="#000000" points="121,-1232.5 121,-1262.5 446,-1262.5 446,-1232.5 121,-1232.5"/>
<text text-anchor="start" x="128" y="-1243.9" font-family="Arial" font-size="14.00" fill="#000000">is_personal    </text>
<text text-anchor="start" x="233.7742" y="-1243.9" font-family="Arial" font-size="14.00" fill="#666666">[boolean]</text>
<polygon fill="none" stroke="#000000" points="121,-1202.5 121,-1232.5 446,-1232.5 446,-1202.5 121,-1202.5"/>
<text text-anchor="start" x="128" y="-1213.9" font-family="Arial" font-size="14.00" fill="#000000">is_whole    </text>
<text text-anchor="start" x="216.655" y="-1213.9" font-family="Arial" font-size="14.00" fill="#666666">[boolean]</text>
<polygon fill="none" stroke="#000000" points="121,-1172.5 121,-1202.5 446,-1202.5 446,-1172.5 121,-1172.5"/>
<text text-anchor="start" x="128" y="-1183.9" font-family="Arial" font-size="14.00" fill="#000000">created_at    </text>
<text text-anchor="start" x="228.3422" y="-1183.9" font-family="Arial" font-size="14.00" fill="#666666">[timestamp with time zone]</text>
<polygon fill="none" stroke="#000000" points="121,-1142.5 121,-1172.5 446,-1172.5 446,-1142.5 121,-1142.5"/>
<text text-anchor="start" x="128" y="-1153.9" font-family="Arial" font-size="14.00" fill="#000000">updated_at    </text>
<text text-anchor="start" x="232.2468" y="-1153.9" font-family="Arial" font-size="14.00" fill="#666666">[timestamp with time zone]</text>
<polygon fill="none" stroke="#000000" points="121,-1112.5 121,-1142.5 446,-1142.5 446,-1112.5 121,-1112.5"/>
<text text-anchor="start" x="128" y="-1123.9" font-family="Arial" font-size="14.00" fill="#000000">chat_room_id    </text>
<text text-anchor="start" x="247.0014" y="-1123.9" font-family="Arial" font-size="14.00" fill="#666666">[uuid]</text>
</g>
<!-- public.m_organizations&#45;&gt;public.m_chat_rooms -->
<g id="edge1" class="edge">
<title>public.m_organizations:chat_room_id&#45;&gt;public.m_chat_rooms:chat_room_id</title>
<path fill="none" stroke="#000000" d="M456.2318,-1126.7465C545.5902,-1112.718 441.4431,-907.5 545,-907.5"/>
<polygon fill="#000000" stroke="#000000" points="455.973,-1126.7655 445.6695,-1123.0122 450.9865,-1127.1327 446,-1127.5 446,-1127.5 446,-1127.5 450.9865,-1127.1327 446.3305,-1131.9878 455.973,-1126.7655 455.973,-1126.7655"/>
<text text-anchor="start" x="453.159" y="-1111.5" font-family="Arial" font-size="10.00" fill="#000000">FOREIGN KEY (chat_room_id) REFERENCES m_chat_rooms(chat_room_id) ON UPDATE RESTRICT ON DELETE RESTRICT</text>
</g>
<!-- public.t_messages -->
<g id="node3" class="node">
<title>public.t_messages</title>
<polygon fill="#efefef" stroke="transparent" points="550,-1367.5 550,-1402.5 851,-1402.5 851,-1367.5 550,-1367.5"/>
<polygon fill="none" stroke="#000000" points="550,-1367.5 550,-1402.5 851,-1402.5 851,-1367.5 550,-1367.5"/>
<text text-anchor="start" x="562.1987" y="-1380.3" font-family="Arial Bold" font-size="18.00" fill="#000000">public.t_messages</text>
<text text-anchor="start" x="711.2333" y="-1380.3" font-family="Arial" font-size="14.00" fill="#000000">    </text>
<text text-anchor="start" x="745.4381" y="-1380.3" font-family="Arial" font-size="14.00" fill="#666666">[BASE TABLE]</text>
<polygon fill="none" stroke="#000000" points="550,-1337.5 550,-1367.5 851,-1367.5 851,-1337.5 550,-1337.5"/>
<text text-anchor="start" x="557" y="-1348.9" font-family="Arial" font-size="14.00" fill="#000000">t_messages_pkey    </text>
<text text-anchor="start" x="704.0168" y="-1348.9" font-family="Arial" font-size="14.00" fill="#666666">[bigint]</text>
<polygon fill="none" stroke="#000000" points="550,-1307.5 550,-1337.5 851,-1337.5 851,-1307.5 550,-1307.5"/>
<text text-anchor="start" x="557" y="-1318.9" font-family="Arial" font-size="14.00" fill="#000000">message_id    </text>
<text text-anchor="start" x="666.6676" y="-1318.9" font-family="Arial" font-size="14.00" fill="#666666">[uuid]</text>
<polygon fill="none" stroke="#000000" points="550,-1277.5 550,-1307.5 851,-1307.5 851,-1277.5 550,-1277.5"/>
<text text-anchor="start" x="557" y="-1288.9" font-family="Arial" font-size="14.00" fill="#000000">chat_room_id    </text>
<text text-anchor="start" x="676.0014" y="-1288.9" font-family="Arial" font-size="14.00" fill="#666666">[uuid]</text>
<polygon fill="none" stroke="#000000" points="550,-1247.5 550,-1277.5 851,-1277.5 851,-1247.5 550,-1247.5"/>
<text text-anchor="start" x="557" y="-1258.9" font-family="Arial" font-size="14.00" fill="#000000">sender_id    </text>
<text text-anchor="start" x="652.6676" y="-1258.9" font-family="Arial" font-size="14.00" fill="#666666">[uuid]</text>
<polygon fill="none" stroke="#000000" points="550,-1217.5 550,-1247.5 851,-1247.5 851,-1217.5 550,-1217.5"/>
<text text-anchor="start" x="557" y="-1228.9" font-family="Arial" font-size="14.00" fill="#000000">body    </text>
<text text-anchor="start" x="621.5526" y="-1228.9" font-family="Arial" font-size="14.00" fill="#666666">[text]</text>
<polygon fill="none" stroke="#000000" points="550,-1187.5 550,-1217.5 851,-1217.5 851,-1187.5 550,-1187.5"/>
<text text-anchor="start" x="557" y="-1198.9" font-family="Arial" font-size="14.00" fill="#000000">posted_at    </text>
<text text-anchor="start" x="652.6816" y="-1198.9" font-family="Arial" font-size="14.00" fill="#666666">[timestamp with time zone]</text>
<polygon fill="none" stroke="#000000" points="550,-1157.5 550,-1187.5 851,-1187.5 851,-1157.5 550,-1157.5"/>
<text text-anchor="start" x="556.9825" y="-1168.9" font-family="Arial" font-size="14.00" fill="#000000">last_edited_at    </text>
<text text-anchor="start" x="678.3331" y="-1168.9" font-family="Arial" font-size="14.00" fill="#666666">[timestamp with time zone]</text>
</g>
<!-- public.t_messages&#45;&gt;public.m_chat_rooms -->
<g id="edge2" class="edge">
<title>public.t_messages:chat_room_id&#45;&gt;public.m_chat_rooms:chat_room_id</title>
<path fill="none" stroke="#000000" d="M861.3804,-1291.7593C926.9661,-1281.8354 896.8636,-1174.5836 851,-1115 765.1881,-1003.5177 630.8119,-1145.4823 545,-1034 510.7066,-989.4478 488.7778,-907.5 545,-907.5"/>
<polygon fill="#000000" stroke="#000000" points="860.9746,-1291.7881 850.6797,-1288.0114 855.9873,-1292.1441 851,-1292.5 851,-1292.5 851,-1292.5 855.9873,-1292.1441 851.3203,-1296.9886 860.9746,-1291.7881 860.9746,-1291.7881"/>
<text text-anchor="start" x="857.818" y="-1302.5" font-family="Arial" font-size="10.00" fill="#000000">FOREIGN KEY (chat_room_id) REFERENCES m_chat_rooms(chat_room_id) ON UPDATE CASCADE ON DELETE CASCADE</text>
</g>
<!-- public.m_chat_room_belongings -->
<g id="node4" class="node">
<title>public.m_chat_room_belongings</title>
<polygon fill="#efefef" stroke="transparent" points="955,-1322.5 955,-1357.5 1355,-1357.5 1355,-1322.5 955,-1322.5"/>
<polygon fill="none" stroke="#000000" points="955,-1322.5 955,-1357.5 1355,-1357.5 1355,-1322.5 955,-1322.5"/>
<text text-anchor="start" x="961.6844" y="-1335.3" font-family="Arial Bold" font-size="18.00" fill="#000000">public.m_chat_room_belongings</text>
<text text-anchor="start" x="1220.7476" y="-1335.3" font-family="Arial" font-size="14.00" fill="#000000">    </text>
<text text-anchor="start" x="1254.9524" y="-1335.3" font-family="Arial" font-size="14.00" fill="#666666">[BASE TABLE]</text>
<polygon fill="none" stroke="#000000" points="955,-1292.5 955,-1322.5 1355,-1322.5 1355,-1292.5 955,-1292.5"/>
<text text-anchor="start" x="962" y="-1303.9" font-family="Arial" font-size="14.00" fill="#000000">m_chat_room_belongings_pkey    </text>
<text text-anchor="start" x="1194.5946" y="-1303.9" font-family="Arial" font-size="14.00" fill="#666666">[bigint]</text>
<polygon fill="none" stroke="#000000" points="955,-1262.5 955,-1292.5 1355,-1292.5 1355,-1262.5 955,-1262.5"/>
<text text-anchor="start" x="962" y="-1273.9" font-family="Arial" font-size="14.00" fill="#000000">member_id    </text>
<text text-anchor="start" x="1066.2062" y="-1273.9" font-family="Arial" font-size="14.00" fill="#666666">[uuid]</text>
<polygon fill="none" stroke="#000000" points="955,-1232.5 955,-1262.5 1355,-1262.5 1355,-1232.5 955,-1232.5"/>
<text text-anchor="start" x="962" y="-1243.9" font-family="Arial" font-size="14.00" fill="#000000">chat_room_id    </text>
<text text-anchor="start" x="1081.0014" y="-1243.9" font-family="Arial" font-size="14.00" fill="#666666">[uuid]</text>
<polygon fill="none" stroke="#000000" points="955,-1202.5 955,-1232.5 1355,-1232.5 1355,-1202.5 955,-1202.5"/>
<text text-anchor="start" x="962" y="-1213.9" font-family="Arial" font-size="14.00" fill="#000000">added_at    </text>
<text text-anchor="start" x="1054.5736" y="-1213.9" font-family="Arial" font-size="14.00" fill="#666666">[timestamp with time zone]</text>
</g>
<!-- public.m_chat_room_belongings&#45;&gt;public.m_chat_rooms -->
<g id="edge3" class="edge">
<title>public.m_chat_room_belongings:chat_room_id&#45;&gt;public.m_chat_rooms:chat_room_id</title>
<path fill="none" stroke="#000000" d="M944.823,-1245.3288C881.6214,-1216.3721 931.9457,-907.5 857,-907.5"/>
<polygon fill="#000000" stroke="#000000" points="945.2201,-1245.4135 954.0611,-1251.901 950.11,-1246.4567 955,-1247.5 955,-1247.5 955,-1247.5 950.11,-1246.4567 955.9389,-1243.099 945.2201,-1245.4135 945.2201,-1245.4135"/>
<text text-anchor="start" x="961.818" y="-1257.5" font-family="Arial" font-size="10.00" fill="#000000">FOREIGN KEY (chat_room_id) REFERENCES m_chat_rooms(chat_room_id) ON UPDATE CASCADE ON DELETE CASCADE</text>
</g>
</g>
</svg>
